<?xml version="1.0" encoding="utf-8"?>
<!-- Generator: Adobe Illustrator 19.1.0, SVG Export Plug-In . SVG Version: 6.00 Build 0)  -->
<svg version="1.1" id="Vrstva_1" xmlns="http://www.w3.org/2000/svg" xmlns:xlink="http://www.w3.org/1999/xlink" x="0px" y="0px"
	 viewBox="0 0 354.3 155.9" style="enable-background:new 0 0 354.3 155.9;" xml:space="preserve">
<style type="text/css">
	.st0{fill-rule:evenodd;clip-rule:evenodd;fill:#1D1D1B;}
</style>
<g>
	<path class="st0" d="M350,99.6c-0.2,0.4-0.6,1.2-1.2,2.3l-3.5,10.2c-3.9,11.2-8.7,16.8-14.4,16.7c-0.4-0.3-1.1-1.6-2.2-3.8
		c-1.2-2.5-2.3-4.4-3.3-5.7c-0.7,2.3-1.5,6.1-2.2,11.3c-0.8,5.8-1.5,9.5-1.8,11c-0.8,3.3-1.6,4.9-2.7,4.9c-0.8,0-2-0.1-3.5-0.2
		c-1.6-0.1-2.8-0.2-3.6-0.2c1.7-3.2,3.2-7.7,4.5-13.4l2.9-13.7c1-4.4,3.1-8.5,6.4-12.2c0.4,0.7,1.7,3.7,3.9,8.9
		c1.5,3.9,3.2,6.8,4.9,8.9c3.5-1.1,8.3-8.8,14.6-23C349.3,101.2,349.7,100.4,350,99.6L350,99.6z M353.7,149.1c-1.6-1-3-2.6-4.2-4.9
		c-1.1-2.2-1.6-4.3-1.6-6.2c0-0.5,0.1-1,0.2-1.5c0.9-3.9,1.6-10.5,2.2-20c0.8-14.4,1.3-21.6,1.3-21.8c-0.6,5.9-1.6,14.8-3,26.4
		c-1.4,10.7-2,16.6-2,17.4c0,1,0.4,2.5,1.2,4.2C349.1,145.6,351,147.7,353.7,149.1z"/>
	<path class="st0" d="M313.3,137c-0.8,3.2-3.2,5.9-7.1,8.2c-3.2,1.8-5.9,2.8-7.9,2.8c-2.1,0-4.2-1.1-6.3-3.3
		c-3.8-3.8-5.2-7.6-4.2-11.5c0.2-0.8,0.5-1.5,0.9-2.2c-0.2,0.4-0.3,0.8-0.4,1.2c-0.8,2.9-0.3,5.9,1.4,8.7c1.9,3.2,4.8,4.7,8.5,4.7
		c2.3,0,4.8-0.7,7.2-2.1c2.8-1.6,4.5-3.5,5.2-5.8c0.4-1.7-1.6-3.7-6.1-6.1c-2.2-1.2-6.7-3.2-13.4-6c-5.3-2.2-8.3-3.9-9.2-4.9
		c1.3-1.9,3.7-4,7.1-6.4c2.9-1.9,4.6-2.8,5.1-2.8c1.6,0,3.6,1,5.9,2.9c2.7,2.2,3.8,4.5,3.4,6.8c-0.9-1.6-2.2-3.2-3.6-4.6
		c-1.8-1.8-3.3-2.6-4.5-2.6s-2.3,0.4-3.6,1.2c-0.5,0.3-1.9,1.4-4.2,3.2c0.5,1.2,3.2,3,7.9,5.4c6.8,3.3,10.9,5.4,12.4,6.3
		C312.1,132.5,313.8,134.8,313.3,137z"/>
	<path class="st0" d="M287,99l-1.2-1.6c-1.6,0.3-2.8,0.7-3.5,1.2c-0.8,0.6-1.5,1.5-2,2.9l1.1,1.8C284.2,103.3,286.1,102,287,99
		L287,99z M291.7,98.4c-0.6,1.5-1.8,3.2-3.5,5c-1.9,2-3.6,3-5,3c-2.3,0-4-0.9-5-2.8c-0.8-1.2-1.1-2.5-1.1-3.9c0-0.8,0.2-1.8,0.7-3.1
		c0.5-1.2,0.7-2,0.7-2.2h9.2L291.7,98.4z"/>
	<path class="st0" d="M281.8,115.1c-1.2,2.7-3.5,8.4-6.9,17c-3,7.6-5.6,13.6-7.8,18c0.5-2.2,1.5-5.3,2.8-9.4
		c1.4-4.2,2.3-7.4,2.8-9.4c0.8-3.5,1.3-6.6,1.3-9.4c0-2.9-0.5-5.6-1.5-8.2c1.1,0,2.6,0.2,4.6,0.6
		C279.3,114.9,280.8,115.1,281.8,115.1z"/>
	<path class="st0" d="M272,142.4c-11,1.3-20.9,3-29.8,5c0-0.9,0.4-2.5,1.1-4.5c0.7-2.1,1.1-3.6,1.1-4.7c0-2.9-0.8-6.6-2.5-11
		c-2-5.6-3.3-10.1-3.9-13.4c0.4-0.3,0.8-0.4,1.2-0.4c1.2,0,2.3,1.5,3.1,4.4c0.4,1.2,0.9,4.2,1.7,8.9c0.5,3.8,1.2,6.1,1.7,7.2
		c1.5,3.2,3.9,5.2,7.2,6.2c2.2,0.7,5.2,1.1,9.5,1.2C266.9,141.4,270,141.8,272,142.4z"/>
	<path class="st0" d="M226.9,132.1h-1.8l-1.4,3.8l1.6,0.6L226.9,132.1L226.9,132.1z M187.7,137.5c0,1.1-0.5,2.3-1.6,3.9
		c-1.2,1.7-1.8,2.8-2,3.4l-0.3-3.6c-0.3-1.3-0.9-2-2-2l-5.9,0.8c2.4-1.2,4.8-1.7,7.2-1.7c0-1.8,0.2-4.4,0.8-7.9
		c0.5-3.5,0.7-6.2,0.7-7.9c0.6,1.8,1.3,4.3,2,7.5C187.3,133.3,187.7,135.8,187.7,137.5L187.7,137.5z M224.3,123.1
		c0.5,0.4,0.8,0.8,0.8,1.2c0,2.3-5.2,5-15.8,8c-6.3,1.9-12.6,3.5-19,4.8v-1.6l18.4-4.5c3.9-0.9,6.9-1.8,8.9-2.6
		C221.8,126.7,224,125,224.3,123.1z M224.3,123.1c0.1-0.3,0.2-0.6,0.2-0.9c0-3.6-5.5-6.2-16.6-7.6c-6.1-0.8-13-1.2-20.7-1.2
		c-3.2,0-6.8,0.8-10.9,2.6c-3.2,1.4-6.2,3.1-9.1,5.2c-3.7,2.7-5.9,5.2-6.5,7.5c4-2.8,9.8-5.5,17.2-8.5c7.9-3.1,13.8-4.6,17.6-4.6
		c6.5,0,12.2,0.5,17.2,1.4C219.6,118.3,223.5,120.4,224.3,123.1z"/>
	<path class="st0" d="M160.8,114.7c-6,2.7-9.5,9.9-10.7,21.6c0,0.1-0.8,3.6-1.4,10.5c-1.3-4.4-2.9-10.5-3.9-18.2
		c0.2-0.2,0.9-16.9,1.8-18.4c0.3-0.5,1.5,14.9,1.9,14.3C151.6,119.4,155.7,116,160.8,114.7c2.8-0.2,5.5,1,7.9,3.4
		c3.3,3.3,5.7,8.7,7,16.1c0,0.1,0,0.3,0,0.6c0,1.9-1.2,6.1-3.9,12.5c0-1.3,0.2-3.2,0.7-5.7c0.5-2.5,0.7-4.5,0.7-5.7
		c0-2.5-0.7-5.5-2-9c-1.2-3.2-2.6-5.9-4.2-7.9C165,116.2,163,114.7,160.8,114.7z"/>
	<path class="st0" d="M126.9,133.2h-1.6l-1.3,3.6l1.5,0.5L126.9,133.2L126.9,133.2z M139.4,130.5c-1.4-0.4-2.6-0.6-3.7-0.6
		c-2.3,0-4.2,0.9-5.5,2.7c-0.9,1.2-1.8,3.3-2.6,6.3c-1,3.5-1.8,5.9-2.2,7c-0.2-1.3-0.9-3.5-2.3-6.6c-1.2-2.9-1.9-4.9-1.9-5.8
		c0-0.6,0.5-1.7,1.4-3.2c0.8-1.5,1.3-2.5,1.3-3.2c0,0.8,0.3,1.5,0.8,2.1c0.5,0.5,1.2,0.8,2.1,0.8c1.1-4.5,3.1-8.8,5.9-13
		c0,3.7-0.6,7.4-1.8,11.1c0.7,0.3,2,0.7,3.9,1.2C136.8,129.8,138.4,130.2,139.4,130.5L139.4,130.5z M142.2,121.7l-3.1,18.9
		c0.9-1.2,1.6-3.6,2.2-7.3c0.5-2.8,0.6-5.4,0.6-7.6c0-3.2-0.3-6-1.1-8.2c-1.2-3.2-3-4.9-5.6-4.9c-1.8,0-4.5,2.8-8.3,8.5
		c0.5-1.3,1.5-2.9,3.1-5c1.8-2.3,3.7-4.2,5.7-5.7c2.5,0.8,4.4,3,5.5,6.6c0.8,2.5,1.2,5.5,1.2,9.1c0,1.3-0.1,2.8-0.3,4.5
		c-0.2,2.5-0.6,3.7-1.1,3.7c-0.2,0-0.4-0.5-0.5-1.5L142.2,121.7z"/>
	<path class="st0" d="M89.8,115.2c-3,0-6.2,0.7-9.8,2c-3.2,1.2-6.2,2.8-8.8,4.8l-0.9-1.6c4.2-2.6,7.5-4.4,9.7-5.3
		c3-1.2,6.2-1.8,9.8-1.8h6.3c0.2,0,0.5,0,0.7,0c2,0,4.8,0.8,8.3,2.5c3,1.5,5.5,3,7.5,4.5c3.3,2.6,4.9,5.2,4.9,7.9
		c-2.4,1.2-5.9,2.5-10.7,3.7c-5.2,1.5-8.9,2.8-11.3,3.8c1.8,2.8,4.6,5,8.5,6.7c2.6,1.2,6.5,2.4,11.8,3.7c6.1,1.5,10.1,2.5,11.9,3.2
		c-24-4.9-37-10.2-38.9-15.8c1.4-0.5,2.3-1.2,2.7-2.1c0.3-0.6,0.5-1.8,0.5-3.5v-0.8c0-3.5,0.4-6.7,1-9.7l0.8,7.4
		c0.3,2.7,0.7,5.3,1.2,7.7c4.9-0.2,8.2-0.6,10.2-1c4.5-1.2,7.9-3.4,10.2-6.8c-1.7-1.9-4-3.8-6.8-5.5c-3.9-2.5-7.5-3.7-10.7-3.7
		c-0.6,0-1.2,0-1.8,0H89.8z"/>
	<path class="st0" d="M82.2,129.3c-2.7-1.8-5.7-3.4-8.9-4.8c-3.9-1.7-7.2-2.6-9.5-2.6H44.1c0,1.8-0.3,4.3-0.9,7.7
		c-0.6,3.2-0.9,5.8-0.9,7.5c3.5,1.7,7.5,3.2,11.9,4.2c3.8,1,6.8,1.5,8.9,1.5C74.3,142.8,80.7,138.2,82.2,129.3L82.2,129.3z
		 M85.6,139.1c-3.9,2.1-8.2,4-13.2,5.9c-5.6,2-9.5,3.1-11.9,3.1c-1.7,0-4.7-0.7-9-2c-5.8-1.8-9.7-2.8-11.9-3.3
		c-1.3-0.2-2.1-0.5-2.2-0.5c-0.5-0.3-0.7-1-0.7-2.2c0-2.7,1.2-8.4,3.7-17.1c-0.4-0.4-1.5-0.7-3.3-0.8c-2.3-0.2-3.9-0.5-4.6-0.7
		c-1.5-0.5-2.5-1.3-2.6-2.4c2.3,0,3.8,0,4.5-0.2c6.2-0.8,9.5-4.9,9.9-12.2c1.3,0.2,1.9,1.2,1.9,3.2v1.1c0,0.9,0,1.2,0,1
		c0,1.9,0.7,2.9,2.1,2.9c3.7,0,8.6-2.1,14.9-6.2c-1.3-1.5-4.2-2.9-8.6-4.2c-4-1.2-7.2-1.8-9.7-1.8c-4,0-8.9,0.8-14.7,2.4
		c-6.6,1.8-12,4.1-16.3,6.9c-5.9,3.9-8.9,8.6-8.9,14c0,0.9,0.2,2,0.3,3c-0.1-0.8-0.9-2.1-2.7-3.9c-1.6-1.8-2.4-3.4-2.4-4.9
		c0-2.3,2.2-5.1,6.5-8.4c2.8-2,6.3-4.2,10.9-6.6c5.4-2.8,9.2-4.2,11.6-4.2c4.1,0,10,0.4,17.9,1.2c11.3,1.2,18.6,2.7,21.5,4.6
		c-0.8,1.9-4.3,4.5-10.6,7.5c0.8,2.1,3,3.6,6.4,4.8c2,0.6,5.5,1.7,10.7,3.3c4.7,1.5,8.3,3.2,10.9,5.1V139.1z"/>
	<path class="st0" d="M354.4,79.6c-18.4,2.5-35.1,5.7-50.1,9.3c0-1.8,0.5-4.5,1.8-8.3c1.2-3.8,1.7-6.6,1.7-8.5
		c0-5.5-1.3-12.4-4-20.6c-3.4-10.3-5.5-18.6-6.5-24.8c0.7-0.5,1.4-0.8,2.1-0.8c2.2,0,3.9,2.8,5.2,8.2c0.6,2.3,1.5,7.9,2.8,16.6
		c1,7,1.9,11.5,2.8,13.5c2.6,5.8,6.6,9.6,12.1,11.6c3.5,1.2,8.9,1.9,16.2,2.2C345.7,77.9,351,78.5,354.4,79.6z"/>
	<path class="st0" d="M291,18.5l-1.3-1.8c-1.8,0.3-3,0.7-3.8,1.2c-1,0.6-1.8,1.8-2.3,3.3l1.2,1.8C287.8,23.2,289.9,21.7,291,18.5
		L291,18.5z M296.1,17.8c-0.7,1.7-2,3.5-3.9,5.5c-2.2,2.2-4.1,3.3-5.6,3.3c-2.5,0-4.4-1-5.5-3.1c-0.8-1.3-1.2-2.8-1.2-4.3
		c0-0.8,0.2-2,0.8-3.4c0.5-1.5,0.8-2.3,0.8-2.6h10.3L296.1,17.8z"/>
	<path class="st0" d="M294,31.9c-1.9,3.9-5.8,12.4-11.5,25.2c-5.1,11.3-9.4,20.2-12.9,26.7c0.8-3.3,2.4-7.9,4.6-13.9
		c2.3-6.2,3.9-10.9,4.8-13.9c1.5-5.2,2.2-9.9,2.2-14c0-4.3-0.8-8.3-2.4-12.1c1.7,0,4.2,0.3,7.6,1C289.8,31.6,292.4,31.9,294,31.9z"
		/>
	<path class="st0" d="M277.4,27.5c-16.5,0-33.2,1.5-50.1,4.8c-18.9,3.5-35.2,8.6-48.8,15.3l-1-2.7l10.4-6.2
		c25-7.6,52-11.4,80.8-11.4C271.6,27.3,274.5,27.3,277.4,27.5L277.4,27.5z M216.1,82.5c0-12.9-1.3-26-3.9-39.3
		c0,0.8-1.2,1.5-3.6,1.8c-1.5,0.3-3.1,0.5-4.6,0.5c2.6,5.1,5,11.1,7.2,18.1C211.9,66.4,213.6,72.6,216.1,82.5z"/>
	<path class="st0" d="M206.6,37.3c-8.7,5.3-14.9,9.3-18.8,12.1c-7.2,5.1-12.6,10.1-16.3,14.9c1.3,1.8,5.1,4.1,11.2,6.9
		c7.2,3.2,11.5,5.2,12.9,6.3l16.9,4v3.1l-17.9-4.3v-0.8c-2.7-0.5-6.9-1.8-12.3-3.9L171,71.5c-0.9,3-1.5,6.1-1.6,9.2
		c-0.2,2.2-0.4,3.5-0.8,3.9c-0.5,0.5-2.2,1-5,1.2l3.9-17.3c1.3-6.2,2.3-11.9,3-17.3c1.1-7.9,1.8-16.9,2.1-27
		c1.7,2.4,2.5,5.9,2.5,10.6c0,1.6-0.2,3.9-0.3,7c-0.2,3.2-0.3,5.5-0.3,7.1c0,2.4,0.2,4.5,0.5,6.3l16.6-10.5
		C199.9,39.5,204.9,37,206.6,37.3z"/>
	<path class="st0" d="M173.2,43c-1.4,0-3.8-0.7-7.2-2c-3.5-1.4-6.2-2.1-7.9-2.1c-4.9,0-10.1,1.8-15.6,5.4
		c-4.2,2.7-7.9,6.1-11.3,10.1c-4.2,4.9-6.3,9.4-6.3,13.3c0,5.3,4.8,9.1,14.2,11.5c6.9,1.7,15.6,2.6,26.2,2.6
		c6.5,0,11.2-0.2,13.9-0.6c-1.6,1.8-7.9,2.7-18.8,2.7c-8.5,0-16.3-0.6-23.4-1.8c-8.2-1.4-13.7-3.3-16.4-5.8
		c-0.1-0.8-0.2-1.7-0.2-2.5c0-6.9,2.7-14.2,8-21.9c4.3-6.2,9.5-11.6,15.8-16.1c7.3-5.3,14.2-7.9,20.6-7.9c2.6,0,4.8,1.9,6.5,5.9
		C172.7,37,173.4,40.1,173.2,43z"/>
	<path class="st0" d="M134.8,61.5c0,7.2-6.1,12.2-18.3,15c-3.4,0.8-5.9,1.2-7.4,1.2c-6,0-10.9-1-14.9-3.2c-4.9-2.7-7.4-6.8-7.4-12.2
		c0-7,2.6-13.4,7.8-19.3c5.1-5.6,11-9.3,17.9-11c-0.3-0.4-0.6-0.7-1-0.8c-1.8-0.4-3.8-0.5-5.9-0.5c0.8-0.1,1.5-0.1,2.2-0.1
		c1.7,0,2.9,0.2,3.6,0.6c1.2,0.2,3.2,0.9,6.1,2.1c3.9,1.7,7.7,5.7,11.6,12.2C132.9,51.9,134.8,57.2,134.8,61.5L134.8,61.5z
		 M117.7,33.3c-1.4,0.4-2.5,1.4-3.5,3.2l-2.6,4.5c-0.8-0.2-1.5-0.4-2.2-0.4c-3.4,0-6.7,2.5-9.8,7.5c-2.8,4.4-4.2,8-4.2,10.9
		c0,6,4.1,10.2,12.2,12.7c2.3,0.7,4,1.1,4.9,1.1c5.6,0,9.9-2.5,13-7.5c1.9-3.2,2.9-6.9,2.9-10.9c0-1.8-0.2-3.5-0.5-5.2
		C126.7,42.6,123.2,37.3,117.7,33.3z"/>
	<path class="st0" d="M92.9,27c-2.1,0-5.7-1-10.9-3.1c-5.3-2.1-9.2-3.1-11.9-3.1c-7.3,0-15.2,2.7-23.6,8.1
		c-6.2,4.1-11.9,9.2-17,15.2c-6.3,7.5-9.5,14.1-9.5,20.1c0,7.9,7.2,13.6,21.4,17.3c10.3,2.5,23.5,3.9,39.5,3.9
		c9.8,0,16.8-0.2,20.8-0.8c-2.4,2.7-11.8,4-28.3,4c-12.8,0-24.5-0.9-35.2-2.7c-12.5-2.2-20.7-5-24.7-8.8c-0.2-1.2-0.2-2.5-0.2-3.8
		c0-10.5,4-21.5,12-33c6.5-9.3,14.4-17.3,23.7-24.2C60,8.1,70.3,4.1,80,4.1c3.9,0,7.2,2.9,9.9,8.8C92.1,17.9,93,22.6,92.9,27z"/>
	<path class="st0" d="M243.1,67.1h-2.4l-1.9,4.9l2.2,0.8L243.1,67.1L243.1,67.1z M261.5,63.4c-2-0.6-3.9-0.8-5.5-0.8
		c-3.5,0-6.2,1.2-8.1,3.7c-1.4,1.7-2.7,4.5-3.9,8.5c-1.5,4.9-2.5,8.1-3.3,9.6c-0.2-1.8-1.3-4.9-3.4-9.1c-1.9-3.9-2.8-6.5-2.8-7.8
		c0-0.8,0.6-2.3,2-4.4c1.3-2.1,2-3.5,2-4.4c0,1.1,0.4,2,1.2,2.7c0.8,0.8,1.8,1.1,3,1.1c1.7-6,4.6-11.9,8.8-17.7
		c0,5.2-0.9,10.2-2.7,15.1c1,0.5,2.9,1,5.8,1.6C257.7,62.4,260.1,63,261.5,63.4L261.5,63.4z M265.7,51.5l-4.5,25.6
		c1.3-1.6,2.3-4.9,3.2-9.9c0.6-3.9,0.9-7.5,0.9-10.6c0-4.4-0.5-8.1-1.6-11c-1.7-4.5-4.5-6.7-8.3-6.7c-2.6,0-6.7,3.9-12.4,11.6
		c0.7-1.7,2.2-3.9,4.6-6.7c2.7-3.2,5.5-5.9,8.5-7.9c3.8,1.1,6.5,4.1,8.2,9c1.2,3.5,1.8,7.6,1.8,12.3c0,1.9-0.2,4-0.4,6.3
		c-0.4,3.4-0.9,5.1-1.6,5.1c-0.3,0-0.6-0.7-0.8-2.2L265.7,51.5z"/>
	<path class="st0" d="M222.3,135.9h-1.6l-1.3,3.6l1.5,0.6L222.3,135.9L222.3,135.9z M234.7,133.2c-1.4-0.5-2.6-0.6-3.7-0.6
		c-2.3,0-4.2,0.9-5.5,2.7c-0.9,1.2-1.8,3.4-2.6,6.3c-1,3.5-1.8,5.9-2.2,7.1c-0.2-1.3-0.9-3.5-2.3-6.7c-1.2-2.9-1.9-4.8-1.9-5.7
		c0-0.6,0.5-1.7,1.4-3.2c0.8-1.5,1.3-2.5,1.3-3.2c0,0.8,0.3,1.5,0.8,1.9c0.5,0.5,1.2,0.8,2.1,0.8c1.1-4.4,3.1-8.7,5.9-12.9
		c0,3.8-0.6,7.5-1.8,11.1c0.8,0.3,2,0.6,3.9,1.2C232.2,132.5,233.7,132.8,234.7,133.2L234.7,133.2z M237.5,124.5l-3.1,18.8
		c0.9-1.2,1.6-3.6,2.2-7.2c0.5-2.9,0.6-5.4,0.6-7.7c0-3.2-0.3-5.9-1.1-8.1c-1.1-3.3-3-4.9-5.6-4.9c-1.8,0-4.5,2.8-8.3,8.5
		c0.5-1.2,1.5-2.9,3.1-4.9c1.8-2.4,3.7-4.3,5.7-5.8c2.5,0.8,4.5,3,5.5,6.6c0.8,2.5,1.2,5.6,1.2,9.1c0,1.4-0.1,2.8-0.2,4.5
		c-0.3,2.5-0.7,3.7-1.2,3.7c-0.2,0-0.4-0.5-0.5-1.5L237.5,124.5z"/>
</g>
</svg>
