<?xml version="1.0" encoding="UTF-8" standalone="no"?>
<!-- Created with Inkscape (http://www.inkscape.org/) -->

<svg
   xmlns:dc="http://purl.org/dc/elements/1.1/"
   xmlns:cc="http://creativecommons.org/ns#"
   xmlns:rdf="http://www.w3.org/1999/02/22-rdf-syntax-ns#"
   xmlns:svg="http://www.w3.org/2000/svg"
   xmlns="http://www.w3.org/2000/svg"
   xmlns:sodipodi="http://sodipodi.sourceforge.net/DTD/sodipodi-0.dtd"
   xmlns:inkscape="http://www.inkscape.org/namespaces/inkscape"
   version="1.1"
   id="svg311"
   width="40mm"
   height="60mm"
   viewBox="0 0 151.18111 226.77166"
   sodipodi:docname="20x40mm.svg"
   inkscape:version="0.92.2 5c3e80d, 2017-08-06">
  <metadata
     id="metadata317">
    <rdf:RDF>
      <cc:Work
         rdf:about="">
        <dc:format>image/svg+xml</dc:format>
        <dc:type
           rdf:resource="http://purl.org/dc/dcmitype/StillImage" />
        <dc:title></dc:title>
      </cc:Work>
    </rdf:RDF>
  </metadata>
  <defs
     id="defs315" />
  <sodipodi:namedview
     pagecolor="#ffffff"
     bordercolor="#666666"
     borderopacity="1"
     objecttolerance="10"
     gridtolerance="10"
     guidetolerance="10"
     inkscape:pageopacity="0"
     inkscape:pageshadow="2"
     inkscape:window-width="988"
     inkscape:window-height="740"
     id="namedview313"
     showgrid="false"
     inkscape:zoom="1.7838376"
     inkscape:cx="-10.72972"
     inkscape:cy="82.736928"
     inkscape:window-x="0"
     inkscape:window-y="0"
     inkscape:window-maximized="0"
     inkscape:current-layer="svg311"
     units="mm" />
  <path
     style="fill:#000000;stroke-width:0.16174132"
     d="m 43.613517,173.96778 c 0.06342,-0.10286 23.297168,-61.72002 23.754501,-62.99825 l 0.15914,-0.44479 h 8.206198 8.206199 l 11.455332,30.77129 c 6.300433,16.9242 11.625063,31.22618 11.832513,31.78217 l 0.37718,1.01089 H 75.571643 c -17.618117,0 -31.999272,-0.0546 -31.958126,-0.12131 z m 43.937919,-12.84695 c 0,-0.17113 -11.41896,-33.02904 -11.872343,-34.16251 -0.184178,-0.46047 -2.015305,4.53691 -12.513535,34.15102 -0.05693,0.16059 2.443686,0.20217 12.157103,0.20217 9.282109,0 12.228775,-0.046 12.228775,-0.19068 z M 47.924811,63.86237 V 32.080198 h 8.625043 8.625045 l 11.694181,18.96417 c 6.431803,10.430292 11.79405,19.070742 11.916106,19.201002 0.188151,0.2008 0.221921,-2.68502 0.221921,-18.964166 V 32.080198 h 7.035753 7.03574 V 63.86398 95.64777 L 95.600973,95.60567 88.123346,95.56357 75.100261,74.782 62.077177,54.000428 62.036117,74.82244 61.995057,95.64445 H 54.95994 47.924803 Z"
     id="path321"
     inkscape:connector-curvature="0" />
  <rect
     style="fill:none;fill-opacity:1;stroke:#000000;stroke-width:1;stroke-miterlimit:4;stroke-dasharray:none;stroke-opacity:1"
     id="rect323"
     width="73.269104"
     height="148.85965"
     x="39.281902"
     y="28.501549" />
  <text
     xml:space="preserve"
     style="font-style:normal;font-weight:normal;font-size:13.33333302px;line-height:1.25;font-family:sans-serif;letter-spacing:0px;word-spacing:0px;fill:#000000;fill-opacity:1;stroke:none"
     x="43.346573"
     y="189.53041"
     id="text1151"><tspan
       sodipodi:role="line"
       id="tspan1149"
       x="43.346573"
       y="189.53041">20.00mm</tspan></text>
  <text
     xml:space="preserve"
     style="font-style:normal;font-weight:normal;font-size:13.33333302px;line-height:1.25;font-family:sans-serif;letter-spacing:0px;word-spacing:0px;fill:#000000;fill-opacity:1;stroke:none"
     x="-133.24368"
     y="34.463371"
     id="text1155"
     transform="rotate(-90)"><tspan
       sodipodi:role="line"
       id="tspan1153"
       x="-133.24368"
       y="34.463371">40.00mm</tspan></text>
</svg>
