<?xml version="1.0" encoding="UTF-8" standalone="no"?>
<!-- Created with Inkscape (http://www.inkscape.org/) -->

<svg
   xmlns:dc="http://purl.org/dc/elements/1.1/"
   xmlns:cc="http://creativecommons.org/ns#"
   xmlns:rdf="http://www.w3.org/1999/02/22-rdf-syntax-ns#"
   xmlns:svg="http://www.w3.org/2000/svg"
   xmlns="http://www.w3.org/2000/svg"
   xmlns:sodipodi="http://sodipodi.sourceforge.net/DTD/sodipodi-0.dtd"
   xmlns:inkscape="http://www.inkscape.org/namespaces/inkscape"
   version="1.1"
   id="svg143"
   width="70mm"
   height="40mm"
   viewBox="0 0 264.56694 151.18111"
   sodipodi:docname="50x25.svg"
   inkscape:version="0.92.2 5c3e80d, 2017-08-06">
  <metadata
     id="metadata149">
    <rdf:RDF>
      <cc:Work
         rdf:about="">
        <dc:format>image/svg+xml</dc:format>
        <dc:type
           rdf:resource="http://purl.org/dc/dcmitype/StillImage" />
        <dc:title />
      </cc:Work>
    </rdf:RDF>
  </metadata>
  <defs
     id="defs147" />
  <sodipodi:namedview
     pagecolor="#ffffff"
     bordercolor="#666666"
     borderopacity="1"
     objecttolerance="10"
     gridtolerance="10"
     guidetolerance="10"
     inkscape:pageopacity="0"
     inkscape:pageshadow="2"
     inkscape:window-width="1393"
     inkscape:window-height="783"
     id="namedview145"
     showgrid="false"
     units="mm"
     inkscape:zoom="2.95"
     inkscape:cx="105.17094"
     inkscape:cy="58.602569"
     inkscape:window-x="0"
     inkscape:window-y="0"
     inkscape:window-maximized="0"
     inkscape:current-layer="svg143" />
  <rect
     style="fill:none;fill-opacity:1;stroke:#000000;stroke-width:0.35226333;stroke-miterlimit:4;stroke-dasharray:none;stroke-opacity:1"
     id="rect155"
     width="188.62411"
     height="75.238289"
     x="43.061119"
     y="38.222191" />
  <text
     xml:space="preserve"
     style="font-style:normal;font-weight:normal;font-size:13.33333302px;line-height:1.25;font-family:sans-serif;letter-spacing:0px;word-spacing:0px;fill:#000000;fill-opacity:1;stroke:none"
     x="103.38499"
     y="125.34005"
     id="text159"><tspan
       sodipodi:role="line"
       id="tspan157"
       x="103.38499"
       y="125.34005">50.00mm</tspan></text>
  <text
     xml:space="preserve"
     style="font-style:normal;font-weight:normal;font-size:13.33333302px;line-height:1.25;font-family:sans-serif;letter-spacing:0px;word-spacing:0px;fill:#000000;fill-opacity:1;stroke:none"
     x="-105.72186"
     y="40.253471"
     id="text163"
     transform="rotate(-90)"><tspan
       sodipodi:role="line"
       id="tspan161"
       x="-105.72186"
       y="40.253471">20.00mm</tspan></text>
  <path
     id="path216"
     style="fill:#000000;stroke-width:0.36232904"
     d="m 54.215463,94.863982 c -1.82712,-0.64801 -4.24725,-2.67106 -5.42259,-4.53291 -4.13661,-6.55283 -4.30462,-22.28935 -0.3109,-29.12123 2.82252,-4.8284 8.389,-6.96794 13.26761,-5.0996 1.58884,0.60848 1.77077,0.6116 2.89733,0.0496 0.82293,-0.41054 1.63093,-0.52718 2.56204,-0.36988 l 1.36005,0.22978 v 6.3089 6.30893 h -3.07289 c -3.0611,0 -3.07368,-0.003 -3.27744,-0.99641 -0.75911,-3.69791 -1.36535,-4.62293 -3.28088,-5.00605 -1.51045,-0.30207 -2.84227,0.863 -3.6568,3.199 -0.55743,1.59872 -0.66166,3.06765 -0.66166,9.32538 0,8.26265 0.29338,9.95084 2.03131,11.68876 0.85598,0.85599 1.26178,1.01912 2.05402,0.82573 1.35772,-0.33142 2.28229,-1.32783 2.57818,-2.7785 l 0.24911,-1.22126 3.88086,-0.10289 c 4.47402,-0.11855 4.35687,-0.24649 3.342,3.64985 -0.9801,3.76284 -3.41581,6.56921 -6.6614,7.67509 -2.01466,0.68646 -5.89608,0.67053 -7.87795,-0.0324 z m 8.17116,-1.44002 c 1.8673,-0.74716 4.14251,-3.30141 4.88702,-5.48643 0.98861,-2.90142 0.92763,-2.99516 -1.9486,-2.99516 h -2.51931 l -0.60644,1.27801 c -0.87053,1.8345 -2.14033,2.70762 -3.93775,2.70762 -1.73421,0 -3.04391,-1.08625 -3.96325,-3.28708 -1.55767,-3.72898 -1.6943,-15.27023 -0.23637,-19.9656 0.95007,-3.05978 2.24856,-4.28434 4.54302,-4.28434 2.56703,0 3.85605,1.4207 4.68466,5.1632 0.20788,0.93895 0.3351,0.9964 2.20651,0.9964 h 1.9859 v -1.93714 c 0,-1.06543 -0.10697,-3.4444 -0.23774,-5.2866 l -0.23776,-3.34944 -1.0304,0.21399 c -0.56672,0.11768 -1.51302,0.31305 -2.10289,0.43413 -0.6163,0.12652 -1.79967,-0.0275 -2.78202,-0.36232 -5.10237,-1.73856 -10.37133,1.05324 -12.47654,6.61079 -2.68368,7.08466 -2.21448,19.89637 0.92416,25.23518 2.70685,4.60428 7.82684,6.32377 12.8478,4.31479 z m 8.58258,-0.0574 c -0.10171,-0.34874 -0.29427,-1.40855 -0.42788,-2.35513 -0.20224,-1.43262 -0.14652,-1.72107 0.33239,-1.72107 0.31642,0 0.80173,-0.44838 1.07844,-0.99641 0.27674,-0.54802 2.00587,-6.60476 3.84252,-13.45944 l 3.3394,-12.46302 -0.76435,-1.03385 c -0.71532,-0.96752 -0.7322,-1.14421 -0.26284,-2.75479 l 0.50152,-1.72094 6.6942,-0.0983 6.69422,-0.0984 0.54334,1.9521 c 0.50964,1.83107 0.50224,1.97776 -0.11938,2.36597 -0.3805,0.23763 -0.66255,0.8369 -0.66232,1.40721 2.9e-4,0.76559 5.26816,21.26026 6.4001,24.89978 0.12273,0.39456 0.66814,1.13307 1.21205,1.64116 0.958777,0.89564 0.977447,0.98691 0.61322,2.99648 l -0.3757,2.07272 h -4.95416 -4.95415 l -0.48733,-2.03142 c -0.44091,-1.8379 -0.42916,-2.06397 0.12329,-2.37314 0.75259,-0.42117 0.75435,-0.66742 0.0277,-3.88456 l -0.58281,-2.58075 h -3.38141 c -1.8598,0 -3.46961,0.14266 -3.57737,0.31702 -0.10778,0.17437 -0.39388,1.4714 -0.63583,2.8823 -0.3895,2.27138 -0.37136,2.64098 0.15833,3.22627 0.54718,0.60463 0.55089,0.82235 0.0436,2.55265 l -0.55451,1.89163 h -4.83978 c -4.29729,0 -4.8605,-0.071 -5.0247,-0.63407 z m 9.29136,-1.76471 c 0.0998,-0.52221 -0.0661,-1.38098 -0.36885,-1.90839 -0.49835,-0.86831 -0.48392,-1.26647 0.15246,-4.21372 l 0.70279,-3.25479 4.54155,-0.10096 4.54156,-0.10095 0.60167,2.73814 c 0.70356,3.20189 0.74689,4.30549 0.20852,5.31143 -0.21623,0.40403 -0.29463,1.12704 -0.17426,1.60666 0.21441,0.85428 0.29925,0.87209 4.15534,0.87209 3.90852,0 3.93772,-0.007 4.1092,-0.90353 0.10054,-0.52598 -0.0415,-1.08129 -0.33986,-1.32894 -0.91157,-0.75654 -1.17361,-1.57261 -4.43004,-13.79782 -4.03097,-15.13293 -3.8274,-14.10715 -3.10265,-15.63446 1.18699,-2.50138 1.05993,-2.56324 -5.49439,-2.6747 l -5.84176,-0.0994 -0.24025,0.95721 c -0.15976,0.63656 -0.0522,1.16488 0.32086,1.57719 0.30859,0.341 0.56109,1.11156 0.56109,1.71236 0,1.27881 -6.26689,25.10762 -7.05896,26.8405 -0.29602,0.64766 -0.70392,1.17757 -0.90643,1.17757 -0.40734,0 -0.50892,1.55012 -0.12664,1.93242 0.13286,0.13286 1.9889,0.24156 4.12456,0.24156 h 3.88298 z m 1.71461,-14.48467 c 0,-0.43662 2.98739,-13.37591 3.12193,-13.522 0.35137,-0.38151 0.6921,0.74484 2.12354,7.01958 l 1.53272,6.71874 h -3.38908 c -1.86402,0 -3.38911,-0.0973 -3.38911,-0.21632 z m 4.94725,-2.03555 c -0.11542,-0.44141 -0.48318,-2.06752 -0.81723,-3.61358 -0.33404,-1.54607 -0.72634,-2.73748 -0.87177,-2.6476 -0.14544,0.0899 -0.37093,0.77847 -0.50108,1.53019 -0.13016,0.75172 -0.46298,2.30428 -0.73957,3.45016 l -0.50291,2.08339 h 1.82121 c 1.70177,0 1.80746,-0.0526 1.61135,-0.80256 z m 15.857757,16.88035 -0.59264,-2.03865 1.03544,-0.82526 1.03543,-0.82526 0.10776,-12.64553 c 0.10578,-12.41749 0.0939,-12.66316 -0.66037,-13.62206 -0.42248,-0.53709 -1.09984,-0.97652 -1.50526,-0.97652 -0.53225,0 -0.67419,-0.16403 -0.51067,-0.59015 0.12456,-0.32458 0.40594,-1.30286 0.62527,-2.17398 l 0.39882,-1.58382 h 4.93987 4.93989 l 2.53542,4.76799 c 1.3945,2.62239 2.68927,4.75862 2.87727,4.74716 0.18802,-0.0115 1.46599,-2.15706 2.83996,-4.76799 l 2.49811,-4.74716 h 4.9579 4.9579 l 0.56638,2.17397 c 0.54008,2.07291 0.5355,2.17398 -0.0983,2.17398 -0.36561,0 -0.99084,0.32609 -1.38941,0.72465 -0.69661,0.69662 -0.72465,1.20777 -0.72465,13.20797 0,12.95931 0.11798,14.08765 1.51945,14.53246 0.4248,0.13482 0.61905,0.44701 0.51161,0.82221 -0.0953,0.33266 -0.37247,1.2978 -0.616,2.14475 l -0.44278,1.5399 h -4.78359 -4.78361 l -0.56925,-2.00106 c -0.56509,-1.9864 -0.5628,-2.00755 0.31184,-2.88218 0.87994,-0.87993 0.8811,-0.89147 0.8811,-8.86879 0,-4.39325 -0.0666,-7.98771 -0.14786,-7.98771 -0.0813,0 -1.16671,1.75277 -2.41198,3.89503 -1.24526,2.14228 -2.46338,4.18849 -2.70692,4.54713 -0.3916,0.57666 -0.706,0.19938 -2.71747,-3.26095 -1.25106,-2.15219 -2.49365,-4.23468 -2.76132,-4.62777 -0.41401,-0.60801 -0.48666,0.51422 -0.48666,7.51834 0,7.91597 0.0297,8.26272 0.77134,9.00435 0.72592,0.72593 0.74385,0.88589 0.30445,2.71747 l -0.46687,1.94614 h -4.82345 -4.82345 z m 9.46718,-0.25808 c 0.12977,-0.51697 -0.0817,-1.41224 -0.54223,-2.29581 -0.72104,-1.38332 -0.75062,-1.91407 -0.6587,-11.81989 l 0.0963,-10.37149 3.0336,5.23101 c 1.66848,2.87705 3.22754,5.49622 3.46456,5.82038 0.36535,0.49965 0.95164,-0.31135 3.85066,-5.32644 l 3.41969,-5.91582 0.11203,2.34578 c 0.0616,1.29018 0.0616,6.12343 0,10.74055 -0.10428,7.81268 -0.16391,8.4659 -0.86037,9.42056 -0.50605,0.69364 -0.67696,1.31908 -0.52785,1.93159 0.21609,0.88771 0.29824,0.9079 4.10419,1.00873 l 3.88367,0.10288 0.38064,-1.00116 c 0.27,-0.71018 0.26654,-1.03921 -0.012,-1.13204 -0.21591,-0.072 -0.63371,-0.59715 -0.92843,-1.1671 -0.4442,-0.859 -0.53587,-3.29682 -0.53587,-14.25139 v -13.21515 l 1.13566,-1.13566 c 0.99801,-0.99801 1.08679,-1.24295 0.73244,-2.02069 -0.38997,-0.85587 -0.52729,-0.88501 -4.17111,-0.88501 -2.58078,0 -3.88124,0.14268 -4.12776,0.45291 -0.19795,0.2491 -1.62912,2.85973 -3.1804,5.80141 -1.55126,2.94168 -2.91497,5.25403 -3.03044,5.13856 -0.11549,-0.11547 -1.5257,-2.68536 -3.13382,-5.71084 l -2.92388,-5.50088 -3.73188,-0.10364 c -5.00492,-0.13904 -5.84292,0.56748 -3.64383,3.07209 l 1.09966,1.25245 -0.10321,13.35034 -0.10321,13.35036 -0.83399,0.88734 c -0.62489,0.66487 -0.77403,1.12634 -0.59481,1.84045 l 0.23922,0.95308 h 3.93942 c 3.82751,0 3.94549,-0.0242 4.15213,-0.84743 z m 115.15539,0.002 c 0.1267,-0.50478 -0.0764,-1.41157 -0.50422,-2.25058 -0.67476,-1.32353 -0.71639,-2.17119 -0.71639,-14.58937 v -13.18421 l 1.09042,-1.01858 c 0.9428,-0.88072 1.0421,-1.14563 0.73362,-1.95702 -0.35544,-0.93488 -0.37253,-0.93842 -4.54032,-0.93842 -4.10657,0 -4.19107,0.0166 -4.59467,0.9024 -0.35902,0.78793 -0.29095,1.01382 0.5366,1.78076 0.52128,0.48311 1.04382,1.26108 1.16122,1.72882 0.1174,0.46775 0.16476,6.63672 0.10526,13.70879 -0.0996,11.83397 -0.16193,12.93754 -0.78225,13.85214 -0.44295,0.65309 -0.59586,1.30518 -0.446,1.90221 0.22505,0.89669 0.27673,0.90847 3.98629,0.90847 3.63502,0 3.76523,-0.0276 3.97045,-0.84541 z m -9.17823,0.35868 c -0.44217,-1.84312 -0.42469,-2.00082 0.30203,-2.72756 0.75916,-0.75916 0.77133,-0.9834 0.77133,-14.20898 v -13.43765 l -1.11072,-0.41925 c -1.01445,-0.38291 -1.09091,-0.52486 -0.88214,-1.63769 0.58281,-3.1067 0.26278,-2.95271 6.13664,-2.95271 h 5.24871 l 0.55752,1.87741 c 0.68874,2.31922 0.68961,2.47054 0.014,2.47054 -0.29893,0 -0.8696,0.32609 -1.26816,0.72465 -0.69553,0.69552 -0.72431,1.20165 -0.71601,12.59095 0.009,12.09585 0.20446,14.40057 1.28986,15.19421 0.56196,0.41093 0.56881,0.6102 0.0813,2.36485 l -0.53253,1.91611 -4.71122,0.10063 -4.71121,0.10065 -0.46929,-1.95625 z m -14.11659,-21.58748 c 1.45114,-1.45112 1.47671,-3.53631 0.0628,-5.11333 -0.82439,-0.91944 -1.35604,-1.14808 -3.07978,-1.32455 l -2.0834,-0.21329 v 3.85515 3.85515 h 2.02068 c 1.75028,0 2.16241,-0.14173 3.07981,-1.05913 z m -6.18745,-2.51187 v -5.12491 l 2.44572,0.002 c 4.00254,0.002 5.96957,1.68793 5.9432,5.09318 -0.0258,3.32217 -1.52561,4.63621 -5.64777,4.94797 l -2.74115,0.20722 z m 1.24647,23.63766 c 0.16576,-0.66049 0.0403,-1.16673 -0.41364,-1.66742 -0.55815,-0.61581 -0.66825,-1.54567 -0.76719,-6.47932 l -0.11551,-5.76033 h 1.60898 1.60897 l 3.03566,7.42235 3.03563,7.42236 3.49045,0.005 c 3.31688,0.005 3.50111,-0.035 3.70463,-0.80984 0.12886,-0.4905 0.0374,-0.8729 -0.22947,-0.95999 -1.32532,-0.4324 -2.68926,-2.7577 -4.80218,-8.18693 l -2.25541,-5.79534 1.39975,-0.83473 c 2.16925,-1.29358 3.31318,-3.57663 3.51187,-7.00901 0.2288,-3.95231 -0.36584,-5.85724 -2.4921,-7.9835 -2.45337,-2.45338 -3.93035,-2.79852 -12.20956,-2.85314 l -6.76505,-0.0447 -0.25138,0.93997 c -0.19206,0.71818 -0.0886,1.02718 0.43913,1.30952 1.74499,0.93389 1.82685,1.66902 1.71163,15.3703 -0.10754,12.78845 -0.10972,12.8203 -0.9551,13.96309 -0.58489,0.79068 -0.77914,1.41706 -0.62717,2.02252 0.21599,0.86065 0.29407,0.87712 4.15957,0.87712 h 3.93944 l 0.23805,-0.94844 z m -9.64636,0.22377 c -0.48257,-1.80106 -0.4972,-2.17398 -0.0853,-2.17398 0.27347,0 0.74763,-0.38219 1.0537,-0.84931 0.47901,-0.73106 0.54323,-2.65866 0.46126,-13.84531 l -0.0953,-12.99601 -1.08698,-0.55726 c -0.59785,-0.3065 -1.14284,-0.58595 -1.2111,-0.62099 -0.0683,-0.035 0.14478,-0.98865 0.47342,-2.11912 l 0.59752,-2.0554 7.67899,0.15986 c 8.71736,0.18146 10.00485,0.46815 12.68101,2.82379 2.38462,2.09903 3.30154,4.45671 3.30619,8.50117 0.004,3.89764 -0.72005,5.82573 -3.0195,8.03523 l -1.50595,1.44705 1.85443,4.8495 c 2.09646,5.48246 2.75114,6.57412 4.33635,7.23073 0.7305,0.30258 1.04599,0.64253 0.91444,0.98535 -0.11046,0.28786 -0.30286,1.16134 -0.42754,1.94102 l -0.2267,1.41765 -4.39221,-0.002 -4.39222,-0.002 -3.10137,-7.51528 c -2.2342,-5.41395 -3.28279,-7.55022 -3.75023,-7.64023 -0.60297,-0.11613 -0.63989,0.2257 -0.52193,4.83235 0.11977,4.67702 0.17466,4.99595 0.97065,5.64022 0.83715,0.67759 0.83917,0.69843 0.26162,2.68517 l -0.58208,2.00227 h -4.80439 -4.8044 l -0.58248,-2.17399 z m -16.0511,-19.3962 c -0.44795,-1.89953 -0.89959,-3.53885 -1.00366,-3.64293 -0.10407,-0.10407 -0.46584,1.08324 -0.80391,2.63847 -0.33808,1.55523 -0.70018,3.19455 -0.80469,3.64293 -0.17758,0.76192 -0.0717,0.81525 1.61835,0.81525 h 1.80834 z m -4.36335,4.45012 c 0.082,-0.2491 0.65678,-2.73558 1.27707,-5.52552 1.47968,-6.65524 1.7868,-7.79007 2.10829,-7.79007 0.14764,0 0.88786,2.73106 1.64494,6.069 0.75708,3.33797 1.46291,6.43588 1.56851,6.88426 0.1889,0.80205 0.13586,0.81524 -3.27802,0.81524 -2.61408,0 -3.43323,-0.11171 -3.32079,-0.45291 z m -1.77856,14.79865 c 0.12037,-0.47963 0.042,-1.20263 -0.17427,-1.60666 -0.54259,-1.01384 -0.49293,-2.42543 0.19204,-5.45856 l 0.58518,-2.59128 4.55804,0.10107 4.55803,0.10107 0.70281,3.25479 c 0.63639,2.94725 0.65079,3.34541 0.15245,4.21372 -0.30269,0.52741 -0.46768,1.39133 -0.36665,1.91983 l 0.18369,0.96093 4.03178,-0.10203 c 3.83496,-0.097 4.03727,-0.14074 4.14463,-0.89499 0.062,-0.43612 -0.20694,-1.11277 -0.59783,-1.50365 -0.82045,-0.82045 -0.87192,-0.98922 -4.74809,-15.56661 -1.60565,-6.03844 -2.91934,-11.4235 -2.91934,-11.96681 0,-0.54333 0.24929,-1.34379 0.55399,-1.7788 0.34799,-0.49684 0.46731,-1.13636 0.32085,-1.71988 l -0.23315,-0.92893 -5.84175,0.0994 c -6.56914,0.11173 -6.68366,0.16853 -5.47505,2.71548 0.60734,1.27991 0.59434,1.39781 -0.70656,6.4093 -4.33898,16.7152 -5.8224,21.79879 -6.58299,22.55943 -0.54346,0.54351 -0.73157,1.07582 -0.60823,1.72106 l 0.17859,0.93418 h 3.93647 c 3.85609,0 3.94094,-0.0178 4.15536,-0.87208 z m -9.41549,0.7815 c -0.13463,-0.84695 -0.33621,-1.90676 -0.44791,-2.35513 -0.14652,-0.58805 -0.043,-0.81525 0.3713,-0.81525 0.31593,0 0.81268,-0.36686 1.1039,-0.81525 0.62226,-0.9581 7.09613,-24.75936 7.09613,-26.08902 0,-0.49867 -0.30823,-1.13038 -0.68494,-1.40378 -0.64781,-0.47015 -0.65499,-0.6007 -0.1326,-2.40716 l 0.55237,-1.91003 6.70744,0.0983 6.70741,0.0983 0.5015,1.72095 c 0.47,1.61282 0.4531,1.78645 -0.26907,2.76325 l -0.77061,1.04228 3.15958,11.9111 c 3.50088,13.19775 3.92341,14.47802 4.96158,15.03363 0.6167,0.33005 0.68278,0.61475 0.47076,2.02857 -0.41748,2.7839 -0.1172,2.63896 -5.46683,2.63896 h -4.83863 l -0.55671,-1.87462 c -0.49461,-1.66555 -0.49618,-1.94149 -0.014,-2.47425 0.65262,-0.72112 0.66342,-1.70398 0.0479,-4.34704 l -0.46417,-1.99279 -3.46394,-0.10322 -3.46393,-0.10321 -0.58566,2.59337 c -0.72958,3.23069 -0.72801,3.47578 0.0249,3.89717 0.55245,0.30917 0.5642,0.53524 0.12329,2.37314 l -0.48733,2.03143 h -4.96844 -4.96842 z m -7.28895,-21.07672 c 0.9376,-0.39176 1.31976,-0.83421 1.60132,-1.85397 0.80533,-2.91666 -0.54412,-4.86674 -3.56892,-5.15738 l -1.82347,-0.17522 v 3.85057 3.85055 h 1.2798 c 0.70387,0 1.83396,-0.23155 2.51127,-0.51455 z m -4.87806,-3.24031 v -5.30338 l 1.53991,0.002 c 2.43939,0.003 4.10399,0.63346 5.31454,2.01221 0.92995,1.05914 1.1168,1.57595 1.1168,3.08899 0,3.49385 -1.60265,4.99232 -5.69031,5.32046 l -2.28094,0.18293 z m 1.19556,23.4112 c 0.12486,-0.64442 -0.0201,-1.23343 -0.41066,-1.66738 -0.49606,-0.55134 -0.62442,-1.66599 -0.71981,-6.25018 l -0.1161,-5.57919 h 2.72514 c 5.57567,0 8.65231,-1.45295 10.36341,-4.89412 0.73097,-1.47005 0.90001,-2.35203 0.90219,-4.7076 0.002,-1.59425 -0.21915,-3.53138 -0.49032,-4.30473 -0.70035,-1.99739 -2.6372,-3.98442 -4.84712,-4.97267 -1.71644,-0.76758 -2.5746,-0.86762 -8.91814,-1.03973 l -7.01893,-0.19042 -0.32165,0.84784 c -0.26449,0.69716 -0.13285,1.02421 0.74071,1.84024 0.5856,0.54702 1.16563,1.54868 1.29247,2.23196 0.12657,0.68176 0.17996,6.7291 0.11863,13.43849 -0.1109,12.13672 -0.1158,12.20479 -0.95879,13.34432 -0.58489,0.79064 -0.77914,1.417 -0.62717,2.02248 0.21599,0.86058 0.29425,0.8771 4.15661,0.8771 h 3.93649 z m -9.59543,0.27176 c -0.47356,-1.76741 -0.49178,-2.17398 -0.0975,-2.17398 0.26675,0 0.73883,-0.36239 1.04906,-0.80527 0.48461,-0.69191 0.56404,-2.605 0.56404,-13.58735 0,-12.29895 -0.0274,-12.80945 -0.72467,-13.50672 -0.39856,-0.39856 -0.96922,-0.72465 -1.26815,-0.72465 -0.67556,0 -0.67469,-0.15132 0.014,-2.47054 l 0.55753,-1.87741 h 6.30889 c 8.93114,0 12.09906,0.85911 14.79899,4.01337 1.68321,1.96645 2.41544,4.20935 2.41544,7.39877 0,4.92972 -1.61155,8.03025 -5.09004,9.79293 -1.74767,0.88562 -5.21726,1.614 -7.71161,1.61891 l -1.38829,0.002 0.12014,4.56193 c 0.11235,4.2665 0.17476,4.60613 0.96384,5.24432 0.83715,0.67708 0.83918,0.6979 0.26162,2.68463 l -0.58208,2.00228 h -4.8044 -4.80438 l -0.5825,-2.17398 z" />
</svg>
