<?xml version="1.0" encoding="UTF-8" standalone="no"?>
<svg
   xmlns:dc="http://purl.org/dc/elements/1.1/"
   xmlns:cc="http://creativecommons.org/ns#"
   xmlns:rdf="http://www.w3.org/1999/02/22-rdf-syntax-ns#"
   xmlns:svg="http://www.w3.org/2000/svg"
   xmlns="http://www.w3.org/2000/svg"
   viewBox="0 0 226.77165 226.77166"
   height="60mm"
   width="60mm"
   id="svg957"
   version="1.1">
  <metadata
     id="metadata963">
    <rdf:RDF>
      <cc:Work
         rdf:about="">
        <dc:format>image/svg+xml</dc:format>
        <dc:type
           rdf:resource="http://purl.org/dc/dcmitype/StillImage" />
        <dc:title></dc:title>
      </cc:Work>
    </rdf:RDF>
  </metadata>
  <defs
     id="defs961" />
  <path
     id="path1510"
     d="m 182.7292,149.52844 c 0,-0.27844 0.49329,-0.45134 1.09619,-0.38422 0.60291,0.0671 1.19849,-0.16629 1.32354,-0.51868 0.13067,-0.36826 -0.0632,-0.53393 -0.45583,-0.3896 -1.24575,0.4579 -2.04626,-0.54744 -1.87383,-2.35331 0.14768,-1.54665 0.35049,-1.75708 1.83103,-1.89983 1.65461,-0.15954 1.66495,-0.14628 1.66495,2.13534 0,1.26273 -0.13993,2.66053 -0.31096,3.10621 -0.33923,0.88402 -3.27509,1.15661 -3.27509,0.30409 z m 2.30532,-3.59209 c 0,-1.39348 -1.01502,-1.94365 -1.45768,-0.79009 -0.40172,1.04687 0.15346,2.42018 0.88043,2.17786 0.31748,-0.10583 0.57725,-0.73033 0.57725,-1.38777 z m -49.9485,-0.88017 c 0,-1.80392 0.22513,-3.21817 0.51229,-3.21817 0.28177,0 0.5123,0.44503 0.5123,0.98896 0,0.63555 0.4119,1.04745 1.15265,1.15266 0.83246,0.11822 1.19851,0.56365 1.31774,1.60348 0.20858,1.81914 -0.68847,2.92351 -2.26849,2.79274 -1.15286,-0.0954 -1.22649,-0.29471 -1.22649,-3.31967 z m 2.30531,0.96556 c 0,-1.58332 -0.99161,-1.40808 -1.19207,0.21066 -0.117,0.94484 0.0374,1.28419 0.5123,1.1259 0.37388,-0.12463 0.67977,-0.72608 0.67977,-1.33656 z m 2.29681,1.69741 c -0.49787,-0.5999 -0.49609,-0.91866 0.009,-1.52665 0.35077,-0.42264 0.95532,-0.76844 1.34346,-0.76844 0.38815,0 0.70571,-0.24606 0.70571,-0.54682 0,-0.31368 -0.43682,-0.40817 -1.02458,-0.22162 -0.58776,0.18655 -1.02459,0.0921 -1.02459,-0.22162 0,-0.30075 0.6916,-0.54682 1.53688,-0.54682 1.46836,0 1.53688,0.0978 1.53688,2.19358 0,1.94416 -0.13946,2.20512 -1.22649,2.29509 -0.67457,0.0558 -1.50966,-0.23968 -1.85575,-0.6567 z m 2.05767,-0.75821 c 0,-0.28176 -0.34581,-0.51229 -0.76844,-0.51229 -0.42265,0 -0.76844,0.23053 -0.76844,0.51229 0,0.28176 0.34579,0.51229 0.76844,0.51229 0.42263,0 0.76844,-0.23053 0.76844,-0.51229 z m 2.56146,-0.73821 c 0,-2.26354 0.0483,-2.33555 1.56711,-2.33555 0.86657,0 1.43175,0.21901 1.26432,0.48992 -0.16653,0.26946 -0.6412,0.36006 -1.05481,0.20134 -0.5741,-0.22031 -0.75203,0.14146 -0.75203,1.52901 0,0.99969 -0.23054,1.96008 -0.5123,2.13422 -0.31291,0.19339 -0.51229,-0.59235 -0.51229,-2.01894 z m 5.64202,1.51486 c -0.81125,-0.9775 0.12603,-2.31353 1.62303,-2.31353 0.5568,0 0.84752,-0.23392 0.6626,-0.53313 -0.18123,-0.29322 -0.77116,-0.39296 -1.31096,-0.22163 -0.54866,0.17414 -0.98148,0.0704 -0.98148,-0.2353 0,-0.30075 0.68721,-0.54682 1.52712,-0.54682 1.18838,0 1.59616,0.2751 1.83838,1.24022 0.17121,0.68211 0.23323,1.6426 0.13785,2.13441 -0.22638,1.16711 -2.64917,1.49679 -3.49654,0.47578 z m 2.29851,-0.77665 c 0.17414,-0.28176 -0.15805,-0.51229 -0.7382,-0.51229 -0.58015,0 -1.05483,0.23053 -1.05483,0.51229 0,0.28176 0.3322,0.51229 0.73821,0.51229 0.40601,0 0.88068,-0.23053 1.05482,-0.51229 z m 2.30532,-0.69844 v -2.44023 l 1.66494,0.16053 c 1.56277,0.15068 1.67462,0.29416 1.82249,2.33777 0.0876,1.21112 -0.0691,2.17725 -0.3533,2.17725 -0.28095,0 -0.58237,-0.8645 -0.66982,-1.9211 -0.18993,-2.29479 -1.11421,-2.55764 -1.35108,-0.38422 -0.28957,2.6571 -1.11323,2.70888 -1.11323,0.07 z m 5.10278,1.44261 c -0.9733,-1.17276 -0.3909,-3.53978 0.91665,-3.72548 0.74076,-0.10521 1.15266,-0.51711 1.15266,-1.15266 0,-0.54393 0.23053,-0.98896 0.5123,-0.98896 0.28692,0 0.51212,1.40857 0.51192,3.20183 -3.4e-4,3.04231 -0.0633,3.20546 -1.26385,3.27466 -0.69492,0.0401 -1.51828,-0.23417 -1.82968,-0.60939 z m 1.97527,-1.52854 c -0.0892,-0.71316 -0.39264,-1.29666 -0.67439,-1.29666 -0.28177,0 -0.58525,0.5835 -0.6744,1.29666 -0.11553,0.92413 0.0782,1.29666 0.6744,1.29666 0.59616,0 0.78992,-0.37253 0.67439,-1.29666 z m 5.0462,1.97971 c -0.18784,-0.18783 -0.29998,-1.74392 -0.24919,-3.45797 0.0916,-3.09209 0.0939,-3.09643 0.28688,-0.55498 0.107,1.4088 0.41124,2.78047 0.67611,3.04814 0.26485,0.26767 0.48155,0.6711 0.48155,0.89651 0,0.49745 -0.72478,0.53887 -1.19535,0.0683 z m 2.24565,-0.39593 c -0.33662,-0.4056 -0.53775,-1.38536 -0.44695,-2.17724 0.14007,-1.22154 0.39804,-1.43978 1.70197,-1.43978 1.30392,0 1.5619,0.21824 1.70196,1.43978 0.17517,1.52773 -0.63471,2.91471 -1.70196,2.91471 -0.35364,0 -0.9184,-0.33186 -1.25502,-0.73747 z m 1.92941,-1.58378 c -0.0892,-0.71316 -0.39263,-1.29666 -0.67439,-1.29666 -0.28177,0 -0.58525,0.5835 -0.6744,1.29666 -0.11553,0.92413 0.0783,1.29666 0.6744,1.29666 0.59616,0 0.78992,-0.37253 0.67439,-1.29666 z m 2.74484,1.69336 c -0.73213,-0.73211 -0.80503,-3.98275 -0.0893,-3.98275 0.28176,0 0.51229,0.80686 0.51229,1.79303 0,1.25226 0.23175,1.79302 0.76844,1.79302 0.53669,0 0.76844,-0.54076 0.76844,-1.79302 0,-0.98617 0.23053,-1.79303 0.51229,-1.79303 0.28176,0 0.5123,0.98711 0.5123,2.19358 0,1.92617 -0.14525,2.20561 -1.19141,2.29219 -0.65528,0.0542 -1.46214,-0.17213 -1.79302,-0.50302 z m 4.58022,-1.54936 c -0.057,-2.35582 -0.0117,-2.43339 1.42315,-2.43339 0.87887,0 1.60863,0.32981 1.79302,0.81034 0.47906,1.24841 0.36865,3.19188 -0.20134,3.54415 -0.30425,0.18804 -0.51229,-0.41152 -0.51229,-1.47641 0,-1.69355 -0.73134,-2.82979 -1.39454,-2.1666 -0.16598,0.16599 -0.46993,1.16883 -0.67543,2.22855 l -0.37366,1.92675 z m 9.70034,1.43978 c -0.33661,-0.4056 -0.53774,-1.38536 -0.44694,-2.17724 0.14007,-1.22154 0.39804,-1.43978 1.70197,-1.43978 1.20376,0 1.57236,0.24983 1.70058,1.15266 0.13332,0.93876 -0.0806,1.15266 -1.15266,1.15266 -0.724,0 -1.31636,0.25741 -1.31636,0.57204 0,0.31973 0.45169,0.45392 1.02407,0.30424 1.23737,-0.32358 1.86549,0.42507 0.72412,0.86306 -1.19303,0.4578 -1.55786,0.38799 -2.23478,-0.42764 z m 1.76732,-2.84858 c -0.17414,-0.28176 -0.53354,-0.51229 -0.79867,-0.51229 -0.26514,0 -0.48206,0.23053 -0.48206,0.51229 0,0.28176 0.3594,0.51229 0.79868,0.51229 0.43926,0 0.65619,-0.23053 0.48205,-0.51229 z M 50.586723,131.00209 c -3.001386,-0.95 -3.355181,-0.97064 -3.898669,-0.22737 -1.370114,1.87374 -1.765509,0.85214 -1.765509,-4.56163 0,-4.20982 0.152374,-5.37907 0.700986,-5.37907 0.435065,0 0.80951,0.80912 0.987066,2.13289 0.576769,4.30013 3.982821,7.08838 8.658996,7.08838 5.062359,0 7.583188,-2.18024 7.583188,-6.55861 0,-3.1047 -1.73968,-5.06677 -8.728595,-9.84442 -5.693069,-3.89181 -6.536511,-4.66415 -7.792837,-7.13589 -2.326193,-4.57663 -1.751261,-9.248473 1.530542,-12.437053 1.060087,-1.02997 2.576401,-2.11693 3.369586,-2.41547 2.026853,-0.76286 6.826596,-0.6653 9.666287,0.19648 2.078638,0.63082 2.480891,0.63007 3.00841,-0.006 1.211868,-1.46021 1.508069,-0.64843 1.508069,4.13305 0,3.81116 -0.154311,4.866783 -0.711425,4.866783 -0.408281,0 -0.855632,-0.76869 -1.049853,-1.803973 -0.186136,-0.99218 -1.03971,-2.60268 -1.896834,-3.57889 -4.17116,-4.75069 -12.735247,-2.86276 -12.735247,2.80745 0,3.833493 1.672906,5.777333 8.616366,10.011833 4.360374,2.65919 7.609587,5.59588 8.822995,7.97435 2.075059,4.06745 0.862115,10.04112 -2.638054,12.99223 -3.655234,3.08186 -7.435927,3.58017 -13.235468,1.74449 z m 31.989318,0.78105 c -4.677531,-1.17667 -7.701715,-3.40181 -9.611499,-7.07198 -1.510855,-2.90352 -1.510855,-8.43681 0,-11.34032 1.628713,-3.13002 4.750679,-5.67992 8.181515,-6.68236 8.335053,-2.43536 16.430197,2.97246 16.962459,11.33147 0.349578,5.49001 -1.856717,9.68248 -6.393377,12.1489 -2.522074,1.37116 -6.977293,2.15811 -9.139098,1.61429 z m 6.310434,-2.76802 c 2.574255,-1.56947 3.892199,-4.94682 3.892199,-9.97412 0,-7.11839 -2.702797,-11.01429 -7.641211,-11.01429 -3.220776,0 -5.14041,1.24194 -6.672825,4.31709 -1.811703,3.63562 -1.813674,9.75536 -0.0043,13.38449 0.694847,1.39368 1.905138,2.93127 2.689537,3.41685 1.964571,1.21617 5.629605,1.15458 7.736613,-0.13002 z m 46.369615,2.62565 c -8.59003,-2.19289 -12.33146,-11.51099 -7.80453,-19.43734 3.80911,-6.6695 12.30142,-8.08648 17.64795,-2.94464 2.12517,2.0438 3.76599,5.80602 3.04265,6.97642 -0.18178,0.29411 -3.91179,0.50047 -9.04622,0.50047 h -8.73689 l 0.34319,2.43339 c 0.18875,1.33836 0.92363,3.64399 1.63306,5.12361 1.57454,3.28395 4.50491,5.25031 7.82424,5.25031 2.60226,0 3.79226,-0.56107 6.32497,-2.98214 l 1.92109,-1.83643 v 1.33916 c 0,1.39749 -1.90579,3.36142 -4.62792,4.76908 -1.78549,0.92332 -6.36801,1.35788 -8.52159,0.80811 z m 8.02659,-17.74814 c 0,-3.31405 -2.83658,-5.86592 -6.52035,-5.86592 -3.08266,0 -5.0399,1.8899 -5.96866,5.76329 l -0.3378,1.4088 h 6.41342 6.41339 z m 35.38273,17.19083 c -2.47385,-0.90462 -2.87676,-0.9329 -3.62638,-0.25449 -1.67935,1.51979 -2.04338,0.92563 -2.04338,-3.33515 0,-4.85364 0.87531,-5.48553 2.50264,-1.80668 1.23903,2.80105 3.58426,4.36358 6.55337,4.36623 1.70306,0.001 2.35687,-0.27372 3.20182,-1.3479 2.34842,-2.98554 1.1065,-4.95718 -5.16175,-8.1946 -5.09009,-2.62893 -6.57996,-4.2957 -6.57996,-7.36124 0,-2.6568 1.68461,-5.02096 4.44911,-6.24384 2.17103,-0.96035 2.6168,-0.99355 5.15716,-0.38412 2.15452,0.51686 2.9991,0.5307 3.75046,0.0615 0.53335,-0.33309 1.08812,-0.60561 1.23282,-0.60561 0.14471,0 0.2631,1.72899 0.2631,3.84219 0,2.97825 -0.16364,3.8422 -0.72773,3.8422 -0.40026,0 -0.87827,-0.68537 -1.06226,-1.52303 -0.18398,-0.83767 -1.04034,-2.11695 -1.90302,-2.84285 -1.2779,-1.07528 -2.00579,-1.29141 -3.92856,-1.16651 -1.97812,0.12851 -2.46561,0.37455 -3.01244,1.52047 -0.95928,2.01023 0.009,3.64946 3.13771,5.31068 5.22635,2.77518 7.40711,4.39451 8.21725,6.10176 1.1433,2.40934 1.01992,4.95553 -0.33674,6.94888 -2.54126,3.73389 -5.66819,4.6866 -10.08322,3.07213 z m -76.8784,-0.77203 c 0,-0.45304 0.47309,-0.77165 1.15266,-0.77628 2.56745,-0.0175 2.67862,-0.39149 2.84988,-9.58787 0.18988,-10.19626 -0.0714,-11.27549 -2.78528,-11.50394 -1.04857,-0.0883 -1.99833,-0.44014 -2.11056,-0.78196 -0.24158,-0.73571 0.89675,-1.00613 5.88815,-1.39881 l 3.71412,-0.29218 v 2.56397 2.56398 l 3.09039,-2.27501 c 3.78129,-2.78363 4.64347,-3.078 6.86638,-2.34437 3.08427,1.0179 3.18424,1.60932 1.02092,6.03941 -0.0368,0.0754 -1.08107,-0.32292 -2.32051,-0.88526 -3.00679,-1.3642 -4.45293,-1.30341 -6.79122,0.28551 l -1.95793,1.33045 0.17406,7.65393 c 0.18555,8.1592 0.33674,8.61495 2.86359,8.63215 0.67958,0.005 1.15266,0.32324 1.15266,0.77628 0,0.64207 -1.05305,0.76844 -6.40365,0.76844 -5.35061,0 -6.40366,-0.12637 -6.40366,-0.76844 z m 50.20464,0.0309 c 0,-0.48075 0.66179,-0.79287 1.90087,-0.89651 1.52615,-0.12766 1.97052,-0.41147 2.25425,-1.43973 0.19435,-0.7044 0.37637,-9.01711 0.40445,-18.47269 0.0386,-13.030943 -0.10392,-17.394703 -0.5893,-18.029643 -0.3522,-0.46072 -1.42948,-0.90821 -2.39394,-0.99442 -0.96446,-0.0862 -1.84075,-0.42266 -1.9473,-0.74766 -0.19547,-0.59619 0.97161,-0.85443 6.62944,-1.46685 l 2.92855,-0.317 0.1452,20.289293 c 0.15826,22.11548 0.0327,21.25097 3.09088,21.268 0.90725,0.005 1.4088,0.28142 1.4088,0.77628 0,0.64511 -1.10996,0.76844 -6.91595,0.76844 -5.67709,0 -6.91595,-0.13211 -6.91595,-0.73751 z m 17.96913,-37.177303 c -2.02346,-3.38398 -3.53444,-6.3866 -3.35775,-6.6725 0.17669,-0.28589 0.0448,-0.45646 -0.29315,-0.37904 -0.33792,0.0774 -0.70862,-0.11307 -0.82377,-0.42331 -0.1172,-0.31575 1.0102,-0.911 2.56097,-1.35216 2.7509,-0.78256 2.8203,-0.7741 9.8789,1.20397 6.50614,1.82326 7.24898,2.15491 8.76586,3.91363 0.91154,1.05686 1.66077,2.07585 1.66496,2.26443 0.009,0.39259 -13.48368,7.59765 -14.22761,7.59765 -0.26918,0 -2.14497,-2.76871 -4.16841,-6.15269 z m 11.57907,-0.28732 c 2.88308,-1.84429 2.93278,-1.91392 1.69552,-2.37544 -1.13048,-0.42169 -1.52694,-0.19636 -3.50623,1.99275 -2.00572,2.21836 -1.88655,1.92629 0.67662,-1.65833 0.63064,-0.88194 0.32614,-1.16532 -1.68418,-1.56738 -1.60378,-0.32076 -1.6277,-0.29648 -1.63458,1.65961 -0.004,1.09183 -0.1438,2.49535 -0.31097,3.11894 -0.42542,1.58679 1.00221,1.23612 4.76382,-1.17015 z m -5.64982,-4.37708 c -0.32399,-0.1733 -1.24143,-0.47047 -2.03875,-0.66039 -1.22918,-0.29277 -1.41014,-0.20589 -1.18972,0.57124 0.14299,0.50409 0.4279,2.18445 0.63315,3.73414 l 0.37318,2.81761 1.4056,-3.07376 c 0.97832,-2.13934 1.22654,-3.16954 0.81654,-3.38884 z m 10.42522,3.03834 c 0,-0.92634 -1.43131,-0.32556 -2.84984,1.1962 l -1.50465,1.61416 2.17725,-1.1962 c 1.19748,-0.65791 2.17724,-1.38428 2.17724,-1.61416 z m -13.58205,0.22241 c -0.60835,-3.78372 -0.80808,-4.2775 -1.93013,-4.77183 -1.06261,-0.46815 -1.04646,-0.48851 0.24582,-0.30992 0.83712,0.11569 1.48803,-0.0822 1.64886,-0.50134 0.34372,-0.89571 -1.25467,-0.91243 -2.4672,-0.0258 -0.85878,0.62796 -0.81344,0.86601 0.78048,4.09834 0.93073,1.88741 1.76846,3.43165 1.86163,3.43165 0.0932,0 0.0304,-0.86449 -0.13946,-1.92109 z m -3.64063,-3.07375 c -0.18509,-0.77484 -0.52981,-1.65635 -0.76601,-1.9589 -0.24317,-0.31148 -0.16808,-0.81148 0.1731,-1.15266 0.37205,-0.37205 0.39885,-0.60256 0.07,-0.60256 -0.29289,0 -0.80182,0.59101 -1.13094,1.31337 -0.32913,0.72235 -0.39289,1.18634 -0.14168,1.03109 0.25119,-0.15525 0.74198,0.40639 1.09061,1.2481 0.79359,1.91588 1.14812,1.97702 0.70487,0.12156 z m 14.11015,0.0832 c -1.06058,-1.132 -1.26802,-1.19707 -1.42044,-0.44561 -0.18847,0.92923 0.71138,1.75021 1.93274,1.76334 0.49658,0.005 0.33294,-0.41558 -0.5123,-1.31773 z m -3.405,-1.69618 c 0.21913,-0.21328 -0.85589,-0.7369 -2.38893,-1.1636 l -2.78735,-0.77582 1.09602,1.48245 c 0.87455,1.18289 1.35728,1.41802 2.38894,1.1636 0.71109,-0.17536 1.47219,-0.49335 1.69132,-0.70663 z"
     style="fill:#000000;stroke-width:0.51229244" />
  <rect
     y="68.466393"
     x="42.764938"
     height="93.708466"
     width="150.40138"
     id="rect1512"
     style="opacity:1;fill:none;fill-opacity:1;stroke:#000000;stroke-width:0.77972156;stroke-miterlimit:4;stroke-dasharray:none;stroke-opacity:1" />
  <text
     id="text1516"
     y="177.66702"
     x="89.697807"
     style="font-style:normal;font-weight:normal;font-size:13.33333302px;line-height:1.25;font-family:sans-serif;letter-spacing:0px;word-spacing:0px;fill:#000000;fill-opacity:1;stroke:none"
     xml:space="preserve"><tspan
       y="177.66702"
       x="89.697807"
       id="tspan1514">40.00mm</tspan></text>
  <text
     transform="rotate(-90)"
     id="text1520"
     y="38.505306"
     x="-147.8671"
     style="font-style:normal;font-weight:normal;font-size:13.33333302px;line-height:1.25;font-family:sans-serif;letter-spacing:0px;word-spacing:0px;fill:#000000;fill-opacity:1;stroke:none"
     xml:space="preserve"><tspan
       y="38.505306"
       x="-147.8671"
       id="tspan1518">25.00mm</tspan></text>
</svg>
