<?xml version="1.0" encoding="UTF-8" standalone="no"?>
<!-- Created with Inkscape (http://www.inkscape.org/) -->

<svg
   xmlns:dc="http://purl.org/dc/elements/1.1/"
   xmlns:cc="http://creativecommons.org/ns#"
   xmlns:rdf="http://www.w3.org/1999/02/22-rdf-syntax-ns#"
   xmlns:svg="http://www.w3.org/2000/svg"
   xmlns="http://www.w3.org/2000/svg"
   xmlns:sodipodi="http://sodipodi.sourceforge.net/DTD/sodipodi-0.dtd"
   xmlns:inkscape="http://www.inkscape.org/namespaces/inkscape"
   version="1.1"
   id="svg651"
   width="70mm"
   height="70mm"
   viewBox="0 0 264.56692 264.56692"
   sodipodi:docname="ruuumbitch1.svg"
   inkscape:version="0.92.2 5c3e80d, 2017-08-06">
  <metadata
     id="metadata657">
    <rdf:RDF>
      <cc:Work
         rdf:about="">
        <dc:format>image/svg+xml</dc:format>
        <dc:type
           rdf:resource="http://purl.org/dc/dcmitype/StillImage" />
        <dc:title></dc:title>
      </cc:Work>
    </rdf:RDF>
  </metadata>
  <defs
     id="defs655" />
  <sodipodi:namedview
     pagecolor="#ffffff"
     bordercolor="#666666"
     borderopacity="1"
     objecttolerance="10"
     gridtolerance="10"
     guidetolerance="10"
     inkscape:pageopacity="0"
     inkscape:pageshadow="2"
     inkscape:window-width="1299"
     inkscape:window-height="702"
     id="namedview653"
     showgrid="false"
     inkscape:zoom="1.5479905"
     inkscape:cx="193.34429"
     inkscape:cy="119.83548"
     inkscape:window-x="0"
     inkscape:window-y="0"
     inkscape:window-maximized="0"
     inkscape:current-layer="svg651"
     units="mm" />
  <path
     style="fill:#000000;stroke-width:0.12115741"
     d="m 176.85891,148.05839 c -0.50016,-0.31307 -0.52407,-0.67732 -0.29857,-4.54815 0.25088,-4.30649 0.2564,-8.48823 0.0156,-11.81589 -0.0965,-1.33493 -0.20336,-3.33731 -0.23727,-4.44972 -0.0339,-1.11243 -0.0905,-2.66776 -0.12586,-3.45628 l -0.0643,-1.43365 -0.66933,-0.0886 c -0.36813,-0.0488 -1.23271,-0.21676 -1.92127,-0.37335 -1.5337,-0.34882 -3.14753,-0.37018 -4.14535,-0.0549 -0.80425,0.25414 -1.15882,0.16968 -1.45013,-0.34546 -0.40806,-0.72162 -0.0592,-1.56929 0.76438,-1.85646 1.28097,-0.44676 3.4254,-0.51343 4.68622,-0.14572 1.84294,0.53751 3.68219,0.65413 5.48745,0.348 0.62414,-0.10579 2.18805,-0.26061 3.47536,-0.34389 1.28731,-0.0832 2.66924,-0.20852 3.07097,-0.27824 0.8226,-0.1428 1.17015,-0.0384 1.43586,0.43154 0.2447,0.43271 0.21675,0.98208 -0.0706,1.38895 -0.29297,0.41473 -0.90113,0.5275 -4.00072,0.74179 -2.25585,0.15595 -4.51514,0.4175 -4.67702,0.54143 -0.1123,0.086 0.11654,7.25 0.32096,10.04871 0.1947,2.66557 0.24753,6.27393 0.1224,8.36008 -0.0667,1.11243 -0.17937,3.10694 -0.25034,4.43227 -0.0965,1.80261 -0.17191,2.47454 -0.29917,2.6672 -0.20488,0.31016 -0.8459,0.44603 -1.16934,0.2303 z M 70.316254,147.52142 c -1.056266,-0.28946 -1.2251,-0.4161 -2.342834,-1.75749 -0.585818,-0.70304 -1.140101,-1.27824 -1.231746,-1.27824 -0.09164,0 -0.349648,-0.28823 -0.573348,-0.64049 -0.223699,-0.35227 -0.631136,-0.91625 -0.905409,-1.2533 -0.274272,-0.33703 -0.635146,-0.91348 -0.801939,-1.28099 -0.166794,-0.36748 -0.371808,-0.81985 -0.455593,-1.00526 -0.374306,-0.8283 -0.519369,-1.45526 -0.573054,-2.47667 -0.0317,-0.60313 -0.103616,-1.16866 -0.159819,-1.25672 -0.05622,-0.0881 -0.06982,-0.42744 -0.03021,-0.75414 0.04381,-0.36212 0.0022,-1.05686 -0.107457,-1.77965 -0.205694,-1.35967 -0.38753,-3.17172 -0.426504,-4.25035 -0.01478,-0.40789 -0.06015,-1.13603 -0.100829,-1.61807 -0.04071,-0.48206 -0.09993,-1.84362 -0.131574,-3.02567 -0.03753,-1.40224 -0.11554,-2.36079 -0.224416,-2.75798 -0.182192,-0.66468 -0.139412,-1.0727 0.179693,-1.71391 0.26789,-0.53827 1.159837,-1.1096 1.900653,-1.21747 l 0.580553,-0.0846 0.06612,0.52312 c 0.03635,0.28773 0.11905,0.82651 0.183742,1.19731 0.06465,0.3708 0.108869,1.2203 0.09818,1.88775 -0.01456,0.90734 0.05084,1.57087 0.259149,2.62939 0.153222,0.7787 0.278647,1.6515 0.278721,1.93953 1.7e-4,0.63015 0.21436,1.57315 0.374579,1.64916 0.06657,0.0317 0.100067,0.32881 0.07914,0.70173 -0.02219,0.39435 0.06959,1.14406 0.234916,1.92007 0.149171,0.70023 0.29907,1.6917 0.33309,2.20327 0.03557,0.53466 0.155545,1.15274 0.282187,1.4537 0.121179,0.28794 0.220324,0.73598 0.220324,0.99565 0,0.25967 0.07752,0.69771 0.172266,0.97346 0.130542,0.37988 0.156267,0.74625 0.106209,1.5126 -0.08588,1.31492 0.05326,1.64968 1.217019,2.92779 0.830255,0.91186 0.931145,0.98359 1.360786,0.96757 0.255226,-0.01 0.513037,0.004 0.572912,0.0265 0.166367,0.0669 0.953808,-0.28769 1.186081,-0.53416 0.39288,-0.41687 0.5838,-1.23841 0.661965,-2.84832 0.04136,-0.85285 0.169166,-1.97417 0.283897,-2.49181 0.252172,-1.13767 0.260025,-1.66659 0.04201,-2.83076 -0.152792,-0.81606 -0.151468,-0.92903 0.01598,-1.3661 0.155029,-0.40465 0.169261,-0.6936 0.09442,-1.91668 -0.08301,-1.3566 -0.08812,-2.12301 -0.02497,-3.74247 0.0213,-0.54538 -0.03054,-0.79159 -0.255303,-1.21356 -0.27131,-0.50934 -0.305969,-0.70334 -0.521185,-2.9166 -0.04787,-0.49192 -0.1569,-0.8807 -0.302596,-1.07873 -0.332351,-0.45166 -0.472745,-0.84354 -0.472745,-1.31962 0,-0.47453 0.334462,-0.91963 1.275726,-1.69781 0.312455,-0.25831 0.613814,-0.57085 0.669688,-0.69452 0.140833,-0.3117 0.715834,-0.28316 1.347708,0.0667 0.443335,0.2456 0.517092,0.34173 0.517092,0.67408 0,0.21319 0.0756,0.7029 0.167989,1.08825 0.129222,0.53899 0.141921,0.81681 0.05504,1.20431 -0.196055,0.8744 -0.132459,1.58858 0.239651,2.69135 l 0.353808,1.04853 -0.03331,6.60716 c -0.02752,5.448 -0.0628,6.73698 -0.201092,7.34719 -0.10641,0.46952 -0.143182,0.96934 -0.10057,1.36721 0.05846,0.54579 0.01674,0.74716 -0.321046,1.55223 -0.21353,0.5088 -0.53401,1.15076 -0.712194,1.42656 -0.178192,0.27582 -0.419771,0.77828 -0.536844,1.1166 -0.117086,0.33832 -0.35679,0.8408 -0.532685,1.11661 -0.175895,0.2758 -0.441092,0.77331 -0.58931,1.10557 -0.300974,0.67461 -0.351374,0.71789 -1.084056,0.93073 -0.633642,0.18407 -0.826391,0.17829 -1.658606,-0.0498 z m 17.839269,-7.3e-4 c -0.367126,-0.099 -0.823085,-0.27949 -1.013256,-0.4013 -0.753763,-0.4828 -4.231542,-4.671 -4.594189,-5.53267 -0.124849,-0.29666 -0.318994,-0.66403 -0.431421,-0.81638 -0.354367,-0.48024 -0.719036,-1.82963 -0.797538,-2.95119 -0.04123,-0.58892 -0.107493,-1.13503 -0.147267,-1.21355 -0.03975,-0.0786 -0.05744,-0.50883 -0.03931,-0.95617 0.01814,-0.44737 -0.04454,-1.31987 -0.13938,-1.9389 -0.09481,-0.61904 -0.19988,-1.5546 -0.233483,-2.07902 -0.03364,-0.52443 -0.08577,-1.00299 -0.115975,-1.06345 -0.03015,-0.0605 -0.07714,-1.09497 -0.104442,-2.29893 -0.02729,-1.20397 -0.09967,-2.57425 -0.160866,-3.0451 -0.06119,-0.47083 -0.0815,-1.10794 -0.04515,-1.4158 0.04245,-0.35908 0.0052,-0.77127 -0.103807,-1.14978 -0.09345,-0.32452 -0.169905,-0.78265 -0.169905,-1.01803 0,-0.47587 0.511833,-1.5607 0.736347,-1.5607 0.07888,0 0.276108,-0.11767 0.438343,-0.26146 0.162233,-0.14379 0.57175,-0.30171 0.910051,-0.35095 0.70005,-0.10194 0.645911,-0.18166 0.873023,1.28661 0.07452,0.48204 0.123985,1.40701 0.109838,2.05549 -0.01821,0.83814 0.04166,1.52039 0.207273,2.35969 0.128135,0.64937 0.298101,1.74835 0.377692,2.44218 0.08176,0.71271 0.217149,1.36066 0.311236,1.48942 0.111852,0.15312 0.147442,0.38084 0.108374,0.69368 -0.03565,0.28519 0.05117,0.98121 0.223712,1.79526 0.155034,0.73122 0.323458,1.83758 0.374267,2.45857 0.05187,0.63363 0.17007,1.2759 0.269405,1.46368 0.09737,0.18406 0.177017,0.51089 0.177017,0.72633 0,0.21542 0.09226,0.7494 0.205015,1.1866 0.153884,0.59662 0.191112,1.0357 0.149264,1.76017 -0.07069,1.2235 0.0919,1.58017 1.279428,2.80703 0.76335,0.7886 0.90564,0.884 1.278067,0.85677 0.230503,-0.0169 0.475955,0.0128 0.54547,0.066 0.06956,0.0534 0.214098,0.0415 0.321321,-0.026 0.107214,-0.0676 0.376794,-0.21929 0.59906,-0.33705 0.654348,-0.34667 0.851214,-0.99368 0.948814,-3.11821 0.04498,-0.97912 0.116515,-1.84986 0.158974,-1.93498 0.04244,-0.0851 0.145672,-0.55993 0.229326,-1.05518 0.133983,-0.79318 0.131132,-1.0339 -0.02397,-2.02132 -0.167237,-1.06477 -0.165843,-1.15809 0.02789,-1.86387 0.19663,-0.71654 0.197266,-0.80254 0.01752,-2.41822 -0.133792,-1.20284 -0.15534,-1.77631 -0.07636,-2.03354 0.208606,-0.6796 0.133591,-1.60839 -0.17544,-2.17244 -0.276788,-0.5052 -0.459488,-1.5305 -0.53174,-2.98432 -0.01866,-0.37429 -0.122417,-0.70713 -0.30381,-0.97416 -0.373099,-0.5492 -0.545382,-1.22998 -0.417065,-1.64802 0.05579,-0.18182 0.376777,-0.60011 0.713273,-0.92958 0.336497,-0.32949 0.814055,-0.7991 1.061234,-1.04357 0.495191,-0.48977 0.706674,-0.49386 1.570654,-0.0303 0.438403,0.23521 0.447852,0.25477 0.531401,1.09876 0.04672,0.4726 0.07879,1.13233 0.07104,1.46605 -0.0078,0.33374 -0.02258,0.97086 -0.03304,1.41583 -0.01517,0.64073 0.04506,0.97735 0.289236,1.61807 0.293184,0.7692 0.312046,0.93522 0.383165,3.371 0.04289,1.47123 0.03069,2.90642 -0.02876,3.37101 -0.05857,0.45791 -0.07435,2.0965 -0.03635,3.77552 0.04315,1.90859 0.02545,3.23095 -0.04977,3.7081 -0.06433,0.40788 -0.152158,1.28772 -0.195244,1.95518 -0.08499,1.31618 -0.250725,1.83469 -0.948483,2.96692 -0.219585,0.3563 -0.540714,1.01775 -0.7136,1.46984 -0.172886,0.45211 -0.473636,1.07607 -0.668331,1.38662 -0.194676,0.31053 -0.451949,0.76008 -0.571698,0.99896 -0.166557,0.33226 -0.345641,0.47546 -0.762043,0.60929 -0.674832,0.21687 -1.016176,0.21423 -1.864984,-0.0145 z m 17.867887,0.0124 c -1.03401,-0.27879 -1.21474,-0.41525 -2.34284,-1.76909 -0.58582,-0.70306 -1.14131,-1.27825 -1.23441,-1.27825 -0.0931,0 -0.44203,-0.42343 -0.77541,-0.94096 -0.33337,-0.51753 -0.70295,-1.00513 -0.82125,-1.08357 -0.11831,-0.0784 -0.33481,-0.43516 -0.48111,-0.79273 -0.14629,-0.35758 -0.391163,-0.83442 -0.544166,-1.05965 -0.152994,-0.2252 -0.278183,-0.4976 -0.278183,-0.60528 0,-0.10763 -0.07827,-0.39014 -0.173957,-0.62769 -0.09569,-0.23756 -0.200126,-0.9295 -0.232106,-1.53767 -0.03199,-0.60816 -0.104121,-1.17781 -0.160317,-1.26588 -0.05622,-0.0882 -0.06982,-0.42743 -0.03033,-0.75414 0.04437,-0.36675 8.71e-4,-1.05352 -0.112882,-1.79505 -0.315018,-2.04751 -0.394785,-3.1172 -0.59735,-8.01046 -0.07653,-1.84782 -0.186065,-3.25979 -0.280267,-3.6117 -0.208231,-0.77784 -0.197849,-0.92534 0.111068,-1.57823 0.324573,-0.68602 1.130103,-1.24553 1.969,-1.36764 l 0.58054,-0.0846 0.0662,0.52312 c 0.0364,0.28773 0.11906,0.82651 0.18374,1.19732 0.0647,0.37079 0.10899,1.22029 0.0984,1.88775 -0.0133,0.84159 0.0514,1.57885 0.21123,2.40531 0.12672,0.65547 0.2706,1.63566 0.31973,2.17822 0.0491,0.54256 0.16872,1.18366 0.26578,1.42464 0.097,0.241 0.17649,0.71726 0.17649,1.05837 0,0.34111 0.10057,1.04476 0.22348,1.56366 0.12292,0.51889 0.26632,1.47766 0.31865,2.13057 0.0593,0.74023 0.18015,1.38902 0.32085,1.72336 0.12411,0.29493 0.22566,0.73912 0.22566,0.98709 0,0.24794 0.0772,0.71633 0.17154,1.04084 0.12521,0.43066 0.15311,0.83254 0.10325,1.48788 -0.0938,1.23296 0.0573,1.60254 1.1658,2.84889 0.87448,0.98335 0.9554,1.04246 1.40384,1.02563 0.26174,-0.01 0.52488,8e-4 0.58475,0.0259 0.18637,0.075 0.96784,-0.3009 1.22196,-0.58775 0.37307,-0.42111 0.55323,-1.24165 0.62588,-2.85069 0.0365,-0.80947 0.16238,-1.90046 0.2796,-2.42439 0.2562,-1.14516 0.26529,-1.67403 0.0486,-2.83106 -0.14982,-0.8002 -0.14841,-0.92818 0.0157,-1.43663 0.15033,-0.46537 0.16554,-0.78584 0.0915,-1.92784 -0.0834,-1.28614 -0.0882,-2.02471 -0.024,-3.67194 0.0212,-0.54539 -0.0305,-0.79159 -0.2553,-1.21356 -0.27131,-0.50934 -0.30596,-0.70334 -0.52119,-2.9166 -0.0478,-0.49191 -0.1569,-0.88071 -0.3026,-1.07871 -0.33333,-0.45303 -0.47274,-0.84385 -0.47274,-1.32536 0,-0.47085 0.28406,-0.86815 1.09905,-1.53719 0.26371,-0.21647 0.5871,-0.54675 0.71865,-0.73393 0.30002,-0.42689 0.76491,-0.44221 1.47541,-0.0486 0.42947,0.23792 0.51711,0.34727 0.51711,0.64539 0,0.1974 0.0725,0.70577 0.16126,1.12969 0.11796,0.5639 0.13257,0.89464 0.0544,1.23215 -0.19013,0.82108 -0.12134,1.55922 0.24698,2.65076 l 0.35381,1.04852 -0.0331,6.60716 c -0.0274,5.47171 -0.062,6.73462 -0.20197,7.34878 -0.1042,0.45743 -0.14558,0.98781 -0.108,1.38405 0.0526,0.55417 0.009,0.76725 -0.32016,1.55068 -0.20961,0.49952 -0.5269,1.13387 -0.70509,1.40969 -0.17819,0.27582 -0.42416,0.7916 -0.54661,1.14615 -0.12245,0.35455 -0.31347,0.76602 -0.42452,0.91433 -0.11104,0.14833 -0.39485,0.66409 -0.63071,1.14613 -0.37783,0.77223 -0.47918,0.88879 -0.8522,0.98003 -0.84563,0.20684 -1.30681,0.21745 -1.94744,0.0447 z m 24.65751,-0.0707 c -0.20955,-0.13968 -0.49995,-0.4117 -0.64531,-0.60444 -0.26293,-0.34868 -0.2644,-0.36696 -0.2876,-3.55244 -0.0325,-4.46575 -0.16437,-6.71798 -0.4282,-7.31457 -0.17731,-0.40093 -0.2108,-0.77626 -0.22259,-2.49456 -0.0103,-1.5143 -0.0588,-2.16859 -0.19229,-2.60357 -0.0982,-0.31954 -0.23244,-1.26006 -0.29848,-2.09004 -0.0661,-0.82996 -0.18969,-1.67007 -0.27475,-1.86693 -0.0851,-0.19685 -0.15464,-0.45472 -0.15464,-0.57307 0,-0.27833 -0.28328,-0.27975 -0.36937,-8e-4 -0.0364,0.1173 -0.0661,0.40076 -0.0661,0.62989 0,0.22911 -0.0773,0.52244 -0.17189,0.65182 -0.0945,0.12937 -0.18531,0.38695 -0.20175,0.57237 -0.0164,0.18544 -0.20899,0.63938 -0.4279,1.00873 -0.2189,0.36937 -0.52479,1.02675 -0.67977,1.46084 -0.15496,0.43409 -0.49742,1.07489 -0.76102,1.42397 -0.26359,0.3491 -0.4796,0.68283 -0.48,0.74162 -4.9e-4,0.0588 -0.17245,0.25175 -0.38229,0.42876 -0.34187,0.28835 -0.45538,0.31248 -1.09107,0.23181 -1.36982,-0.17384 -1.27796,-0.0945 -1.89161,-1.63517 -0.30434,-0.76417 -0.55337,-1.43309 -0.55337,-1.4865 0,-0.278 -1.4701,-3.31107 -1.69224,-3.49133 -0.35857,-0.29103 -0.41109,-0.26662 -0.32632,0.15168 0.15069,0.74366 0.14309,2.94872 -0.0133,3.88506 -0.108,0.64636 -0.1368,1.3264 -0.0913,2.15744 0.0422,0.77099 0.0209,1.38566 -0.0583,1.68549 -0.0686,0.25958 -0.15806,1.56894 -0.19874,2.9097 -0.0632,2.08076 -0.10465,2.49546 -0.28342,2.83165 -0.14657,0.27562 -0.23561,0.77842 -0.29662,1.67485 -0.23478,3.44957 -0.19301,3.19028 -0.597,3.70551 -0.4811,0.61357 -0.90151,0.63557 -1.35733,0.071 -0.25824,-0.31983 -0.30759,-0.46668 -0.23803,-0.70792 0.0482,-0.1674 0.0762,-0.54706 0.0618,-0.84372 -0.0142,-0.29665 -0.0196,-1.20683 -0.0118,-2.0226 0.0246,-2.61091 0.0226,-3.74694 -0.009,-4.98909 -0.017,-0.66745 0.003,-1.48659 0.0444,-1.82032 0.0413,-0.33372 0.0304,-0.75542 -0.0247,-0.93706 -0.067,-0.22156 -0.0458,-0.64322 0.064,-1.28098 0.0901,-0.52288 0.17501,-1.43613 0.18869,-2.02943 0.0181,-0.78 0.0929,-1.2654 0.27066,-1.75291 0.20689,-0.56756 0.25817,-1.01551 0.32416,-2.83164 0.0548,-1.50859 0.13194,-2.31448 0.25637,-2.67957 0.0978,-0.28717 0.17798,-0.81376 0.17798,-1.17021 0,-1.01343 0.14606,-1.11753 1.46356,-1.04298 0.81919,0.0463 1.20432,0.13189 1.53018,0.33988 0.74283,0.47412 1.50713,1.31993 1.99979,2.21312 0.52028,0.94326 1.67536,2.16735 1.93067,2.04601 0.19587,-0.0931 0.36382,-0.48828 0.97308,-2.28948 0.26055,-0.77026 0.72254,-1.83792 1.02665,-2.37257 0.35492,-0.62397 0.63421,-1.31103 0.77984,-1.91852 0.33407,-1.39355 0.46887,-1.65454 0.93778,-1.81585 0.45752,-0.15737 1.1162,-0.18489 1.38358,-0.0578 0.31456,0.14953 0.90249,1.9837 0.99128,3.09252 0.0181,0.22679 0.13976,0.7944 0.27023,1.26134 0.14994,0.53663 0.21542,1.01524 0.178,1.30085 -0.0326,0.24855 -0.0151,0.62146 0.0389,0.82871 0.26014,0.99969 0.52425,3.04956 0.51761,4.01747 -0.005,0.71277 0.0754,1.46753 0.23659,2.22485 0.13419,0.63039 0.28495,1.87429 0.33502,2.76424 0.05,0.88992 0.14176,1.86078 0.2038,2.15743 0.0699,0.33418 0.0874,1.38575 0.0461,2.76423 -0.0713,2.38081 0.0812,5.07925 0.34896,6.17586 0.14599,0.59783 0.13927,0.68377 -0.11929,1.52433 -0.4315,1.40284 -0.96026,1.82533 -1.68215,1.34414 z m 16.74996,0.21322 c -0.20957,-0.0551 -0.5035,-0.16117 -0.65319,-0.23542 -0.14969,-0.0742 -0.51646,-0.1795 -0.81504,-0.23388 -0.63883,-0.1163 -0.84436,-0.71772 -1.52405,-0.89828 l -0.38249,-0.41596 v -1.27588 c 0,-0.70174 0.0467,-1.38389 0.10371,-1.51592 0.14938,-0.34574 0.38037,-2.52323 0.35171,-3.31549 -0.0134,-0.3708 -0.0203,-1.03826 -0.0149,-1.48324 0.0329,-2.83738 -0.0767,-8.4139 -0.21859,-11.12431 -0.0641,-1.22366 -0.12793,-3.13503 -0.14192,-4.24745 -0.0226,-1.79173 -6e-4,-2.08414 0.19225,-2.56169 0.25619,-0.63433 1.2757,-1.46318 2.09524,-1.7034 0.28463,-0.0835 0.84351,-0.26527 1.24199,-0.40414 1.33626,-0.46558 2.79098,-0.25475 3.69849,0.53599 0.4648,0.405 0.59689,0.61359 0.74307,1.17342 0.0977,0.37447 0.34083,0.96208 0.5401,1.3058 0.19931,0.34373 0.40209,0.88686 0.45067,1.2069 0.0939,0.61894 -0.0279,2.06296 -0.2727,3.23177 -0.0809,0.38611 -0.1244,0.77508 -0.0967,0.86433 0.0835,0.26965 -1.22861,3.53437 -1.70202,4.23471 l -0.44182,0.65365 0.24662,0.48759 c 0.13565,0.26816 0.34629,0.68336 0.46812,0.92266 0.1218,0.2393 0.45132,0.64629 0.73224,0.90442 1.1737,1.07845 1.88095,4.32743 1.52692,7.01429 -0.23053,1.74959 -1.0529,3.70422 -2.04231,4.85424 -0.28713,0.33372 -0.61344,0.71295 -0.72513,0.84274 -0.1117,0.12979 -0.25133,0.23598 -0.31032,0.23598 -0.0589,0 -0.34231,0.17915 -0.62964,0.39813 -0.35856,0.2733 -0.709,0.41641 -1.11746,0.45642 -0.32731,0.0321 -0.66856,0.0886 -0.75838,0.12534 -0.0898,0.0369 -0.33476,0.0219 -0.54432,-0.0334 z m 2.49825,-4.38718 c 1.11225,-0.24596 1.3071,-0.44116 1.70997,-1.71305 l 0.29606,-0.93466 -0.31552,-1.53063 c -0.34852,-1.69071 -0.36689,-1.7348 -0.95009,-2.27954 -0.22453,-0.20975 -0.40824,-0.46107 -0.40824,-0.55852 0,-0.0975 -0.0936,-0.21399 -0.20817,-0.25901 -0.1145,-0.0451 -0.38981,-0.26062 -0.61182,-0.47915 -0.49826,-0.49045 -0.99521,-0.66904 -1.86461,-0.66999 l -0.67062,-7.3e-4 -0.0696,1.17984 c -0.0383,0.64891 -0.14439,2.33274 -0.23594,3.74181 -0.0915,1.40908 -0.15041,2.8044 -0.13079,3.1007 0.0313,0.47317 0.0754,0.55031 0.36224,0.63352 0.44727,0.12977 1.98537,0.0152 3.09702,-0.23057 z m -2.09241,-11.63059 c 0.31302,-0.32232 0.65426,-0.76451 0.75829,-0.98265 0.10404,-0.21814 0.23089,-0.39661 0.2819,-0.39661 0.17203,0 1.26145,-1.39534 1.32174,-1.69291 0.0329,-0.16222 0.23604,-0.46151 0.4515,-0.66504 0.67169,-0.63459 0.80778,-1.04925 0.80825,-2.46258 0,-0.68602 -0.0425,-1.24728 -0.095,-1.24728 -0.0524,0 -0.19971,-0.30014 -0.32712,-0.66701 -0.28957,-0.83376 -0.4928,-1.01108 -1.64582,-1.43593 -0.50894,-0.18751 -1.05091,-0.40053 -1.2044,-0.47334 -0.19323,-0.0917 -0.47607,-0.0783 -0.91951,0.0434 l -0.64045,0.17599 -0.0478,2.35821 c -0.0264,1.29702 -0.0454,2.54023 -0.0424,2.76272 0.009,0.6238 0.22616,4.09381 0.30688,4.89005 0.0812,0.80064 -8.8e-4,0.81783 0.9941,-0.20721 z m 51.46747,15.9436 c -0.23949,-0.0976 -0.5917,-0.18213 -0.78267,-0.18785 -0.48323,-0.0145 -2.15524,-1.10969 -2.80981,-1.84065 -0.29937,-0.33428 -0.67673,-0.70776 -0.83858,-0.82992 -0.16184,-0.12213 -0.61371,-0.80231 -1.00415,-1.51146 -0.67066,-1.21816 -0.73482,-1.40472 -1.16236,-3.37937 -0.2489,-1.1495 -0.54581,-2.51475 -0.65982,-3.03389 -0.114,-0.51914 -0.23371,-1.4293 -0.26603,-2.0226 -0.0324,-0.59329 -0.12871,-1.48585 -0.21425,-1.98347 -0.12464,-0.72504 -0.13583,-1.35448 -0.0564,-3.16876 0.10924,-2.49367 0.30852,-3.6988 0.92476,-5.59211 0.2071,-0.63628 0.42886,-1.39757 0.49282,-1.69174 0.1991,-0.91587 1.07627,-2.18987 2.05667,-2.9871 1.39461,-1.13406 1.93446,-1.35742 3.28993,-1.3612 1.2553,-0.004 2.11037,0.20876 3.00645,0.74629 1.10748,0.66434 2.58315,3.33427 2.57213,4.65367 -0.007,0.83506 -0.26861,1.42806 -0.67934,1.53982 -0.28634,0.0778 -0.38913,0.01 -0.85153,-0.56186 -0.28924,-0.35773 -0.93961,-0.95318 -1.44529,-1.32321 -0.80601,-0.58985 -0.98607,-0.66933 -1.46018,-0.64449 -0.37502,0.0196 -0.65221,-0.0531 -0.90432,-0.23736 -0.27804,-0.20318 -0.56341,-0.26571 -1.21293,-0.26571 -0.83104,0 -0.85967,0.0111 -1.32768,0.52151 -0.53845,0.58708 -1.43807,2.57586 -1.56343,3.45629 -0.0422,0.29663 -0.12195,0.60709 -0.17713,0.68984 -0.0551,0.0827 -0.15091,0.6592 -0.2127,1.28097 -0.0618,0.62179 -0.20822,1.82099 -0.32538,2.66492 -0.3312,2.38591 -0.25579,4.03667 0.23773,5.2044 0.12613,0.2984 0.24394,0.86105 0.26185,1.25037 0.0404,0.88135 0.92877,4.04371 1.38805,4.94178 0.42787,0.8366 1.08012,1.34984 2.09035,1.64483 0.78785,0.23007 0.80094,0.22937 1.46112,-0.0764 0.47698,-0.22096 0.79525,-0.28712 1.12081,-0.23303 0.47897,0.0798 2.20558,-0.4449 2.65628,-0.80685 0.16187,-0.13001 0.30867,-0.14798 0.49436,-0.0606 0.47286,0.22266 0.51834,0.40555 0.35024,1.40875 -0.1776,1.05984 -0.38468,1.51769 -0.73585,1.62686 -0.18872,0.0586 -0.24828,0.17321 -0.24828,0.47761 0,0.22021 -0.0675,0.50104 -0.14987,0.62406 -0.23408,0.34936 -1.29467,0.89693 -1.95482,1.00924 -0.3293,0.056 -0.67223,0.13201 -0.76204,0.16886 -0.0898,0.0369 -0.35924,-0.0129 -0.59875,-0.11049 z m 11.26916,0.033 c -0.45108,-0.28269 -0.50036,-0.72591 -0.29197,-2.62627 0.10356,-0.94461 0.31505,-2.55465 0.46996,-3.57787 0.15492,-1.02322 0.26356,-1.8826 0.24145,-1.90973 -0.0223,-0.0271 -0.9122,0.004 -1.97795,0.0678 -1.99996,0.12089 -2.37399,0.067 -2.64942,-0.38198 -0.23919,-0.38994 -0.18168,-1.15623 0.11247,-1.4985 0.24505,-0.28517 0.40154,-0.31165 2.58391,-0.4373 1.27768,-0.0734 2.34442,-0.16023 2.37055,-0.19258 0.0716,-0.0886 0.96242,-5.79098 1.04885,-6.7133 l 0.0752,-0.80314 -1.50955,0.0862 c -0.83026,0.0474 -1.97495,0.20786 -2.54377,0.35671 -1.34791,0.35274 -1.58511,0.3457 -1.91007,-0.0567 -0.53256,-0.65967 -0.20804,-1.69057 0.61908,-1.96642 0.84516,-0.28189 2.22554,-0.53605 3.30496,-0.60851 0.59874,-0.0402 1.78353,-0.1173 1.53623,-0.13972 l 0.44759,-0.0666 0.0561,-1.10698 c 0.0366,-0.72276 0.17274,-1.53732 0.39204,-2.34696 0.42176,-1.55708 1.25409,-3.62601 1.53316,-3.811 0.61368,-0.40681 1.42352,0.11656 1.42352,0.92003 0,0.21918 -0.24003,0.99555 -0.53337,1.72535 -0.69165,1.72068 -0.88705,2.46121 -0.96049,3.64018 l -0.0601,0.96488 0.69532,0.0764 c 0.38244,0.042 2.01129,-0.1064 3.58831,0.15926 l 2.89296,0.083 0.14093,-0.98927 c 0.0775,-0.54411 0.33577,-1.77813 0.57387,-2.74222 0.36164,-1.46413 0.43754,-1.97507 0.46077,-3.10132 0.0337,-1.62952 0.0125,-1.49165 0.27791,-1.82036 0.30051,-0.3722 0.8892,-0.35322 1.25884,0.0406 0.25204,0.26853 0.29876,0.44102 0.34737,1.28262 0.0638,1.10374 -0.11005,2.659 -0.42252,3.78089 -0.11664,0.41879 -0.31064,1.24685 -0.43109,1.84016 -0.12045,0.59329 -0.24438,1.1849 -0.27541,1.3147 -0.052,0.21755 0.0779,0.23643 1.66551,0.24184 2.52394,0.009 2.9877,0.18086 3.14725,1.16905 0.0585,0.3617 0.0172,0.49754 -0.25221,0.83122 l -0.32203,0.39886 -2.15504,-0.0773 -2.15504,-0.0774 0.0856,1.80764 c 0.047,0.99421 0.664,2.93872 0.15098,3.89767 l 0.0654,2.09 0.38104,0.0438 c 0.71328,0.082 1.12622,0.89981 0.82209,1.62829 -0.18124,0.43411 -0.64509,0.68765 -1.25802,0.68765 -0.36953,0 -0.44189,0.0678 -0.86077,0.80756 -0.87416,1.54356 -1.73223,4.11567 -2.12709,6.3761 -0.15145,0.86693 -0.93558,1.19163 -1.51481,0.62727 -0.36616,-0.35673 -0.36983,-0.78002 -0.0211,-2.43627 0.30098,-1.42973 0.87915,-3.27488 1.42842,-4.55854 0.24279,-0.56739 0.33111,-0.90068 0.25427,-0.9595 -0.39876,-0.30525 -7.55545,-0.50758 -7.78749,-0.22015 -0.11795,0.14608 -0.55116,3.0552 -0.81716,5.48745 -0.2236,2.04447 -0.26745,2.25492 -0.54094,2.59567 -0.32287,0.40229 -0.65134,0.46264 -1.07457,0.1974 z m 11.21179,-11.25428 c -1.16582,-0.28879 -0.23569,-6.43064 -0.31179,-6.52836 -0.0385,-0.0493 -1.64384,-0.14039 -3.56754,-0.20226 l -3.4976,-0.11247 -0.0723,1.07594 c -0.0605,0.90072 -0.61222,4.59587 -0.8812,5.90204 l -0.0764,0.37081 2.21629,0.0124 c 1.21894,0.006 2.97559,0.0884 3.90366,0.18195 0.92806,0.0935 1.8221,0.17924 1.98675,0.1904 0.29857,0.0202 0.29938,0.0178 0.30006,-0.88987 z m -168.172259,10.9538 c -0.06015,-0.13926 -0.214065,-0.85157 -0.341988,-1.5829 -0.356861,-2.04014 -0.715592,-2.80514 -2.4903,-5.31043 -0.551612,-0.77872 -1.340202,-1.99227 -1.752431,-2.69682 -0.412223,-0.70452 -0.945616,-1.55403 -1.185303,-1.88775 l -0.435815,-0.60678 -0.003,0.84944 c -0.0022,0.52424 -0.07285,1.01466 -0.185065,1.28099 -0.124059,0.29445 -0.193318,0.85538 -0.218033,1.76585 -0.02712,0.99824 -0.13079,1.76241 -0.41172,3.03391 -0.206528,0.93476 -0.40748,1.98422 -0.446549,2.33212 l -0.07108,0.63254 -0.598817,0.0927 c -0.589722,0.0913 -2.055971,-0.0126 -2.384897,-0.16892 -0.138509,-0.0658 -0.155009,-0.22633 -0.09298,-0.90413 0.114558,-1.25156 0.555632,-3.22185 1.042832,-4.65833 0.919099,-2.70992 1.099562,-3.61545 1.185799,-5.95011 0.05356,-1.4498 0.12171,-2.08493 0.26045,-2.42713 0.129401,-0.31916 0.236917,-1.17944 0.345283,-2.7627 0.08654,-1.26458 0.237058,-2.62984 0.334467,-3.0339 0.09741,-0.40407 0.173503,-0.97738 0.169099,-1.27404 -0.0044,-0.29664 0.04005,-1.00337 0.09882,-1.5705 0.102507,-0.98943 0.09565,-1.05153 -0.169646,-1.53576 -0.152068,-0.27755 -0.276482,-0.64097 -0.276482,-0.8076 0,-0.25853 0.07586,-0.3166 0.517101,-0.39578 0.284403,-0.051 0.76856,-0.23836 1.075896,-0.41631 0.307337,-0.17794 0.723947,-0.31583 0.925793,-0.30644 0.201851,0.01 0.523573,-0.0832 0.714941,-0.20577 0.191375,-0.1225 0.537751,-0.22285 0.769733,-0.22285 0.23199,0 0.785538,-0.15614 1.230122,-0.34696 0.909641,-0.39047 1.761283,-0.39084 2.369853,-7.4e-4 0.18969,0.12139 0.741524,0.28251 1.226287,0.35781 0.484762,0.0754 0.998775,0.23215 1.142244,0.34861 0.394867,0.32044 1.004057,1.4202 1.233298,2.22641 0.112401,0.39531 0.282415,0.90664 0.377814,1.13633 0.248356,0.59787 0.391972,1.67629 0.39127,2.9381 -7.1e-4,1.2966 -0.135423,1.97456 -0.53835,2.70951 -0.163418,0.29808 -0.47453,1.0026 -0.691358,1.5656 -0.298617,0.7754 -0.498992,1.10952 -0.826232,1.37777 -0.237605,0.19474 -0.590543,0.64426 -0.784313,0.99894 -0.19376,0.35468 -0.568738,0.93592 -0.83328,1.2917 -0.449263,0.60417 -0.470622,0.66643 -0.323896,0.94387 0.0864,0.16338 0.393022,0.75213 0.681384,1.30834 0.288355,0.55621 0.895382,1.50039 1.348934,2.09817 0.453562,0.59777 0.96227,1.4249 1.13046,1.83804 0.168198,0.41315 0.425388,0.89032 0.571532,1.06035 0.146151,0.17007 0.265724,0.36184 0.265724,0.42617 0,0.0643 0.153222,0.52287 0.340496,1.01901 0.187268,0.49614 0.346481,1.07865 0.353802,1.29449 0.01168,0.34386 -0.05926,0.4393 -0.573533,0.77157 -0.323812,0.20922 -1.031322,0.91702 -1.578517,1.57915 -1.073967,1.29961 -1.224527,1.42855 -1.824423,1.56253 -0.218513,0.0488 -0.457203,0.17816 -0.53043,0.28742 -0.182148,0.27187 -0.403534,0.2493 -0.534797,-0.0545 z m -3.153758,-16.82193 0.391424,-0.0773 0.28308,-1.50305 c 0.402773,-2.13855 0.482102,-3.15976 0.253889,-3.26825 -0.185848,-0.0883 -0.443985,-1.04502 -0.560626,-2.07774 -0.03768,-0.33372 -0.125959,-0.70043 -0.196134,-0.8149 -0.191789,-0.3128 -1.019552,-0.80319 -1.355666,-0.80312 l -0.296025,6e-5 -0.02164,1.51689 c -0.0119,0.83428 -0.09915,1.91128 -0.193851,2.39335 -0.0947,0.48205 -0.236696,1.60644 -0.315523,2.49864 -0.07883,0.8922 -0.199709,1.75266 -0.268614,1.91212 -0.109201,0.25275 -0.09387,0.29848 0.119457,0.35643 0.262421,0.0712 1.517871,-0.006 2.160243,-0.13305 z m 3.543431,-2.10588 c 0.129327,-0.1808 0.269906,-0.68481 0.34787,-1.24727 0.07197,-0.51913 0.171174,-1.19472 0.22047,-1.50132 l 0.08963,-0.55742 -0.645555,-0.68984 c -0.355059,-0.37941 -0.739353,-0.68984 -0.853985,-0.68984 -0.301301,0 -0.26916,0.57999 0.0822,1.48325 0.237663,0.61095 0.297192,0.98513 0.337872,2.12372 0.02719,0.76015 0.08428,1.38211 0.126919,1.38211 0.04263,0 0.17521,-0.13653 0.294569,-0.30339 z m 107.079726,18.262 c -0.37637,-0.19928 -0.47897,-0.42908 -0.47897,-1.07267 0,-0.5897 0.37969,-1.02378 0.89547,-1.02378 0.53569,0 1.00657,0.65948 0.90779,1.27134 -0.12597,0.78002 -0.71562,1.14742 -1.32429,0.82511 z m 0.84693,-13.1817 c -0.62695,-0.2066 -0.70529,-0.64944 -0.75833,-4.28651 -0.0364,-2.49941 0.003,-3.89389 0.19136,-6.60169 0.13068,-1.8881 0.28392,-3.5402 0.34058,-3.67129 0.26581,-0.61523 1.01543,-0.68947 1.45568,-0.14421 0.28819,0.35698 0.29628,0.40573 0.22929,1.38212 -0.41309,6.02133 -0.49504,9.37982 -0.27911,11.43962 0.083,0.79189 0.0722,1.06412 -0.0544,1.36749 -0.1965,0.47068 -0.64103,0.67396 -1.12498,0.51447 z"
     id="path661"
     inkscape:connector-curvature="0"
     sodipodi:nodetypes="ccsccccsccscssccsscccccsccssscccccccccscsccsccccsccssscccccccscscsccscccsccccscccccccccccccssscscccccsscsccscccsccscssccscssccssccccsccsccccsccscscscccccccccscscccccssscccsccccssscscssccccscccccccscccsccccscccccssscccccccsccscscsscscsscscccccccccscccccssccsssscccscscccscccsscscscccccccsccccccccccccccccccccccscscccccccssccccssccccccccccssscccccccccccccsccsccccccsssccsccccccccccsccccscccccccccccscccsccccccccssccccscccccsccsccccccccccccsccccccccccccsccsccccccccscsscssssccsssscsccscscsccsccsccccsccccsscccsccccscccccscssscccsccccssccsccsccsscccccccccccccccccc" />
  <rect
     style="opacity:1;fill:none;fill-opacity:1;stroke:#000000;stroke-width:0.88586074;stroke-miterlimit:4;stroke-dasharray:none;stroke-opacity:1"
     id="rect1569"
     width="188.09052"
     height="93.602325"
     x="42.084026"
     y="86.793274" />
  <text
     xml:space="preserve"
     style="font-style:normal;font-weight:normal;font-size:13.33333302px;line-height:1.25;font-family:sans-serif;letter-spacing:0px;word-spacing:0px;fill:#000000;fill-opacity:1;stroke:none"
     x="96.382713"
     y="195.59163"
     id="text1573"><tspan
       sodipodi:role="line"
       id="tspan1571"
       x="96.382713"
       y="195.59163">50.00mm</tspan></text>
  <text
     xml:space="preserve"
     style="font-style:normal;font-weight:normal;font-size:13.33333302px;line-height:1.25;font-family:sans-serif;letter-spacing:0px;word-spacing:0px;fill:#000000;fill-opacity:1;stroke:none"
     x="-162.45679"
     y="37.325279"
     id="text1577"
     transform="rotate(-90)"><tspan
       sodipodi:role="line"
       id="tspan1575"
       x="-162.45679"
       y="37.325279">25.00mm</tspan></text>
</svg>
