<?xml version="1.0" encoding="UTF-8" standalone="no"?>
<svg
   xmlns:dc="http://purl.org/dc/elements/1.1/"
   xmlns:cc="http://creativecommons.org/ns#"
   xmlns:rdf="http://www.w3.org/1999/02/22-rdf-syntax-ns#"
   xmlns:svg="http://www.w3.org/2000/svg"
   xmlns="http://www.w3.org/2000/svg"
   viewBox="0 0 226.77165 226.77165"
   height="60mm"
   width="60mm"
   id="svg885"
   version="1.1">
  <metadata
     id="metadata891">
    <rdf:RDF>
      <cc:Work
         rdf:about="">
        <dc:format>image/svg+xml</dc:format>
        <dc:type
           rdf:resource="http://purl.org/dc/dcmitype/StillImage" />
        <dc:title></dc:title>
      </cc:Work>
    </rdf:RDF>
  </metadata>
  <defs
     id="defs889" />
  <path
     id="path895"
     d="m 150.71994,146.0502 c -1.76501,-0.62689 -3.32786,-2.16901 -4.02204,-3.96873 -0.48737,-1.26356 -0.55188,-3.11438 -0.15416,-4.42376 0.9862,-3.24682 4.08569,-5.2466 7.35271,-4.74391 2.93675,0.45186 5.21005,2.7584 5.67421,5.75716 0.43342,2.80004 -1.13297,5.80054 -3.6944,7.0769 -0.92355,0.46019 -1.10023,0.49548 -2.68307,0.53579 -1.3624,0.0347 -1.84704,-0.0111 -2.47325,-0.23345 z m 3.53488,-2.16808 c 0.90681,-0.30899 1.81468,-1.11713 2.28554,-2.03447 0.54902,-1.06964 0.64248,-2.91597 0.20614,-4.07219 -0.66001,-1.74891 -1.94496,-2.65322 -3.76643,-2.65069 -2.28015,0.003 -3.7562,1.39823 -4.14447,3.91711 -0.10343,0.67067 0.14702,2.10549 0.4861,2.78545 0.46125,0.92493 1.5507,1.84384 2.54446,2.14613 0.62364,0.1897 1.68271,0.1492 2.38866,-0.0914 z m -83.722038,1.3709 c -0.003,-1.08307 0.4334,-10.33182 0.5317,-11.27159 l 0.0809,-0.77354 1.1313,0.003 1.13129,0.003 1.84177,2.93698 c 1.01296,1.61535 1.90432,2.91905 1.98077,2.89713 0.0765,-0.022 0.94459,-1.32851 1.92918,-2.90352 l 1.79017,-2.86363 1.20181,-0.0428 1.20182,-0.0428 8e-5,0.63217 c 7e-5,0.7061 0.38928,9.08733 0.51027,10.98882 l 0.0778,1.2215 -1.21492,-0.0428 -1.21495,-0.0428 -0.16992,-3.38885 c -0.0934,-1.86387 -0.17927,-3.81982 -0.19073,-4.34656 -0.025,-1.1494 0.11823,-1.28865 -1.93196,1.87859 l -1.45447,2.24695 -0.63125,-0.003 -0.63126,-0.003 -1.60664,-2.42973 c -0.88363,-1.33636 -1.63177,-2.40459 -1.66251,-2.37385 -0.0308,0.0307 -0.11786,1.37422 -0.19359,2.98551 -0.0756,1.61128 -0.18,3.50975 -0.23172,4.21883 l -0.0939,1.28923 h -1.08941 -1.08943 l -0.002,-0.77352 z m 18.27551,0.7367 c 0.001,-0.0203 1.08694,-2.88789 2.41153,-6.3725 l 2.40836,-6.33566 h 1.30305 1.30306 l 2.40008,6.33425 c 1.32004,3.48384 2.400068,6.35147 2.400068,6.3725 0,0.0209 -0.61557,0.0383 -1.367928,0.0383 h -1.36791 l -0.52055,-1.58391 -0.52056,-1.58392 h -2.41137 -2.41137 l -0.52055,1.58392 -0.52056,1.58391 h -1.29426 c -0.71183,0 -1.29281,-0.0165 -1.29109,-0.0369 z m 7.62138,-5.45162 c -0.0379,-0.10121 -0.39127,-1.16215 -0.78549,-2.35745 -0.39424,-1.19532 -0.75336,-2.17328 -0.79806,-2.17328 -0.0447,0 -0.40383,0.97796 -0.79806,2.17328 -0.39422,1.1953 -0.74769,2.25616 -0.7855,2.35745 -0.0524,0.14048 0.3233,0.18418 1.58356,0.18418 1.26025,0 1.63597,-0.0437 1.58355,-0.18418 z m 9.761718,-0.93119 v -6.41964 l 3.20466,0.0471 3.20466,0.0471 0.80515,0.44203 c 1.45751,0.80017 2.17269,2.14612 2.02343,3.80801 -0.0999,1.11126 -0.62283,2.11664 -1.3916,2.67499 -0.33471,0.24312 -0.61263,0.48873 -0.6176,0.54581 -0.005,0.0571 0.62089,1.24389 1.39075,2.63736 0.76986,1.39346 1.39973,2.5568 1.39973,2.58519 0,0.0283 -0.6133,0.05 -1.3629,0.048 l -1.3629,-0.003 -1.26952,-2.46446 -1.26952,-2.46445 -1.19845,-0.0428 -1.19844,-0.0428 v 2.51075 2.51076 h -1.17873 -1.17872 z m 5.8988,-0.90022 c 1.01315,-0.59849 1.16122,-2.04263 0.298,-2.90658 -0.44869,-0.44907 -0.48031,-0.4565 -2.14737,-0.5053 l -1.69198,-0.0495 v 1.85444 1.85445 h 1.56119 c 1.19746,0 1.65879,-0.0577 1.98016,-0.24751 z m 9.71934,0.90022 v -6.41964 l 3.20467,0.0471 c 3.15905,0.0464 3.21547,0.0528 3.96331,0.44725 0.92416,0.48742 1.59015,1.26502 1.91114,2.23146 0.49329,1.48516 -0.10928,3.50281 -1.29682,4.34224 -0.30595,0.21628 -0.5577,0.44809 -0.55944,0.51512 -0.001,0.067 0.62675,1.25253 1.3966,2.63444 0.76986,1.38191 1.39974,2.53709 1.39974,2.56708 0,0.03 -0.61331,0.0535 -1.3629,0.0523 l -1.36291,-0.002 -1.29816,-2.50259 -1.29817,-2.50258 h -1.16978 -1.16981 v 2.50481 2.5048 h -1.17874 -1.17873 v -6.41964 z m 6.13134,-1.13664 c 0.41913,-0.3841 0.54151,-0.61964 0.5933,-1.1419 0.0789,-0.79616 -0.14545,-1.26848 -0.8181,-1.72176 -0.43917,-0.29597 -0.68004,-0.33595 -2.02378,-0.33595 H 124.167 v 1.84176 1.84176 h 1.62291 1.62292 z m 10.07619,1.14695 v -6.40933 h 1.17872 1.17874 v 6.40933 6.40933 h -1.17874 -1.17872 z m 29.17351,1.109 v -5.30035 l -2.17329,-0.0408 -2.17321,-0.0408 -0.0433,-1.06823 -0.0433,-1.06821 h 5.60542 5.60541 v 1.10506 1.10505 h -2.13647 -2.13644 v 5.30428 5.30427 h -1.25241 -1.2524 z m 15.20938,-0.003 0.0402,-5.30434 -2.1733,6e-5 -2.17331,6e-5 v -1.10504 -1.10507 h 5.60541 5.60542 l -0.0433,1.06823 -0.0433,1.06822 -2.17329,0.0408 -2.17323,0.0408 v 5.30034 5.30033 h -1.25606 -1.25598 l 0.0402,-5.30434 z M 49.884282,126.86223 c -1.71762,-0.21294 -3.76601,-0.77959 -5.56868,-1.54048 -0.8953,-0.3779 -1.6599,-0.73903 -1.69913,-0.80252 -0.0393,-0.0635 1.91073,-4.15156 4.33325,-9.08458 l 4.40459,-8.96917 2.99675,-0.0874 c 5.28455,-0.15389 8.0592,-1.04964 11.66527,-3.76599 4.43977,-3.344319 8.91498,-8.586189 12.73742,-14.919469 1.42404,-2.35947 5.04179,-9.46694 5.04179,-9.90519 0,-0.22096 -1.66473,-3.98345 -11.62594,-26.27617 -1.62845,-3.64441 -2.96058,-6.69438 -2.96026,-6.77769 5.5e-4,-0.11356 16.56271,-7.44373 18.013,-7.97224 0.20183,-0.0735 0.32085,0.0474 0.53944,0.54802 0.15425,0.35332 1.10916,2.53205 2.12202,4.84162 10.393578,23.69998 18.370208,41.89555 19.199748,43.79671 0.55679,1.2761 1.05111,2.32038 1.09849,2.32062 0.10028,5.6e-4 5.88119,-13.01392 5.88119,-13.24009 0,-0.0836 -2.81789,-6.52244 -6.262,-14.30881 -3.44409,-7.78637 -6.26198,-14.21262 -6.26198,-14.28055 0,-0.1986 17.98623,-8.4635 18.10924,-8.32141 0.0614,0.0709 1.27694,2.78112 2.7012,6.02262 2.17607,4.95259 10.78182,24.49178 18.23527,41.40286 1.03579,2.35008 4.84818,11.00269 8.47198,19.228009 3.62382,8.22531 6.65035,15.07158 6.72564,15.21392 0.13008,0.24589 -0.40465,0.25692 -10.72427,0.22102 l -10.86118,-0.0379 -7.9971,-17.97561 c -4.39842,-9.886589 -8.23551,-18.506049 -8.5269,-19.154339 l -0.52979,-1.17873 -2.93979,6.61169 c -1.61689,3.63643 -2.93981,6.68051 -2.93981,6.76461 0,0.0841 2.39593,5.529389 5.3243,12.100629 2.92834,6.57124 5.4156,12.16319 5.52725,12.42656 l 0.203,0.47885 H 113.5036 102.68891 l -7.374738,-16.61271 c -4.05613,-9.136949 -7.61637,-17.142089 -7.91167,-17.789169 l -0.53689,-1.17649 -0.80893,1.98688 c -0.44491,1.09277 -1.69193,3.97596 -2.77115,6.40708 -1.07922,2.43113 -2.37274,5.38163 -2.8745,6.55669 -4.78491,11.205519 -10.72871,19.893499 -15.96022,23.328829 -3.17112,2.08235 -5.36613,3.05545 -8.19055,3.63102 -1.75962,0.35859 -4.72662,0.49272 -6.37598,0.28825 z"
     style="fill:#000000;stroke-width:0.14734109" />
  <rect
     y="16.822001"
     x="41.077904"
     height="150.42363"
     width="150.42365"
     id="rect897"
     style="opacity:1;fill:none;fill-opacity:1;stroke:#000000;stroke-width:0.75747085;stroke-miterlimit:4;stroke-dasharray:none;stroke-opacity:1" />
  <text
     id="text901"
     y="184.41583"
     x="87.657677"
     style="font-style:normal;font-weight:normal;font-size:13.33333302px;line-height:1.25;font-family:sans-serif;letter-spacing:0px;word-spacing:0px;fill:#000000;fill-opacity:1;stroke:none"
     xml:space="preserve"><tspan
       y="184.41583"
       x="87.657677"
       id="tspan899">40.00mm</tspan></text>
</svg>
