<?xml version="1.0" encoding="UTF-8" standalone="no"?>
<svg
   xmlns:dc="http://purl.org/dc/elements/1.1/"
   xmlns:cc="http://creativecommons.org/ns#"
   xmlns:rdf="http://www.w3.org/1999/02/22-rdf-syntax-ns#"
   xmlns:svg="http://www.w3.org/2000/svg"
   xmlns="http://www.w3.org/2000/svg"
   viewBox="0 0 226.77165 226.77165"
   height="60mm"
   width="60mm"
   id="svg937"
   version="1.1">
  <metadata
     id="metadata943">
    <rdf:RDF>
      <cc:Work
         rdf:about="">
        <dc:format>image/svg+xml</dc:format>
        <dc:type
           rdf:resource="http://purl.org/dc/dcmitype/StillImage" />
        <dc:title></dc:title>
      </cc:Work>
    </rdf:RDF>
  </metadata>
  <defs
     id="defs941" />
  <path
     id="path1490"
     d="m 111.22816,154.49063 c -0.3861,-0.0444 -1.55957,-0.17913 -2.60764,-0.29902 -12.359087,-1.41355 -24.477426,-7.24828 -33.290025,-16.02848 -8.105419,-8.07551 -13.196748,-18.15756 -14.993241,-29.69007 -0.330324,-2.12052 -0.35935,-4.21756 -0.35935,-25.976137 0,-25.915224 -0.03922,-24.929587 1.213808,-30.516303 1.664212,-7.420307 5.348442,-15.028505 10.240634,-21.147678 1.658036,-2.073892 6.035303,-6.461387 8.193312,-8.212571 6.798934,-5.51704 15.653344,-9.643971 24.509462,-11.423522 6.12925,-1.2316488 14.10442,-1.3885721 20.52431,-0.403788 9.44781,1.449197 18.98808,5.649827 26.68635,11.750177 2.14896,1.702854 6.51848,6.068168 8.30766,8.299609 4.75306,5.928018 8.0866,12.616025 9.9429,19.948098 1.567,6.189172 1.50737,4.939877 1.50737,31.605658 0,21.831517 -0.0292,23.957777 -0.35848,26.076457 -2.24823,14.46739 -9.67907,26.62395 -21.5827,35.30824 -7.51582,5.48323 -16.47462,9.07049 -25.79879,10.33047 -2.26956,0.30667 -10.52845,0.56451 -12.13558,0.37886 z m 11.23296,-14.50142 c 7.40717,-1.29453 14.57811,-4.68614 20.09851,-9.50587 l 0.74179,-0.64764 -2.43037,-5.66662 c -1.33669,-3.11664 -2.48688,-5.66661 -2.55599,-5.66661 -0.069,0 -1.0574,1.04214 -2.19623,2.31584 -2.36437,2.64451 -6.62022,6.58131 -9.78918,9.05532 -2.21078,1.72592 -6.95451,4.99142 -9.27206,6.38261 l -1.29142,0.77526 -1.01535,-0.5662 c -1.85454,-1.03413 -5.59516,-3.54202 -8.23686,-5.52232 -4.50645,-3.37824 -8.640639,-7.17839 -11.934699,-10.97054 l -1.77236,-2.04023 -2.445727,5.69887 c -1.345213,3.13441 -2.395081,5.83102 -2.333128,5.99251 0.156923,0.40898 3.715514,3.21172 5.648668,4.4489 2.167155,1.38689 6.025188,3.29983 8.225596,4.07846 2.36632,0.83733 5.96954,1.71057 8.22261,1.99279 0.99289,0.12429 2.07609,0.26355 2.40707,0.30905 1.52324,0.20981 7.73508,-0.0803 9.92913,-0.46358 z m -8.10235,-7.36171 c -0.0672,-0.17439 -0.122,-6.12503 -0.122,-13.22344 v -12.90615 l -2.72793,-1.56991 -2.72796,-1.56992 -1.04886,-2.46296 c -0.57686,-1.35464 -1.1467,-2.560824 -1.26632,-2.680423 -0.36119,-0.36119 -0.65699,-0.0018 -1.49602,1.807973 -3.19536,6.89954 -4.57349,12.80033 -4.57349,19.58245 v 2.46425 l 1.71507,1.62346 c 0.94329,0.89292 2.87544,2.53949 4.29363,3.65897 2.57758,2.03477 7.57905,5.5688 7.90349,5.58463 0.0945,0.006 0.11727,-0.13473 0.0501,-0.30893 z m 5.68425,-1.58772 c 3.19616,-2.21432 7.30371,-5.46551 9.40337,-7.44287 l 1.46916,-1.38358 0.11026,-2.20647 c 0.30486,-6.10266 -1.43135,-14.16099 -4.30627,-19.98616 l -1.14932,-2.328765 -0.60174,0.258592 c -0.49072,0.210925 -0.87939,0.795659 -2.10618,3.168903 l -1.50441,2.91027 -1.9675,1.05476 c -1.08213,0.58014 -2.10166,1.15289 -2.26565,1.27281 -0.26123,0.19092 -0.2807,1.85686 -0.15674,13.40278 0.0778,7.25161 0.18274,13.18473 0.23331,13.18473 0.0505,0 1.32924,-0.85726 2.84161,-1.90501 z m 26.13351,-4.16275 c 5.65169,-6.39302 9.21629,-14.35213 10.17462,-22.71807 0.11369,-0.99213 0.20739,-4.805137 0.20826,-8.473384 l 10e-4,-6.669544 h -5.37701 -5.37701 l 0.45055,1.787029 c 1.9393,7.692427 0.23564,15.572309 -5.09996,23.587349 -0.88128,1.32385 -1.53664,2.4973 -1.45626,2.60764 0.0801,0.11044 1.2142,2.70544 2.51964,5.76689 1.30548,3.06148 2.44026,5.56636 2.52174,5.56636 0.0816,0 0.72667,-0.65444 1.4338,-1.45427 z m -57.140266,-4.70119 2.504586,-5.84527 -1.306675,-1.973 c -5.23639,-7.90683 -6.988883,-16.04982 -5.072845,-23.570658 0.215538,-0.846322 0.446748,-1.681242 0.513578,-1.855413 0.109104,-0.2836 -0.444717,-0.316674 -5.315847,-0.316674 h -5.437363 l 0.0018,7.271354 c 0.0018,7.580951 0.153887,9.576461 0.982658,13.065961 1.568361,6.60358 4.942439,13.0744 9.351243,17.93361 0.62995,0.69429 1.173963,1.2338 1.208878,1.19887 0.03492,-0.035 1.190596,-2.69391 2.568067,-5.90878 z m 47.973216,-6.72008 c 1.74202,-2.25229 3.11814,-4.41778 4.29557,-6.75956 l 0.83335,-1.65748 -0.3219,-1.13827 c -1.11725,-3.95104 -2.8094,-7.243749 -5.76055,-11.209449 -1.33651,-1.795984 -4.27243,-5.073234 -4.54478,-5.073234 -0.0746,0 -0.29584,0.62314 -0.49204,1.384721 -0.39187,1.521283 -1.39296,3.343452 -2.43502,4.432352 l -0.67187,0.702036 1.16378,2.376051 c 0.64007,1.30677 1.57697,3.608533 2.08201,5.114953 1.68989,5.04066 2.30933,8.20396 2.47853,12.65785 l 0.11761,3.09881 0.87599,-0.99268 c 0.4818,-0.54595 1.55244,-1.8672 2.37918,-2.9361 z m -39.232287,1.09786 c 0.01708,-1.68988 0.586974,-5.38382 1.240259,-8.06183 0.81312,-3.33306 1.766428,-5.99113 3.309008,-9.226314 l 1.28187,-2.688493 -1.0629,-1.122693 c -1.43785,-1.518723 -1.99213,-2.515384 -2.679678,-4.818228 -0.18045,-0.604488 -3.493278,3.112791 -5.796178,6.503777 -1.606291,2.365291 -3.473584,6.155281 -4.170517,8.464801 l -0.496367,1.64487 0.551205,1.16548 c 1.238195,2.61814 3.437853,5.88816 6.107219,9.07899 l 1.421739,1.69952 0.141364,-0.79684 c 0.07761,-0.43826 0.146108,-1.26762 0.152939,-1.84304 z m 19.783917,-13.56331 c 1.81514,-0.96703 1.82158,-0.97327 2.5575,-2.46049 0.40578,-0.820046 0.73779,-1.522196 0.73779,-1.560317 0,-0.03814 -0.58892,-0.1296 -1.30878,-0.203393 -0.71978,-0.07382 -1.91707,-0.353561 -2.66064,-0.621773 l -1.35187,-0.48762 -1.30098,0.470125 c -0.71553,0.25863 -1.84843,0.5328 -2.51753,0.60942 -1.79813,0.20605 -1.84741,0.267909 -1.27243,1.599238 0.4695,1.08711 0.56041,1.16851 2.69098,2.40843 1.21279,0.70584 2.29533,1.26816 2.40565,1.24959 0.11044,-0.0171 1.01947,-0.47002 2.02031,-1.00325 z M 89.56005,99.650042 c 1.83253,-3.612936 4.867087,-7.668559 7.9173,-10.581316 1.274512,-1.217095 2.317302,-2.323357 2.317302,-2.458306 0,-0.134913 -0.4484,-0.915866 -0.99651,-1.735303 -1.464698,-2.189942 -2.066832,-4.206833 -2.087344,-6.991757 -0.02296,-3.343756 0.916815,-5.989991 3.008564,-8.456685 0.482718,-0.569211 0.877618,-1.098292 0.877618,-1.175672 0,-0.07723 -1.286248,-0.100568 -2.858362,-0.05104 -3.04843,0.09564 -4.25431,0.417204 -5.33467,1.422765 -1.670238,1.554622 -1.48859,4.323417 0.553443,8.435186 l 0.983171,1.979719 -1.277663,1.693974 c -3.666635,4.861396 -5.505303,9.925483 -5.505303,15.162811 0,2.067782 0.42078,5.507172 0.736202,6.017542 0.06717,0.10872 0.321209,-0.28797 0.564355,-0.88151 0.243202,-0.59364 0.73898,-1.6648 1.101897,-2.380291 z m 54.69311,-1.707864 c 0.25542,-5.576792 -1.44061,-10.701049 -5.25878,-15.888568 l -1.50374,-2.043076 0.88657,-1.765624 c 3.46621,-6.903202 1.80495,-10.221493 -5.02987,-10.046847 l -2.23478,0.0573 1.01061,1.203528 c 1.97092,2.347189 2.97498,5.156666 2.97498,8.324429 0,2.942018 -0.84056,5.543168 -2.48237,7.681783 l -0.73858,0.96209 2.39079,2.347588 c 3.30875,3.248881 6.58659,7.81605 8.15515,11.362899 0.26795,0.60562 0.63792,1.44261 0.82244,1.85998 l 0.33542,0.75887 0.27631,-1.10324 c 0.15218,-0.60681 0.33015,-2.276682 0.39579,-3.71087 z m -32.13196,-2.342864 1.48633,-0.437278 0.10911,-0.916683 c 0.12713,-1.07258 0.18406,-2.419634 0.14611,-3.462786 l -0.0262,-0.740822 -2.8976,-1.524831 -2.89759,-1.524851 -0.10323,-0.843477 c -0.0567,-0.4639 -0.15635,-2.242541 -0.22112,-3.952568 -0.13775,-3.644643 -0.0799,-3.544284 -2.35219,-4.079949 l -1.51628,-0.357451 0.28736,-1.231857 c 0.15806,-0.67754 0.32535,-1.269845 0.37174,-1.316201 0.0465,-0.04649 0.92325,0.121822 1.94862,0.37339 1.58839,0.390069 2.02004,0.590237 2.91727,1.352842 l 1.05313,0.895013 v 2.553883 c 0,1.404606 0.0558,3.087291 0.12372,3.73929 l 0.12391,1.185464 2.28793,1.191212 2.28795,1.191232 2.21818,-1.093567 c 1.21997,-0.60147 2.2986,-1.190244 2.39696,-1.308365 0.0982,-0.1184 0.24058,-1.861257 0.31619,-3.873576 l 0.13758,-3.65876 0.99622,-0.871484 c 0.8613,-0.753458 1.2441,-0.928541 2.82659,-1.292975 1.00672,-0.231856 1.88635,-0.420847 1.95476,-0.420088 0.0683,6.27e-4 0.23333,0.555816 0.36673,1.233489 0.28389,1.443068 0.29612,1.428249 -1.45481,1.77274 -2.12142,0.417317 -2.1454,0.454299 -2.1454,3.30647 0,1.349712 -0.059,3.150932 -0.13111,4.002701 l -0.13112,1.548645 -2.76167,1.383487 c -1.5189,0.760917 -2.83655,1.49929 -2.92807,1.640882 -0.20958,0.324168 -0.12258,4.59364 0.0977,4.8143 0.26763,0.267604 3.68927,1.154629 4.46389,1.157323 1.63894,0.0056 4.22661,-1.322387 5.35668,-2.749231 1.54647,-1.952546 2.11169,-4.006307 1.66974,-6.066992 l -0.22898,-1.067818 1.17238,-1.224798 c 2.13913,-2.234839 2.93168,-4.159207 2.94157,-7.142192 0.006,-1.479519 -0.0968,-2.203927 -0.45494,-3.240058 -2.16439,-6.262851 -9.50553,-8.886639 -15.11658,-5.40279 l -0.93482,0.580445 -0.77016,-0.524356 c -3.78183,-2.574774 -9.40069,-1.967214 -12.71522,1.374891 -1.35571,1.367017 -2.01856,2.467187 -2.575218,4.274329 -1.02109,3.315066 -0.24989,6.806087 2.140628,9.691122 l 0.96915,1.169639 -0.27516,0.90264 c -0.40661,1.334057 -0.22897,3.481932 0.40207,4.86022 1.2121,2.647544 3.93027,4.51626 6.62413,4.554019 0.52637,0.0076 1.62586,-0.183488 2.44334,-0.423864 z m 44.38265,-21.87814 c -0.0687,-11.788941 -0.12694,-13.926931 -0.41709,-15.395141 -0.4716,-2.385557 -1.05194,-4.610053 -1.75307,-6.719694 -0.60248,-1.812872 -3.2769,-7.430251 -3.93947,-8.274543 -0.34971,-0.445629 -0.4202,-0.29787 -5.31126,11.132635 -2.72624,6.37133 -5.01461,11.7423 -5.08528,11.935446 -0.0933,0.254551 0.14536,0.59758 0.86876,1.247759 2.47089,2.221536 2.6615,5.719958 0.57414,10.536781 l -0.70029,1.61595 1.07934,1.504395 c 0.59365,0.827424 1.60337,2.539481 2.24379,3.804564 l 1.16444,2.300207 5.67802,7.02e-4 5.67801,6.45e-4 -0.0797,-13.690104 z m -69.202101,11.42967 c 0.465448,-0.91137 1.423742,-2.503905 2.129612,-3.53901 L 90.714698,79.72978 90.04674,78.284112 c -2.083228,-4.508935 -1.965659,-8.236878 0.330088,-10.463974 0.435705,-0.422649 0.792245,-0.843193 0.792339,-0.934538 9.6e-5,-0.09127 -2.134421,-5.146153 -4.743304,-11.232918 C 83.816914,49.5659 81.55255,44.276846 81.393919,43.899186 l -0.288514,-0.686706 -0.813857,1.388744 c -2.427377,4.142091 -4.299716,9.605032 -5.056572,14.753577 -0.258308,1.757161 -0.313392,4.357515 -0.313392,14.793387 v 12.661431 l 5.766941,-6.64e-4 5.766882,-7.21e-4 0.846248,-1.656974 z M 117.81911,65.667329 c 2.54902,-0.912281 6.02385,-1.006681 8.24256,-0.224038 l 0.87447,0.308572 -0.13054,-2.559577 c -0.0719,-1.407736 -0.13112,-3.020574 -0.13131,-3.584075 l -7e-4,-1.024498 -1.15654,-0.120681 c -1.6548,-0.172862 -3.55981,-0.811049 -5.034,-1.6861 -1.52621,-0.905999 -2.83591,-1.992963 -2.83591,-2.353734 0,-0.143452 0.40618,-0.593918 0.90264,-1.000704 l 0.90266,-0.739647 0.85251,0.692152 c 1.91287,1.55299 4.69628,2.538192 7.17102,2.538192 3.92147,0 7.71312,-2.202523 9.28184,-5.391652 0.60507,-1.230037 0.64721,-1.453486 0.64659,-3.425179 -6e-4,-1.941882 -0.0482,-2.204535 -0.60175,-3.308861 -0.84591,-1.688074 -2.54732,-3.326755 -4.3476,-4.18729 -1.38194,-0.660538 -3.84331,-1.33195 -4.06614,-1.109107 -0.0556,0.05559 0.0668,0.547011 0.27169,1.09203 0.20517,0.545057 0.43386,1.275727 0.50845,1.623767 0.13415,0.626402 0.12504,0.63498 -0.88898,0.852509 -0.5635,0.120865 -1.05516,0.219711 -1.09264,0.219711 -0.0375,0 -0.12409,-0.293372 -0.19248,-0.651886 -0.27954,-1.463808 -2.36765,-4.964581 -2.96139,-4.964581 -0.1208,0 -0.5671,-0.313638 -0.99143,-0.697028 -0.97739,-0.883003 -3.1659,-1.990421 -4.73933,-2.3981 -1.54727,-0.400942 -4.43977,-0.40449 -5.96464,-0.0056 -2.71431,0.70697 -4.9838,2.224648 -6.65125,4.447891 -0.88103,1.174705 -1.8804,3.33907 -1.8804,4.072492 0,0.463256 -0.14231,0.477885 -1.66857,0.171345 -1.08224,-0.217303 -1.12814,-0.251324 -1.01104,-0.752189 0.12048,-0.515949 0.67761,-2.162714 0.98531,-2.913308 0.14478,-0.353068 0.086,-0.373219 -0.7513,-0.258345 -1.2967,0.177985 -2.942115,0.834616 -4.317328,1.723424 -2.782703,1.798565 -4.283265,4.966764 -3.853253,8.135533 0.583082,4.29689 5.032266,7.732067 10.014391,7.732067 2.5757,0 4.82069,-0.779057 7.00168,-2.429806 l 1.04279,-0.789266 0.89217,0.731051 c 0.49073,0.402099 0.8922,0.854293 0.8922,1.004858 0,0.412631 -2.12328,2.009947 -3.71088,2.79166 -1.39859,0.688698 -3.39198,1.299181 -4.24213,1.299181 -0.5391,0 -0.59906,0.350335 -0.78593,4.592558 -0.12144,2.758187 -0.11062,2.880575 0.24406,2.730807 3.09786,-1.308858 7.33298,-1.23552 10.40065,0.180072 0.55163,0.25455 1.09319,0.395894 1.20353,0.314112 0.11043,-0.08197 0.86475,-0.386406 1.67655,-0.676952 z m -23.671816,0.130737 c 0.877271,-0.271399 1.826611,-0.349101 4.191787,-0.342422 l 3.057679,0.0076 0.0937,-0.610427 c 0.0512,-0.335687 0.14971,-1.877026 0.21815,-3.425158 l 0.12467,-2.814829 -1.27717,-0.218838 c -3.778556,-0.647257 -7.463996,-3.329317 -9.063512,-6.595977 -2.715722,-5.546204 -0.343221,-11.942374 5.493699,-14.810711 2.005205,-0.98541 4.174963,-1.529309 6.100623,-1.529309 0.87204,0 1.13326,-0.08843 1.5369,-0.520239 1.52658,-1.633158 4.25421,-3.223606 6.7448,-3.932759 2.02419,-0.576422 5.71007,-0.618148 7.68235,-0.08729 2.72448,0.733611 6.34182,2.981446 6.81941,4.237649 0.15047,0.396009 0.35568,0.45299 2.03973,0.566461 3.84681,0.259198 6.78923,1.507108 9.11893,3.867276 4.39376,4.451213 4.35655,10.824367 -0.0894,15.270115 -1.69441,1.694354 -4.38836,3.076512 -6.91006,3.545214 l -0.75557,0.140415 0.11038,1.946038 c 0.29027,5.11401 0.31344,5.292489 0.66763,5.155926 0.18235,-0.07002 1.23451,-0.178555 2.33771,-0.239995 1.75987,-0.09829 3.3701,0.04117 5.32102,0.46094 0.49714,0.106835 0.60845,-0.128461 5.76691,-12.201591 2.893,-6.770888 5.26001,-12.428741 5.26001,-12.573027 0,-0.686743 -4.00228,-5.098394 -6.56875,-7.240596 -4.94818,-4.130194 -9.77753,-6.67032 -15.8416,-8.332284 -3.59495,-0.985278 -6.52165,-1.349693 -10.78697,-1.343164 -4.15714,0.0056 -6.52338,0.312802 -10.50678,1.360735 -6.454578,1.698034 -12.383225,5.028679 -17.393803,9.771652 -1.592353,1.507298 -4.279214,4.542578 -5.014476,5.664702 -0.311284,0.475078 -0.162046,0.861352 4.950076,12.831675 2.899077,6.788062 5.308485,12.341893 5.354234,12.341893 0.04573,0 0.593499,-0.158062 1.217227,-0.351038 z"
     style="fill:#000000;stroke-width:0.20058808" />
  <circle
     r="75.145653"
     cy="82.073036"
     cx="115.69525"
     id="path1492"
     style="opacity:1;fill:none;fill-opacity:1;stroke:#000000;stroke-width:0.88979429;stroke-miterlimit:4;stroke-dasharray:none;stroke-opacity:1" />
  <text
     id="text1496"
     y="174.91611"
     x="86.635498"
     style="font-style:normal;font-weight:normal;font-size:13.33333302px;line-height:1.25;font-family:sans-serif;letter-spacing:0px;word-spacing:0px;fill:#000000;fill-opacity:1;stroke:none"
     xml:space="preserve"><tspan
       y="174.91611"
       x="86.635498"
       id="tspan1494">40.00mm</tspan></text>
</svg>
