<?xml version="1.0" encoding="UTF-8" standalone="no"?>
<!-- Created with Inkscape (http://www.inkscape.org/) -->

<svg
   xmlns:dc="http://purl.org/dc/elements/1.1/"
   xmlns:cc="http://creativecommons.org/ns#"
   xmlns:rdf="http://www.w3.org/1999/02/22-rdf-syntax-ns#"
   xmlns:svg="http://www.w3.org/2000/svg"
   xmlns="http://www.w3.org/2000/svg"
   xmlns:sodipodi="http://sodipodi.sourceforge.net/DTD/sodipodi-0.dtd"
   xmlns:inkscape="http://www.inkscape.org/namespaces/inkscape"
   version="1.1"
   id="svg311"
   width="40mm"
   height="60mm"
   viewBox="0 0 151.18111 226.77166"
   sodipodi:docname="25x50mm.svg"
   inkscape:version="0.92.2 5c3e80d, 2017-08-06">
  <metadata
     id="metadata317">
    <rdf:RDF>
      <cc:Work
         rdf:about="">
        <dc:format>image/svg+xml</dc:format>
        <dc:type
           rdf:resource="http://purl.org/dc/dcmitype/StillImage" />
        <dc:title></dc:title>
      </cc:Work>
    </rdf:RDF>
  </metadata>
  <defs
     id="defs315" />
  <sodipodi:namedview
     pagecolor="#ffffff"
     bordercolor="#666666"
     borderopacity="1"
     objecttolerance="10"
     gridtolerance="10"
     guidetolerance="10"
     inkscape:pageopacity="0"
     inkscape:pageshadow="2"
     inkscape:window-width="988"
     inkscape:window-height="740"
     id="namedview313"
     showgrid="false"
     inkscape:zoom="1.7838376"
     inkscape:cx="-10.72972"
     inkscape:cy="82.736928"
     inkscape:window-x="0"
     inkscape:window-y="0"
     inkscape:window-maximized="0"
     inkscape:current-layer="svg311"
     units="mm" />
  <path
     style="fill:#000000;stroke-width:0.2070737"
     d="m 37.045705,199.16029 c 0.0812,-0.13169 29.826828,-79.01872 30.412341,-80.65521 l 0.203744,-0.56945 H 78.167995 88.674204 L 103.3402,157.3314 c 8.0663,21.66766 14.88331,39.97816 15.1489,40.68999 l 0.48289,1.29421 H 77.960959 c -22.556071,0 -40.967934,-0.0699 -40.915254,-0.15531 z m 56.252708,-16.44766 c 0,-0.21908 -14.619433,-42.28632 -15.199889,-43.73747 -0.235798,-0.58953 -2.580148,5.8085 -16.020791,43.72276 -0.07288,0.2056 3.128595,0.25884 15.564459,0.25884 11.883672,0 15.656221,-0.0589 15.656221,-0.24413 z M 42.565354,58.194865 V 17.504881 h 11.042445 11.042447 l 14.971791,24.279391 c 8.23449,13.353663 15.099651,24.415833 15.255916,24.582601 0.240887,0.25708 0.284121,-3.437569 0.284121,-24.279385 V 17.504881 h 9.007706 9.0077 v 40.692046 40.692059 l -9.57343,-0.05392 -9.573435,-0.05392 -16.673156,-26.606123 -16.673155,-26.606169 -0.05257,26.657943 -0.05257,26.657944 h -9.006899 -9.006924 z"
     id="path321"
     inkscape:connector-curvature="0" />
  <rect
     style="fill:none;fill-opacity:1;stroke:#000000;stroke-width:1.27224088;stroke-miterlimit:4;stroke-dasharray:none;stroke-opacity:1"
     id="rect323"
     width="93.21595"
     height="189.38533"
     x="29.888006"
     y="13.626849" />
  <text
     xml:space="preserve"
     style="font-style:normal;font-weight:normal;font-size:13.33333302px;line-height:1.25;font-family:sans-serif;letter-spacing:0px;word-spacing:0px;fill:#000000;fill-opacity:1;stroke:none"
     x="43.346573"
     y="217.53041"
     id="text1151"><tspan
       sodipodi:role="line"
       id="tspan1149"
       x="43.346573"
       y="217.53041">25.00mm</tspan></text>
  <text
     xml:space="preserve"
     style="font-style:normal;font-weight:normal;font-size:13.33333302px;line-height:1.25;font-family:sans-serif;letter-spacing:0px;word-spacing:0px;fill:#000000;fill-opacity:1;stroke:none"
     x="-133.24368"
     y="24.463371"
     id="text1155"
     transform="rotate(-90)"><tspan
       sodipodi:role="line"
       id="tspan1153"
       x="-133.24368"
       y="24.463371">50.00mm</tspan></text>
</svg>
