<?xml version="1.0" encoding="UTF-8" standalone="no"?>
<svg
   xmlns:dc="http://purl.org/dc/elements/1.1/"
   xmlns:cc="http://creativecommons.org/ns#"
   xmlns:rdf="http://www.w3.org/1999/02/22-rdf-syntax-ns#"
   xmlns:svg="http://www.w3.org/2000/svg"
   xmlns="http://www.w3.org/2000/svg"
   viewBox="0 0 264.56693 264.56693"
   height="70mm"
   width="70mm"
   id="svg106"
   version="1.1">
  <metadata
     id="metadata112">
    <rdf:RDF>
      <cc:Work
         rdf:about="">
        <dc:format>image/svg+xml</dc:format>
        <dc:type
           rdf:resource="http://purl.org/dc/dcmitype/StillImage" />
        <dc:title></dc:title>
      </cc:Work>
    </rdf:RDF>
  </metadata>
  <defs
     id="defs110" />
  <path
     id="path116"
     d="m 116.74894,200.1822 c -0.0129,-0.0153 -0.0169,-0.11031 -0.0136,-0.30689 v -0.28509 l 0.56127,-0.0109 c 0.36075,0 0.56745,-0.0136 0.57814,-0.0249 0.012,-0.0121 0.0153,-2.16843 0.0129,-7.09652 v -7.07979 h -0.55676 c -0.37851,0 -0.56359,-0.0109 -0.57806,-0.0217 -0.0289,-0.0241 -0.0313,-0.57187 0,-0.60066 0.0153,-0.0153 0.51745,-0.0193 2.16577,-0.0193 1.64817,0 2.15081,0 2.16561,0.0193 0.0282,0.0282 0.0274,0.57983 -7.3e-4,0.59784 -0.0109,0.0109 -0.27111,0.016 -0.57806,0.0209 l -0.55812,0.0109 v 7.0797 c 0,4.928 0,7.08493 0.0129,7.09659 0.0109,0.0109 0.21739,0.0193 0.57806,0.0249 l 0.56134,0.0109 v 0.28493 c 0,0.19673 0,0.29184 -0.0145,0.30704 -0.0153,0.0185 -0.35898,0.0217 -2.1673,0.0217 -1.80824,0 -2.15186,0 -2.16721,-0.0217 z m 5.92205,-0.0306 c 0,-0.0109 -0.0109,-0.14946 0,-0.30696 v -0.28653 l 0.55282,-0.0109 c 0.30406,0 0.55748,-0.0129 0.56303,-0.0184 0.0109,-0.0112 0.10902,-0.37346 0.5578,-2.04702 0.11995,-0.44733 0.24257,-0.90303 0.27231,-1.0127 0.0917,-0.33703 0.28847,-1.0701 1.31338,-4.8878 0.95457,-3.55651 1.2846,-4.787 1.65403,-6.16751 0.096,-0.35745 0.17825,-0.64987 0.1838,-0.64994 0.0109,0 0.0136,0.0217 0.0193,0.0482 0,0.0273 0.34314,1.2912 0.75076,2.81056 0.40762,1.51945 1.2264,4.57097 1.81934,6.7812 0.59317,2.2103 1.14221,4.25909 1.22043,4.55294 0.078,0.29386 0.1485,0.54502 0.15614,0.55821 0.012,0.0201 0.0982,0.0249 0.5705,0.0322 l 0.55628,0.0109 v 0.3031 0.30286 h -2.17669 -2.17679 v -0.28485 c 0,-0.19673 0,-0.29184 0.0136,-0.30704 0.0153,-0.0185 0.11569,-0.0217 0.54059,-0.0217 0.45217,0 0.52508,0 0.54285,-0.0249 0.0217,-0.0258 0.0499,0.082 -0.64648,-2.51091 -0.15436,-0.57445 -0.35881,-1.33517 -0.45433,-1.69037 -0.096,-0.3552 -0.39717,-1.47837 -0.6702,-2.49573 -0.59736,-2.22622 -0.54316,-2.03359 -0.56014,-1.99347 -0.0109,0.0169 -0.24223,0.88591 -0.52185,1.92964 -0.8515,3.17918 -1.78968,6.68053 -1.79675,6.70585 0,0.0129 0,0.0346 0.0109,0.0475 0.0129,0.0201 0.1003,0.0249 0.56978,0.0322 l 0.55476,0.0109 v 0.30287 0.3031 h -1.70276 c -1.37746,0 -1.70444,1.5e-4 -1.71079,-0.0161 z m -24.884825,-4.42664 c -0.22366,-0.12992 -1.056062,-0.61102 -1.849649,-1.06914 -0.793587,-0.45811 -1.447843,-0.8408 -1.453665,-0.85028 -0.01511,-0.0249 -0.0108,-0.0418 0.139114,-0.29145 0.109992,-0.18765 0.136846,-0.22319 0.168441,-0.22271 0.02051,0 0.232504,0.11321 0.470821,0.25117 0.238437,0.1378 0.44387,0.2506 0.456589,0.2506 0.03778,0 0.05177,-0.0306 0.105686,-0.23122 0.14569,-0.54639 1.337955,-5.00632 1.747853,-6.53838 0.483327,-1.80623 0.515677,-1.9294 0.508127,-1.93688 -0.0108,-0.0109 -6.332709,6.31118 -6.355461,6.35218 -0.01294,0.0225 -0.0108,0.037 0.0108,0.0563 0.01399,0.0136 0.224303,0.14086 0.466728,0.28115 0.242529,0.14038 0.448284,0.26725 0.457232,0.2818 0.01294,0.0217 -0.01182,0.0764 -0.119809,0.26234 -0.07445,0.12961 -0.147201,0.24264 -0.160676,0.25116 -0.01833,0.012 -0.287174,-0.13619 -1.138777,-0.62799 -0.612738,-0.35391 -1.270122,-0.73323 -1.460674,-0.84329 -0.190448,-0.10983 -0.350368,-0.21 -0.355111,-0.22263 0,-0.0129 0.05394,-0.13136 0.131669,-0.26379 0.121537,-0.20822 0.145906,-0.24079 0.17977,-0.24046 0.02154,0 0.240801,0.11689 0.487101,0.25911 0.246307,0.14232 0.45724,0.25873 0.468778,0.25873 0.01182,0 2.449339,-2.42738 5.417376,-5.39424 2.968038,-2.96669 5.403382,-5.39641 5.411762,-5.39938 0.0109,0 0.012,0 0.0109,0.016 -0.0109,0.0201 -0.22295,0.82497 -0.98907,3.68916 -0.747007,2.79279 -0.935937,3.49909 -0.981547,3.66784 -0.0259,0.096 -0.201877,0.7531 -0.390807,1.45924 -0.401267,1.49982 -0.837364,3.12901 -1.273681,4.75844 -0.19238,0.71844 -0.30637,1.17117 -0.29839,1.18523 0.0108,0.0129 0.22021,0.14278 0.473847,0.28935 0.26743,0.15445 0.463057,0.2773 0.465967,0.29233 0,0.0136 -0.0582,0.13451 -0.134687,0.26668 -0.10881,0.18733 -0.14699,0.24055 -0.17233,0.24024 -0.0183,0 -0.21557,-0.10674 -0.439227,-0.23662 z m 59.391575,-2.15902 c -0.0475,-0.0603 -0.27641,-0.48021 -0.27013,-0.49637 0,-0.0109 0.2169,-0.13998 0.4729,-0.28767 0.25599,-0.1476 0.4688,-0.27697 0.4729,-0.28758 0,-0.0109 -0.0434,-0.2051 -0.10357,-0.43254 -0.0619,-0.22745 -0.22334,-0.83325 -0.36042,-1.34644 -0.13708,-0.51309 -0.33083,-1.23789 -0.43062,-1.61069 -0.0992,-0.37273 -0.29256,-1.0939 -0.42844,-1.60274 -0.13594,-0.50868 -0.52452,-1.96188 -0.86331,-3.22919 -0.33888,-1.2674 -0.69858,-2.61303 -0.7994,-2.99018 -0.50113,-1.87496 -0.94974,-3.54009 -0.95674,-3.5515 0,-0.0109 0,-0.0129 0,-0.0129 0.0109,0 2.44378,2.42955 5.41771,5.39923 4.03816,4.03228 5.41442,5.39737 5.43596,5.39174 0.0161,0 0.22858,-0.1231 0.47283,-0.26435 0.24409,-0.1411 0.45859,-0.25663 0.47644,-0.25663 0.0249,0 0.0635,0.0547 0.17109,0.24104 0.0764,0.13265 0.13651,0.25245 0.13386,0.26611 0,0.0136 -0.28822,0.18853 -0.64263,0.39307 -0.35093,0.20244 -1.1886,0.68612 -1.86161,1.07476 -0.6731,0.38848 -1.23612,0.70413 -1.25124,0.70124 -0.0337,-0.0109 -0.31001,-0.48312 -0.2982,-0.51416 0,-0.012 0.19271,-0.12766 0.41799,-0.25718 0.4758,-0.2736 0.49727,-0.28759 0.49727,-0.3232 0,-0.0153 -1.43166,-1.45851 -3.18144,-3.2083 -1.74979,-1.74979 -3.18152,-3.17195 -3.18152,-3.16037 0,0.012 0.1907,0.73291 0.4237,1.60274 0.23307,0.86983 0.57058,2.13055 0.75019,2.80139 0.17953,0.67109 0.34773,1.29891 0.37369,1.39548 0.0386,0.14375 0.54277,2.02563 0.7166,2.67621 0.0475,0.17921 0.0667,0.2182 0.10837,0.2182 0.0129,0 0.22551,-0.11618 0.4713,-0.25824 0.24585,-0.14198 0.46189,-0.25856 0.47989,-0.25912 0.0337,0 0.13169,0.14665 0.26588,0.39837 0.0539,0.10139 0.0539,0.10248 0.0225,0.13201 -0.0466,0.0434 -2.88477,1.67743 -2.91403,1.67743 -0.0129,0 -0.0313,-0.0109 -0.0402,-0.0208 z m -69.414419,-3.59861 c -0.244796,-0.14239 -2.611421,-1.50949 -3.157624,-1.82392 -0.166609,-0.096 -0.312081,-0.18187 -0.323296,-0.19094 -0.0108,-0.0109 -0.01616,-0.0306 -0.0108,-0.0466 0.02154,-0.0667 0.276071,-0.4844 0.298502,-0.48898 0.01294,0 0.237135,0.11803 0.497351,0.26813 0.260209,0.1501 0.484946,0.27062 0.49929,0.2678 0.01512,0 0.109567,-0.14946 0.219454,-0.33975 0.106766,-0.1842 0.462628,-0.80126 0.791746,-1.37136 0.329231,-0.57019 1.203481,-2.08433 1.942823,-3.36491 0.739341,-1.28058 1.545221,-2.67637 1.790766,-3.10176 0.245656,-0.4253 0.872956,-1.51181 1.393927,-2.41444 0.574888,-0.99589 0.945314,-1.65347 0.942508,-1.673 0,-0.0241 -0.127253,-0.10237 -0.462949,-0.29668 -0.251911,-0.14543 -0.470072,-0.27656 -0.484631,-0.2912 -0.02476,-0.0249 -0.01833,-0.0418 0.104605,-0.25518 0.07228,-0.12566 0.14429,-0.24175 0.160032,-0.25808 0.02806,-0.0289 0.07983,1.7e-4 1.748604,0.96301 2.084839,1.20316 2.021646,1.16585 2.027579,1.19673 0,0.0136 -0.05282,0.12462 -0.124335,0.24658 -0.144074,0.24747 -0.154646,0.26259 -0.183116,0.26259 -0.0108,0 -0.233572,-0.12317 -0.494328,-0.27377 -0.372155,-0.21482 -0.47988,-0.27037 -0.500261,-0.25783 -0.02806,0.0169 -0.09166,0.1259 -1.002903,1.70372 -0.329232,0.5701 -1.147509,1.98745 -1.818375,3.1496 -0.670972,1.16223 -1.528612,2.64767 -1.905832,3.30107 -0.37722,0.6534 -0.818494,1.41774 -0.980577,1.69833 -1.235824,2.13931 -1.376232,2.38703 -1.367927,2.41259 0,0.0153 0.22419,0.15187 0.487318,0.30398 0.286314,0.16555 0.478377,0.28599 0.478377,0.30013 0,0.0129 -0.05821,0.12534 -0.129843,0.24963 -0.118081,0.20567 -0.162839,0.26862 -0.188068,0.26468 0,0 -0.116577,-0.0635 -0.248141,-0.14062 z m -5.055367,-2.9183 c -0.298172,-0.17318 -1.105451,-0.63974 -1.794006,-1.03673 -0.688546,-0.39709 -1.278749,-0.73927 -1.31164,-0.7605 -0.03345,-0.0217 -0.06038,-0.0514 -0.06038,-0.0667 0,-0.0506 0.264206,-0.48939 0.297852,-0.49445 0.01729,0 0.237352,0.11457 0.502199,0.26749 0.294836,0.17012 0.480749,0.26852 0.496492,0.26241 0.01399,0 0.05716,-0.0643 0.0949,-0.13185 0.03883,-0.0667 0.380774,-0.66047 0.760799,-1.31828 0.602384,-1.04277 1.740943,-3.01438 3.655723,-6.33104 0.293647,-0.50876 0.994495,-1.72253 1.557297,-2.69737 0.562813,-0.97474 1.019515,-1.78226 1.01498,-1.79424 0,-0.0121 -0.223652,-0.14616 -0.48657,-0.29804 -0.399105,-0.23042 -0.478047,-0.28188 -0.477292,-0.31082 8.04e-4,-0.041 0.251156,-0.47121 0.286853,-0.49332 0.02268,-0.0136 0.870367,0.46815 3.447925,1.96123 0.220855,0.12799 0.314888,0.19087 0.314888,0.21064 0,0.0354 -0.255144,0.4791 -0.287826,0.49968 -0.01833,0.012 -0.135873,-0.0482 -0.496482,-0.25736 -0.259462,-0.1501 -0.485493,-0.27294 -0.502208,-0.27294 -0.02267,0 -0.06142,0.053 -0.143962,0.19528 -0.06254,0.10783 -0.434591,0.75157 -0.826798,1.43124 -0.392215,0.67978 -0.966017,1.67374 -1.275084,2.20871 -0.309067,0.53505 -1.098449,1.90206 -1.754217,3.03793 -0.655655,1.13586 -1.622749,2.81096 -2.149108,3.72252 -0.731906,1.26755 -0.953298,1.66295 -0.94143,1.68177 0.0108,0.0136 0.209638,0.13652 0.446989,0.27335 0.514171,0.29651 0.514709,0.29683 0.514709,0.32738 0,0.0129 -0.06151,0.13138 -0.136846,0.26266 -0.112042,0.19553 -0.1431,0.23854 -0.171465,0.2375 -0.01937,0 -0.278547,-0.14303 -0.576824,-0.31605 z M 69.314401,173.6171 c -0.627733,-1.08731 -1.075584,-1.87915 -1.070944,-1.8937 0,-0.0145 0.119696,-0.0896 0.256221,-0.16714 0.213738,-0.12254 0.25126,-0.13918 0.270564,-0.11972 0.01294,0.0129 0.136306,0.21997 0.27542,0.46108 0.208673,0.36212 0.259461,0.43954 0.29117,0.44421 0.03231,0 0.524526,-0.48223 3.207438,-3.17356 1.743106,-1.74851 3.163445,-3.18121 3.156225,-3.18362 -0.0108,0 -0.943803,0.24297 -2.218026,0.58659 -0.21287,0.0571 -1.002035,0.26869 -4.058509,1.08594 -0.622765,0.16666 -1.21124,0.32409 -1.307645,0.35014 -0.09705,0.0257 -0.375926,0.10029 -0.62094,0.16618 -0.245005,0.0659 -0.456155,0.12976 -0.469204,0.14294 -0.03128,0.0313 -0.03778,0.016 0.260973,0.53562 0.135873,0.23573 0.247056,0.44171 0.247056,0.45786 0,0.021 -0.06689,0.0676 -0.234981,0.16426 -0.129295,0.0748 -0.249322,0.13499 -0.266905,0.13499 -0.02589,0 -0.200361,-0.29177 -0.873921,-1.45827 -0.463061,-0.80213 -0.839952,-1.46855 -0.837476,-1.48117 0,-0.0129 0.115388,-0.0874 0.25073,-0.16626 0.180197,-0.10466 0.25245,-0.13958 0.269703,-0.12873 0.01294,0.0112 0.14245,0.22071 0.287713,0.47218 0.145151,0.25149 0.273371,0.46077 0.28469,0.46519 0.0119,0 0.140843,-0.0249 0.287496,-0.0635 0.146776,-0.0402 0.345737,-0.0928 0.442248,-0.11866 0.09598,-0.0258 0.541353,-0.1448 0.988664,-0.26419 1.005814,-0.26869 1.983368,-0.5299 3.269241,-0.87369 0.543829,-0.14535 1.394137,-0.37272 1.88976,-0.50514 2.047211,-0.54719 3.243891,-0.86709 5.158895,-1.37972 0.114093,-0.0298 0.76921,-0.20613 1.455923,-0.39033 0.686721,-0.18427 1.257508,-0.33494 1.26829,-0.33494 0.0108,0 -0.45831,0.47901 -1.042579,1.06447 -0.584271,0.58547 -3.015601,3.02065 -5.403042,5.41169 -3.651308,3.65676 -4.338665,4.35212 -4.328318,4.37808 0.01081,0.0177 0.129627,0.23365 0.273049,0.48118 0.143422,0.24763 0.257089,0.45989 0.252554,0.47146 -0.0108,0.0249 -0.475459,0.29699 -0.50921,0.29699 -0.01399,0 -0.441274,-0.72366 -1.102323,-1.86861 z m 113.186119,-2.85631 c -0.12582,-0.0724 -0.23483,-0.14311 -0.24256,-0.1567 -0.0109,-0.0184 0.0514,-0.13836 0.22608,-0.43801 0.24923,-0.42956 0.30093,-0.52307 0.30093,-0.54413 0,-0.0112 -2.43067,-2.4433 -5.40139,-5.41418 -2.97087,-2.97087 -5.39761,-5.40533 -5.39303,-5.41007 0,0 0.76868,0.19528 1.69777,0.44444 0.929,0.24907 2.27053,0.60829 2.98092,0.79819 0.71048,0.18991 1.35633,0.36301 1.43527,0.38455 0.0788,0.0217 0.6243,0.16771 1.21201,0.32473 0.58754,0.1571 1.54203,0.41211 2.1209,0.56689 0.57895,0.15468 1.17092,0.31306 1.31564,0.35198 0.22327,0.0603 0.64069,0.17181 2.32037,0.62123 0.114,0.0306 0.52885,0.14167 0.92185,0.24691 0.3929,0.10564 0.728,0.19142 0.74448,0.19142 0.0386,0 0.0482,-0.0136 0.33614,-0.51431 0.19441,-0.33799 0.25214,-0.4265 0.27771,-0.42626 0.0169,1.6e-4 0.13619,0.0603 0.26346,0.13394 0.19537,0.1128 0.23115,0.13916 0.23074,0.17101 0,0.0201 -0.15163,0.29948 -0.33647,0.61962 -0.18467,0.32015 -0.66095,1.14536 -1.05811,1.83388 -0.39718,0.68854 -0.72929,1.2609 -0.73806,1.27191 -0.0109,0.0109 -0.0258,0.0193 -0.0378,0.0193 -0.0129,0 -0.12983,-0.0619 -0.26121,-0.13676 -0.1821,-0.10455 -0.2387,-0.14439 -0.2387,-0.16868 0,-0.0169 0.11199,-0.22575 0.24907,-0.46277 0.137,-0.2371 0.25245,-0.44404 0.25663,-0.45996 0.0112,-0.0418 -0.041,-0.0676 -0.25855,-0.12501 -0.21765,-0.0571 -1.95015,-0.51954 -2.21666,-0.59158 -0.18902,-0.0506 -1.46357,-0.39178 -2.77488,-0.74175 -0.44733,-0.11932 -0.89217,-0.23838 -0.98864,-0.26434 -0.097,-0.0258 -0.59174,-0.15855 -1.10042,-0.29443 -0.50868,-0.13579 -1.01856,-0.27207 -1.13298,-0.30286 -0.11424,-0.0306 -0.21835,-0.0563 -0.23113,-0.0563 -0.0129,0 1.40841,1.4319 3.15819,3.182 2.60346,2.60378 3.1882,3.18111 3.21858,3.17742 0.0306,0 0.0852,-0.0884 0.30496,-0.46687 0.20019,-0.34548 0.27633,-0.46374 0.30101,-0.46744 0.0337,0 0.46156,0.23316 0.49822,0.27729 0.0217,0.0258 0.037,0 -1.07355,1.9204 -0.44814,0.77624 -0.60186,1.02966 -0.6259,1.03255 -0.0177,0 -0.13482,-0.0547 -0.26057,-0.12816 z M 63.963015,164.39832 c -0.284585,-0.49324 -0.767168,-1.3293 -1.072456,-1.85785 -0.3054,-0.52854 -0.555149,-0.9741 -0.555149,-0.99042 0,-0.0217 0.06689,-0.0676 0.23875,-0.16731 0.131346,-0.0756 0.249645,-0.1378 0.262806,-0.1378 0.03023,0 0.02154,-0.0129 0.323948,0.50916 0.139218,0.24071 0.263988,0.44444 0.277254,0.4528 0.01833,0.012 0.527437,-0.27528 2.103925,-1.18547 1.143954,-0.66038 2.844031,-1.64205 3.778233,-2.18137 0.934099,-0.53922 2.233021,-1.28918 2.886408,-1.66649 1.138134,-0.65717 2.397684,-1.38429 3.153532,-1.82054 0.267654,-0.15452 0.354893,-0.21233 0.354893,-0.2354 0,-0.016 -0.122831,-0.24328 -0.272944,-0.50329 -0.20737,-0.35946 -0.269164,-0.47861 -0.25741,-0.49726 0.02371,-0.0378 0.469751,-0.28951 0.503285,-0.28437 0.01937,0 0.08951,0.10934 0.208995,0.31564 1.872289,3.24173 1.973872,3.4203 1.959207,3.44402 -0.02589,0.0418 -0.4554,0.28702 -0.496057,0.28308 -0.03128,0 -0.08304,-0.083 -0.3109,-0.47756 -0.150537,-0.26066 -0.283612,-0.47797 -0.295801,-0.48272 -0.0119,0 -0.187963,0.0874 -0.390694,0.20502 -0.202741,0.11754 -1.602915,0.92611 -3.11158,1.7969 -2.710417,1.56463 -6.242777,3.60401 -7.904785,4.56373 -0.47082,0.2719 -0.860332,0.50545 -0.865511,0.51904 -0.0108,0.0153 0.09705,0.20815 0.262694,0.49582 0.152378,0.26371 0.270137,0.48488 0.267549,0.50208 -0.0108,0.0354 -0.445157,0.2978 -0.498646,0.29756 -0.02589,-8e-5 -0.134908,-0.17808 -0.549546,-0.897 z m 124.044715,-3.11809 c -0.16684,-0.097 -0.24056,-0.14922 -0.24369,-0.17124 0,-0.0169 0.082,-0.18042 0.18901,-0.36638 0.33751,-0.5845 0.3507,-0.60877 0.34185,-0.63152 0,-0.0121 -0.0539,-0.0475 -0.10804,-0.0788 -0.0547,-0.0313 -0.7309,-0.42168 -1.50273,-0.86757 -0.77189,-0.44581 -2.00255,-1.15653 -2.73498,-1.57927 -0.73235,-0.42273 -2.37938,-1.37368 -3.65996,-2.11302 -1.28043,-0.73934 -2.75124,-1.58843 -3.26827,-1.88695 -0.51696,-0.29836 -0.95513,-0.54558 -0.97362,-0.54912 -0.0186,0 -0.0418,0 -0.0506,0.0153 -0.0109,0.0121 -0.13346,0.22213 -0.27536,0.46775 -0.14182,0.24562 -0.26716,0.45611 -0.27858,0.46784 -0.0177,0.0169 -0.0313,0.016 -0.0831,-0.0109 -0.17067,-0.0874 -0.44499,-0.25744 -0.44909,-0.27762 0,-0.0129 0.32642,-0.59623 0.73114,-1.29731 0.40456,-0.70091 0.88752,-1.5381 1.07308,-1.86025 0.18547,-0.32224 0.3494,-0.58989 0.36428,-0.59487 0.0298,-0.0109 0.50465,0.2543 0.51776,0.28855 0,0.0121 -0.11497,0.2338 -0.26531,0.49413 -0.16112,0.27906 -0.27118,0.48657 -0.26829,0.50546 0,0.0241 0.25124,0.17439 0.97756,0.5935 0.53505,0.30889 1.53616,0.88679 2.22469,1.28436 0.68846,0.39749 1.9192,1.10805 2.73491,1.57902 0.81565,0.47081 1.9245,1.11094 2.46388,1.42232 3.15829,1.8236 3.7862,2.18539 3.8215,2.20147 0.0322,0.0153 0.0442,0.0129 0.0676,-0.0129 0.016,-0.0177 0.14568,-0.23412 0.28847,-0.48272 0.14287,-0.24843 0.26982,-0.45561 0.28195,-0.46036 0.0121,0 0.11361,0.0442 0.2252,0.10794 0.25085,0.14358 0.29049,0.17092 0.29049,0.2001 0,0.0282 -2.13273,3.72549 -2.15846,3.74198 -0.0109,0.0109 -0.0217,0.012 -0.0258,0.012 0,0 -0.11562,-0.0628 -0.24715,-0.13966 z M 61.723314,160.51524 c -0.158842,-0.24738 -2.128622,-3.691 -2.121613,-3.70917 0.0119,-0.0306 0.480846,-0.30076 0.511261,-0.29441 0.01294,0 0.148061,0.22021 0.300111,0.48334 0.157773,0.27288 0.287608,0.48063 0.302385,0.48352 0.01399,0 0.09921,-0.0378 0.18904,-0.0895 0.153995,-0.0896 0.482358,-0.27914 3.264811,-1.88517 0.627082,-0.36188 1.416569,-0.81773 1.754209,-1.01278 0.747646,-0.4319 3.951748,-2.28163 5.717069,-3.30043 0.710438,-0.40995 1.304734,-0.75703 1.320589,-0.77102 0.01616,-0.0136 0.02589,-0.037 0.02267,-0.0506 0,-0.0129 -0.126282,-0.23203 -0.272727,-0.48544 -0.14655,-0.25342 -0.264204,-0.47226 -0.261503,-0.48625 0,-0.0249 0.197555,-0.1481 0.403744,-0.25816 0.09058,-0.0482 0.104606,-0.0515 0.125413,-0.0306 0.01294,0.0129 0.327832,0.55138 0.699875,1.1961 0.372042,0.64463 0.848257,1.46992 1.058434,1.83388 0.210072,0.36396 0.386498,0.67365 0.391997,0.6882 0.01081,0.0153 0,0.037 -0.01729,0.0499 -0.05934,0.0515 -0.478368,0.28244 -0.499079,0.27424 -0.01182,0 -0.144933,-0.22206 -0.294941,-0.48279 -0.198849,-0.34515 -0.281458,-0.47524 -0.304636,-0.47869 -0.03023,0 -0.333114,0.16835 -2.907007,1.65532 -0.451742,0.26097 -2.026936,1.17036 -3.500442,2.02097 -1.473506,0.85077 -3.037927,1.75389 -3.476507,2.00714 -0.438572,0.25318 -1.152573,0.66521 -1.586627,0.9159 -0.492607,0.2842 -0.791319,0.46574 -0.794551,0.48278 0,0.0153 0.117647,0.23967 0.267871,0.49936 0.150216,0.25968 0.270886,0.48343 0.268297,0.49726 0,0.0249 -0.463922,0.30326 -0.502955,0.30528 -0.0108,0 -0.03666,-0.0258 -0.05821,-0.0595 z m -2.698663,-4.68866 c -0.03128,-0.0201 -2.160758,-3.72356 -2.15591,-3.74841 0.0108,-0.037 0.493581,-0.31217 0.520973,-0.2949 0.01182,0.0109 0.134474,0.208 0.27132,0.44501 0.297851,0.51552 0.298607,0.5168 0.331602,0.5168 0.01399,0 0.216867,-0.11031 0.450117,-0.24506 0.65523,-0.37834 6.316221,-3.64661 9.187097,-5.30386 1.416567,-0.81781 2.588017,-1.49807 2.603438,-1.51173 0.01511,-0.0136 0.02806,-0.0289 0.02806,-0.0346 0,0 -0.121963,-0.22052 -0.27111,-0.47844 -0.149034,-0.25808 -0.270998,-0.48417 -0.270781,-0.50249 1.13e-4,-0.0258 0.05282,-0.0635 0.244796,-0.17318 0.134474,-0.0764 0.254822,-0.13595 0.267437,-0.13113 0.01294,0 0.145803,0.22214 0.295914,0.48279 0.150112,0.26073 0.378619,0.6571 0.507915,0.88077 1.127344,1.95101 1.362758,2.36249 1.362758,2.38267 0,0.0289 -0.03988,0.0571 -0.291492,0.19963 -0.112147,0.0635 -0.213409,0.11216 -0.225162,0.10783 -0.0119,0 -0.138254,-0.21145 -0.281242,-0.46004 -0.271537,-0.4717 -0.294724,-0.50764 -0.32718,-0.50764 -0.01729,0 -0.848909,0.4783 -5.046419,2.90206 -1.516752,0.87577 -2.785798,1.60828 -4.911833,2.83525 -2.511559,1.44941 -2.296317,1.32182 -2.296317,1.36089 0,0.0169 0.122285,0.24273 0.271753,0.50144 0.192273,0.33253 0.267872,0.47717 0.258385,0.49413 -0.01294,0.0225 -0.470072,0.29483 -0.494658,0.29426 -0.0108,-8e-5 -0.01937,-0.0109 -0.02911,-0.0121 z M 181.27059,135.90575 c -0.0184,-0.0337 -0.0249,-4.26721 -0.0109,-4.31344 0.0109,-0.0217 0.0506,-0.0249 0.30928,-0.0249 0.2584,0 0.30085,0 0.30921,0.0249 0,0.0136 0.0109,0.26709 0.0109,0.56295 0,0.39692 0,0.54268 0.0193,0.55684 0.0249,0.0241 14.1197,0.0282 14.15805,0 0.0201,-0.0129 0.0249,-0.10139 0.0322,-0.57783 l 0.0112,-0.5627 h 0.29386 c 0.22439,0 0.29683,0 0.30664,0.016 0.0109,0.0109 0.0129,0.98633 0.0129,2.16722 2.4e-4,1.80679 0,2.14985 -0.0217,2.16528 -0.0153,0.0129 -0.1103,0.0169 -0.30703,0.0136 h -0.28502 l -0.0109,-0.55972 c -0.0109,-0.44187 -0.0129,-0.5652 -0.0298,-0.58602 -0.0201,-0.0249 -0.53673,-0.0258 -7.08139,-0.0258 -5.46941,0 -7.06387,0 -7.07858,0.0193 -0.0145,0.0136 -0.0193,0.16048 -0.0193,0.55926 0,0.34176 -0.0109,0.55144 -0.016,0.5709 -0.0153,0.0289 -0.0354,0.0313 -0.30238,0.0313 -0.26637,0 -0.2871,0 -0.30247,-0.0313 z M 52.898123,135.39153 c -0.03023,-0.0313 -0.02806,-4.30766 0,-4.33322 0.01512,-0.0129 0.110322,-0.0177 0.306912,-0.0145 h 0.28502 l 0.0108,0.56142 c 0,0.36067 0.01399,0.56737 0.02476,0.57806 0.0119,0.012 2.168525,0.0153 7.096532,0.0129 h 7.079827 v -0.55684 c 0,-0.37852 0.0108,-0.56351 0.02154,-0.57798 0.02372,-0.0289 0.571873,-0.0313 0.600664,0 0.02806,0.0282 0.02806,4.30355 0,4.33137 -0.02911,0.0289 -0.576616,0.0273 -0.600664,0 -0.01182,-0.0136 -0.01937,-0.19954 -0.02154,-0.57806 v -0.55676 h -7.079827 c -4.928007,0 -7.084883,0 -7.096532,0.0129 -0.0108,0.0109 -0.01938,0.2174 -0.02476,0.57799 l -0.0108,0.56142 h -0.287504 c -0.210177,0 -0.292779,0 -0.307017,-0.0153 z m 128.375127,-4.94402 c -0.0153,-0.0153 -0.0193,-0.51736 -0.0193,-2.16568 0,-1.64816 0,-2.1509 0.0193,-2.16561 0.0289,-0.0289 0.57661,-0.0265 0.60066,0 0.012,0.0145 0.0193,0.19963 0.0217,0.57815 v 0.55676 h 7.0797 c 4.9281,0 7.08494,0 7.09652,-0.0129 0.0112,-0.0109 0.0193,-0.2174 0.0249,-0.57807 l 0.0109,-0.56134 h 0.28493 c 0.19666,0 0.29177,0 0.30696,0.0136 0.0337,0.0273 0.0337,4.30726 0,4.33451 -0.0153,0.0129 -0.1103,0.0169 -0.30696,0.0136 h -0.28493 l -0.0109,-0.56142 c 0,-0.36059 -0.0136,-0.56729 -0.0249,-0.57806 -0.0121,-0.0121 -2.16842,-0.0153 -7.09652,-0.0129 h -7.0797 v 0.55676 c 0,0.37851 -0.0109,0.56367 -0.0217,0.57814 -0.0234,0.0289 -0.57188,0.0313 -0.60066,0 z M 52.898123,129.92164 c -0.02589,-0.0258 -0.02911,-4.27188 0,-4.31988 0.01512,-0.0289 0.03561,-0.0313 0.285671,-0.0313 0.148061,0 0.280589,0 0.294507,0.0109 0.02267,0.0109 0.02476,0.0628 0.02476,0.4376 0,0.23533 0.0108,0.43085 0.01182,0.4344 0.0108,0 0.234441,-0.0539 0.506299,-0.12679 0.271867,-0.0731 0.867562,-0.2334 1.323612,-0.35544 0.456051,-0.12212 1.141366,-0.30544 1.52279,-0.40754 0.381426,-0.10237 0.696426,-0.18853 0.699979,-0.19207 0,0 0,-0.0109 -0.01616,-0.0136 -0.01937,-0.0112 -2.959844,-0.7945 -3.642248,-0.97587 -0.149139,-0.0402 -0.291918,-0.0788 -0.317364,-0.0873 -0.09382,-0.0306 -0.08951,-0.0475 -0.08951,0.36621 0,0.33269 0,0.38213 -0.02476,0.39065 -0.01399,0 -0.146445,0.0109 -0.294507,0.0109 -0.249862,0 -0.27046,0 -0.285775,-0.0313 -0.0108,-0.0201 -0.01616,-0.57904 -0.01616,-1.69721 0,-1.49372 0,-1.66907 0.02476,-1.6915 0.02051,-0.0209 0.06898,-0.0249 0.28006,-0.0249 0.145368,0 0.268409,0.0109 0.285984,0.016 0.03023,0.016 0.03128,0.041 0.03128,0.75662 0,0.40707 0.0108,0.74345 0.0119,0.74763 0.0108,0 0.496595,0.13724 1.088414,0.29579 0.591812,0.15854 1.144164,0.30656 1.227521,0.32915 0.08303,0.0225 0.990176,0.26587 2.015181,0.54067 l 1.863775,0.49952 2.083231,-0.55838 c 1.145786,-0.30728 2.944319,-0.78951 3.996924,-1.07186 l 1.913598,-0.51326 0.01081,-0.73243 c 0,-0.40287 0.01399,-0.74152 0.02051,-0.75245 0.0108,-0.0153 0.08735,-0.0201 0.29839,-0.0201 0.266038,0 0.28674,0 0.302056,0.0313 0.02589,0.0475 0.02268,4.29414 0,4.31964 -0.02806,0.0281 -0.57996,0.0273 -0.597857,0 -0.01081,-0.0109 -0.01616,-0.18203 -0.02051,-0.38029 l -0.0108,-0.36019 -0.526255,0.14119 c -0.289433,0.078 -0.863565,0.23146 -1.275726,0.34161 -1.713664,0.45827 -2.231718,0.59824 -2.238303,0.60476 -0.0108,0.0112 0,0.0145 0.228942,0.0731 0.105686,0.0281 0.252346,0.0667 0.32686,0.0873 0.07436,0.0193 0.261189,0.07 0.414637,0.11079 0.153569,0.041 0.90563,0.24256 1.671398,0.44806 0.765866,0.20542 1.395536,0.37353 1.399419,0.37353 0,0 0.0108,-0.19336 0.0108,-0.42965 0,-0.42595 2.17e-4,-0.42997 0.03562,-0.45449 0.02806,-0.0201 0.0852,-0.0249 0.29257,-0.0249 0.228837,0 0.259999,0 0.283508,0.0289 0.02372,0.0273 0.02589,0.16707 0.02589,1.69151 0,1.11536 0,1.67244 -0.01616,1.69309 -0.01512,0.0289 -0.03561,0.0313 -0.302378,0.0313 -0.26636,0 -0.28707,0 -0.30249,-0.0313 -0.0108,-0.0201 -0.01616,-0.26973 -0.01616,-0.70163 0,-0.36895 0,-0.67076 -0.0108,-0.67076 0,0 -0.261181,-0.0676 -0.570143,-0.15075 -1.283389,-0.3445 -4.123962,-1.10563 -4.844974,-1.29827 l -0.774926,-0.20711 -0.134152,0.0378 c -0.07333,0.0201 -0.955661,0.25759 -1.959964,0.52637 -1.004302,0.26869 -2.615306,0.70018 -3.580141,0.95867 -0.964826,0.25847 -1.8834,0.50442 -2.041269,0.54662 l -0.287071,0.0764 -0.0108,0.68395 -0.0108,0.68387 H 53.20594 c -0.210178,0 -0.292675,0 -0.306905,-0.0153 z m 128.365637,-4.95013 c -0.0169,-0.0466 -0.0112,-4.28 0.0109,-4.31336 0.0153,-0.0289 0.0354,-0.0313 0.30238,-0.0313 0.26635,0 0.28702,0 0.30245,0.0313 0.0109,0.0193 0.016,0.22898 0.016,0.57083 0,0.39885 0,0.54502 0.0193,0.55917 0.0153,0.0153 1.6095,0.0193 7.0797,0.0193 h 7.06049 l 0.0249,-0.0354 c 0.0217,-0.0306 0.0249,-0.11304 0.0249,-0.5804 0,-0.48215 0,-0.54599 0.0249,-0.55459 0.0499,-0.0193 0.55733,-0.0112 0.57758,0.0109 0.0153,0.0153 0.0193,0.51696 0.0186,2.16481 -2.4e-4,1.18024 -0.0109,2.15483 -0.0129,2.16608 -0.0109,0.0153 -0.082,0.0193 -0.3068,0.0161 h -0.29385 l -0.0109,-0.56271 c -0.0109,-0.47684 -0.012,-0.56503 -0.0322,-0.57782 -0.0386,-0.0241 -14.1336,-0.0201 -14.15788,0 -0.0136,0.0136 -0.0193,0.16 -0.0193,0.55692 0,0.29579 0,0.54912 -0.0109,0.56295 -0.0109,0.0217 -0.0506,0.0249 -0.30929,0.0249 -0.25848,0 -0.30085,0 -0.30921,-0.0249 z m -4.02779,-21.14399 c -0.0109,-0.0129 -0.15725,-0.26202 -0.3261,-0.55419 -1.48181,-2.56407 -1.82962,-3.17324 -1.82246,-3.19181 0,-0.0121 0.11755,-0.0851 0.25125,-0.161837 0.18676,-0.10783 0.24875,-0.13676 0.26852,-0.12454 0.0136,0.0109 0.14769,0.226637 0.29715,0.484637 0.15469,0.267 0.28292,0.47113 0.29756,0.47394 0.0136,0 1.07235,-0.59928 2.35157,-1.337892 4.21857,-2.435748 4.57875,-2.64366 5.92189,-3.419016 4.49313,-2.593807 3.97151,-2.290392 3.99136,-2.321659 0.012,-0.01932 -0.0475,-0.133951 -0.25751,-0.496136 -0.15034,-0.259128 -0.27327,-0.484971 -0.27327,-0.501767 0,-0.02248 0.0611,-0.06592 0.23508,-0.165545 0.12921,-0.07476 0.24932,-0.134989 0.26692,-0.134989 0.0258,0 0.11288,0.140052 0.42322,0.677757 0.21531,0.372814 0.69592,1.205171 1.06817,1.849806 0.37466,0.648815 0.67711,1.189488 0.67735,1.210955 0,0.03372 -0.0337,0.05784 -0.24159,0.179373 -0.13306,0.07803 -0.25189,0.136833 -0.26395,0.132096 -0.012,0 -0.14616,-0.223507 -0.29779,-0.486412 -0.21314,-0.369507 -0.28276,-0.477812 -0.30688,-0.477812 -0.0177,0 -0.33752,0.176874 -0.71217,0.392993 -0.37441,0.216108 -1.0935,0.631288 -1.59783,0.922568 -0.50435,0.291366 -1.79964,1.039221 -2.87859,1.662072 -1.07878,0.622765 -2.56429,1.480291 -3.30098,1.905588 -0.73677,0.42548 -1.87787,1.08394 -2.5356,1.46342 -0.65782,0.37947 -1.205,0.69713 -1.21603,0.70597 -0.0109,0.0112 -0.0193,0.0281 -0.0193,0.0418 0,0.0136 0.12213,0.23766 0.2715,0.49637 0.14922,0.25865 0.2695,0.4803 0.26709,0.49245 0,0.0193 -0.48062,0.30454 -0.50877,0.30479 -0.0109,0 -0.0184,-0.0109 -0.0289,-0.0241 z M 73.241773,103.36016 c -0.245762,-0.1399 -0.269599,-0.15694 -0.269599,-0.19313 0,-0.0136 0.151188,-0.2875 0.335919,-0.60708 l 0.335808,-0.58112 -2.269465,-2.268907 -2.269456,-2.268838 -1.403311,-0.376022 c -0.771903,-0.206711 -1.48235,-0.397173 -1.57886,-0.423136 -0.375387,-0.101386 -2.971277,-0.796746 -3.961132,-1.061342 -0.573488,-0.153236 -1.049486,-0.276492 -1.057574,-0.273829 -0.0108,0 -0.163916,0.263133 -0.34605,0.578706 -0.234762,0.406493 -0.340125,0.575007 -0.361695,0.578063 -0.01729,0 -0.134475,-0.05631 -0.261721,-0.129848 -0.212982,-0.123649 -0.231209,-0.137804 -0.230774,-0.17969 2.17e-4,-0.03056 0.296983,-0.558931 0.907888,-1.61641 0.499081,-0.864039 0.978744,-1.694704 1.06588,-1.845855 0.117542,-0.204049 0.1664,-0.275128 0.188823,-0.275128 0.04527,0 0.49067,0.258725 0.501234,0.291039 0.0108,0.01844 -0.06359,0.154611 -0.199282,0.388333 -0.114633,0.198177 -0.208449,0.365164 -0.208449,0.370872 0,0.01091 0.479012,0.138524 1.064472,0.295219 0.585452,0.156695 1.139854,0.305194 1.23195,0.330197 0.09166,0.02488 0.51881,0.139495 0.948329,0.254545 0.429519,0.114962 0.786471,0.212572 0.79337,0.216752 0.0108,0 0.01294,0 0.01294,0 0,-0.01692 -2.963189,-2.979881 -2.970956,-2.970398 0,0 -0.08735,0.148827 -0.187424,0.321761 -0.09921,0.173011 -0.191629,0.318454 -0.204244,0.323278 -0.01294,0 -0.0949,-0.0322 -0.183974,-0.08196 -0.253745,-0.14278 -0.328588,-0.193997 -0.328588,-0.224708 2.17e-4,-0.037 1.658672,-2.906957 1.691345,-2.927223 0.01833,-0.01201 0.08411,0.01855 0.265604,0.122612 0.132319,0.07552 0.244901,0.149056 0.250078,0.162643 0.01182,0.03056 0.0431,-0.02816 -0.375709,0.696976 -0.191524,0.331561 -0.348212,0.607966 -0.348212,0.614001 0,0.01091 1.020799,1.031101 2.268492,2.277601 2.104036,2.102092 2.273669,2.267703 2.340206,2.284673 0.07436,0.01844 3.291559,0.87947 3.54832,0.949175 0.19519,0.05304 0.298824,0.08087 1.969458,0.527741 0.802535,0.214743 1.54166,0.412604 1.6426,0.439538 0.100294,0.02728 0.247924,0.06668 0.326859,0.08742 0.07871,0.02172 0.208127,0.05631 0.287062,0.07792 0.111295,0.03056 0.14753,0.03459 0.161544,0.02008 0.0108,-0.01091 0.170492,-0.284765 0.356943,-0.609254 0.18646,-0.324489 0.349941,-0.602585 0.363207,-0.617941 0.01294,-0.01528 0.03561,-0.02816 0.0496,-0.02728 0.03562,0 0.465425,0.256553 0.485163,0.288224 0.01294,0.02008 -0.189257,0.382221 -0.985537,1.762247 -0.550944,0.954893 -1.035359,1.793526 -1.076443,1.863626 -0.04856,0.082 -0.08627,0.129277 -0.105686,0.132337 -0.01729,0 -0.134795,-0.0547 -0.261936,-0.129437 -0.171362,-0.1003 -0.231636,-0.14295 -0.235519,-0.16884 0,-0.0217 0.06037,-0.14776 0.171569,-0.339509 0.09705,-0.16763 0.174159,-0.30753 0.170927,-0.310749 0,0 -0.259895,-0.07476 -0.570256,-0.157012 -0.721333,-0.1932 -0.742896,-0.198908 -2.229669,-0.597194 -0.687798,-0.184361 -1.252651,-0.333013 -1.255135,-0.330437 0,0 0.664828,0.673894 1.482888,1.492031 l 1.487527,1.487437 0.214278,-0.37055 c 0.117759,-0.20373 0.22538,-0.37748 0.239184,-0.38584 0.01833,-0.0121 0.08411,0.0185 0.265926,0.12358 0.132432,0.0764 0.244908,0.14953 0.249974,0.16272 0,0.0129 0,0.037 -0.0108,0.053 -0.101375,0.19023 -1.665674,2.88115 -1.679591,2.88999 -0.02806,0.0169 -0.01729,0.0217 -0.251582,-0.11127 z M 174.47952,99.062549 c -0.0169,-0.02816 -0.31308,-0.539789 -0.65718,-1.136263 -0.3441,-0.596398 -0.81548,-1.412843 -1.04742,-1.814272 -0.23187,-0.401418 -0.41928,-0.742233 -0.41638,-0.757501 0.0109,-0.03383 0.48398,-0.31291 0.51414,-0.301418 0.0109,0 0.13716,0.211207 0.28019,0.459717 0.27246,0.473862 0.2945,0.507879 0.32955,0.507879 0.0185,0 1.06255,-0.598242 3.01936,-1.730173 0.27633,-0.159827 1.22358,-0.706939 2.10506,-1.215778 0.88141,-0.508763 2.46018,-1.420155 3.50842,-2.025316 1.04807,-0.605074 2.28235,-1.317404 2.74286,-1.582885 0.46045,-0.265469 0.84619,-0.48986 0.85721,-0.498624 0.0109,-0.01091 0.0193,-0.02892 0.0193,-0.0442 0,-0.01604 -0.12204,-0.24039 -0.27117,-0.498864 -0.14915,-0.258485 -0.26733,-0.479984 -0.26275,-0.492283 0.0113,-0.01932 0.42057,-0.266758 0.48705,-0.291607 0.0136,0 0.037,0 0.0506,0.01932 0.0514,0.05784 2.15048,3.711584 2.14598,3.735058 0,0.01288 -0.11505,0.0884 -0.24987,0.166834 -0.18797,0.109134 -0.25101,0.138688 -0.27023,0.126465 -0.0136,-0.01091 -0.13305,-0.202204 -0.26499,-0.429891 -0.31974,-0.552089 -0.30711,-0.532074 -0.33542,-0.532074 -0.0136,0 -0.62582,0.346993 -1.36009,0.7711 -0.73436,0.424183 -2.05996,1.189412 -2.9458,1.700499 -0.88591,0.511174 -1.74343,1.00635 -1.90576,1.100489 -0.16216,0.09385 -1.5795,0.912123 -3.14952,1.817884 -1.57001,0.905695 -2.86844,1.659824 -2.88525,1.6759 -0.0306,0.02892 -0.0258,0.037 0.20655,0.44051 0.31444,0.545584 0.32674,0.568568 0.31371,0.589718 -0.0153,0.02488 -0.47788,0.292087 -0.50514,0.292087 -0.012,0 -0.0354,-0.02412 -0.053,-0.05151 z M 91.642166,83.140817 c -0.118838,-0.188944 -0.250184,-0.435282 -0.242634,-0.455134 0,-0.01288 0.274448,-0.176001 0.599038,-0.363243 0.324601,-0.187165 0.587294,-0.348204 0.583628,-0.357775 0,-0.01091 -0.08304,-0.30455 -0.177399,-0.655323 -0.09381,-0.350938 -0.34195,-1.276643 -0.55138,-2.05723 -0.209308,-0.780666 -0.503276,-1.878584 -0.653283,-2.440005 L 90.927522,75.791532 87.997867,72.86094 c -1.611325,-1.611743 -2.937309,-2.928665 -2.946474,-2.926334 -0.0108,0 -0.268304,0.149541 -0.575531,0.32722 -0.307346,0.1776 -0.573705,0.322961 -0.591931,0.322961 -0.02589,0 -0.06255,-0.04985 -0.16542,-0.227206 -0.07228,-0.125019 -0.132431,-0.244812 -0.132753,-0.266198 -5.39e-4,-0.03377 0.02694,-0.05468 0.182681,-0.144557 0.101364,-0.05869 0.938625,-0.541803 1.861621,-1.074602 1.126909,-0.650662 1.687454,-0.965984 1.706323,-0.959713 0.03345,0.01048 0.291387,0.4524 0.291387,0.498629 0,0.02493 -0.07983,0.07799 -0.366873,0.242964 -0.201655,0.115934 -0.36676,0.215708 -0.36676,0.221657 0,0.01528 2.955751,2.968785 2.971172,2.968785 0.0108,0 0.0108,-0.01048 0,-0.01287 0,-0.01048 -0.195183,-0.712087 -0.424238,-1.566881 -0.228941,-0.854713 -0.444401,-1.658133 -0.478691,-1.785403 -0.03449,-0.12711 -0.08843,-0.328024 -0.119383,-0.446451 -0.03128,-0.118426 -0.06038,-0.22415 -0.06359,-0.235004 0,-0.01287 -0.120461,0.04663 -0.32427,0.163529 -0.174489,0.100262 -0.328909,0.183068 -0.343253,0.183068 -0.02911,0 -0.05282,-0.03538 -0.208344,-0.306479 -0.07654,-0.134023 -0.103525,-0.194 -0.09382,-0.211769 0.01081,-0.01366 0.415289,-0.25647 0.906064,-0.539471 0.490663,-0.283083 1.139315,-0.657497 1.441372,-0.83188 0.30216,-0.174545 0.563776,-0.317574 0.581463,-0.318137 0.04639,0 0.326,0.476521 0.301622,0.515112 -0.0108,0.01447 -0.297843,0.188775 -0.64185,0.387519 -0.344008,0.198744 -0.62902,0.364928 -0.633555,0.369431 0,0 0.240697,0.936236 0.544698,2.070575 0.304099,1.134338 0.677975,2.529086 0.830787,3.099109 l 0.277896,1.036494 2.92221,2.922794 c 1.739005,1.739334 2.932131,2.921028 2.946691,2.918294 0.01399,0 0.302177,-0.164575 0.641424,-0.360345 0.41594,-0.239989 0.626437,-0.353028 0.646067,-0.346838 0.0335,0.01048 0.29073,0.451919 0.29073,0.49863 0,0.02493 -0.39771,0.260571 -1.855795,1.10234 -1.020696,0.589238 -1.870465,1.071387 -1.888257,1.071387 -0.02476,0 -0.06359,-0.05387 -0.170814,-0.238783 -0.07654,-0.131371 -0.135873,-0.251244 -0.132963,-0.26636 0,-0.01608 0.131025,-0.10025 0.321682,-0.210161 l 0.316503,-0.182584 -1.487954,-1.48809 c -0.818389,-0.818374 -1.489465,-1.486403 -1.491298,-1.484553 0,0 0.08087,0.3191 0.18494,0.705011 0.103525,0.385832 0.347674,1.297307 0.542648,2.025313 0.19486,0.727925 0.356076,1.325605 0.358238,1.327937 0,0 0.174481,-0.09382 0.382928,-0.213941 0.284594,-0.164011 0.384988,-0.214582 0.403214,-0.203165 0.01294,0.01048 0.08519,0.121561 0.160466,0.251486 0.106756,0.185478 0.132746,0.241837 0.120019,0.262499 -0.0108,0.01366 -0.116143,0.08409 -0.238108,0.15501 -1.460344,0.846992 -2.65121,1.528853 -2.679784,1.53432 -0.02693,0 -0.04422,-0.01091 -0.07445,-0.05468 z m 61.417094,-3.711909 c -1.36717,-0.789992 -1.85896,-1.081838 -1.86259,-1.104672 0,-0.03055 0.22713,-0.449586 0.27377,-0.496136 0.0273,-0.02734 -0.0193,-0.05065 0.53761,0.269816 0.24192,0.139169 0.45394,0.253174 0.47106,0.253174 0.0249,0 0.13427,-0.178404 0.50354,-0.817329 0.50707,-0.877465 1.51961,-2.631031 2.99474,-5.186807 0.50635,-0.877144 1.2707,-2.201061 1.69866,-2.942252 0.42796,-0.741192 1.03192,-1.787333 1.34233,-2.324715 0.44364,-0.768526 0.56086,-0.983029 0.54912,-1.004737 -0.0112,-0.01528 -0.18958,-0.127431 -0.40304,-0.249475 -0.48858,-0.279625 -0.55547,-0.322076 -0.55547,-0.352305 0,-0.01366 0.0611,-0.132014 0.13683,-0.263385 0.0949,-0.164736 0.14552,-0.238782 0.16483,-0.238782 0.0153,0 0.73773,0.409629 1.60539,0.910269 2.25581,1.301646 2.13497,1.230172 2.1398,1.266593 0.0109,0.04824 -0.25656,0.493243 -0.29539,0.499192 -0.0184,0 -0.22849,-0.108774 -0.50289,-0.267083 -0.28404,-0.164092 -0.48086,-0.268208 -0.49558,-0.262661 -0.0136,0 -0.23419,0.372968 -0.4905,0.817329 -0.25648,0.444281 -0.56794,0.983753 -0.69223,1.198657 -0.12422,0.214824 -0.55105,0.954005 -0.94838,1.642454 -0.39732,0.688611 -0.96084,1.664485 -1.25212,2.168903 -0.2912,0.504338 -0.97273,1.684822 -1.51454,2.623391 -0.5418,0.938407 -1.25695,2.177103 -1.58932,2.752673 -0.34113,0.590606 -0.60049,1.056272 -0.5955,1.069217 0,0.01287 0.22383,0.147289 0.48681,0.299322 0.34297,0.198423 0.47788,0.284529 0.47788,0.30479 0,0.02894 -0.2235,0.431255 -0.26764,0.481666 -0.0136,0.01528 -0.0322,0.02813 -0.0418,0.02734 -0.0109,0 -0.85344,-0.483756 -1.87529,-1.074281 z M 99.782673,78.458742 c -0.17416,-0.288066 -0.2601,-0.452078 -0.24738,-0.472258 0.0108,-0.01206 0.21126,-0.136838 0.45215,-0.27649 0.527967,-0.306076 0.509637,-0.294337 0.509637,-0.326898 0,-0.01366 -0.0873,-0.17744 -0.19376,-0.362275 -0.10677,-0.184996 -0.726287,-1.258392 -1.377091,-2.385415 -0.650807,-1.1271 -1.493994,-2.587453 -1.87369,-3.245271 -0.707528,-1.225831 -1.087015,-1.883248 -2.228164,-3.859275 -0.359638,-0.622764 -0.813317,-1.408576 -1.00829,-1.746168 -0.33473,-0.579913 -0.390373,-0.669798 -0.414534,-0.669798 -0.0108,0 -0.221392,0.121964 -0.479767,0.271103 -0.258385,0.148978 -0.481931,0.271103 -0.496709,0.271103 -0.03345,0 -0.05717,-0.03457 -0.202088,-0.289354 -0.06256,-0.110868 -0.110645,-0.211608 -0.105686,-0.223748 0,-0.01206 0.07871,-0.06271 0.163698,-0.112075 0.08519,-0.04985 0.592793,-0.342336 1.127778,-0.651145 0.535099,-0.308729 1.300643,-0.750598 1.701259,-0.982064 0.400624,-0.231386 0.739238,-0.420804 0.752391,-0.420804 0.03023,0 0.05499,0.03699 0.200689,0.290799 0.06359,0.111674 0.112365,0.212976 0.107836,0.224955 0,0.01206 -0.211689,0.138526 -0.460256,0.281313 -0.467806,0.26861 -0.507707,0.294499 -0.507707,0.328508 0,0.01048 0.07445,0.148174 0.164889,0.304467 0.09058,0.156375 0.34088,0.589239 0.556122,0.962046 0.385526,0.667867 3.060876,5.302342 3.930923,6.809487 0.245547,0.425386 0.757367,1.311616 1.137167,1.969431 0.37988,0.657819 0.82111,1.422164 0.98046,1.698412 0.21683,0.376104 0.29787,0.503534 0.32256,0.507233 0.0193,0 0.21924,-0.103558 0.50313,-0.267325 0.2842,-0.164333 0.48013,-0.268448 0.49492,-0.262821 0.037,0.01366 0.3015,0.481827 0.29056,0.514066 -0.0109,0.02251 -0.77705,0.471696 -3.26706,1.904956 -0.25526,0.146887 -0.472637,0.267163 -0.483197,0.267163 -0.0108,0 -0.0335,-0.02412 -0.0507,-0.05146 z m 15.669037,-6.64732 c -0.0249,-0.01366 -0.0282,-0.04663 -0.0282,-0.301976 0,-0.266118 0,-0.28678 0.0313,-0.302217 0.0193,-0.01048 0.26868,-0.01608 0.69777,-0.01608 h 0.66674 l 0.4668,-1.742148 c 0.25663,-0.958187 0.62798,-2.344332 0.82529,-3.080458 0.19722,-0.735965 0.35849,-1.352298 0.35849,-1.369664 0,-0.01688 -0.0863,-0.351501 -0.19062,-0.74288 -0.10455,-0.391298 -0.42715,-1.594135 -0.71627,-2.672999 -0.2892,-1.078784 -0.68146,-2.542835 -0.87168,-3.253233 -0.19022,-0.710479 -0.35246,-1.304301 -0.36067,-1.319656 -0.0136,-0.02572 -0.0628,-0.02814 -0.68081,-0.02814 -0.49669,0 -0.67092,0 -0.68515,-0.01929 -0.0129,-0.01287 -0.0193,-0.09921 -0.0193,-0.285896 0,-0.221256 0,-0.271103 0.0249,-0.291926 0.0225,-0.02251 0.24111,-0.02493 2.16769,-0.02493 1.92658,0 2.14519,0 2.16771,0.02493 0.0201,0.0209 0.0249,0.07156 0.0249,0.291926 0,0.186282 -0.0109,0.27255 -0.0193,0.285896 -0.0136,0.01366 -0.1353,0.01929 -0.44644,0.01929 -0.23509,0 -0.42748,0 -0.42748,0.01125 0,0 0.097,0.372404 0.21643,0.817248 0.72198,2.698244 0.85382,3.18803 0.86629,3.216732 0.012,0.02813 0.016,0.02412 0.0313,-0.03216 0.0109,-0.03538 0.20454,-0.763382 0.43359,-1.618577 0.22897,-0.855276 0.46607,-1.739978 0.52693,-1.966139 0.0603,-0.226079 0.11063,-0.414372 0.11063,-0.418312 0,0 -0.17407,-0.01048 -0.38671,-0.01206 h -0.38672 v -0.28693 c 0,-0.255828 0,-0.289113 0.0225,-0.307041 0.0418,-0.03135 3.35871,-0.02894 3.38461,0 0.0129,0.01528 0.0177,0.110306 0.0136,0.307041 v 0.285012 h -0.74505 c -0.68941,0 -0.7461,0.01048 -0.75921,0.03216 -0.0109,0.01528 -0.0402,0.124538 -0.0716,0.242964 -0.0313,0.118427 -0.32272,1.205652 -0.64688,2.416047 -0.32434,1.210475 -0.66908,2.49765 -0.7662,2.860649 l -0.1768,0.659828 0.27175,1.014545 c 0.14962,0.558044 0.29321,1.093576 0.31934,1.189974 0.0442,0.16369 0.72101,2.689401 1.29996,4.852031 l 0.25302,0.944841 h 0.72896 c 0.64143,0 0.73203,0 0.75406,0.02493 0.021,0.0209 0.0249,0.07156 0.0249,0.293855 0,0.223106 0,0.273033 -0.0249,0.293857 -0.0225,0.02251 -0.24096,0.02493 -2.16561,0.02493 -1.64366,0 -2.14502,0 -2.15973,-0.01929 -0.0129,-0.01366 -0.0193,-0.102433 -0.0193,-0.299805 0,-0.196976 0.0109,-0.286379 0.0193,-0.299805 0.0136,-0.01366 0.11938,-0.01929 0.37473,-0.01929 0.25076,0 0.35568,0 0.35568,-0.01769 0,-0.01048 -0.2157,-0.822474 -0.47925,-1.806066 -0.26355,-0.983511 -0.50554,-1.886945 -0.53778,-2.007543 -0.0322,-0.120517 -0.0628,-0.219245 -0.0667,-0.219085 0,1.61e-4 -0.0906,0.306881 -0.19015,0.681777 -0.10029,0.374816 -0.34209,1.2801 -0.53826,2.011805 -0.19601,0.731704 -0.35649,1.336218 -0.35649,1.343534 0,0.01048 0.18701,0.01287 0.41574,0.01287 0.25599,0 0.42748,0.01048 0.44646,0.01608 0.0289,0.01528 0.0313,0.03537 0.0313,0.299805 0,0.199065 -0.0109,0.289031 -0.0193,0.302538 -0.0249,0.02493 -3.33846,0.02734 -3.38163,0 z m 9.38416,0 c -0.0289,-0.02894 -0.0273,-0.576616 0,-0.600655 0.0136,-0.01206 0.19963,-0.01929 0.57815,-0.02171 h 0.55676 v -7.079868 c 0,-4.928008 0,-7.084851 -0.0129,-7.096508 -0.0109,-0.01048 -0.21748,-0.01929 -0.57815,-0.02493 l -0.56126,-0.01125 v -0.293695 c 0,-0.224472 4.1e-4,-0.296991 0.016,-0.3068 0.0109,-0.01048 0.98641,-0.01287 2.16722,-0.01287 1.80686,-2.41e-4 2.14993,0 2.1652,0.02171 0.0129,0.01528 0.0177,0.110307 0.0137,0.307041 v 0.28485 l -0.56343,0.01125 c -0.53433,0.01048 -0.56464,0.01048 -0.58602,0.03859 -0.0193,0.02734 -0.0225,1.018163 -0.0225,7.069736 0,4.821481 0,7.048431 0.016,7.069575 0.016,0.02894 0.0386,0.03135 0.55925,0.03135 0.34354,0 0.55394,0.01048 0.57348,0.01608 0.0289,0.01528 0.0313,0.03699 0.0313,0.302459 0,0.266358 0,0.287101 -0.0313,0.302377 -0.0475,0.02572 -4.29414,0.02251 -4.31955,0 z m 5.45985,-0.01048 c -0.0201,-0.0201 -0.0249,-0.07075 -0.0249,-0.293855 0,-0.223106 0,-0.273032 0.0249,-0.293856 0.0217,-0.02171 0.096,-0.02493 0.5709,-0.02493 0.40336,0 0.55089,0 0.56496,-0.01929 0.0153,-0.01528 0.0193,-1.609411 0.0193,-7.079624 v -7.060571 l -0.0354,-0.02493 c -0.0298,-0.02171 -0.11297,-0.02493 -0.5804,-0.02493 -0.48215,0 -0.54598,0 -0.55459,-0.02493 0,-0.01366 -0.0109,-0.142546 -0.0109,-0.285896 0,-0.215788 0,-0.265072 0.0249,-0.285734 0.0225,-0.02251 0.2412,-0.02493 2.1677,-0.02493 1.9265,0 2.1451,0 2.16769,0.02493 0.0201,0.0209 0.0249,0.06994 0.0249,0.285734 0,0.14335 0,0.271988 -0.0109,0.285896 -0.0109,0.02252 -0.0724,0.02493 -0.55474,0.02493 -0.46735,0 -0.54985,0 -0.58023,0.02493 l -0.0354,0.02493 v 7.060571 c 0,5.470213 0,7.064831 0.0193,7.079624 0.0136,0.01366 0.16176,0.01929 0.56512,0.01929 0.47492,0 0.54896,0 0.57092,0.02493 0.0201,0.0201 0.0249,0.07075 0.0249,0.293856 0,0.223104 0,0.273032 -0.0249,0.293855 -0.0225,0.02251 -0.24112,0.02493 -2.1677,0.02493 -1.92666,0 -2.14518,0 -2.16778,-0.02493 z"
     style="fill:#000000;stroke-width:0.01594725" />
  <circle
     r="75.192505"
     cy="128.54251"
     cx="124.80251"
     id="path118"
     style="opacity:1;fill:none;fill-opacity:1;stroke:#000000;stroke-width:0.7961002;stroke-miterlimit:4;stroke-dasharray:none;stroke-opacity:1" />
  <text
     id="text927"
     y="230.54091"
     x="97.178932"
     style="font-style:normal;font-weight:normal;font-size:13.33333302px;line-height:1.25;font-family:sans-serif;letter-spacing:0px;word-spacing:0px;fill:#000000;fill-opacity:1;stroke:none"
     xml:space="preserve"><tspan
       y="230.54091"
       x="97.178932"
       id="tspan925">40.00mm</tspan></text>
</svg>
