<?xml version="1.0" encoding="UTF-8" standalone="no"?>
<!-- Created with Inkscape (http://www.inkscape.org/) -->

<svg
   xmlns:dc="http://purl.org/dc/elements/1.1/"
   xmlns:cc="http://creativecommons.org/ns#"
   xmlns:rdf="http://www.w3.org/1999/02/22-rdf-syntax-ns#"
   xmlns:svg="http://www.w3.org/2000/svg"
   xmlns="http://www.w3.org/2000/svg"
   xmlns:sodipodi="http://sodipodi.sourceforge.net/DTD/sodipodi-0.dtd"
   xmlns:inkscape="http://www.inkscape.org/namespaces/inkscape"
   version="1.1"
   id="svg76"
   width="201.60001"
   height="243.84"
   viewBox="0 0 201.60001 243.84"
   sodipodi:docname="50mm_square.svg"
   inkscape:version="0.92.2 5c3e80d, 2017-08-06">
  <metadata
     id="metadata82">
    <rdf:RDF>
      <cc:Work
         rdf:about="">
        <dc:format>image/svg+xml</dc:format>
        <dc:type
           rdf:resource="http://purl.org/dc/dcmitype/StillImage" />
        <dc:title></dc:title>
      </cc:Work>
    </rdf:RDF>
  </metadata>
  <defs
     id="defs80" />
  <sodipodi:namedview
     pagecolor="#ffffff"
     bordercolor="#666666"
     borderopacity="1"
     objecttolerance="10"
     gridtolerance="10"
     guidetolerance="10"
     inkscape:pageopacity="0"
     inkscape:pageshadow="2"
     inkscape:window-width="1440"
     inkscape:window-height="804"
     id="namedview78"
     showgrid="false"
     inkscape:zoom="2"
     inkscape:cx="100.8"
     inkscape:cy="121.92"
     inkscape:window-x="0"
     inkscape:window-y="1"
     inkscape:window-maximized="1"
     inkscape:current-layer="svg76" />
  <path
     style="fill:#000000;stroke-width:0.2393482"
     d="m 119.80839,175.8381 c -2.1596,-0.5661 -3.9895,-1.30213 -10.1317,-4.07527 -5.04476,-2.27766 -9.85811,-3.9966 -12.80512,-4.57296 -0.9215,-0.18022 -3.02178,-0.3275 -4.6673,-0.32729 -3.33895,3.7e-4 -5.65713,0.42988 -8.587011,1.5908 -0.971085,0.38477 -1.799038,0.66615 -1.839913,0.62528 -0.04089,-0.0409 -0.30284,-0.60744 -0.582149,-1.25905 -0.46982,-1.09604 -0.478021,-1.20654 -0.109545,-1.47598 0.78028,-0.57055 4.770228,-2.03507 7.384758,-2.71059 1.46123,-0.37756 2.49523,-0.73537 2.29777,-0.79516 -0.19746,-0.0598 -1.22067,-0.29376 -2.2738,-0.51992 -5.668793,-1.21742 -11.286392,-4.52275 -15.916663,-9.36519 -3.897883,-4.07651 -7.114748,-9.59417 -8.961089,-15.37036 -2.715555,-8.4955 -2.67529,-18.72857 0.107689,-27.36757 0.988422,-3.06829 3.732525,-8.47501 5.680399,-11.19213 4.5593,-6.35983 11.312438,-11.12986 18.378944,-12.98183 2.68802,-0.704474 3.13077,-0.75146 7.17311,-0.761275 4.58782,-0.01117 6.01781,0.197406 9.60077,1.400173 10.78222,3.619462 19.49331,13.749602 22.69824,26.395812 2.15372,8.49822 1.61677,18.78028 -1.38688,26.55772 -2.22105,5.75102 -4.83027,9.79692 -8.99586,13.94913 -4.66527,4.65028 -8.79602,7.08922 -14.61614,8.62989 l -1.07707,0.28511 2.44248,0.4168 c 3.03661,0.51819 5.6165,1.35908 9.16591,2.98753 1.51388,0.69456 3.56031,1.55215 4.54762,1.90577 6.75446,2.41915 13.65232,2.69212 18.11838,0.71703 0.73061,-0.32312 1.3684,-0.58748 1.4173,-0.58748 0.0489,0 -0.11445,0.53522 -0.363,1.18937 -0.94851,2.49625 -3.02025,4.58889 -5.8054,5.86398 -2.92033,1.33697 -7.63009,1.70341 -10.89473,0.84766 z M 98.85628,156.54763 c 2.50223,-0.51465 4.93921,-1.49176 7.16682,-2.87356 2.31045,-1.43319 6.269,-5.32377 7.89624,-7.76066 7.57603,-11.34563 8.54097,-27.10284 2.42823,-39.65282 -2.92558,-6.0065 -7.45328,-10.73282 -12.67172,-13.2276 -3.00802,-1.43803 -5.31486,-1.97073 -8.5994,-1.98575 -3.36213,-0.0154 -5.82299,0.55597 -8.97556,2.08388 -12.10005,5.86439 -18.968216,22.9943 -15.683014,39.11506 3.344124,16.40988 15.655754,26.93054 28.438404,24.30145 z M 75.125613,130.65498 c -0.06224,-0.10073 -0.115151,-2.84725 -0.11755,-6.10338 l -0.0045,-5.92024 h 3.228642 c 3.842258,0 5.13776,0.27062 5.957112,1.24437 0.752633,0.89445 0.813023,2.5838 0.132261,3.70023 -0.455244,0.74659 -0.455214,0.76123 0.0015,1.17492 0.254592,0.23039 0.574292,0.83263 0.710452,1.33829 0.5148,1.91182 -0.64548,3.95907 -2.542256,4.4857 -1.061452,0.29471 -7.192364,0.36138 -7.366195,0.0801 z m 6.197703,-2.93618 c 0.460646,-0.3823 0.443943,-1.06045 -0.03802,-1.54239 -0.279603,-0.2796 -0.729883,-0.36774 -1.615603,-0.31628 -1.209534,0.0703 -1.229149,0.0838 -1.306645,0.8985 -0.102189,1.07437 0.461038,1.5262 1.703661,1.36673 0.498821,-0.064 1.064282,-0.24696 1.256581,-0.40656 z m -0.675518,-4.68861 c 0.291832,-0.0782 0.601704,-0.36627 0.688615,-0.64008 0.241572,-0.76113 -0.698611,-1.40665 -1.918466,-1.31719 -0.873724,0.0641 -0.984348,0.14281 -1.053885,0.75002 -0.0427,0.37313 -0.01916,0.83089 0.05236,1.01723 0.134585,0.35072 1.270998,0.4475 2.231408,0.19002 z m 8.444942,7.47566 c 0,-0.27055 3.232,-9.28625 4.19247,-11.69498 0.13461,-0.33757 0.46279,-0.41886 1.69103,-0.41886 1.42216,0 1.54628,0.044 1.85741,0.65822 0.49017,0.96773 4.17468,10.62939 4.26715,11.18952 0.0722,0.43716 -0.0728,0.48483 -1.67126,0.54932 l -1.75029,0.0706 -0.38386,-0.97722 -0.38386,-0.97721 -1.9141,0.0689 -1.91409,0.0689 -0.28058,0.83771 -0.28057,0.83773 -1.71472,0.0703 c -1.38393,0.0567 -1.71473,0.002 -1.71473,-0.28292 z m 6.9411,-4.6185 c 0,-0.44502 -0.80252,-2.94772 -0.94521,-2.94772 -0.16928,0 -0.96957,2.33869 -0.96957,2.83338 0,0.16494 0.38966,0.27815 0.95739,0.27815 0.52657,0 0.95739,-0.0737 0.95739,-0.16381 z m 9.77585,4.83356 c -0.0644,-0.0644 -0.0908,-2.78406 -0.0585,-6.04354 l 0.0587,-5.92633 3.37984,-0.0665 c 2.92911,-0.0576 3.52124,-0.004 4.4402,0.40258 1.46058,0.64608 2.02848,1.64013 2.02962,3.55261 7.5e-4,1.38383 -0.0639,1.567 -0.8692,2.45834 l -0.87011,0.9631 0.98978,2.13029 c 0.54438,1.17166 0.98978,2.24647 0.98978,2.38847 0,0.16127 -0.66107,0.25817 -1.76141,0.25817 h -1.7614 l -0.81525,-1.97015 c -0.65135,-1.57407 -0.94589,-2.01609 -1.46513,-2.19869 -0.35743,-0.1257 -0.72704,-0.15138 -0.82136,-0.057 -0.0943,0.0943 -0.14292,1.08372 -0.10801,2.1987 l 0.0634,2.02721 h -1.65188 c -0.90853,0 -1.70463,-0.0527 -1.76909,-0.11721 z m 6.02114,-6.82389 c 0.54681,-0.5468 0.6198,-1.39097 0.1731,-2.00187 -0.38037,-0.52019 -1.81282,-0.86295 -2.51729,-0.60234 -0.45455,0.16814 -0.52799,0.37393 -0.52799,1.47954 0,0.70633 0.0718,1.35604 0.15957,1.44381 0.3726,0.37259 2.24065,0.15282 2.71261,-0.31914 z"
     id="path88"
     inkscape:connector-curvature="0" />
  <rect
     style="fill:none;fill-opacity:1;stroke:#000000;stroke-width:1;stroke-miterlimit:4;stroke-dasharray:none;stroke-opacity:1"
     id="rect90"
     width="101"
     height="101"
     x="47"
     y="78.839996" />
  <path
     style="fill:none;stroke:#000000;stroke-width:1px;stroke-linecap:butt;stroke-linejoin:miter;stroke-opacity:1"
     d="m 46.5,186.84 h 101 0.5 v 0"
     id="path92"
     inkscape:connector-curvature="0" />
  <text
     xml:space="preserve"
     style="font-style:normal;font-weight:normal;font-size:40px;line-height:1.25;font-family:sans-serif;letter-spacing:0px;word-spacing:0px;fill:#000000;fill-opacity:1;stroke:none"
     x="69"
     y="203.84"
     id="text96"><tspan
       sodipodi:role="line"
       id="tspan94"
       x="69"
       y="203.84"
       style="font-size:13.33333302px">50.00mm</tspan></text>
</svg>
