<?xml version="1.0" encoding="UTF-8" standalone="no"?>
<!-- Created with Inkscape (http://www.inkscape.org/) -->

<svg
   xmlns:dc="http://purl.org/dc/elements/1.1/"
   xmlns:cc="http://creativecommons.org/ns#"
   xmlns:rdf="http://www.w3.org/1999/02/22-rdf-syntax-ns#"
   xmlns:svg="http://www.w3.org/2000/svg"
   xmlns="http://www.w3.org/2000/svg"
   xmlns:sodipodi="http://sodipodi.sourceforge.net/DTD/sodipodi-0.dtd"
   xmlns:inkscape="http://www.inkscape.org/namespaces/inkscape"
   width="100mm"
   height="100mm"
   viewBox="0 0 100 100"
   version="1.1"
   id="svg122"
   inkscape:version="0.92.2 5c3e80d, 2017-08-06"
   sodipodi:docname="50mm_ci.svg">
  <defs
     id="defs116" />
  <sodipodi:namedview
     id="base"
     pagecolor="#ffffff"
     bordercolor="#666666"
     borderopacity="1.0"
     inkscape:pageopacity="0.0"
     inkscape:pageshadow="2"
     inkscape:zoom="1.979899"
     inkscape:cx="200.83895"
     inkscape:cy="156.02309"
     inkscape:document-units="mm"
     inkscape:current-layer="layer1"
     showgrid="false"
     inkscape:window-width="1440"
     inkscape:window-height="805"
     inkscape:window-x="0"
     inkscape:window-y="1"
     inkscape:window-maximized="1" />
  <metadata
     id="metadata119">
    <rdf:RDF>
      <cc:Work
         rdf:about="">
        <dc:format>image/svg+xml</dc:format>
        <dc:type
           rdf:resource="http://purl.org/dc/dcmitype/StillImage" />
        <dc:title></dc:title>
      </cc:Work>
    </rdf:RDF>
  </metadata>
  <g
     inkscape:label="Layer 1"
     inkscape:groupmode="layer"
     id="layer1"
     transform="translate(0,-197)">
    <path
       style="fill:#000000;stroke-width:0.0330159"
       d="m 47.380975,266.24775 c -0.154369,-0.0147 -0.53321,-0.051 -0.8419,-0.0803 -3.908923,-0.37251 -7.112129,-1.15646 -8.974305,-2.19636 -0.742537,-0.41465 -1.024804,-0.63067 -2.300636,-1.76066 -0.624915,-0.55346 -2.136992,-2.07466 -2.515832,-2.53097 -0.832988,-1.0034 -2.858867,-4.06794 -3.784357,-5.72448 -0.958253,-1.71523 -1.579305,-3.34372 -1.915638,-5.02292 -0.284369,-1.41988 -0.412231,-2.89446 -0.413462,-4.76818 0,-2.02989 0.187963,-3.60735 0.657605,-5.48064 0.585064,-2.33354 1.550406,-4.31785 3.36499,-6.91699 1.788681,-2.56201 3.722661,-4.63239 5.76203,-6.16844 1.241825,-0.93536 2.661917,-1.78635 4.523381,-2.71068 3.37354,-1.67515 6.053294,-2.4583 8.881294,-2.59554 0.746003,-0.0361 1.073823,-0.0262 1.832408,0.0556 2.315249,0.25007 5.242925,1.43555 8.386017,3.39569 2.877633,1.79461 5.023694,3.37436 6.257368,4.60611 0.477805,0.47707 0.721996,0.78131 1.179922,1.46991 1.057653,1.5905 1.939307,3.46295 3.07782,6.53664 0.465512,1.2568 0.562398,1.60553 1.118745,4.02794 0.587927,2.56002 0.794623,4.02843 0.798873,5.67632 0.0036,0.93326 -0.0855,1.57968 -0.367091,2.69986 -0.659018,2.6213 -2.607067,7.4251 -3.495773,8.6204 -0.06484,0.0872 -0.229242,0.25185 -0.365424,0.36599 -0.351682,0.29481 -1.143815,1.03672 -2.043983,1.91449 -1.337299,1.30402 -1.951371,1.82462 -3.117501,2.64302 -0.766943,0.53824 -2.11621,1.24873 -3.158537,1.66316 -3.032075,1.20565 -6.550445,1.94823 -10.499037,2.21591 -1.220499,0.0827 -1.70236,0.0981 -2.046977,0.0651 z m 3.17514,-1.54986 c 1.435104,-0.0988 3.883722,-0.51017 5.689623,-0.95583 1.985678,-0.49004 3.411868,-1.04994 4.834763,-1.89805 2.026242,-1.20769 4.667545,-3.31869 6.225561,-4.97558 0.672664,-0.71537 1.10749,-1.5024 1.8604,-3.36752 1.65379,-4.09663 2.231427,-7.00681 1.903065,-9.5879 -0.254046,-1.99718 -1.032231,-5.02931 -2.113274,-8.23426 -0.634214,-1.88026 -1.01041,-2.71665 -1.670661,-3.71429 -0.821503,-1.24137 -1.60371,-2.21208 -2.604074,-3.23162 -1.076501,-1.09717 -1.931141,-1.81583 -3.176601,-2.67126 -1.732213,-1.18974 -4.114144,-2.3099 -7.454729,-3.50574 -1.047677,-0.37506 -1.108916,-0.3889 -2.422062,-0.54759 l -1.183992,-0.14309 -0.780468,0.0888 c -0.854954,0.0972 -2.664998,0.32798 -3.015446,0.38451 -0.833194,0.13438 -2.308245,0.71331 -4.642187,1.82194 -2.9334,1.39339 -4.268996,2.1834 -5.371752,3.17746 -2.778248,2.50445 -5.128831,5.17431 -6.427799,7.30097 -0.650893,1.06562 -1.208109,2.26271 -1.575284,3.38413 -0.390989,1.19413 -0.724677,2.92248 -0.866848,4.49018 -0.05483,0.60392 -0.05519,2.49592 0,3.11998 0.181093,2.07291 0.531615,3.65316 1.100594,4.96173 0.693678,1.5955 2.493517,4.66396 3.740907,6.37766 1.272149,1.74775 2.826769,3.3782 4.468422,4.68642 1.168295,0.93103 2.33166,1.63479 3.249893,1.96601 1.042907,0.37618 2.866874,0.69295 5.45648,0.94766 0.94899,0.0933 1.213724,0.10603 2.607949,0.1255 0.853456,0.0121 1.576587,0.0245 1.606911,0.0281 0.03031,0.004 0.282907,-0.01 0.561275,-0.0283 z m 3.461032,-7.32995 c -0.730268,-0.0678 -1.404477,-0.30482 -2.015711,-0.70848 -0.36488,-0.24094 -0.926832,-0.82039 -1.211792,-1.2495 -0.659961,-0.99379 -1.292218,-2.59922 -1.61081,-4.08991 l -0.05459,-0.25588 -4.379542,-6.3e-4 c -2.858009,0 -4.421422,-0.0121 -4.500086,-0.0337 -0.146677,-0.0407 -0.67049,-0.57276 -0.817723,-0.83055 -0.15635,-0.27374 -0.15635,-0.34239 0,-0.71933 0.153222,-0.36926 0.12093,-0.34993 0.49831,-0.29783 0.707359,0.0977 1.671059,0.1082 11.054479,0.12112 6.16542,0.008 9.599099,9.5e-4 9.673669,-0.0191 0.06353,-0.0178 0.244531,-0.0722 0.40222,-0.12096 0.507137,-0.15691 0.796506,-0.0837 0.956829,0.24171 0.06594,0.13397 0.07716,0.20669 0.07716,0.50327 0,0.29183 -0.01208,0.37276 -0.07584,0.51174 -0.151845,0.33014 -0.448628,0.54627 -0.836623,0.60924 -0.115446,0.0187 -0.687808,0.0342 -1.271785,0.0343 l -1.061807,6.4e-4 0.04576,0.17333 c 0.175189,0.66357 0.188474,1.48845 0.03357,2.07897 -0.110376,0.42061 -0.275685,0.83717 -0.537726,1.35518 -0.85278,1.6858 -1.944945,2.54145 -3.443339,2.69771 -0.351441,0.0366 -0.517438,0.0364 -0.924464,-9.6e-4 z m 0.759022,-1.66694 c 0.678425,-0.1287 1.191672,-0.42236 1.550093,-0.88691 0.203216,-0.2634 0.737163,-1.16112 0.944208,-1.58738 0.251678,-0.51826 0.328254,-0.81882 0.294307,-1.15552 -0.03514,-0.34798 -0.03708,-0.58539 -0.006,-0.81717 l 0.02524,-0.18985 h -1.502499 c -0.909949,0 -1.502537,0.0122 -1.502537,0.0309 0,0.0169 0.01534,0.0714 0.03429,0.12125 0.01896,0.0498 0.04093,0.2624 0.04891,0.47261 0.0085,0.21024 0.03152,0.56193 0.05205,0.78154 0.02874,0.30471 0.02838,0.41651 0,0.47206 -0.130626,0.24412 -0.663003,0.10386 -1.04496,-0.27545 -0.236305,-0.23462 -0.368152,-0.49078 -0.572625,-1.1124 -0.132136,-0.40172 -0.141278,-0.41836 -0.243045,-0.44256 -0.0582,-0.0139 -0.545864,-0.0307 -1.08388,-0.0373 l -0.978131,-0.0123 0.0268,0.14339 c 0.133319,0.71375 0.650829,2.35706 0.941102,2.98865 0.393273,0.85561 1.099329,1.422 1.912801,1.5345 0.251679,0.0348 0.855617,0.0197 1.105678,-0.0278 z m -0.809801,-14.7687 c -0.312205,-0.14182 -0.587698,-0.65457 -0.50773,-0.94498 0.02331,-0.0836 0.377645,-0.60943 0.968652,-1.43618 0.512788,-0.71727 0.943942,-1.32397 0.958144,-1.34823 0.01823,-0.0308 -0.263598,-0.33585 -0.929318,-1.00698 -0.599798,-0.60467 -0.977262,-1.01079 -1.014601,-1.09163 -0.246789,-0.5345 0.268984,-1.27444 0.888392,-1.27444 0.07982,0 0.187012,0.0157 0.238106,0.035 0.05108,0.0193 0.497729,0.43851 0.99244,0.93171 0.775541,0.77315 0.905662,0.89003 0.94422,0.84817 0.02439,-0.0267 0.323677,-0.43483 0.664707,-0.90694 0.341018,-0.47212 0.664658,-0.90571 0.71923,-0.96351 0.236693,-0.25086 0.664865,-0.32449 0.969919,-0.16681 0.444015,0.2295 0.616994,0.73197 0.411688,1.19603 -0.03586,0.0815 -0.38029,0.59028 -0.764976,1.13044 -0.384636,0.54017 -0.707128,1.00234 -0.716584,1.02706 -0.01088,0.0278 0.41444,0.47724 1.108721,1.17246 0.837046,0.83819 1.143054,1.16563 1.192614,1.27607 0.17752,0.3956 0,0.86761 -0.423388,1.11556 -0.123961,0.0728 -0.192216,0.0894 -0.366898,0.0889 -0.185236,-6.4e-4 -0.247656,-0.0182 -0.456152,-0.12906 -0.214182,-0.11387 -0.346825,-0.23639 -1.170188,-1.08123 -0.510736,-0.52408 -0.939644,-0.94886 -0.95317,-0.94397 -0.0134,0.005 -0.390663,0.50659 -0.838107,1.1149 -0.882197,1.19937 -0.96946,1.30554 -1.129263,1.3741 -0.159067,0.0682 -0.62133,0.0586 -0.786458,-0.0164 z m -13.320856,-0.13235 c -0.256955,-0.0831 -0.453313,-0.26219 -0.5591,-0.51015 -0.106995,-0.25086 -0.117622,-0.38774 -0.043,-0.5539 0.03586,-0.0795 0.482502,-0.72419 0.992756,-1.43239 0.510215,-0.70819 0.928243,-1.30409 0.928919,-1.32425 0,-0.0202 -0.426312,-0.45843 -0.948871,-0.97397 -0.605798,-0.59765 -0.973154,-0.98518 -1.013693,-1.06939 -0.129879,-0.26985 -0.04903,-0.67702 0.190488,-0.9602 0.101803,-0.12041 0.418343,-0.2939 0.59254,-0.32484 0.289574,-0.0515 0.331055,-0.0211 1.320139,0.96412 0.503357,0.5014 0.921275,0.90502 0.928727,0.89693 0.0072,-0.008 0.321033,-0.43817 0.696877,-0.9557 0.375797,-0.51752 0.72301,-0.97399 0.771557,-1.01438 0.115206,-0.0959 0.408523,-0.20721 0.545852,-0.20721 0.335077,0 0.730401,0.30219 0.82881,0.63354 0.06424,0.21644 0.06365,0.29008 -0.0048,0.53315 -0.04697,0.16767 -0.170177,0.35246 -0.826008,1.23946 l -0.770723,1.04242 1.154804,1.15634 c 0.860039,0.8612 1.171844,1.1943 1.221489,1.30494 0.08827,0.19685 0.08804,0.45348 0,0.64218 -0.08018,0.17057 -0.345329,0.43059 -0.508683,0.49884 -0.162255,0.0678 -0.413015,0.0588 -0.634685,-0.0228 -0.175829,-0.0647 -0.273416,-0.15221 -1.222599,-1.09636 -0.761377,-0.75739 -1.041181,-1.01638 -1.068497,-0.98908 -0.02052,0.0204 -0.40443,0.55456 -0.853566,1.18716 -0.954593,1.34456 -0.95463,1.34459 -1.366075,1.35527 -0.148258,0.004 -0.306806,-0.005 -0.352297,-0.0198 z"
       id="path74"
       inkscape:connector-curvature="0" />
    <text
       xml:space="preserve"
       style="font-style:normal;font-weight:normal;font-size:3.52777767px;line-height:1.25;font-family:sans-serif;letter-spacing:0px;word-spacing:0px;fill:#000000;fill-opacity:1;stroke:none;stroke-width:0.26458332"
       x="43.585297"
       y="277.36325"
       id="text80"><tspan
         sodipodi:role="line"
         id="tspan78"
         x="43.585297"
         y="277.36325"
         style="stroke-width:0.26458332">50.00mm</tspan><tspan
         sodipodi:role="line"
         x="43.585297"
         y="281.77298"
         id="tspan82"
         style="stroke-width:0.26458332" /></text>
    <circle
       style="fill:none;fill-opacity:1;stroke:#000000;stroke-width:0.49378991;stroke-miterlimit:4;stroke-dasharray:none;stroke-opacity:1"
       id="path199"
       cx="49.537769"
       cy="243.67749"
       r="24.753105" />
  </g>
</svg>
