<?xml version="1.0" encoding="UTF-8" standalone="no"?>
<svg
   xmlns:dc="http://purl.org/dc/elements/1.1/"
   xmlns:cc="http://creativecommons.org/ns#"
   xmlns:rdf="http://www.w3.org/1999/02/22-rdf-syntax-ns#"
   xmlns:svg="http://www.w3.org/2000/svg"
   xmlns="http://www.w3.org/2000/svg"
   xmlns:xlink="http://www.w3.org/1999/xlink"
   viewBox="0 0 903.20001 370.39999"
   height="370.39999"
   width="903.20001"
   id="svg2046"
   version="1.1">
  <metadata
     id="metadata2052">
    <rdf:RDF>
      <cc:Work
         rdf:about="">
        <dc:format>image/svg+xml</dc:format>
        <dc:type
           rdf:resource="http://purl.org/dc/dcmitype/StillImage" />
        <dc:title></dc:title>
      </cc:Work>
    </rdf:RDF>
  </metadata>
  <defs
     id="defs2050">
    <marker
       id="Arrow1Lstart"
       orient="auto"
       refX="0.0"
       refY="0.0"
       style="overflow:visible">
      <path
         d="M 0.0,0.0 L 5.0,-5.0 L -12.5,0.0 L 5.0,5.0 L 0.0,0.0 z "
         transform="scale(0.8) translate(12.5,0)"
         style="fill-rule:evenodd;stroke:#000000;stroke-width:1.0pt;marker-start:none"
         id="path2065" />
    </marker>
    <marker
       id="Arrow1Lend"
       orient="auto"
       refX="0.0"
       refY="0.0"
       style="overflow:visible">
      <path
         d="M 0.0,0.0 L 5.0,-5.0 L -12.5,0.0 L 5.0,5.0 L 0.0,0.0 z "
         transform="scale(0.8) rotate(180) translate(12.5,0)"
         style="fill-rule:evenodd;stroke:#000000;stroke-width:1.0pt;marker-start:none"
         id="path2068" />
    </marker>
  </defs>
  <path
     style="fill:#000000;stroke-width:0.34828451"
     d="m 435.64731,209.7135 c -0.5381,-0.0809 -1.05163,-0.33804 -1.1412,-0.57143 -0.0896,-0.2334 0.46011,-4.6386 1.2215,-9.78934 0.76138,-5.15075 1.30485,-9.4936 1.20771,-9.65078 -0.0971,-0.15719 -0.30515,-0.28579 -0.46224,-0.28579 -0.15709,0 -1.34609,4.27084 -2.64222,9.49075 -1.29613,5.21991 -2.50421,9.68001 -2.68463,9.91133 -0.37151,0.47633 -1.26112,0.36323 -5.21617,-0.66315 -1.47678,-0.38325 -2.84252,-0.88654 -3.03498,-1.11844 -0.24951,-0.30064 1.0957,-2.90947 4.68769,-9.09106 2.77069,-4.76818 5.03761,-8.79465 5.03761,-8.94771 0,-1.16902 -1.70385,0.85425 -6.95151,8.25468 -3.32791,4.69313 -6.26371,8.53297 -6.524,8.53297 -0.57499,0 -5.12748,-2.258 -6.48222,-3.21512 -0.53692,-0.37934 -0.92874,-0.88656 -0.87071,-1.12717 0.058,-0.2406 3.47517,-3.2212 7.59363,-6.62354 9.03534,-7.46428 8.95208,-7.3876 8.50589,-7.83379 -0.23219,-0.23219 -3.42032,1.79808 -9.56428,6.09071 -5.0688,3.54145 -9.43009,6.43917 -9.69176,6.43939 -1.6823,0.001 -10.07419,-8.60435 -9.19761,-9.432 0.14833,-0.14005 2.04411,-0.5114 4.21284,-0.82521 5.3558,-0.77499 11.31897,-2.32365 13.83146,-3.59208 5.16065,-2.60536 8.17258,-7.90131 8.17258,-14.37005 0,-5.92639 -2.50283,-10.2657 -7.33275,-12.7132 -3.98477,-2.01924 -10.57085,-3.05212 -14.43503,-2.26381 -1.14934,0.23448 -4.2839,1.41187 -6.96569,2.61643 -10.25959,4.60823 -19.87355,7.48449 -31.3456,9.37783 -6.71691,1.10856 -22.0568,2.73678 -30.12661,3.19774 -3.71274,0.21208 -4.06887,0.17655 -4.87599,-0.48646 -0.58164,-0.47779 -0.75508,-0.83158 -0.52242,-1.06567 0.19155,-0.19273 3.63957,-1.08016 7.66226,-1.97206 8.9847,-1.99207 28.00463,-6.7246 28.72696,-7.14783 0.84588,-0.49562 -1.33229,-0.40128 -8.20862,0.35554 -14.13156,1.55534 -21.16793,1.89234 -39.86305,1.90926 -16.76403,0.0152 -18.01535,-0.0255 -18.91574,-0.61525 -0.5494,-0.35983 -0.91632,-0.87992 -0.85295,-1.20899 0.0949,-0.49291 1.51384,-0.71608 9.6862,-1.52343 14.56609,-1.43899 29.78843,-3.47351 41.4091,-5.53447 6.22341,-1.10374 5.89499,-1.41312 -1.18508,-1.11636 -9.54527,0.40009 -35.10984,0.27685 -41.96829,-0.20231 -15.50746,-1.08342 -24.46689,-2.15089 -25.43935,-3.03096 -1.53336,-1.38767 -1.1276,-1.46445 8.98291,-1.69991 19.62647,-0.45706 33.24565,-1.21328 47.62791,-2.64457 8.5689,-0.85277 9.96208,-1.04904 9.76055,-1.37512 -0.0871,-0.141 -5.6102,-0.35344 -12.27347,-0.47209 -19.99931,-0.35612 -40.04674,-2.34367 -58.48699,-5.79855 -5.56356,-1.04237 -6.74143,-1.54917 -6.74143,-2.90067 0,-0.64579 0.16396,-0.67605 2.52506,-0.46615 13.7531,1.2227 47.78812,1.70484 62.51301,0.88557 8.06858,-0.44892 9.72746,-0.83212 4.96712,-1.1474 -1.81979,-0.12053 -5.73799,-0.38107 -8.70712,-0.57899 -14.83454,-0.98883 -28.96042,-2.90868 -44.75456,-6.08259 -12.15763,-2.44314 -20.20874,-4.44028 -21.08046,-5.22918 -0.76749,-0.69457 -0.92564,-1.90719 -0.24874,-1.90719 0.24122,0 4.1986,0.46505 8.79419,1.03345 17.04828,2.1086 29.24294,2.98896 48.97279,3.53544 12.84389,0.35575 17.46892,0.28774 16.93218,-0.249 -0.0896,-0.0896 -3.59281,-0.55668 -7.78492,-1.03797 -22.97277,-2.63745 -42.18479,-6.67443 -65.53521,-13.77078 -2.57711,-0.7832 -4.2556,-1.92838 -4.2556,-2.90347 0,-0.72964 0.028,-0.72689 8.44589,0.82817 18.18044,3.35855 38.66485,5.80758 58.59888,7.00586 8.89798,0.53487 32.21631,0.85948 32.21631,0.44847 0,-0.1884 -1.44973,-1.07412 -3.22163,-1.96826 -3.31055,-1.67059 -5.45064,-3.17309 -5.0666,-3.55713 0.11963,-0.11963 2.19869,-0.0482 4.62012,0.15873 5.96131,0.50944 14.17217,0.46173 25.4359,-0.1478 16.77959,-0.90801 24.67884,-0.64662 31.61557,1.04618 3.76357,0.91843 8.61129,3.0667 8.61129,3.8161 0,0.94554 -2.23731,1.90058 -5.25585,2.24357 -5.171,0.58757 -8.78561,2.50991 -11.54304,6.1389 -1.89865,2.49877 -2.77747,5.03132 -2.97002,8.55887 -0.39886,7.30724 3.67994,13.26914 10.69471,15.63224 1.90696,0.64241 3.08969,0.75142 8.68831,0.80082 6.93622,0.0612 8.39388,-0.17955 9.73578,-1.60795 0.817,-0.86965 1.32329,-3.4683 0.95873,-4.92085 -0.13697,-0.54574 -0.6059,-1.05391 -1.17588,-1.2743 -1.39646,-0.53994 -6.18783,-0.43551 -7.38341,0.16092 -0.83827,0.41819 -1.03774,0.42352 -1.18807,0.0318 -0.31036,-0.8088 0.69784,-3.96661 1.5682,-4.91179 0.96097,-1.04361 3.25594,-2.1849 4.41582,-2.19601 0.43922,-0.004 1.61468,-0.61317 2.61213,-1.35324 2.23577,-1.65888 3.61245,-2.13725 6.1507,-2.13725 1.42334,0 2.4738,0.25138 3.78881,0.90667 2.78894,1.38979 2.98762,1.97034 3.19329,9.3311 l 0.17414,6.2325 0.98282,0.73319 c 0.89646,0.66876 1.52888,0.74376 7.19735,0.85357 8.36954,0.16211 10.79288,-0.51793 14.75741,-4.14129 3.68115,-3.36436 5.58499,-8.80681 4.78187,-13.66984 -1.17569,-7.1191 -6.83452,-12.37908 -14.12721,-13.13149 -4.70822,-0.48576 -6.60952,-1.99603 -4.29356,-3.41053 1.82476,-1.1145 6.77909,-2.72489 10.3794,-3.37379 4.43488,-0.79933 15.84051,-1.06492 24.20577,-0.56365 11.63507,0.6972 23.28925,0.86331 28.85772,0.41132 2.84591,-0.231 5.27419,-0.32019 5.39619,-0.1982 0.40356,0.40357 -2.16583,2.23068 -5.25337,3.7357 -1.6729,0.81546 -3.04427,1.60019 -3.04749,1.74386 -0.008,0.37292 15.06921,0.32138 24.72234,-0.0845 23.18001,-0.97469 42.81582,-3.15457 66.43677,-7.37551 4.45449,-0.796 8.20548,-1.34089 8.33549,-1.21087 0.13002,0.13002 -0.0774,0.66484 -0.46085,1.18848 -0.77051,1.05209 -3.54686,2.09688 -12.14262,4.56953 -19.04965,5.47979 -38.0841,9.20965 -58.82865,11.52767 -3.43072,0.38335 -6.30158,0.7609 -6.37966,0.83898 -0.46622,0.46622 4.01455,0.60032 13.25007,0.39656 19.15754,-0.42267 36.28298,-1.61937 52.80795,-3.69013 9.42862,-1.18151 9.42468,-1.18129 9.42468,-0.53153 0,1.20234 -2.05031,2.22179 -6.68901,3.32593 -22.76409,5.41851 -42.79414,8.40862 -65.38162,9.76025 -8.86927,0.53073 -8.44877,0.84025 1.8913,1.39214 14.78482,0.78911 46.88739,0.3224 62.08172,-0.90255 3.20923,-0.25873 3.63187,0.075 2.01667,1.59237 -1.01131,0.95009 -6.79507,2.09904 -20.21454,4.01565 -16.3213,2.33105 -27.9978,3.25888 -44.65657,3.54844 -6.74636,0.11727 -12.19613,0.32644 -12.1106,0.46482 0.21871,0.35389 1.78753,0.57121 9.92291,1.37456 14.9998,1.4812 27.57079,2.17878 47.80204,2.65259 5.3157,0.12449 9.6649,0.33569 9.6649,0.46933 0,0.49426 -1.43716,1.76459 -2.18643,1.93263 -2.98716,0.66993 -19.69838,2.09633 -31.07474,2.6524 -7.90693,0.3865 -29.25544,0.26075 -37.96301,-0.2236 -14.92347,-0.83011 27.07456,5.49958 47.71497,7.19131 2.6818,0.21981 5.02702,0.53947 5.21161,0.71035 0.2095,0.19395 -0.0225,0.66882 -0.61755,1.26374 l -0.95315,0.95302 -18.01568,-0.0127 c -18.23639,-0.0129 -25.5818,-0.34711 -38.39033,-1.7469 -7.10623,-0.77662 -10.82409,-0.95978 -9.75196,-0.48044 1.28668,0.57528 19.91919,5.22034 28.6464,7.14152 7.86369,1.73109 8.44161,2.00285 6.69413,3.14785 -0.98094,0.64273 -3.06037,0.581 -14.09518,-0.41843 -24.56821,-2.22516 -36.9609,-5.08486 -52.79837,-12.18359 -6.0488,-2.71122 -8.60405,-3.07974 -14.12085,-2.03657 -4.77371,0.90266 -7.58427,2.2656 -10.00229,4.85047 -2.49949,2.67196 -3.55254,5.14012 -3.793,8.89012 -0.42265,6.59088 2.83966,12.7347 8.2059,15.45398 2.75187,1.39448 10.41267,3.22563 16.17359,3.86596 1.10145,0.12242 2.00264,0.38623 2.00264,0.58622 0,1.26286 -7.2614,8.78863 -8.86927,9.19218 -0.63363,0.15904 -2.73144,-1.14156 -10.12982,-6.28026 -6.73506,-4.67797 -9.43528,-6.37454 -9.70668,-6.09879 -0.26978,0.2741 -0.22266,0.49838 0.16678,0.79393 2.48207,1.88362 16.34903,13.61551 16.34903,13.83179 0,0.72696 -7.06286,4.33937 -7.87492,4.02776 -0.23337,-0.0896 -3.11803,-3.93437 -6.41035,-8.54402 -3.29232,-4.60966 -6.12684,-8.3812 -6.29892,-8.3812 -0.71589,0 -0.0809,1.29545 4.58812,9.36055 2.69555,4.65618 4.82683,8.65907 4.73617,8.89531 -0.26741,0.69686 -7.45986,2.42929 -8.19621,1.97421 -0.1947,-0.12034 -1.39467,-4.3796 -2.66659,-9.46503 -1.27192,-5.08543 -2.44834,-9.46588 -2.61425,-9.73434 -0.84647,-1.36962 -0.73339,0.88228 0.46102,9.18041 0.72188,5.01528 1.30725,9.45002 1.30083,9.85499 -0.01,0.60943 -0.29011,0.77446 -1.62757,0.95778 -1.69275,0.23201 -4.14731,0.21935 -5.80572,-0.03 z"
     id="path2058" />
  <g
     fill="none"
     stroke="black"
     id="g2087">
    <path
       style="stroke-width:1;marker-start:url(#Arrow1Lstart);marker-end:url(#Arrow1Lend)"
       d="m 257.5,63.899994 h 367"
       id="path2074" />
    <path
       d="M 257.500000 -6.100006 V 222.899994"
       stroke-width="0.5"
       id="path2076" />
    <path
       d="M 624.500000 -6.100006 V 222.899994"
       stroke-width="0.5"
       id="path2078" />
    <path
       style="stroke-width:1;marker-start:url(#Arrow1Lstart);marker-end:url(#Arrow1Lend)"
       d="M 207.5,222.89999 V 93.899994"
       id="path2080" />
    <path
       d="M 157.500000 93.899994 H 624.500000"
       stroke-width="0.5"
       id="path2082" />
    <path
       d="M 157.500000 222.899994 H 624.500000"
       stroke-width="0.5"
       id="path2084" />
    <rect
       style="fill:none;fill-opacity:1;stroke:#000000;stroke-width:1;stroke-miterlimit:4;stroke-dasharray:none;stroke-opacity:1"
       id="rect2062"
       width="366"
       height="128"
       x="258"
       y="94.399994" />
    <text
       id="text2107"
       y="59.399994"
       x="378"
       style="font-style:normal;font-weight:normal;font-size:40px;line-height:1.25;font-family:sans-serif;letter-spacing:0px;word-spacing:0px;fill:#000000;fill-opacity:1;stroke:none"
       xml:space="preserve"><tspan
         y="59.399994"
         x="378"
         id="tspan2105">50mm</tspan></text>
    <text
       transform="translate(-15)"
       x="-16"
       id="text2111"
       style="font-style:normal;font-weight:normal;font-size:40px;line-height:1.25;font-family:sans-serif;letter-spacing:0px;word-spacing:0px;fill:#000000;fill-opacity:1;stroke:none"
       xml:space="preserve"><textPath
         id="textPath2113"
         xlink:href="#path2080"><tspan
   id="tspan2109">20mm</tspan></textPath></text>
  </g>
</svg>
