<?xml version="1.0" encoding="UTF-8" standalone="no"?>
<svg
   xmlns:dc="http://purl.org/dc/elements/1.1/"
   xmlns:cc="http://creativecommons.org/ns#"
   xmlns:rdf="http://www.w3.org/1999/02/22-rdf-syntax-ns#"
   xmlns:svg="http://www.w3.org/2000/svg"
   xmlns="http://www.w3.org/2000/svg"
   viewBox="0 0 480 480"
   height="480"
   width="480"
   id="svg45"
   version="1.1">
  <metadata
     id="metadata51">
    <rdf:RDF>
      <cc:Work
         rdf:about="">
        <dc:format>image/svg+xml</dc:format>
        <dc:type
           rdf:resource="http://purl.org/dc/dcmitype/StillImage" />
        <dc:title></dc:title>
      </cc:Work>
    </rdf:RDF>
  </metadata>
  <defs
     id="defs49" />
  <path
     id="path862"
     d="m 158.40239,256.33804 c -0.24795,-0.31524 -1.01448,-2.94245 -2.35736,-8.07967 -1.82707,-6.98956 -2.01678,-7.65549 -3.78883,-13.30029 -1.67148,-5.32439 -2.85763,-9.33685 -6.19732,-20.96403 -3.78197,-13.16693 -6.77895,-23.04596 -7.93001,-26.13984 -0.189,-0.50803 -0.31839,-0.94895 -0.28752,-0.97981 0.0782,-0.0783 16.22718,-0.11637 16.34644,-0.0386 0.0533,0.0348 0.14481,0.15428 0.20332,0.26556 0.15402,0.29294 1.1188,3.6946 2.49484,8.79637 1.41126,5.23239 1.56751,5.78134 5.09417,17.89853 1.48796,5.11246 2.86823,9.76261 3.06727,10.33368 0.54194,1.55496 1.03532,2.5854 1.22079,2.54969 0.0852,-0.0164 0.27689,-0.32317 0.42597,-0.68168 0.58323,-1.40258 8.66337,-26.18205 9.92471,-30.43622 1.74461,-5.88415 2.59077,-8.52227 2.80389,-8.74194 0.10542,-0.10865 0.42042,-0.21245 0.80777,-0.26615 0.78955,-0.10947 15.32503,-0.17764 15.48692,-0.0726 0.0857,0.0556 -0.0853,0.67479 -0.62818,2.2744 -0.86165,2.53867 -8.29612,24.67109 -11.89923,35.42397 -10.79693,32.22167 -10.78685,32.1928 -11.24271,32.18436 -1.35892,-0.0251 -12.04622,0.10908 -12.59791,0.1582 -0.72183,0.0643 -0.75715,0.0574 -0.94702,-0.18393 z m 28.14908,0.13152 c -0.24317,-0.15619 -0.15291,-0.81562 0.39401,-2.87843 0.28015,-1.05663 4.12955,-14.75916 8.55423,-30.45004 4.42467,-15.69088 8.35859,-29.6449 8.74204,-31.00894 0.38346,-1.36404 0.82565,-3.06939 0.98266,-3.78967 0.16703,-0.7663 0.35423,-1.37839 0.45123,-1.47541 0.15154,-0.15157 0.77773,-0.16809 7.29655,-0.19245 7.78667,-0.0291 7.44406,-0.0531 7.67545,0.53814 0.0602,0.15378 1.38252,5.3525 2.93852,11.55271 2.9332,11.68797 5.10664,20.25549 10.13475,39.95031 3.20453,12.55192 4.19463,16.49485 4.29584,17.10744 0.036,0.21755 0.0882,0.47342 0.11618,0.5686 0.0481,0.16364 -0.323,0.17305 -6.82203,0.17305 -4.13692,0 -6.97196,-0.0377 -7.12179,-0.0946 -0.13691,-0.052 -0.3204,-0.23288 -0.40777,-0.40183 -0.0874,-0.16895 -0.93623,-3.36171 -1.88637,-7.09502 -0.95014,-3.73331 -1.80642,-6.9233 -1.90285,-7.08886 -0.10447,-0.17938 -0.31414,-0.347 -0.51883,-0.41478 -0.25376,-0.0841 -2.11255,-0.0959 -7.11479,-0.0453 -7.43242,0.0752 -7.17732,0.0522 -7.54272,0.67973 -0.10343,0.17763 -0.96109,3.28133 -1.90588,6.89711 -0.94481,3.61578 -1.7867,6.70733 -1.87089,6.87012 -0.35016,0.67716 0.0528,0.64128 -7.5116,0.66865 -4.25488,0.0154 -6.88351,-0.0112 -6.97594,-0.0706 z m 28.99761,-27.28124 c 1.04322,-0.095 1.13002,-0.18978 0.98195,-1.07241 -0.17709,-1.05557 -3.45743,-13.8399 -3.68978,-14.38002 -0.32974,-0.76652 -0.49294,-0.66519 -0.85383,0.5301 -0.34646,1.14754 -3.53538,13.37322 -3.6367,13.9424 -0.0884,0.49649 0.004,0.81115 0.27511,0.94204 0.25529,0.12305 5.66298,0.15263 6.92325,0.0379 z m 30.13676,27.29136 c -0.35352,-0.0368 -0.74666,-0.1252 -0.87363,-0.19655 -0.5588,-0.31399 -0.52282,0.92805 -0.62036,-21.41972 -0.0716,-16.41024 -0.18693,-32.95746 -0.32574,-46.74964 -0.008,-0.79897 0.0201,-0.9905 0.16687,-1.1372 0.16576,-0.16562 0.56417,-0.17641 6.51139,-0.17641 h 6.33483 l 2.11173,4.72624 c 4.92328,11.01875 6.40291,14.17484 8.81795,18.80884 0.7653,1.46847 2.14637,4.13841 3.06903,5.93321 0.92268,1.7948 1.86499,3.57476 2.09401,3.95548 l 0.41643,0.69221 -0.055,-0.88998 c -0.11129,-1.80161 -0.1762,-33.02263 -0.069,-33.17656 0.0903,-0.12961 0.94066,-0.14638 6.73922,-0.13285 3.64972,0.008 6.66599,0.0456 6.70281,0.0824 0.0368,0.0368 0.0548,15.67073 0.0399,34.74204 -0.024,30.78728 -0.0438,34.69188 -0.17652,34.82467 -0.12933,0.12938 -0.9418,0.154 -6.01912,0.18236 -6.5991,0.0368 -6.27072,0.0711 -6.722,-0.70084 -0.26611,-0.45519 -5.61454,-12.17601 -12.71341,-27.86083 -1.58771,-3.50801 -3.09293,-6.74179 -3.34493,-7.18618 -0.39197,-0.69121 -0.4837,-0.79431 -0.6348,-0.71345 -0.23168,0.12399 -0.23058,0.91724 0.0177,12.79453 0.32796,15.68632 0.43372,22.42883 0.35948,22.91679 -0.0432,0.28396 -0.13743,0.50446 -0.23847,0.55806 -0.20136,0.10682 -10.67528,0.21833 -11.58847,0.12338 z m 68.72641,-0.072 c -8.13098,-0.0736 -15.19486,-0.17232 -15.69751,-0.21946 -0.97169,-0.0911 -1.24243,-0.22505 -1.42605,-0.70538 -0.0934,-0.24439 -0.12631,-2.35536 -0.47703,-30.61124 -0.30561,-24.62156 -0.43081,-37.6754 -0.36392,-37.94194 l 0.0615,-0.24506 18.6177,-0.0647 c 13.11595,-0.0456 18.731,-0.0334 19.00114,0.0412 0.54443,0.15035 0.81477,0.46431 0.9374,1.08869 0.0639,0.32542 0.11606,2.70267 0.13364,6.09187 0.0263,5.06489 0.0143,5.57279 -0.13494,5.7226 -0.26178,0.26285 -1.24,0.27504 -12.07186,0.15052 -10.21965,-0.11749 -11.56474,-0.0928 -11.79086,0.21645 -0.13305,0.18194 -0.20082,3.37776 -0.20082,9.46901 0,4.26786 0.013,4.62245 0.17822,4.8746 0.098,0.14956 0.29827,0.3233 0.44499,0.38609 0.18807,0.0805 2.29436,0.13294 7.13941,0.17776 4.70503,0.0435 7.0001,0.0995 7.2768,0.17755 0.2831,0.0798 0.44086,0.19455 0.52675,0.38303 0.13184,0.28938 0.3694,10.46717 0.25837,11.06971 -0.0316,0.17151 -0.13413,0.34938 -0.22782,0.39526 -0.0937,0.0459 -3.40446,0.1058 -7.35725,0.13316 -7.09835,0.0491 -7.1903,0.0523 -7.46376,0.25652 -0.15993,0.11947 -0.30501,0.34443 -0.34351,0.53267 -0.13637,0.66674 0.14966,13.01854 0.31866,13.7619 0.1257,0.55281 0.39024,0.81952 0.96388,0.97182 0.31356,0.0832 3.29773,0.10863 11.07534,0.0942 5.85536,-0.0109 10.81008,0.013 11.01048,0.053 0.69681,0.13914 0.65248,-0.26284 0.73145,6.63177 0.076,6.63554 0.0652,6.83452 -0.38681,7.09328 -0.29973,0.17161 -3.20323,0.17372 -20.73361,0.0151 z m -204.17247,-0.0938 c -3.88726,-0.5 -7.59482,-1.90375 -10.956005,-4.14814 -2.42121,-1.61672 -4.11617,-3.10802 -4.89057,-4.30295 -0.39167,-0.60436 -0.41439,-0.67835 -0.38024,-1.23841 0.0422,-0.69132 -0.0727,-0.47794 2.78078,-5.16794 2.20999,-3.6324 3.598165,-5.7304 4.034685,-6.0977 0.58895,-0.49556 0.83522,-0.36269 2.55915,1.38081 2.29773,2.32382 3.95503,3.4443 6.21367,4.20101 2.44528,0.81925 4.34285,0.73461 6.03513,-0.26917 0.7891,-0.46806 1.68556,-1.41675 2.05046,-2.16993 0.24625,-0.50827 0.27957,-0.68842 0.28043,-1.51623 8e-4,-0.72967 -0.0498,-1.08294 -0.22637,-1.58219 -0.34479,-0.97479 -1.03721,-2.29698 -1.86432,-3.55993 -1.8067,-2.75875 -3.09024,-4.03717 -7.39633,-7.36691 -3.38944,-2.62093 -5.0252,-4.07764 -6.81945,-6.07301 -4.345175,-4.83222 -5.956355,-7.90203 -6.388335,-12.17179 -0.3272,-3.23413 0.63469,-8.04259 2.28638,-11.42949 2.03709,-4.17721 5.257715,-7.20332 9.345995,-8.78153 1.00222,-0.38688 3.4813,-1.0165 5.53089,-1.40468 1.98283,-0.37555 4.38391,-0.43778 6.0321,-0.15634 1.48895,0.25424 3.1041,0.74 5.17028,1.55494 2.12089,0.83652 2.94794,1.23927 4.66897,2.27368 2.51737,1.51304 3.65703,2.34691 4.77069,3.49068 1.13394,1.1646 1.34975,1.59111 1.22082,2.41278 -0.0632,0.40242 -1.89534,4.02229 -4.09195,8.08448 -1.52975,2.82898 -2.19761,3.75771 -2.70218,3.75771 -0.37088,0 -0.93482,-0.38689 -2.16399,-1.48459 -2.80708,-2.50687 -4.32624,-3.46252 -6.72431,-4.23004 -3.09203,-0.98963 -5.21696,-0.75915 -6.61334,0.71731 -1.78778,1.89031 -1.68875,5.50817 0.2197,8.02631 0.65397,0.86289 1.22161,1.37032 5.9663,5.3334 5.1179,4.27481 6.87199,5.81202 8.24489,7.22545 3.64747,3.75513 5.80844,8.03456 6.5348,12.94103 0.1678,1.13346 0.16754,4.6328 -3.9e-4,5.88377 -0.43758,3.25869 -1.45307,5.42156 -4.13211,8.80094 -0.91838,1.15845 -2.8706,3.08428 -3.94049,3.88722 -2.89173,2.17023 -7.10822,3.35011 -11.86582,3.3204 -0.97931,-0.006 -2.23476,-0.0695 -2.78988,-0.14095 z m 238.18956,-0.44446 c -1.6994,-0.0406 -2.92694,-0.11151 -3.09198,-0.17861 -0.15055,-0.0612 -0.31541,-0.22094 -0.36636,-0.35497 -0.15195,-0.39966 -0.19859,-5.75851 -0.30213,-34.71639 -0.07,-19.58655 -0.13412,-28.20616 -0.22099,-29.71552 -0.17753,-3.08509 -0.16542,-3.73261 0.0777,-4.15325 0.11616,-0.20097 0.38569,-0.44322 0.64277,-0.57771 l 0.44273,-0.23159 5.95716,0.0652 c 3.27644,0.0359 6.09761,0.1055 6.26926,0.15474 0.44104,0.12648 0.90039,0.46267 1.14772,0.83999 0.11646,0.17766 0.76553,1.56227 1.44239,3.07693 1.8296,4.09423 9.60172,21.07147 11.85978,25.90624 1.50858,3.23001 1.72445,3.33807 1.95018,0.97612 0.12715,-1.3305 0.36079,-5.47316 0.54655,-9.69092 0.0838,-1.90357 0.26127,-5.6415 0.39429,-8.3065 0.13302,-2.665 0.28779,-6.22493 0.34395,-7.91095 0.0562,-1.68602 0.12787,-3.51444 0.15937,-4.06315 l 0.0573,-0.99765 7.33391,-0.0127 c 4.05308,-0.007 7.39637,0.026 7.47351,0.0739 0.19567,0.1215 0.24835,-1.51829 -1.32495,41.24166 -0.46125,12.53639 -0.88479,23.94853 -0.9412,25.36032 -0.10943,2.73873 -0.15383,2.95591 -0.62863,3.07509 -0.12709,0.0319 -2.8966,0.0437 -6.15446,0.0263 l -5.9234,-0.0317 -0.35375,-0.22001 c -0.19766,-0.12293 -0.4666,-0.42838 -0.60949,-0.69221 -0.27146,-0.50129 -1.65114,-3.52522 -10.23151,-22.4251 -2.96297,-6.52653 -5.57222,-12.1885 -5.79829,-12.58214 -0.52718,-0.91793 -0.70856,-0.94097 -0.78831,-0.1001 -0.0323,0.33992 0.0276,4.84546 0.13307,10.0123 0.39318,19.26857 0.48318,25.02255 0.39822,25.45979 -0.15839,0.81514 -0.0701,0.79709 -3.79909,0.77729 -1.80237,-0.01 -4.54525,-0.0477 -6.09531,-0.0847 z"
     style="fill:#000000;stroke-width:0.09888691" />
  <rect
     y="161.16203"
     x="83.654816"
     height="120.50294"
     width="315.61423"
     id="rect2302"
     style="fill:none;fill-opacity:1;stroke:#000000;stroke-width:1.07328236;stroke-miterlimit:4;stroke-dasharray:none;stroke-opacity:1" />
  <text
     id="text2306"
     y="347.6142"
     x="147.00508"
     style="font-style:normal;font-weight:normal;font-size:40px;line-height:1.25;font-family:sans-serif;letter-spacing:0px;word-spacing:0px;fill:#000000;fill-opacity:1;stroke:none"
     xml:space="preserve"><tspan
       y="347.6142"
       x="147.00508"
       id="tspan2304">50.00mm</tspan></text>
  <path
     id="path2308"
     d="m 83.654822,307.00508 h 307.272428 8.66666"
     style="fill:none;stroke:#000000;stroke-width:0.98492378px;stroke-linecap:butt;stroke-linejoin:miter;stroke-opacity:1" />
  <path
     id="path2310"
     d="m 59.28934,160 v 120.20304 -0.81218"
     style="fill:none;stroke:#000000;stroke-width:1px;stroke-linecap:butt;stroke-linejoin:miter;stroke-opacity:1" />
  <text
     transform="rotate(-90)"
     id="text2314"
     y="43.194305"
     x="-316.95648"
     style="font-style:normal;font-weight:normal;font-size:40px;line-height:1.25;font-family:sans-serif;letter-spacing:0px;word-spacing:0px;fill:#000000;fill-opacity:1;stroke:none"
     xml:space="preserve"><tspan
       y="43.194305"
       x="-316.95648"
       id="tspan2312">25.00mm</tspan></text>
</svg>
