<?xml version="1.0" encoding="UTF-8" standalone="no"?>
<svg
   xmlns:dc="http://purl.org/dc/elements/1.1/"
   xmlns:cc="http://creativecommons.org/ns#"
   xmlns:rdf="http://www.w3.org/1999/02/22-rdf-syntax-ns#"
   xmlns:svg="http://www.w3.org/2000/svg"
   xmlns="http://www.w3.org/2000/svg"
   id="svg218"
   version="1.1"
   viewBox="0 0 210 297"
   height="297mm"
   width="210mm">
  <defs
     id="defs212">
    <clipPath
       id="clipPath186"
       clipPathUnits="userSpaceOnUse">
      <path
         id="path184"
         d="M 0,141.732 H 283.465 V 0 H 0 Z" />
    </clipPath>
  </defs>
  <metadata
     id="metadata215">
    <rdf:RDF>
      <cc:Work
         rdf:about="">
        <dc:format>image/svg+xml</dc:format>
        <dc:type
           rdf:resource="http://purl.org/dc/dcmitype/StillImage" />
        <dc:title></dc:title>
      </cc:Work>
    </rdf:RDF>
  </metadata>
  <g
     id="layer1">
    <g
       id="g180"
       transform="matrix(0.35277777,0,0,-0.35277777,56.165608,177.38353)">
      <g
         clip-path="url(#clipPath186)"
         id="g182">
        <g
           transform="translate(114.2561,94.9561)"
           id="g188">
          <path
             id="path190"
             style="fill:#1d1d1b;fill-opacity:1;fill-rule:nonzero;stroke:none"
             d="m 0,0 c -3.459,-3.671 -6.946,-7.367 -10.458,-11.087 -3.514,-3.723 -6.946,-7.418 -10.301,-11.087 -5.661,-5.976 -11.087,-11.822 -16.277,-17.535 -5.189,-5.716 -10.615,-11.559 -16.276,-17.535 3.774,-3.459 7.888,-6.16 12.345,-8.099 4.455,-1.941 9.2,-2.909 14.232,-2.909 5.347,0 10.117,1.125 14.311,3.381 4.193,2.253 7.706,5.241 10.537,8.964 2.831,3.72 4.978,7.967 6.448,12.738 1.467,4.77 2.202,9.672 2.202,14.704 C 6.763,-18.296 4.507,-8.807 0,0 m -17.063,16.355 c -4.352,1.991 -8.885,2.989 -13.603,2.989 -5.662,0 -10.694,-1.023 -15.098,-3.067 -4.403,-2.045 -8.074,-4.823 -11.008,-8.335 -2.936,-3.514 -5.165,-7.654 -6.684,-12.424 -1.521,-4.772 -2.28,-9.883 -2.28,-15.333 0,-5.138 0.575,-10.249 1.73,-15.333 1.152,-5.086 3.04,-9.883 5.661,-14.39 8.91,9.539 17.665,19.002 26.263,28.386 8.596,9.382 17.299,18.95 26.106,28.701 -3.042,3.877 -6.737,6.814 -11.087,8.806 M 18.4,-42.383 c -2.307,-5.189 -5.322,-10.064 -9.043,-14.625 -3.722,-4.56 -7.941,-8.44 -12.659,-11.638 -4.718,-3.199 -9.49,-5.165 -14.311,-5.897 -2.413,-0.42 -4.851,-0.707 -7.313,-0.865 -2.465,-0.157 -4.954,-0.236 -7.47,-0.236 -5.873,0 -11.087,0.681 -15.648,2.044 -4.56,1.362 -9.2,3.669 -13.918,6.92 -1.155,-1.155 -2.177,-2.201 -3.066,-3.145 -0.892,-0.944 -1.914,-1.992 -3.067,-3.145 l -4.089,-4.089 c -0.734,-0.629 -1.521,-0.683 -2.359,-0.157 l -3.774,2.987 c -0.944,0.629 -1.101,1.259 -0.472,1.888 0.838,1.153 1.754,2.28 2.752,3.381 0.995,1.101 1.966,2.227 2.91,3.381 0.837,0.944 1.902,2.13 2.582,2.965 0.909,1.114 1.404,1.651 1.978,2.54 -3.985,4.718 -7.155,10.064 -9.514,16.041 -2.359,5.975 -3.539,12.054 -3.539,18.242 0,7.337 1.283,14.178 3.853,20.523 2.568,6.342 6.158,11.846 10.773,16.513 4.612,4.663 10.089,8.335 16.434,11.008 6.342,2.674 13.235,4.01 20.68,4.01 5.765,0 11.453,-0.84 17.063,-2.516 5.608,-1.678 10.876,-4.037 15.805,-7.077 l 3.932,4.089 c 0.838,0.838 1.887,1.912 3.145,3.224 1.258,1.309 2.359,2.384 3.303,3.224 0.803,0.797 1.34,1.045 2.516,-0.157 l 3.617,-3.775 c 0.732,-0.629 0.786,-1.258 0.157,-1.887 -1.784,-1.992 -3.435,-3.774 -4.953,-5.347 -1.522,-1.572 -3.122,-3.408 -4.797,-5.504 4.298,-5.347 7.364,-11.402 9.2,-18.164 1.833,-6.762 2.752,-13.446 2.752,-20.051 0,-4.615 -1.155,-9.514 -3.46,-14.705" />
        </g>
        <g
           transform="translate(198.47,97.9659)"
           id="g192">
          <path
             id="path194"
             style="fill:#1d1d1b;fill-opacity:1;fill-rule:nonzero;stroke:none"
             d="m 0,0 c -1.018,3.048 -2.51,5.706 -4.482,7.978 -1.972,2.268 -4.333,4.092 -7.081,5.467 -2.75,1.372 -5.798,2.061 -9.142,2.061 -2.868,0 -5.619,-0.358 -8.246,-1.075 v -43.202 c 2.03,-0.242 4.15,-0.42 6.363,-0.539 2.21,-0.12 4.33,-0.178 6.364,-0.178 5.854,0 10.277,1.792 13.266,5.377 2.985,3.586 4.481,8.425 4.481,14.521 C 1.523,-6.246 1.014,-3.047 0,0 m 38.989,-78.966 c -4.184,0 -7.949,0.656 -11.294,1.973 -3.346,1.313 -6.394,3.047 -9.141,5.198 -2.751,2.151 -5.32,4.6 -7.709,7.35 -2.392,2.748 -4.723,5.557 -6.991,8.425 -2.034,2.627 -4.065,5.137 -6.095,7.53 -2.033,2.388 -4.185,4.54 -6.453,6.453 -2.035,1.793 -4.633,2.896 -7.799,3.316 -3.168,0.417 -6.067,0.627 -8.694,0.627 -0.958,0 -1.383,0.048 -2.044,0.048 -0.502,0 -1.074,0 -1.72,-0.048 v -23.662 c 0,-0.479 0.027,-2.798 0.027,-3.827 0,-1.651 0.248,-3.963 1.569,-5.243 0.874,-0.847 2.807,-1.279 4.677,-1.507 1.075,-0.131 2.495,-0.442 3.621,-0.681 1.363,-0.289 2.023,-0.496 2.931,-1.032 0.605,-0.357 1.157,-1.155 0.799,-1.872 -0.36,-0.717 -1.076,-1.075 -2.152,-1.075 -6.094,0 -12.162,0.027 -18.195,0.089 -6.036,0.059 -12.1,0.269 -18.195,0.628 -1.076,0.117 -1.645,0.627 -1.703,1.523 -0.062,0.897 0.448,1.462 1.523,1.703 1.91,0.238 3.435,0.507 4.571,0.807 1.135,0.297 2,0.806 2.6,1.523 0.597,0.718 0.986,1.762 1.165,3.138 0.18,1.372 0.27,3.195 0.27,5.468 v 72.781 c 0,2.868 -0.628,4.599 -1.883,5.198 -1.255,0.596 -2.54,0.955 -3.855,1.075 -1.316,0.118 -2.45,0.297 -3.406,0.539 -0.958,0.237 -1.731,0.448 -2.328,1.406 -0.479,0.596 -0.54,1.52 -0.181,1.999 0.359,0.476 1.014,0.718 1.972,0.718 h 2.688 c 1.315,0 2.963,-0.116 4.397,-0.116 1.435,0 2.312,-0.042 4.029,-0.064 1.914,-0.024 3.957,-0.143 5.632,-0.143 1.672,0 3.211,-0.036 5.124,-0.036 h 3.765 c 1.193,0 2.358,0.028 3.495,0.09 1.135,0.059 2.358,0.089 3.676,0.089 4.42,0 9.052,-0.241 13.892,-0.717 4.84,-0.479 9.233,-1.555 13.176,-3.226 3.943,-1.676 7.198,-4.124 9.77,-7.351 2.569,-3.226 3.854,-7.59 3.854,-13.086 0,-2.75 -0.51,-5.498 -1.523,-8.246 -1.017,-2.751 -2.331,-5.378 -3.945,-7.887 -1.613,-2.51 -3.405,-4.871 -5.378,-7.081 -1.971,-2.213 -3.974,-4.213 -6.005,-6.006 1.792,-1.793 3.555,-3.675 5.289,-5.646 1.731,-1.972 3.496,-4.033 5.288,-6.185 2.868,-3.468 5.916,-6.991 9.142,-10.577 3.227,-3.585 6.571,-6.811 10.039,-9.68 3.465,-2.868 6.991,-5.171 10.576,-6.902 3.585,-1.733 7.171,-2.36 10.756,-1.882 l 1.076,-3.048 c -4.543,-1.913 -9.442,-2.868 -14.7,-2.868" />
        </g>
      </g>
    </g>
    <circle
       r="42.186565"
       cy="152.61308"
       cx="106.77827"
       id="path240"
       style="fill:none;fill-opacity:1;stroke:#000000;stroke-width:0.3691324;stroke-miterlimit:4;stroke-dasharray:none;stroke-opacity:1" />
    <path
       id="path242"
       d="m 64.822915,201.74993 h 80.216065 3.12768"
       style="fill:none;stroke:#000000;stroke-width:0.26105538px;stroke-linecap:butt;stroke-linejoin:miter;stroke-opacity:1" />
    <text
       id="text246"
       y="212.14447"
       x="82.587791"
       style="font-style:normal;font-weight:normal;font-size:10.58333302px;line-height:1.25;font-family:sans-serif;letter-spacing:0px;word-spacing:0px;fill:#000000;fill-opacity:1;stroke:none;stroke-width:0.26458332"
       xml:space="preserve"><tspan
         style="stroke-width:0.26458332"
         y="212.14447"
         x="82.587791"
         id="tspan244">40.00mm</tspan></text>
  </g>
</svg>
