<?xml version="1.0" encoding="UTF-8" standalone="no"?>
<svg
   xmlns:dc="http://purl.org/dc/elements/1.1/"
   xmlns:cc="http://creativecommons.org/ns#"
   xmlns:rdf="http://www.w3.org/1999/02/22-rdf-syntax-ns#"
   xmlns:svg="http://www.w3.org/2000/svg"
   xmlns="http://www.w3.org/2000/svg"
   viewBox="0 0 226.77165 226.77166"
   height="60mm"
   width="60mm"
   id="svg878"
   version="1.1">
  <metadata
     id="metadata884">
    <rdf:RDF>
      <cc:Work
         rdf:about="">
        <dc:format>image/svg+xml</dc:format>
        <dc:type
           rdf:resource="http://purl.org/dc/dcmitype/StillImage" />
        <dc:title></dc:title>
      </cc:Work>
    </rdf:RDF>
  </metadata>
  <defs
     id="defs882" />
  <path
     id="path888"
     d="m 48.504564,137.95121 c -3.25703,-0.24608 -5.20322,-1.66217 -5.55743,-4.04372 -0.40913,-2.75075 1.23073,-4.75671 4.39424,-5.37523 1.04611,-0.20454 3.38303,-0.1799 4.48384,0.0472 2.04557,0.42214 3.64495,1.68694 4.0903,3.23467 0.0593,0.2063 0.0379,0.2152 -0.51708,0.2152 -0.57114,0 -0.5809,-0.004 -0.71863,-0.33418 -0.3496,-0.83672 -1.58022,-1.68811 -3.00536,-2.07923 -1.05525,-0.28961 -3.37448,-0.28881 -4.43301,0.001 -1.49349,0.40967 -2.39417,1.04257 -2.90747,2.04309 -0.37725,0.73537 -0.43222,1.9011 -0.12771,2.70901 0.49329,1.3088 1.99231,2.23399 4.12479,2.54581 0.9626,0.14076 2.87388,0.0597 3.65838,-0.1551 1.25386,-0.34336 2.2827,-1.0882 2.64997,-1.91851 l 0.18642,-0.42143 h 0.5712 0.57118 l -0.0634,0.26303 c -0.1353,0.56117 -0.61098,1.33642 -1.10908,1.80746 -0.93811,0.88713 -2.08814,1.30403 -4.04358,1.46587 -0.63123,0.0523 -1.16922,0.0894 -1.19553,0.0827 -0.0263,-0.007 -0.49971,-0.0464 -1.05204,-0.0882 z m 14.68088,0.002 c -3.48074,-0.27814 -5.59499,-2.11353 -5.59499,-4.857 0,-2.126 1.36803,-3.70083 3.84275,-4.42367 1.08257,-0.31621 3.88204,-0.36957 5.19531,-0.0991 1.82202,0.37534 3.16129,1.27486 3.77854,2.53787 0.78819,1.61279 0.534,3.76342 -0.5899,4.99062 -1.29943,1.41882 -3.69031,2.08621 -6.63171,1.85119 z m 2.74125,-1.08613 c 0.73727,-0.14187 1.68468,-0.46369 2.08863,-0.70952 0.45796,-0.27869 1.16499,-1.02348 1.39202,-1.46636 0.66965,-1.30634 0.35994,-3.06963 -0.704,-4.00796 -0.57185,-0.50432 -1.18568,-0.81486 -2.10791,-1.06636 -0.9887,-0.26963 -3.54642,-0.29461 -4.54807,-0.0444 -1.93364,0.48296 -3.05615,1.52301 -3.30696,3.06404 -0.28049,1.72336 0.76729,3.24898 2.7142,3.95207 1.12154,0.40502 3.15602,0.53171 4.47209,0.2785 z m 12.27437,1.08103 c -3.57062,-0.27867 -5.59498,-2.00513 -5.59498,-4.77162 0,-2.35678 1.5734,-4.04925 4.28339,-4.60756 0.79064,-0.1629 1.18548,-0.18492 2.65057,-0.14788 1.93193,0.049 2.41816,0.14594 3.63435,0.72554 1.21347,0.57831 2.14484,1.57016 2.43964,2.59803 l 0.0815,0.28418 h -0.59577 c -0.58996,0 -0.59693,-0.003 -0.71259,-0.32303 -0.29763,-0.8231 -1.68931,-1.77174 -3.12823,-2.13237 -0.94302,-0.23636 -3.27716,-0.23189 -4.20556,0.009 -1.5879,0.41036 -2.69888,1.2315 -3.09362,2.28653 -0.25439,0.67991 -0.2785,1.82673 -0.0524,2.49039 0.35721,1.04833 1.73249,2.04008 3.35766,2.42125 1.03871,0.24363 3.44863,0.24509 4.33129,0.002 1.37933,-0.37892 2.39763,-1.09856 2.74306,-1.93857 l 0.17398,-0.42314 h 0.59318 0.59318 l -0.12924,0.42942 c -0.30911,1.02717 -1.12372,1.92386 -2.22534,2.44961 -1.14945,0.54858 -3.16869,0.80344 -5.14408,0.64926 z m 9.89884,-4.77162 v -4.68641 h 0.52602 0.52603 v 2.34321 c 0,1.28876 0.0229,2.3432 0.051,2.3432 0.028,0 1.85615,-1.0562 4.06246,-2.3471 l 4.01147,-2.34712 0.78641,0.0278 0.78643,0.0278 -3.41813,2.04777 c -1.87997,1.12627 -3.43386,2.07323 -3.45309,2.10435 -0.0192,0.0311 1.51328,1.19699 3.40561,2.59081 l 3.44058,2.53424 -0.77293,0.0278 -0.77292,0.0278 -3.07139,-2.2113 c -1.68926,-1.21621 -3.12582,-2.23219 -3.19236,-2.25773 -0.0666,-0.0256 -0.51296,0.17644 -0.99205,0.44883 l -0.87106,0.49527 v 1.75857 1.75859 h -0.52603 -0.52603 z m 17.406646,0.52602 v -4.16038 h -2.72578 -2.72575 v -0.52602 -0.52603 h 6.02537 6.02539 v 0.52603 0.52602 H 109.38 106.65424 v 4.16038 4.16039 h -0.57385 -0.57384 z m 4.78763,4.08865 c 0.003,-0.0395 1.37263,-2.13756 3.0435,-4.66249 l 3.03792,-4.59076 0.61477,-0.0246 0.61477,-0.0246 2.96486,4.55461 c 1.63067,2.50504 2.99927,4.61424 3.04135,4.68714 0.0618,0.10705 -0.0406,0.1325 -0.53305,0.1325 h -0.60953 l -0.85374,-1.26724 -0.85375,-1.26724 -3.80426,-0.025 -3.80424,-0.025 -0.83434,1.29133 -0.83433,1.29133 -0.59776,8.9e-4 c -0.32876,9e-4 -0.59524,-0.0314 -0.59217,-0.0708 z m 9.84543,-3.51129 c 0,-0.0244 -0.68862,-1.08307 -1.53025,-2.35263 -0.84163,-1.26957 -1.53025,-2.35069 -1.53025,-2.40249 0,-0.0518 -0.038,-0.0798 -0.0842,-0.0623 -0.0638,0.0243 -2.80553,4.08404 -3.20241,4.74221 -0.0572,0.0948 0.59513,0.11955 3.13751,0.11955 1.76529,0 3.20962,-0.02 3.20962,-0.0443 z m 5.45153,-1.10338 v -4.68641 h 0.52603 0.52602 v 4.68641 4.68641 h -0.52602 -0.52603 z m 4.30384,0 v -4.68641 h 0.52603 0.52602 v 4.16038 4.16038 h 4.25603 4.25603 v 0.52603 0.52603 h -4.78206 -4.78205 z m 17.40666,-0.002 v -4.69835 l 4.23211,0.0366 c 4.54343,0.0391 4.73733,0.0591 5.46787,0.55962 0.58675,0.40203 0.76926,0.79019 0.80219,1.70605 0.0253,0.70443 -0.001,0.88092 -0.19129,1.25056 -0.12143,0.23672 -0.35899,0.51646 -0.52792,0.62167 -0.16893,0.10518 -0.30881,0.21338 -0.31084,0.24037 -0.002,0.0269 0.20799,0.0994 0.4667,0.16083 1.09183,0.25936 1.72985,1.06242 1.72884,2.17597 -9.1e-4,0.87048 -0.15264,1.28437 -0.65585,1.78779 -0.78909,0.78944 -0.77718,0.78786 -6.25368,0.82504 l -4.75813,0.0324 z m 9.70157,3.44402 c 0.55981,-0.28826 0.83797,-0.75262 0.84797,-1.41557 0.013,-0.86513 -0.51552,-1.35662 -1.65839,-1.54204 -0.35244,-0.0572 -2.17041,-0.10059 -4.22866,-0.10112 l -3.61045,-5.9e-4 v 1.67933 1.67932 l 4.09146,-0.0295 4.09144,-0.0295 0.46663,-0.24026 z m -1.15808,-4.14623 c 1.15093,-0.48089 1.19259,-2.14768 0.0678,-2.71486 -0.41978,-0.21168 -0.48484,-0.21519 -3.99301,-0.21519 h -3.56627 v 1.53025 1.53026 h 3.58962 c 2.81535,0 3.65694,-0.0282 3.90183,-0.13046 z m 4.08111,5.34595 c 0,-0.0246 1.37302,-2.12274 3.05114,-4.6625 l 3.05116,-4.61771 0.6071,-0.0258 0.60713,-0.0258 2.82139,4.32312 c 1.55178,2.37773 2.9207,4.48748 3.04203,4.68833 l 0.22061,0.36519 h -0.6102 -0.61019 l -0.85374,-1.26723 -0.85375,-1.26724 -3.79348,-0.0249 -3.79345,-0.0249 -0.84512,1.2912 -0.84513,1.29117 -0.59775,10e-4 c -0.32877,8.9e-4 -0.59775,-0.0191 -0.59775,-0.0437 z m 9.85101,-3.53558 c 0,-0.0229 -0.61615,-0.98051 -1.36922,-2.12802 -0.75306,-1.14748 -1.45096,-2.22623 -1.55088,-2.39719 -0.0999,-0.17096 -0.21131,-0.31084 -0.24758,-0.31084 -0.0363,0 -0.18506,0.20443 -0.33063,0.4543 -0.14559,0.24985 -0.86031,1.34734 -1.58827,2.43883 l -1.32358,1.98457 h 3.20509 c 1.76278,0 3.20507,-0.0187 3.20507,-0.0417 z m 5.45154,-1.10605 v -4.68641 l 3.70607,0.002 c 2.03836,0.001 4.01818,0.0434 4.3996,0.0931 0.89648,0.11648 1.56555,0.40934 1.97802,0.86592 0.43227,0.47847 0.56164,0.94574 0.51932,1.87588 -0.0291,0.64115 -0.0773,0.82723 -0.30245,1.16734 -0.31661,0.47839 -0.98453,0.92867 -1.50905,1.01729 -0.20632,0.0349 -0.37511,0.0817 -0.37511,0.10379 0,0.0419 2.93679,3.64909 3.28205,4.03136 l 0.19436,0.21518 -0.71006,-0.004 -0.71007,-0.004 -1.6259,-2.04559 -1.62589,-2.04556 -3.08443,-0.006 -3.08442,-0.006 v 2.05628 2.05627 h -0.52603 -0.52601 v -4.68639 z m 8.7446,-0.66949 c 0.56037,-0.28407 0.81949,-0.70746 0.81949,-1.33897 0,-0.91537 -0.57291,-1.44026 -1.77302,-1.6244 -0.39794,-0.0611 -1.87793,-0.0915 -3.67852,-0.0758 l -3.01269,0.0264 -0.0261,1.65412 -0.0262,1.65412 3.61272,-0.0282 3.61272,-0.0281 z M 57.829554,110.31736 c -0.81436,-0.079 -1.75523,-0.26216 -4.06473,-0.79126 l -1.00425,-0.23007 -0.12579,-0.37318 c -0.3302,-0.97948 -0.78279,-3.81492 -0.78279,-4.90406 0,-0.60463 0.0173,-0.65873 0.2436,-0.76184 0.32097,-0.14624 0.92451,-0.14159 1.11413,0.009 0.0831,0.0657 0.2258,0.35627 0.31723,0.64558 0.50566,1.59965 2.33404,3.46511 4.03445,4.11624 0.78816,0.30181 2.30111,0.36972 3.1454,0.14118 0.72358,-0.19586 1.63072,-0.75152 1.98483,-1.21577 0.54947,-0.72039 0.68225,-1.18222 0.68197,-2.37217 -2.8e-4,-1.46586 -0.19878,-1.99018 -1.088,-2.8745 -0.78364,-0.77929 -1.80401,-1.45317 -3.83439,-2.532276 -2.62372,-1.39446 -3.82267,-2.21676 -4.78219,-3.2799 -1.08067,-1.19738 -1.53011,-2.34807 -1.53011,-3.91757 0,-1.70699 0.48745,-2.96218 1.61447,-4.15722 1.85894,-1.97115 4.68427,-2.89922 7.80617,-2.56419 0.9379,0.10058 3.68094,0.50954 4.22534,0.62987 0.16386,0.0361 0.23015,0.15345 0.30988,0.54805 0.19882,0.98393 0.38261,2.43609 0.48683,3.84666 0.0978,1.32486 0.0933,1.441 -0.0615,1.55418 -0.31953,0.23362 -1.33853,0.0983 -1.4087,-0.18709 -0.30488,-1.24014 -0.82944,-2.20194 -1.67235,-3.06636 -0.99726,-1.0227 -1.86376,-1.40743 -3.16414,-1.40488 -1.76658,0.003 -3.06392,0.65752 -3.56903,1.79938 -0.24128,0.54549 -0.32626,1.78758 -0.1728,2.526 0.24521,1.17989 1.33042,2.22489 3.69756,3.56059 5.33254,3.00899 6.40138,3.83725 7.26977,5.633456 0.52675,1.08955 0.62545,1.89911 0.39217,3.21632 -0.27763,1.56748 -0.94159,2.78831 -2.14127,3.93721 -2.04464,1.95808 -4.68997,2.78258 -7.92179,2.46906 z m 23.09745,-0.29097 c -1.63394,-0.20381 -3.26253,-0.8198 -4.71,-1.78148 -0.89884,-0.59719 -2.47414,-2.17176 -3.11952,-3.11813 -0.90699,-1.33 -1.53313,-2.76966 -1.88059,-4.32403 -0.21196,-0.948226 -0.28985,-3.614506 -0.1444,-4.943416 0.34316,-3.13528 1.45997,-5.58821 3.43343,-7.54105 2.12801,-2.10578 4.47039,-3.05568 7.53777,-3.05679 1.43252,-6e-4 2.38042,0.13954 3.48901,0.51549 2.4422,0.8282 4.06613,2.35375 5.17314,4.85973 0.64002,1.44883 0.86123,2.49007 0.87394,4.11344 0.0125,1.59835 -0.0401,1.72893 -0.76359,1.89676 -0.20519,0.0477 -3.71405,0.0876 -7.79746,0.0888 -6.57919,0.002 -7.43834,0.0191 -7.54709,0.15015 -0.098,0.11803 -0.10101,0.34485 -0.0151,1.12378 0.28151,2.551946 1.28673,4.773616 2.88795,6.382666 1.34273,1.34932 2.79764,1.96053 4.93299,2.07238 2.21747,0.11611 4.37242,-0.45082 6.26952,-1.64949 0.454,-0.28686 0.87455,-0.52157 0.93455,-0.52157 0.19513,0 0.32295,0.44505 0.25602,0.89141 -0.0851,0.5676 -0.47975,1.142 -1.35725,1.97554 -1.0648,1.01145 -2.61033,1.97654 -3.86061,2.41071 -1.27705,0.44345 -3.17686,0.63171 -4.59276,0.45508 z m 6.10133,-16.318136 c 0.0515,-1.07733 -0.51056,-2.61359 -1.48403,-4.05561 -1.08594,-1.60864 -2.28509,-2.28742 -4.04089,-2.28742 -2.08868,0 -3.59809,0.95969 -4.7577,3.025 -0.85677,1.52593 -1.40321,3.25451 -1.18216,3.73963 l 0.0996,0.21866 5.66843,-0.0247 5.66842,-0.0247 z m 29.572556,16.311926 c -2.35361,-0.27151 -4.40811,-1.26813 -6.22668,-3.02051 -1.96588,-1.89434 -3.121,-4.03538 -3.59426,-6.66213 -0.18865,-1.047046 -0.20918,-3.627626 -0.0386,-4.842846 0.71378,-5.0834 3.70317,-8.73698 8.11828,-9.92206 0.8521,-0.2287 1.08522,-0.24933 2.84109,-0.25124 1.76893,-0.001 1.98257,0.0168 2.84027,0.24896 1.83211,0.49589 3.58389,1.61266 4.54702,2.89874 1.37418,1.83496 2.1509,4.12805 2.16914,6.40393 0.01,1.14793 -0.0578,1.42692 -0.39605,1.64859 -0.23874,0.15649 -0.81382,0.17202 -8.00841,0.21641 l -7.7512,0.0479 0.0176,0.9564 c 0.0589,3.196856 2.1485,6.783926 4.64549,7.974666 2.77585,1.32371 6.79214,0.88999 9.63492,-1.0405 0.77493,-0.52625 0.90114,-0.49301 0.93691,0.24671 0.0262,0.54104 0.001,0.61901 -0.36512,1.16846 -0.97097,1.45402 -3.44216,3.12714 -5.40138,3.65695 -1.29529,0.35027 -2.54567,0.43586 -3.96909,0.27166 z m 6.00626,-15.787946 c 0.3077,-0.30771 0.022,-1.79629 -0.59442,-3.09771 -0.83153,-1.75538 -1.70797,-2.77031 -2.9018,-3.36033 -0.6488,-0.32065 -0.78265,-0.35056 -1.74693,-0.39029 -0.92819,-0.0382 -1.13277,-0.0154 -1.84018,0.20511 -1.43584,0.44768 -2.37915,1.33791 -3.31601,3.12937 -0.81663,1.56158 -1.25241,3.1362 -0.96408,3.48362 0.10507,0.12652 0.82902,0.14501 5.68448,0.14501 4.20016,0 5.5923,-0.0282 5.67894,-0.11481 z m 45.47588,15.797006 c -2.45088,-0.30886 -4.55236,-1.36931 -6.43834,-3.24892 -1.93433,-1.92783 -3.10328,-4.31568 -3.44615,-7.039656 -0.14553,-1.15613 -0.0678,-3.67702 0.15166,-4.91546 0.88903,-5.01818 4.295,-8.63007 8.88118,-9.41813 0.99294,-0.17063 2.69526,-0.18969 3.75837,-0.0421 3.95633,0.54929 6.75504,3.37584 7.59475,7.67035 0.20039,1.02491 0.24342,2.64006 0.0826,3.1014 -0.19902,0.57093 0.085,0.55104 -8.28262,0.58009 -6.52042,0.0227 -7.68276,0.0471 -7.77965,0.1639 -0.15711,0.1893 0.0281,1.86614 0.32347,2.92763 0.78574,2.824366 2.3998,4.993146 4.41012,5.925736 1.04368,0.48417 1.81017,0.66372 3.11576,0.72984 2.25332,0.1141 4.51536,-0.50457 6.41129,-1.75361 0.34786,-0.22917 0.69792,-0.41666 0.7779,-0.41666 0.16062,0 0.26118,0.27745 0.25996,0.71729 -0.003,1.2744 -2.81355,3.71264 -5.25641,4.56095 -1.28544,0.44638 -3.16007,0.63424 -4.56388,0.45733 z m 6.10062,-15.939526 c 0.19601,-0.51556 -0.15392,-1.96031 -0.77175,-3.18621 -1.2615,-2.50311 -2.65725,-3.53828 -4.77076,-3.53828 -2.32945,0 -3.78657,1.05466 -5.11588,3.70293 -0.5011,0.99831 -0.82544,2.03335 -0.82544,2.63419 0,0.28442 0.0288,0.54582 0.0637,0.5809 0.0351,0.0351 2.59692,0.0637 5.69299,0.0637 h 5.62925 z M 92.830584,109.71729 c -0.0302,-0.12055 -0.0419,-0.47242 -0.0258,-0.78194 l 0.0292,-0.56274 0.88006,-0.16749 c 1.13592,-0.21616 2.15894,-0.54752 2.46069,-0.79704 0.1923,-0.15903 0.27191,-0.37395 0.40961,-1.10597 0.15933,-0.84698 0.1709,-1.87808 0.17055,-15.206886 -3e-4,-13.03027 -0.0147,-14.36933 -0.16167,-15.09903 -0.10485,-0.52098 -0.23323,-0.87728 -0.36725,-1.01994 -0.27574,-0.29354 -1.15955,-0.51488 -2.38775,-0.59804 l -1.00424,-0.068 -0.0279,-0.63052 c -0.0191,-0.43092 0.0107,-0.66064 0.0956,-0.72567 0.068,-0.0524 0.57548,-0.14581 1.1278,-0.20773 2.41309,-0.27052 4.86704,-0.92839 6.298676,-1.68859 0.34598,-0.18371 0.67674,-0.33403 0.73504,-0.33403 0.1273,0 0.45531,0.34753 0.60852,0.64475 0.0868,0.16834 0.0772,0.32894 -0.0448,0.74821 -0.46674,1.60554 -0.45314,1.15345 -0.49294,16.39626 -0.024,9.18573 -0.002,14.812106 0.0608,15.735246 0.1148,1.68006 0.32257,2.8728 0.5428,3.11614 0.19703,0.21773 1.35587,0.60578 2.47749,0.82963 l 0.86077,0.1718 0.0853,0.53355 c 0.0469,0.29345 0.0568,0.64688 0.0221,0.78537 l -0.0633,0.25183 h -6.117376 -6.11737 z m 36.294666,-0.1805 c -0.0592,-0.21982 -0.0805,-0.58093 -0.0472,-0.80246 l 0.0604,-0.4028 0.53753,-0.0672 c 1.23069,-0.15377 2.82608,-0.69468 2.99836,-1.01661 0.0515,-0.0963 0.16458,-0.59602 0.25114,-1.11036 0.13196,-0.78415 0.16369,-1.96824 0.19652,-7.332716 0.0266,-4.34227 0.004,-6.66204 -0.0667,-7.22089 -0.2444,-1.89984 -1.26466,-2.94742 -3.04266,-3.12416 -1.05677,-0.10497 -1.00529,-0.064 -0.93021,-0.73984 0.0362,-0.32653 0.11863,-0.64903 0.18309,-0.71665 0.0645,-0.0677 0.9103,-0.2512 1.8797,-0.40793 2.37432,-0.38389 4.14417,-0.72099 5.32718,-1.01467 0.82722,-0.20536 1.00658,-0.22375 1.13581,-0.11647 0.16172,0.1342 0.16311,0.003 -0.0286,2.69019 -0.0358,0.50238 -0.0237,0.83686 0.0305,0.83686 0.0495,0 0.23845,-0.15632 0.41974,-0.34738 0.82164,-0.86597 3.03473,-2.29626 4.43861,-2.86861 1.07212,-0.4371 1.98312,-0.60964 3.21881,-0.60964 3.08789,0 5.01769,1.33592 5.97592,4.13693 0.29871,0.87316 0.56256,2.07031 0.70076,3.17959 0.0589,0.47342 0.13124,1.0114 0.16057,1.19552 0.0294,0.1841 0.0899,2.89552 0.13446,6.02537 0.0786,5.508696 0.13774,6.541816 0.42714,7.453596 0.0351,0.11052 0.23338,0.28742 0.44068,0.39318 0.39503,0.20152 1.83849,0.60403 2.57404,0.71779 0.23671,0.0367 0.46199,0.11504 0.50065,0.17438 0.0387,0.0593 0.0709,0.41986 0.0717,0.80124 l 0.001,0.69339 h -6.02356 -6.02356 l -0.0499,-0.21519 c -0.063,-0.27143 -0.0894,-0.70194 -0.0668,-1.08886 0.0168,-0.28912 0.0365,-0.30216 0.54871,-0.36617 1.21705,-0.15206 2.50149,-0.63262 2.7607,-1.03286 0.0762,-0.11767 0.20595,-0.6714 0.28832,-1.23048 0.2195,-1.48983 0.21724,-10.066176 -0.003,-11.764516 -0.26511,-2.04333 -0.71129,-3.2766 -1.50204,-4.15172 -0.88271,-0.9769 -2.2059,-1.48154 -3.89228,-1.48443 -1.04584,-0.001 -1.65014,0.14937 -2.61675,0.65459 -0.86413,0.45161 -2.12139,1.63093 -2.4187,2.26876 l -0.22292,0.47821 4e-5,5.83408 c 7e-5,7.292466 0.13339,9.087746 0.71181,9.585276 0.28795,0.2477 1.18808,0.53884 2.40464,0.7778 l 0.85072,0.16709 0.0586,0.5212 c 0.0323,0.28666 0.0376,0.63955 0.012,0.78421 l -0.0467,0.26301 h -6.10537 -6.10538 l -0.10765,-0.39967 z M 60.985714,61.255074 c -0.93272,-0.29091 -1.896,-1.20969 -2.19875,-2.09717 -0.21448,-0.62877 -0.18652,-1.70447 0.0616,-2.36745 0.2479,-0.66256 0.95565,-1.412 1.65901,-1.75673 0.41063,-0.20124 0.61336,-0.23435 1.43462,-0.23429 0.86126,7e-5 1.00668,0.0266 1.46181,0.2663 0.65093,0.34286 1.18997,0.90287 1.52415,1.58335 0.23219,0.4728 0.26538,0.65025 0.26226,1.40207 -0.004,1.03774 -0.19236,1.5269 -0.86243,2.24326 -0.64697,0.69166 -1.31104,0.98973 -2.2798,1.02329 -0.42652,0.0148 -0.90459,-0.0134 -1.0624,-0.0626 z m 13.08059,-0.0857 c -0.8958,-0.33256 -1.49678,-0.89339 -1.90665,-1.77931 -0.22069,-0.47698 -0.26535,-0.70298 -0.26464,-1.33897 10e-4,-0.98521 0.32588,-1.75308 1.0135,-2.39628 0.72525,-0.67839 1.19689,-0.85535 2.27987,-0.85543 0.7993,-8e-5 0.97348,0.0318 1.44814,0.2649 1.32017,0.64831 2.05574,2.10731 1.79515,3.56066 -0.1939,1.08138 -0.79905,1.87671 -1.82916,2.404 -0.68441,0.35034 -1.80383,0.41232 -2.53621,0.14043 z m -0.89704,-1.71061 c 0.2643,-0.51804 0.38922,-1.31958 0.29597,-1.89893 -0.0831,-0.51588 -0.42037,-1.2781 -0.56564,-1.2781 -0.13285,0 -0.47239,0.76903 -0.57157,1.2945 -0.0841,0.4458 -0.0259,1.06542 0.14336,1.52691 0.0775,0.21125 0.41192,0.71731 0.47401,0.71731 0.0216,0 0.12239,-0.16277 0.22387,-0.36169 z m 14.19419,1.71959 c -0.91766,-0.32766 -1.45475,-0.80665 -1.95161,-1.74046 -0.19761,-0.37139 -0.22899,-0.56149 -0.22899,-1.3868 0,-0.90678 0.017,-0.9876 0.32596,-1.55754 0.36926,-0.68098 0.74987,-1.05138 1.47084,-1.43134 0.44749,-0.23583 0.5966,-0.26276 1.45499,-0.26276 0.85839,0 1.00751,0.0269 1.45499,0.26276 0.72097,0.37996 1.10159,0.75036 1.47086,1.43134 0.30905,0.56999 0.32594,0.6507 0.32588,1.55754 -8e-5,0.86125 -0.0266,1.00669 -0.26629,1.46179 -0.59037,1.12081 -1.5798,1.75128 -2.84008,1.80971 -0.52649,0.0245 -0.85247,-0.0143 -1.21655,-0.14424 z m 0.18088,-0.95142 c 0.6376,-0.66474 0.79467,-1.09481 0.79467,-2.17584 0,-0.82349 -0.0316,-1.01621 -0.22792,-1.38679 -0.34317,-0.64803 -0.7697,-1.14769 -0.97972,-1.14769 -0.29524,0 -1.09059,0.81287 -1.33689,1.36634 -0.49133,1.10411 -0.21371,2.42747 0.68571,3.26878 0.25512,0.23861 0.5215,0.43386 0.59198,0.43386 0.0706,0 0.28296,-0.16141 0.47217,-0.35866 z m 13.165266,0.99614 c -1.284596,-0.47965 -2.046556,-1.35263 -2.272236,-2.60333 -0.26022,-1.44195 0.47806,-2.90997 1.785046,-3.54941 0.74513,-0.36457 1.85771,-0.42132 2.62026,-0.13365 1.81378,0.68422 2.64163,2.72213 1.83551,4.51842 -0.29387,0.65485 -0.97709,1.33442 -1.63353,1.62482 -0.57622,0.25491 -1.82989,0.33177 -2.33505,0.14315 z m 1.58613,-0.85268 c 0.78758,-0.77793 1.0439,-1.41361 0.99305,-2.46275 -0.0249,-0.51377 -0.10432,-0.86658 -0.27965,-1.24334 -0.26521,-0.56971 -1.04365,-1.40756 -1.38809,-1.49401 -0.3516,-0.0882 -1.23115,0.22635 -1.725156,0.61702 -0.25957,0.20528 -0.58843,0.59336 -0.74946,0.88441 -0.25936,0.46879 -0.28685,0.60129 -0.28623,1.37937 6e-4,0.71208 0.0385,0.93167 0.21916,1.27122 0.48259,0.90662 1.489536,1.58206 2.439006,1.63604 0.0948,0.004 0.44451,-0.2592 0.77737,-0.58796 z m 11.65823,0.84822 c -0.5684,-0.18568 -0.99959,-0.47326 -1.46255,-0.97551 -0.62397,-0.67693 -0.80824,-1.17409 -0.81245,-2.19201 -0.003,-0.75182 0.03,-0.92928 0.26225,-1.40205 0.33418,-0.68051 0.87324,-1.24051 1.52417,-1.58338 0.45512,-0.23973 0.60055,-0.26621 1.4618,-0.26628 1.1511,-1e-4 1.6361,0.19279 2.40023,0.95457 0.68389,0.68177 0.92668,1.35277 0.88313,2.44061 -0.0516,1.29049 -0.60247,2.17805 -1.72193,2.77475 -0.51729,0.27575 -0.71596,0.32667 -1.37015,0.35114 -0.46483,0.0174 -0.92186,-0.0226 -1.1645,-0.10176 z m 2.15177,-0.53922 c 0.66942,-0.28798 1.39752,-1.08442 1.59294,-1.74248 0.54673,-1.84103 -0.66677,-3.62925 -2.56245,-3.77605 -2.32982,-0.18042 -3.92063,2.51604 -2.61739,4.43656 0.84125,1.23971 2.23967,1.66154 3.5869,1.08197 z m 11.15912,0.57563 c -0.55035,-0.17166 -1.33484,-0.72059 -1.67578,-1.17261 -0.52412,-0.69488 -0.69337,-1.26551 -0.65233,-2.19921 0.0556,-1.26507 0.61064,-2.15272 1.7231,-2.75586 0.56832,-0.30815 0.66011,-0.32804 1.51361,-0.32804 0.78323,0 0.98321,0.035 1.44948,0.25358 0.66746,0.31293 1.23486,0.88456 1.5843,1.59616 0.23107,0.47049 0.26576,0.65385 0.26534,1.40205 -8.8e-4,1.03469 -0.187,1.5179 -0.86551,2.24326 -0.64696,0.69166 -1.31104,0.98973 -2.27979,1.02329 -0.42653,0.0148 -0.90459,-0.0134 -1.06242,-0.0626 z m 2.2151,-0.62949 c 0.99734,-0.47876 1.59959,-1.44805 1.59959,-2.57444 0,-1.38544 -0.8722,-2.47578 -2.25999,-2.82523 -0.53069,-0.13364 -0.82298,-0.009 -1.35768,0.58391 -1.32345,1.46493 -1.1331,3.67496 0.41792,4.85177 0.49061,0.37226 0.76244,0.36613 1.60016,-0.036 z m 10.96654,0.59308 c -1.86782,-0.61012 -2.81045,-2.75029 -1.99716,-4.53437 0.34761,-0.76254 1.08109,-1.45514 1.84692,-1.74399 0.77248,-0.29136 1.8804,-0.23656 2.62979,0.13008 0.64851,0.31728 1.25159,0.95397 1.5771,1.66498 0.34754,0.7591 0.34856,1.87023 0.002,2.6263 -0.32899,0.71865 -0.8136,1.22883 -1.52992,1.61065 -0.51135,0.27258 -0.712,0.32378 -1.36463,0.34819 -0.46483,0.0174 -0.92186,-0.0226 -1.16449,-0.10176 z m 2.75596,-0.86727 c 0.41529,-0.28218 0.90657,-0.99745 1.05055,-1.52946 0.29014,-1.07212 -0.13232,-2.34802 -1.0063,-3.03921 l -0.46842,-0.37044 -0.28364,0.26738 c -0.98738,0.93075 -1.28234,2.44862 -0.71618,3.68531 0.25056,0.5473 0.78451,1.22067 0.96794,1.22067 0.0612,0 0.26646,-0.1054 0.45605,-0.23425 z m 10.44017,0.82701 c -1.01038,-0.36077 -1.66307,-1.00582 -2.04678,-2.0228 -0.16059,-0.42565 -0.19216,-0.68197 -0.15961,-1.29574 0.0647,-1.22035 0.65185,-2.15546 1.7154,-2.73208 0.57522,-0.31186 0.654,-0.32843 1.56218,-0.32843 0.82145,0 1.01713,0.032 1.38679,0.22673 0.72211,0.3804 1.19246,0.82819 1.53657,1.46288 0.31188,0.57527 0.32843,0.65395 0.32835,1.56218 -7e-5,0.86125 -0.0266,1.00669 -0.26627,1.46179 -0.59039,1.12081 -1.57982,1.75128 -2.84008,1.80971 -0.5265,0.0245 -0.85248,-0.0143 -1.21655,-0.14424 z m 3.6827,-1.90784 c 0.35716,-0.76213 0.36248,-1.77064 0.013,-2.45594 -0.13225,-0.25927 -0.29266,-0.4888 -0.35649,-0.51008 -0.184,-0.0614 -0.51578,0.82321 -0.56933,1.51788 -0.0482,0.62576 0.0327,1.03693 0.33197,1.68725 0.0787,0.17096 0.18358,0.31083 0.2331,0.31083 0.0495,0 0.20602,-0.24747 0.34775,-0.54994 z m 9.66344,1.95256 c -1.28994,-0.48165 -2.07017,-1.38026 -2.26657,-2.61049 -0.2361,-1.47879 0.48146,-2.90724 1.77938,-3.54225 0.40518,-0.19824 0.71096,-0.26811 1.3047,-0.29816 1.09295,-0.0553 1.71979,0.18973 2.51309,0.98241 0.51229,0.51185 0.61781,0.68118 0.80157,1.28617 0.25973,0.85505 0.21154,1.57842 -0.16028,2.40696 -0.29631,0.66028 -0.98222,1.34573 -1.64083,1.63971 -0.56747,0.25331 -1.82065,0.32623 -2.33106,0.13565 z"
     style="fill:#000000;stroke-width:0.09564093" />
  <rect
     y="21.571457"
     x="39.922981"
     height="150.17587"
     width="150.17589"
     id="rect890"
     style="opacity:1;fill:none;fill-opacity:1;stroke:#000000;stroke-width:1.00522351;stroke-miterlimit:4;stroke-dasharray:none;stroke-opacity:1" />
  <text
     id="text894"
     y="191.7068"
     x="84.37999"
     style="font-style:normal;font-weight:normal;font-size:13.33333302px;line-height:1.25;font-family:sans-serif;letter-spacing:0px;word-spacing:0px;fill:#000000;fill-opacity:1;stroke:none"
     xml:space="preserve"><tspan
       y="191.7068"
       x="84.37999"
       id="tspan892">40.00mm</tspan></text>
</svg>
