<?xml version="1.0" encoding="UTF-8" standalone="no"?>
<!-- Created with Inkscape (http://www.inkscape.org/) -->

<svg
   xmlns:dc="http://purl.org/dc/elements/1.1/"
   xmlns:cc="http://creativecommons.org/ns#"
   xmlns:rdf="http://www.w3.org/1999/02/22-rdf-syntax-ns#"
   xmlns:svg="http://www.w3.org/2000/svg"
   xmlns="http://www.w3.org/2000/svg"
   xmlns:sodipodi="http://sodipodi.sourceforge.net/DTD/sodipodi-0.dtd"
   xmlns:inkscape="http://www.inkscape.org/namespaces/inkscape"
   version="1.1"
   id="svg588"
   width="976"
   height="589"
   viewBox="0 0 976 589"
   sodipodi:docname="14Plain.svg"
   inkscape:version="0.92.2 5c3e80d, 2017-08-06">
  <metadata
     id="metadata594">
    <rdf:RDF>
      <cc:Work
         rdf:about="">
        <dc:format>image/svg+xml</dc:format>
        <dc:type
           rdf:resource="http://purl.org/dc/dcmitype/StillImage" />
        <dc:title></dc:title>
      </cc:Work>
    </rdf:RDF>
  </metadata>
  <defs
     id="defs592" />
  <sodipodi:namedview
     pagecolor="#ffffff"
     bordercolor="#666666"
     borderopacity="1"
     objecttolerance="10"
     gridtolerance="10"
     guidetolerance="10"
     inkscape:pageopacity="0"
     inkscape:pageshadow="2"
     inkscape:window-width="1160"
     inkscape:window-height="672"
     id="namedview590"
     showgrid="false"
     inkscape:zoom="1.8778901"
     inkscape:cx="461.62334"
     inkscape:cy="213.52084"
     inkscape:window-x="0"
     inkscape:window-y="0"
     inkscape:window-maximized="0"
     inkscape:current-layer="svg588" />
  <path
     style="fill:#000000;stroke-width:0.63639259"
     d="m 452.83883,376.30612 v -35.35289 l 1.86298,-0.64945 c 1.1814,-0.41184 2.10066,-1.33107 2.51248,-2.51246 0.60247,-1.72822 0.8821,-1.86302 3.8645,-1.86302 h 3.2151 v 37.86536 37.86536 h -5.72753 -5.72753 z m 38.81994,27.73234 v -7.62055 l -10.02317,-0.17526 -10.02319,-0.17525 -0.18563,-3.82814 c -0.17699,-3.65126 0.29833,-5.03318 10.2883,-29.91045 l 10.47388,-26.08231 4.82601,-0.18587 4.82609,-0.18587 v 25.16428 25.16427 h 2.54558 2.54556 v 5.09115 5.09113 h -2.54556 -2.54558 v 7.63672 7.63671 h -5.09114 -5.09115 z m -0.0191,-29.76751 c -0.0114,-7.16625 -0.24272,-11.55107 -0.57854,-10.97777 -0.49588,0.84641 -2.22559,5.25699 -7.42492,18.93268 l -1.51213,3.97745 h 4.76747 4.76747 l -0.0191,-11.93236 z m -82.07529,4.06022 v -8.03768 h 2.76512 c 4.13885,0 4.87159,1.16183 4.87159,7.72429 0,6.55117 -0.58338,7.55605 -4.65254,8.0147 l -2.98417,0.33636 z m 4.70485,4.31993 c 0.68972,-1.79736 0.41314,-8.89419 -0.37738,-9.68475 -1.49425,-1.49424 -1.7819,-0.69289 -1.7819,4.96385 0,4.47138 0.19442,5.72754 0.8865,5.72754 0.48754,0 1.06029,-0.45298 1.27278,-1.00664 z m 4.62887,3.12794 c -0.2333,-0.23333 -0.42422,-3.81304 -0.42422,-7.9549 v -7.53065 h 3.18196 c 2.4041,0 3.18197,0.23335 3.18197,0.9546 0,0.63639 -0.6364,0.95459 -1.9092,0.95459 -1.75763,0 -1.90917,0.17677 -1.90917,2.22737 0,1.80311 0.2424,2.22737 1.27279,2.22737 0.70003,0 1.27278,0.39617 1.27278,0.88037 0,0.4842 -0.57275,1.03014 -1.27278,1.2132 -0.97495,0.25495 -1.27279,0.86806 -1.27279,2.61979 0,2.1168 0.14205,2.28696 1.90917,2.28696 1.48491,0 1.9092,0.28284 1.9092,1.27279 0,1.07697 -0.42429,1.27278 -2.75775,1.27278 -1.51672,0 -2.9486,-0.19092 -3.18196,-0.42427 z m 10.39445,-7.52394 c 0,-7.53734 0.0677,-7.96161 1.27278,-7.96161 1.19197,0 1.27278,0.42427 1.27278,6.68213 v 6.68212 h 1.85612 c 1.02089,0 1.96447,0.32499 2.0969,0.7222 0.13237,0.39722 0.76329,-2.60974 1.40191,-6.68211 1.09256,-6.96639 1.24784,-7.40434 2.6255,-7.40434 1.5831,0 1.60798,0.0672 2.82533,7.63671 0.36593,2.27511 0.81783,5.06729 1.0043,6.20484 0.28497,1.73824 0.14236,2.06827 -0.89356,2.06827 -0.7841,0 -1.37798,-0.57898 -1.63196,-1.59098 -0.5025,-2.00216 -2.13931,-2.07175 -2.63124,-0.11187 -0.33995,1.35447 -0.74318,1.4891 -4.78503,1.59769 l -4.41383,0.11856 z m 10.93946,-0.006 c -0.14307,-1.22506 -0.34059,-2.22738 -0.43899,-2.22738 -0.0985,0 -0.29597,1.00232 -0.43898,2.22738 -0.15783,1.3515 0.0146,2.22738 0.43898,2.22738 0.4241,0 0.59675,-0.87588 0.43899,-2.22738 z m 78.1555,0.0466 v -8.00158 h 2.84137 c 2.15787,0 2.99982,0.29612 3.50015,1.23095 0.85538,1.59835 0.84984,5.57616 -0.008,6.10667 -0.43078,0.26621 -0.45075,0.67432 -0.0567,1.15125 0.87573,1.05926 1.13519,6.96561 0.31793,7.23803 -1.09962,0.36654 -2.03059,-1.25123 -2.25143,-3.91251 -0.32188,-3.87786 -1.69292,-3.60053 -1.92191,0.38874 -0.15018,2.61646 -0.44451,3.42423 -1.30746,3.5883 -1.01288,0.19254 -1.11369,-0.51292 -1.11369,-7.78985 z m 4.13655,-3.54682 c 0,-1.16672 -0.35797,-2.24064 -0.79549,-2.38647 -0.55156,-0.18386 -0.79549,0.54799 -0.79549,2.38647 0,1.83846 0.24393,2.57032 0.79549,2.38647 0.43752,-0.14584 0.79549,-1.21975 0.79549,-2.38647 z m 5.40934,10.18227 c -1.08015,-1.08012 -1.27279,-2.1213 -1.27279,-6.87867 0,-6.53519 0.68756,-7.97048 3.81836,-7.97048 3.15599,0 3.81836,1.42068 3.81836,8.19004 0,4.83539 -0.19779,6.00446 -1.16385,6.87868 -1.56482,1.41616 -3.6525,1.32802 -5.20008,-0.21957 z m 3.50016,-7.05335 c 0,-4.3369 -0.1817,-5.3563 -0.95459,-5.3563 -0.7456,0 -0.99602,1.03197 -1.1436,4.71339 -0.20785,5.18342 0.10034,6.66515 1.30301,6.26427 0.55195,-0.18399 0.79518,-1.90319 0.79518,-5.62136 z m 5.13658,7.3261 c -1.26363,-1.2636 -1.32466,-4.09109 -0.0883,-4.09109 0.50142,0 1.09345,0.57275 1.31569,1.27278 0.22215,0.70003 0.8142,1.27278 1.31568,1.27278 1.57983,0 0.99448,-2.42608 -1.31568,-5.45257 -3.00269,-3.93369 -2.94078,-6.79361 0.17264,-7.97733 2.13084,-0.81012 4.6003,0.77031 4.6003,2.94409 0,1.92912 -1.6487,2.12687 -2.23852,0.26849 -0.22827,-0.71929 -0.74878,-1.19672 -1.15658,-1.06094 -1.47776,0.49199 -1.07092,2.23488 1.13921,4.88022 3.46809,4.15106 2.80135,8.94361 -1.24427,8.94361 -0.82508,0 -1.9501,-0.45001 -2.50014,-1.00004 z m 7.05778,0.52274 c -0.15973,-0.2625 0.25035,-3.62743 0.91137,-7.47761 0.66096,-3.85017 1.20432,-7.21509 1.20744,-7.4776 0.006,-0.26252 0.72161,-0.47731 1.59665,-0.47731 0.87503,0 1.59351,0.21479 1.59658,0.47731 0,0.26251 0.54647,3.62743 1.20748,7.4776 0.66095,3.85018 1.07111,7.21511 0.91138,7.47761 -0.64294,1.05671 -2.12472,0.3798 -2.50751,-1.14551 -0.5016,-1.99855 -2.39061,-1.8596 -2.68412,0.19743 -0.19365,1.35733 -1.62228,1.9622 -2.23927,0.94808 z m 4.15062,-7.51024 c -0.30738,-2.63279 -0.43129,-2.60815 -0.96426,0.19173 -0.2774,1.4573 -0.15414,2.06828 0.41721,2.06828 0.55425,0 0.72733,-0.71533 0.54705,-2.26001 z"
     id="path600"
     inkscape:connector-curvature="0"
     sodipodi:nodetypes="ccccscccccccccccsccccccccccccccccccccccccccsscccccssccscsssssscsssscssscsccsccsccscscscscccscccscccccscscscsssccssccssscsccscccsscccsccccccccsc" />
  <rect
     style="fill:none;fill-opacity:1;stroke:#000000;stroke-width:1.15820181;stroke-miterlimit:4;stroke-dasharray:none;stroke-opacity:1"
     id="rect602"
     width="150.0229"
     height="150.0229"
     x="404.73962"
     y="299.32394" />
  <text
     xml:space="preserve"
     style="font-style:normal;font-weight:normal;font-size:13.33333302px;line-height:1.25;font-family:sans-serif;letter-spacing:0px;word-spacing:0px;fill:#000000;fill-opacity:1;stroke:none"
     x="457.42825"
     y="465.45709"
     id="text606"><tspan
       sodipodi:role="line"
       id="tspan604"
       x="457.42825"
       y="465.45709">40.00mm</tspan></text>
</svg>
