<?xml version="1.0" encoding="UTF-8" standalone="no"?>
<svg
   xmlns:dc="http://purl.org/dc/elements/1.1/"
   xmlns:cc="http://creativecommons.org/ns#"
   xmlns:rdf="http://www.w3.org/1999/02/22-rdf-syntax-ns#"
   xmlns:svg="http://www.w3.org/2000/svg"
   xmlns="http://www.w3.org/2000/svg"
   viewBox="0 0 480 480"
   height="480"
   width="480"
   id="svg45"
   version="1.1">
  <metadata
     id="metadata51">
    <rdf:RDF>
      <cc:Work
         rdf:about="">
        <dc:format>image/svg+xml</dc:format>
        <dc:type
           rdf:resource="http://purl.org/dc/dcmitype/StillImage" />
        <dc:title></dc:title>
      </cc:Work>
    </rdf:RDF>
  </metadata>
  <defs
     id="defs49" />
  <path
     id="path862"
     d="m 208.55009,261.71079 c -0.19644,-0.24976 -0.80374,-2.33121 -1.86765,-6.40125 -1.44753,-5.53759 -1.59783,-6.06518 -3.00177,-10.53737 -1.32425,-4.21833 -2.264,-7.39726 -4.90992,-16.60908 -2.99633,-10.43171 -5.37073,-18.25853 -6.28268,-20.70971 -0.14973,-0.40249 -0.25225,-0.75182 -0.22779,-0.77627 0.062,-0.062 12.85624,-0.0922 12.95073,-0.0306 0.0422,0.0276 0.11473,0.12223 0.16108,0.2104 0.12203,0.23208 0.88639,2.9271 1.97658,6.96906 1.11809,4.14545 1.24188,4.58036 4.03593,14.1804 1.17886,4.05042 2.27241,7.73458 2.4301,8.18702 0.42936,1.23194 0.82025,2.04832 0.96719,2.02003 0.0675,-0.013 0.21937,-0.25604 0.33748,-0.54007 0.46207,-1.11122 6.86369,-20.74315 7.86301,-24.11358 1.38219,-4.66181 2.05258,-6.7519 2.22143,-6.92594 0.0835,-0.0861 0.33308,-0.16832 0.63996,-0.21086 0.62554,-0.0867 12.1415,-0.14074 12.26976,-0.0575 0.0679,0.044 -0.0676,0.53461 -0.49768,1.80193 -0.68266,2.0113 -6.57274,19.54606 -9.42736,28.0652 -8.55404,25.52813 -8.54605,25.50526 -8.90721,25.49857 -1.07663,-0.0199 -9.54381,0.0864 -9.9809,0.12534 -0.57188,0.0509 -0.59986,0.0455 -0.75029,-0.14572 z m 22.30156,0.1042 c -0.19266,-0.12375 -0.12115,-0.64619 0.31216,-2.28049 0.22195,-0.83713 3.2717,-11.69318 6.77722,-24.12452 3.50552,-12.43135 6.62223,-23.48665 6.92602,-24.56733 0.3038,-1.08068 0.65414,-2.43177 0.77853,-3.00243 0.13233,-0.60711 0.28064,-1.09205 0.35749,-1.16891 0.12006,-0.12009 0.61617,-0.13317 5.78081,-0.15247 6.16911,-0.0231 5.89768,-0.0421 6.081,0.42635 0.0477,0.12183 1.09532,4.2406 2.32809,9.15281 2.32387,9.25998 4.04581,16.04774 8.02941,31.65127 2.53884,9.94446 3.32327,13.06831 3.40345,13.55364 0.0285,0.17236 0.0699,0.37508 0.092,0.45048 0.0381,0.12965 -0.2559,0.13711 -5.40486,0.13711 -3.27754,0 -5.52365,-0.0299 -5.64236,-0.075 -0.10846,-0.0412 -0.25384,-0.18451 -0.32306,-0.31836 -0.0692,-0.13385 -0.74174,-2.66337 -1.4945,-5.62114 -0.75277,-2.95777 -1.43117,-5.4851 -1.50757,-5.61626 -0.0828,-0.14212 -0.24888,-0.27492 -0.41105,-0.32862 -0.20104,-0.0666 -1.6737,-0.076 -5.6368,-0.0359 -5.88846,0.0596 -5.68635,0.0414 -5.97584,0.53853 -0.082,0.14073 -0.76144,2.59968 -1.50997,5.46434 -0.74854,2.86466 -1.41554,5.31399 -1.48224,5.44297 -0.27742,0.53649 0.0418,0.50806 -5.95118,0.52974 -3.371,0.0122 -5.45357,-0.009 -5.5268,-0.0559 z m 22.97381,-21.614 c 0.82651,-0.0753 0.89528,-0.15036 0.77797,-0.84963 -0.1403,-0.8363 -2.7392,-10.96488 -2.92329,-11.3928 -0.26124,-0.60729 -0.39054,-0.52701 -0.67646,0.41998 -0.27449,0.90915 -2.80096,10.59514 -2.88123,11.04608 -0.07,0.39336 0.003,0.64265 0.21796,0.74635 0.20226,0.0975 4.48659,0.12092 5.48505,0.03 z m 23.87633,21.62201 c -0.28008,-0.0291 -0.59155,-0.0992 -0.69215,-0.15572 -0.44271,-0.24876 -0.41421,0.73527 -0.49149,-16.97011 -0.0567,-13.00127 -0.14809,-26.11107 -0.25807,-37.03814 -0.006,-0.633 0.0159,-0.78474 0.13221,-0.90097 0.13132,-0.13121 0.44697,-0.13976 5.15875,-0.13976 h 5.01887 l 1.67305,3.74444 c 3.90055,8.72978 5.07281,11.23024 6.98616,14.9016 0.60632,1.16342 1.7005,3.27872 2.43149,4.70068 0.73101,1.42196 1.47757,2.83216 1.65901,3.13379 l 0.32992,0.54841 -0.0436,-0.7051 c -0.0882,-1.42735 -0.1396,-26.1627 -0.0547,-26.28465 0.0715,-0.10269 0.74526,-0.11598 5.33926,-0.10526 2.89155,0.006 5.28123,0.0361 5.3104,0.0653 0.0292,0.0291 0.0434,12.41538 0.0316,27.52493 -0.019,24.39171 -0.0347,27.48519 -0.13985,27.5904 -0.10247,0.1025 -0.74616,0.12201 -4.76875,0.14447 -5.22824,0.0292 -4.96808,0.0563 -5.32561,-0.55525 -0.21083,-0.36063 -4.44821,-9.64663 -10.0724,-22.07318 -1.25789,-2.77928 -2.45042,-5.34129 -2.65007,-5.69337 -0.31055,-0.54762 -0.38322,-0.6293 -0.50293,-0.56524 -0.18356,0.0982 -0.18269,0.7267 0.014,10.13667 0.25983,12.42774 0.34362,17.7696 0.2848,18.15619 -0.0342,0.22497 -0.10888,0.39967 -0.18893,0.44213 -0.15953,0.0846 -8.45766,0.17298 -9.18115,0.0977 z m 54.44959,-0.057 c -6.4419,-0.0583 -12.03837,-0.13652 -12.4366,-0.17387 -0.76984,-0.0722 -0.98434,-0.1783 -1.12981,-0.55885 -0.074,-0.19362 -0.10007,-1.86607 -0.37794,-24.25224 -0.24212,-19.50682 -0.34131,-29.84893 -0.28832,-30.0601 l 0.0487,-0.19416 14.75016,-0.0513 c 10.39132,-0.0361 14.83994,-0.0265 15.05396,0.0326 0.43133,0.11912 0.64551,0.36786 0.74267,0.86254 0.0506,0.25782 0.0919,2.14123 0.10588,4.82638 0.0208,4.01274 0.0113,4.41513 -0.10691,4.53382 -0.2074,0.20824 -0.98241,0.2179 -9.56412,0.11925 -8.09668,-0.0931 -9.16235,-0.0735 -9.3415,0.17149 -0.10541,0.14414 -0.1591,2.67608 -0.1591,7.50197 0,3.38128 0.0103,3.66221 0.1412,3.86198 0.0776,0.11849 0.2363,0.25614 0.35255,0.30588 0.149,0.0638 1.81774,0.10533 5.65631,0.14084 3.72763,0.0345 5.54594,0.0788 5.76516,0.14066 0.22429,0.0632 0.34928,0.15414 0.41732,0.30347 0.10446,0.22926 0.29267,8.29278 0.2047,8.77015 -0.025,0.13588 -0.10627,0.2768 -0.18049,0.31315 -0.0742,0.0364 -2.69724,0.0838 -5.8289,0.1055 -5.62378,0.0389 -5.69663,0.0414 -5.91328,0.20323 -0.12671,0.0947 -0.24165,0.27288 -0.27215,0.42202 -0.10805,0.52823 0.11857,10.31414 0.25246,10.90308 0.0996,0.43797 0.30917,0.64928 0.76365,0.76994 0.24842,0.0659 2.61268,0.0861 8.77461,0.0746 4.639,-0.009 8.56446,0.0103 8.72323,0.042 0.55206,0.11024 0.51694,-0.20824 0.5795,5.25413 0.0602,5.25711 0.0517,5.41475 -0.30645,5.61976 -0.23747,0.13596 -2.53781,0.13763 -16.42654,0.012 z M 170.3925,261.6917 c -3.07974,-0.39614 -6.01712,-1.50828 -8.68007,-3.28643 -1.91824,-1.28088 -3.2611,-2.46238 -3.87463,-3.40909 -0.31031,-0.47881 -0.32831,-0.53743 -0.30125,-0.98115 0.0334,-0.5477 -0.0576,-0.37865 2.20311,-4.09438 1.7509,-2.87782 2.85071,-4.54 3.19655,-4.831 0.4666,-0.39261 0.66171,-0.28734 2.02752,1.09397 1.82042,1.84108 3.13344,2.7288 4.92288,3.32832 1.93732,0.64906 3.4407,0.582 4.78143,-0.21326 0.62518,-0.37082 1.33541,-1.12244 1.62451,-1.71916 0.1951,-0.40268 0.22149,-0.54541 0.22218,-1.20125 6.3e-4,-0.5781 -0.0395,-0.85798 -0.17935,-1.25352 -0.27316,-0.77229 -0.82175,-1.81982 -1.47704,-2.82041 -1.43138,-2.18566 -2.44829,-3.19851 -5.85986,-5.83655 -2.68533,-2.07648 -3.98129,-3.23058 -5.40281,-4.81144 -3.44254,-3.8284 -4.71902,-6.26051 -5.06126,-9.64329 -0.25923,-2.5623 0.50284,-6.37187 1.81142,-9.0552 1.61391,-3.30946 4.16551,-5.70694 7.40451,-6.95731 0.79402,-0.30651 2.75812,-0.80533 4.38194,-1.11288 1.57092,-0.29753 3.47322,-0.34683 4.77902,-0.12386 1.17965,0.20143 2.45927,0.58628 4.09624,1.23193 1.68031,0.66274 2.33555,0.98183 3.69906,1.80136 1.99443,1.19873 2.89734,1.85937 3.77966,2.76554 0.89838,0.92268 1.06936,1.26058 0.96721,1.91157 -0.0501,0.31882 -1.50161,3.18672 -3.24191,6.40505 -1.21197,2.24131 -1.74109,2.97711 -2.14084,2.97711 -0.29384,0 -0.74063,-0.30652 -1.71446,-1.17619 -2.22395,-1.98611 -3.42753,-2.74324 -5.32744,-3.35132 -2.44971,-0.78405 -4.13322,-0.60145 -5.23952,0.5683 -1.4164,1.49763 -1.33794,4.36394 0.17406,6.35897 0.51811,0.68364 0.96784,1.08566 4.72689,4.22548 4.05474,3.38678 5.44445,4.60466 6.53215,5.72447 2.88976,2.97506 4.60183,6.36551 5.1773,10.25274 0.13294,0.898 0.13273,3.67041 -3.1e-4,4.66151 -0.34668,2.58175 -1.15122,4.29532 -3.27373,6.97268 -0.7276,0.9178 -2.27428,2.44357 -3.12192,3.07972 -2.29102,1.71939 -5.6316,2.65417 -9.40088,2.63064 -0.77588,-0.005 -1.77053,-0.0551 -2.21033,-0.11167 z m 188.70946,-0.35214 c -1.34638,-0.0322 -2.31891,-0.0883 -2.44967,-0.1415 -0.11928,-0.0485 -0.24989,-0.17505 -0.29025,-0.28123 -0.12039,-0.31664 -0.15734,-4.56227 -0.23937,-27.50461 -0.0555,-15.51776 -0.10626,-22.34678 -0.17509,-23.5426 -0.14065,-2.44421 -0.13105,-2.95722 0.0616,-3.29047 0.092,-0.15923 0.30557,-0.35115 0.50925,-0.4577 l 0.35076,-0.18349 4.71965,0.0517 c 2.59581,0.0284 4.83093,0.0836 4.96692,0.1226 0.34942,0.1002 0.71335,0.36655 0.9093,0.66549 0.0923,0.14076 0.60651,1.23773 1.14276,2.43775 1.44953,3.24372 7.60711,16.6942 9.3961,20.52463 1.1952,2.55902 1.36622,2.64464 1.54506,0.77334 0.10074,-1.05411 0.28584,-4.33619 0.43301,-7.67778 0.0664,-1.50813 0.207,-4.46957 0.31239,-6.58096 0.10538,-2.11139 0.228,-4.9318 0.2725,-6.26757 0.0445,-1.33578 0.1013,-2.78437 0.12626,-3.2191 l 0.0454,-0.7904 5.8104,-0.0101 c 3.21112,-0.006 5.85989,0.0206 5.92101,0.0585 0.15502,0.0963 0.19676,-1.20289 -1.04971,32.67436 -0.36544,9.93216 -0.70099,18.97361 -0.74568,20.09212 -0.0867,2.1698 -0.12188,2.34187 -0.49805,2.43629 -0.10069,0.0253 -2.29487,0.0346 -4.87597,0.0208 l -4.6929,-0.0251 -0.28027,-0.17431 c -0.1566,-0.0974 -0.36967,-0.33939 -0.48288,-0.54841 -0.21506,-0.39715 -1.30814,-2.79291 -8.10607,-17.76664 -2.34746,-5.17075 -4.41468,-9.65653 -4.59379,-9.9684 -0.41767,-0.72725 -0.56137,-0.7455 -0.62455,-0.0793 -0.0256,0.26931 0.0219,3.8389 0.10543,7.93241 0.3115,15.26583 0.3828,19.82451 0.31549,20.17092 -0.12548,0.64581 -0.0555,0.63151 -3.00989,0.61582 -1.42795,-0.008 -3.60104,-0.0378 -4.8291,-0.0671 z"
     style="fill:#000000;stroke-width:0.07834473" />
  <rect
     y="186.30609"
     x="149.33014"
     height="95.470367"
     width="250.05038"
     id="rect2302"
     style="fill:none;fill-opacity:1;stroke:#000000;stroke-width:0.85032499;stroke-miterlimit:4;stroke-dasharray:none;stroke-opacity:1" />
  <text
     id="text2306"
     y="347.6142"
     x="181.00508"
     style="font-style:normal;font-weight:normal;font-size:40px;line-height:1.25;font-family:sans-serif;letter-spacing:0px;word-spacing:0px;fill:#000000;fill-opacity:1;stroke:none"
     xml:space="preserve"><tspan
       y="347.6142"
       x="181.00508"
       id="tspan2304">40.00mm</tspan></text>
  <path
     id="path2308"
     d="m 151.87817,307.00508 h 240.92054 6.7952"
     style="fill:none;stroke:#000000;stroke-width:0.872123px;stroke-linecap:butt;stroke-linejoin:miter;stroke-opacity:1" />
  <path
     id="path2310"
     d="m 125.07614,185.17767 v 98.2741 -0.66401"
     style="fill:none;stroke:#000000;stroke-width:0.90419441px;stroke-linecap:butt;stroke-linejoin:miter;stroke-opacity:1" />
  <text
     transform="rotate(-90)"
     id="text2314"
     y="111.19431"
     x="-330.95648"
     style="font-style:normal;font-weight:normal;font-size:40px;line-height:1.25;font-family:sans-serif;letter-spacing:0px;word-spacing:0px;fill:#000000;fill-opacity:1;stroke:none"
     xml:space="preserve"><tspan
       y="111.19431"
       x="-330.95648"
       id="tspan2312">20.00mm</tspan></text>
</svg>
