<?xml version="1.0" encoding="UTF-8" standalone="no"?>
<svg
   xmlns:dc="http://purl.org/dc/elements/1.1/"
   xmlns:cc="http://creativecommons.org/ns#"
   xmlns:rdf="http://www.w3.org/1999/02/22-rdf-syntax-ns#"
   xmlns:svg="http://www.w3.org/2000/svg"
   xmlns="http://www.w3.org/2000/svg"
   xmlns:sodipodi="http://sodipodi.sourceforge.net/DTD/sodipodi-0.dtd"
   xmlns:inkscape="http://www.inkscape.org/namespaces/inkscape"
   viewBox="0 0 793.70081 680.31492"
   height="180mm"
   width="210mm"
   id="svg1032"
   version="1.1"
   sodipodi:docname="stoli_big1.svg"
   inkscape:version="0.92.2 5c3e80d, 2017-08-06">
  <sodipodi:namedview
     pagecolor="#ffffff"
     bordercolor="#666666"
     borderopacity="1"
     objecttolerance="10"
     gridtolerance="10"
     guidetolerance="10"
     inkscape:pageopacity="0"
     inkscape:pageshadow="2"
     inkscape:window-width="1440"
     inkscape:window-height="806"
     id="namedview969"
     showgrid="false"
     inkscape:zoom="0.65374132"
     inkscape:cx="298.73247"
     inkscape:cy="255.90898"
     inkscape:window-x="0"
     inkscape:window-y="1"
     inkscape:window-maximized="1"
     inkscape:current-layer="svg1032" />
  <metadata
     id="metadata1038">
    <rdf:RDF>
      <cc:Work
         rdf:about="">
        <dc:format>image/svg+xml</dc:format>
        <dc:type
           rdf:resource="http://purl.org/dc/dcmitype/StillImage" />
        <dc:title></dc:title>
      </cc:Work>
    </rdf:RDF>
  </metadata>
  <defs
     id="defs1036" />
  <path
     id="path1585"
     d="m 159.8837,598.39076 c -19.31042,-1.67217 -31.89752,-5.92616 -39.03591,-13.19259 -18.79335,-19.13047 2.63608,-55.36635 65.75628,-111.18998 12.99221,-11.49036 31.06027,-26.59804 43.70477,-36.54392 1.91734,-1.50814 3.48606,-2.79197 3.48606,-2.85293 0,-0.4952 -13.60431,-5.85594 -38.75343,-15.2706 -54.67615,-20.46827 -74.20435,-29.94396 -93.13656,-45.19272 -19.49157,-15.69927 -30.32979,-35.63551 -32.76632,-60.27154 -0.56958,-5.75922 -0.20153,-21.7097 0.63204,-27.39011 4.74155,-32.31188 19.84213,-62.28532 45.55561,-90.42431 12.56539,-13.75065 30.38268,-28.31081 48.78315,-39.8652 29.28427,-18.38878 60.43972,-30.74967 88.66273,-35.17687 42.8385,-6.71982 81.88119,2.12727 105.28521,23.85767 2.75931,2.56201 5.95398,5.9446 7.09923,7.51689 l 2.08233,2.85872 -12.48716,10.33373 c -6.86793,5.68357 -13.06403,10.83767 -13.76913,11.45356 l -1.28198,1.1198 -4.73501,-4.25058 c -5.83942,-5.24202 -10.74212,-8.54869 -17.37927,-11.72159 -6.55203,-3.13222 -10.85605,-4.66567 -17.11707,-6.09853 -13.74692,-3.14606 -27.18832,-3.44302 -42.90313,-0.94786 -24.7015,3.92203 -54.47189,16.36065 -78.22723,32.68481 -30.85504,21.20291 -51.99388,49.2147 -60.8135,80.58602 -6.96738,24.78286 -4.08088,44.02533 9.0407,60.26828 3.91621,4.84783 12.59771,12.6681 19.02909,17.14136 16.80823,11.69078 36.50463,21.17587 71.01916,34.20036 21.41562,8.08146 37.16615,14.81276 50.30409,21.49846 4.90227,2.49467 5.65304,2.77282 6.36493,2.35814 0.44391,-0.25859 4.68476,-3.267 9.42415,-6.6854 17.05447,-12.3009 38.53531,-27.12506 57.25864,-39.5148 4.12003,-2.72633 7.49099,-5.20552 7.49099,-5.50928 0,-0.30378 0.99612,-12.12557 2.21362,-26.27068 1.21748,-14.14511 2.14384,-25.78344 2.0586,-25.86297 -0.0853,-0.0795 -9.55537,3.38681 -21.04466,7.703 -11.48929,4.3162 -21.08825,7.88205 -21.33105,7.92413 -0.24282,0.042 -0.40645,-0.34272 -0.3637,-0.85512 1.07371,-12.86266 2.3256,-24.4961 2.67004,-24.81181 0.24178,-0.2216 9.87827,-4.23058 21.41442,-8.90886 11.53613,-4.67827 21.01231,-8.52866 21.05811,-8.5564 0.0458,-0.0277 0.83945,-9.18275 1.76362,-20.34449 0.9893,-11.94822 1.8587,-20.46302 2.11405,-20.70495 0.65033,-0.61603 38.21653,-15.89754 38.47894,-15.6528 0.2087,0.19469 -2.86422,37.12821 -3.28212,39.44775 -0.10379,0.57563 -10e-4,1.0248 0.23408,1.0248 0.23028,0 11.74881,-4.62383 25.59674,-10.27519 13.8479,-5.65133 25.25731,-10.2012 25.35422,-10.1108 0.26888,0.2508 -2.64901,29.85605 -2.96825,30.11623 -0.15358,0.12503 -11.50759,4.44406 -25.23113,9.59761 -13.72354,5.15352 -25.11416,9.52138 -25.31251,9.70638 -0.1983,0.18499 -1.0551,8.10779 -1.90397,17.60618 -2.68999,30.09936 -5.11713,56.67377 -7.78887,85.27928 -2.67983,28.69193 -2.76691,30.72395 -1.50133,35.02951 1.20309,4.09303 2.92826,5.59648 6.40485,5.58163 6.42621,-0.0276 15.8609,-8.53179 21.88267,-19.72491 9.20843,-17.11638 14.43632,-33.92336 16.17574,-52.00288 1.89673,-19.71463 9.30849,-40.82335 18.56694,-52.8786 8.77573,-11.42674 18.44096,-18.56983 30.10107,-22.24617 8.12345,-2.56123 18.76769,-3.3891 25.85818,-2.01112 14.15463,2.75085 24.40184,12.28045 29.94773,27.85054 2.47175,6.93945 4.21121,16.43908 4.21121,22.99852 0,2.47947 0.10876,2.99592 0.62997,2.99592 1.96632,0 16.40996,-8.63769 24.47061,-14.63413 3.75559,-2.79375 4.48617,-3.49946 4.29493,-4.14832 -1.0693,-3.62837 -1.22816,-41.38263 -0.23921,-56.86642 4.24067,-66.40025 18.09309,-127.77518 36.96574,-163.78163 6.86851,-13.10418 14.8034,-22.648456 24.43461,-29.390766 14.18522,-9.93031 30.04866,-10.92483 41.17213,-2.58125 8.63574,6.47752 13.83942,16.99451 15.91161,32.158346 1.31186,9.60045 0.32504,29.52944 -2.25132,45.46385 -5.63221,34.83446 -21.23879,78.94707 -42.7144,120.73376 -11.46618,22.31068 -20.53736,35.71485 -32.81026,48.48256 -2.08561,2.16963 -3.14454,3.57363 -3.14454,4.16902 0,1.66407 1.53427,6.5101 2.81662,8.89618 2.8117,5.2318 6.79584,9.23718 11.34269,11.40324 2.64115,1.25822 7.1131,1.56488 10.28364,0.70516 13.39191,-3.63135 28.97049,-27.1901 42.66476,-64.51983 7.35563,-20.05107 13.50261,-45.51319 14.63778,-60.63286 l 0.27146,-3.61673 19.13759,-7.14213 c 10.52564,-3.92817 19.19206,-7.07995 19.2587,-7.00393 0.0667,0.0759 -0.47074,4.49826 -1.19414,9.82722 -4.75868,35.05566 -8.09344,84.69476 -6.20865,92.4183 1.00321,4.11083 3.26662,6.89411 5.60645,6.89411 4.79034,0 11.63149,-5.5393 18.0406,-14.60759 2.4664,-3.48963 6.34374,-10.42933 8.18287,-14.64578 0.62582,-1.43472 1.19059,-2.67599 1.25497,-2.75834 0.43338,-0.55421 16.9088,9.90423 16.9088,10.73358 0,1.16597 -6.51539,13.69261 -10.02595,19.27608 -2.88843,4.59394 -9.13758,13.14341 -11.92291,16.31155 -5.89495,6.70524 -14.10324,13.12015 -19.95448,15.59487 -6.60173,2.79206 -16.77578,4.0104 -22.8916,2.74127 -11.92597,-2.47487 -19.7521,-12.06473 -22.49949,-27.57017 -0.14084,-0.7953 -0.40325,-1.29837 -0.58291,-1.11797 -0.17971,0.18041 -1.26185,2.42421 -2.40467,4.98622 -4.77148,10.69645 -11.77275,23.02694 -18.19703,32.04827 -12.23772,17.18488 -25.40492,26.46324 -41.54073,29.27201 -4.79119,0.83402 -12.76755,0.5776 -16.76547,-0.5389 -8.53902,-2.38476 -15.94185,-7.5998 -20.99324,-14.78905 -2.50854,-3.57017 -5.97202,-10.19571 -7.19185,-13.75772 -0.49136,-1.43473 -1.03646,-2.75443 -1.21134,-2.93266 -0.17491,-0.17825 -2.71456,1.09535 -5.6437,2.83023 -6.94775,4.11502 -11.87073,6.69607 -21.87426,11.46839 l -8.20194,3.91287 -0.67495,3.63973 c -1.53876,8.29797 -5.61889,21.35914 -8.94075,28.62087 -8.6657,18.94354 -21.59622,30.63661 -38.34649,34.67669 -4.08281,0.98474 -5.75257,1.18479 -11.25232,1.34809 -8.91636,0.26476 -13.84603,-0.51308 -20.75258,-3.2745 -5.57851,-2.23041 -12.38662,-7.71267 -16.25298,-13.08773 -1.14492,-1.59165 -2.17153,-2.89712 -2.2814,-2.90103 -0.10981,-0.005 -0.89307,1.62542 -1.74047,3.62078 -2.35947,5.55579 -8.68953,17.32274 -11.72296,21.79184 -5.3428,7.87137 -7.87057,10.87722 -13.89734,16.52582 -7.19455,6.74306 -11.76134,9.75019 -18.88536,12.43574 -5.7484,2.16695 -10.03426,2.99918 -15.38792,2.98804 -7.30637,-0.0152 -12.39934,-1.94141 -17.27112,-6.53195 -4.9764,-4.68915 -8.44874,-11.9318 -10.26429,-21.40949 -1.373,-7.16735 -1.29902,-20.95932 0.19363,-36.09949 0.61374,-6.22536 1.03341,-11.39578 0.93257,-11.48983 -0.62791,-0.58571 -47.39399,30.4696 -47.39399,31.47229 0,0.11945 2.42704,2.38424 5.39342,5.03271 2.96638,2.64848 6.5761,6.18418 8.02161,7.85714 9.85208,11.40222 15.59525,24.25923 17.33917,38.81656 0.62429,5.21119 0.49845,18.56588 -0.23139,24.55914 -3.00512,24.67648 -19.52137,48.42732 -47.1029,67.73538 -18.34537,12.84239 -40.35011,22.91568 -63.82698,29.21866 -6.25071,1.67817 -21.04916,4.43732 -27.86285,5.19508 -6.307,0.70135 -23.99697,1.02797 -29.5645,0.54583 z m 32.5609,-31.84514 c 25.11305,-2.8072 44.78767,-10.36716 62.07177,-23.85087 4.58634,-3.57791 12.69936,-11.40272 16.83016,-16.23225 8.83238,-10.32641 13.98648,-19.38164 16.21873,-28.49471 0.87787,-3.58381 0.99866,-11.536 0.22641,-14.9062 -1.8925,-8.25924 -6.46793,-15.95005 -13.7715,-23.14837 -4.60407,-4.53765 -13.38824,-11.32215 -14.65931,-11.32215 -1.26558,0 -23.84716,19.26793 -39.2885,33.52336 -39.26307,36.24746 -61.23555,62.64677 -63.16696,75.89325 -0.73,5.00658 2.29863,8.10434 8.88193,9.08462 3.28937,0.48977 20.55208,0.13587 26.65727,-0.54668 z M 480.08485,393.41113 c 10.56301,-3.68638 18.12644,-20.63651 21.02297,-47.11371 0.68824,-6.2913 0.5986,-17.92633 -0.1733,-22.49563 -2.1175,-12.53448 -7.70199,-18.25733 -16.71857,-17.13282 -8.71385,1.08676 -15.54021,9.18909 -19.87567,23.59077 -2.97731,9.89017 -4.77663,21.16002 -5.08908,31.87548 -0.2571,8.81487 0.0696,12.28942 1.70913,18.17518 1.95482,7.01778 6.14886,12.14228 11.00422,13.44551 2.33255,0.6261 5.75464,0.48081 8.1203,-0.34478 z M 603.36022,271.19429 c 8.20426,-12.8416 19.12985,-35.76055 26.62035,-55.84264 9.93259,-26.62908 15.23412,-50.2322 17.92184,-79.79034 1.98996,-21.88505 0.76659,-33.77104 -4.09854,-39.82042 -5.96571,-7.41782 -16.80184,5.51041 -23.90568,28.52115 -9.83214,31.84798 -18.96391,95.96034 -20.77081,145.82753 -0.31222,8.61772 -0.53059,8.56072 4.23284,1.10472 z m 158.92761,-0.20275 c -2.77835,-0.79748 -6.05773,-3.74742 -7.13511,-6.41826 -2.95846,-7.33398 3.21309,-15.0544 11.60183,-14.51352 6.05612,0.39048 10.29729,4.45264 10.70326,10.25149 0.17307,2.47259 0.0804,2.91209 -1.07589,5.10299 -2.62708,4.97746 -8.32652,7.23284 -14.09409,5.5773 z M 770.6,268.93059 c 2.25192,-1.08092 4.31812,-3.4185 5.00087,-5.65763 2.58672,-8.48296 -8.15026,-15.21682 -15.6994,-9.8461 -4.65772,3.31366 -5.11053,9.99508 -0.94087,13.88434 3.07527,2.86847 7.69747,3.51157 11.6394,1.61939 z m -9.34925,-8.25055 0.11026,-5.68297 3.44353,0.0539 c 3.71446,0.0583 4.78944,0.39611 5.78946,1.8197 0.81294,1.15722 0.47428,2.54476 -0.91389,3.74477 l -1.03729,0.89669 0.88895,1.9596 c 0.48896,1.07779 0.98229,2.16922 1.09621,2.42543 0.13964,0.31388 -0.19571,0.46581 -1.02829,0.46581 -1.11077,0 -1.35912,-0.22822 -2.45813,-2.25903 -1.08914,-2.01248 -1.34054,-2.24636 -2.30298,-2.14277 -1.01805,0.10951 -1.08734,0.23995 -1.20024,2.25904 -0.11764,2.10357 -0.14159,2.14276 -1.30882,2.14276 h -1.1891 z m 6.62247,-1.09933 c 0.6532,-0.60933 0.60417,-1.97355 -0.0904,-2.51118 -0.31331,-0.24259 -1.34707,-0.3889 -2.29721,-0.32514 -1.72419,0.11584 -1.72775,0.119 -1.85034,1.69973 l -0.12292,1.58377 h 1.94066 c 1.06738,0 2.15645,-0.20123 2.42013,-0.44718 z m -67.63876,-82.05807 c -5.16387,-1.52332 -8.33916,-4.97273 -9.96919,-10.82982 -0.7898,-2.83802 -0.78843,-8.60682 0.006,-11.7535 1.21511,-4.83239 4.59282,-9.82976 8.4885,-12.55865 3.03261,-2.12432 5.50875,-2.87618 9.46832,-2.87487 4.23901,0.001 6.94075,0.67621 9.77456,2.44129 4.35018,2.7096 6.406,7.04402 6.406,13.50614 0,4.68398 -0.65255,7.19488 -3.06249,11.78368 -1.41671,2.69758 -2.48594,4.12552 -4.4922,5.99912 -2.86194,2.67262 -4.35911,3.53992 -7.42731,4.30252 -2.48358,0.61732 -7.06928,0.60937 -9.18894,-0.0158 z"
     style="fill:#000000;stroke-width:0.3858535"
     inkscape:connector-curvature="0" />
  <rect
     y="41.368271"
     x="57.040241"
     height="564.74927"
     width="723.48938"
     id="rect1587"
     style="opacity:1;fill:none;fill-opacity:1;stroke:#000000;stroke-width:2.17987657;stroke-miterlimit:4;stroke-dasharray:none;stroke-opacity:1" />
  <text
     id="text1591"
     y="384.21597"
     x="631.53955"
     style="font-style:normal;font-weight:normal;font-size:13.33333302px;line-height:1.25;font-family:sans-serif;letter-spacing:0px;word-spacing:0px;fill:#000000;fill-opacity:1;stroke:none"
     xml:space="preserve"><tspan
       y="396.01285"
       x="631.53955"
       id="tspan1589" /></text>
  <text
     id="text1595"
     y="634.00574"
     x="347.92075"
     style="font-style:normal;font-weight:normal;font-size:13.33333302px;line-height:1.25;font-family:sans-serif;letter-spacing:0px;word-spacing:0px;fill:#000000;fill-opacity:1;stroke:none"
     xml:space="preserve"><tspan
       y="634.00574"
       x="347.92075"
       id="tspan1593"
       style="font-size:26.66666603px">192.00mm</tspan></text>
  <text
     transform="rotate(-90)"
     id="text1599"
     y="45.498665"
     x="-375.35828"
     style="font-style:normal;font-weight:normal;font-size:13.33333302px;line-height:1.25;font-family:sans-serif;letter-spacing:0px;word-spacing:0px;fill:#000000;fill-opacity:1;stroke:none"
     xml:space="preserve"><tspan
       y="45.498665"
       x="-375.35828"
       id="tspan1597"
       style="font-size:26.66666603px">150.00mm</tspan></text>
</svg>
