<?xml version="1.0" encoding="UTF-8" standalone="no"?>
<svg
   xmlns:dc="http://purl.org/dc/elements/1.1/"
   xmlns:cc="http://creativecommons.org/ns#"
   xmlns:rdf="http://www.w3.org/1999/02/22-rdf-syntax-ns#"
   xmlns:svg="http://www.w3.org/2000/svg"
   xmlns="http://www.w3.org/2000/svg"
   viewBox="0 0 226.77166 226.77164"
   height="60mm"
   width="60mm"
   id="svg1032"
   version="1.1">
  <metadata
     id="metadata1038">
    <rdf:RDF>
      <cc:Work
         rdf:about="">
        <dc:format>image/svg+xml</dc:format>
        <dc:type
           rdf:resource="http://purl.org/dc/dcmitype/StillImage" />
        <dc:title></dc:title>
      </cc:Work>
    </rdf:RDF>
  </metadata>
  <defs
     id="defs1036" />
  <path
     id="path1585"
     d="m 63.389828,147.53699 c -3.929121,-0.34026 -6.490257,-1.20583 -7.942727,-2.68434 -3.823903,-3.89251 0.536373,-11.26551 13.379575,-22.62406 2.643548,-2.33797 6.319901,-5.41196 8.892697,-7.43567 0.390125,-0.30686 0.709326,-0.56808 0.709326,-0.5805 0,-0.10074 -2.768101,-1.19151 -7.885242,-3.10713 -11.125084,-4.16473 -15.098522,-6.09276 -18.950695,-9.19545 -3.96599,-3.194365 -6.171261,-7.250835 -6.667036,-12.263588 -0.115865,-1.171841 -0.04095,-4.417309 0.128616,-5.573125 0.964768,-6.574567 4.037315,-12.67332 9.269287,-18.398814 2.556705,-2.797878 6.182027,-5.760461 9.926008,-8.111462 5.958529,-3.741597 12.297798,-6.256693 18.040395,-7.157508 8.716425,-1.367297 16.660528,0.432847 21.422598,4.85437 0.56144,0.521295 1.21146,1.209561 1.4445,1.529484 l 0.42368,0.581669 -2.54079,2.102617 c -1.39741,1.156447 -2.65816,2.205159 -2.80162,2.330488 l -0.260856,0.22783 -0.963442,-0.864862 c -1.188148,-1.066602 -2.185717,-1.739421 -3.536191,-2.38501 -1.333155,-0.637322 -2.208903,-0.949334 -3.482847,-1.24089 -2.797114,-0.640136 -5.532054,-0.700553 -8.729584,-0.192859 -5.026062,0.798022 -11.083506,3.328934 -15.917054,6.650446 -6.27815,4.314203 -10.579313,10.01381 -12.373852,16.396995 -1.417671,5.042637 -0.830354,8.957932 1.839523,12.262923 0.796847,0.986387 2.563291,2.577603 3.871884,3.487784 3.420016,2.378751 7.427684,4.308692 14.450422,6.958822 4.357474,1.64436 7.56228,3.01398 10.235488,4.37435 0.997466,0.50759 1.150222,0.56418 1.295079,0.4798 0.09031,-0.0526 0.953214,-0.66473 1.917551,-1.36029 3.470109,-2.50289 7.84086,-5.51919 11.650529,-8.040154 0.83832,-0.554738 1.52421,-1.059177 1.52421,-1.120984 0,-0.06186 0.20268,-2.467211 0.45041,-5.345359 0.24773,-2.878137 0.43622,-5.246209 0.41887,-5.262396 -0.0174,-0.01617 -1.94426,0.689129 -4.282002,1.567355 -2.337751,0.878215 -4.290867,1.603772 -4.34027,1.61234 -0.04936,0.0086 -0.08266,-0.06972 -0.07404,-0.173989 0.218476,-2.617197 0.473185,-4.984288 0.54328,-5.04851 0.04926,-0.04505 2.009956,-0.86081 4.357233,-1.812709 2.347279,-0.9519 4.275409,-1.735351 4.284729,-1.740999 0.009,-0.0065 0.1708,-1.868428 0.35886,-4.139526 0.20129,-2.431139 0.37819,-4.163656 0.43015,-4.212887 0.13232,-0.125349 7.77598,-3.234701 7.82938,-3.184911 0.0425,0.03966 -0.58278,7.554564 -0.66782,8.02652 -0.0211,0.117073 -2.5e-4,0.208519 0.0478,0.208519 0.0469,0 2.39055,-0.940821 5.20822,-2.090709 2.81767,-1.149899 5.13915,-2.075664 5.15889,-2.057266 0.0547,0.05108 -0.539,6.074869 -0.60396,6.127807 -0.0313,0.02544 -2.34147,0.904232 -5.13384,1.952846 -2.79235,1.048594 -5.11005,1.937327 -5.15037,1.974983 -0.0404,0.03761 -0.2147,1.649704 -0.38742,3.582365 -0.54734,6.12438 -1.0412,11.531527 -1.58482,17.351964 -0.54526,5.838 -0.56298,6.25145 -0.30546,7.12752 0.24478,0.83282 0.59581,1.13872 1.3032,1.1357 1.30756,-0.006 3.22724,-1.73598 4.45252,-4.01346 1.87365,-3.4827 2.93739,-6.90247 3.2913,-10.581137 0.38592,-4.011385 1.89401,-8.306416 3.77785,-10.759336 1.78562,-2.325007 3.75222,-3.778435 6.12473,-4.526473 1.65289,-0.521122 3.8187,-0.689582 5.26141,-0.409189 2.88008,0.559715 4.96509,2.498723 6.09353,5.6668 0.50292,1.41198 0.85686,3.344888 0.85686,4.679552 0,0.504504 0.0222,0.609593 0.12819,0.609593 0.40008,0 3.33896,-1.757531 4.97908,-2.977633 0.76415,-0.568455 0.91282,-0.712052 0.8739,-0.844073 -0.21758,-0.738273 -0.24991,-8.420223 -0.0486,-11.570733 0.86286,-13.510604 3.68145,-25.99868 7.5215,-33.324981 1.39754,-2.666343 3.01207,-4.608337 4.97176,-5.980203 2.8863,-2.020549 6.11405,-2.222891 8.37737,-0.525207 1.75714,1.317992 2.81595,3.457898 3.23758,6.543324 0.26693,1.953417 0.0662,6.008418 -0.45807,9.25062 -1.14601,7.087841 -4.32151,16.063512 -8.6912,24.565955 -2.33305,4.539587 -4.17878,7.266961 -6.67598,9.864847 -0.42436,0.441447 -0.63981,0.72713 -0.63981,0.848265 0,0.3386 0.31218,1.324631 0.57309,1.810123 0.57212,1.064534 1.38277,1.879518 2.30794,2.320254 0.5374,0.256002 1.44731,0.318403 2.09243,0.143477 2.72488,-0.738877 5.89469,-5.53243 8.68108,-13.12799 1.49667,-4.079831 2.7474,-9.260664 2.97838,-12.337092 l 0.0553,-0.735913 3.89397,-1.453213 c 2.14168,-0.799284 3.90504,-1.440582 3.91861,-1.425106 0.0136,0.01541 -0.0957,0.915267 -0.24298,1.999565 -0.96825,7.13285 -1.64678,17.233018 -1.26329,18.804544 0.20412,0.836443 0.66468,1.402755 1.14077,1.402755 0.9747,0 2.36667,-1.127084 3.67075,-2.972233 0.50184,-0.710048 1.29078,-2.122081 1.66498,-2.980014 0.12733,-0.291912 0.24226,-0.544488 0.25534,-0.561236 0.0882,-0.112762 3.44048,2.015237 3.44048,2.183975 0,0.23725 -1.32569,2.786068 -2.03999,3.922161 -0.58771,0.934731 -1.85924,2.674307 -2.42599,3.318936 -1.19945,1.364333 -2.86961,2.669586 -4.06017,3.173121 -1.34329,0.56811 -3.41342,0.816009 -4.65781,0.557775 -2.42661,-0.503566 -4.01901,-2.454839 -4.57803,-5.609768 -0.0287,-0.161819 -0.0821,-0.264171 -0.11863,-0.227474 -0.0365,0.03664 -0.25676,0.493263 -0.48928,1.014558 -0.97087,2.176431 -2.39543,4.685339 -3.70259,6.520929 -2.49003,3.496641 -5.1692,5.384525 -8.45238,5.956035 -0.97488,0.1697 -2.59785,0.11755 -3.41131,-0.10965 -1.73745,-0.48523 -3.24371,-1.54633 -4.27153,-3.009136 -0.51041,-0.726441 -1.21514,-2.074555 -1.46335,-2.799313 -0.0999,-0.291945 -0.21089,-0.560449 -0.24647,-0.596725 -0.0356,-0.03632 -0.55233,0.222874 -1.14832,0.575872 -1.41369,0.837304 -2.41537,1.362468 -4.45081,2.333497 l -1.66888,0.796169 -0.13731,0.740568 c -0.3131,1.688418 -1.14331,4.345998 -1.8192,5.823558 -1.76322,3.85449 -4.39422,6.2337 -7.80243,7.05574 -0.83075,0.20037 -1.17049,0.24107 -2.28954,0.27431 -1.81423,0.0538 -2.81729,-0.10433 -4.22258,-0.66627 -1.13507,-0.45383 -2.52033,-1.56931 -3.30702,-2.663 -0.23297,-0.32386 -0.44185,-0.58948 -0.4642,-0.59026 -0.0224,-6.3e-4 -0.18171,0.3307 -0.35414,0.73671 -0.48008,1.13045 -1.76807,3.5247 -2.3853,4.43404 -1.0871,1.6016 -1.60143,2.21322 -2.82771,3.36254 -1.4639,1.37202 -2.3931,1.9839 -3.84265,2.53032 -1.16965,0.44092 -2.04168,0.61025 -3.13101,0.60798 -1.48664,-0.003 -2.52291,-0.39502 -3.5142,-1.32907 -1.01254,-0.9541 -1.71906,-2.42779 -2.08849,-4.35623 -0.27936,-1.45835 -0.26431,-4.26463 0.0394,-7.34524 0.12487,-1.26668 0.21028,-2.31872 0.18975,-2.33786 -0.12777,-0.11922 -9.643355,6.19972 -9.643355,6.40374 0,0.0244 0.493834,0.48512 1.097413,1.02402 0.603569,0.53888 1.338059,1.25831 1.632181,1.5987 2.00462,2.32003 3.173185,4.93607 3.528021,7.89809 0.127032,1.06033 0.101417,3.77764 -0.0471,4.9971 -0.611442,5.02098 -3.972055,9.8536 -9.584118,13.78226 -3.732771,2.61307 -8.210121,4.6627 -12.987003,5.94517 -1.271853,0.34147 -4.282916,0.90289 -5.669322,1.05706 -1.283288,0.14271 -4.882713,0.20916 -6.015552,0.11109 z m 6.625243,-6.47961 c 5.109801,-0.5712 9.113027,-2.10943 12.629876,-4.85298 0.93318,-0.72801 2.583952,-2.32015 3.424457,-3.30282 1.797137,-2.10113 2.845859,-3.94361 3.300066,-5.79788 0.178621,-0.7292 0.203194,-2.34726 0.04613,-3.033 -0.385072,-1.68052 -1.316041,-3.24538 -2.802115,-4.71005 -0.9368,-0.92329 -2.72413,-2.30374 -2.982761,-2.30374 -0.257512,0 -4.852226,3.92049 -7.994114,6.82108 -7.988939,7.37534 -12.459736,12.74686 -12.852718,15.44215 -0.148532,1.0187 0.467711,1.649 1.807224,1.84847 0.6693,0.0997 4.181785,0.0277 5.424012,-0.1112 z m 58.526749,-35.22804 c 2.14927,-0.75008 3.68823,-4.19896 4.27759,-9.58633 0.14004,-1.280109 0.1218,-3.647513 -0.0352,-4.577233 -0.43087,-2.550411 -1.56715,-3.714859 -3.40176,-3.486048 -1.77304,0.221127 -3.16201,1.869722 -4.04416,4.800063 -0.60579,2.012369 -0.97191,4.305464 -1.03548,6.485764 -0.0523,1.793594 0.0141,2.500564 0.34776,3.698154 0.39775,1.42791 1.25113,2.47061 2.23906,2.73578 0.47461,0.12739 1.1709,0.0978 1.65225,-0.0701 z m 25.0831,-24.867731 c 1.66932,-2.612898 3.89238,-7.276262 5.4165,-11.362409 2.021,-5.418278 3.09972,-10.220847 3.64658,-16.235095 0.40491,-4.453005 0.15599,-6.87147 -0.83393,-8.102349 -1.21386,-1.50932 -3.4187,1.12121 -4.86414,5.803262 -2.00056,6.48017 -3.85863,19.525246 -4.22628,29.671821 -0.0635,1.753457 -0.10796,1.741871 0.86127,0.22477 z m 19.7112,-19.059479 c -1.05071,-0.309964 -1.69679,-1.011821 -2.02846,-2.203574 -0.1607,-0.577457 -0.16042,-1.751248 0.001,-2.391502 0.24723,-0.983262 0.93449,-2.000084 1.72715,-2.555347 0.61706,-0.432232 1.12088,-0.585215 1.92656,-0.584947 0.8625,2.38e-4 1.41224,0.137583 1.98884,0.496734 0.88514,0.551332 1.30344,1.433265 1.30344,2.748121 0,0.953063 -0.13277,1.463947 -0.62313,2.397655 -0.28827,0.548869 -0.50583,0.839424 -0.91404,1.220637 -0.58231,0.543808 -0.88696,0.720274 -1.51124,0.875456 -0.50535,0.125597 -1.4384,0.123981 -1.86971,-0.0032 z"
     style="fill:#000000;stroke-width:0.0785104" />
  <text
     id="text1591"
     y="-69.327347"
     x="631.53955"
     style="font-style:normal;font-weight:normal;font-size:13.33333302px;line-height:1.25;font-family:sans-serif;letter-spacing:0px;word-spacing:0px;fill:#000000;fill-opacity:1;stroke:none"
     xml:space="preserve"><tspan
       y="-57.530472"
       x="631.53955"
       id="tspan1589" /></text>
  <text
     id="text1595"
     y="190.53577"
     x="83.860168"
     style="font-style:normal;font-weight:normal;font-size:13.33333302px;line-height:1.25;font-family:sans-serif;letter-spacing:0px;word-spacing:0px;fill:#000000;fill-opacity:1;stroke:none"
     xml:space="preserve"><tspan
       y="190.53577"
       x="83.860168"
       id="tspan1593">40.00mm</tspan></text>
  <rect
     y="18.988308"
     x="41.787582"
     height="149.43079"
     width="149.43079"
     id="rect1660"
     style="opacity:1;fill:none;fill-opacity:1;stroke:#000000;stroke-width:1.75030971;stroke-miterlimit:4;stroke-dasharray:none;stroke-opacity:1" />
</svg>
