<?xml version="1.0" encoding="UTF-8" standalone="no"?>
<svg
   xmlns:dc="http://purl.org/dc/elements/1.1/"
   xmlns:cc="http://creativecommons.org/ns#"
   xmlns:rdf="http://www.w3.org/1999/02/22-rdf-syntax-ns#"
   xmlns:svg="http://www.w3.org/2000/svg"
   xmlns="http://www.w3.org/2000/svg"
   viewBox="0 0 264.56693 264.56692"
   height="70mm"
   width="70mm"
   id="svg4655"
   version="1.1">
  <metadata
     id="metadata4661">
    <rdf:RDF>
      <cc:Work
         rdf:about="">
        <dc:format>image/svg+xml</dc:format>
        <dc:type
           rdf:resource="http://purl.org/dc/dcmitype/StillImage" />
        <dc:title></dc:title>
      </cc:Work>
    </rdf:RDF>
  </metadata>
  <defs
     id="defs4659" />
  <path
     id="path5208"
     d="m 77.775117,151.39094 c 3.862783,-7.07328 9.991039,-18.48292 10.099095,-18.80258 0.08762,-0.25942 -0.07334,-0.35648 -0.591121,-0.35648 -0.799297,0 -1.45209,-0.32538 -2.196121,-1.09463 -0.409915,-0.42384 -0.504643,-0.4473 -0.504643,-0.12507 0,0.21825 -0.418165,1.34514 -0.929227,2.50421 -1.700641,3.85694 -4.820138,6.60971 -8.346089,7.36491 -3.637005,0.77899 -6.187986,-1.08721 -6.19734,-4.53373 l -0.0039,-1.35821 -1.401845,1.38343 c -2.135943,2.10791 -3.699978,3.19385 -5.570475,3.86779 -3.63469,1.30957 -5.692351,1.10793 -7.293402,-0.71469 -1.044811,-1.18941 -1.521147,-2.92484 -1.276082,-4.64907 l 0.140713,-0.99012 -1.775901,1.82407 c -0.976744,1.00321 -3.098355,3.35196 -4.714692,5.2194 -2.211332,2.5549 -3.078643,3.74769 -3.503845,4.81874 -0.626969,1.57927 -1.540049,2.4761 -2.747357,2.69851 -0.94598,0.17424 -1.293094,-0.42363 -0.687174,-1.18366 0.459659,-0.57656 0.680753,-2.18178 0.47335,-3.43677 -0.19545,-1.18257 -1.336133,-2.64321 -2.533984,-3.24469 -1.741893,-0.87463 -3.445365,-0.86882 -6.360816,0.0217 -4.006623,1.22384 -6.528125,1.03714 -5.835433,-0.43204 0.317814,-0.67414 0.890254,-0.77807 5.29327,-0.96106 3.119251,-0.12968 3.984929,-0.24951 4.757809,-0.6589 2.197462,-1.16396 4.76046,-4.99817 8.345019,-12.48392 1.120394,-2.3398 2.037088,-4.29803 2.037088,-4.35165 0,-0.0533 -0.428971,-0.24296 -0.953262,-0.42078 -2.029174,-0.68813 -3.717656,-2.00986 -4.363578,-3.41579 -1.203977,-2.62056 -0.500912,-5.98547 1.49545,-7.15734 1.246104,-0.73147 3.985201,-0.72006 4.201764,0.0173 0.04491,0.15254 -0.5224,0.21098 -1.462744,0.15068 -2.026793,-0.12999 -3.151792,0.47621 -3.828493,2.06296 -0.928518,2.17727 -0.439637,4.39509 1.352668,6.13656 0.869654,0.845 2.93313,1.93894 3.657335,1.93894 0.168636,0 0.624383,-0.63913 1.012774,-1.42029 0.954589,-1.92005 3.993485,-5.46102 5.983041,-6.97151 0.894371,-0.67906 2.464786,-1.60645 3.489782,-2.06089 1.561459,-0.69227 2.248402,-0.84569 4.236903,-0.94632 2.052708,-0.10375 2.513962,-0.0494 3.41451,0.40272 1.860834,0.93438 2.449563,3.04526 1.48207,5.31391 -1.467851,3.44191 -6.743519,5.87427 -14.828381,6.83666 l -1.278282,0.15208 -1.160847,2.46571 c -3.632516,7.71563 -7.641789,12.24834 -12.534689,14.17123 -0.739131,0.29047 -0.66786,0.31449 1.343364,0.45244 3.400472,0.23326 5.740448,1.58486 6.170012,3.56394 0.08363,0.38508 0.166267,0.69945 0.18374,0.69857 0.191307,-0.009 10.685769,-11.95344 10.685769,-12.16183 0,-0.50725 2.522287,-3.39102 3.884206,-4.44087 3.486991,-2.68797 7.739989,-3.28188 9.13473,-1.27565 0.70394,1.01258 0.506394,2.61932 -0.461422,3.75277 -1.319161,1.54498 -4.506646,3.06846 -8.295919,3.9651 -0.678502,0.16056 -1.359795,0.40709 -1.513993,0.54792 -0.414459,0.37852 -0.331468,2.20547 0.155534,3.42303 0.562198,1.40568 1.507972,1.97072 3.240847,1.93634 2.991493,-0.0594 7.437884,-3.66981 8.968592,-7.28241 1.76872,-4.17425 6.362437,-7.56993 10.217371,-7.55268 2.386798,0.009 3.966734,1.3781 4.642894,4.01833 0.203389,0.79419 0.480891,1.64589 0.616661,1.89268 0.399249,0.72569 1.614008,1.25566 2.463485,1.07476 0.711506,-0.15162 0.982574,-0.58222 4.639563,-7.37187 l 3.88391,-7.21094 1.990251,-0.17882 c 1.094648,-0.0986 2.02949,-0.13422 2.07742,-0.0797 0.0479,0.0545 -1.703068,3.18919 -3.891123,6.96616 -4.300878,7.42407 -4.670534,8.0956 -3.710015,6.7399 1.45985,-2.06049 3.537301,-4.30036 4.594053,-4.95325 0.704969,-0.43553 1.613287,-0.74729 2.406152,-0.82583 1.082163,-0.10716 1.391203,-0.0351 2.055413,0.47901 1.15888,0.89709 1.38381,1.56287 1.28628,3.80773 -0.0905,2.08477 -0.7576,4.05435 -1.89094,5.58329 -0.31317,0.42243 -0.53107,0.81152 -0.48426,0.86467 0.16653,0.18904 2.42388,-0.84381 3.62195,-1.65727 0.85296,-0.57913 1.42376,-1.21595 1.90569,-2.12621 2.58668,-4.88547 7.86917,-8.11371 10.9138,-6.66966 0.41562,0.19713 0.99893,0.76477 1.29625,1.26142 l 0.54056,0.90303 0.39068,-0.75077 c 0.47244,-0.90786 0.92693,-1.05718 2.91466,-0.95757 l 1.5291,0.0766 -1.88855,3.18259 c -3.69893,6.23343 -5.07523,9.26605 -4.79022,10.55504 0.26018,1.17679 1.80179,0.79177 3.83548,-0.95787 2.28868,-1.96905 3.27216,-3.35738 5.74326,-8.10746 1.73988,-3.34451 2.61533,-4.79232 2.96143,-4.89767 0.27027,-0.0822 1.27957,-0.15115 2.24287,-0.15314 l 1.75146,-0.002 -1.01326,1.59128 c -0.55729,0.87516 -1.54451,2.45056 -2.19387,3.5008 l -1.18059,1.90955 1.64347,-1.86385 c 1.59353,-1.80718 4.41765,-4.39157 5.58021,-5.1066 0.31363,-0.19285 1.23274,-0.41103 2.04253,-0.48481 l 1.47232,-0.13409 -0.39613,0.68627 c -1.0551,1.82789 -1.49515,3.07864 -1.49515,4.24951 0,1.45182 0.40296,2.01712 1.43794,2.01712 0.63041,0 0.87957,-0.21424 1.77985,-1.53023 2.00245,-2.92702 5.12162,-5.00902 7.90449,-5.27615 1.68053,-0.16125 2.78678,0.35619 3.47892,1.62744 0.26274,0.48259 0.50551,0.84275 0.53947,0.80037 0.034,-0.0423 1.9933,-3.68608 4.35404,-8.09712 l 4.29225,-8.02008 1.17169,-0.16574 c 2.20348,-0.31175 3.14063,-0.25883 2.99595,0.16915 -0.0716,0.2119 -2.53709,4.59431 -5.47876,9.73867 -8.13226,14.22155 -9.79998,17.61907 -9.33041,19.00816 0.2189,0.64747 1.42901,0.47297 2.77948,-0.40082 1.44873,-0.9373 4.87438,-4.85272 6.95315,-7.94722 0.80183,-1.19362 1.58765,-2.17646 1.74617,-2.18405 0.40788,-0.0194 0.12909,0.488 -1.67069,3.04147 -1.98195,2.81182 -5.28033,6.56623 -6.6575,7.57797 -1.45555,1.06924 -3.21482,1.51464 -4.39603,1.1129 -1.10351,-0.37529 -1.80674,-1.35188 -1.80674,-2.50902 v -0.87841 l -1.02898,1.02816 c -1.34342,1.3423 -2.60821,2.01715 -4.1298,2.2035 -3.40532,0.417 -4.89463,-3.26171 -3.25826,-8.04824 0.12211,-0.35723 -0.003,-0.3748 -1.09299,-0.15102 -1.59414,0.32799 -3.101,-0.25484 -3.74152,-1.44726 -0.46911,-0.87328 -0.57261,-2.69428 -0.19825,-3.48827 0.38531,-0.81724 -0.0434,-0.56009 -1.6254,0.97486 -2.53168,2.45647 -4.22271,4.888 -7.43452,10.69008 l -0.59901,1.08209 h -1.79118 c -0.98514,0 -1.79117,-0.089 -1.79117,-0.19799 0,-0.10897 0.13329,-0.42392 0.29618,-0.70014 0.16291,-0.27623 0.5383,-0.95739 0.83422,-1.51372 l 0.538,-1.01149 -1.45102,1.33813 c -3.70636,3.41801 -7.06364,3.69 -7.73124,0.62631 l -0.22432,-1.0293 -0.96711,0.97442 c -2.02027,2.03544 -4.25762,2.71816 -5.91799,1.80576 -1.46926,-0.8074 -1.86239,-1.74237 -1.86239,-4.42934 0,-1.22529 -0.0505,-2.19315 -0.11221,-2.15083 -0.80103,0.54966 -3.24104,1.70371 -3.89793,1.84356 -0.49937,0.10625 -1.262544,0.58552 -1.846778,1.15952 -1.461964,1.43628 -2.850028,2.47175 -4.29885,3.20677 -2.920251,1.48148 -5.564003,0.47735 -4.528095,-1.71983 0.433192,-0.91879 2.66286,-1.82983 5.884326,-2.40425 0.683841,-0.12193 0.95877,-0.35491 1.440201,-1.22038 0.972795,-1.74875 1.663806,-3.96724 1.792832,-5.75579 0.105643,-1.46445 0.05855,-1.7685 -0.368701,-2.37916 -0.96227,-1.37554 -2.119939,-0.85195 -4.515808,2.0423 -2.129692,2.5727 -4.510713,6.54638 -8.584347,14.32618 -1.793499,3.42527 -3.824989,7.28754 -4.514402,8.58285 l -1.2535,2.3551 H 78.290991 76.28014 Z m -2.030023,-11.73378 c 3.225185,-2.66233 6.343871,-10.06669 5.619666,-13.34214 -0.07489,-0.33859 -0.399212,-0.75169 -0.720783,-0.918 -1.764617,-0.91266 -4.593357,1.82718 -6.567653,6.36129 -1.730338,3.97382 -2.244361,7.05903 -1.374322,8.24901 0.474084,0.64844 2.053531,0.4667 3.043092,-0.35016 z m 18.616469,-0.26473 c 0.481109,-0.40271 1.227999,-1.1624 1.659788,-1.68817 l 0.785028,-0.95596 -1.009325,0.17087 c -2.498329,0.4229 -4.03731,1.28751 -4.03731,2.26816 0,0.78898 0.160297,0.93728 1.013043,0.93728 0.434184,0 1.056842,-0.28693 1.588776,-0.73218 z m 17.876687,-0.72799 c 2.36041,-1.83852 5.52137,-8.2061 5.53494,-11.14977 0.01,-2.19071 -1.26664,-2.88651 -3.26257,-1.77804 -2.71986,1.51055 -5.75325,7.12841 -5.77545,10.69621 -0.0192,3.07069 1.32587,3.92749 3.50308,2.2316 z m 33.72875,0.16508 c 2.99913,-1.64808 6.52182,-9.11436 5.81292,-12.32049 -0.18393,-0.83187 -1.41994,-1.49434 -2.32223,-1.24465 -1.78521,0.49397 -3.82272,2.99951 -5.35544,6.58552 -1.49326,3.49371 -1.58973,6.46423 -0.23409,7.20818 0.71758,0.39381 1.02774,0.36004 2.09884,-0.22856 z m -85.690562,-6.58653 c 2.146019,-1.22519 3.305115,-2.28656 4.151402,-3.80132 0.822201,-1.4717 0.861238,-2.72651 0.09715,-3.12175 -0.826884,-0.42763 -2.30301,0.51306 -3.982999,2.53834 -1.275787,1.53801 -2.875036,4.3801 -2.875036,5.10935 0,0.52114 0.832249,0.29006 2.609513,-0.72462 z m -4.797607,-11.36463 c 0.895053,-0.2267 2.434832,-0.84001 3.421741,-1.36289 2.949987,-1.56308 4.473347,-3.67397 4.739114,-6.56688 0.176085,-1.91668 -0.256129,-2.60404 -1.758234,-2.79623 -2.805155,-0.3589 -6.689838,2.95669 -9.919629,8.46644 -1.857605,3.16893 -1.86584,3.03207 0.170796,2.83661 0.945349,-0.0907 2.451147,-0.35037 3.346212,-0.57705 z m 118.907429,19.90537 c -1.44609,-0.39834 -2.96967,-1.40498 -3.60123,-2.37925 -1.60851,-2.48132 -0.79767,-5.91787 1.39629,-5.91787 1.05241,0 1.4167,0.2155 1.805,1.06785 0.43492,0.95473 0.23358,2.07647 -0.48833,2.72111 -0.81976,0.73193 -0.75331,2.14943 0.14542,3.1024 0.81741,0.86681 1.69802,1.09277 3.74654,0.96138 2.02902,-0.13014 3.60158,-1.02767 5.39552,-3.0795 1.81499,-2.07591 2.94801,-3.94132 5.52821,-9.10157 4.38468,-8.76911 6.48919,-11.71746 10.92566,-15.30668 0.50724,-0.41036 0.50304,-0.41599 -0.9166,-1.22947 -7.60772,-4.35935 -19.00838,1.18077 -21.4184,10.40821 -0.52211,1.99904 -0.47101,5.19184 0.10619,6.63716 0.86805,2.17348 1.97182,3.05528 3.82436,3.05528 3.68054,0 6.35017,-4.60886 5.93591,-10.24788 -0.0902,-1.22839 -0.0621,-1.9732 0.0745,-1.9732 0.71244,0 0.55819,5.4349 -0.22033,7.7636 -0.76507,2.28846 -2.57146,4.24163 -4.57122,4.94281 -2.71801,0.95295 -5.03671,0.51031 -6.75724,-1.28995 -3.52709,-3.69049 -2.0785,-10.97437 3.10934,-15.63439 4.0719,-3.65764 9.26941,-5.69831 14.53627,-5.70725 2.91608,-0.003 4.14717,0.20238 6.95624,1.1714 l 1.93507,0.66753 1.86935,-0.81835 c 1.02817,-0.45007 2.42837,-0.86846 3.11156,-0.92976 l 1.24221,-0.11147 -1.6822,0.59639 c -0.92523,0.32799 -2.11276,0.85046 -2.63899,1.16104 l -0.95677,0.56464 1.2168,1.34851 c 0.92776,1.0282 1.3015,1.67242 1.57358,2.71233 0.44106,1.68604 0.44352,2.12058 0.0209,3.73585 -0.60133,2.29851 -2.87439,4.24939 -6.02223,5.16862 -1.69348,0.49453 -1.67763,0.54102 0.34425,1.01103 1.40936,0.32764 2.477,1.04013 3.18573,2.12595 0.34588,0.52996 0.48688,1.19525 0.54893,2.59047 0.10253,2.305 -0.31058,3.86208 -1.54304,5.81579 -3.61281,5.72703 -13.29897,6.27963 -13.29897,0.7587 0,-1.55851 0.96351,-2.69123 2.28923,-2.69123 0.50106,0 1.15913,0.18452 1.46235,0.41004 l 0.55127,0.41007 -0.6561,0.79731 c -0.5403,0.65653 -0.65615,1.01737 -0.65615,2.04344 0,1.67614 0.51293,2.26651 1.96257,2.25893 1.43544,-0.008 2.66283,-0.69253 3.8331,-2.13919 1.97806,-2.44517 2.94143,-6.36491 2.25457,-9.17321 -0.46054,-1.883 -1.73858,-2.86842 -4.31621,-3.32794 -1.08477,-0.19339 -0.92224,-0.39293 0.53272,-0.65402 3.7277,-0.66889 6.27448,-3.60765 6.26799,-7.23263 -0.002,-1.60124 -0.51625,-3.28008 -1.19916,-3.92165 -0.33887,-0.31834 -0.50153,-0.21423 -1.49641,0.95743 -1.35839,1.59972 -2.40268,3.42792 -5.50665,9.64026 -3.03029,6.06483 -3.94979,7.67588 -5.69347,9.97565 -3.79686,5.00765 -9.47072,7.54621 -14.048,6.28526 z m 33.48776,0.11306 c -0.82785,-0.29819 -1.22705,-0.69263 -1.66442,-1.64447 -1.3993,-3.04512 -0.33311,-6.98844 2.87193,-10.62198 3.64819,-4.13597 8.5264,-5.34267 10.01719,-2.47792 0.465,0.8936 0.66872,0.91788 0.98974,0.11816 0.13576,-0.33822 0.46164,-0.68039 0.72417,-0.76035 0.66762,-0.20338 3.5053,-0.18896 3.5053,0.0179 0,0.0934 -1.11443,2.09667 -2.47651,4.4513 -2.89887,5.01132 -4.09196,7.67846 -3.98761,8.91421 0.0639,0.755 0.15403,0.85853 0.81141,0.93024 0.9318,0.1016 2.07504,-0.64448 4.30694,-2.81076 1.53748,-1.49231 1.90393,-2.05554 4.25906,-6.54607 1.75431,-3.34495 2.74337,-4.98513 3.09864,-5.13845 0.56078,-0.24206 3.85703,-0.31641 3.85703,-0.0871 0,0.076 -0.38247,0.73479 -0.85001,1.46398 -0.46749,0.72919 -1.34432,2.12781 -1.9485,3.10805 l -1.09856,1.78222 1.67716,-1.78222 c 2.2605,-2.40216 4.93769,-4.68127 5.84632,-4.97708 0.40942,-0.13336 1.21711,-0.24232 1.7949,-0.24232 h 1.05052 l -0.77106,1.45351 c -1.67803,3.16325 -1.56687,5.42083 0.26693,5.42083 0.95686,0 1.85261,-0.50434 3.01748,-1.69898 0.4861,-0.49851 0.88379,-0.79304 0.88379,-0.65454 0,0.46086 -2.03701,2.39118 -3.10073,2.93834 -1.35277,0.69582 -3.50447,0.75096 -4.36383,0.11169 -1.20579,-0.89685 -1.66325,-2.53205 -1.21698,-4.35007 l 0.1781,-0.72547 -0.73884,0.58436 c -1.17831,0.93194 -4.04906,4.28374 -5.21249,6.08602 -0.58762,0.9102 -1.67323,2.77202 -2.41248,4.13733 l -1.34415,2.48242 h -1.91055 -1.91053 l 0.31982,-0.57285 c 0.94331,-1.68984 1.32267,-2.48241 1.1881,-2.48241 -0.0825,0 -0.67126,0.51954 -1.30797,1.15457 -1.68938,1.68488 -3.31357,2.51934 -4.92282,2.52916 -1.20839,0.007 -1.37153,-0.0607 -1.97229,-0.82347 -0.41985,-0.533 -0.65498,-1.10965 -0.65498,-1.60641 v -0.77494 l -1.0654,1.006 c -1.9542,1.84536 -4.1684,2.65153 -5.73382,2.08761 z m 4.05886,-1.67506 c 1.78954,-0.84547 4.29562,-4.44783 5.60807,-8.0614 0.89279,-2.45811 1.06163,-3.72063 0.64792,-4.84465 -0.39408,-1.07055 -1.11602,-1.34857 -2.44614,-0.942 -1.14396,0.34968 -3.50841,2.96952 -4.61601,5.11461 -1.99654,3.86684 -2.40307,7.98265 -0.87145,8.82264 0.66595,0.36524 0.722,0.36224 1.67761,-0.0891 z M 72.021802,113.05648 c -0.478394,-0.27866 -0.558891,-0.49826 -0.548211,-1.49543 0.01032,-0.92948 0.248655,-1.63091 1.165478,-3.42506 1.145677,-2.24201 1.149472,-2.25677 0.604286,-2.33682 -0.774915,-0.11375 -0.684034,-0.55595 0.114258,-0.55595 0.570277,0 0.767979,-0.20455 1.414994,-1.46397 0.707169,-1.37653 0.808266,-1.46865 1.692201,-1.54226 0.556279,-0.0465 0.940089,0.032 0.940089,0.19168 0,0.1484 -0.298862,0.81389 -0.664118,1.47863 l -0.664103,1.20864 1.118565,0.077 c 1.461199,0.10083 1.210178,0.55848 -0.308241,0.56199 l -1.164307,0.002 -1.401858,2.87586 c -1.826403,3.74687 -1.859561,4.7895 -0.119791,3.76915 1.581994,-0.92784 2.665677,-2.57355 5.715987,-8.68038 l 2.985152,-5.97638 0.994167,-0.192655 c 0.546782,-0.105908 1.034248,-0.147159 1.08322,-0.09138 0.07232,0.08207 -3.472527,7.057745 -4.859755,9.563635 -0.211006,0.38116 0.162779,0.10863 0.931775,-0.67946 1.786129,-1.8305 3.291489,-2.10503 3.76646,-0.68691 0.260003,0.7763 -0.06871,1.73027 -1.485016,4.30972 -1.000215,1.82163 -1.172824,2.63297 -0.605765,2.84725 0.407909,0.1541 2.763168,-2.46765 3.143388,-3.49915 0.827976,-2.2463 3.537531,-4.5829 5.314344,-4.5829 1.733634,0 2.265593,1.67129 0.949481,2.98301 -0.632296,0.6302 -1.608025,1.07801 -4.355897,1.99914 -0.154211,0.0516 -0.280371,0.44651 -0.280371,0.87737 0,0.94718 0.869589,2.03323 1.627968,2.03323 1.375944,0 3.629878,-1.9442 5.608085,-4.83749 0.335108,-0.49009 0.61041,-0.75385 0.611774,-0.58607 0.0026,0.42176 -1.995296,3.10885 -3.139105,4.22022 -1.301289,1.26436 -2.356639,1.78878 -3.858562,1.91729 -1.187995,0.10159 -1.329983,0.0537 -1.962587,-0.6645 -0.425665,-0.48315 -0.681926,-1.03449 -0.681926,-1.4671 0,-0.68075 -0.02111,-0.67032 -1.191581,0.58624 -1.720135,1.84666 -3.299621,2.03786 -3.652434,0.4422 -0.211597,-0.95703 0.0064,-1.58827 1.348202,-3.88564 1.227278,-2.10293 1.373782,-2.85405 0.556626,-2.85405 -0.866823,0 -3.39328,3.24032 -5.012486,6.42877 -0.567396,1.11728 -0.680856,1.2094 -1.490022,1.2094 -0.997885,0 -1.000729,-0.007 -0.520173,-1.06071 l 0.355708,-0.78082 -0.760285,0.65829 c -0.717256,0.62097 -2.194489,1.44232 -2.57939,1.43409 -0.09652,-0.001 -0.42775,-0.15071 -0.736147,-0.33039 z m 17.429465,-4.54653 c 1.636718,-1.12447 2.507414,-3.26673 1.327718,-3.26673 -0.7586,0 -3.05655,2.97033 -3.05655,3.9509 0,0.23651 0.916847,-0.1262 1.728832,-0.68417 z"
     style="fill:#000000;stroke-width:0.23897003" />
  <rect
     y="76.670563"
     x="22.243734"
     height="93.681862"
     width="225.96533"
     id="rect5210"
     style="opacity:1;fill:none;fill-opacity:1;stroke:#000000;stroke-width:0.80632722;stroke-miterlimit:4;stroke-dasharray:none;stroke-opacity:1" />
  <text
     id="text5214"
     y="189.17799"
     x="105.29938"
     style="font-style:normal;font-weight:normal;font-size:13.33333302px;line-height:1.25;font-family:sans-serif;letter-spacing:0px;word-spacing:0px;fill:#000000;fill-opacity:1;stroke:none"
     xml:space="preserve"><tspan
       y="189.17799"
       x="105.29938"
       id="tspan5212">60.00mm</tspan></text>
  <text
     transform="rotate(-90)"
     id="text5237"
     y="17.064478"
     x="-154.54938"
     style="font-style:normal;font-weight:normal;font-size:13.33333302px;line-height:1.25;font-family:sans-serif;letter-spacing:0px;word-spacing:0px;fill:#000000;fill-opacity:1;stroke:none"
     xml:space="preserve"><tspan
       y="17.064478"
       x="-154.54938"
       id="tspan5235">25.00mm</tspan></text>
</svg>
