<?xml version="1.0" encoding="UTF-8" standalone="no"?>
<svg
   xmlns:dc="http://purl.org/dc/elements/1.1/"
   xmlns:cc="http://creativecommons.org/ns#"
   xmlns:rdf="http://www.w3.org/1999/02/22-rdf-syntax-ns#"
   xmlns:svg="http://www.w3.org/2000/svg"
   xmlns="http://www.w3.org/2000/svg"
   viewBox="0 0 226.77166 226.77164"
   height="60mm"
   width="60mm"
   id="svg1032"
   version="1.1">
  <metadata
     id="metadata1038">
    <rdf:RDF>
      <cc:Work
         rdf:about="">
        <dc:format>image/svg+xml</dc:format>
        <dc:type
           rdf:resource="http://purl.org/dc/dcmitype/StillImage" />
        <dc:title></dc:title>
      </cc:Work>
    </rdf:RDF>
  </metadata>
  <defs
     id="defs1036" />
  <path
     id="path1585"
     d="m 68.266064,142.69532 c -3.64576,-0.31571 -6.02219,-1.11886 -7.36991,-2.49075 -3.54813,-3.61179 0.49769,-10.45305 12.41466,-20.99244 2.4529,-2.16936 5.86412,-5.02166 8.25137,-6.89942 0.36199,-0.28474 0.65817,-0.52712 0.65817,-0.53864 0,-0.0935 -2.56847,-1.10558 -7.31657,-2.88305 -10.32276,-3.86437 -14.00964,-5.65336 -17.584,-8.53229 -3.67997,-2.963993 -5.7262,-6.727913 -6.18622,-11.379153 -0.10751,-1.08733 -0.038,-4.09874 0.11934,-5.1712 0.89519,-6.10042 3.74615,-11.75934 8.6008,-17.07192 2.37232,-2.5961 5.73619,-5.345026 9.21016,-7.526476 5.52881,-3.47176 11.4109,-5.80547 16.73935,-6.64132 8.08781,-1.26869 15.458996,0.40163 19.877636,4.50428 0.52095,0.4837 1.12409,1.12233 1.34032,1.41918 l 0.39313,0.53972 -2.35755,1.95098 c -1.29664,1.073046 -2.46646,2.046126 -2.59958,2.162416 l -0.24204,0.2114 -0.89396,-0.80249 c -1.10246,-0.98968 -2.028086,-1.613976 -3.281166,-2.213006 -1.23701,-0.59136 -2.0496,-0.88087 -3.23167,-1.1514 -2.59539,-0.59397 -5.13309,-0.65003 -8.10002,-0.17895 -4.66359,0.74047 -10.28418,3.088856 -14.76914,6.170826 -5.82538,4.00307 -9.81635,9.29163 -11.48147,15.21447 -1.31543,4.67897 -0.77047,8.3119 1.70686,11.37854 0.73938,0.91525 2.37843,2.39171 3.59265,3.23625 3.17337,2.2072 6.89201,3.99796 13.40828,6.456963 4.04322,1.52577 7.0169,2.79662 9.49732,4.05887 0.92553,0.47099 1.06727,0.5235 1.20168,0.44521 0.0838,-0.0488 0.88447,-0.6168 1.77926,-1.26219 3.21985,-2.32239 7.27539,-5.121153 10.810316,-7.460313 0.77786,-0.51473 1.41428,-0.98279 1.41428,-1.04014 0,-0.0574 0.18807,-2.28928 0.41793,-4.95986 0.22986,-2.67057 0.40476,-4.86786 0.38866,-4.88288 -0.0161,-0.015 -1.80404,0.63943 -3.97319,1.45432 -2.169156,0.81488 -3.981416,1.48811 -4.027256,1.49606 -0.0458,0.008 -0.0767,-0.0647 -0.0687,-0.16144 0.20272,-2.42845 0.43906,-4.62483 0.5041,-4.68442 0.0457,-0.0418 1.865,-0.79873 4.042996,-1.68198 2.17799,-0.88325 3.96708,-1.6102 3.97572,-1.61544 0.009,-0.006 0.15848,-1.73368 0.33298,-3.84099 0.18677,-2.25581 0.35092,-3.86338 0.39913,-3.90906 0.12278,-0.11631 7.21519,-3.00142 7.26474,-2.95522 0.0394,0.0368 -0.54076,7.00974 -0.61966,7.44766 -0.0196,0.10863 -2.3e-4,0.19348 0.0443,0.19348 0.0435,0 2.21816,-0.87297 4.83262,-1.93993 2.61446,-1.06697 4.76852,-1.92597 4.78683,-1.9089 0.0508,0.0474 -0.50012,5.63676 -0.5604,5.68588 -0.029,0.0236 -2.17261,0.83902 -4.76358,1.81201 -2.59098,0.97297 -4.74152,1.79761 -4.77895,1.83255 -0.0375,0.0349 -0.19921,1.53073 -0.35947,3.32401 -0.50787,5.6827 -0.96611,10.69989 -1.47053,16.100563 -0.50594,5.41697 -0.52238,5.80061 -0.28344,6.6135 0.22714,0.77275 0.55285,1.0566 1.20922,1.05379 1.21326,-0.006 2.9945,-1.61078 4.13141,-3.72401 1.73853,-3.23154 2.72555,-6.40467 3.05394,-9.818043 0.35809,-3.72209 1.75742,-7.70737 3.5054,-9.98339 1.65684,-2.15733 3.48161,-3.50594 5.68302,-4.20003 1.5337,-0.48354 3.5433,-0.63985 4.88198,-0.37968 2.67237,0.51935 4.60701,2.31852 5.65406,5.25812 0.46666,1.31015 0.79507,3.10366 0.79507,4.34207 0,0.46812 0.0206,0.56563 0.11895,0.56563 0.37123,0 3.09816,-1.63078 4.62,-2.76289 0.70904,-0.52746 0.84697,-0.6607 0.81087,-0.7832 -0.20188,-0.68503 -0.23188,-7.81297 -0.0451,-10.73627 0.80062,-12.53624 3.41593,-24.123696 6.97906,-30.921636 1.29675,-2.47405 2.79484,-4.27599 4.6132,-5.54892 2.67814,-1.87483 5.67312,-2.06258 7.77321,-0.48733 1.63041,1.22294 2.61286,3.20852 3.00408,6.07143 0.24768,1.81254 0.0614,5.5751 -0.42504,8.58348 -1.06335,6.576676 -4.00984,14.905036 -8.0644,22.794296 -2.16479,4.2122 -3.87741,6.74288 -6.19451,9.15341 -0.39376,0.40961 -0.59368,0.67469 -0.59368,0.78709 0,0.31418 0.28967,1.2291 0.53177,1.67958 0.53085,0.98776 1.28304,1.74397 2.14149,2.15292 0.49864,0.23754 1.34293,0.29544 1.94153,0.13313 2.52836,-0.68559 5.46957,-5.13344 8.05501,-12.18122 1.38873,-3.7856 2.54927,-8.5928 2.76359,-11.44736 l 0.0513,-0.68284 3.61314,-1.34841 c 1.98722,-0.74164 3.62343,-1.33669 3.636,-1.32233 0.0126,0.0143 -0.0888,0.84926 -0.22545,1.85536 -0.89842,6.61844 -1.52802,15.9902 -1.17218,17.44839 0.18941,0.77612 0.61674,1.30159 1.05849,1.30159 0.90441,0 2.196,-1.0458 3.40603,-2.75788 0.46565,-0.65884 1.19769,-1.96904 1.54491,-2.7651 0.11815,-0.27086 0.22478,-0.50522 0.23693,-0.52076 0.0818,-0.10463 3.19235,1.8699 3.19235,2.02647 0,0.22014 -1.23008,2.58514 -1.89288,3.6393 -0.54532,0.86732 -1.72515,2.48144 -2.25102,3.07958 -1.11295,1.26594 -2.66266,2.47706 -3.76736,2.94428 -1.2464,0.52714 -3.16724,0.75716 -4.32189,0.51755 -2.2516,-0.46725 -3.72916,-2.2778 -4.24787,-5.2052 -0.0266,-0.15015 -0.0762,-0.24512 -0.11007,-0.21107 -0.0339,0.034 -0.23825,0.45769 -0.454,0.94139 -0.90085,2.01947 -2.22267,4.34744 -3.43556,6.05065 -2.31046,3.24447 -4.79641,4.9962 -7.84281,5.5265 -0.90457,0.15746 -2.4105,0.10907 -3.16529,-0.10174 -1.61215,-0.45024 -3.00978,-1.43482 -3.96348,-2.79213 -0.4736,-0.67405 -1.1275,-1.92494 -1.35781,-2.59743 -0.0927,-0.27089 -0.19568,-0.52003 -0.2287,-0.55369 -0.033,-0.0337 -0.5125,0.2068 -1.06551,0.53434 -1.31173,0.77692 -2.24117,1.26421 -4.12982,2.16521 l -1.54852,0.73875 -0.12741,0.68716 c -0.29052,1.56665 -1.06085,4.032573 -1.68801,5.403573 -1.63606,3.57651 -4.07732,5.78413 -7.23973,6.54689 -0.77084,0.18592 -1.08608,0.22368 -2.12442,0.25452 -1.68339,0.0499 -2.61411,-0.0968 -3.91805,-0.61822 -1.05321,-0.42109 -2.33857,-1.45613 -3.06853,-2.47094 -0.21616,-0.3005 -0.40998,-0.54697 -0.43072,-0.5477 -0.0208,-5.8e-4 -0.16861,0.30686 -0.3286,0.68359 -0.44546,1.04892 -1.64056,3.2705 -2.21327,4.11426 -1.00871,1.48609 -1.48595,2.0536 -2.62379,3.12004 -1.35832,1.27307 -2.22051,1.84082 -3.56552,2.34784 -1.08529,0.40912 -1.89444,0.56624 -2.90521,0.56413 -1.37943,-0.003 -2.34096,-0.36653 -3.26075,-1.23322 -0.93953,-0.88529 -1.5951,-2.2527 -1.93788,-4.04206 -0.25922,-1.35318 -0.24525,-3.95708 0.0366,-6.81552 0.11586,-1.17533 0.19511,-2.1515 0.17606,-2.16926 -0.11855,-0.11062 -8.947886,5.75261 -8.947886,5.94191 0,0.0226 0.45822,0.45014 1.01827,0.95018 0.56004,0.50001 1.24156,1.16756 1.51447,1.4834 1.86005,2.15272 2.94434,4.58009 3.273586,7.32849 0.11787,0.98386 0.0941,3.50521 -0.0437,4.63672 -0.567346,4.65887 -3.685596,9.14298 -8.892926,12.78831 -3.46357,2.42461 -7.61802,4.32643 -12.0504,5.51641 -1.18013,0.31684 -3.97404,0.83777 -5.26046,0.98083 -1.19074,0.13241 -4.53058,0.19407 -5.58172,0.10307 z m 6.14744,-6.0123 c 4.74129,-0.53001 8.45581,-1.95731 11.71903,-4.503 0.86588,-0.67551 2.3976,-2.15282 3.17749,-3.06462 1.66753,-1.94961 2.64062,-3.65921 3.06207,-5.37975 0.16574,-0.67661 0.18854,-2.17797 0.0428,-2.81426 -0.3573,-1.55933 -1.22113,-3.01134 -2.60003,-4.37037 -0.86924,-0.8567 -2.52767,-2.1376 -2.76765,-2.1376 -0.23894,0 -4.50229,3.63775 -7.41759,6.32915 -7.41279,6.84345 -11.56116,11.82758 -11.9258,14.32849 -0.13782,0.94524 0.43398,1.53008 1.67689,1.71516 0.62103,0.0925 3.8802,0.0257 5.03284,-0.10318 z M 128.7194,103.99556 c 1.99427,-0.69598 3.42223,-3.89613 3.96909,-8.894973 0.12994,-1.18779 0.11302,-3.38446 -0.0327,-4.24713 -0.39979,-2.36648 -1.45413,-3.44695 -3.15643,-3.23464 -1.64517,0.20518 -2.93397,1.73488 -3.7525,4.45389 -0.5621,1.86724 -0.90181,3.99496 -0.9608,6.01802 -0.0485,1.66424 0.0131,2.320233 0.32268,3.431453 0.36907,1.32493 1.16089,2.29243 2.07758,2.53848 0.44038,0.1182 1.08646,0.0907 1.53309,-0.065 z m 23.27414,-23.074303 c 1.54894,-2.42446 3.61167,-6.75151 5.02587,-10.54297 1.87525,-5.02752 2.87617,-9.483736 3.3836,-15.064246 0.3757,-4.13186 0.14473,-6.37591 -0.77379,-7.51802 -1.12632,-1.40047 -3.17215,1.04035 -4.51335,5.38474 -1.85628,6.01283 -3.58035,18.117116 -3.92148,27.531936 -0.0589,1.627 -0.10018,1.61625 0.79915,0.20856 z m 18.28966,-17.68494 c -0.97493,-0.28761 -1.57442,-0.93885 -1.88217,-2.044656 -0.14911,-0.53581 -0.14885,-1.62495 0.001,-2.21903 0.2294,-0.91235 0.8671,-1.85584 1.6026,-2.37106 0.57255,-0.40106 1.04004,-0.54301 1.78761,-0.54276 0.8003,2.2e-4 1.3104,0.12766 1.84541,0.46091 0.82131,0.51157 1.20944,1.3299 1.20944,2.54993 0,0.88433 -0.1232,1.35837 -0.57819,2.22474 -0.26748,0.509286 -0.46935,0.778886 -0.84812,1.132606 -0.54032,0.50459 -0.823,0.66833 -1.40226,0.81232 -0.4689,0.11654 -1.33466,0.11504 -1.73486,-0.003 z"
     style="fill:#000000;stroke-width:0.07284836" />
  <text
     id="text1591"
     y="-69.327347"
     x="631.53955"
     style="font-style:normal;font-weight:normal;font-size:13.33333302px;line-height:1.25;font-family:sans-serif;letter-spacing:0px;word-spacing:0px;fill:#000000;fill-opacity:1;stroke:none"
     xml:space="preserve"><tspan
       y="-57.530472"
       x="631.53955"
       id="tspan1589" /></text>
  <text
     id="text1595"
     y="190.53577"
     x="83.860168"
     style="font-style:normal;font-weight:normal;font-size:13.33333302px;line-height:1.25;font-family:sans-serif;letter-spacing:0px;word-spacing:0px;fill:#000000;fill-opacity:1;stroke:none"
     xml:space="preserve"><tspan
       y="190.53577"
       x="83.860168"
       id="tspan1593">40.00mm</tspan></text>
  <circle
     r="75.01548"
     cy="94.738998"
     cx="116.50298"
     id="path1639"
     style="opacity:1;fill:none;fill-opacity:1;stroke:#000000;stroke-width:1.15014696;stroke-miterlimit:4;stroke-dasharray:none;stroke-opacity:1" />
</svg>
