<?xml version="1.0" encoding="UTF-8" standalone="no"?>
<svg
   xmlns:dc="http://purl.org/dc/elements/1.1/"
   xmlns:cc="http://creativecommons.org/ns#"
   xmlns:rdf="http://www.w3.org/1999/02/22-rdf-syntax-ns#"
   xmlns:svg="http://www.w3.org/2000/svg"
   xmlns="http://www.w3.org/2000/svg"
   id="svg2194"
   version="1.1"
   viewBox="0 0 210 297"
   height="297mm"
   width="210mm">
  <defs
     id="defs2188">
    <path
       id="path2080"
       d="M 207.5,222.89999 V 93.899994"
       style="stroke-width:1;marker-start:url(#Arrow1Lstart);marker-end:url(#Arrow1Lend)" />
    <marker
       style="overflow:visible"
       refY="0"
       refX="0"
       orient="auto"
       id="Arrow1Lstart">
      <path
         id="path2065"
         style="fill-rule:evenodd;stroke:#000000;stroke-width:1.00000003pt;marker-start:none"
         transform="matrix(0.8,0,0,0.8,10,0)"
         d="M 0,0 5,-5 -12.5,0 5,5 Z" />
    </marker>
    <marker
       style="overflow:visible"
       refY="0"
       refX="0"
       orient="auto"
       id="Arrow1Lend">
      <path
         id="path2068"
         style="fill-rule:evenodd;stroke:#000000;stroke-width:1.00000003pt;marker-start:none"
         transform="matrix(-0.8,0,0,-0.8,-10,0)"
         d="M 0,0 5,-5 -12.5,0 5,5 Z" />
    </marker>
    <marker
       style="overflow:visible"
       refY="0"
       refX="0"
       orient="auto"
       id="marker2169">
      <path
         id="path2167"
         style="fill-rule:evenodd;stroke:#000000;stroke-width:1.00000003pt;marker-start:none"
         transform="matrix(0.8,0,0,0.8,10,0)"
         d="M 0,0 5,-5 -12.5,0 5,5 Z" />
    </marker>
    <marker
       style="overflow:visible"
       refY="0"
       refX="0"
       orient="auto"
       id="marker2173">
      <path
         id="path2171"
         style="fill-rule:evenodd;stroke:#000000;stroke-width:1.00000003pt;marker-start:none"
         transform="matrix(-0.8,0,0,-0.8,-10,0)"
         d="M 0,0 5,-5 -12.5,0 5,5 Z" />
    </marker>
    <marker
       id="marker2253"
       orient="auto"
       refX="0.0"
       refY="0.0"
       style="overflow:visible">
      <path
         d="M 0.0,0.0 L 5.0,-5.0 L -12.5,0.0 L 5.0,5.0 L 0.0,0.0 z "
         transform="scale(0.8) translate(12.5,0)"
         style="fill-rule:evenodd;stroke:#000000;stroke-width:1.0pt;marker-start:none"
         id="path2251" />
    </marker>
    <marker
       id="marker2257"
       orient="auto"
       refX="0.0"
       refY="0.0"
       style="overflow:visible">
      <path
         d="M 0.0,0.0 L 5.0,-5.0 L -12.5,0.0 L 5.0,5.0 L 0.0,0.0 z "
         transform="scale(0.8) rotate(180) translate(12.5,0)"
         style="fill-rule:evenodd;stroke:#000000;stroke-width:1.0pt;marker-start:none"
         id="path2255" />
    </marker>
  </defs>
  <metadata
     id="metadata2191">
    <rdf:RDF>
      <cc:Work
         rdf:about="">
        <dc:format>image/svg+xml</dc:format>
        <dc:type
           rdf:resource="http://purl.org/dc/dcmitype/StillImage" />
        <dc:title></dc:title>
      </cc:Work>
    </rdf:RDF>
  </metadata>
  <g
     id="layer1">
    <path
       id="path2058"
       d="m 113.60968,167.82285 c -0.14237,-0.0214 -0.27825,-0.0894 -0.30194,-0.15119 -0.0237,-0.0617 0.12173,-1.2273 0.32318,-2.5901 0.20145,-1.3628 0.34525,-2.51185 0.31954,-2.55343 -0.0257,-0.0416 -0.0807,-0.0756 -0.1223,-0.0756 -0.0416,0 -0.35615,1.12999 -0.69908,2.51109 -0.34294,1.3811 -0.66258,2.56117 -0.71031,2.62237 -0.0983,0.12603 -0.33368,0.0961 -1.38011,-0.17545 -0.39074,-0.10141 -0.75209,-0.23457 -0.80301,-0.29593 -0.066,-0.0795 0.2899,-0.76979 1.24029,-2.40534 0.73307,-1.26158 1.33286,-2.32692 1.33286,-2.36741 0,-0.30931 -0.45081,0.22602 -1.83925,2.18405 -0.88051,1.24172 -1.65727,2.25768 -1.72614,2.25768 -0.15214,0 -1.35665,-0.59743 -1.71509,-0.85067 -0.14206,-0.10037 -0.24573,-0.23457 -0.23038,-0.29823 0.0153,-0.0637 0.91948,-0.85227 2.00915,-1.75248 2.3906,-1.97492 2.36857,-1.95463 2.25052,-2.07269 -0.0614,-0.0614 -0.90496,0.47574 -2.53055,1.6115 -1.34112,0.93701 -2.49504,1.7037 -2.56428,1.70376 -0.44511,2.6e-4 -2.66546,-2.27657 -2.43353,-2.49555 0.0392,-0.037 0.54084,-0.13531 1.11464,-0.21834 1.41706,-0.20505 2.99482,-0.6148 3.65958,-0.9504 1.36542,-0.68934 2.16233,-2.09056 2.16233,-3.80208 0,-1.56802 -0.66221,-2.71613 -1.94013,-3.3637 -1.0543,-0.53426 -2.79687,-0.80754 -3.81926,-0.59897 -0.3041,0.062 -1.13345,0.37356 -1.84301,0.69227 -2.71452,1.21926 -5.258211,1.98027 -8.293524,2.48122 -1.777182,0.2933 -5.835862,0.7241 -7.970999,0.84606 -0.982329,0.0561 -1.076555,0.0467 -1.290105,-0.12871 -0.153893,-0.12641 -0.199782,-0.22002 -0.138224,-0.28195 0.05068,-0.051 0.962969,-0.2858 2.027306,-0.52178 2.377202,-0.52707 7.409559,-1.77921 7.600675,-1.89119 0.223806,-0.13114 -0.352502,-0.10618 -2.171864,0.0941 -3.738975,0.41151 -5.600681,0.50068 -10.547099,0.50515 -4.435483,0.004 -4.766561,-0.007 -5.004789,-0.16278 -0.145362,-0.0952 -0.242443,-0.23281 -0.225677,-0.31988 0.02511,-0.13042 0.400537,-0.18946 2.562808,-0.40307 3.853944,-0.38074 7.881522,-0.91904 10.956157,-1.46433 1.646611,-0.29203 1.559716,-0.37389 -0.313552,-0.29537 -2.52552,0.10585 -9.289479,0.0733 -11.10411,-0.0535 -4.103016,-0.28666 -6.473532,-0.56909 -6.730828,-0.80194 -0.405702,-0.36716 -0.298344,-0.38747 2.376728,-0.44977 5.192837,-0.12093 8.796245,-0.32102 12.601551,-0.69971 2.267188,-0.22563 2.635801,-0.27756 2.582479,-0.36383 -0.02305,-0.0373 -1.484365,-0.0935 -3.247356,-0.12491 -5.291484,-0.0942 -10.5957,-0.6201 -15.474682,-1.5342 -1.472026,-0.2758 -1.78367,-0.40989 -1.78367,-0.76747 0,-0.17087 0.04338,-0.17887 0.668088,-0.12334 3.638841,0.32351 12.643941,0.45108 16.539901,0.23431 2.134812,-0.11878 2.573724,-0.22016 1.314217,-0.30358 -0.481486,-0.0319 -1.518176,-0.10083 -2.303759,-0.15319 -3.924972,-0.26163 -7.662444,-0.76959 -11.84131,-1.60935 -3.216707,-0.64642 -5.346896,-1.17483 -5.577539,-1.38356 -0.203065,-0.18377 -0.244909,-0.50461 -0.06581,-0.50461 0.06382,0 1.110879,0.12304 2.326796,0.27343 4.510691,0.5579 7.737194,0.79083 12.957384,0.93542 3.398279,0.0941 4.621985,0.0761 4.479973,-0.0659 -0.02371,-0.0237 -0.950598,-0.14729 -2.05976,-0.27463 -6.078213,-0.69782 -11.161393,-1.76594 -17.339525,-3.64352 -0.68186,-0.20722 -1.125961,-0.51021 -1.125961,-0.76821 0,-0.19305 0.0074,-0.19232 2.234642,0.21912 4.810242,0.88862 10.230075,1.53659 15.504287,1.85364 2.354257,0.14152 8.523899,0.2274 8.523899,0.11866 0,-0.0498 -0.383575,-0.2842 -0.85239,-0.52077 -0.875916,-0.44201 -1.442148,-0.83955 -1.340538,-0.94116 0.03165,-0.0317 0.581737,-0.0128 1.222407,0.042 1.577263,0.13479 3.74972,0.12217 6.729915,-0.0391 4.439598,-0.24024 6.529608,-0.17109 8.364958,0.2768 0.99577,0.243 2.2784,0.8114 2.2784,1.00968 0,0.25017 -0.59196,0.50286 -1.39061,0.59361 -1.36816,0.15546 -2.32453,0.66408 -3.0541,1.62425 -0.50235,0.66113 -0.73487,1.3312 -0.78581,2.26453 -0.10554,1.93338 0.97365,3.5108 2.82964,4.13603 0.50455,0.16998 0.81748,0.19882 2.29878,0.21189 1.83521,0.0162 2.22088,-0.0475 2.57592,-0.42544 0.21617,-0.23009 0.35012,-0.91765 0.25367,-1.30197 -0.0362,-0.1444 -0.16031,-0.27885 -0.31112,-0.33716 -0.36948,-0.14286 -1.6372,-0.11523 -1.95353,0.0426 -0.22179,0.11064 -0.27457,0.11205 -0.31434,0.008 -0.0821,-0.214 0.18464,-1.0495 0.41492,-1.29958 0.25426,-0.27612 0.86147,-0.57809 1.16835,-0.58103 0.11621,-0.001 0.42722,-0.16223 0.69113,-0.35804 0.59154,-0.43891 0.95579,-0.56548 1.62737,-0.56548 0.37659,0 0.65453,0.0665 1.00246,0.23989 0.7379,0.36771 0.79047,0.52132 0.84489,2.46885 l 0.0461,1.64902 0.26003,0.19399 c 0.23719,0.17694 0.40452,0.19678 1.9043,0.22584 2.21444,0.0429 2.85562,-0.13704 3.90457,-1.09572 0.97397,-0.89015 1.47769,-2.33014 1.2652,-3.61681 -0.31107,-1.8836 -1.8083,-3.2753 -3.73782,-3.47438 -1.24572,-0.12852 -1.74877,-0.52811 -1.13601,-0.90236 0.4828,-0.29488 1.79364,-0.72097 2.74622,-0.89265 1.17339,-0.21149 4.19113,-0.28176 6.40444,-0.14914 3.07845,0.18447 6.16195,0.22842 7.63527,0.10883 0.75298,-0.0611 1.39547,-0.0847 1.42775,-0.0524 0.10677,0.10678 -0.57305,0.5902 -1.38996,0.98841 -0.44262,0.21575 -0.80546,0.42338 -0.80631,0.46139 -0.002,0.0987 3.98706,0.085 6.54112,-0.0224 6.13305,-0.25788 11.32836,-0.83464 17.57807,-1.95143 1.17858,-0.21061 2.17103,-0.35478 2.20543,-0.32038 0.0344,0.0344 -0.0205,0.1759 -0.12194,0.31445 -0.20386,0.27837 -0.93844,0.5548 -3.21273,1.20902 -5.04022,1.44986 -10.07642,2.43672 -15.56508,3.05003 -0.90771,0.10143 -1.66729,0.20132 -1.68795,0.22198 -0.12336,0.12336 1.06218,0.15884 3.50574,0.10493 5.06877,-0.11184 9.59988,-0.42846 13.97211,-0.97635 2.49465,-0.31261 2.49361,-0.31255 2.49361,-0.14064 0,0.31812 -0.54248,0.58785 -1.7698,0.87999 -6.023,1.43365 -11.32262,2.22478 -17.29889,2.5824 -2.34666,0.14042 -2.23541,0.22232 0.50041,0.36834 3.91182,0.20878 12.40562,0.0853 16.42579,-0.2388 0.84911,-0.0685 0.96093,0.0198 0.53358,0.42131 -0.26758,0.25138 -1.79787,0.55537 -5.34843,1.06248 -4.31835,0.61675 -7.40776,0.86224 -11.81539,0.93885 -1.78498,0.031 -3.2269,0.0864 -3.20427,0.12299 0.0579,0.0936 0.47295,0.15113 2.62545,0.36368 3.96869,0.3919 7.29477,0.57647 12.64762,0.70183 1.40644,0.0329 2.55717,0.0888 2.55717,0.12418 0,0.13077 -0.38025,0.46688 -0.57849,0.51134 -0.79036,0.17725 -5.21187,0.55466 -8.22186,0.70178 -2.09204,0.10226 -7.74051,0.069 -10.04439,-0.0592 -3.9485,-0.21963 7.16349,1.4551 12.62459,1.9027 0.70956,0.0582 1.33007,0.14274 1.37891,0.18795 0.0554,0.0513 -0.006,0.17696 -0.16339,0.33437 l -0.25219,0.25215 -4.76665,-0.003 c -4.82504,-0.003 -6.76853,-0.0918 -10.15745,-0.4622 -1.88019,-0.20548 -2.86387,-0.25394 -2.5802,-0.12712 0.34043,0.15221 5.27028,1.38122 7.57936,1.88953 2.0806,0.45802 2.23351,0.52992 1.77116,0.83287 -0.25954,0.17005 -0.80973,0.15372 -3.72936,-0.11071 -6.50034,-0.58874 -9.77924,-1.34537 -13.96957,-3.22358 -1.60041,-0.71734 -2.27649,-0.81484 -3.73614,-0.53884 -1.26304,0.23883 -2.00667,0.59944 -2.64644,1.28335 -0.66132,0.70696 -0.93994,1.35999 -1.00356,2.35218 -0.11183,1.74384 0.75132,3.36939 2.17114,4.08887 0.7281,0.36895 2.75502,0.85345 4.27926,1.02287 0.29143,0.0324 0.52987,0.10219 0.52987,0.1551 0,0.33413 -1.92125,2.32532 -2.34666,2.4321 -0.16765,0.0421 -0.7227,-0.30204 -2.68018,-1.66165 -1.78199,-1.23772 -2.49642,-1.6866 -2.56823,-1.61364 -0.0714,0.0725 -0.0589,0.13186 0.0441,0.21006 0.65671,0.49837 4.32568,3.60243 4.32568,3.65966 0,0.19234 -1.86871,1.14812 -2.08357,1.06568 -0.0618,-0.0237 -0.82498,-1.04097 -1.69607,-2.26061 -0.8711,-1.21964 -1.62106,-2.21752 -1.66659,-2.21752 -0.18942,0 -0.0214,0.34275 1.21394,2.47664 0.7132,1.23195 1.2771,2.29105 1.25311,2.35355 -0.0708,0.18438 -1.97376,0.64275 -2.16858,0.52235 -0.0515,-0.0318 -0.36901,-1.15877 -0.70554,-2.50429 -0.33653,-1.34552 -0.64779,-2.50452 -0.69168,-2.57555 -0.22397,-0.36238 -0.19405,0.23344 0.12197,2.42899 0.191,1.32695 0.34588,2.50031 0.34418,2.60746 -0.003,0.16125 -0.0768,0.20491 -0.43063,0.25341 -0.44787,0.0614 -1.0973,0.058 -1.53609,-0.008 z"
       style="fill:#000000;stroke-width:0.09215028" />
    <path
       style="stroke-width:0.13229166"
       id="path2076"
       d="m 66.474868,110.72219 v 60.58958" />
    <path
       style="stroke-width:0.13229166"
       id="path2078"
       d="m 163.57696,110.72219 v 60.58958" />
    <path
       style="stroke-width:0.13229166"
       id="path2082"
       d="M 40.016535,137.18052 H 163.57696" />
    <path
       style="stroke-width:0.13229166"
       id="path2084"
       d="M 40.016535,171.31177 H 163.57696" />
    <text
       xml:space="preserve"
       style="font-style:normal;font-weight:normal;font-size:10.58333302px;line-height:1.25;font-family:sans-serif;letter-spacing:0px;word-spacing:0px;fill:#000000;fill-opacity:1;stroke:none;stroke-width:0.26458332"
       x="106.93722"
       y="122.15598"
       id="text2107"><tspan
         id="tspan2105"
         x="106.93722"
         y="122.15598"
         style="font-size:5.29166651px;stroke-width:0.26458332">47mm</tspan></text>
    <g
       fill="none"
       stroke="black"
       id="g2284">
      <path
         stroke-width="0.264583333328"
         marker-start="url(#Arrow1Lstart)"
         marker-end="url(#Arrow1Lend)"
         d="M 66.474872 123.951362 H 163.576958"
         id="path2271" />
      <path
         stroke-width="0.132291666664"
         d="M 66.474872 110.722196 V 171.311776"
         id="path2273" />
      <path
         stroke-width="0.132291666664"
         d="M 163.576958 110.722196 V 171.311776"
         id="path2275" />
      <path
         style="stroke-width:0.26458332;marker-start:url(#Arrow1Lstart);marker-end:url(#Arrow1Lend)"
         d="m 42.662371,137.18053 v 34.13125"
         id="path2277" />
      <path
         stroke-width="0.132291666664"
         d="M 40.016538 137.180529 H 163.576958"
         id="path2279" />
      <path
         stroke-width="0.132291666664"
         d="M 40.016538 171.311776 H 163.576958"
         id="path2281" />
      <rect
         y="137.31282"
         x="66.607162"
         height="33.866665"
         width="96.837502"
         id="rect2062"
         style="fill:none;fill-opacity:1;stroke:#000000;stroke-width:0.26458332;stroke-miterlimit:4;stroke-dasharray:none;stroke-opacity:1" />
    </g>
    <text
       id="text2403"
       y="155.25891"
       x="45.924103"
       style="font-style:normal;font-weight:normal;font-size:10.58333302px;line-height:1.25;font-family:sans-serif;letter-spacing:0px;word-spacing:0px;fill:#000000;fill-opacity:1;stroke:none;stroke-width:0.26458332"
       xml:space="preserve"><tspan
         style="font-size:5.29166651px;stroke-width:0.26458332"
         y="155.25891"
         x="45.924103"
         id="tspan2401">20mm</tspan></text>
  </g>
</svg>
