<?xml version="1.0" encoding="UTF-8" standalone="no"?>
<!-- Created with Inkscape (http://www.inkscape.org/) -->

<svg
   xmlns:dc="http://purl.org/dc/elements/1.1/"
   xmlns:cc="http://creativecommons.org/ns#"
   xmlns:rdf="http://www.w3.org/1999/02/22-rdf-syntax-ns#"
   xmlns:svg="http://www.w3.org/2000/svg"
   xmlns="http://www.w3.org/2000/svg"
   xmlns:sodipodi="http://sodipodi.sourceforge.net/DTD/sodipodi-0.dtd"
   xmlns:inkscape="http://www.inkscape.org/namespaces/inkscape"
   version="1.1"
   id="svg885"
   width="60mm"
   height="60mm"
   viewBox="0 0 226.77165 226.77165"
   sodipodi:docname="40mm_cir.svg"
   inkscape:version="0.92.2 5c3e80d, 2017-08-06">
  <metadata
     id="metadata891">
    <rdf:RDF>
      <cc:Work
         rdf:about="">
        <dc:format>image/svg+xml</dc:format>
        <dc:type
           rdf:resource="http://purl.org/dc/dcmitype/StillImage" />
        <dc:title></dc:title>
      </cc:Work>
    </rdf:RDF>
  </metadata>
  <defs
     id="defs889" />
  <sodipodi:namedview
     pagecolor="#ffffff"
     bordercolor="#666666"
     borderopacity="1"
     objecttolerance="10"
     gridtolerance="10"
     guidetolerance="10"
     inkscape:pageopacity="0"
     inkscape:pageshadow="2"
     inkscape:window-width="1440"
     inkscape:window-height="806"
     id="namedview887"
     showgrid="false"
     units="mm"
     inkscape:zoom="1.966199"
     inkscape:cx="133.76439"
     inkscape:cy="142.10488"
     inkscape:window-x="0"
     inkscape:window-y="1"
     inkscape:window-maximized="1"
     inkscape:current-layer="svg885" />
  <path
     style="fill:#000000;stroke-width:0.05697147"
     d="m 112.88221,153.71999 c -9.69472,-0.54784 -18.897617,-3.79832 -26.748107,-9.44747 -4.11176,-2.95879 -7.95021,-6.72875 -10.99557,-10.79943 -4.2882,-5.73192 -7.33586,-12.36146 -8.85228,-19.25635 -0.53454,-2.43041 -0.83921,-4.48196 -1.07028,-7.2069 -0.12296,-1.45005 -0.14161,-5.91425 -0.0305,-7.292342 0.23648,-2.93201 0.56158,-5.14343 1.13067,-7.69115 2.75519,-12.33462 10.14577,-23.25246 20.67715,-30.54559 1.86973,-1.29481 3.84942,-2.46235 6.00583,-3.54199 1.81099,-0.90671 2.44736,-1.19205 4.21588,-1.89032 7.783007,-3.07299 16.417987,-4.13846 24.896537,-3.07199 11.9113,1.49824 22.92259,7.23448 31.04592,16.1731 10.31967,11.35539 14.91085,26.70009 12.53817,41.905262 -1.62442,10.40999 -6.42871,19.96539 -13.84499,27.5367 -5.11401,5.22093 -11.15706,9.20437 -17.94601,11.82959 -4.90559,1.89694 -10.05658,2.99389 -15.5168,3.30444 -1.16789,0.0665 -4.2876,0.0632 -5.50567,-0.006 z m -10.02039,-41.1782 c 2.57546,-0.55885 4.21696,-1.97816 4.73083,-4.09049 0.15343,-0.6307 0.16888,-1.77311 0.0324,-2.39163 -0.34825,-1.5776 -1.38265,-2.71948 -3.1629,-3.49153 -0.77155,-0.33461 -1.61655,-0.58851 -3.50212,-1.05231 -1.865607,-0.45888 -2.719887,-0.72083 -3.401677,-1.04306 -1.06203,-0.501942 -1.76445,-1.198262 -2.05136,-2.033552 -0.24426,-0.71116 -0.25487,-1.74359 -0.026,-2.5309 0.41916,-1.44186 1.71814,-2.55715 3.46021,-2.97089 1.461007,-0.34699 3.380597,-0.20659 4.718497,0.34511 1.144,0.47175 2.1512,1.39354 2.64543,2.42111 0.2424,0.50396 0.33095,0.5313 0.65878,0.20346 0.30718,-0.30717 0.30518,-0.56631 -0.009,-1.19443 -0.41338,-0.8259 -1.25149,-1.58953 -2.324,-2.11747 -1.24639,-0.61353 -3.06014,-0.92988 -4.57645,-0.79822 -1.206897,0.1048 -1.870367,0.28285 -2.867657,0.76957 -1.15399,0.56321 -1.96666,1.3655 -2.48251,2.45079 -0.36736,0.77293 -0.47898,1.29451 -0.47545,2.22189 0.004,0.88572 0.0976,1.31421 0.45185,2.05349 0.553,1.154212 1.70745,2.011712 3.52897,2.621222 0.31806,0.10644 1.40418,0.39952 2.413587,0.65131 1.00942,0.25179 2.10601,0.54836 2.43686,0.65906 2.51509,0.84148 3.55547,2.02418 3.55547,4.0419 0,1.24193 -0.33436,2.07441 -1.16699,2.90556 -0.56053,0.55954 -0.89671,0.78242 -1.62898,1.08 -0.87356,0.35498 -1.5041,0.45389 -2.90117,0.45506 -1.349997,9.3e-4 -1.789107,-0.0584 -2.789537,-0.37811 -1.23777,-0.39557 -2.26631,-1.10034 -3.00876,-2.06165 -0.2714,-0.3514 -0.69645,-1.12241 -0.69645,-1.2633 0,-0.23735 -0.5361,0.0512 -0.66404,0.35731 -0.19112,0.45743 0.20882,1.37192 0.93021,2.12699 1.06237,1.11196 2.67502,1.85215 4.64173,2.13048 0.874907,0.12381 2.798877,0.082 3.530457,-0.0768 z m 12.41319,-0.17663 c 0.11307,-0.11307 0.11394,-0.1899 0.11394,-10.13208 V 92.214918 l -0.11993,-0.10853 c -0.0873,-0.0789 -0.20507,-0.10852 -0.43231,-0.10852 -0.25957,0 -0.33081,0.0227 -0.42131,0.1345 -0.1063,0.13128 -0.10891,0.37332 -0.10891,10.126682 0,9.91621 7.7e-4,9.99304 0.11395,10.10611 0.0863,0.0863 0.1899,0.11395 0.42728,0.11395 0.23738,0 0.34097,-0.0276 0.42729,-0.11395 z m 6.80934,-0.0111 c 0.0875,-0.0688 1.74798,-2.24964 3.69002,-4.84629 1.94203,-2.59665 3.55016,-4.70029 3.57363,-4.67474 0.0385,0.042 1.11756,1.49013 4.37995,5.87845 2.67623,3.59985 2.69056,3.61787 2.95173,3.70815 0.21514,0.0744 0.26025,0.0732 0.43896,-0.0121 0.10954,-0.0523 0.24054,-0.17496 0.29109,-0.27271 l 0.0919,-0.17772 -1.29905,-1.71872 c -0.7145,-0.94531 -1.5623,-2.06484 -1.88403,-2.48785 -0.32172,-0.42302 -1.42855,-1.88156 -2.4596,-3.24123 l -1.87465,-2.47211 0.35474,-0.46192 c 0.33071,-0.43061 1.46885,-1.926692 5.39792,-7.095482 l 1.57796,-2.07583 -0.084,-0.16245 c -0.10241,-0.19804 -0.41468,-0.35831 -0.59982,-0.30784 -0.25169,0.0686 0.22066,-0.52971 -4.89002,6.19421 l -2.36302,3.108932 -1.70324,-2.283612 c -0.93679,-1.256 -2.3987,-3.21711 -3.24867,-4.35803 -0.84999,-1.14093 -1.63045,-2.17139 -1.73435,-2.28993 -0.20582,-0.2348 -0.50865,-0.36612 -0.72126,-0.31276 -0.17629,0.0443 -0.48563,0.30609 -0.48563,0.41105 0,0.0651 4.6634,6.29092 6.78288,9.055402 l 0.43966,0.57345 -0.57753,0.76621 c -0.7025,0.93198 -4.64991,6.15102 -5.97234,7.89629 -0.52663,0.69502 -0.95752,1.31445 -0.95752,1.37649 0,0.062 0.0789,0.17918 0.17529,0.2603 0.21926,0.18449 0.49199,0.19311 0.70902,0.0224 z m -39.142207,33.37819 c -1.60546,-0.85176 -1.77726,-0.94698 -2.93247,-1.62539 -4.13016,-2.42548 -7.90817,-5.1845 -11.47976,-8.38349 -1.1363,-1.01776 -4.09066,-3.96853 -5.07649,-5.0703 -3.95111,-4.41582 -7.01105,-8.76491 -9.82061,-13.95802 -0.53279,-0.98479 -1.75637,-3.48987 -2.24439,-4.59503 -3.13931,-7.10923 -5.07743,-14.510062 -5.78651,-22.096102 -0.23201,-2.48215 -0.2594,-3.18346 -0.2581,-6.60869 0.002,-4.15033 0.12914,-6.10654 0.63154,-9.68515 1.64572,-11.72273 6.30342,-22.9848 13.43027,-32.47374 2.04854,-2.7275 3.95118,-4.91358 6.47343,-7.43777 5.52133,-5.5256 11.47957,-9.80261 18.48894,-13.27192 5.41495,-2.68016 10.93406,-4.59591 16.806577,-5.83377 10.02325,-2.11279 20.56026,-1.99076 30.47974,0.35302 l 0.91154,0.21537 0.0143,18.5565 c 0.0117,15.09301 7.7e-4,18.5565 -0.059,18.5565 -0.0403,0 -0.21339,-0.0492 -0.38464,-0.10935 -1.24188,-0.43614 -3.92289,-1.14856 -5.69518,-1.51337 -13.92808,-2.86701 -28.263157,-0.13351 -40.136397,7.65346 -9.08302,5.95702 -16.31958,14.79425 -20.32385,24.81931 -2.74671,6.87664 -4.00882,13.99884 -3.79826,21.433902 0.0458,1.6168 0.0524,1.72784 0.2005,3.40566 0.33385,3.78035 1.18172,7.87498 2.39479,11.56521 0.8456,2.57235 1.67018,4.58364 2.89628,7.06446 2.64546,5.3527 5.9237,9.9174 10.16814,14.15841 1.93884,1.93727 3.52103,3.31965 5.55686,4.85508 0.94763,0.71471 1.03677,0.7849 0.99415,0.78289 -0.0141,-7.7e-4 -0.66726,-0.34163 -1.45148,-0.75768 z"
     id="path895"
     inkscape:connector-curvature="0" />
  <circle
     style="opacity:1;fill:none;fill-opacity:1;stroke:#000000;stroke-width:1.13312876;stroke-miterlimit:4;stroke-dasharray:none;stroke-opacity:1"
     id="path897"
     cx="114.30655"
     cy="83.138008"
     r="75.023987" />
  <text
     xml:space="preserve"
     style="font-style:normal;font-weight:normal;font-size:13.33333302px;line-height:1.25;font-family:sans-serif;letter-spacing:0px;word-spacing:0px;fill:#000000;fill-opacity:1;stroke:none"
     x="86.461243"
     y="181.50665"
     id="text901"><tspan
       sodipodi:role="line"
       id="tspan899"
       x="86.461243"
       y="181.50665">40.00mm</tspan></text>
</svg>
