<?xml version="1.0" encoding="UTF-8" standalone="no"?>
<svg
   xmlns:dc="http://purl.org/dc/elements/1.1/"
   xmlns:cc="http://creativecommons.org/ns#"
   xmlns:rdf="http://www.w3.org/1999/02/22-rdf-syntax-ns#"
   xmlns:svg="http://www.w3.org/2000/svg"
   xmlns="http://www.w3.org/2000/svg"
   viewBox="0 0 226.77166 226.77166"
   height="60mm"
   width="60mm"
   id="svg2499"
   version="1.1">
  <metadata
     id="metadata2505">
    <rdf:RDF>
      <cc:Work
         rdf:about="">
        <dc:format>image/svg+xml</dc:format>
        <dc:type
           rdf:resource="http://purl.org/dc/dcmitype/StillImage" />
        <dc:title></dc:title>
      </cc:Work>
    </rdf:RDF>
  </metadata>
  <defs
     id="defs2503" />
  <path
     id="path3052"
     d="M 109.23997,162.62104 C 97.367864,161.53726 86.649507,157.24522 77.55721,149.93407 68.570308,142.70765 62.024392,133.18362 58.479871,122.17731 l -0.693311,-2.15284 -1.113845,0.37885 c -2.114633,0.71923 -3.576751,0.97062 -5.640603,0.96976 -1.42091,-7.6e-4 -2.236778,-0.0827 -2.947232,-0.29653 -3.220992,-0.96966 -5.326326,-3.25719 -6.068661,-6.59384 -0.95851,-4.30831 1.383391,-8.10109 5.168117,-8.3699 1.56896,-0.11143 2.349329,0.15935 3.344434,1.16052 0.914395,0.91997 1.24015,1.69341 1.24015,2.94453 0,0.54806 -0.102154,0.86837 -0.379937,1.19132 -0.343319,0.39913 -0.492881,0.4434 -1.551783,0.4594 -1.050773,0.0159 -1.21875,0.0647 -1.625818,0.47209 -0.401559,0.40194 -0.452957,0.57208 -0.445172,1.47362 0.02111,2.44444 1.997356,4.06077 4.360562,3.56642 1.271608,-0.26601 2.114058,-0.80181 2.575274,-1.6379 0.690799,-1.25229 0.594951,-1.97324 -1.775263,-13.35317 C 50.57524,91.09935 50.392305,90.3299 49.968388,89.94626 c -0.172422,-0.15604 -0.664266,-0.28249 -1.224543,-0.31482 -1.124679,-0.065 -1.544493,-0.40568 -1.672128,-1.35726 -0.104958,-0.78252 0.122983,-1.2698 0.744312,-1.5911 0.252037,-0.13033 2.773422,-0.720053 5.603075,-1.310503 2.829655,-0.59043 5.300069,-1.1096 5.48981,-1.15371 0.263725,-0.0613 0.529714,-0.53398 1.129283,-2.00683 6.897554,-16.94397 21.907347,-30.00891 39.623261,-34.48919 5.201662,-1.31547 9.852182,-1.81272 15.800442,-1.68943 4.6459,0.0963 6.54419,0.29646 10.54635,1.112 21.69896,4.42176 39.12382,21.00845 44.70138,42.551173 l 0.69855,2.69806 0.55771,0.11813 c 0.66607,0.1411 0.96708,-0.1473 0.96708,-0.92656 0,-0.79109 0.44695,-2.31369 0.88103,-3.00131 1.59654,-2.52909 5.24808,-3.944233 8.55782,-3.316553 1.6877,0.32006 2.70963,0.833103 3.77009,1.892693 1.21012,1.2091 1.6366,2.31947 1.46189,3.80601 -0.21809,1.8555 -1.12902,2.84356 -2.72826,2.95925 -1.25935,0.091 -2.27569,-0.23483 -4.25158,-1.36338 -2.26957,-1.29628 -3.24322,-1.26437 -4.09604,0.1343 -0.46969,0.77031 -0.40144,0.96353 0.53195,1.50565 1.2252,0.71161 2.78321,2.30171 3.28885,3.35656 1.11195,2.31976 0.78656,5.37566 -0.79289,7.44642 -0.24092,0.31586 -0.87913,0.86886 -1.41828,1.22887 -2.43061,1.62309 -5.75722,1.86978 -9.68962,0.71849 -1.27054,-0.37198 -1.53743,-0.40183 -2.09627,-0.23439 -1.21204,0.36313 -0.9677,1.00512 0.5365,1.40961 0.48792,0.13121 2.21338,0.46486 3.83438,0.74145 4.93823,0.84261 6.11393,1.2719 7.47835,2.73057 1.26958,1.35729 1.5261,1.99681 1.52662,3.80613 2.6e-4,1.36764 -0.0543,1.66669 -0.45181,2.47642 -1.19008,2.4233 -4.16037,3.89909 -7.86243,3.90641 -1.00181,0.002 -1.45896,0.0649 -1.50752,0.2075 -2.03916,5.98976 -3.98237,10.02227 -7.04251,14.6144 -3.36543,5.05028 -6.96921,9.06412 -11.47661,12.78252 -8.60026,7.09481 -18.25128,11.30961 -29.62092,12.9361 -1.73755,0.24857 -10.70797,0.45704 -12.52574,0.2911 z m 11.75529,-1.60361 c 13.0229,-1.69634 24.21567,-7.13956 33.35364,-16.22038 6.16665,-6.1281 10.60452,-13.09781 13.52579,-21.24239 l 0.63051,-1.75789 -0.36495,-0.0724 c -0.20072,-0.0397 -1.02486,-0.19497 -1.83142,-0.34482 -6.31746,-1.17367 -9.31343,-3.40637 -9.33322,-6.95539 -0.006,-1.03681 0.0615,-1.34911 0.4319,-2.00576 l 0.43876,-0.77775 -2.48545,-0.003 c -1.36698,-9.3e-4 -2.59427,-0.0712 -2.7273,-0.15547 -0.14567,-0.0921 -0.24188,-0.40623 -0.24188,-0.78961 v -0.63663 l -1.03331,0.70742 c -1.57281,1.07678 -2.8958,1.41558 -5.2409,1.34209 -1.7584,-0.0552 -2.01457,-0.10479 -3.0436,-0.59021 -0.61798,-0.29151 -1.14614,-0.53003 -1.17372,-0.53003 -0.0276,0 -0.21915,0.2763 -0.42573,0.61401 -0.59648,0.97511 -1.94181,2.32941 -2.99586,3.01586 -2.44019,1.58911 -5.62935,1.72592 -8.41885,0.36116 -0.905,-0.44279 -2.35093,-1.74028 -3.15299,-2.82931 l -0.4106,-0.55751 -2.20145,0.20665 c -4.24014,0.39799 -4.00355,0.39274 -4.30074,0.0956 -0.16404,-0.16403 -0.27486,-0.53421 -0.27486,-0.91811 0,-0.40661 -0.0753,-0.64243 -0.20468,-0.64104 -0.11258,9.3e-4 -2.01504,-0.11894 -4.2277,-0.26697 l -4.02306,-0.26916 -0.79514,0.60694 c -1.09936,0.83916 -2.77749,1.65692 -4.29172,2.09136 -1.05348,0.30227 -1.68939,0.36666 -3.64991,0.36961 -2.69553,0.004 -3.977745,-0.28669 -5.853414,-1.32728 l -1.023234,-0.56766 -0.184112,0.40408 c -0.377988,0.82959 -2.478132,2.02452 -4.357416,2.47925 -1.607561,0.38899 -4.140195,0.27547 -5.528411,-0.24778 -1.120231,-0.42222 -2.377201,-1.57895 -2.707048,-2.49112 l -0.203708,-0.56334 -0.955381,0.38589 c -1.87728,0.75827 -3.930827,0.87842 -5.292144,0.30962 -0.854414,-0.357 -2.002836,-1.50507 -2.448477,-2.44774 -0.449464,-0.95073 -0.838036,-2.70747 -1.001141,-4.5261 -0.06057,-0.67542 -0.324442,-3.07004 -0.586377,-5.3214 -0.261935,-2.25136 -0.476551,-4.21013 -0.476927,-4.35283 -7.68e-4,-0.22099 -0.190869,-0.24845 -1.283372,-0.18522 -1.243906,0.0721 -1.293407,0.0606 -1.637352,-0.37662 -0.208854,-0.26551 -0.354663,-0.6843 -0.354663,-1.01864 0,-0.50611 0.193251,-0.75704 1.779843,-2.31115 1.885598,-1.84698 3.399382,-3.76743 4.385746,-5.563943 0.851259,-1.55045 1.137312,-1.82831 1.882202,-1.82831 0.970492,0 1.119115,0.37148 1.493976,3.734113 0.177637,1.59344 0.369095,2.94423 0.425461,3.00175 0.05637,0.0575 0.924434,0.0294 1.929039,-0.0626 1.004601,-0.0919 2.015674,-0.11967 2.246824,-0.0617 0.515413,0.12938 1.084281,0.71426 1.084281,1.11482 0,0.16313 0.101068,0.29659 0.224593,0.29659 0.635517,0 4.704226,-3.09008 6.004502,-4.56028 0.649575,-0.73445 1.294236,-0.974003 1.890282,-0.70243 0.784115,0.35725 0.815858,0.74526 0.324473,3.96588 -0.248243,1.62704 -0.415796,2.99379 -0.372343,3.03725 0.04346,0.0434 0.879232,0.22242 1.857283,0.39771 0.978052,0.17528 1.872008,0.35367 1.986574,0.39642 0.114563,0.0428 0.556649,-0.13626 0.982411,-0.3978 0.425761,-0.26152 1.363558,-0.67945 2.083993,-0.92872 1.161177,-0.40174 1.551527,-0.4542 3.438437,-0.4622 1.81377,-0.008 2.304,0.0485 3.31486,0.37966 2.27369,0.74498 4.40206,2.65122 5.61309,5.02733 0.54017,1.05984 0.54599,1.61773 0.0218,2.09209 -0.1495,0.13529 -2.70328,1.3646 -5.67507,2.7318 -2.9718,1.3672 -5.46479,2.54287 -5.54,2.61261 -0.41159,0.38172 1.56687,2.53857 2.94879,3.21468 1.71901,0.84104 4.05971,0.6645 5.78404,-0.43625 0.40525,-0.25869 1.17659,-0.91583 1.7141,-1.4603 0.53751,-0.54447 1.10418,-0.98995 1.25929,-0.98995 0.1551,0 0.32101,-0.0632 0.36872,-0.14032 0.15529,-0.25127 0.64466,-8.779 0.53,-9.23584 -0.0759,-0.30254 -0.3321,-0.55655 -0.80414,-0.79737 -0.38098,-0.19436 -0.78271,-0.47156 -0.89271,-0.616 -0.32876,-0.43164 -0.25026,-1.2328 0.15797,-1.61208 0.37641,-0.34973 7.62199,-2.82577 8.26897,-2.82577 0.62673,0 0.85926,0.42789 0.85926,1.5811 v 1.0665 l 0.72075,-0.63442 c 1.23477,-1.0869 2.42264,-1.57059 4.0598,-1.65314 l 1.42398,-0.0717 0.25431,-0.74636 c 0.43263,-1.26968 0.34754,-1.79842 -0.40062,-2.48911 -0.38299,-0.35357 -0.65495,-0.75444 -0.65495,-0.96539 0,-0.510583 0.43481,-1.288293 0.77595,-1.387853 0.15858,-0.0462 2.07613,-0.28389 4.26123,-0.52804 4.58914,-0.51274 4.78693,-0.48949 4.78693,0.56277 0,0.58553 -0.69094,2.901793 -2.53538,8.499523 -0.39316,1.19321 -0.6651,2.16837 -0.60428,2.16701 0.0608,-9.4e-4 0.40528,-0.10864 0.76551,-0.2384 0.76947,-0.27722 3.01011,-0.32199 3.8897,-0.0777 0.5639,0.15661 0.64554,0.13547 0.98241,-0.25426 0.46508,-0.53805 7.87424,-3.58286 8.39836,-3.4513 0.68955,0.17306 0.72888,0.58551 0.72888,7.64339 0,4.3199 0.0639,6.9686 0.17919,7.42642 0.50221,1.99448 2.74217,2.28955 4.44604,0.58567 l 0.77803,-0.77803 v -4.10611 c 0,-2.32363 -0.0707,-4.29187 -0.1627,-4.53403 -0.10008,-0.26325 -0.39936,-0.52566 -0.77774,-0.68191 -0.93589,-0.38648 -1.18812,-0.68252 -1.18812,-1.3945 0,-0.82125 0.25813,-1.03015 2.24639,-1.8179 0.88076,-0.34896 2.58177,-1.04142 3.78004,-1.5388 2.34577,-0.9737 2.78702,-1.01571 3.11467,-0.29659 0.13719,0.3011 0.1918,2.4487 0.1918,7.54237 v 7.12141 l 0.43906,-0.40712 c 0.43768,-0.40582 1.6269,-0.9048 2.97061,-1.24639 l 0.70804,-0.18 -0.75157,-0.66154 c -2.71483,-2.3897 -2.72417,-7.02197 -0.0196,-9.72653 1.37246,-1.37247 3.0773,-2.01378 5.53724,-2.08294 0.99851,-0.0281 1.2648,-0.0872 1.26567,-0.28117 7.7e-4,-0.13507 -0.25195,-1.20396 -0.56125,-2.3753 -4.53492,-17.174173 -17.20667,-31.483723 -33.821,-38.192273 -6.96839,-2.81374 -13.36465,-4.02512 -21.28557,-4.03133 -4.36795,-0.004 -5.72763,0.10101 -9.63377,0.73995 -11.33477,1.85407 -22.180528,7.4482 -30.517217,15.74044 -5.597012,5.56719 -9.961493,12.10612 -12.797931,19.17411 -0.530021,1.32073 -0.561105,1.48396 -0.342135,1.79658 0.279624,0.39922 0.316097,1.298093 0.07124,1.755603 -0.09329,0.17432 -0.535371,0.50228 -0.98241,0.72882 -0.780357,0.39543 -0.812798,0.43933 -0.812798,1.10019 0,0.37857 0.994693,5.49404 2.210425,11.36771 1.700752,8.21699 2.210425,10.96466 2.210425,11.91654 0,1.28983 0.06515,1.38654 0.70664,1.04888 0.524077,-0.27585 0.597961,-0.45364 0.600735,-1.44551 0.0027,-0.94881 -0.588807,-8.22104 -0.743448,-9.14097 -0.11387,-0.6774 -0.600173,-1.17794 -1.144442,-1.17794 -0.574424,0 -1.220571,-0.68467 -1.220571,-1.29331 0,-0.27812 0.159094,-0.66495 0.368404,-0.89575 0.202622,-0.22344 2.009979,-1.22652 4.016352,-2.22907 3.750917,-1.87425 4.10169,-1.9764 4.463756,-1.29988 0.09361,0.1749 0.424063,3.28294 0.734344,6.90673 0.72297,8.44359 0.799292,9.0756 1.141618,9.45387 0.153059,0.16913 0.65479,0.38824 1.114958,0.48693 1.114844,0.23909 1.423117,0.54154 1.423117,1.39622 0,1.23066 0.02164,1.22428 -5.938773,1.7528 -4.069624,0.36085 -5.370467,0.42595 -5.685202,0.28446 -0.336998,-0.15151 -0.436858,-0.13518 -0.573073,0.0937 -0.703391,1.18199 -1.481801,2.08071 -2.459699,2.83985 -1.342802,1.04241 -1.3289,0.94815 -0.510455,3.46152 5.127649,15.74652 16.932141,28.58727 32.19425,35.02044 5.700486,2.40282 10.68147,3.58718 18.25788,4.34128 1.5255,0.15181 8.78554,-0.0522 10.69101,-0.30029 z m 16.60365,-18.29982 c -0.1393,-0.13929 -0.19648,-1.11943 -0.19648,-3.36733 0,-1.87263 -0.0695,-3.30052 -0.1695,-3.48757 -0.35231,-0.65827 -1.10798,-0.30565 -2.18256,1.01841 -0.90389,1.11376 -1.64913,1.60251 -2.66618,1.74856 -0.7317,0.10508 -0.7683,0.13678 -0.97652,0.84598 -0.59978,2.04264 -2.97011,3.28119 -4.8821,2.551 -1.26261,-0.48219 -2.21814,-1.86875 -2.22104,-3.2229 l -9.4e-4,-0.42628 -0.85437,0.22161 c -0.46982,0.12189 -1.04197,0.22162 -1.27138,0.22162 -0.35177,0 -0.46197,0.12637 -0.70373,0.80705 -0.50632,1.42561 -2.31337,2.63139 -3.94349,2.63139 -0.74851,0 -1.88235,-0.62661 -2.38204,-1.3164 l -0.44768,-0.618 -0.4328,0.54241 c -0.23803,0.29833 -0.88907,0.7704 -1.44671,1.04907 -0.82634,0.41293 -1.21355,0.50653 -2.09298,0.50605 -1.64581,-9.4e-4 -2.50041,-0.67843 -2.99407,-2.37355 -0.1049,-0.36022 -0.21196,-0.68332 -0.23791,-0.718 -0.026,-0.0347 -0.57649,0.50374 -1.22344,1.19649 -1.12142,1.20081 -2.10807,1.89566 -2.69169,1.89566 -0.14768,0 -0.52888,-0.26036 -0.84712,-0.57861 -0.50951,-0.50951 -0.61022,-0.55097 -0.84323,-0.34722 -1.73582,1.51793 -4.87788,0.8883 -5.783461,-1.15891 -0.269058,-0.60826 -0.318633,-0.98997 -0.259031,-1.99444 0.08175,-1.37765 0.346978,-2.02234 1.171029,-2.84639 0.850098,-0.8501 1.616549,-1.1438 2.785983,-1.0676 0.5512,0.036 1.25296,0.19127 1.55947,0.34521 0.30652,0.15394 0.57361,0.27989 0.59354,0.27989 0.0199,0 0.0815,-0.22602 0.1367,-0.50227 0.0866,-0.43302 0.16279,-0.4951 0.55261,-0.45027 l 0.45219,0.052 0.0934,3.19284 c 0.0934,3.19267 0.17705,3.76591 0.5496,3.76591 0.32459,0 1.44644,-1.04368 2.48176,-2.30886 l 0.96863,-1.18367 0.0874,-7.70944 c 0.0982,-8.6609 0.0876,-8.58059 1.32764,-9.98939 1.15994,-1.31776 2.65594,-1.38868 3.72037,-0.17637 0.71401,0.81322 1.00463,1.96304 1.00463,3.97487 0,3.72112 -1.56509,8.70131 -3.983,12.67402 -0.84434,1.38729 -0.91953,1.84788 -0.52085,3.19039 0.36523,1.22986 0.86863,1.69301 1.83532,1.68859 1.74321,-0.009 3.22248,-1.28263 3.82104,-3.29253 0.62934,-2.11319 1.78631,-3.28748 3.46579,-3.51767 1.2252,-0.16794 2.91351,0.57104 2.91351,1.27525 0,0.18349 0.18421,0.55253 0.40934,0.82009 0.22515,0.26755 0.40934,0.59133 0.40934,0.71951 0,0.38152 0.93188,0.36846 2.16292,-0.0304 0.53929,-0.1747 0.86837,-0.40652 1.09441,-0.77098 0.74994,-1.20914 2.1197,-2.07817 3.27173,-2.07573 1.20811,0.003 2.74409,0.89364 2.58555,1.49994 -0.0487,0.18615 0.0352,0.36599 0.21584,0.46266 0.16252,0.0869 0.37308,0.38073 0.46792,0.65279 0.31092,0.89189 1.29363,0.56572 2.559,-0.84935 1.11671,-1.24881 1.94381,-1.76695 2.82059,-1.76695 0.56826,0 0.80461,0.0913 1.1215,0.43325 0.22084,0.23829 0.40153,0.49079 0.40153,0.56112 0,0.0704 0.41933,-0.12463 0.93184,-0.43325 0.70079,-0.422 1.11805,-0.56112 1.6828,-0.56112 1.58358,0 1.97604,0.76668 2.12025,4.14218 0.0915,2.14356 0.14232,2.46801 0.41759,2.66931 0.88573,0.64763 2.328,-0.10529 3.12561,-1.63167 0.40731,-0.7795 0.5513,-0.92199 0.93202,-0.92231 0.37311,-2.6e-4 0.45026,0.0708 0.45026,0.41547 0,0.97603 -1.28574,2.71459 -2.37275,3.20841 -0.75824,0.34446 -1.95388,0.39104 -2.52352,0.0983 -0.914,-0.46972 -1.06498,-0.92638 -1.17757,-3.56161 -0.11321,-2.64973 -0.30576,-3.2725 -1.01148,-3.2713 -0.42496,7.6e-4 -1.3184,0.50687 -1.96105,1.11098 l -0.45027,0.42329 v 2.72011 c 0,2.68741 -0.0783,3.11308 -0.57307,3.11308 -0.099,0 -0.26853,-0.0885 -0.37659,-0.19648 z m -36.95504,-1.81105 c 0.18011,-0.0882 0.56693,-0.38696 0.85961,-0.66399 0.51989,-0.49209 0.53214,-0.53603 0.53214,-1.90876 0,-1.63589 -0.18182,-2.00809 -1.20878,-2.47445 -1.30605,-0.5931 -2.568385,-0.23293 -3.375806,0.96321 -0.556083,0.82379 -0.593826,2.70628 -0.06854,3.41882 0.615534,0.83496 2.238464,1.16595 3.261376,0.66517 z m 17.76526,0.0451 c 0.85515,-0.23794 1.76225,-1.06281 1.98448,-1.80457 0.1824,-0.60878 0.16656,-0.66695 -0.33826,-1.24191 -0.51677,-0.58856 -0.56294,-0.85909 -0.26624,-1.56001 0.0856,-0.20224 -0.0531,-0.33117 -0.58528,-0.54412 -0.92129,-0.36863 -1.63125,-0.22228 -2.43224,0.50136 -1.5351,1.38687 -1.49234,3.75898 0.0821,4.5548 0.58086,0.29359 0.79336,0.3065 1.55546,0.0945 z m 10.76313,-0.3537 c 0.55688,-0.34417 1.18955,-1.35787 1.18955,-1.90597 0,-0.16801 -0.1842,-0.47851 -0.40935,-0.69 -0.42759,-0.40172 -0.57254,-1.35344 -0.23764,-1.56041 0.28676,-0.17724 -0.14867,-0.54934 -0.87018,-0.74362 -0.53116,-0.14304 -0.79483,-0.12644 -1.34799,0.0848 -0.84929,0.32435 -1.27365,0.76399 -1.72726,1.78943 -1.0591,2.39429 1.1895,4.39371 3.40287,3.02576 z m -19.48192,-7.34429 c 2.6713,-5.63165 3.31827,-12.07641 1.31104,-13.0596 -0.89554,-0.43863 -1.88926,0.48826 -2.32757,2.17105 -0.20606,0.79114 -0.25156,2.08515 -0.24731,7.03422 0.006,6.88988 -0.0684,6.66309 1.26384,3.85433 z m -20.403621,9.27244 c -1.416631,-0.51265 -2.478472,-2.00764 -2.478472,-3.48947 0,-0.98008 0.476704,-1.73824 1.042239,-1.65758 0.391393,0.0558 0.574814,0.70871 0.281506,1.00202 -0.451537,0.45154 2.56e-4,1.97042 0.765092,2.57202 1.088552,0.85626 2.835967,0.66614 3.782144,-0.41149 0.92975,-1.05893 0.893822,-2.53438 -0.139017,-5.70907 l -0.658961,-2.02547 -1.036635,-0.0832 c -2.784249,-0.22348 -5.069319,-2.37556 -5.689142,-5.35803 -0.102175,-0.49166 -0.154084,-1.49773 -0.115348,-2.23573 0.05716,-1.08902 0.169028,-1.54209 0.593821,-2.40496 0.523772,-1.06394 0.806944,-1.32825 1.24351,-1.16074 0.435156,0.167 0.406975,0.53842 -0.118147,1.55714 -0.486317,0.94344 -0.523307,1.13005 -0.512697,2.58631 0.0088,1.21681 0.09363,1.77927 0.377205,2.50305 0.701859,1.79137 2.243988,3.0435 4.117296,3.34306 0.615283,0.0984 0.692775,0.0781 0.602172,-0.15806 -0.366854,-0.95601 -0.955065,-3.52768 -1.057339,-4.62271 -0.354302,-3.79355 0.583459,-6.56271 2.655924,-7.84283 0.720459,-0.44501 0.933725,-0.49427 2.122903,-0.49028 1.568092,0.006 2.287646,0.31537 3.312994,1.42774 1.00867,1.09428 1.414012,2.33477 1.324333,4.05296 -0.177164,3.3943 -2.375881,6.78755 -5.317365,8.20618 -0.609919,0.29415 -1.14019,0.55802 -1.178379,0.58638 -0.03818,0.0284 0.16201,0.7694 0.444886,1.64676 1.020878,3.16637 1.136637,4.80861 0.437799,6.21099 -0.821169,1.64788 -3.094134,2.57321 -4.802322,1.95504 z m 5.19344,-11.77314 c 2.429253,-1.45786 4.289597,-4.91336 4.076235,-7.57141 -0.287834,-3.58582 -4.079444,-4.94579 -6.111185,-2.19191 -1.107809,1.50155 -1.387062,4.69103 -0.659783,7.53562 0.746596,2.92015 0.76693,2.96396 1.324829,2.85322 0.269176,-0.0535 0.885634,-0.33491 1.369904,-0.62552 z M 63.475986,93.36817 c -0.791943,-0.43432 -1.201758,-0.88668 -1.492143,-1.64703 -0.804554,-2.10671 0.7542,-5.18812 3.257138,-6.438863 1.294901,-0.64706 2.944547,-0.69621 3.965269,-0.11812 2.62468,1.486463 1.538822,6.015773 -1.889333,7.880733 -1.106223,0.60179 -3.036806,0.76428 -3.840931,0.32328 z m 3.238546,-1.04844 c 2.883132,-1.35524 4.066768,-5.325 1.919111,-6.436453 -2.470916,-1.27876 -6.629698,2.372783 -5.885545,5.167703 0.101905,0.38273 0.307364,0.83488 0.456583,1.00478 0.717853,0.81734 2.109869,0.92205 3.509851,0.26397 z M 105.03316,77.187657 c -0.32286,-0.14523 -0.66723,-0.50578 -0.90055,-0.94287 -0.36266,-0.67941 -0.37981,-0.88028 -0.42873,-5.021 l -0.051,-4.31328 -0.35838,0.0878 c -0.19711,0.0483 -1.41165,0.2887 -2.69897,0.53416 -2.196434,0.41879 -2.357605,0.42924 -2.616986,0.16988 -0.208641,-0.20865 -0.234074,-0.34352 -0.103745,-0.55013 0.220919,-0.35023 0.470423,-0.42108 3.383031,-0.96064 l 2.41509,-0.4474 v -2.24697 c 0,-1.85041 0.0458,-2.28496 0.25933,-2.4622 0.18799,-0.156 0.33438,-0.16796 0.53214,-0.0434 0.22791,0.14352 0.28033,0.52601 0.3185,2.32374 0.0251,1.18357 0.11181,2.15194 0.19263,2.15194 0.16552,0 3.27175,-0.60503 3.84539,-0.749 0.4651,-0.11674 0.91206,0.29726 0.79679,0.73804 -0.088,0.33636 -0.0396,0.32203 -3.24315,0.96024 l -1.47361,0.29358 -0.0487,3.67662 c -0.0268,2.02214 -0.003,3.99901 0.0541,4.39306 0.12333,0.85971 0.69382,1.516 1.20223,1.38304 0.56622,-0.14807 2.35467,-2.18536 3.72611,-4.24458 l 1.28827,-1.93435 0.0294,-5.24648 c 0.0363,-6.4745 0.0945,-7.38013 0.53799,-8.38282 0.45445,-1.02734 0.87704,-1.46065 1.74955,-1.79386 0.66697,-0.25472 0.75904,-0.25405 1.45177,0.0104 1.31769,0.50323 2.04386,1.93114 2.04386,4.01896 0,2.15346 -0.93385,4.72282 -3.27974,9.02374 -0.71766,1.31577 -1.30485,2.43635 -1.30485,2.4902 0,0.0539 0.38057,-0.13852 0.84571,-0.42747 1.51684,-0.94232 3.08606,-0.64577 3.77956,0.71427 0.23286,0.45665 0.28634,0.99691 0.28655,2.89466 1.6e-4,2.1206 0.0303,2.3633 0.33022,2.6632 0.24537,0.24537 0.44475,0.30144 0.77774,0.21872 1.49916,-0.37242 2.57641,-1.88137 3.31399,-4.64207 0.13403,-0.50168 0.42461,-0.95615 0.91062,-1.42413 0.78879,-0.75956 1.43546,-0.95995 2.65437,-0.82256 1.87997,0.21189 2.63658,2.63499 1.2986,4.15885 -0.69847,0.79552 -1.61678,1.19078 -2.77682,1.19521 -0.52522,0.002 -0.94147,0.077 -0.94147,0.16974 0,0.0913 0.2395,0.42749 0.53223,0.7469 0.6807,0.74279 1.57772,0.90097 2.69326,0.47493 0.92174,-0.35201 2.08708,-1.387 2.52237,-2.24023 0.23467,-0.45999 0.41956,-0.62136 0.71197,-0.62136 1.39902,0 -0.31698,2.81341 -2.30218,3.77442 -0.45708,0.22127 -1.18303,0.39396 -1.84202,0.43815 -1.45505,0.0976 -2.3438,-0.35288 -3.06927,-1.55579 l -0.50803,-0.8424 -0.21833,0.40794 c -0.29897,0.55864 -1.53822,1.54856 -2.2625,1.80732 -0.84391,0.3015 -1.33461,0.27536 -1.95716,-0.1042 -0.833,-0.50787 -1.01349,-1.14575 -1.01349,-3.58206 0,-1.16773 -0.0685,-2.30311 -0.15205,-2.52305 -0.0872,-0.22913 -0.37276,-0.47685 -0.66892,-0.58009 -0.7063,-0.24622 -1.36469,0.0503 -2.24907,1.01271 l -0.69588,0.75732 -0.003,2.33689 c -9.8e-4,1.28529 -0.065,2.43543 -0.14131,2.55588 -0.0763,0.12044 -0.31469,0.19413 -0.52963,0.16373 -0.38939,-0.0551 -0.39099,-0.0642 -0.43614,-2.47035 -0.0249,-1.32831 -0.0986,-2.41189 -0.16373,-2.408 -0.0652,0.004 -0.39209,0.42756 -0.72655,0.94147 -0.90952,1.39751 -2.30954,3.02304 -3.03904,3.5286 -0.79294,0.5495 -1.58759,0.67722 -2.27887,0.36626 z m 19.80785,-3.92029 c 0.80112,-0.33908 1.17437,-0.85035 1.17437,-1.60863 0,-1.18027 -1.17329,-1.65633 -2.33563,-0.94766 -0.5694,0.34716 -0.90802,0.98252 -1.06157,1.99184 -0.0727,0.47729 -0.0341,0.61955 0.18275,0.67689 0.58165,0.15372 1.53542,0.10115 2.04008,-0.11244 z m -10.42014,-9.81124 c 1.59003,-3.56008 1.78696,-5.91887 0.61085,-7.3166 -0.75351,-0.8955 -1.71031,-0.57183 -2.32644,0.78701 -0.2307,0.50881 -0.27873,1.35621 -0.31707,5.59358 l -0.0452,4.99392 0.68121,-1.228 c 0.37466,-0.67541 1.00314,-1.94887 1.39663,-2.82991 z m 60.06756,57.022303 c 2.85771,-0.89773 4.39463,-2.66871 4.40279,-5.07332 0.005,-1.38388 -0.45251,-2.3421 -1.63177,-3.41988 -1.19607,-1.09315 -2.02314,-1.3704 -6.42101,-2.15237 -4.16763,-0.74104 -5.28315,-1.04087 -5.85931,-1.57483 -0.87258,-0.80868 -0.29992,-2.01294 1.15889,-2.43701 0.84786,-0.2465 0.92757,-0.24098 2.24061,0.15489 3.83866,1.1573 7.05552,0.97025 9.30584,-0.54107 2.22113,-1.49173 3.07389,-4.73999 1.91114,-7.27977 -0.5132,-1.12098 -1.84394,-2.49684 -3.10131,-3.20645 -1.2133,-0.68474 -1.32373,-0.83812 -1.18681,-1.64851 0.2249,-1.33122 1.63967,-2.61754 2.87894,-2.61754 0.83677,0 1.51416,0.26225 3.01515,1.1673 3.17315,1.91328 5.27072,1.52239 5.45436,-1.01644 0.0846,-1.16906 -0.14517,-1.87971 -0.88835,-2.74795 -2.39536,-2.798443 -7.78992,-2.715063 -10.45317,0.16156 -0.91937,0.99302 -1.28611,1.82242 -1.47511,3.33608 -0.23099,1.8498 -0.5066,2.03418 -2.60272,1.74129 -5.29832,-0.74034 -8.617,1.08922 -9.24132,5.09465 -0.35735,2.29279 0.72934,4.6955 2.56896,5.68003 0.186,0.0996 0.42337,0.34017 0.52748,0.53469 0.26121,0.48807 -0.2329,0.86847 -1.45585,1.12079 -1.55629,0.32111 -2.60046,0.78617 -3.1369,1.39715 -0.85499,0.97377 -0.64072,1.54155 0.67484,1.78835 0.86253,0.16182 1.28011,0.61547 1.28011,1.39072 0,1.01907 -0.43629,1.30988 -1.96507,1.30988 -1.15057,0 -1.28139,0.0353 -1.66965,0.45028 -1.45966,1.56011 -1.21909,3.91794 0.56706,5.55769 1.53624,1.41035 4.89823,2.61698 8.7984,3.15778 1.80503,0.25029 4.99057,0.0845 6.30378,-0.32799 z m -7.82411,-1.95115 c -2.52767,-0.54777 -4.42541,-1.62805 -5.02085,-2.85807 -0.42222,-0.87221 -0.42572,-1.61172 -0.0116,-2.46229 0.32828,-0.67429 1.64163,-1.72998 2.1522,-1.72998 0.14252,0 0.76729,0.18656 1.38838,0.41457 0.62109,0.22801 2.40923,0.6743 3.97364,0.99173 3.30149,0.66991 3.95983,0.90069 4.54158,1.59206 0.37437,0.44491 0.41783,0.61945 0.35851,1.43958 -0.084,1.16144 -0.61458,1.91891 -1.72276,2.45953 -1.08082,0.52726 -3.61551,0.59574 -5.65909,0.15287 z m 5.18534,-0.96687 c 0.40051,-0.17716 0.85219,-0.51133 1.0037,-0.74258 0.3429,-0.52334 0.38251,-1.4556 0.0774,-1.8232 -0.33516,-0.40382 -0.76975,-0.53744 -3.76375,-1.15723 -1.48588,-0.3076 -3.27503,-0.7477 -3.97584,-0.97803 -1.41423,-0.46476 -1.66199,-0.4402 -2.30236,0.22819 -1.46562,1.52979 -0.33722,3.25503 2.75492,4.21207 2.52672,0.78202 4.81058,0.878 6.2059,0.26078 z m -2.45196,-12.56017 c -1.93988,-0.71354 -2.82774,-2.87698 -2.36417,-5.76083 0.3603,-2.24132 1.33263,-3.88237 2.67886,-4.5212 1.33303,-0.63256 3.53661,-0.0881 4.44061,1.09702 1.25656,1.64743 1.19644,5.28975 -0.12365,7.49107 -0.97342,1.62322 -2.90414,2.32935 -4.63165,1.69394 z m 3.07765,-1.24336 c 0.99066,-0.70411 1.91233,-3.58882 1.69235,-5.29689 -0.28662,-2.22545 -2.0048,-3.61253 -3.75811,-3.0339 -0.80337,0.26514 -1.78593,1.43846 -2.16043,2.57988 -0.42206,1.28636 -0.43485,3.97115 -0.0229,4.793 0.7389,1.47395 2.85256,1.95045 4.24903,0.95791 z M 55.125491,119.92559 c 4.338508,-1.26648 6.885177,-3.47721 7.447662,-6.46525 0.331263,-1.75972 0.406387,-1.29138 -2.287897,-14.26353 -2.2423,-10.79601 -2.230313,-10.72584 -1.96386,-11.49665 0.196823,-0.5694 0.377599,-0.76646 0.959164,-1.0456 0.842818,-0.40455 1.018531,-0.661113 0.817086,-1.193033 -0.135062,-0.35663 -0.215856,-0.3827 -0.922737,-0.29786 -0.734411,0.0881 -6.217204,1.205163 -9.495243,1.934493 -1.608306,0.35784 -1.913259,0.58733 -1.662583,1.25119 0.119122,0.31546 0.258669,0.3684 0.971195,0.3684 1.803597,0 2.15149,0.58892 3.132103,5.30198 3.513547,16.88697 3.905655,18.88453 3.905655,19.89699 0,2.57636 -1.580027,4.20754 -4.261401,4.3994 -1.490245,0.10663 -2.433581,-0.17024 -3.360775,-0.9864 -1.06443,-0.93695 -1.426729,-1.73579 -1.503398,-3.31488 -0.05347,-1.10116 -0.01107,-1.39326 0.266056,-1.83313 0.511714,-0.81222 1.093377,-1.10445 2.380494,-1.19598 1.046854,-0.0744 1.164256,-0.119 1.294529,-0.49139 0.398392,-1.13884 -0.904321,-3.04969 -2.343259,-3.43716 -2.042587,-0.55 -4.554451,0.9569 -5.416671,3.24952 -0.663479,1.7642 -0.332255,4.64916 0.741827,6.46133 0.956391,1.61361 2.717351,2.91037 4.715726,3.47264 1.376032,0.38717 4.73038,0.2267 6.586327,-0.31508 z m 80.166959,-5.01002 c 3.03603,-0.56296 5.65956,-3.22742 6.77141,-6.87707 0.41223,-1.35315 0.5009,-3.92078 0.1864,-5.39749 -0.60825,-2.85602 -2.32,-5.19658 -4.5661,-6.24351 -1.04796,-0.48847 -1.34067,-0.55143 -2.57636,-0.55417 -1.26848,-0.003 -1.49256,0.0474 -2.48694,0.55741 -0.91754,0.47062 -1.13384,0.52649 -1.34847,0.34837 -0.14061,-0.11669 -0.25564,-0.29977 -0.25564,-0.40683 0,-0.10706 0.80833,-2.72422 1.79631,-5.81591 0.98797,-3.0917 1.766,-5.670313 1.72895,-5.730253 -0.0467,-0.0755 -6.78788,0.60967 -7.90518,0.80356 -0.0226,0.004 -0.0409,0.12895 -0.0409,0.27786 0,0.148913 0.29472,0.542843 0.65493,0.875393 0.77175,0.71248 0.83947,1.26802 0.3505,2.87569 l -0.30195,0.99273 0.62322,0.35868 c 0.67211,0.38682 1.45345,1.41148 1.75828,2.3058 0.29076,0.85305 0.22888,2.45232 -0.12507,3.23178 -0.76808,1.69148 -2.43885,2.83842 -4.13906,2.84133 l -0.93356,0.002 -1.24486,3.88869 c -0.68468,2.13879 -1.31493,4.10345 -1.40055,4.3659 -0.10347,0.31721 -0.0956,0.64657 0.0237,0.98242 0.24567,0.69178 -0.0355,1.38052 -0.65971,1.61615 -0.76138,0.28738 -0.84996,1.22272 -0.0979,1.03398 0.74715,-0.18752 5.25856,-0.60133 5.60576,-0.51419 0.19782,0.0496 0.69041,0.5201 1.09463,1.04541 0.99833,1.29741 1.78692,1.95842 2.98385,2.50114 1.60741,0.72883 2.96677,0.92062 4.50431,0.63553 z m -4.76796,-3.25435 c -1.15748,-0.37973 -1.99089,-1.08001 -2.55767,-2.1491 -0.22713,-0.42845 -0.30383,-0.92433 -0.30386,-1.96483 -4e-5,-1.23234 0.0915,-1.66365 0.79935,-3.7659 0.97923,-2.90818 1.54739,-4.06976 2.47649,-5.06304 2.35184,-2.51431 5.96136,-2.0734 7.26779,0.88779 0.11919,0.27016 0.27146,0.93328 0.33836,1.47362 0.44219,3.57097 -1.85657,8.65297 -4.58599,10.1385 -0.91708,0.49914 -2.60118,0.71636 -3.43447,0.44296 z m 2.24771,-0.92272 c 1.70663,-0.50679 3.28231,-2.4852 4.29761,-5.39597 0.98858,-2.83414 0.8183,-5.16885 -0.47103,-6.45816 -1.24577,-1.24577 -3.05337,-1.21871 -4.55688,0.0683 -1.04475,0.89427 -1.60992,1.95586 -2.57563,4.83795 -1.27392,3.80189 -1.23644,5.18382 0.17209,6.34485 0.52738,0.4347 1.34348,0.75434 2.12642,0.83279 0.0962,0.01 0.54956,-0.0937 1.00742,-0.22968 z m -63.43959,3.60861 c 2.500707,-0.21925 4.619031,-0.44331 4.707388,-0.49792 0.228135,-0.141 0.199185,-0.56851 -0.04402,-0.65009 -0.112567,-0.0378 -0.529455,-0.15193 -0.926416,-0.25374 -1.009809,-0.25897 -1.577239,-0.88227 -1.793445,-1.97002 -0.09732,-0.48959 -0.444968,-4.09527 -0.772566,-8.01264 -0.327598,-3.91735 -0.618526,-7.14723 -0.646501,-7.1775 -0.02797,-0.0303 -1.622521,0.75683 -3.543432,1.74908 -2.415886,1.24794 -3.506256,1.89585 -3.536974,2.10172 -0.03329,0.22307 0.168475,0.37961 0.805657,0.62508 1.321775,0.50918 1.361941,0.6475 1.868082,6.43286 0.238626,2.72758 0.387073,5.20869 0.329879,5.51357 -0.104315,0.55603 -1.041185,1.56172 -1.454858,1.56172 -0.371726,0 -0.920341,0.49293 -0.825034,0.74129 0.122346,0.31882 0.430437,0.3102 5.832248,-0.16341 z m 21.241546,-1.30092 c 2.035405,-0.43249 4.257115,-1.7711 4.257115,-2.56495 0,-0.60139 -0.518064,-0.64622 -1.643565,-0.14221 -2.218398,0.99339 -4.310454,0.40832 -4.521428,-1.26446 -0.06475,-0.51339 1.52808,-11.65146 1.851835,-12.94924 0.136944,-0.54893 0.67323,-0.60148 2.774861,-0.27188 2.073161,0.32514 2.401691,0.26324 2.489588,-0.46899 0.06887,-0.57378 -0.154634,-0.66513 -2.711445,-1.10806 l -2.16949,-0.37585 0.0081,-0.50377 c 0.0046,-0.27708 0.209794,-1.76672 0.456242,-3.31031 0.246449,-1.54358 0.420842,-2.88825 0.38754,-2.98817 -0.126209,-0.37862 -0.504323,-0.14116 -1.861784,1.16918 -1.69861,1.63965 -3.507128,2.95941 -5.464442,3.98768 -1.69879,0.89244 -2.039939,1.15212 -2.039939,1.55272 0,0.32468 0.203762,0.40804 1.391747,0.56944 0.931188,0.12651 1.39175,0.4491 1.39175,0.97484 0,0.42727 -1.210184,8.40097 -1.57206,10.35802 -0.849878,4.59624 0.244024,6.82826 3.62338,7.39323 1.240727,0.20744 2.182081,0.19137 3.351941,-0.0571 z m 15.217874,-1.42451 c 1.70624,-0.4357 3.49697,-1.36572 4.60509,-2.39163 0.98157,-0.90875 1.95382,-2.25768 1.95382,-2.71077 0,-0.59921 -0.41531,-0.41578 -1.55025,0.68472 -2.55382,2.4763 -5.62481,3.07307 -8.45696,1.6434 -2.05219,-1.03594 -4.071536,-3.87884 -3.21441,-4.52536 0.112567,-0.0849 2.73608,-1.32408 5.83003,-2.75372 3.09395,-1.42963 5.66089,-2.6919 5.7043,-2.80503 0.10974,-0.286 -0.67318,-1.67487 -1.57165,-2.78806 -1.60867,-1.99313 -3.846,-3.02892 -6.56518,-3.03939 -1.82962,-0.008 -3.247609,0.31092 -4.739087,1.06271 l -1.055051,0.5318 -0.01387,0.79532 c -0.01196,0.68517 -0.08904,0.86249 -0.556723,1.28036 -0.447154,0.39953 -0.662097,0.47643 -1.21922,0.4362 -0.607462,-0.0439 -0.713696,0.007 -1.042843,0.49499 -0.819494,1.21605 -1.363016,3.2487 -1.358207,5.07944 0.01284,4.88747 3.276094,8.57261 8.271631,9.34097 1.28627,0.19784 3.4636,0.0509 4.97857,-0.33595 z m -7.552226,-8.83099 c -0.425577,-0.24619 -0.956241,-1.87207 -1.06304,-3.25702 -0.176688,-2.29125 0.793638,-4.22664 2.381856,-4.75079 0.81944,-0.27043 2.36994,-0.15883 3.17702,0.2287 0.88682,0.42583 2.00846,1.63022 2.5761,2.76618 0.56091,1.12246 0.60962,1.58968 0.20325,1.94943 -0.26656,0.23599 -6.018321,2.92546 -6.695105,3.13058 -0.167513,0.0508 -0.428551,0.0206 -0.580081,-0.0672 z m 3.659036,-2.30529 c 1.60615,-0.73214 2.92028,-1.39772 2.92028,-1.47907 0,-0.4293 -0.88694,-1.79339 -1.59939,-2.4598 -1.50215,-1.40509 -3.228066,-1.46873 -4.329586,-0.15965 -0.658342,0.78238 -0.837388,1.53491 -0.742912,3.12233 0.08276,1.39054 0.347762,2.30737 0.666926,2.30737 0.09042,0 1.478532,-0.59904 3.084682,-1.33118 z m 46.52629,10.58297 c 1.29566,-0.33746 2.16129,-0.80053 3.25025,-1.7387 1.41595,-1.21986 1.92342,-1.0147 1.68992,0.68317 l -0.11129,0.80916 h 3.8739 c 2.35727,0 3.99788,-0.0664 4.19061,-0.1695 0.56171,-0.30062 0.35712,-0.61419 -0.57808,-0.88605 -1.14015,-0.33146 -1.70272,-0.82056 -1.89338,-1.64608 -0.0832,-0.36021 -0.153,-4.07056 -0.15516,-8.24521 -0.003,-6.00413 -0.0467,-7.57369 -0.20857,-7.51091 -3.0698,1.19028 -6.97538,2.82777 -7.1564,3.00044 -0.29925,0.28548 -0.0742,0.54729 0.68306,0.79471 0.29252,0.0956 0.69287,0.41934 0.90066,0.72838 0.36697,0.5458 0.37408,0.64154 0.37408,5.043 0,5.04572 0.0129,4.98121 -1.21284,6.06015 -1.84975,1.62823 -4.47765,1.38273 -5.41896,-0.50623 l -0.4088,-0.82038 -0.003,-6.96752 c -9.5e-4,-3.83215 -0.0617,-7.06095 -0.13427,-7.17511 -0.0994,-0.15667 -0.99242,0.14038 -3.6406,1.211 -1.92986,0.78021 -3.61936,1.52423 -3.75445,1.65338 -0.21724,0.20769 -0.2005,0.26638 0.14488,0.50823 1.00013,0.70027 2.46365,2.23881 3.01813,3.17286 1.62749,2.74154 1.96696,6.63734 0.85656,9.83027 l -0.38487,1.10674 0.43401,0.3027 c 0.42153,0.294 1.57077,0.75582 2.23509,0.89818 0.75721,0.16225 2.53501,0.0909 3.40904,-0.13668 z m -67.054533,-0.98092 1.0168,-0.45633 v -1.02163 -1.02164 l -0.898005,-0.0745 c -1.006485,-0.0835 -1.475418,-0.40088 -1.82993,-1.23864 -0.21795,-0.51506 -1.529179,-11.34801 -1.529179,-12.63361 0,-0.35035 0.10572,-0.71391 0.239995,-0.82534 0.131996,-0.10955 1.121242,-0.28923 2.198321,-0.39929 1.080332,-0.1104 2.073867,-0.29601 2.216033,-0.414 0.339387,-0.28166 0.32693,-0.71532 -0.02982,-1.03818 -0.258646,-0.23407 -0.517683,-0.23819 -2.578829,-0.041 -1.260216,0.12058 -2.337051,0.17099 -2.392969,0.11205 -0.05592,-0.0589 -0.256128,-1.51326 -0.444909,-3.23175 -0.359463,-3.272173 -0.44939,-3.720523 -0.727604,-3.627793 -0.09326,0.0311 -0.581523,0.73427 -1.085041,1.56263 -1.471203,2.420373 -2.271624,3.443303 -4.156894,5.312493 -1.36675,1.35509 -1.763249,1.84492 -1.722968,2.12856 0.05012,0.35279 0.108193,0.36598 1.369618,0.31124 1.021036,-0.0442 1.362966,-0.002 1.520384,0.18755 0.187785,0.22626 0.431046,2.1008 1.323646,10.19975 0.368832,3.3466 0.707986,4.4945 1.630119,5.51733 0.938242,1.04068 1.632458,1.2895 3.38427,1.21299 1.173793,-0.0513 1.690625,-0.15908 2.496962,-0.52094 z m 11.495852,-0.62334 c 0.405245,-0.19298 0.763267,-0.36739 0.795604,-0.38759 0.03234,-0.0202 -0.10053,-0.26051 -0.29526,-0.53398 -0.507011,-0.71203 -1.238866,-2.40135 -1.495182,-3.45126 -0.300752,-1.23199 -0.267906,-3.93493 0.06312,-5.19446 0.14733,-0.56056 0.495741,-1.47061 0.774249,-2.02231 0.278507,-0.55173 0.461547,-1.04798 0.406754,-1.10276 -0.0548,-0.0548 -0.478385,-0.1026 -0.941318,-0.10623 l -0.841696,-0.007 -0.864632,5.567 c -0.926193,5.96336 -1.014672,6.96757 -0.641213,7.27752 0.681147,0.5653 1.800213,0.55083 3.039568,-0.0394 z m 27.977741,-0.0993 c 0.38183,-0.24188 0.1376,-0.50767 -0.96484,-1.05001 -0.64141,-0.31555 -1.14084,-0.68376 -1.26313,-0.93125 -0.26716,-0.5407 -0.25809,-1.8425 0.0426,-6.11894 0.28946,-4.11639 0.51247,-4.95752 1.56694,-5.91018 0.80243,-0.72493 1.25189,-0.90595 2.24939,-0.90595 1.569,0 2.61747,1.33029 2.44698,3.10469 -0.0936,0.97401 0.11147,1.11208 1.21542,0.81833 1.92299,-0.51168 3.30156,-2.78014 2.74978,-4.52476 -0.56344,-1.78142 -1.6716,-2.57361 -3.60134,-2.57442 -1.92308,-7.8e-4 -3.34267,0.75824 -4.59923,2.45917 -0.50338,0.68139 -0.7516,0.88792 -1.02108,0.84955 -0.34033,-0.0485 -0.35602,-0.12833 -0.35602,-1.81106 0,-0.96821 -0.068,-1.76027 -0.15105,-1.76016 -0.39772,5.1e-4 -7.30411,2.34708 -7.45964,2.53448 -0.19912,0.23994 0.17921,0.74043 0.55968,0.74043 0.42058,0 1.07036,0.68577 1.23734,1.30588 0.12583,0.46734 0.0864,1.86054 -0.15063,5.31449 -0.22734,3.31351 -0.27284,4.81976 -0.15572,5.15571 0.13249,0.38005 0.0945,0.63966 -0.19084,1.30286 -0.19597,0.45553 -0.45875,0.91326 -0.58397,1.01719 -0.60348,0.50085 -0.24716,0.58809 3.41546,0.83628 4.64366,0.31467 4.74551,0.31766 5.01387,0.14767 z m 0.24411,-2.43153 c 0.13719,-0.42775 0.84308,-2.6224 1.56865,-4.87698 0.80258,-2.49397 1.3192,-4.37263 1.3192,-4.79738 0,-2.7709 -3.20303,-2.49673 -3.99758,0.34218 -0.32868,1.17441 -0.80631,8.63258 -0.58938,9.20317 0.13605,0.35782 0.90574,0.87495 1.34002,0.90034 0.0602,0.004 0.22189,-0.34358 0.35909,-0.77133 z m -38.868741,-0.3684 c 0.235083,0 0.334632,-0.21221 0.480053,-1.02335 0.370081,-2.06421 1.488874,-9.4559 1.488874,-9.83675 0,-0.35471 -0.08843,-0.40295 -0.917763,-0.50041 -0.504766,-0.0593 -1.04727,-0.17718 -1.205557,-0.26189 -0.367677,-0.19677 -0.729194,-1.06041 -0.592739,-1.416 0.09423,-0.24555 -0.0216,-0.26223 -1.155028,-0.16643 -0.692869,0.0585 -1.281566,0.12829 -1.308218,0.15495 -0.14112,0.14112 1.410665,12.43996 1.598082,12.66579 0.26856,0.32359 0.812451,0.54941 1.097654,0.45571 0.119933,-0.0395 0.351521,-0.0716 0.514642,-0.0716 z"
     style="fill:#000000;stroke-width:0.16373518" />
  <circle
     r="75.434883"
     cy="99.713142"
     cx="114.70368"
     id="path3054"
     style="opacity:1;fill:none;fill-opacity:1;stroke:#000000;stroke-width:0.31133893;stroke-miterlimit:4;stroke-dasharray:none;stroke-opacity:1" />
  <text
     id="text3077"
     y="189.24623"
     x="87.423729"
     style="font-style:normal;font-weight:normal;font-size:13.33333302px;line-height:1.25;font-family:sans-serif;letter-spacing:0px;word-spacing:0px;fill:#000000;fill-opacity:1;stroke:none"
     xml:space="preserve"><tspan
       y="189.24623"
       x="87.423729"
       id="tspan3075">40.00mm</tspan></text>
</svg>
