<?xml version="1.0" encoding="UTF-8" standalone="no"?>
<svg
   xmlns:dc="http://purl.org/dc/elements/1.1/"
   xmlns:cc="http://creativecommons.org/ns#"
   xmlns:rdf="http://www.w3.org/1999/02/22-rdf-syntax-ns#"
   xmlns:svg="http://www.w3.org/2000/svg"
   xmlns="http://www.w3.org/2000/svg"
   viewBox="0 0 264.56693 188.97637"
   height="50mm"
   width="70mm"
   id="svg1039"
   version="1.1">
  <metadata
     id="metadata1045">
    <rdf:RDF>
      <cc:Work
         rdf:about="">
        <dc:format>image/svg+xml</dc:format>
        <dc:type
           rdf:resource="http://purl.org/dc/dcmitype/StillImage" />
        <dc:title></dc:title>
      </cc:Work>
    </rdf:RDF>
  </metadata>
  <defs
     id="defs1043" />
  <path
     id="path1592"
     d="m 71.53246,104.8468 c -0.0841,-0.044 -0.28516,-0.1689 -0.4467,-0.2774 -0.26589,-0.1787 -0.32329,-0.1895 -0.60616,-0.114 -0.21022,0.056 -0.38326,0.059 -0.52885,0.01 -0.18643,-0.065 -0.21033,-0.1059 -0.17261,-0.2944 0.0498,-0.2489 -0.13263,-0.4667 -0.60997,-0.7284 l -0.28022,-0.1537 0.46342,-0.5761 c 1.11339,-1.3841 2.00669,-2.963802 2.49109,-4.405202 0.21939,-0.6528 0.28595,-0.7761 0.40886,-0.7573 0.11552,0.018 0.15826,-0.04 0.20046,-0.2688 0.0295,-0.1603 0.1205,-0.4437 0.20223,-0.6299 0.19136,-0.436 0.27384,-0.9289 0.15544,-0.9289 -0.13748,0 -0.0225,-0.5658 0.27185,-1.3383 0.14365,-0.3769 0.30169,-0.8988 0.3512,-1.1598 0.0668,-0.352 0.13066,-0.4923 0.24752,-0.5437 0.11629,-0.051 0.19405,-0.22 0.29705,-0.6453 0.43819,-1.8093 0.45999,-1.8724 0.7599,-2.1978 0.25903,-0.281 0.2912,-0.3599 0.2912,-0.7143 0,-0.3019 0.12118,-0.7237 0.49985,-1.7396 0.30615,-0.8214 0.53395,-1.5715 0.58783,-1.9358 0.0623,-0.421 0.12956,-0.6241 0.23034,-0.6954 0.19166,-0.1355 0.32308,-0.4134 0.48637,-1.0283 0.13149,-0.4952 0.14445,-0.513 0.34504,-0.4729 0.20505,0.041 0.20924,0.034 0.25853,-0.4377 0.0276,-0.2637 0.0501,-0.6656 0.0501,-0.8931 0,-0.5058 0.14318,-0.8701 0.42171,-1.073 0.19071,-0.1389 0.21228,-0.2044 0.2324,-0.7052 0.0289,-0.7188 0.14062,-1.171 0.54712,-2.2142 0.18361,-0.4712 0.40209,-1.1425 0.48551,-1.4917 0.0834,-0.3493 0.18239,-0.6551 0.21993,-0.6796 0.0375,-0.024 0.10785,-0.1661 0.15625,-0.3147 0.0484,-0.1486 0.22624,-0.5067 0.39521,-0.7959 0.32644,-0.5586 0.37778,-0.8154 0.1936,-0.9682 -0.0796,-0.066 -0.0923,-0.1342 -0.0424,-0.2274 0.0563,-0.1051 0.21234,-1.0905 0.23765,-1.5003 0.003,-0.043 0.0372,0.001 0.0767,0.1004 0.0395,0.099 0.1151,0.165 0.16796,0.1476 0.10841,-0.036 0.21747,-0.8987 0.40011,-3.1656 0.0648,-0.8045 0.17407,-1.906 0.24277,-2.4477 l 0.1249,-0.9848 -0.16947,-0.1186 c -0.12176,-0.085 -0.14602,-0.1421 -0.0862,-0.202 0.25386,-0.2538 -0.17796,-0.4001 -0.4883,-0.1653 -0.17026,0.1286 -0.427,0.1504 -0.427,0.036 0,-0.1259 -0.27309,-0.087 -0.46974,0.066 -0.30698,0.2397 -0.50791,0.27 -0.60369,0.091 -0.0463,-0.086 -0.12022,-0.1573 -0.16423,-0.1573 -0.044,0 -0.3971,0.1881 -0.78465,0.418 -0.38754,0.23 -0.79968,0.4411 -0.91586,0.4693 -0.22587,0.055 -0.29461,0.2649 -0.0866,0.2649 0.10726,0 0.10993,0.018 0.0192,0.1276 -0.18313,0.2218 -1.17476,0.8258 -1.31984,0.8039 -0.21666,-0.033 -0.36028,0.1377 -0.36028,0.4273 0,0.2318 -0.0195,0.2584 -0.15739,0.2147 -0.23165,-0.074 -0.48389,0.1267 -0.92712,0.7361 -0.29105,0.4002 -0.49056,0.5885 -0.77752,0.7339 -0.49839,0.2526 -1.03493,0.7583 -1.32579,1.2498 -0.24362,0.4116 -0.29383,0.4375 -0.61306,0.3161 -0.15177,-0.058 -0.24484,-0.047 -0.38246,0.043 -0.22041,0.1444 -0.44364,0.5882 -0.3797,0.7548 0.0319,0.083 -0.24031,0.4271 -0.87181,1.1016 -0.50502,0.5394 -1.17288,1.2745 -1.48414,1.6336 -0.31126,0.3591 -0.94076,1.0234 -1.3989,1.4763 -0.73449,0.726 -0.85004,0.8126 -0.97735,0.7331 -0.11725,-0.073 -0.17408,-0.063 -0.30231,0.053 -0.20081,0.1818 -0.20288,0.3496 -0.004,0.3496 0.0845,0 0.15362,0.036 0.15362,0.08 0,0.044 -0.29307,0.3894 -0.65127,0.7674 -0.35821,0.378 -0.67305,0.774 -0.69966,0.88 -0.0331,0.1317 -0.10117,0.1927 -0.215,0.1927 -0.0916,0 -0.24408,0.054 -0.33876,0.1207 -0.18179,0.1273 -0.55338,0.7919 -0.55338,0.9896 0,0.064 -0.13358,0.2051 -0.29686,0.3132 -0.17696,0.1171 -0.38295,0.358 -0.51002,0.5964 -0.27816,0.5219 -0.54118,0.7991 -0.85731,0.9034 -0.14089,0.047 -0.25618,0.1322 -0.25618,0.1902 0,0.2682 -0.23014,0.5439 -0.74301,0.89 -0.53628,0.3619 -0.57252,0.4064 -0.98085,1.2047 -0.66667,1.3033 -1.25645,2.1377 -2.03388,2.8775 -0.45815,0.436 -0.69752,0.7207 -0.69752,0.8295 0,0.1393 -0.0312,0.1579 -0.1959,0.1165 -0.18554,-0.046 -0.21576,-0.01 -0.57099,0.752 -0.37057,0.7916 -0.6167,1.1241 -0.83221,1.1241 -0.0899,0 -0.10084,-0.087 -0.0584,-0.4618 0.0433,-0.3831 0.0314,-0.4698 -0.0698,-0.5086 -0.0672,-0.026 -0.18978,0.015 -0.27277,0.09 -0.14209,0.1285 -0.15077,0.1287 -0.15077,0 0,-0.073 -0.0432,-0.1189 -0.096,-0.101 -0.10795,0.036 -0.11934,0.5772 -0.0239,1.1356 0.0562,0.3286 0.0478,0.3542 -0.14466,0.4418 -0.25219,0.115 -0.42673,0.5132 -0.42673,0.9737 0,0.3201 -0.0154,0.3481 -0.19204,0.3481 -0.18367,0 -0.19203,0.02 -0.19203,0.4646 0,0.4071 -0.0259,0.4885 -0.20936,0.6586 l -0.20935,0.194 -0.0659,-0.1977 c -0.0363,-0.1087 -0.0994,-0.1977 -0.14023,-0.1977 -0.11561,0 -0.31399,0.5422 -0.27431,0.7497 0.0279,0.1458 -0.04,0.2552 -0.31336,0.5055 -0.43059,0.3943 -0.88215,1.0783 -1.09093,1.6526 -0.0867,0.2385 -0.21221,0.5819 -0.27888,0.7631 -0.1461,0.3972 -0.4563,0.7835 -0.63153,0.7866 -0.2001,0 -2.62407,-1.2544 -2.62407,-1.3618 0,-0.1207 0.43835,-0.3534 0.54332,-0.2885 0.0428,0.026 0.132,0 0.1981,-0.052 0.0961,-0.08 0.11194,-0.2079 0.0791,-0.6403 -0.0226,-0.2973 -0.0238,-0.4801 -0.003,-0.4062 0.0609,0.2133 0.21775,0.1587 0.52693,-0.1835 0.26968,-0.2985 0.28452,-0.3407 0.243,-0.6913 -0.0396,-0.3343 -0.0285,-0.3734 0.10579,-0.3734 0.16993,0 0.19744,-0.1515 0.054,-0.2973 -0.0772,-0.079 -0.013,-0.1715 0.32646,-0.4738 0.45117,-0.4018 0.5377,-0.4453 0.5377,-0.2705 0,0.2853 0.44665,0.2318 0.64953,-0.078 0.12199,-0.1861 0.12217,-0.2088 0.003,-0.3408 -0.12636,-0.1397 -0.29687,-1.1196 -0.21723,-1.2485 0.022,-0.035 0.22222,-0.1453 0.44489,-0.2438 0.30562,-0.1352 0.41762,-0.2299 0.45693,-0.3865 0.0712,-0.2838 -0.0112,-0.5017 -0.18976,-0.5017 -0.16856,0 -0.19077,-0.1629 -0.0696,-0.5106 0.0704,-0.2019 0.10755,-0.2229 0.34567,-0.1951 0.29049,0.034 0.32958,0.097 0.15157,0.2448 -0.0634,0.053 -0.11522,0.1801 -0.11522,0.2834 0,0.1595 0.0318,0.184 0.21125,0.1634 0.23511,-0.027 0.43064,-0.3455 0.5219,-0.8501 0.0426,-0.2352 0.0294,-0.288 -0.0717,-0.288 -0.1514,0 -0.15159,-0.01 -0.009,-0.2793 0.0631,-0.1211 0.11496,-0.2632 0.11522,-0.316 6e-4,-0.1215 -0.17074,-0.1245 -0.29015,0 -0.05,0.05 -0.10701,0.075 -0.1267,0.055 -0.0608,-0.061 0.27822,-1.0943 0.43077,-1.3129 0.1245,-0.1785 0.18495,-0.2018 0.44228,-0.1709 0.24981,0.03 0.32245,0 0.44867,-0.1555 0.0828,-0.1052 0.17102,-0.171 0.19597,-0.1461 0.0249,0.025 0.15317,-0.045 0.28495,-0.1562 0.13618,-0.1147 0.33425,-0.2016 0.45895,-0.2016 0.15051,0 0.23439,-0.047 0.26722,-0.1507 0.059,-0.186 -0.0801,-0.4638 -0.23223,-0.4638 -0.14585,0 -0.14211,-0.1041 0.0147,-0.4071 0.15151,-0.2929 0.33151,-0.9405 0.33279,-1.1974 5.4e-4,-0.107 0.13151,-0.3252 0.31403,-0.5232 0.38644,-0.4192 0.46465,-0.6038 0.7665,-1.8091 l 0.24025,-0.9594 0.29724,-0.098 c 0.27677,-0.091 0.30021,-0.1225 0.34044,-0.4517 0.115,-0.9411 0.20645,-1.4177 0.39315,-2.0485 0.27667,-0.9349 0.39813,-1.5062 0.46012,-2.1643 0.0523,-0.5553 0.13134,-0.7052 0.39238,-0.7445 0.11304,-0.017 0.13343,-0.08 0.11187,-0.3453 -0.0145,-0.1785 0.0175,-0.5453 0.0712,-0.8152 0.0733,-0.369 0.0761,-0.5378 0.0111,-0.6804 -0.0475,-0.1042 -0.0623,-0.2009 -0.0328,-0.2147 0.0295,-0.014 0.14942,-0.131 0.26647,-0.2606 l 0.21283,-0.2356 -0.20452,-0.5318 c -0.23735,-0.6172 -0.95565,-3.0491 -0.91317,-3.0916 0.0158,-0.016 0.17798,0.112 0.36039,0.2842 0.33144,0.3127 0.33152,0.3129 0.12041,0.3149 -0.11619,10e-4 -0.21124,0.038 -0.21124,0.082 0,0.1964 0.24291,0.5204 0.45659,0.6089 0.50777,0.2103 0.64712,0.8125 0.7203,3.1128 l 0.0318,0.9986 -0.14131,-0.3073 c -0.0777,-0.169 -0.15738,-0.3418 -0.17702,-0.3841 -0.0568,-0.122 -0.27581,0.2022 -0.27581,0.4084 0,0.1028 0.0935,0.3953 0.2078,0.65 l 0.20779,0.463 -0.1726,1.0223 c -0.44519,2.6368 -1.60618,6.2499 -2.94134,9.1535 -0.46352,1.0081 -0.30074,0.9758 0.68615,-0.1364 0.37986,-0.428 1.03122,-1.2399 1.44745,-1.8041 0.73349,-0.9943 0.76427,-1.0247 0.99987,-0.9863 0.29569,0.048 0.42208,-0.1161 0.56499,-0.7344 0.082,-0.3547 0.162,-0.4752 0.56089,-0.845 0.96472,-0.8942 1.27749,-1.2357 1.32327,-1.4448 0.10748,-0.4909 0.25108,-0.685 1.08196,-1.4624 0.47911,-0.4483 0.88986,-0.8741 0.91278,-0.9463 0.0229,-0.072 0.1401,-0.151 0.26041,-0.1751 0.29149,-0.058 0.6985,-0.609 0.6985,-0.945 0,-0.2056 0.0734,-0.3133 0.42178,-0.6186 0.23198,-0.2034 0.86169,-0.8537 1.39937,-1.4451 1.50643,-1.6572 2.69906,-2.8547 3.25459,-3.2678 0.27788,-0.2067 0.75455,-0.6519 1.05926,-0.9894 0.67033,-0.7424 2.09243,-2.0254 3.2162,-2.9017 1.43714,-1.1207 3.16386,-2.1345 4.81107,-2.8246 0.78542,-0.329 0.87032,-0.3481 1.55062,-0.3481 0.91582,0 1.41186,0.1736 1.98039,0.6932 0.76332,0.6977 1.12261,1.7403 1.12501,3.2648 0.002,1.1286 -0.10557,1.9229 -0.42955,3.1784 -0.14823,0.5744 -0.42328,1.753 -0.61123,2.6191 -0.39482,1.8193 -0.63091,2.5803 -0.9807,3.1612 -0.17537,0.2912 -0.32602,0.7343 -0.50594,1.4881 -0.56363,2.3613 -1.22342,4.5791 -2.02023,6.7907 -0.42589,1.1821 -0.50664,1.348 -0.68945,1.4171 -0.16245,0.061 -0.2181,0.1453 -0.25825,0.3895 -0.0716,0.4351 -0.23281,0.8007 -0.50088,1.1356 -0.19799,0.2473 -0.22054,0.3212 -0.16413,0.5377 0.0557,0.2139 0.0226,0.3304 -0.22416,0.7887 -0.40807,0.7578 -0.65139,1.4389 -0.98784,2.7653 -0.34186,1.3477 -0.42505,1.8052 -0.32832,1.8052 0.0384,0 0.50643,-0.6518 1.04011,-1.4485 1.84198,-2.7495 3.8746,-5.4213 5.75715,-7.5674 0.51956,-0.5922 0.83602,-1.023 0.903,-1.229 0.21281,-0.6546 4.44763,-4.514 4.8033,-4.3775 0.0695,0.027 0.24116,-0.069 0.43006,-0.2396 0.48221,-0.4356 1.55927,-1.1105 2.21098,-1.3854 0.7005,-0.2954 1.24711,-0.4214 1.82767,-0.4214 0.67067,0 0.96221,0.1263 1.53722,0.666 0.28749,0.2699 0.63504,0.5398 0.77235,0.5997 l 0.24965,0.1091 v 0.9986 c 0,1.7213 -0.23253,3.0874 -1.07303,6.3039 -0.81395,3.1148 -1.08078,4.7833 -0.92607,5.7909 0.22168,1.4437 1.09138,2.378 2.58842,2.7808 0.73351,0.1973 2.12786,0.164 3.04687,-0.073 2.1915,-0.5647 4.3862,-2.2654 5.02631,-3.895 0.13088,-0.3332 0.17991,-0.3567 0.36261,-0.174 0.11621,0.1162 0.14524,0.1065 0.38963,-0.1303 0.19127,-0.1854 0.25959,-0.3145 0.24787,-0.4683 -0.0206,-0.2697 0.27216,-0.6013 0.48226,-0.5464 0.10991,0.029 0.14831,-9e-4 0.14831,-0.1143 0,-0.084 0.0496,-0.1944 0.11028,-0.2447 0.0607,-0.05 0.13201,-0.1905 0.15857,-0.3114 0.0558,-0.2542 0.15037,-0.3438 0.43401,-0.4114 0.13539,-0.032 0.23064,-0.1261 0.28441,-0.2805 0.0988,-0.2835 0.27339,-0.3629 0.43731,-0.1989 0.0675,0.067 0.17656,0.1227 0.24241,0.1227 0.0964,0 0.11217,-0.067 0.0808,-0.3452 l -0.0389,-0.3453 0.68687,-0.6725 c 0.81588,-0.7989 0.97882,-0.8974 1.37894,-0.8334 0.25622,0.041 0.29649,0.028 0.29649,-0.098 0,-0.08 -0.0548,-0.1906 -0.1217,-0.2461 -0.10645,-0.088 -0.0699,-0.1272 0.2914,-0.3099 0.22721,-0.1149 0.58442,-0.3608 0.79382,-0.5464 0.57141,-0.5066 0.81451,-0.6562 1.23113,-0.7579 0.31895,-0.078 0.45573,-0.1759 0.86771,-0.6221 0.58575,-0.6344 0.96999,-0.8535 1.43469,-0.8179 0.30415,0.023 0.34598,0 0.5148,-0.2435 0.12358,-0.1808 0.23232,-0.2605 0.33207,-0.2432 0.23438,0.04 0.27171,0.12 0.17989,0.3834 -0.11072,0.3177 -0.0428,0.492 0.17933,0.4605 0.15306,-0.022 0.17583,-0.075 0.19598,-0.4581 0.0198,-0.3763 0.0413,-0.4288 0.1629,-0.3969 0.10344,0.027 0.15416,-0.019 0.19373,-0.177 0.0383,-0.1527 0.0716,-0.1846 0.11656,-0.1118 0.11591,0.1876 0.25046,0 0.19876,-0.2723 -0.0387,-0.2062 -0.0237,-0.2601 0.0723,-0.2601 0.0666,0 0.14101,0.052 0.16533,0.1153 0.0489,0.1274 0.33504,0.1603 0.33504,0.038 0,-0.042 0.0605,-0.078 0.13442,-0.079 0.0739,-0.001 0.20051,-0.053 0.28127,-0.1134 0.0808,-0.061 0.21904,-0.093 0.30726,-0.071 0.11898,0.03 0.24493,-0.05 0.48761,-0.3089 0.23668,-0.2523 0.38649,-0.3487 0.54154,-0.3487 0.25265,0 0.40432,0.1264 0.34309,0.286 -0.0308,0.08 -8e-4,0.1055 0.10201,0.086 0.0992,-0.019 0.17428,-0.1377 0.23547,-0.3727 0.0839,-0.3219 0.13559,-0.3538 0.10783,-0.066 -0.0281,0.2909 0.44342,0.2226 0.60984,-0.088 0.0447,-0.083 0.12327,-0.1507 0.17459,-0.1493 0.1843,0.01 0.43899,0.2921 0.43899,0.4949 0,0.2283 0.12342,0.5011 0.22674,0.5011 0.0372,0 0.13395,-0.1987 0.2149,-0.4417 0.16317,-0.4896 0.36483,-0.6217 0.44731,-0.2931 0.0272,0.1084 0.092,0.1971 0.14404,0.1971 0.10009,0 0.27286,-0.3167 0.27286,-0.5002 0,-0.06 0.067,-0.1448 0.14898,-0.1886 0.13376,-0.072 0.15141,-0.05 0.17283,0.2085 0.0202,0.2434 0.0537,0.2914 0.21589,0.3082 0.10562,0.012 0.24389,-0.014 0.30726,-0.055 0.0973,-0.063 0.0995,-0.1006 0.0139,-0.2386 -0.12326,-0.1988 -0.12796,-0.1946 0.26902,-0.2452 0.35993,-0.046 0.40843,0.01 0.40843,0.451 0,0.1647 0.0436,0.2817 0.11522,0.3092 0.0634,0.024 0.11521,0.089 0.11521,0.1427 0,0.054 0.0647,0.1784 0.14375,0.276 0.13096,0.1618 0.15451,0.1668 0.26504,0.056 0.1558,-0.1558 0.84198,-0.2667 0.88329,-0.1428 0.10776,0.3233 0.82741,0.5682 1.15477,0.393 0.13212,-0.071 0.14737,-0.1187 0.0875,-0.2762 -0.0474,-0.1248 -0.0457,-0.1907 0.005,-0.1907 0.13272,0 0.15884,0.1909 0.0764,0.5587 -0.10115,0.4513 -0.0423,0.6199 0.19545,0.5602 0.25332,-0.064 0.7,0.1105 1.13157,0.4408 0.20392,0.1562 0.41996,0.2839 0.4801,0.2839 0.0733,0 0.10934,0.087 0.10934,0.2633 0,0.2098 0.0573,0.3105 0.28259,0.4962 0.261,0.2151 0.2756,0.2482 0.19106,0.4338 -0.11588,0.2543 -0.0606,0.343 0.21409,0.343 0.13431,0 0.30923,0.085 0.45635,0.2228 0.19248,0.1799 0.23858,0.2843 0.23858,0.5405 0,0.2932 -0.0117,0.3112 -0.15286,0.2357 -0.12847,-0.069 -0.13812,-0.1054 -0.0605,-0.2296 0.12819,-0.2053 0.0204,-0.2795 -0.25498,-0.1756 -0.22287,0.084 -0.25007,0.07 -0.6884,-0.3617 -0.25099,-0.2472 -0.45636,-0.4696 -0.45636,-0.4944 0,-0.025 0.0691,-0.045 0.15363,-0.045 0.0845,0 0.15363,-0.034 0.15363,-0.077 0,-0.042 -0.0835,-0.077 -0.18567,-0.077 -0.25033,0 -0.75118,-0.2218 -1.43579,-0.6359 -0.81248,-0.4914 -1.43213,-0.7914 -1.93874,-0.9387 -0.39198,-0.114 -0.60569,-0.119 -1.91636,-0.045 -0.81135,0.046 -1.68258,0.1359 -1.93606,0.2004 -0.25349,0.064 -0.68558,0.11 -0.96019,0.1008 l -0.4993,-0.016 -2.41966,1.2005 c -1.33082,0.6603 -2.69076,1.3795 -3.0221,1.5984 -0.52444,0.3464 -0.62585,0.3872 -0.78326,0.3155 -0.16143,-0.074 -0.19819,-0.054 -0.34274,0.1796 -0.32422,0.5246 -1.29865,1.2657 -1.66756,1.2682 -0.0756,6e-4 -0.21572,0.1217 -0.31135,0.2694 -0.0956,0.1476 -0.41799,0.4669 -0.71637,0.7096 -0.29838,0.2426 -0.58841,0.5498 -0.64452,0.6825 -0.081,0.1916 -0.19435,0.2759 -0.55014,0.409 -0.56139,0.2101 -0.64203,0.2776 -0.64203,0.5378 0,0.2426 -0.13491,0.3784 -0.61452,0.6186 -0.47176,0.2363 -0.6552,0.3895 -0.98225,0.8204 -0.15392,0.2027 -0.62277,0.7814 -1.0419,1.286 -0.99387,1.1965 -1.29751,1.6702 -1.23364,1.9247 0.0381,0.1516 -0.0205,0.2855 -0.26844,0.6139 -0.52055,0.6895 -0.61196,1.1692 -0.29337,1.5396 0.14652,0.1703 0.27993,0.2181 0.82576,0.2958 0.57842,0.082 0.65373,0.1116 0.67554,0.262 0.0281,0.1938 0.0446,0.1994 0.25426,0.087 0.11098,-0.059 0.18311,-0.057 0.26044,0.01 0.0605,0.05 0.15014,0.062 0.20633,0.026 0.0547,-0.034 0.27554,-0.063 0.49085,-0.064 0.37061,-0.001 0.41767,-0.026 0.88337,-0.4575 0.47986,-0.4447 0.81496,-0.6294 2.79635,-1.5412 1.07064,-0.4927 6.44908,-3.5484 8.38337,-4.7628 0.36995,-0.2323 0.74545,-0.4224 0.83445,-0.4224 0.32298,0 0.93732,-0.394 1.66748,-1.0695 0.79161,-0.7324 1.08627,-0.9276 1.39978,-0.9276 0.14974,0 0.20492,-0.048 0.24023,-0.2113 0.074,-0.3408 0.20453,-0.5569 0.33648,-0.5569 0.17477,0 1.13506,0.2677 2.07868,0.5795 l 0.80656,0.2665 0.40774,1.1992 c 0.78744,2.316 1.2183,3.1479 2.08874,4.0327 0.31686,0.3221 0.71099,0.7817 0.87585,1.0212 0.6314,0.9174 1.42731,1.4451 2.35037,1.5582 0.4415,0.054 0.5022,0.082 0.52442,0.2385 0.0375,0.2648 0.266,0.1781 0.3685,-0.1398 0.0623,-0.1932 0.14802,-0.2861 0.30726,-0.3331 0.12149,-0.036 0.38508,-0.1279 0.58576,-0.2046 0.3728,-0.1425 0.42905,-0.1089 0.28094,0.1678 -0.11469,0.2144 0.0128,0.3375 0.22931,0.2216 0.11586,-0.062 0.16188,-0.1608 0.16188,-0.3476 0,-0.1886 0.0403,-0.2738 0.14533,-0.3071 0.0799,-0.025 0.16086,-0.1054 0.17983,-0.178 0.0214,-0.082 0.17758,-0.1701 0.41157,-0.2324 0.48546,-0.1295 1.17722,-0.5199 1.75975,-0.9932 0.25349,-0.206 0.73742,-0.5979 1.07539,-0.871 0.33799,-0.2731 0.80548,-0.5807 1.03886,-0.6835 0.35106,-0.1546 0.49031,-0.2788 0.80655,-0.7191 0.48302,-0.6726 0.90365,-1.0348 1.33629,-1.1507 0.27199,-0.073 0.41477,-0.1826 0.71762,-0.5518 0.6351,-0.7742 4.44518,-4.4799 4.48892,-4.3659 0.0791,0.206 0.22048,0.094 0.35322,-0.2798 0.16672,-0.4694 0.79537,-1.166 1.38778,-1.5379 0.34946,-0.2193 0.44438,-0.3253 0.51533,-0.5754 0.11177,-0.3939 0.27498,-0.6195 1.04284,-1.4417 0.75282,-0.8061 0.94863,-1.1713 0.94863,-1.7693 0,-0.3771 0.0251,-0.4513 0.18878,-0.5585 0.18798,-0.1232 0.18814,-0.1243 0.0384,-0.2851 -0.20834,-0.2237 -0.18816,-0.5224 0.0701,-1.0372 0.12123,-0.2418 0.24568,-0.5209 0.27656,-0.6203 0.0712,-0.2292 0.46523,-0.6018 0.78966,-0.7468 0.26451,-0.1182 0.2877,-0.1608 0.17974,-0.3313 -0.049,-0.077 0.0254,-0.1776 0.27069,-0.3649 0.38847,-0.2965 0.49273,-0.3215 0.43599,-0.1046 -0.0531,0.2029 0.009,0.194 0.54548,-0.078 0.51209,-0.2597 0.51298,-0.2598 1.16687,-0.1459 0.4254,0.074 0.48551,0.1066 0.53058,0.288 0.0278,0.1126 0.13799,0.4229 0.24438,0.6897 0.18825,0.4719 0.18971,0.4895 0.0527,0.6408 -0.0775,0.086 -0.22765,0.3166 -0.33377,0.5134 -0.13143,0.2438 -0.25018,0.3659 -0.37253,0.3833 -0.14866,0.021 -0.17144,0.058 -0.1323,0.214 0.0266,0.1059 -0.0128,0.3568 -0.0888,0.5719 -0.12432,0.3501 -0.15335,0.3795 -0.3354,0.3395 -0.17006,-0.037 -0.23089,0 -0.41505,0.2823 -0.13556,0.2047 -0.18299,0.337 -0.12773,0.3554 0.22362,0.075 -0.11409,0.6311 -0.38287,0.6311 -0.0839,0 -0.13314,0.032 -0.10925,0.07 0.0238,0.038 -0.006,0.1681 -0.0657,0.2881 -0.06,0.1199 -0.14998,0.4004 -0.20003,0.6234 -0.11447,0.51 -0.0713,0.5674 0.60226,0.8001 0.45278,0.1565 0.6473,0.1761 1.66491,0.1685 0.97942,-0.01 1.37683,-0.051 2.65011,-0.2903 1.34939,-0.2537 3.05778,-0.4838 3.10304,-0.4179 0.0103,0.014 0.32345,0.6547 0.69723,1.4236 l 0.67965,1.3982 -0.28488,0.3153 c -0.15669,0.1734 -0.67674,0.9106 -1.15568,1.6381 -0.61273,0.9309 -1.02144,1.4638 -1.37927,1.7985 -0.44574,0.417 -0.51909,0.5258 -0.5943,0.8813 -0.0472,0.2231 -0.19004,0.6303 -0.31741,0.9049 -0.12747,0.2746 -0.31009,0.7067 -0.40603,0.9602 -0.10953,0.2895 -0.21408,0.4539 -0.28115,0.4419 -0.13358,-0.024 -0.13983,0.3455 -0.007,0.4274 0.0916,0.057 -0.0547,0.5417 -0.61799,2.0497 -0.23095,0.6183 -0.26918,1.347 -0.0927,1.7692 0.0612,0.1465 0.12176,0.2666 0.13442,0.2669 0.0219,4e-4 0.33715,0.1131 1.94349,0.6942 0.76809,0.2779 1.90315,0.3907 2.43887,0.2424 0.33889,-0.094 0.3611,-0.036 0.13043,0.3367 -0.0996,0.1611 -0.31882,0.3342 -0.59533,0.47 -0.40475,0.1988 -0.50414,0.2146 -1.32106,0.2102 -1.39258,-0.01 -2.35841,-0.1342 -2.82561,-0.3709 -0.5078,-0.2574 -0.79346,-0.6695 -0.84562,-1.2201 -0.023,-0.2431 -0.10937,-0.507 -0.21898,-0.6689 -0.18738,-0.277 -0.23802,-0.5391 -0.10414,-0.5391 0.16327,0 0.0668,-0.2871 -0.12602,-0.375 -0.19854,-0.09 -0.20173,-0.1034 -0.15328,-0.6247 0.20709,-2.2283 1.32508,-5.6682 1.86732,-5.7454 0.21706,-0.031 0.32288,-0.2012 0.74006,-1.1912 0.50002,-1.1866 0.67503,-1.4487 1.2485,-1.8698 0.40513,-0.2974 0.49885,-0.4045 0.47289,-0.5404 -0.0185,-0.097 0.0113,-0.1865 0.0713,-0.2092 0.057,-0.022 0.17973,-0.1964 0.27276,-0.3879 0.093,-0.1915 0.19684,-0.3482 0.23066,-0.3482 0.0339,0 0.0614,-0.056 0.0614,-0.125 0,-0.13 -0.17011,-0.1276 -1.05792,0.016 -0.25817,0.042 -0.36025,0.024 -0.47846,-0.083 -0.14514,-0.1313 -0.16079,-0.1265 -0.45937,0.1432 -0.25721,0.2324 -0.36613,0.2793 -0.64847,0.2793 -0.31429,0 -0.34307,-0.017 -0.38977,-0.2296 -0.0277,-0.1263 -0.0843,-0.2505 -0.12573,-0.276 -0.14769,-0.091 -0.4685,0.056 -0.73388,0.336 -0.17192,0.1816 -0.28309,0.25 -0.30683,0.1888 -0.0579,-0.1494 -0.1741,-0.1154 -0.45862,0.1344 -0.14436,0.1268 -0.32757,0.2305 -0.40714,0.2305 -0.0796,0 -0.1998,0.021 -0.26719,0.047 -0.0883,0.034 -0.14585,-0.02 -0.20583,-0.1921 -0.0683,-0.1956 -0.12503,-0.239 -0.31315,-0.239 -0.14096,0 -0.28044,0.062 -0.36087,0.1618 -0.12204,0.1508 -0.17668,0.1581 -0.79967,0.1062 -0.57089,-0.047 -0.6686,-0.076 -0.6686,-0.1934 0,-0.087 -0.12585,-0.1986 -0.3414,-0.303 -0.44256,-0.2142 -0.73402,-0.446 -0.73402,-0.5837 0,-0.1163 -0.13655,-0.1408 -0.34306,-0.062 -0.069,0.026 -0.26673,0.2597 -0.43974,0.5185 -0.48656,0.7277 -0.58632,0.8161 -0.9205,0.8161 -0.30819,0 -0.40758,0.1592 -0.17921,0.287 0.09,0.05 -0.009,0.1858 -0.45973,0.6291 -0.31591,0.3108 -0.63539,0.6953 -0.70997,0.8546 -0.11888,0.2538 -0.16165,0.2845 -0.34684,0.2484 -0.17273,-0.034 -0.21125,-0.014 -0.21125,0.1099 0,0.1067 -0.0855,0.1792 -0.29177,0.2473 -0.24839,0.082 -0.31094,0.1502 -0.42064,0.4591 -0.15267,0.4298 -0.51405,0.9499 -0.78212,1.1255 -0.10544,0.069 -0.32217,0.1309 -0.4816,0.1373 -0.27278,0.012 -0.29136,0.027 -0.31457,0.2804 -0.0135,0.1479 -0.0534,0.2982 -0.0883,0.3341 -0.11376,0.1167 -0.38627,-0.027 -0.38738,-0.2048 -0.002,-0.353 -0.0901,-0.5222 -0.25862,-0.4982 -0.12394,0.018 -0.16331,0.078 -0.16491,0.2537 -0.004,0.5032 -0.13181,1.037 -0.2472,1.037 -0.0828,0 -0.0999,0.048 -0.0621,0.1728 0.0867,0.2864 0.0851,0.3852 -0.006,0.4176 -0.0477,0.017 -0.10891,-0.057 -0.13588,-0.1646 -0.0673,-0.2682 -0.19975,-0.2463 -0.19975,0.033 0,0.1753 -0.0527,0.2557 -0.22661,0.3457 -0.12464,0.064 -0.29858,0.1172 -0.3865,0.1172 -0.088,0 -0.17211,0.043 -0.18707,0.096 -0.015,0.053 -0.0661,0.2395 -0.11366,0.415 -0.0475,0.1754 -0.14904,0.3963 -0.22557,0.4908 -0.13451,0.1661 -0.14581,0.1674 -0.34143,0.039 -0.24925,-0.1633 -0.37923,-0.097 -0.31452,0.1612 0.0449,0.1786 0.0365,0.1865 -0.10475,0.098 -0.20072,-0.1254 -0.40431,-0.042 -0.40431,0.1646 0,0.1231 0.0337,0.1525 0.13442,0.1173 0.0802,-0.028 0.0474,0.031 -0.0811,0.1454 -0.12551,0.1121 -0.30907,0.1924 -0.43949,0.1924 -0.18826,0 -0.23422,-0.04 -0.28831,-0.2496 -0.0462,-0.179 -0.11521,-0.257 -0.24402,-0.2757 -0.17078,-0.025 -0.17726,-0.01 -0.13092,0.3073 0.0268,0.1833 0.0716,0.4149 0.0994,0.5148 0.046,0.1648 0.0359,0.1737 -0.10916,0.096 -0.38238,-0.2046 -0.59987,-0.047 -0.36438,0.2647 0.0621,0.082 0.11387,0.2136 0.11521,0.2923 0.002,0.1348 -0.009,0.1359 -0.18689,0.019 -0.1981,-0.1298 -0.40584,-0.1561 -0.61094,-0.077 -0.20027,0.077 -0.13768,0.263 0.11845,0.3523 0.19849,0.069 0.2184,0.096 0.11522,0.1535 -0.0686,0.038 -0.12474,0.1122 -0.12474,0.164 0,0.064 -0.1006,0.085 -0.31219,0.064 -0.21128,-0.02 -0.30019,-0.061 -0.27507,-0.1266 0.023,-0.06 -0.14253,-0.1789 -0.43674,-0.3132 -0.26064,-0.119 -0.50131,-0.2305 -0.53484,-0.2478 -0.0336,-0.017 -0.0389,0.056 -0.012,0.164 0.03,0.1194 -0.004,0.317 -0.0883,0.5068 -0.11884,0.2694 -0.17006,0.3113 -0.38058,0.3113 -0.17454,0 -0.34219,0.087 -0.5936,0.3084 -0.31628,0.2784 -0.36926,0.2998 -0.54461,0.2199 -0.17462,-0.079 -0.21477,-0.064 -0.39754,0.1531 -0.1881,0.2236 -1.56979,0.9871 -1.57244,0.8689 -0.003,-0.1508 -0.14723,-0.2682 -0.24262,-0.1979 -0.19102,0.1407 -0.7082,0.2853 -0.73482,0.2054 -0.0141,-0.042 -0.073,-0.1415 -0.13104,-0.2208 -0.10321,-0.1412 -0.10903,-0.1412 -0.26608,0.001 -0.0883,0.08 -0.16057,0.2204 -0.16057,0.3121 0,0.1491 -0.0633,0.1765 -0.59531,0.2575 -1.16842,0.1778 -1.97189,0.093 -2.84375,-0.2997 -0.71113,-0.3204 -0.94838,-0.5083 -0.89762,-0.7107 0.0362,-0.1441 -0.0111,-0.1863 -0.33955,-0.3029 -0.72489,-0.2574 -1.3749,-1.1106 -1.6507,-2.1667 -0.0864,-0.3309 -0.19915,-0.5324 -0.42863,-0.7662 -0.23416,-0.2386 -0.3114,-0.3788 -0.3114,-0.5653 0,-0.2076 -0.0436,-0.2688 -0.26769,-0.3757 -0.32616,-0.1555 -0.58143,-0.5279 -0.88395,-1.2894 -0.24192,-0.609 -0.53238,-1.1128 -0.64252,-1.1144 -0.094,-0.001 -1.37691,0.9021 -2.24861,1.5836 -0.40765,0.3186 -0.72016,0.5246 -0.69447,0.4576 0.0832,-0.2167 -0.094,-0.132 -0.93125,0.4453 -1.26153,0.8698 -2.42205,1.5657 -3.41196,2.046 -0.67106,0.3256 -1.02491,0.5537 -1.39251,0.8975 -0.55054,0.515 -1.04866,0.7911 -1.4274,0.7911 -0.19317,0 -0.24238,0.027 -0.2086,0.1151 0.0301,0.079 -0.004,0.1152 -0.107,0.1152 -0.10877,0 -0.15122,0.052 -0.15122,0.1859 0,0.1476 -0.0514,0.197 -0.24965,0.2393 -0.13731,0.029 -0.29285,0.088 -0.34567,0.1308 -0.11466,0.092 -0.29689,-0.034 -0.36707,-0.2557 -0.1099,-0.3463 -0.51279,-0.076 -0.73815,0.4947 -0.0968,0.2452 -0.1617,0.3135 -0.28109,0.296 -0.11257,-0.017 -0.20232,0.061 -0.32638,0.2816 -0.0941,0.1675 -0.28672,0.3667 -0.42799,0.4428 -0.25003,0.1347 -0.25984,0.1343 -0.3692,-0.013 -0.1042,-0.1401 -0.12794,-0.1426 -0.32792,-0.034 -0.1252,0.068 -0.24594,0.2192 -0.28799,0.361 -0.072,0.2427 -0.26432,0.3596 -1.15663,0.7028 -0.5971,0.2297 -3.38282,0.9859 -3.40545,0.9245 -0.0141,-0.038 -0.18061,-0.07 -0.37005,-0.07 -0.31536,0 -0.3401,-0.014 -0.29305,-0.162 0.0494,-0.1556 0.0356,-0.1595 -0.3597,-0.1008 -0.72805,0.1082 -0.93875,0.042 -0.85746,-0.2687 0.0286,-0.1094 -0.0261,-0.1302 -0.34168,-0.1302 -0.26095,0 -0.44638,-0.05 -0.60686,-0.1646 -0.38077,-0.2711 -1.04169,-1.6455 -0.8726,-1.8146 0.0431,-0.043 0.0783,-0.1899 0.0783,-0.3263 0,-0.1364 0.0558,-0.3038 0.12408,-0.3721 0.11422,-0.1142 0.11422,-0.135 0,-0.2612 -0.0683,-0.075 -0.12408,-0.264 -0.12408,-0.4191 0,-0.1551 -0.0134,-0.282 -0.0297,-0.282 -0.0164,0 -0.31881,0.1529 -0.67213,0.3397 -1.21737,0.6437 -3.00397,1.1444 -4.45218,1.2477 -0.60929,0.043 -0.66338,0.035 -0.69918,-0.1013 -0.0317,-0.1212 -0.17618,-0.1727 -0.78986,-0.2815 -1.54462,-0.2736 -2.42205,-0.8342 -2.93735,-1.8766 l -0.2904,-0.587 v -1.0411 c 0,-0.9211 0.0383,-1.2317 0.33152,-2.6927 0.18233,-0.9083 0.38369,-1.927 0.44746,-2.2638 0.0638,-0.3367 0.19877,-0.7873 0.29999,-1.0013 0.16795,-0.355 0.18028,-0.456 0.14098,-1.1545 -0.0435,-0.7736 -0.005,-1.055 0.39713,-2.8778 0.17758,-0.8056 0.17111,-1.8549 -0.0145,-2.3399 -0.12206,-0.3191 -0.18485,-0.3892 -0.38531,-0.4302 -0.45719,-0.093 -1.1769,0.07 -2.0297,0.4616 -0.45358,0.2081 -0.95757,0.4032 -1.11998,0.4334 -0.32807,0.061 -0.26565,0.01 -2.60764,2.1552 -1.52835,1.4004 -2.15824,2.0469 -2.83283,2.9077 -0.41802,0.5335 -0.44032,0.557 -0.3818,0.4033 0.28107,-0.7383 -1.52159,1.6129 -3.25397,4.244 -0.94124,1.4296 -1.92815,2.8026 -2.81923,3.9223 -0.58729,0.7379 -0.71581,0.9482 -0.76019,1.2442 -0.0376,0.2506 -0.0837,0.3446 -0.15539,0.3171 -0.0676,-0.026 -0.24829,0.2373 -0.53615,0.7812 -0.54292,1.0258 -0.78868,1.3842 -1.20992,1.7645 -0.24926,0.225 -0.35761,0.3964 -0.43101,0.6818 -0.13673,0.5316 -0.6955,1.6049 -1.41463,2.717102 -1.09632,1.6956 -1.60355,2.8644 -1.75002,4.0325 -0.0426,0.3399 -0.0867,0.6272 -0.098,0.6384 -0.0112,0.012 -0.0893,-0.015 -0.17346,-0.06 z m 126.28309,-5.688402 c -0.0838,-0.1907 -0.24987,-0.206 -0.61349,-0.056 -0.19005,0.078 -0.33523,0.071 -0.82832,-0.038 -0.63698,-0.1417 -0.62208,-0.1236 -0.45878,-0.5581 0.0241,-0.064 -0.0429,-0.096 -0.19973,-0.096 -0.17596,0 -0.31325,-0.081 -0.54091,-0.3176 -0.21737,-0.2262 -0.34901,-0.306 -0.45775,-0.2776 -0.2598,0.068 -0.80554,-0.6172 -0.73033,-0.9168 0.0316,-0.1256 0.0115,-0.178 -0.0682,-0.178 -0.0778,0 -0.10186,-0.057 -0.0774,-0.1852 0.0259,-0.1354 -0.0152,-0.2184 -0.15245,-0.3083 -0.26776,-0.1755 -0.36893,-0.4433 -0.48088,-1.2732 -0.0543,-0.4013 -0.12146,-0.8183 -0.14969,-0.9265 -0.0421,-0.1619 -0.0164,-0.2127 0.14549,-0.2864 0.22502,-0.1025 0.25766,-0.3309 0.0695,-0.4868 -0.18369,-0.1524 -0.33397,-0.5549 -0.33237,-0.8903 0.001,-0.1598 0.0863,-0.6535 0.19064,-1.0971 0.20606,-0.878 0.24058,-1.3059 0.10537,-1.3059 -0.0477,0 -0.37968,0.2506 -0.73786,0.5569 -0.35818,0.3064 -0.84633,0.7229 -1.08478,0.9257 -0.8204,0.6977 -1.82338,1.1995 -2.64334,1.3225 -0.19995,0.03 -0.36353,0.085 -0.36353,0.1224 0,0.037 -0.12804,0.2096 -0.28456,0.3828 -0.24702,0.2734 -0.31695,0.3098 -0.5299,0.2752 -0.23794,-0.038 -0.2468,-0.03 -0.29395,0.2844 -0.0461,0.3078 -0.0737,0.3367 -0.53871,0.566 -0.26957,0.1329 -1.156,0.6438 -1.96986,1.1352 -2.30627,1.3927 -3.52767,1.9613 -4.29494,1.9996 -0.19011,0.01 -0.69134,0.1239 -1.11382,0.2544 -2.43296,0.7509 -4.71953,0.8725 -6.73254,0.3581 -1.0353,-0.2645 -1.37142,-0.409 -1.37142,-0.5893 0,-0.1939 -0.23567,-0.2841 -0.33418,-0.128 -0.0664,0.1052 -0.1252,0.097 -0.50418,-0.068 -0.236,-0.1033 -0.4892,-0.2464 -0.5627,-0.318 -0.12687,-0.1237 -0.1252,-0.1473 0.0329,-0.4667 l 0.16646,-0.3364 -0.16631,-0.1347 c -0.0914,-0.074 -0.37421,-0.1588 -0.6283,-0.1883 -0.45344,-0.053 -0.61766,-0.1342 -0.46292,-0.2298 0.15437,-0.095 0.0722,-0.1761 -0.26635,-0.2613 -0.40944,-0.1031 -0.52046,-0.252 -0.69342,-0.9301 -0.1353,-0.5301 -0.30861,-0.7985 -0.47472,-0.7347 -0.11257,0.043 -0.71575,-1.0838 -0.66175,-1.2361 0.0174,-0.049 -0.0529,-0.2908 -0.15619,-0.5377 -0.19197,-0.4591 -0.31048,-0.9674 -0.40004,-1.7163 -0.0277,-0.2324 -0.11065,-0.72 -0.18413,-1.0837 -0.12887,-0.6382 -0.12868,-0.6644 0.009,-0.7496 0.0998,-0.062 0.14153,-0.1806 0.14153,-0.4022 0,-0.2492 0.0315,-0.322 0.15363,-0.354 0.18395,-0.048 0.18843,-0.092 0.0389,-0.3783 -0.0631,-0.1211 -0.11488,-0.2924 -0.11528,-0.381 -0.001,-0.17 0.2185,-0.4151 0.371,-0.4151 0.0654,0 0.0768,-0.1467 0.0412,-0.5305 -0.0642,-0.6905 0.10626,-1.0569 0.85979,-1.8478 0.46716,-0.4904 0.53851,-0.5997 0.46562,-0.7137 -0.0681,-0.1066 -0.0466,-0.2089 0.10241,-0.4901 0.18344,-0.3458 0.19152,-0.351 0.29718,-0.1918 0.0598,0.09 0.15629,0.1636 0.21447,0.1636 0.0991,0 0.11207,-0.069 0.13814,-0.7298 0.009,-0.2168 0.97441,-1.4294 1.34083,-1.6833 0.16804,-0.1164 0.44631,-0.2306 0.6184,-0.2537 0.26323,-0.035 0.31288,-0.07 0.31288,-0.2189 0,-0.3203 0.13356,-0.5373 0.46625,-0.7575 0.31038,-0.2054 0.33353,-0.2096 0.42898,-0.079 0.0965,0.1319 0.10756,0.132 0.25044,0 0.0822,-0.074 0.2643,-0.1926 0.40452,-0.2626 0.18177,-0.091 0.25494,-0.1799 0.25494,-0.3104 0,-0.2615 0.49703,-0.6491 0.82072,-0.6399 0.19408,0 0.32993,-0.069 0.61798,-0.3383 0.61224,-0.5727 1.2208,-0.7748 1.57853,-0.5242 0.21753,0.1524 0.32422,0.086 0.32422,-0.2027 0,-0.2618 -0.016,-0.2533 1.15223,-0.6114 0.44359,-0.136 1.04851,-0.2743 1.34424,-0.3074 l 0.53771,-0.06 0.20493,0.2429 c 0.16693,0.1979 0.22351,0.2247 0.30534,0.145 0.078,-0.076 0.0804,-0.13 0.0103,-0.2418 -0.12107,-0.194 0.0605,-0.24 0.56172,-0.1422 0.20729,0.04 0.61891,0.09 0.91464,0.1102 1.36904,0.093 1.43927,0.1077 1.76363,0.3669 0.17072,0.1364 0.67331,0.4475 1.11692,0.6915 1.00354,0.5518 1.39034,0.8407 1.65155,1.2336 0.17532,0.2636 0.19877,0.3645 0.16529,0.7105 -0.0386,0.4001 -0.0372,0.4033 0.17678,0.4033 0.15484,0 0.27167,0.073 0.41362,0.2594 0.10884,0.1426 0.17627,0.2809 0.14993,0.3072 -0.0263,0.026 -0.25038,0.048 -0.49787,0.048 -0.41235,0 -0.45627,0.016 -0.52492,0.1971 -0.0411,0.1084 -0.0749,0.212 -0.0749,0.2304 0,0.018 0.15393,0.033 0.34206,0.033 0.41603,0 0.75519,0.1396 0.69845,0.2874 -0.0556,0.1449 0.12558,0.4723 0.4121,0.7448 0.17734,0.1686 0.2373,0.2938 0.2373,0.4954 0,0.2099 -0.0204,0.2494 -0.0922,0.1777 -0.13272,-0.1327 -0.3687,-0.1135 -0.3687,0.03 0,0.067 0.0778,0.1882 0.17282,0.269 0.12944,0.1101 0.13856,0.135 0.0359,0.099 -0.12121,-0.042 -0.13115,-0.013 -0.0873,0.2621 0.0432,0.2698 0.0129,0.3702 -0.23859,0.7767 -0.25153,0.4074 -0.28246,0.5085 -0.24323,0.7946 0.0637,0.4642 -0.16917,0.9793 -0.44261,0.9793 -0.10767,0 -0.19578,-0.034 -0.19578,-0.077 0,-0.042 -0.0519,-0.077 -0.11515,-0.077 -0.13386,0 -0.15231,0.2481 -0.0349,0.4675 0.11863,0.2217 0.009,0.3321 -0.14421,0.144 -0.17846,-0.2204 -0.3684,-0.1265 -0.42285,0.2093 -0.0624,0.384 -0.24802,0.5625 -0.58142,0.5589 -0.22595,0 -0.30427,-0.048 -0.43098,-0.2496 -0.0851,-0.1357 -0.23205,-0.2578 -0.32646,-0.2713 -0.0944,-0.013 -0.17162,-0.01 -0.17162,0.01 0,0.018 0.0338,0.2109 0.0748,0.428 0.049,0.2585 0.0487,0.4637 -0.001,0.5947 -0.0732,0.1923 -0.0832,0.1952 -0.26419,0.077 -0.10343,-0.068 -0.26126,-0.1234 -0.35063,-0.1234 -0.16451,0 -0.16932,0.1154 -0.0261,0.6272 0.0554,0.1978 -0.0877,0.2317 -0.24485,0.058 -0.11618,-0.1284 -0.12494,-0.1824 -0.0487,-0.3044 0.14849,-0.2377 0.11012,-0.304 -0.17624,-0.304 -0.24606,0 -0.26884,0.019 -0.26884,0.225 0,0.1237 -0.058,0.283 -0.12918,0.354 -0.12094,0.121 -0.12094,0.1337 0,0.2014 0.2027,0.1133 0.14853,0.245 -0.16145,0.3922 l -0.28555,0.1356 -0.27628,-0.3212 c -0.19691,-0.2289 -0.31392,-0.3067 -0.40726,-0.2709 -0.0777,0.03 -0.1118,0.019 -0.0841,-0.026 0.0258,-0.042 -0.009,-0.076 -0.0747,-0.076 -0.0668,0 -0.15452,-0.086 -0.19468,-0.1921 -0.0866,-0.2278 -0.38406,-0.2695 -0.38406,-0.054 0,0.076 0.0415,0.1798 0.0922,0.2305 0.0718,0.072 0.0614,0.092 -0.0465,0.092 -0.0762,0 -0.2427,0.087 -0.3698,0.1944 -0.17118,0.1441 -0.27359,0.1789 -0.39516,0.1344 -0.28318,-0.1035 -0.88918,-0.039 -1.16483,0.1232 l -0.26251,0.1549 -0.13385,-0.2267 c -0.15409,-0.2608 -0.22757,-0.2735 -0.58814,-0.1015 -0.21937,0.1046 -0.40792,0.1159 -1.15526,0.069 -0.84628,-0.053 -0.89547,-0.065 -0.93747,-0.2325 -0.0283,-0.1119 -0.1194,-0.1922 -0.2492,-0.2192 -0.73398,-0.1526 -0.74196,-0.1567 -0.75878,-0.3891 -0.0254,-0.349 -0.24825,-0.4486 -0.45737,-0.2044 -0.12365,0.1443 -0.13329,0.1421 -0.42967,-0.096 -0.2865,-0.2302 -0.51782,-0.5604 -0.51782,-0.7391 0,-0.044 0.10614,-0.081 0.23593,-0.081 0.21447,0 0.22496,0.012 0.11516,0.1208 -0.2676,0.2676 -0.0586,0.5297 0.21639,0.2714 0.20154,-0.1893 0.33851,-0.2025 0.55172,-0.053 0.0852,0.06 0.35507,0.1667 0.59978,0.2378 l 0.44493,0.1293 -0.16021,0.1493 c -0.16193,0.1509 -0.21093,0.2969 -0.0996,0.2969 0.0334,0 0.1975,-0.071 0.36487,-0.1572 0.27731,-0.1433 0.37919,-0.1519 1.14925,-0.097 1.51175,0.1081 1.93831,0.035 4.15407,-0.7122 0.67928,-0.229 1.32591,-0.4165 1.43694,-0.4165 0.15423,0 0.36866,-0.1724 0.90916,-0.7311 0.52397,-0.5416 0.83423,-0.7936 1.19677,-0.9721 0.31664,-0.1559 0.48533,-0.2842 0.47779,-0.3635 -0.0433,-0.4549 0.0202,-0.7093 0.23896,-0.9585 l 0.23292,-0.2653 -0.0837,-0.5241 c -0.17564,-1.0994 -0.64238,-1.9347 -1.71417,-3.0677 l -0.75594,-0.7991 h -0.58834 c -0.32358,9e-4 -0.93399,-0.056 -1.35644,-0.1257 l -0.76817,-0.1273 -0.88336,0.2767 c -1.04328,0.3268 -1.79636,0.5098 -2.10426,0.5114 -0.15769,8e-4 -0.2917,0.08 -0.46089,0.2733 -0.21501,0.2453 -0.30579,0.2844 -0.91814,0.3954 -1.03297,0.1871 -1.48799,0.5213 -3.62824,2.6649 -0.97507,0.9766 -1.92985,1.9703 -2.12171,2.2082 -0.64856,0.8042 -1.16589,2.1967 -1.26033,3.3924 -0.0336,0.4247 -0.0925,0.6804 -0.18074,0.784 -0.11786,0.1382 -0.38704,0.7677 -0.38704,0.9051 0,0.03 0.0498,0.055 0.11065,0.055 0.17678,0 0.20441,0.1211 0.0814,0.3569 -0.0629,0.1205 -0.11426,0.2711 -0.11413,0.3345 0.001,0.1934 0.37601,0.9356 0.63973,1.2643 0.13698,0.1706 0.3619,0.6028 0.49983,0.9603 0.39675,1.0284 0.88805,1.7813 1.62443,2.4894 1.64413,1.581 3.92609,2.0722 6.77151,1.4577 0.32173,-0.07 0.91996,-0.1214 1.39124,-0.1208 l 0.82682,0.001 0.82471,-0.4597 c 1.05179,-0.5864 1.64823,-0.8377 2.12999,-0.8975 0.34692,-0.043 0.39593,-0.074 0.51431,-0.3256 0.11773,-0.2502 0.21181,-0.3105 0.94053,-0.6034 0.91124,-0.3662 2.53422,-1.2495 4.19162,-2.2813 1.18545,-0.738 2.71681,-1.6314 3.72549,-2.1735 1.10532,-0.594 1.91091,-1.1609 2.46518,-1.7348 0.41654,-0.4313 0.58151,-0.5545 0.70079,-0.5233 0.12223,0.032 0.17412,-0.012 0.23945,-0.1987 0.23752,-0.6813 1.09591,-1.5608 1.62707,-1.6671 0.13341,-0.027 0.26057,-0.104 0.28262,-0.172 0.23933,-0.7375 0.70366,-1.317 1.59692,-1.9932 0.47552,-0.36 0.53751,-0.3867 0.65345,-0.2818 0.20526,0.1858 0.29571,0.1376 0.39504,-0.2105 0.11683,-0.4092 0.27143,-0.5953 0.49463,-0.5953 0.21144,0 0.26048,0.1185 0.17469,0.4219 -0.10871,0.3845 -0.087,0.423 0.23775,0.423 0.32115,0 0.46199,-0.1109 0.32047,-0.2525 -0.0472,-0.047 -0.0856,-0.1958 -0.0856,-0.3306 0,-0.1972 0.0374,-0.2546 0.19127,-0.2932 0.14797,-0.037 0.21054,-0.1245 0.2766,-0.387 0.0601,-0.2388 0.11709,-0.3268 0.19281,-0.2978 0.0776,0.03 0.10743,-0.024 0.10743,-0.193 0,-0.1558 0.0578,-0.2751 0.17283,-0.356 0.16582,-0.1167 0.17442,-0.1129 0.21182,0.091 0.022,0.1201 0.0972,0.2236 0.17284,0.2382 0.13783,0.026 0.15936,-0.033 0.13726,-0.3783 -0.0115,-0.1843 0.0164,-0.204 0.3434,-0.2409 0.4181,-0.047 1.49669,-0.5571 1.49669,-0.7076 0,-0.069 -0.0576,-0.09 -0.17283,-0.061 -0.10602,0.026 -0.0115,-0.079 0.24281,-0.2725 l 0.41565,-0.3155 0.22396,0.1885 c 0.33326,0.2804 0.44169,0.247 0.44783,-0.138 0.004,-0.2912 0.0142,-0.3078 0.0887,-0.1536 0.0905,0.1879 0.28769,0.2207 0.53401,0.089 0.12055,-0.064 0.14675,-0.1339 0.11348,-0.3003 -0.0503,-0.2508 0.0394,-0.3071 0.48779,-0.3071 0.42484,0 0.53772,0.064 0.53772,0.3035 0,0.2293 0.2482,0.5102 0.37923,0.4292 0.045,-0.028 0.0818,-0.1435 0.0821,-0.2572 0.001,-0.3296 0.15259,-0.7874 0.27712,-0.8352 0.0629,-0.024 0.19259,0.03 0.28824,0.1196 0.0956,0.09 0.21568,0.1633 0.26682,0.1633 0.11657,0 0.24281,-0.3223 0.24281,-0.6195 0,-0.2747 0.0309,-0.2778 0.32198,-0.033 l 0.22894,0.1926 -0.24105,0.048 c -0.19003,0.038 -0.23612,0.082 -0.21785,0.2107 0.0164,0.1142 0.088,0.1698 0.24123,0.1874 0.26198,0.03 0.5369,-0.1892 0.48522,-0.3869 -0.0208,-0.08 0.005,-0.1374 0.0639,-0.1374 0.19303,0 0.20845,-0.2564 0.0241,-0.3984 l -0.17659,-0.1358 h 0.16845 c 0.0926,-0.001 0.29289,-0.075 0.44495,-0.1649 0.15211,-0.09 0.2877,-0.1502 0.30133,-0.1344 0.0142,0.016 0.11631,0.1756 0.22813,0.3552 0.11181,0.1795 0.25475,0.3264 0.3176,0.3264 0.0629,0 0.11425,0.052 0.11425,0.1152 0,0.063 0.0507,0.1151 0.11258,0.1151 0.0618,0 0.1495,0.069 0.19473,0.1537 0.11064,0.2069 0.46089,0.2103 0.46089,0 0,-0.082 -0.0365,-0.1717 -0.0812,-0.1993 -0.0448,-0.027 0.13086,-0.1503 0.38999,-0.2729 0.38477,-0.1819 0.50049,-0.207 0.6315,-0.137 0.23683,0.1268 1.07844,0.038 1.39187,-0.1471 l 0.26321,-0.1553 0.14153,0.2627 c 0.098,0.1819 0.17724,0.2474 0.25777,0.2129 0.20666,-0.089 1.35597,-0.1266 2.11294,-0.07 l 0.73705,0.055 0.0459,0.2291 c 0.0366,0.1831 0.0769,0.221 0.20041,0.1888 0.0849,-0.022 0.25125,0.01 0.36944,0.071 0.11823,0.061 0.30258,0.111 0.4098,0.111 0.16803,0 0.20172,0.042 0.24407,0.3073 0.0454,0.2839 0.0672,0.3068 0.28896,0.3018 0.13187,0 0.3089,-0.032 0.3933,-0.065 0.10821,-0.042 0.23994,0 0.44655,0.134 0.26076,0.1726 0.27771,0.2021 0.15378,0.2678 -0.0766,0.041 -0.20884,0.1366 -0.29388,0.2133 -0.15029,0.1356 -0.16922,0.132 -0.67754,-0.1238 -0.28763,-0.1447 -0.69868,-0.2864 -0.91345,-0.3149 l -0.39045,-0.052 0.28561,-0.1466 c 0.15708,-0.081 0.27204,-0.1877 0.25544,-0.2382 -0.0553,-0.1682 -0.37305,-0.1444 -0.65803,0.049 -0.25165,0.1711 -0.32303,0.1846 -0.66595,0.1259 -0.61415,-0.1049 -2.77221,-0.082 -3.61947,0.039 -1.01213,0.1439 -2.26238,0.4288 -3.19471,0.728 -0.5958,0.1911 -0.77418,0.2216 -0.88688,0.1512 -0.11915,-0.074 -0.27738,-0.001 -1.02027,0.4722 -0.99222,0.6323 -1.69135,0.9125 -2.28239,0.9149 -0.2218,9e-4 -0.40327,0.035 -0.40327,0.076 0,0.041 -0.10291,0.1914 -0.22884,0.3348 -0.15889,0.1809 -0.40566,0.3251 -0.80691,0.4715 -0.70407,0.2568 -1.25021,0.6077 -2.13209,1.3699 -0.83182,0.7189 -1.05918,0.882 -1.38004,0.9895 -0.15383,0.052 -0.55421,0.3925 -1.02118,0.8697 -0.87855,0.8978 -1.54242,1.4183 -1.90203,1.4915 -0.225,0.046 -0.29652,0.1396 -0.74808,0.9824 -0.68447,1.2775 -1.07799,1.8324 -1.28395,1.8107 -0.14804,-0.016 -0.18789,0.092 -0.47098,1.2674 -0.41322,1.7165 -0.50395,2.3062 -0.39779,2.5854 0.0459,0.1205 0.13655,0.702 0.20144,1.2922 0.065,0.5901 0.14905,1.1543 0.18686,1.2538 0.0907,0.2384 0.6106,0.609 1.05943,0.7551 0.53567,0.1744 1.27559,0.2746 2.03314,0.2752 0.5436,5e-4 0.71582,-0.028 0.88339,-0.1472 0.11451,-0.081 0.72662,-0.2925 1.36033,-0.4694 2.66018,-0.7428 4.16452,-1.4463 5.93277,-2.7745 0.29336,-0.2204 0.34552,-0.2351 0.53142,-0.1504 0.18715,0.085 0.2215,0.075 0.37239,-0.1145 0.13926,-0.1746 0.20573,-0.2006 0.40956,-0.1598 0.21804,0.044 0.24333,0.03 0.24333,-0.132 0,-0.2291 0.11503,-0.3192 0.49482,-0.3878 0.26279,-0.048 0.47606,-0.2296 1.61312,-1.3777 0.72066,-0.7276 2.08805,-2.01 3.03865,-2.8496 2.30257,-2.034 5.09566,-4.8415 5.23627,-5.2633 0.022,-0.066 0.18496,0.015 0.49012,0.2445 0.25146,0.1889 0.76828,0.5573 1.14852,0.8187 0.38022,0.2613 0.78782,0.555 0.90578,0.6525 l 0.21442,0.1773 -0.43105,0.7243 c -0.78488,1.3189 -1.53651,3.0355 -1.83393,4.1886 l -0.12096,0.4684 0.46476,0.6984 c 0.51109,0.7679 0.98285,1.2453 1.23075,1.2453 0.0962,0 0.17677,0.062 0.20079,0.1536 0.0341,0.1305 0.10536,0.1538 0.4729,0.155 0.238,8e-4 0.67469,0.054 0.97043,0.1189 1.44376,0.3155 1.83245,0.3569 2.95737,0.315 1.67469,-0.062 2.49765,-0.2828 6.05249,-1.6207 2.69074,-1.0127 3.27215,-1.2988 4.18308,-2.0581 l 0.36487,-0.3042 v 0.3459 c 0,0.286 -0.0514,0.4104 -0.29627,0.7177 -0.85497,1.0728 -1.98308,1.8756 -3.122,2.2216 -0.29499,0.09 -0.58018,0.2472 -0.79226,0.4379 -0.42255,0.3797 -1.28825,0.7915 -1.97527,0.9396 -0.29451,0.063 -0.93302,0.135 -1.41887,0.159 -0.63604,0.031 -0.95865,0.083 -1.15222,0.183 -0.39969,0.2074 -0.74614,0.2607 -1.0026,0.1545 -0.20558,-0.085 -0.24713,-0.073 -0.49691,0.1464 l -0.27257,0.2393 h -1.65288 c -1.87371,0 -2.51299,-0.097 -3.00966,-0.4567 -0.16401,-0.1188 -0.48575,-0.256 -0.71492,-0.3048 -0.83186,-0.1772 -1.52744,-0.8126 -2.02403,-1.8488 -0.28293,-0.5904 -0.33353,-0.8139 -0.19472,-0.8601 0.0527,-0.017 0.0367,-0.21 -0.0464,-0.5634 -0.0948,-0.4023 -0.11669,-0.7577 -0.0878,-1.42 0.0413,-0.9482 0.18757,-1.5389 0.59248,-2.3951 0.12404,-0.2623 0.20888,-0.4936 0.18851,-0.514 -0.0204,-0.02 -0.13714,0.059 -0.25951,0.176 -0.14688,0.1407 -0.271,0.1977 -0.36541,0.1678 -0.11632,-0.037 -0.16786,0.025 -0.27636,0.3301 -0.0883,0.2483 -0.2797,0.5219 -0.56498,0.8071 l -0.43158,0.4316 -0.18379,-0.1982 c -0.36183,-0.3905 -0.59123,-0.1915 -0.95628,0.8296 -0.13899,0.3887 -0.17497,0.4323 -0.301,0.3649 -0.21259,-0.1139 -0.23006,-0.1002 -0.23006,0.1809 0,0.4409 -0.27578,0.7456 -0.98678,1.0903 -0.63762,0.3091 -0.82993,0.4852 -0.75198,0.6883 0.0608,0.1582 -1.05875,1.1748 -2.1344,1.9384 -1.04035,0.7386 -1.39684,1.0143 -2.11839,1.6389 -0.27461,0.2377 -0.54426,0.4166 -0.59923,0.3975 -0.055,-0.019 -0.23433,0.058 -0.39853,0.1721 -0.2223,0.1541 -0.35372,0.1949 -0.51457,0.1601 -0.19271,-0.042 -0.23961,-0.01 -0.4353,0.3017 -0.26093,0.4147 -0.41955,0.5133 -0.72685,0.4519 -0.18569,-0.037 -0.23842,-0.016 -0.27881,0.1111 -0.0758,0.2391 -0.52087,0.5927 -0.93697,0.7446 -0.20514,0.075 -0.52849,0.2043 -0.71862,0.2876 -0.41201,0.1806 -0.82865,0.2874 -1.32505,0.3397 -0.32575,0.034 -0.36487,0.059 -0.36487,0.2269 0,0.1406 -0.0637,0.2146 -0.24964,0.2907 -0.52437,0.2144 -0.58189,0.2171 -0.60873,0.029 -0.0293,-0.2061 -0.29385,-0.2945 -0.29385,-0.098 0,0.2213 -0.45583,0.5664 -0.94984,0.719 -0.523,0.1615 -1.29671,0.2823 -2.23884,0.3495 -0.58512,0.042 -0.61915,0.035 -0.69148,-0.1292 z m -60.79786,-5.1276 c -0.14041,-0.091 -0.0191,-0.091 0.19204,0 0.10129,0.043 0.11438,0.067 0.0384,0.07 -0.0634,0 -0.16708,-0.029 -0.23045,-0.07 z m 1.4691,-0.8066 c 0.11092,-0.1267 0.22052,-0.2823 0.24359,-0.3456 0.0361,-0.099 0.0428,-0.099 0.048,0 0.003,0.066 -0.10629,0.2215 -0.24359,0.3456 l -0.24965,0.2256 0.20166,-0.2304 z m 39.60759,-4.393 c -0.0739,-0.019 -0.13442,-0.064 -0.13442,-0.099 0,-0.079 0.294,-0.01 0.35139,0.084 0.0437,0.071 0.008,0.073 -0.21697,0.015 z m 1.81657,-0.1967 c -0.0304,-0.053 -0.0289,-0.072 0.003,-0.043 0.0324,0.029 0.15013,0.02 0.26197,-0.02 0.19133,-0.068 0.19453,-0.065 0.0543,0.043 -0.18144,0.1409 -0.24753,0.1448 -0.31956,0.02 z m 0.58482,-0.2898 c 0.0953,-0.178 0.1527,-0.1949 0.1527,-0.045 0,0.059 -0.0527,0.1272 -0.11696,0.1519 -0.0954,0.037 -0.10206,0.017 -0.0357,-0.107 z m -126.35515,-3.1156 c 0.004,-0.09 0.0219,-0.1077 0.0464,-0.046 0.0222,0.055 0.0195,0.1217 -0.006,0.1472 -0.0255,0.026 -0.0437,-0.02 -0.0403,-0.1008 z m 0.10651,-0.7404 c 0.0192,-0.284 0.089,-0.621 0.15515,-0.7489 0.15018,-0.2905 0.21739,-0.304 0.10633,-0.021 -0.0457,0.1161 -0.13102,0.4532 -0.18969,0.7489 l -0.10665,0.5377 z m 1.57977,-4.0349 c 0.003,-0.069 0.3573,-0.4801 0.41378,-0.4801 0.0217,0 -0.0319,0.121 -0.11913,0.2688 -0.14394,0.244 -0.30077,0.3564 -0.29466,0.2113 z m 164.45799,-0.5751 c -0.19158,-0.085 -0.19162,-0.085 -0.0191,-0.1157 0.0972,-0.017 0.17391,-0.087 0.17528,-0.1595 0.003,-0.1122 0.0173,-0.1095 0.11514,0.02 0.23401,0.3094 0.11104,0.425 -0.27129,0.2552 z m -96.36985,-0.8358 c -0.0501,-0.082 0.64569,-0.1445 0.8295,-0.075 0.13498,0.051 0.0637,0.072 -0.31278,0.094 -0.26817,0.015 -0.5007,0.01 -0.51672,-0.019 z m 80.20755,-0.5939 c -0.0199,-0.032 0.0676,-0.098 0.19437,-0.1453 0.16351,-0.062 0.22236,-0.063 0.20252,0 -0.0359,0.1078 -0.34951,0.2251 -0.39689,0.1485 z m 6.94454,-0.9334 c -0.0926,-0.06 -0.0804,-0.075 0.0626,-0.076 0.0979,-6e-4 0.24956,-0.04 0.33717,-0.086 0.17311,-0.093 0.64122,-0.2389 0.58512,-0.1828 -0.0614,0.061 -0.76088,0.4217 -0.8162,0.4205 -0.0295,-6e-4 -0.10536,-0.035 -0.16875,-0.076 z m 2.98596,-0.4369 c -0.0927,-0.1141 -0.0887,-0.1234 0.0353,-0.077 0.0773,0.029 0.19176,0.053 0.25417,0.053 0.0625,0 0.0922,0.034 0.0659,0.077 -0.0722,0.1166 -0.23767,0.092 -0.35548,-0.053 z"
     style="fill:#000000;stroke-width:0.07681476" />
  <rect
     y="39.202587"
     x="47.735252"
     height="94.223885"
     width="188.71207"
     id="rect1594"
     style="opacity:1;fill:none;fill-opacity:1;stroke:#000000;stroke-width:0.26430672;stroke-miterlimit:4;stroke-dasharray:none;stroke-opacity:1" />
  <text
     id="text1598"
     y="148.97684"
     x="104.82639"
     style="font-style:normal;font-weight:normal;font-size:13.33333302px;line-height:1.25;font-family:sans-serif;letter-spacing:0px;word-spacing:0px;fill:#000000;fill-opacity:1;stroke:none"
     xml:space="preserve"><tspan
       y="148.97684"
       x="104.82639"
       id="tspan1596">50.00mm</tspan></text>
  <text
     transform="rotate(-90)"
     id="text1602"
     y="44.224724"
     x="-119.5872"
     style="font-style:normal;font-weight:normal;font-size:13.33333302px;line-height:1.25;font-family:sans-serif;letter-spacing:0px;word-spacing:0px;fill:#000000;fill-opacity:1;stroke:none"
     xml:space="preserve"><tspan
       y="44.224724"
       x="-119.5872"
       id="tspan1600">25.00mm</tspan></text>
</svg>
