<?xml version="1.0" encoding="UTF-8" standalone="no"?>
<svg
   xmlns:dc="http://purl.org/dc/elements/1.1/"
   xmlns:cc="http://creativecommons.org/ns#"
   xmlns:rdf="http://www.w3.org/1999/02/22-rdf-syntax-ns#"
   xmlns:svg="http://www.w3.org/2000/svg"
   xmlns="http://www.w3.org/2000/svg"
   id="svg1645"
   version="1.2"
   viewBox="0 0 198.4252 198.4252"
   height="70mm"
   width="70mm">
  <metadata
     id="metadata1651">
    <rdf:RDF>
      <cc:Work
         rdf:about="">
        <dc:format>image/svg+xml</dc:format>
        <dc:type
           rdf:resource="http://purl.org/dc/dcmitype/StillImage" />
        <dc:title></dc:title>
      </cc:Work>
    </rdf:RDF>
  </metadata>
  <defs
     id="defs1649" />
  <g
     transform="matrix(0.27874321,0,0,0.27874321,33.558175,0.31110656)"
     id="surface280697">
    <path
       id="path1642"
       d="m 316.03125,384.29297 c -0.14844,0.19922 -0.36328,0.33594 -0.63281,0.32812 -3.11328,-0.10156 -6.69532,-5.33203 -7.58594,-8.01562 -0.53125,-1.61719 -2.52344,-8.07031 -0.0156,-8.82422 -1.73437,-4.26172 -3.21484,-8.62109 -4.54296,-13.02734 -1.30079,-1.62891 -2.04688,-3.5625 -2.56641,-5.5625 -0.66016,-2.54297 -1.25781,-5.19532 -1.11328,-7.83985 -0.98438,-3.83203 -1.95313,-7.67187 -2.97656,-11.49219 -1.33594,-1.3789 -2.17579,-3.21875 -2.73047,-5.03906 -0.58203,-1.92578 -1.34375,-4.13672 -0.60547,-6.125 0.11719,-0.3164 0.36328,-0.59765 0.6875,-0.71484 0.33984,-0.4375 0.875,-0.51953 1.21094,0.0547 1.77734,3.07812 2.78906,6.60546 3.62109,10.04296 0.14062,0.13672 0.27344,0.27735 0.42187,0.39844 0.5625,0.46485 0.51172,1.47266 0.16016,2.08985 0.35938,1.57812 0.70703,3.15625 1.11328,4.72656 2.51172,9.74219 5.30469,19.4414 9.07813,28.78125 4.67968,11.59375 10.87109,22.60937 18.95703,32.18359 8.79297,10.41406 19.52344,17.96094 31.3125,24.56641 -0.125,-0.82813 -0.26172,-1.65625 -0.40625,-2.48047 -2.42578,-1.07422 -4.82422,-2.22266 -7.0625,-3.64844 -3.14453,-1.99609 -7.19531,-5.32812 -6.27735,-9.55078 0.58204,-2.66016 2.69922,-2.96094 4.94532,-2.10937 2.05468,0.77734 4.28515,1.67187 6.17187,2.88671 -0.33594,-2.03125 -0.65234,-4.0664 -0.9375,-6.10546 -5.43359,-2.42579 -10.23828,-6.10547 -14.39453,-10.33204 -2.77344,-2.25781 -5.48437,-4.82031 -7.32812,-7.91015 -3.78907,-6.34375 -6.23438,-13.35156 -10.69141,-19.3125 -5.14453,-5.33594 -7.8125,-13.40625 -9.96875,-20.34766 -2.57422,-8.28515 -4.88281,-17.01562 -5.28125,-25.71094 -0.0508,-1.0625 1.40625,-1.64453 1.63672,-0.42187 3.13672,16.58984 6.75781,33.07812 17.27344,46.74219 0.0234,0.0273 0.0391,0.0547 0.0547,0.0859 2.82032,3.375 4.59766,7.54688 6.35157,11.53907 0.0234,0.0547 0.0508,0.10937 0.0742,0.15234 1.00782,1.93359 2.05469,3.84766 3.26172,5.66016 3.41797,4.73437 7.9961,8.40234 12.38672,12.18359 1.95703,1.39453 4.00391,2.66406 6.1211,3.79688 -0.0117,-0.125 -0.0274,-0.25 -0.0391,-0.375 -2.23828,-1.17188 -4.34375,-3.22657 -5.92187,-5.15235 -0.47266,-0.57812 0.22656,-1.8789 0.9375,-1.26953 1.1289,0.97266 2.2539,1.95313 3.47265,2.81641 0.38672,0.26953 0.79297,0.51562 1.19922,0.7539 -0.0312,-0.34765 -0.0625,-0.69531 -0.0937,-1.04297 -0.0976,-0.0195 -0.19531,-0.0625 -0.28906,-0.1289 -2.89453,-2.06641 -5.72266,-5.00781 -7.44922,-8.13281 -0.37109,-0.67188 0.37891,-1.8086 1.04297,-1.08594 2.07031,2.25 4.14844,4.44922 6.46094,6.44531 -0.0312,-0.43359 -0.0586,-0.86719 -0.082,-1.30078 -4.55469,-3.59766 -7.67188,-8.92578 -10.34375,-13.98438 -0.29297,-0.55859 0.46875,-1.32421 0.91406,-0.72656 2.78906,3.74219 5.52344,7.4961 8.69531,10.91797 -3.3164,-4.45703 -6.57812,-9.04297 -9.13672,-13.98047 -0.39453,-0.76562 0.60547,-2.12109 1.30469,-1.22265 2.98438,3.82421 5.62891,7.89062 8.375,11.88281 0.004,-0.55469 0.008,-1.10938 0.0195,-1.66406 -3.24609,-3.13282 -5.1914,-7.53125 -7.41015,-11.39454 -2.51954,-4.39062 -5.02344,-8.80468 -7.14063,-13.40625 -0.28906,-0.6289 0.5625,-1.53125 1.03516,-0.8125 4.75781,7.21875 8.19531,15.47657 13.64843,22.21485 0.0391,-0.64063 0.0859,-1.28516 0.13672,-1.92578 -0.13672,-0.0977 -0.25,-0.23047 -0.33984,-0.37891 -11.05078,-17.73437 -20.24609,-36.74219 -25.63281,-56.99219 -2.36328,-8.88672 -3.96094,-17.98047 -4.23828,-27.18359 -0.0195,-0.58594 -0.004,-1.16406 0.0781,-1.74219 0.0391,-0.29687 0.11328,-0.60547 0.13672,-0.89844 0.0391,-0.57031 -0.27734,-1.26171 -0.50391,-1.76562 -0.64062,-1.42188 -2.40625,-2.14063 -2.89453,-3.87891 -0.23828,-0.83203 -0.45312,-1.38672 -0.15234,-2.2539 0.23828,-0.6875 1.1289,-0.67578 1.28515,0.0508 0.22266,1.02734 1.5,1.99219 2.46094,2.76172 1.00781,-7.92969 1.84375,-16.30078 -2.44531,-23.48828 -0.14844,-0.25391 -0.0547,-0.61719 0.21875,-0.73438 0.16016,-0.0742 0.32422,-0.14844 0.49219,-0.23047 0.30859,-0.13672 0.65625,-0.0742 0.85156,0.21485 0.45312,0.66796 0.85547,1.36328 1.22266,2.07421 0.0781,0.0469 0.14453,0.11329 0.19531,0.19141 6.48437,10.48438 14.55078,19.51172 23.76172,27.66797 0.84375,0.74609 -0.0391,2.83203 -1.07813,2.01953 -8.38281,-6.54687 -15.28906,-14.72656 -20.77734,-23.80469 0.21484,1.08985 0.36328,2.19532 0.45312,3.30469 2.22266,3.08203 4.45703,6.20313 6.25391,9.55859 0.48437,0.91016 -0.75,2.66407 -1.56641,1.53125 -1.72265,-2.38281 -3.18359,-4.96093 -4.58984,-7.55468 -0.008,0.83203 -0.043,1.66015 -0.0937,2.48828 1.19922,1.16015 1.94531,2.70703 2.96484,4.0039 1.41797,1.80079 3.10938,3.38672 4.34375,5.32813 0.16016,0.25391 0.15235,0.63281 0.10157,0.91797 -0.11329,0.60547 -0.6211,1.2539 -1.26954,0.75781 -1.85156,-1.42578 -3.18359,-3.53906 -4.52343,-5.42187 -0.61719,-0.8711 -1.27735,-1.71875 -1.85938,-2.61329 -0.20312,2.04688 -0.46875,4.08594 -0.72265,6.12891 0.46093,1.17188 0.34375,2.25781 0.28906,3.45703 1.02734,-0.85937 2.64844,-0.71484 3.72656,0.38281 1.35156,1.37891 2.32813,3.15625 3.27734,4.82422 0.73047,1.28516 1.62891,2.6211 1.5625,4.16407 -0.0469,1.15625 -0.51953,2.01953 -1.44531,2.3164 1.46094,1.27735 2.96875,2.5 4.4961,3.69922 -0.14063,-0.47656 -0.20704,-0.96484 -0.14063,-1.42969 0.48047,-3.32031 4.95703,-1.26953 6.41797,0.0899 1.79297,1.66797 5.35547,5.35937 3.46875,7.97265 -0.082,0.11328 -0.17188,0.21875 -0.26953,0.31641 1.0625,0.70703 2.14062,1.39062 3.23047,2.05469 -0.008,-1.37891 0.67187,-2.53516 2.11718,-3.0625 2.60157,-0.94532 6.8086,0.49609 8.95704,2.0664 2.13671,1.5586 3.3125,3.96875 3.07031,6.6211 -0.0469,0.50781 -0.29297,1.17968 -0.82031,1.33593 1.39062,0.63282 2.78515,1.25 4.1914,1.84375 -0.39453,-2.15234 1.13672,-3.51562 3.34766,-3.64453 2.84375,-0.16406 6.67578,0.98047 8.10937,3.64063 0.19922,0.36719 0.32813,0.76953 0.38672,1.17969 2.25781,-2.17969 4.64453,-4.22657 7.15235,-6.11329 -6.77735,-1.21484 -13.5,-4.00781 -19.19141,-7.83593 -0.6875,-0.45703 -0.13281,-1.83203 0.69531,-1.44532 6.59375,3.0625 13.36328,5.49219 20.34375,7.51563 0.13281,0.0391 0.24219,0.10547 0.32813,0.19531 0.59375,-0.41797 1.19922,-0.82422 1.80859,-1.22265 -14.17187,-1.8086 -27.03516,-10.78516 -38,-19.375 -0.52344,-0.41016 -0.0312,-1.4336 0.60938,-1.07813 5.86718,3.26953 11.39843,7.10156 17.25,10.40625 7.17578,4.05078 14.66406,6.33594 22.62109,8.28125 0.0781,0.0195 0.15234,0.0508 0.21875,0.0937 0.16797,-0.0977 0.33203,-0.19922 0.5,-0.29297 -14.70313,-4.15234 -29.55859,-9.80469 -40.49609,-20.88281 -0.48438,-0.49219 0.14062,-1.63672 0.80468,-1.15234 12.94532,9.54296 26.87891,15.60156 42.28907,19.97265 0.22265,0.0625 0.39062,0.19531 0.50781,0.36719 0.41797,-0.21094 0.83594,-0.41797 1.25781,-0.62109 -5.36328,-1.17579 -10.56641,-3.35157 -15.38281,-5.9375 -0.5586,-0.30079 -0.19922,-1.34375 0.43359,-1.13282 5.88672,1.98438 11.89844,3.55078 17.82422,5.40625 0.13672,0.043 0.25,0.11719 0.33984,0.21094 0.85938,-0.35937 1.72657,-0.69922 2.60157,-1.01953 -6.29297,-1.67188 -12.32032,-4.05859 -18.0625,-7.15234 -0.58985,-0.31641 -0.1836,-1.46875 0.48437,-1.19532 6.75,2.75391 13.67969,5.01563 20.75781,6.76563 0.23047,0.0547 0.39454,0.19531 0.50391,0.375 0.60938,-0.17969 1.21875,-0.34766 1.83594,-0.50391 -1.72656,-0.57422 -3.39844,-1.32031 -5.01953,-2.1289 -0.6211,-0.3086 -0.25391,-1.48047 0.44922,-1.3125 3.52343,0.85937 7.01562,1.79687 10.625,2.22265 4.25781,-0.61328 8.5664,-0.71094 12.84765,-0.27344 2.84375,-0.9414 5.29688,-2.35156 7.73438,-4.08593 0.19922,-0.14453 0.4414,-0.20703 0.67578,-0.10547 0.58594,0.26562 0.53125,1.4414 0.13672,1.83594 -1.26563,1.26562 -2.8125,2.24609 -4.46875,2.9375 0.45703,0.082 0.91406,0.17187 1.37109,0.26953 5.60156,-2.44141 9.24609,-7.5625 13.46484,-11.73828 0.78516,-0.77735 1.40235,0.45312 1.00782,1.16796 -1.875,3.41016 -5.13282,6.23438 -8.03907,8.75782 -1.08984,0.94922 -2.26953,1.85156 -3.5664,2.50781 0.35937,0.0977 0.71875,0.19922 1.07812,0.30469 0.60938,-0.3086 1.2461,-0.56641 1.82032,-0.94141 0.67968,-0.44141 1.27343,-0.98437 1.80859,-1.59375 0.82031,-0.93359 1.62891,0.64063 0.94922,1.41406 -0.61719,0.69922 -1.44141,1.37891 -2.32422,1.83985 0.125,0.043 0.24609,0.0859 0.37109,0.1289 6.82813,-5.26172 12.86719,-11.87109 17.33594,-19.24609 2.13672,-3.52344 3.41406,-7.49609 5.64063,-10.97656 1.46875,-2.30078 3.63281,-4.01172 5.12109,-6.27344 4.87109,-7.38672 5.9375,-19.10547 6.38672,-27.78125 0.5625,-10.77344 -0.78125,-22.34766 -6.9375,-31.5 -4.03906,-6.00781 -9.65235,-9.84766 -16.19141,-12.28906 3.16406,2.24218 5.80469,5.17968 7.94531,8.42187 6.78907,10.29297 10.14063,22.60156 8.09375,34.875 -1.17187,7.01953 -3.84765,13.61719 -7.27343,19.82813 -3.39844,6.16406 -6.34766,12.58203 -10.11328,18.54297 -7.01172,11.08593 -17.31641,17.01171 -30.36329,17.89843 -5.78515,0.39063 -11.69531,0.004 -17.33984,-1.33984 -5.37891,-1.27734 -10.28906,-3.92969 -15.08984,-6.58594 -11.42578,-6.3164 -22.13282,-13.87109 -32.44141,-21.85156 -6.46484,-5.00391 -13.12109,-9.96875 -18.76172,-15.91406 -2.59375,-2.73438 -5.28125,-5.38282 -8.14453,-7.83203 -4.01562,-3.4336 -7.60547,-5.39063 -12.72656,-6.72657 -0.64453,-0.16797 -0.42188,-1.24609 0.23828,-1.15234 5.30078,0.76172 8.59375,2.56641 12.66797,5.95312 1.7539,1.45704 3.4375,2.99219 5.07422,4.57813 l 0.0351,-0.23438 0.56641,0.65625 c 0.33594,0.39063 0.67969,0.77344 1.03906,1.14844 l 0.51563,0.53906 h -0.0117 c 0.53515,0.54297 1.0664,1.08985 1.58984,1.64063 6.4961,6.82031 14.23438,12.46875 21.73438,18.12109 9.89843,7.45703 20.16406,14.52344 31.10937,20.375 10.74219,5.7461 21.84766,8.14453 33.97266,6.36328 6.92969,-1.01562 13.5,-3.6289 18.63281,-8.5039 4.65234,-4.41797 7.83594,-10.11328 10.79688,-15.74219 7.05859,-13.43359 15.25781,-26.94922 13.0625,-42.79297 -1.72657,-12.48437 -9.55469,-28.27734 -22.63282,-31.95312 -13.95703,-3.92578 -30.12109,3.29687 -42.96875,-5.625 -5.5664,-3.86719 -8.09765,-10.11719 -10.64453,-16.1211 -2.67578,-6.3125 -6.98437,-15.88672 -15.19922,-15.51172 -3.76953,0.17188 -6.86718,2.73829 -10.07031,4.42969 -2.71484,1.4375 -5.69531,2.54297 -8.78906,2.64063 -4.85156,0.15625 -9.54297,-2.39453 -11.92578,-6.63282 -0.48828,-0.19531 -0.67578,-0.79687 -0.53125,-1.30078 0.92187,-3.25781 2.72656,-2.14453 5.26172,-1.96093 2.02343,0.14843 3.9375,-0.11329 5.85546,-0.73438 0.008,-0.0703 0.0156,-0.14062 0.0312,-0.21094 0.1211,-0.53515 0.51172,-0.99218 0.96485,-1.28515 0.80078,-0.51953 2.51953,-1.00391 3.45703,-0.46094 2.62891,-1.39063 5.125,-2.92188 7.91406,-4.00781 0.14844,-0.0586 0.30469,-0.10547 0.45313,-0.15625 0.043,-0.0469 0.0859,-0.0937 0.13281,-0.14063 0.44531,-0.42578 1.01172,-0.57422 1.61328,-0.59765 0.27344,-0.0117 0.54297,-0.0391 0.80859,-0.0586 9.54297,-2.46094 19.58985,0.64453 26,8.15625 2.42969,2.84766 4.22657,6.14453 6.26172,9.26563 1.66016,0.26172 3.21094,1.57031 3.8125,3.125 0.16407,0.42578 -0.0117,1.11718 -0.375,1.45312 0.17578,0.19141 0.35157,0.37891 0.53516,0.56641 0.81641,0.83594 1.72266,1.5664 2.71484,2.17969 0.15625,-0.16797 0.36719,-0.26954 0.625,-0.2461 1.1211,0.0937 2.32032,0.14063 3.37891,0.56641 0.56641,0.22656 0.71094,0.89453 0.53516,1.4414 0.89453,0.17579 1.80078,0.27344 2.71484,0.3125 0.0742,-0.37109 0.35156,-0.78906 0.76172,-0.8164 1.74609,-0.11719 3.49609,0.0703 5.22656,0.40625 0.0312,0.008 0.0586,0.0156 0.0859,0.0273 1.4414,-0.19531 2.875,-0.42969 4.30859,-0.66015 0.5,-0.77344 1.59375,-1.21875 2.47266,-1.23438 1.39062,-0.0273 3.58594,-0.22656 4.76953,0.66016 1.26562,0 2.53125,0.0586 3.79297,0.16015 0.3125,-0.30468 0.71094,-0.51953 1.13672,-0.59375 1.04687,-0.17968 2.28906,0.24219 3.26562,0.59375 0.71875,0.26172 1.46094,0.51172 2.10156,0.9336 2.94141,0.60156 5.83594,1.43359 8.66407,2.4414 1.80859,-0.75 4.70312,1.0586 5.89453,2.37891 1.12109,0.50781 2.23437,1.02734 3.33594,1.57812 15.61328,7.81641 25.0625,22.32422 27.33203,39.48047 1.53125,11.60157 0.82422,23.32813 -2.1836,34.63282 0.0664,0.0273 0.13672,0.0625 0.19922,0.10156 0.99219,0.59375 0.88672,1.99219 0.7461,2.97265 -0.19141,1.32813 -0.59766,2.69922 -1.60157,3.64844 -0.45312,0.42578 -1.09765,0.82031 -1.74609,0.89453 -0.16016,0.44922 -0.32031,0.90235 -0.48828,1.34766 -0.95703,2.49609 -1.90625,4.99609 -2.89453,7.48047 0.36718,0.41406 0.40625,1.07422 0.35156,1.60547 -0.12891,1.29687 -0.50781,2.72656 -1.29688,3.78515 -0.51171,0.6836 -1.14843,0.98438 -1.88671,1.29297 -1.29688,2.83594 -2.71485,5.61719 -4.32813,8.28516 0.0273,0.58984 -0.11719,1.20312 -0.25391,1.76953 -0.48437,1.94531 -1.85156,4.07422 -3.98046,4.38281 -1.57032,2.02735 -3.2461,3.97656 -4.9961,5.85156 0.0391,2.62891 -2.58203,5.64454 -5.3164,5.3125 -1.34766,1.26954 -2.72266,2.51563 -4.10938,3.74219 -0.0898,2.13281 -1.66797,3.7461 -3.53125,4.59375 9.91016,7.16016 16.73047,19.28516 20.02344,30.84766 3.17969,11.17969 2.54297,20.90234 -0.33594,32.04297 -1.55078,6 -3.42578,11.93359 -5.73828,17.6875 -0.23438,2.72265 -1.87109,5.67578 -3.51172,7.82031 -5.63281,11.23047 -13.42969,21.17969 -24.50781,27.45312 -0.0352,0.0195 -0.0703,0.0352 -0.10547,0.0469 -9.12109,5.64062 -20.28125,7.15234 -30.82031,7.44531 -3.03516,1.22656 -13.57032,4.7461 -14.57032,-0.3164 -1.57031,-0.11329 -3.14062,-0.25391 -4.70312,-0.4375 -2.79688,1.76171 -6.55859,1.26562 -9.66016,0.80078 -1.82031,-0.26953 -5.08203,-0.42969 -6.8164,-1.62891 -0.4336,7.06641 -1.76953,14.11719 -5.29688,20.33984 -1.85547,3.26954 -8.36719,12.55469 -12.52734,7.32422 -1.21094,-1.51953 -0.67969,-3.58593 -0.15235,-5.25781 1.50782,-4.75391 3.92188,-9.08984 4.81641,-14.05469 0.96875,-5.39453 0.86719,-10.80468 0.25781,-16.22265 -1.89843,-0.82813 -3.76172,-1.74219 -5.58984,-2.71485 -4.84375,1.96094 -9.42578,-1.49609 -12.76953,-4.71484 -1.03516,-1 -2.92188,-3.78125 -2.28125,-5.36719 -2.40235,-1.99219 -4.70313,-4.10156 -6.90235,-6.3125 -2.13281,0.3711 -4.14453,0.27735 -5.86718,-1.23047 -1.66016,-1.45703 -2.97657,-3.39062 -4.0586,-5.29687 -0.90234,-1.58985 -2.62109,-4.65235 -0.85547,-6.19922 -2.16406,-2.98047 -4.19531,-6.06641 -6.07812,-9.23828 z m -7.58984,-14.96875 c -0.0742,0.0547 -0.16016,0.0898 -0.25391,0.10937 -0.54297,0.65235 0.90234,6.26953 1.3125,7.1211 0.90625,1.8789 3.35156,5.51562 5.63672,6.21484 -2.35547,-4.09766 -4.48047,-8.32812 -6.35547,-12.65625 -0.11719,-0.26172 -0.23047,-0.52734 -0.33984,-0.78906 z m -165.52344,-94.1875 c 0,-0.21875 0.12109,-0.44531 0.38281,-0.4961 0.0664,-0.0156 0.33594,-0.0664 0.38672,-0.10156 0.0352,-0.043 0.0703,-0.23437 0.0781,-0.28906 0,0 0.004,0 0.004,-0.004 -0.66016,-0.16406 -1,-1.05078 -1.08203,-1.6875 -0.125,-0.97265 0.13672,-1.93359 0.36719,-2.86718 0.35547,-1.44141 0.71093,-2.88672 1.1875,-4.29297 0.008,-0.13282 0.0391,-0.26172 0.10156,-0.36328 0.14062,-0.25391 0.32812,-0.47657 0.56641,-0.6211 0.0508,-0.17578 0.1875,-0.32812 0.40234,-0.35156 0.33984,-0.0312 0.625,-0.22266 0.69922,-0.53906 -0.17578,-0.0586 -0.33594,-0.15625 -0.48828,-0.28125 -0.65235,-0.53516 -0.67188,-1.35547 -0.5625,-2.125 0.1875,-1.30469 0.57812,-2.60157 1.00781,-3.84766 0.17578,-1.05078 0.75781,-3.54297 2.15234,-3.28906 0.082,-0.39063 0.0977,-0.73047 -0.0391,-1.10156 -0.26953,0.0469 -0.54297,-0.008 -0.80859,-0.125 -1.03907,-0.45313 -1.3125,-1.94922 -1.60157,-2.92579 -0.35937,-1.23046 -0.57812,-2.48828 -0.71093,-3.76171 -0.16407,-0.42579 -0.14844,-0.82032 -0.0117,-1.15625 -0.30078,-0.28125 -0.5,-0.60547 -0.6836,-0.95704 -0.0469,0.0156 -0.0898,0.0273 -0.13671,0.0391 -0.82032,0.18359 -1.92969,-0.4375 -2.60938,-0.85938 -0.84766,-0.53125 -1.57422,-1.26953 -2.10547,-2.10937 -0.42578,-0.67969 -1.13672,-2.00391 -0.82812,-2.88672 -0.0859,-0.19141 -0.0508,-0.44922 0.0937,-0.60938 -0.23438,-0.22656 -0.47266,-0.45703 -0.70703,-0.68359 -1.32422,0.96094 -3.33594,0.34766 -4.34766,-0.84766 -0.96094,-1.13672 -1.28125,-2.62109 -1.50781,-4.0625 -4.01563,0.83985 -8.39453,-2.52734 -8.62891,-6.61718 -3.61328,0.6875 -7.58203,-1.50391 -8.90625,-4.94532 -2.04687,0.5586 -4.39062,-0.11718 -5.80078,-1.71484 -1.33984,-1.51172 -1.75391,-3.75391 -1.10937,-5.65625 -2.63672,0.19531 -5.33204,-1.71875 -5.89454,-4.33594 -0.15625,-0.72265 -0.1875,-1.92578 -0.8164,-2.40625 -0.39063,-0.29687 -1.05469,-0.34765 -1.52344,-0.46094 -2.894531,-0.69531 -4.554688,-4.29687 -3.386719,-6.97656 -3.328125,-0.78515 -4.550781,-5.05859 -4.867187,-8.0664 -1.453125,-13.95313 1.878906,-28.35938 9.308596,-40.26172 2.61719,-4.19141 5.71094,-8.0586 8.79687,-11.91407 3.82032,-4.77734 7.67969,-9.59375 12.3711,-13.56249 3.89453,-3.29688 9.19531,-5.11719 14.10937,-6.26563 3.09375,-0.72266 6.69141,-0.0664 8.00781,3.17969 1.19141,2.93359 -0.40234,5.96094 -2.89843,7.58984 -2.11719,1.37891 -4.10547,2.94141 -6.01954,4.58984 -2.34765,2.01954 -4.20703,4.45704 -6.09765,6.89063 -0.125,0.22656 -0.44141,0.62891 -0.57813,0.82422 -0.41406,0.58984 -0.82812,1.17969 -1.24218,1.76562 -0.60157,0.85938 -1.20313,1.72657 -1.8125,2.58203 -6.12891,8.58594 -12.86719,18.34375 -10.8086,29.48047 1.91016,10.33594 10.19922,18.82032 18.40625,24.78516 13.40625,9.73828 30.12891,15.30859 38.48828,30.73828 6.50782,12.01172 3.64453,25.37891 1.66797,38.14063 4.75391,1.05078 9.3086,3.05468 13.58203,5.34765 8.96875,4.81641 13.52344,13.9375 14.57032,23.78516 0.10937,1.05078 0.17968,2.10547 0.21484,3.16406 7.85156,-3.58203 15.84766,-7.46484 22.17578,-13.44922 0.88672,-0.83984 1.81641,-1.6289 2.73047,-2.4375 1.35156,-1.20312 2.78516,-3.33984 3.78906,-4.84765 1.69922,-2.55079 3.27735,-5.21485 4.78125,-7.88672 0.64453,-1.14844 1.23828,-2.49219 1.8125,-3.6836 0.59766,-1.23437 1.1836,-2.46875 1.77735,-3.69922 -0.0117,-0.0586 -0.0273,-0.11718 -0.043,-0.16406 l -0.0234,-0.0781 -0.004,-0.004 -0.0391,-0.0898 c -1.25,-2.94922 -7.68359,-4.46094 -10.34375,-4.96094 -5.97266,-1.12109 -12.45703,-2.70313 -18.00391,-5.24609 -1.86328,-0.85547 -4.70312,-2.33985 -6.08984,-3.91407 -1.82422,-2.07422 -3.65625,-4.6289 -5.13672,-6.94531 -0.65625,-1.02734 -1.28515,-2.08203 -1.83594,-3.16797 l -0.043,-0.0859 v -0.0234 c -0.25391,-0.55469 -1.34375,-2.13282 -1.58204,-2.7461 -0.33984,-0.67968 -0.67187,-1.36718 -1,-2.05078 -0.40625,-0.83984 -0.82421,-1.6914 -1.19921,-2.54297 l -0.008,-0.0156 -0.004,-0.0195 c -1.62891,-4.8086 -3.20313,-9.64453 -4.78125,-14.47266 -1.82813,-5.60937 -3.66797,-11.21875 -5.44532,-16.84375 -0.24218,-0.75781 -0.37109,-1.69141 -0.49218,-2.47656 -0.19922,-1.33203 -0.36719,-2.67578 -0.53125,-4.01563 -0.4336,-3.54297 -0.83594,-7.08984 -1.32422,-10.6289 -0.27344,-1.98828 -0.56641,-3.98047 -0.91406,-5.96094 l -0.008,-0.0352 v -0.0352 c 0.0117,-1.875 0.13672,-3.7461 0.41016,-5.60157 1.5625,-10.59375 5.61328,-21.51562 10.73047,-30.89843 4.86719,-8.9375 11.66797,-16.33985 19.22265,-23.07422 6.76954,-6.03516 13.48438,-7.25391 22.3086,-6.03516 21.62109,2.99219 45.99219,7.98828 62.30859,23.58203 18.71875,17.89063 16.15625,45.71485 17.67188,69.31641 0.0312,0.48437 -0.14063,0.98828 -0.39844,1.41016 1.50391,1.79296 2.74609,3.78906 3.70703,5.92187 l 0.008,0.0195 0.008,0.0234 c 0.98437,3.15625 2.41015,8.49219 2.32031,11.74609 -0.0625,2.30469 -0.39453,4.60157 -1.01563,6.82032 -0.42578,1.52343 -2.3164,1.1289 -1.90625,-0.44532 1.22266,-4.65625 1.10938,-9.22656 -0.17187,-13.50781 0.14844,1.32422 0.17578,2.66797 0.19531,3.92578 0.043,2.34375 0.35547,8.98438 -2.39453,9.91797 -0.25391,0.0859 -0.50781,-0.0312 -0.67578,-0.22266 -1.60547,-1.83984 -1.9336,-5.1914 -2.33203,-7.53515 -0.5,-2.9375 -0.82422,-5.90235 -1,-8.875 -0.0781,-1.34766 -0.70703,-4.06641 0.71093,-4.91797 0.83594,-0.50391 1.625,-0.28516 2.02735,0.5625 0.0586,0.043 0.11719,0.082 0.17187,0.125 -0.5664,-0.86328 -1.1875,-1.70703 -1.85937,-2.53125 -0.25391,-0.3125 -0.27344,-0.75781 -0.17969,-1.14063 -0.004,-0.0273 -0.0117,-0.0586 -0.0156,-0.0898 -0.89844,-12.77734 -0.9375,-25.62891 -2.67579,-38.33594 C 304.71484,155.17578 298.53906,143.75 287,135.29687 c -15.89063,-11.64453 -37.26563,-16.15234 -56.49609,-18.47265 -5.13672,-0.62109 -10.97657,-0.74219 -15.47266,2.21094 -2.85938,1.875 -5.30078,4.5 -7.77734,6.84375 -8.05469,7.61718 -14.27735,16.47656 -18.48047,26.75 -4.78125,11.68359 -8.19532,23.72265 -5.65235,36.39843 2.39844,11.95313 5.875,23.71875 9.51953,35.34375 3.41797,10.88282 8.66016,25.55078 19.95313,30.42188 3.93359,1.69922 9.15625,2.17969 13.39453,2.98437 1.23047,0.23047 2.47656,0.49219 3.71094,0.81641 -3.76563,-1.12891 -7.75,-1.79688 -11.21094,-2.51953 -5.18359,-1.07813 -8.11328,-3.40235 -11.12109,-7.67578 -0.48438,-0.6875 0.33984,-1.95703 1.0664,-1.21875 5.92578,6.04687 11.58985,6.1875 19.22657,8.37109 4.35156,1.24609 9.04296,2.5 12.42578,5.67578 0.10937,-0.24609 0.21875,-0.49219 0.33203,-0.73437 -7.10938,-4.47657 -14.4336,-5.30469 -22.25391,-7.80469 -6.69922,-2.14453 -11.38672,-8.1875 -14.78906,-14.03906 -0.38281,-0.65235 0.40625,-1.73828 1.01172,-1.01563 3.0039,3.61328 5.63672,7.89063 9.64062,10.50391 3.20703,2.09375 6.57813,2.76562 10.25782,3.53906 6.25,1.32031 11.8164,3.13672 16.96093,6.97266 0.0273,-0.0625 0.0547,-0.1211 0.082,-0.1836 -7.93359,-8.9375 -24.3164,-4.20312 -30.96484,-14.89453 -0.32422,-0.51562 0.27344,-1.47656 0.83594,-0.9375 7.20703,6.91016 20.38281,5.28906 28.40234,11.26172 -2.87109,-2.1875 -6.07812,-3.64453 -9.71875,-4.68359 -3.875,-1.10938 -7.91406,-1.61719 -11.50781,-3.57422 -0.45703,-0.25 -0.22266,-1.01953 0.29687,-0.96485 8.61719,0.89844 18.3711,3.1211 24.53516,9.66016 0.004,-0.0117 0.0117,-0.0273 0.0195,-0.043 -2.02344,-3.42969 -6.34765,-5.3125 -9.58203,-7.39453 -0.5625,-0.35937 -0.10156,-1.39062 0.54688,-1.08594 3.47656,1.64453 7.92968,3.86719 9.9375,7.35157 0.0156,-0.0117 0.0312,-0.0195 0.0508,-0.0273 0.0742,-0.19922 0.14843,-0.39453 0.22265,-0.59375 -1.42187,-1.97265 -2.65625,-3.86719 -4.65625,-5.33984 -2.25781,-1.66406 -4.69531,-3.0625 -7.03906,-4.59766 -0.49219,-0.32031 -0.082,-1.16406 0.47266,-0.90625 4.60156,2.125 9.17578,4.87891 11.77734,9.35547 0.10938,-0.43359 0.21484,-0.86719 0.32422,-1.30078 0.0117,-0.0547 0.0273,-0.0937 0.0508,-0.13281 -0.0391,-0.1875 -0.0937,-0.36328 -0.18359,-0.53907 -1.61328,-3.19921 -5.94532,-5.47656 -8.91797,-7.27343 -0.53906,-0.32422 -0.0859,-1.26953 0.49219,-0.95703 3.41015,1.73828 6.88281,3.73828 9.18359,6.88671 1.03906,1.42579 1.12109,2.73829 0.57031,4.34375 -0.125,0.75391 -0.29687,1.5 -0.51953,2.23047 0.0977,0.45313 0.043,0.91797 -0.14453,1.34766 -5.28516,12.04297 -10.75781,25.73828 -20.20703,35.16016 -6.8086,6.78515 -15.72266,11.08984 -24.35938,15.04296 -0.008,0.004 -0.0156,0.004 -0.0195,0.008 -0.36719,8.34765 -2.47265,16.49218 -3.89844,24.69531 -0.20312,1.16406 -0.40625,2.33203 -0.60546,3.49609 2.29296,0.3086 4.55859,0.51953 6.87109,0.20313 1.97266,-0.26953 3.89062,-0.83985 5.82812,-1.28906 0.41016,-0.35547 0.82032,-0.71485 1.23047,-1.07422 -2.64453,0.77734 -5.35937,0.92968 -8.14062,0.30859 -0.82422,-0.18359 -0.52735,-1.61328 0.28906,-1.5 5.96484,0.80078 10.67969,-1.80078 15.24219,-5.3125 5.26172,-4.71875 10.26562,-9.78125 14.26562,-15.63281 8.03907,-11.76953 13.67188,-25.00781 18.76172,-38.26172 0.42188,-1.08984 1.72266,-0.50391 1.46875,0.54297 -3.5625,14.75781 -10.83594,29.96484 -19.71094,42.26562 -5.26562,7.28907 -12.11718,13.42969 -19.00781,19.14844 -0.13672,0.11328 -0.27734,0.23047 -0.41406,0.34766 0.71094,0.0273 1.03906,1.39062 0.40625,2.0625 -4.62891,4.93359 -10.11328,9.38281 -16.24609,12.36718 0.73828,0.0391 0.73046,1.44532 0.10937,1.8125 -0.99219,0.58985 -2.08203,1.00391 -3.16797,1.39454 -0.0273,0.46484 -0.0547,0.92968 -0.0781,1.39453 4.26172,-1.98438 8.47265,-4.07422 12.66015,-6.21485 1.1836,-0.60156 1.4961,1.44532 0.57422,1.95703 -4.23047,2.34766 -8.6875,4.23829 -13.28125,5.74219 -0.0703,2.47266 -0.0312,4.96094 0.1836,7.42969 2.83984,-0.76172 5.61718,-1.75 8.43359,-2.59375 1.05469,-0.31641 1.17187,1.54687 0.33984,1.89453 -2.75781,1.14844 -5.66797,1.77734 -8.60937,2.23828 0.10937,0.91797 0.2539,1.83203 0.42578,2.74219 0.0117,0 0.0234,-0.004 0.0352,-0.004 1.07031,-0.18359 2.08203,-0.4414 3.17187,-0.5664 2.01172,-0.23438 4.85156,-0.0899 4.14844,2.76172 -0.17578,0.72265 -0.61719,1.33593 -1.17188,1.82031 -0.45703,0.39453 -0.86328,0.84375 -1.27734,1.28125 10.125,-3.10938 20.01562,-7.91797 29.05469,-13.44922 0.0156,-0.17188 0.16015,-0.30859 0.30078,-0.41797 0.13281,-0.10156 0.27734,-0.19922 0.42187,-0.29297 0.41407,-0.27734 0.83594,-0.54297 1.26172,-0.80078 0.42578,-0.25781 0.85547,-0.51562 1.28906,-0.75391 0.19922,-0.11328 0.54688,-0.34765 0.82813,-0.33593 4.84375,-3.16797 9.52734,-6.60547 13.97656,-10.30078 0.50391,-2.95313 0.97266,-5.91016 1.42188,-8.8711 -0.0508,-0.375 0.0703,-0.88672 0.0977,-1.09375 0.0273,-0.22265 0.0508,-0.85156 0.25,-1.1875 0.92578,-6.14453 1.85938,-12.28906 3.12891,-18.375 0.24609,-1.1875 0.51172,-2.36719 0.78906,-3.54297 -2.0039,4.73828 -4.26172,9.35157 -7.14062,13.66797 -7.1875,10.76953 -16.88672,20.09375 -28.2461,26.375 -0.91406,0.50781 -1.22656,-0.99609 -0.55078,-1.47656 11.41797,-8.12891 21.36328,-17.6875 28.78516,-29.65234 6.6289,-10.67969 9.21484,-23.17188 15.05078,-34.23047 1.16797,-3.08594 2.71484,-6.47657 5.1875,-8.72266 1.69141,-1.53906 2.59375,1.56641 1.41797,2.77344 -5.6836,5.8164 -7.94141,17.89453 -10.06641,25.60937 -2.08984,7.57032 -3.14453,15.28516 -4.20312,23.04297 -1.9336,14.17969 -3.78516,30.54688 -10.36328,43.39844 -8.11719,15.84766 -28.55079,23.67578 -42.56641,10.19531 -7.25781,-6.98047 -8.02344,-16.76953 -7.96094,-26.27344 0.0781,-12.34375 2.08203,-24.40234 4.45313,-36.47656 2.55859,-13.01562 4.39062,-29.19922 -6.57813,-39.0664 -5.26172,-4.73047 -12.14062,-7.71485 -19.07812,-8.84766 -0.0391,-0.004 -0.0703,-0.008 -0.10157,-0.0117 -3.86328,-0.625 -7.85156,-0.69531 -11.71875,-0.0898 0,0.0703 -0.004,0.14453 -0.0117,0.21484 4.6914,2.76172 11.64453,2.21484 16.82421,3.72266 4.32422,1.26172 8.09766,3.48437 10.92579,7.03515 5.87109,7.36719 6.83203,15.59375 4.74609,24.57422 -5.0625,21.75781 -13.51172,46.50781 -5.25391,68.4961 8.84375,23.53515 33.66407,33.30859 56.98438,25.72656 8.67578,-2.82031 15.11719,-6.65625 20.41797,-14.22656 5.24609,-7.48829 9.23437,-15.83594 12.6914,-24.27735 9.20313,-22.48828 13.94532,-46.52344 13.05078,-70.84765 -0.0625,-1.71875 2.46875,-2.8711 2.625,-0.74219 0.20313,2.76172 0.28516,5.53125 0.30469,8.29687 0.66016,1.22266 1.16406,2.51953 1.70313,3.79688 1.01953,2.42187 2.05078,4.84375 2.85937,7.34375 0.35156,1.08984 -1.03906,2.57422 -1.66406,1.20312 -1.14453,-2.50781 -2.05078,-5.10937 -2.94141,-7.71875 -0.0273,0.96094 -0.0664,1.92578 -0.11328,2.88672 0.21485,0.26563 0.29688,0.61719 0.31641,0.95703 0.0234,0.44141 0.0312,0.88282 0.043,1.32422 0.14843,0.27735 0.13672,0.64453 0.0273,0.9375 0.0586,2.86328 -0.0234,5.73047 0.10156,8.59375 0.10938,2.53906 0.25391,4.98047 1.38282,7.3086 0.58984,1.22656 1.67578,2.07421 2.24609,3.375 1.88672,4.32031 0.40234,10.04687 -0.85156,14.37109 -0.74219,2.54687 -1.96094,3.88281 -3.3086,6.04297 -1.64453,2.64453 -0.93359,4.4375 -1.40234,7.25 -0.91797,5.48047 -3.92969,10.86719 -8.59375,13.99609 -3.07422,2.0586 -1.89453,0.8086 -1.84766,4.05078 0.0274,2.11719 -0.23828,4.19922 -0.94922,6.20313 -2.09765,5.90234 -7.65234,4.22265 -10.39062,9.19531 -1.97656,3.58984 -0.30469,7.25781 -3.37891,10.98438 -3.71875,4.51171 -7.90625,8.72656 -13.97656,5.60156 -3.5625,1.24609 -5.60156,0.9375 -7.95312,4.30859 -0.59766,0.85547 -0.55079,1.37891 -1.39063,2.22266 -2.20312,2.22265 -6.41016,2.40625 -9.34766,2.11719 -3.5664,-0.35157 -5.30078,-2.65235 -8.5039,-3.50782 -4.01172,-1.07031 -6.63281,2.09766 -11.00781,0.73828 -1.71485,-0.53515 -3.6875,-1.05468 -5.22657,-1.98046 -2.1914,-1.32422 -3.11718,-4.47657 -5.4414,-5.36329 -3.44532,-1.3164 -5.55469,1.0625 -9.01563,-1.82421 -1.04297,-0.86719 -1.47656,-1.59375 -2.17187,-2.71875 -0.32032,-0.51954 -0.48828,-0.94922 -0.60157,-1.54297 -0.20703,-1.05078 -0.46093,-1.57032 -1.08203,-2.47266 -0.23437,-0.34375 -1.02343,-1.58594 -1.4414,-2.08984 -0.61328,0.24609 -1.51172,-0.53907 -1.9336,-0.875 -4.05078,-3.22266 -2.47656,-4.79297 -3.47265,-8.9375 -4.08985,-0.004 -3.90235,-2.75 -4.83203,-5.97266 -0.0547,-0.19531 -0.11329,-0.39062 -0.17188,-0.58203 -0.28906,0.0156 -0.57812,0.0234 -0.86719,0.0391 -1.9375,0.69922 -6.39062,1.41406 -8.04297,-0.10937 -3.41796,-0.25782 -6.8125,-0.76563 -10.16796,-1.44922 -2.39454,1.53906 -7.14063,0.78125 -8.30469,-2 -2.05078,-0.56641 -4.09375,-1.17188 -6.12891,-1.79688 -2.46094,1.77344 -6.92187,-0.36328 -8.43359,-2.67187 -2.19531,-0.71094 -4.39063,-1.42969 -6.58203,-2.15235 -0.0508,0.0625 -0.10938,0.1211 -0.17578,0.16407 -2.0586,1.39453 -4.42578,0.98437 -6.57032,0.0351 -1.92187,-0.85156 -3.08203,-1.5625 -3.57031,-3.62109 -1.6289,-0.54297 -3.2539,-1.08594 -4.8789,-1.625 -1.58985,2.32422 -5.27344,0.45703 -7.25782,-0.36719 -1.02343,-0.42578 -2.5039,-1.58594 -2.38281,-2.83594 -1.80469,-0.58984 -3.61328,-1.16406 -5.417969,-1.74609 -1.148437,0.94531 -2.75,0.69922 -4.125,0.49609 -1.785156,-0.26562 -3.378906,-0.89453 -4.671875,-2.1914 -0.269531,-0.26953 -0.25,-0.72266 -0.125,-1.05078 0.01563,-0.0508 0.03516,-0.10157 0.05469,-0.14844 -1.644532,-0.5625 -3.285156,-1.13281 -4.933594,-1.6875 -1.773438,1.80859 -4.625,0.69531 -6.730469,0.16797 -1.472656,-0.36719 -3.734375,-1.35547 -3.175781,-3.13281 -0.695312,-0.17188 -1.394531,-0.32813 -2.09375,-0.47266 -2.082031,1.96094 -4.789062,1.58984 -7.28125,0.77734 -0.910156,-0.29297 -1.84375,-0.58203 -2,-1.68359 0,0 0,0 0,-0.004 -0.394531,0.0156 -0.792969,0.0312 -1.1875,0.0664 -0.398438,0.0352 -0.796875,0.0859 -1.191406,0.15234 -0.0625,0.42188 -0.257813,0.84766 -0.503906,1.17188 -0.636719,0.83594 -1.617188,1.11719 -2.570313,1.42578 -1.1875,0.38672 -2.734375,1.22266 -3.972656,0.61328 -0.214844,-0.10547 -0.394531,-0.25 -0.539063,-0.42969 -1.066406,0.58594 -2.101562,1.22266 -3.101562,1.91016 0.03516,1.12891 -0.78125,2.50781 -1.578125,3.19922 -0.667969,0.57812 -1.605469,1.20312 -2.472657,1.40625 -0.476562,0.10937 -0.890624,-0.0195 -1.265624,-0.26953 -0.667969,0.63672 -1.320313,1.29297 -1.949219,1.96875 0.07422,0.85937 -0.421875,1.95703 -0.878907,2.61718 -0.6875,0.9961 -1.496093,1.91016 -2.339843,2.77344 -0.457031,0.47266 -0.9375,0.96875 -1.597657,1.09766 -0.460937,0.78906 -0.894531,1.58984 -1.289062,2.41406 0.02344,0.0312 0.04687,0.0664 0.07031,0.10156 0.414063,0.69141 0.183594,1.5 0.02734,2.22657 -0.300781,1.40234 -0.644531,2.95703 -2.1875,3.33984 -0.285156,1.11719 -0.488281,2.25391 -0.605468,3.39844 0.511718,0.36328 0.828124,0.95703 1.023437,1.54297 0.355469,1.07421 0.550781,2.26953 0.3125,3.38671 -0.0625,0.29688 -0.183594,0.64844 -0.34375,0.9336 0.285156,0.53906 0.609375,1.05469 0.960937,1.55469 0.144532,-0.0859 0.3125,-0.13672 0.5,-0.12891 3.058594,0.12109 4.425782,2.98828 5.332032,5.48047 0.109375,0.29297 0.08984,0.65234 -0.01563,0.96484 2.199219,2.23438 9.339843,9.57813 4.304687,11.44922 -0.269531,0.51953 -0.730468,0.95703 -1.351562,0.93359 -6.601563,-0.24609 -12.675782,-2.41015 -17.160156,-7.40234 -5.894532,-6.57031 -7.425782,-16.19141 -6.941407,-24.72266 0.667969,-11.75 4.90625,-24.3125 13.917969,-32.29296 8.980469,-7.94922 24.277344,-13.27344 36.246094,-12.98047 19.300781,0.46875 37.460935,9.74218 55.894535,14.52343 9.41406,2.44532 19.02734,4.27735 28.73828,4.97266 -0.92969,-1.06641 -2.01563,-2.54687 -2.04688,-3.69141 -0.10937,-0.39062 -0.10937,-0.74218 -0.0547,-1.14843 0.0352,-0.22657 0.21094,-0.71094 0.0352,-0.875 -0.0937,-0.0547 -0.46875,-0.0859 -0.61719,-0.14063 -0.45703,-0.17187 -1.03125,-0.82812 -1.36719,-0.86719 -0.15625,-0.0195 -0.42968,0.13672 -0.58203,0.23047 -0.21875,0.23438 -0.48047,0.40625 -0.76953,0.53516 -0.10156,0.0703 -0.20312,0.14062 -0.30078,0.19141 -0.15234,0.0859 -0.30859,0.082 -0.4375,0.0195 -0.81641,0.11718 -1.67969,-0.0781 -2.42187,-0.42188 -3.11719,-1.44531 -5.96875,-4.05859 -7.48438,-7.16797 -0.0859,-0.0469 -0.16406,-0.11718 -0.22266,-0.20312 -0.69921,-0.98828 -0.32812,-1.91406 -0.0977,-2.96875 0.16406,-0.76953 -0.0586,-1.4375 -0.75391,-1.84375 -0.30469,-0.17969 -0.65625,-0.17578 -1.0039,-0.1875 -0.38672,0.26953 -0.83985,0.375 -1.32032,0.32031 -2.34765,-0.26953 -3.32422,-4.28906 -3.33203,-6.31641 -0.10937,-0.17968 -0.14453,-0.38281 -0.11719,-0.60156 0.25391,-2.01953 1.02735,-5.9375 2.5625,-7.48047 -0.0156,-0.24218 0.0703,-0.5 0.23829,-0.65234 0.25,-0.22656 0.625,-0.44141 0.89062,-0.69922 -0.20703,-0.125 -0.41016,-0.26562 -0.59766,-0.42578 -0.73046,-0.12109 -1.23828,-0.88281 -1.55468,-1.49219 -1.39063,-2.67578 -0.19141,-6.52344 1.10937,-9.0625 0,-0.10547 0.0156,-0.21094 0.0547,-0.30859 0.37891,-0.97266 1.34766,-2.8711 2.57422,-2.91797 0.24609,-0.22266 0.60937,-0.51563 0.67578,-0.76953 -0.0742,-0.0391 -0.20313,-0.0859 -0.25391,-0.10547 -0.25781,-0.10156 -0.50781,-0.21875 -0.76562,-0.32813 -0.22266,-0.0976 -0.33203,-0.32031 -0.33594,-0.54687 -0.51172,-0.74609 -0.72656,-2.23828 -0.63281,-3.05859 0.1875,-1.60547 0.69922,-3.1836 1.18359,-4.72266 0.13672,-0.44531 0.23828,-0.91406 0.48047,-1.31641 0.375,-0.8164 0.83203,-1.67578 1.90234,-1.47656 0.004,0 0.0117,0 0.0156,0.004 0.0273,-0.0274 0.0547,-0.0586 0.0742,-0.0859 0.10156,-0.13281 0.22265,-0.51953 0.1875,-0.67578 -0.0352,-0.0937 -0.1836,-0.25781 -0.24219,-0.39063 -0.14453,-0.34375 -0.13672,-0.66015 -0.10156,-1.0039 -0.0391,-0.0391 -0.0742,-0.0781 -0.11328,-0.11719 -1.35547,-1.52734 -0.6211,-4.02734 0.0312,-5.75 -0.0156,-0.0898 -0.0156,-0.17578 -0.004,-0.26563 0.0977,-0.63671 0.33203,-1.3789 0.57422,-1.96875 0.26562,-0.64062 0.70703,-1.40234 1.26172,-1.7539 z m 1.48437,0.19531 c 0.0508,0.043 0.10157,0.0898 0.14844,0.14453 1.64063,1.71094 0.76172,5 0.20703,7.01172 -0.28125,1.01563 -1.04687,3.04297 -2.30078,3.10938 0.0391,0.11328 0.082,0.22265 0.11328,0.32812 0.11719,0.41016 0.14844,0.87109 -0.004,1.27344 -0.0859,0.21875 -0.21094,0.42969 -0.36719,0.61328 0.38281,0.51172 0.61328,1.23047 0.6875,1.80859 0.17578,1.3125 -0.28906,2.67578 -0.67188,3.91407 -0.35937,1.16015 -0.80078,2.92578 -1.64062,3.95312 0.35937,0.30078 0.54297,0.72656 0.44922,1.25781 -0.0781,0.44922 -0.40235,1.08203 -0.73047,1.52344 0.74609,1.16797 0.52734,3.35547 0.44531,4.62891 -0.11328,1.76172 -0.48437,3.50781 -1.10937,5.15625 -0.27735,0.73828 -0.70313,1.71484 -1.25,2.39453 0.0703,0.0351 0.14453,0.0625 0.21875,0.0898 0.3789,0.13281 0.51953,0.55078 0.42578,0.90625 -0.0859,0.35156 -0.25782,0.74219 -0.47266,1.08594 0.73828,0.41797 0.87109,1.41406 1.04297,2.23047 0.45703,2.1914 0.65625,4.45312 0.58984,6.6914 -0.0391,1.27344 -0.15625,2.95313 -0.66797,4.21875 0.71485,0.17579 1.40625,0.65625 1.76172,1.26954 0.35157,0.60156 0.46094,1.29296 0.375,1.98437 -0.008,0.0625 -0.0156,0.125 -0.0312,0.19141 1.28516,-0.21094 3.1211,0.53515 4.09766,0.9375 2.8125,1.16406 6.37109,3.24609 6.86328,6.55859 0.0352,0.24609 0.0469,0.48438 0.0391,0.72656 0.80078,-0.1875 1.05078,0.39063 1.66016,0.7461 0.67187,0.39062 1.32031,0.24218 1.64062,1.20312 0.13672,0.40625 0.10938,0.77344 0.0508,1.14844 1.27734,-0.16797 3.01953,0.58594 4.02343,1.03906 2.16407,0.97656 4.14453,2.55078 5.77735,4.25781 0.0547,0.0586 0.0977,0.125 0.125,0.19532 1.44922,-0.0156 2.89453,-0.0547 4.34375,-0.12891 1.34765,-0.20703 4.42578,-1.16406 5.70703,-1.87109 0.125,-0.39453 0.27344,-0.77344 0.47656,-1.13282 0.62109,-1.11328 1.89063,-1.78125 2.39844,-2.90234 0.46484,-1.03125 0.50781,-2.23047 0.58203,-3.35156 -0.17188,-0.082 -0.32422,-0.1875 -0.46875,-0.31641 -3.05078,-0.41797 -5.87891,-1.27344 -8.63281,-2.67187 -0.78516,-0.39844 -0.28516,-2.07422 0.625,-1.76563 2.34765,0.79688 4.71484,1.41406 7.15234,1.83203 0.0273,-2.11328 0.86328,-4.125 1.39453,-6.14062 0.36719,-1.38672 0.71875,-1.94922 1.69141,-2.98438 1.03515,-1.10156 0.98047,-1.35937 1.39844,-2.77734 0.0859,-0.29688 0.18359,-0.59375 0.28906,-0.89063 -0.375,-0.15625 -0.69141,-0.39062 -0.9336,-0.70703 -0.004,0.004 -0.008,0.004 -0.0117,0.008 -0.84375,0.45703 -1.78907,0.10546 -2.64454,-0.11329 -0.82031,-0.20703 -1.83984,-0.26562 -2.30078,-1.10546 -0.21093,-0.38672 -0.11328,-0.88672 0.2461,-1.14844 0.76172,-0.54688 1.58984,-0.17969 2.39453,-0.0195 0.55078,0.11328 1.20312,0.15625 1.76562,0.35156 0.004,-0.39453 0.0469,-0.78906 0.11328,-1.17578 -4.93359,-0.25391 -12.96875,-3.9961 -13.95703,-9.10547 -0.10937,-0.5625 0.54297,-1.18359 1.00391,-0.64453 3.66016,4.3164 8.59375,5.38281 13.54687,7.45312 0.24219,-0.72265 0.51563,-1.4375 0.74219,-2.16406 -6.17578,-0.44922 -11.03906,-4.85156 -13.75,-10.23047 -3.86328,-7.65625 -1.9375,-16.59765 -0.71094,-24.65234 0.0703,-0.45703 0.26563,-0.92578 0.58594,-1.23438 -0.23047,-0.0859 -0.44531,-0.16406 -0.53906,-0.19531 -0.78125,-0.28906 -1.55859,-0.58594 -2.30078,-0.96094 -0.65625,-0.25 -1.31641,-0.47656 -1.98047,-0.69922 -1.39063,-0.45703 -2.79297,-0.86718 -4.19141,-1.28906 -0.69531,-0.20703 -1.97265,-0.53906 -2.58203,-0.89453 l -0.0234,-0.0117 -0.0195,-0.0156 c -0.21875,-0.16797 -0.42968,-0.34375 -0.63281,-0.52735 -1.18359,6.14844 -2.82422,12.21875 -3.81641,18.40235 -0.18359,1.14453 -1.66015,1.13672 -1.64062,-0.0703 0.18359,-10.62109 3.67578,-21.09375 5.66406,-31.46875 0.14844,-0.79296 1.19922,-0.75781 1.20313,0.0742 0.0273,3.1211 -0.28125,6.24219 -0.75782,9.32813 0.25,-0.0859 0.50391,-0.16406 0.75782,-0.24219 0,-0.0859 0.008,-0.17187 0.0234,-0.25781 0.42579,-2.38281 0.79297,-4.76172 0.86329,-7.1875 0.0586,-1.82813 0.0625,-3.61328 0.61718,-5.375 0.23828,-0.75781 1.27344,-0.75391 1.39453,0.0664 0.54297,3.64063 0.51172,8.63672 -0.89453,12.21485 3.27344,-0.75 6.58985,-0.86328 9.92188,-0.42578 1.51562,-9.47266 4.01562,-19.80078 1.20703,-29.22657 -2.89844,-9.71093 -10.35938,-16.8164 -18.60547,-22.23046 -15.43359,-10.13282 -35.46094,-18.60547 -40.53125,-38.26172 -1.80469,-7.00782 -1.54687,-13.90235 0.78125,-20.7461 4.16016,-12.20312 14.20703,-22.32422 23.47656,-30.93359 1.8125,-1.68359 3.3711,-2.19531 4.71875,-4.36719 0.0898,-0.14453 0.22657,-0.39843 0.14844,-0.57812 -0.27734,-0.64844 -2.55078,-0.64063 -3.125,-0.6211 -0.88672,0.0273 -1.89453,0.1211 -2.76172,0.32422 -5.49609,1.28516 -8.77734,3.80469 -13.10156,7.23438 -8.6875,6.88672 -15.23437,16.1289 -20.45703,25.82031 -3.457032,6.41797 -6.441408,13.22656 -7.675782,20.45312 -1.21875,7.1211 -0.640626,14.77735 2.746093,21.25391 3.304689,6.32422 8.976559,11.09766 13.550779,16.46484 1.4961,1.75391 2.92578,3.63672 4.76172,5.05469 1.51172,1.17188 3.26563,2.00781 4.94531,2.90235 7.42579,3.95312 14.0586,9.3789 19.40625,15.86718 l 0.125,0.15625 c 1.90235,0.13282 3.41407,1.64063 4.36719,3.22266 0.37891,0.62891 1.05469,1.63672 0.98438,2.44531 0.32421,0.3125 0.60156,0.60547 0.80859,1.01172 0.55078,-0.26562 1.25391,-0.28125 1.84375,0.0859 1.71094,1.0625 1.76953,3.95312 1.76562,5.74609 0,0.66016 -0.0664,1.55078 -0.36718,2.1875 0.3789,0.74219 0.44531,1.75 -0.0234,2.44922 0.93359,1.19531 0.36719,3.92188 0.0156,5.10938 -0.30468,1.03125 -0.85546,2.99218 -1.83984,3.69921 -0.0156,0.53907 -0.25,1.03516 -0.64062,1.35547 0.42968,0.38282 0.73437,0.95703 0.80468,1.47266 0.32032,2.22266 -1.00781,5.22656 -2.05859,7.15234 -0.0469,0.0899 -0.10156,0.17578 -0.16016,0.26172 0.0781,0.20703 0.11719,0.4336 0.0977,0.64453 -0.0508,0.54297 -0.38672,0.89844 -0.81641,1.11719 z m 15.76563,-21.10156 c -0.5586,-5.81641 -0.82422,-10.8125 -4.38281,-15.73438 -0.35157,-0.48828 0.21093,-1.48828 0.80859,-0.99609 4.63281,3.78516 5.60937,10.71094 5.34766,16.33594 -0.0508,1.11328 -1.64063,1.79297 -1.77344,0.39453 z m -6.71485,-19.52344 c -7.22265,-6.09375 -14.91796,-11.65234 -22.71875,-16.98047 -7.05468,-4.8164 -15.93749,-9.91015 -20.34765,-17.46484 -0.30469,-0.55078 0.33203,-1.34375 0.85156,-0.81641 12.87891,13.04297 30.04688,20.72656 43.26953,33.37891 0.76953,0.73437 -0.0898,2.69531 -1.05469,1.88281 z m 86.98829,19.85938 c 0.64453,0.55468 1.2539,1.16796 1.8125,1.84765 0.0195,-0.043 0.0352,-0.082 0.0547,-0.12109 -0.60547,-0.61719 -1.22656,-1.19141 -1.86718,-1.72656 z m -31.90235,83.34375 c -4.15234,3.44531 -8.58594,6.75781 -13.51172,8.4414 -0.0273,0.008 -0.0547,0.0156 -0.082,0.0234 -0.043,0.38281 -0.082,0.76562 -0.12109,1.15234 5.09375,-2.59765 9.48437,-5.9375 13.71484,-9.61718 z m -10.57422,34.30078 c -0.3164,0.0508 -0.62109,0.14843 -0.92187,0.25781 0.13672,0.33203 0.27734,0.66016 0.42969,0.98437 0.0547,-0.45703 0.21875,-0.91015 0.49218,-1.24218 z m 0.41016,2.98437 c 0.0586,0.10156 0.11719,0.20313 0.17969,0.30078 2.96484,4.8086 7.625,8.20313 13.0664,9.67578 5.92188,1.60547 12.34766,0.78516 17.63282,-2.35156 8.78125,-5.20703 12.46484,-13.84375 14.92187,-23.32031 0.88281,-3.40234 1.62109,-6.83984 2.26953,-10.29297 -2.40234,1.94141 -4.86719,3.80859 -7.38281,5.60547 -0.004,0.0117 -0.008,0.0234 -0.0117,0.0352 -0.67969,2.11718 -2.96484,3.0664 -4.6875,4.16796 -1.17187,0.75 -2.71875,2.07032 -4.21094,1.71875 -3.82422,2.36329 -7.7539,4.56641 -11.77734,6.57422 -0.11719,1.72657 -1.89453,2.78907 -3.31641,3.42969 -1.3789,0.62109 -3.17578,1.31641 -4.40625,0.125 -3.875,1.63672 -7.83593,3.09375 -11.87109,4.28125 -0.14844,0.043 -0.28516,0.0586 -0.40625,0.0508 z m 54.68359,-122.92578 c -0.46484,0.47266 -1.10547,-0.10937 -0.88672,-0.73047 0.41407,-1.15625 1,-2.24219 1.40625,-3.39844 0.45313,-1.29296 0.72266,-2.63671 1.03907,-3.96484 0.14062,-0.59766 0.90625,-0.58984 1.01562,-0.0664 0.30469,-0.33593 0.92969,-0.1875 0.89453,0.39063 -0.15625,2.58984 -0.95703,5.77344 -2.51172,7.88672 -0.33203,0.45312 -0.80468,0.26562 -0.95703,-0.11719 z m 13.2461,-48.90625 c 0.17968,-0.043 0.37109,0.0117 0.54687,0.22656 0.38672,0.47266 0.59766,1.02344 0.88672,1.55078 0.29688,0.54297 0.65234,1.04297 0.91797,1.60157 0.39844,0.84375 -0.70313,2.39843 -1.44922,1.35937 -0.73047,-1.01953 -1.35156,-2.55469 -1.47656,-3.80469 -0.0234,-0.22656 0.0547,-0.46875 0.1875,-0.64843 -0.25781,0.0977 -0.53125,0.0312 -0.74219,-0.32422 -1.79297,-3.09766 -2.90234,-6.83203 -3.59766,-10.33203 -0.40234,-2.03125 -1.35546,-5.76172 0.1211,-7.4961 0.3125,-0.37109 0.88281,-0.2539 1.04687,0.19532 0.0664,0.1875 0.0899,0.3125 0.0977,0.50781 0.008,0.14453 -0.0391,0.27344 -0.11328,0.375 0.45312,1.48828 0.15625,3.17187 0.41797,4.67969 0.2539,1.47656 0.65625,2.92187 1.11718,4.34375 0.72657,2.2539 1.75782,4.39843 2.3711,6.69531 0.0898,0.33984 -0.0742,0.77734 -0.33203,1.07031 z m 0.40234,23.33203 c 0.34766,0.84375 0.64844,1.73828 0.79297,2.64453 0.42578,1.48438 0.39062,2.89063 -0.39844,4.26172 -0.0547,0.0898 -0.11719,0.16797 -0.19531,0.23047 -0.10547,0.46094 -0.40234,0.91797 -0.91016,0.96094 -4.98437,0.40234 -8.88672,-6.0625 -10.84765,-9.86328 -1.34766,-2.61719 -2.57813,-5.1836 -2.96485,-8.14063 -0.22265,-1.70703 -0.70312,-4.48437 0.17578,-6.03125 0.375,-0.66015 0.91407,-1.18359 1.67188,-1.35156 2.31641,-0.51172 5.32031,2.72266 6.60937,4.36719 2.90235,3.69922 4.88282,8.38281 6.06641,12.92187 z m 12.41016,25.90625 c -0.80078,-1.6875 -0.8086,-3.66797 -1.01953,-5.49219 -0.21485,-1.875 -0.44141,-3.7539 -0.46094,-5.64453 -0.0117,-0.9375 1.25781,-1.41797 1.46875,-0.34375 0.375,1.88282 0.5625,3.79297 0.83984,5.6875 0.25781,1.75391 0.70313,3.50782 0.5625,5.29297 -0.0586,0.75 -0.97656,1.37891 -1.39062,0.5 z m 12.63281,-3.25 c -1.67969,-4.98437 -2.1875,-10.57031 -2.78516,-15.78125 -0.0976,-0.86719 1.05078,-1.4414 1.30078,-0.4375 1.25782,5.10547 2.60547,10.47266 2.83985,15.73828 0.0312,0.76172 -1.04688,1.40235 -1.35547,0.48047 z m -23.59766,-38.58203 c 5.22657,5.44531 7.91797,13.51953 8.33203,20.95313 0.0586,1.04296 -1.41796,1.60156 -1.59375,0.38671 -1.08593,-7.5664 -3.83593,-13.93359 -7.59375,-20.52734 -0.3125,-0.54687 0.33204,-1.35547 0.85547,-0.8125 z m -21.90625,-22.66797 c -0.0195,-0.60937 0.8711,-0.77734 0.95703,-0.12109 0.71485,5.67187 1.44532,11.32031 2.98438,16.84375 0.23828,0.84765 -0.95703,1.66406 -1.23047,0.67578 -1.57422,-5.65234 -2.74609,-11.51953 -2.71094,-17.39844 z m -0.6914,19.28906 c 0.29687,0.76172 -0.76172,1.59375 -1.14453,0.70704 -1.92579,-4.44922 -3.33594,-9.44141 -3.53907,-14.30079 -0.0273,-0.57031 0.80078,-0.75 0.92578,-0.14843 0.96094,4.67968 2.01954,9.27734 3.75782,13.74218 z m 25.80468,-5.29296 c -0.36718,-0.57032 0.39063,-1.44532 0.88282,-0.82032 2.11328,2.6875 3.95703,5.67188 5.45703,8.75 0.3125,0.64063 -0.60547,1.52735 -1.03125,0.78516 -1.70313,-2.94531 -3.47656,-5.84766 -5.3086,-8.71484 z m 18.86329,26.37109 c -0.004,0.69141 -0.94532,1.21094 -1.23829,0.40234 -1.5625,-4.26953 -1.51171,-8.95703 -3.15625,-13.1914 -0.22265,-0.57422 0.51172,-1.30469 0.94532,-0.6875 1.22656,1.75 1.71484,3.70312 2.17968,5.75 0.57422,2.52734 1.27735,5.11718 1.26954,7.72656 z m -37.36329,-43.92969 c -0.0469,-0.86328 1.19922,-1.27344 1.33594,-0.28515 0.76953,5.65625 1.76563,11.27734 2.73438,16.89843 0.18359,1.08594 -1.25,1.92188 -1.58203,0.63282 -1.44532,-5.61329 -2.1836,-11.46485 -2.48829,-17.2461 z m 47.90625,2.88672 c -0.082,-0.84375 1.08985,-1.33203 1.24219,-0.36328 1.03516,6.62891 2.75781,13.12109 4.03906,19.70312 0.17188,0.89063 -1.08593,1.875 -1.47656,0.75782 -2.22656,-6.42578 -3.12109,-13.35938 -3.80469,-20.09766 z m 13.39844,63.45703 c 0.14063,1.23047 -1.59765,2.14063 -1.75781,0.64063 -0.39844,-3.66797 -1.47656,-7.21875 -1.93359,-10.87891 -0.0742,-0.59375 0.70312,-1.27734 1.08593,-0.58203 1.75,3.16016 2.21094,7.27344 2.60547,10.82031 z M 196.00781,226.83984 c -6.65234,-14.39062 -11.0625,-30.78906 -10.84375,-46.71875 0.008,-0.78125 1.11719,-1.125 1.2461,-0.22265 2.21093,15.79297 5.05078,30.8125 11.39453,45.55078 0.50781,1.18359 -1.10547,2.88281 -1.79688,1.39062 z m 98.85547,47.19922 c 8.41406,8.26953 10.92578,21.2461 11.62891,32.57813 0.0703,1.13672 -1.50782,1.78515 -1.75,0.46484 -2.10157,-11.47656 -3.46485,-22.21484 -10.86719,-31.74219 -0.47656,-0.61328 0.28906,-1.98437 0.98828,-1.30078 z m 13.28906,13.32813 c -0.17578,-0.71875 0.79688,-1.39844 1.17578,-0.59375 2.90625,6.16406 4.5,14.33593 3.66016,21.12109 -0.10937,0.89453 -1.36328,1.15234 -1.5,0.13672 -0.45312,-3.44531 -0.40625,-6.94141 -0.96484,-10.375 -0.56641,-3.47656 -1.54297,-6.86719 -2.3711,-10.28906 z m -60.42578,-54.23047 c 0.0117,0.0312 0.0195,0.0586 0.0312,0.0898 0.33594,0.96094 -0.87109,2.20703 -1.47265,1.05469 -2.39844,-4.62109 -4.55469,-10.54297 -2.86719,-15.73438 0.11719,-0.35546 0.4414,-0.57812 0.7539,-0.58203 0,-0.0664 0,-0.13672 0.004,-0.20703 0.11719,-7.50781 4.78906,-14.1289 12.98438,-12.62109 0.875,0.16015 0.66406,1.66797 -0.13672,1.77344 -2.09766,0.28515 -4.69532,0.53125 -6.54688,1.61718 -5.58984,3.27735 -4.51172,9.82422 -3.3164,15.12891 1.3789,6.10547 3.69921,10.64844 9.0625,14.13281 0.91406,0.59375 0.28515,2.87891 -0.88672,2.37891 -3.37891,-1.4375 -5.85938,-3.97656 -7.60938,-7.03125 z m 8.69141,-20.75781 c -0.55078,-0.35938 -1.16406,-0.60157 -1.75,-0.4961 -0.82813,0.14844 -0.89063,1.44141 -0.79297,2.51563 0.34375,-0.60157 0.76953,-1.17188 1.26562,-1.57032 0.40235,-0.32031 0.83594,-0.44531 1.27735,-0.44921 z m 1.26562,8.32812 c 0.14453,-0.20703 0.14453,-0.44922 0.0899,-0.69531 l -0.008,-0.0391 -0.004,-0.0391 c -0.008,-0.46093 -0.11328,-0.89453 -0.31641,-1.32422 -0.16797,-0.39062 -0.6289,-1.04296 -0.94922,-1.38281 -0.16015,-0.0703 -0.33203,-0.11719 -0.5039,-0.125 -0.0937,-0.004 -0.1875,-0.0234 -0.27344,-0.0586 -0.0703,0.0234 -0.13672,0.0391 -0.20703,0.043 -0.125,0.6289 -0.0547,1.3164 0.0703,1.92578 0.0898,0.44922 0.40234,1.79297 0.73047,2.24609 0.0664,-0.008 0.12891,-0.0156 0.19531,-0.0234 0.14844,-0.14843 0.32813,-0.25781 0.54297,-0.29687 0.22266,-0.0391 0.44141,-0.10938 0.63281,-0.23047 z m 2.5586,7.80078 c 1.32031,1.63672 3.16797,3.45313 5.03125,3.76563 0.21484,-0.95313 0.25781,-1.72266 -0.0352,-2.71875 -0.0703,-0.20313 -0.0469,-0.42969 0.0195,-0.63672 -0.12109,-0.30078 -0.25781,-0.59766 -0.40234,-0.89063 -0.33985,-0.6875 -0.65625,-1.38672 -0.92578,-2.10547 -0.19141,0.58594 -0.44922,1.14844 -0.83594,1.625 -0.875,1.08204 -1.84375,1.25391 -2.85156,0.96094 z m -64.56641,139.96875 c 0.18359,0.71094 0.39453,1.41797 0.62891,2.11719 0.80859,-0.17578 1.52734,-0.4375 2.23437,-0.92188 0.52735,-0.35937 0.92578,-1.02343 1.4375,-1.45312 0.0547,-0.0469 0.20313,-0.16797 0.30078,-0.26953 -0.0312,-0.0117 -0.0586,-0.0195 -0.0781,-0.0234 -0.42188,-0.11719 -1.19141,0.0859 -1.63281,0.14063 -0.96485,0.12109 -1.92969,0.2539 -2.89063,0.41015 z m 0.19531,-29.18359 c -0.14843,0.97265 -0.28906,1.94531 -0.42187,2.92187 1.66797,-0.61718 3.26953,-1.43359 4.80078,-2.35156 -1.47656,0.004 -2.94531,-0.20703 -4.37891,-0.57031 z M 205.5,336.20703 c -3.00781,0.59766 -6.16797,0.63672 -9.07422,-0.39062 -0.082,0.49609 -0.16406,0.99609 -0.24219,1.49609 1.33594,0.16016 2.6836,0.36719 4.03125,0.30859 1.44532,-0.0625 2.85157,-0.5039 4.28907,-0.65234 0.33593,-0.25 0.66796,-0.50391 0.99609,-0.76172 z m -18.39453,-27.83984 c -1.21875,-1.74219 -1.6836,-4.02344 -1.27735,-6.10157 0.36719,-1.85937 1.89063,-2.99609 2.13672,-4.73046 -1.40625,-1.40625 -2.76562,-2.48047 -3.3164,-4.51172 -0.35547,-1.3125 0.30078,-3.31641 -0.45313,-4.41016 -1.18359,-1.71094 -2.94922,-0.77734 -3.80078,-1.84375 -1.27734,-1.59375 -2.44922,-3.08984 -3.92969,-4.50781 -1.42968,-1.3711 -3.38672,-2.23438 -5.25781,-2.96485 0.0469,0.27344 0.043,0.55469 0,0.82422 -1.00781,6.64844 -2.625,13.96485 -0.12109,20.46875 0.76172,1.97657 1.96484,3.85157 3.40234,5.40625 2.44922,2.64844 5.89844,4.65625 9.61328,4.32032 0.0859,-0.008 0.16797,-0.008 0.25391,0 0.0664,-0.0586 0.13672,-0.11329 0.21094,-0.15625 0.48046,-0.28125 0.63671,-0.0703 0.94921,-0.16797 0.40625,-0.12891 0.59766,0.19531 0.85547,0.35156 0.65625,-0.10547 0.71875,-1.44531 0.73047,-1.95703 0,-0.004 0,-0.0117 0.004,-0.0195 z m -50.15625,59.33593 c 0.23047,0 0.5,0.0937 0.66406,0.13672 0.44141,0.11328 0.88281,0.24219 1.31641,0.3711 0.4375,0.13281 0.8789,0.26953 1.30859,0.42187 0.20703,0.0742 0.55469,0.17188 0.73047,0.3711 3.125,0.98828 6.25391,1.97265 9.40234,2.8789 0.38672,-0.16015 1.06641,0 1.35938,0.0508 0.83203,0.14063 1.66797,0.33203 2.48828,0.53125 0.82031,0.20313 1.65234,0.42188 2.45703,0.6836 0.32031,0.10156 1.13672,0.3125 1.30859,0.71875 3.6875,0.83984 7.39844,1.48047 11.14063,1.8125 -1.05078,-1.22657 -1.26172,-3.44141 0.16016,-4.51172 0.66406,-0.4961 1.42578,-0.58985 2.20312,-0.78906 0.86719,-0.21875 1.70313,-0.5625 2.54688,-0.85547 0.80468,-0.27735 1.66796,-0.48828 2.52734,-0.52735 -0.86719,-0.98828 -1.67578,-2.0625 -1.94531,-3.36718 -0.0273,-0.12891 -0.0469,-0.26172 -0.0625,-0.39454 -2.19922,0.23438 -4.73828,0.50391 -6.81641,-0.22265 -0.64453,-0.22656 -0.42578,-1.26953 0.23828,-1.26563 1.39453,0.008 2.80078,-0.30468 4.19141,-0.41797 0.875,-0.0703 1.75,-0.15625 2.625,-0.23828 0.73047,-2.20312 2.58984,-3.69531 2.58984,-6.22656 -2.39062,-0.78906 -2.49609,-3.27734 -2.26562,-5.46484 -16.57422,1.74218 -33.28516,-0.73828 -49.3125,-4.95703 -10.40625,-2.73829 -20.51172,-6.46485 -30.851565,-9.41797 -8.507813,-2.42969 -17.847656,-5.29688 -26.78125,-4.57032 -15.292969,1.2461 -31.03125,8.57813 -38.636719,22.46875 -2.210937,4.03125 -3.699218,8.53907 -4.472656,13.0625 -2.320312,13.51954 1.613281,29.3125 16.023438,33.1875 -0.03906,-0.0391 -0.08203,-0.0781 -0.125,-0.11328 -1.378907,-1.25 -2.386719,-3.57422 -4.039063,-4.34765 -0.08594,-0.0391 -0.160156,-0.0937 -0.222656,-0.16407 -0.01172,0 -0.02734,-0.004 -0.04297,-0.008 -0.203125,0.13672 -0.449219,0.16406 -0.707031,0.0391 -0.742188,-0.35546 -1.628907,-0.57812 -2.105469,-1.28515 -0.08203,-0.0195 -0.164062,-0.0508 -0.242188,-0.0937 C 32.734375,394.6875 32.042969,393.69141 31.675781,392.75 30.113281,391.64844 30,390.44922 29.5,388.70703 c -0.675781,-2.36328 -2.0625,-4.34375 -2.316406,-6.85937 -0.253906,-2.48829 0.503906,-4.87891 0.703125,-7.33204 0.101562,-1.27343 0.09375,-2.34375 0.882812,-3.41406 1.386719,-3.10156 2.667969,-6.24609 3.929688,-9.39844 0.847656,-2.10937 1.695312,-4.26171 3.402343,-5.84765 0.867188,-0.80469 1.917969,-1.26563 2.867188,-1.9375 1.636719,-1.16016 2.738281,-2.63672 3.882812,-4.25 1.234376,-1.73828 2.394532,-3.38281 4.332032,-4.39844 0.816406,-0.42969 1.121094,0.85547 0.515625,1.28906 -2.414063,1.7461 -3.71875,4.35547 -5.628907,6.55469 -1.265624,1.44922 -2.832031,2.25391 -4.320312,3.40625 -4.375,3.39453 -4.824219,10.16797 -7.867188,14.68359 -0.0039,0.0234 -0.01172,0.0469 -0.02344,0.0703 l -0.0078,0.0156 -0.0078,0.0117 c -1.003906,1.82813 -0.480469,3.16016 -0.660156,5.08594 -0.160156,1.73047 -0.726563,3.39062 -0.558594,5.14453 0.07031,0.48828 0.839844,2.12891 1.058594,2.65234 0.269531,0.63672 0.542968,1.27735 0.785156,1.92578 0.09766,0.25 0.324219,0.75 0.269531,1.10157 0.300781,0.92578 0.449219,1.99218 0.84375,2.89843 0.246094,-0.58984 0.714844,-1.02734 1.484375,-0.96093 0.785156,0.0664 1.359375,0.71875 1.902344,1.21875 0.554688,0.5039 1.089844,1.03515 1.5,1.67187 0.445312,0.69141 0.726562,1.47266 0.789062,2.28906 0.195313,0.0508 0.367188,0.16016 0.496094,0.32422 1.671875,0.46094 2.285156,1.75 3.347656,2.98828 1.355469,1.57813 3.082032,2.56641 5.011719,3.19922 -1.167969,-2.01172 -3.8125,-4.41015 -5.296875,-5.89062 -0.660156,-0.66016 -1.328125,-1.3086 -1.988281,-1.96875 -0.121094,-0.0547 -0.21875,-0.14063 -0.296875,-0.25 -0.04297,-0.0508 -0.06641,-0.10547 -0.101562,-0.16016 -1.632813,-1.64062 -3.230469,-3.375 -4.414063,-5.375 -2.914063,-4.92187 -1.058594,-11.13281 0.808594,-16.08203 4.261719,-11.30859 17.070312,-24.26172 29.832031,-24.35156 10.832031,-0.0781 22.074219,4.60156 32.292969,7.83203 8.261719,2.60937 16.476559,5.35547 24.695309,8.09375 0.3711,-0.10547 1.00781,0.20312 1.25781,0.29687 0.20704,0.0742 0.73047,0.21875 1.01563,0.46094 4.33594,1.4375 8.67969,2.86328 13.03125,4.25781 z m 35.23047,8.17188 c 1.91406,0.082 3.83984,0.0703 5.76953,-0.043 0.10937,-0.26953 0.23828,-0.53125 0.3789,-0.78906 0.45704,-0.85938 1.6211,-1.375 1.375,-2.58203 -0.10937,-0.53907 -0.20703,-1.02735 -0.55859,-1.35547 -0.14844,0.3125 -0.41016,0.55469 -0.80078,0.5664 -0.88672,0.0234 -1.81641,-0.14062 -2.69531,0.004 -0.67578,0.11328 -1.33203,0.36719 -1.98828,0.5625 -0.71875,0.21484 -1.85547,0.26172 -2.48047,0.59375 l -0.0977,0.0547 -0.10937,-0.008 c -0.31641,-0.0156 -0.30469,0.15625 -0.27344,0.44531 l 0.0156,0.16015 -0.10156,0.12891 c -0.18359,0.23438 -0.26562,0.39063 -0.008,0.58203 l 0.0469,0.0352 0.0352,0.0469 c 0.24219,0.32813 0.85547,0.59375 1.21484,0.77735 0.29688,0.15234 0.36719,0.51562 0.27735,0.82031 z m 272.45703,-69.85156 c 0.69531,0.28515 1.3789,0.58593 2.0625,0.90234 0.79687,-1.59766 2.96094,-2.80859 4.42187,-3.60156 1.48438,-0.8125 4.64063,-2.54688 5.85157,-0.53125 0.58203,-0.52344 1.16015,-1.04688 1.73437,-1.57422 -0.41797,-0.92578 1.67188,-3.07813 2.16016,-3.62109 1.77343,-1.97657 3.69531,-3.86329 5.57031,-5.74219 1.50781,-1.51172 3.02734,-3.02344 4.49219,-4.57813 0.91015,-0.96093 2.12109,-2.21093 2.82031,-3.33203 5.12891,-8.19922 8.29297,-17.51953 11.63672,-26.53906 4.64453,-12.51563 5.03125,-28.33203 2.23828,-41.31641 -4.16797,-19.36718 -18.70313,-31.28125 -36.96094,-37.10156 -6.70312,-2.13672 -13.52734,-3.13672 -20.54297,-2.22266 -2.30859,0.30079 -4.58984,0.78125 -6.89062,1.125 -0.375,0.26563 -1.1875,0.26954 -1.4961,0.29297 -0.96875,0.0781 -1.95312,0.10547 -2.92187,0.11328 -1,0.0117 -2.03125,0.004 -3.02734,-0.0781 -0.30079,-0.0234 -1.22266,-0.0703 -1.51954,-0.41797 -0.90625,-0.33594 -2.93359,-1.53125 -3.59375,-1.89453 -0.84765,-0.47266 -1.69921,-0.95313 -2.53906,-1.44531 -0.27734,-0.16016 -0.55859,-0.32422 -0.83203,-0.4961 -0.082,-0.0508 -0.16406,-0.10156 -0.24219,-0.15234 -0.0898,-0.0625 -0.16797,-0.13672 -0.21484,-0.22656 -0.83594,-0.8125 -1.60156,-1.69532 -2.32422,-2.60938 -0.82812,0.20313 -2.15625,-1.92187 -2.48828,-2.43359 -0.29297,-0.44922 -1.57422,-2.33203 -1.32422,-3.10156 -0.61719,-0.96485 -1.22656,-1.9336 -1.85547,-2.89063 -6.12109,-9.29297 -16.55859,-14.75 -27.64453,-11.53516 -0.64844,0.1875 -1.28125,0.42188 -1.90625,0.67969 -0.17187,0.36719 -0.84766,0.63281 -1.12109,0.75781 -0.26563,0.1211 -0.88282,0.44532 -1.27344,0.35938 -1.33203,0.69141 -2.62109,1.45312 -3.92188,2.19531 -0.17578,0.38281 -0.85156,0.66016 -1.14453,0.79688 -0.73437,0.35156 -1.5039,0.66015 -2.26562,0.96093 -0.76172,0.29688 -1.52735,0.58594 -2.29688,0.86719 -0.19531,0.0703 -0.74609,0.34375 -1.14453,0.35156 -1.34765,0.17579 -2.8789,0.13282 -4.23828,0.11329 -0.96094,-0.0117 -1.92187,-0.0312 -2.88281,-0.043 -0.36719,-0.004 -0.76953,-0.0156 -1.16406,-0.008 2.24609,3.33204 6.21484,5.2461 10.22656,5.1211 4.43359,-0.14063 8.10937,-2.44141 11.84765,-4.5625 6.51954,-3.70313 12.4336,-2.85547 17.38672,2.85547 5.58203,6.4414 6.73438,15.25 11.67578,22.01562 5.76172,7.88672 15.8086,9.1836 24.89063,9.00391 5.23437,-0.10156 10.47656,-0.58594 15.69531,-0.15625 12.8125,0.2539 25.2461,5.07812 32.30469,16.25781 5.84375,9.25781 7.25781,20.69922 6.78906,31.4375 -0.41015,9.45703 -1.5625,21.31641 -6.41406,29.60547 -1.97656,3.37891 -5.15625,5.76172 -6.92969,9.28906 -1.85547,3.6836 -3.53906,7.42188 -5.85937,10.85156 -4.11328,6.08204 -9.16016,11.58985 -14.82422,16.25782 z m -88.92578,62.04687 c 0.71875,-4.78906 1.88672,-9.48047 3.61718,-14.01172 3.6875,-9.66797 9.28516,-18.65234 15.9961,-26.51953 -1.38672,-0.30859 -2.79688,-0.6875 -4.0625,-1.29297 -0.7461,-0.35547 -1.31641,-0.89453 -1.48438,-1.6875 -2.26953,-0.85156 -4.49609,-1.80468 -6.68359,-2.84765 -1.77344,0.51562 -3.79297,-0.63282 -5.34375,-1.38672 -1.85547,-0.90235 -4.35938,-1.90235 -4.80859,-4.19922 -1.37891,-0.85938 -2.73829,-1.74609 -4.08204,-2.65625 -0.0664,0.0273 -0.13671,0.0508 -0.21093,0.0586 -2.625,0.32813 -4.96485,-1.20312 -6.88672,-2.8125 -1.25391,-1.05468 -2.51172,-2.43359 -2.2461,-4.17968 -1.10546,-0.89063 -2.19921,-1.80079 -3.26562,-2.73829 -1.51172,1.83985 -4.19531,-0.65625 -5.34766,-1.89453 -1.12109,-1.20312 -3.19531,-3.83984 -1.67578,-5.375 -0.5039,-0.65234 -0.99609,-1.3164 -1.45703,-1.99609 0.63672,7.52734 2.375,14.96875 4.47266,22.20703 5.26172,18.14453 13.61328,35.26172 23.46875,51.33203 z m 5.88672,80.31641 c -0.28907,0.42969 -0.5586,0.875 -0.76954,1.34765 -0.11718,0.34766 -0.21875,0.70313 -0.34765,1.04688 -0.0469,0.12891 -0.0977,0.25781 -0.14844,0.38672 -0.0781,0.28906 -0.15625,0.58203 -0.21484,0.89062 -0.0274,0.125 -0.0508,0.25 -0.0703,0.375 0.29297,0.10547 0.58204,0.21485 0.875,0.32032 0.21485,-0.26172 0.48829,-1.05469 0.58204,-1.28907 0.14843,-0.42187 0.73828,-2.87109 0.375,-3.16797 -0.0469,-0.0156 -0.17969,0.043 -0.21094,0.0586 -0.0234,0.0117 -0.0469,0.0234 -0.0703,0.0312 z m 2.76562,-7.96094 c -0.0703,-0.0625 -0.14062,-0.12891 -0.21484,-0.19531 -0.22657,0.10156 -0.44922,0.20703 -0.67578,0.30859 -0.14063,0.66406 -0.31641,1.31641 -0.48438,1.97656 -0.15234,0.60547 -0.56641,1.70313 -0.41797,2.3086 0.19922,0.80469 1.17188,0.89844 1.58203,0.23047 0.26953,-0.42969 0.36719,-1.16407 0.47657,-1.66407 0.13671,-0.65234 0.25,-1.36718 0.12109,-2.02734 -0.0625,-0.30469 -0.19141,-0.68359 -0.38672,-0.9375 z m -0.0312,9.82422 c -0.34766,0.46875 -0.69922,0.94141 -0.9375,1.47656 -0.16406,0.37891 -0.29297,0.77344 -0.37891,1.20313 -0.0508,0.19922 -0.0781,0.39843 -0.0781,0.60156 0.15625,0.0312 0.30859,0.0586 0.46484,0.0898 l 1.26953,-2.45312 c 0.0352,-0.39844 -0.0703,-0.69141 -0.33984,-0.91797 z m 2.625,-3.55078 c 0.14453,0.0273 0.46094,-0.46094 0.51953,-0.5625 0.32813,-0.57813 0.53516,-1.31641 0.64453,-1.96875 0.11328,-0.65235 0.16797,-1.41797 0.0508,-2.07422 -0.0195,-0.10938 -0.15234,-0.67578 -0.29687,-0.70313 -0.14453,-0.0234 -0.46484,0.46485 -0.51953,0.5625 -0.32813,0.57813 -0.53516,1.32032 -0.64844,1.96875 -0.11328,0.65235 -0.16406,1.42188 -0.0469,2.07422 0.0195,0.11328 0.15234,0.67969 0.29687,0.70313 z m 92.45313,-43.98047 c -0.23438,-0.67969 0.33203,-2.17578 0.44531,-2.51172 0.58984,-1.74219 1.33984,-3.49219 2.11328,-5.16406 0.76172,-1.64453 1.60547,-3.35547 2.57031,-4.89453 0.27344,-0.4336 1.10547,-1.82422 1.85938,-1.95703 1.625,-4.23047 3,-8.5625 4.14843,-12.94532 3.0625,-11.67187 4.06641,-21.42578 0.5,-33.16406 -3.46484,-11.39062 -10.37109,-22.65234 -19.46875,-30.40625 -0.51171,0.004 -0.88281,-0.35937 -1.08593,-0.82031 -17.04688,-7.34766 -34.70313,-8.47656 -51.41016,0.48047 -3.57422,1.91797 -6.96484,4.17187 -10.16016,6.67578 -0.10937,0.23047 -0.36718,0.44531 -0.50781,0.58203 -0.41797,0.40625 -0.84765,0.80078 -1.27734,1.19531 -1.29297,1.1875 -2.60938,2.35547 -3.91797,3.52344 -1.04297,0.92969 -2.08984,1.85937 -3.13281,2.78906 -0.082,0.0859 -0.16016,0.17188 -0.23828,0.26172 -0.14454,0.33594 -0.38282,0.64453 -0.72266,0.78906 -5.04297,5.52735 -9.40234,11.71485 -12.99219,18.27735 -1.70312,3.11328 -3.14062,6.34765 -4.32031,9.6875 0.30078,-0.23828 0.63281,-0.38672 0.99609,-0.39453 0.1211,-0.10938 0.26563,-0.1836 0.4375,-0.19532 2.53125,-0.17968 3.92188,2.10938 3.72657,4.41407 -0.1836,2.15625 -1.98829,5.65625 -4.39844,5.98828 0.71875,0.52343 1.29687,1.30859 1.5039,2.11328 0.59375,2.30859 -0.60937,5.6289 -2.51171,7.05469 -0.34375,0.25781 -0.69532,0.4414 -1.03907,0.55078 1.54688,0.96875 2.10157,3.12109 1.9375,5 -0.14062,1.57422 -0.7539,4.24218 -1.96093,5.59765 0.043,0.0234 0.0859,0.0469 0.1289,0.0703 2.37891,1.30468 1.21094,4.84375 0.60547,6.83593 -0.37109,1.22657 -1.51953,3.08203 -2.86719,2.65235 0.004,0.0273 0.008,0.0547 0.0117,0.082 0.0274,0.11328 0.043,0.22656 0.043,0.34375 0.0703,0.59375 0.14063,1.1875 0.21875,1.78125 0.60547,-0.71094 1.82031,-0.98047 2.78125,-0.83203 2.26172,0.34375 2.94531,2.87109 2.46094,4.80468 -0.375,1.48829 -1.81641,5.04297 -3.89844,3.74219 -0.0664,-0.043 -0.12891,-0.0859 -0.19141,-0.13281 0.14063,0.83984 0.3125,1.80469 0.44922,2.36328 0.0547,-0.082 0.10547,-0.16016 0.14844,-0.21484 0.28906,-0.36328 0.64844,-0.63672 1.11328,-0.72266 1.84766,-0.34766 3.08594,2.46484 3.29688,3.91797 0.23437,1.58594 0.008,5.38672 -1.92188,5.87891 -0.33203,0.082 -0.64062,0.0664 -0.91797,-0.0312 0.20313,1.08984 0.39844,2.17968 0.58203,3.27343 0.22657,-0.67968 0.53907,-1.41015 1.25391,-1.60937 1.12891,-0.31641 2.32422,0.99609 3.01953,1.73047 1.5586,1.64453 1.52344,3.67578 0.8086,5.69922 -0.72657,2.05859 -2.78516,2.21093 -4.17969,0.84765 0.0664,0.71094 0.12109,1.42188 0.16406,2.13281 1.23047,-0.74609 2.77344,0.043 3.38281,1.46094 0.082,0.19531 0.15235,0.39453 0.20703,0.60547 0.0859,-0.80078 0.28516,-1.58984 0.60547,-2.33203 0.043,-0.0977 0.10547,-0.18359 0.1836,-0.24609 0.0976,-0.21875 0.26562,-0.40625 0.50781,-0.46875 0.92969,-0.2461 1.70703,0.082 2.26562,0.6875 0,-0.27735 0,-0.55469 -0.004,-0.83204 -0.95703,-0.13281 -1.74219,-1.33593 -2.01172,-2.15234 -0.60938,-1.83594 -0.65625,-4.01172 -0.29297,-5.90625 -0.0156,-0.28906 0.0898,-0.62109 0.33203,-0.78516 0.61719,-0.41406 1.26953,-0.34765 1.85156,-0.0508 -0.0234,-1.18359 -0.0508,-2.37109 -0.0937,-3.55859 -0.3125,0.81641 -0.77734,1.65234 -1.47656,1.83594 -1.07812,0.28906 -1.9414,-0.9336 -2.46875,-1.6875 -1.34375,-1.91407 -1.77734,-4.32032 -1.18359,-6.57422 -0.0274,-0.0977 -0.0312,-0.19922 -0.0117,-0.30469 0.39453,-2.34375 3.00781,-2.32812 4.43359,-0.91016 0.0664,0.0664 0.12891,0.13282 0.1875,0.20313 -0.16406,-1.47266 -0.375,-2.93359 -0.64453,-4.39063 -0.76172,-4.11328 -1.65625,-8.25 -1.53515,-12.45703 0.47265,-16.875 7.61328,-36.74609 19.6914,-48.78125 5.28906,-5.27343 11.76563,-9.66406 18.57813,-12.71875 8.41015,-3.77343 17.95703,-5.75781 27.13281,-4.19922 0.22266,-0.10546 0.56641,-0.004 0.77734,0.0352 0.375,0.0742 0.75391,0.16016 1.12891,0.24609 0.375,0.0859 0.75,0.17579 1.12109,0.27344 0.19141,0.0508 0.51172,0.10547 0.6836,0.26953 0.38672,0.11328 0.76953,0.22657 1.15234,0.35157 16.05859,5.15234 19.61719,24.51953 18.07031,39.19921 -1.82422,17.3711 -9.91015,36.71485 -26.21484,45.06641 -18.59375,9.52344 -38.23047,8.24609 -56.92188,-0.0664 0.44141,5.51954 0.52735,11.0586 0.48438,16.59375 10.63281,3.21094 21.87891,4.46485 32.96094,4.36719 5.4414,-0.0469 10.92578,-0.35156 16.28906,-1.30859 0.30469,-2.26953 6.44922,-3.74219 8.01953,-4.13672 1.8125,-0.46094 3.64844,-0.84766 5.48828,-1.20313 0.63672,-0.12109 1.27735,-0.24218 1.91406,-0.35937 0.23829,-0.043 0.57032,-0.0898 0.8125,-0.15625 0.0274,-0.0234 0.0586,-0.043 0.0937,-0.0664 2.15235,-1.21484 4.19922,-2.60547 6.13672,-4.13672 0.1211,-0.7539 1.10547,-1.94921 1.375,-2.30468 1.09766,-1.45313 2.30469,-2.86328 3.52344,-4.21875 1.21875,-1.35938 2.50391,-2.72657 3.85156,-3.95703 0.40235,-0.36329 1.67188,-1.60547 2.44532,-1.54297 1.04296,-1.47266 2.03906,-2.97657 2.96875,-4.52344 z m -98.85547,-38.40234 c -0.46094,-0.45704 -0.7461,-1.11329 -0.90625,-1.82813 -0.21875,0.92969 -0.41797,1.86719 -0.60157,2.80469 0.0117,-0.0117 0.0234,-0.0274 0.0312,-0.043 0.42188,-0.57422 0.9375,-0.86328 1.47657,-0.93359 z m -2.3086,9.94921 c -0.13281,-0.10156 -0.26172,-0.21875 -0.38281,-0.34765 -0.0234,0.28125 -0.043,0.5625 -0.0625,0.84375 0.10938,-0.20313 0.25781,-0.38281 0.44531,-0.4961 z m 9.05078,58.20704 c -0.14843,1.03906 -0.48046,2.05859 -0.8789,2.89843 -0.72656,1.53516 -2.00781,1.55469 -2.84766,0.52735 -0.0625,0.86718 -0.14844,1.73437 -0.2539,2.59765 0.875,-0.39843 2.02734,0.29688 2.55859,1.47657 0.19141,-0.51172 0.43359,-1.00391 0.72266,-1.47266 0.008,-0.0352 0.0156,-0.0703 0.0273,-0.10156 0.67187,-2.15625 2.625,-0.54688 3.0625,0.83984 0.0703,0.21875 0.125,0.4375 0.16797,0.66406 0.10156,-0.41797 0.1914,-0.83203 0.24609,-1.21484 0.16797,-1.14063 0.29688,-2.28125 0.39063,-3.42969 -0.24219,0.34375 -0.58594,0.62891 -1.03516,0.60547 -0.99609,-0.0586 -1.74219,-1.72656 -1.97266,-2.5625 -0.0742,-0.27344 -0.14062,-0.55078 -0.1875,-0.82812 z m 3.7461,-39.21875 c 2.60547,2.5664 5.21484,4.6289 8.42578,6.41796 0.76172,0.42579 0.30859,2.03516 -0.61719,1.8125 -3.02734,-0.73046 -5.71484,-3.05859 -7.60547,-5.60546 0.0274,0.2539 0.0586,0.5039 0.0899,0.75781 0.54687,0.48047 1.05468,1.0039 1.60547,1.47656 0.78125,0.66797 1.62109,1.26953 2.40625,1.9375 0.70312,0.59766 0.0859,2.23438 -0.875,1.70313 -0.92579,-0.51172 -1.83204,-1.17969 -2.63672,-1.91797 0.0664,0.40625 0.1289,0.8164 0.19531,1.22265 0.23437,0.16407 0.46484,0.33594 0.70312,0.4961 0.50782,0.35156 1.03907,0.66797 1.58594,0.95703 0.92188,0.49219 0.15235,2.41015 -0.85156,1.82031 -0.35156,-0.20703 -0.70313,-0.42187 -1.04297,-0.64453 0.0742,0.58984 0.14844,1.17969 0.21484,1.76953 0.12891,0.0156 0.25782,0.0469 0.38282,0.10547 24.10547,11.22266 57.48437,10.50781 72.1914,-15.03906 5.94532,-10.32813 9.35547,-25.17188 8.07813,-37.54297 -0.69531,8.55078 -2.17188,16.82812 -6.125,24.64062 -5.0625,10.01172 -14.40235,16.69141 -24.80469,20.36328 -10.1875,3.59375 -19.78125,4.03516 -30.24219,1.31641 -7.38281,-1.91406 -16.2539,-5.01172 -21.08984,-11.31641 -0.0195,0.40625 -0.0352,0.8125 -0.0469,1.21875 1.14844,1.53516 2.41016,2.95313 3.82422,4.2461 0.72657,0.66797 -0.0703,2.42578 -0.96093,1.69922 -1.07032,-0.86719 -2.02344,-1.87891 -2.85157,-2.98047 0.0117,0.35937 0.0312,0.72265 0.0469,1.08594 z m 35.05078,-59.95313 c -0.75,-0.0117 -1.5,-0.0391 -2.25,-0.0664 -12.55078,6.52344 -22.59375,18.03516 -27.60156,31.24219 -2.50782,6.60547 -4.36328,13.63281 -5.02344,20.6836 10.0625,12.03906 32.21484,14.51171 46.53125,10.54687 11.24609,-3.10937 22.27344,-9.68359 27.45312,-20.55859 2.48438,-5.21094 3.56641,-11.05469 4.90625,-16.63672 1.16407,-4.86328 0.78125,-9.72656 1.17188,-14.65235 -2.88672,-8.03125 -8.44531,-13.49609 -16.84766,-15.46093 -0.23047,0.0937 -0.46093,0.18359 -0.6914,0.27343 -0.40625,1.75 -2.02735,2.55469 -3.59375,3.16016 -2.16797,0.83984 -5.15235,1.86719 -7.09766,0 -0.0156,-0.0117 -0.0312,-0.0273 -0.0469,-0.0469 -2.47266,0.48437 -4.97266,0.84375 -7.48047,1.08984 -0.5,1.20703 -1.91407,1.41016 -3.09766,1.56641 -1.91016,0.25781 -4.48437,0.48828 -6.11719,-0.75782 -0.12109,-0.0976 -0.1914,-0.23437 -0.21484,-0.38281 z m 4.57031,-3.49609 18.76172,-3.14453 c -2.40625,-0.23829 -4.94141,-0.0508 -7.25781,0.28125 -3.57422,0.51171 -7.16016,1.4414 -10.59375,2.5625 -0.30469,0.0976 -0.60547,0.19921 -0.91016,0.30078"
       style="fill:#191917;fill-opacity:1;fill-rule:evenodd;stroke:none" />
  </g>
  <circle
     r="70.664246"
     cy="83.115784"
     cx="104.96209"
     id="path2196"
     style="opacity:1;fill:none;fill-opacity:1;stroke:#000000;stroke-width:0.40379557;stroke-miterlimit:4;stroke-dasharray:none;stroke-opacity:1" />
  <text
     id="text2200"
     y="165.4274"
     x="82.494499"
     style="font-style:normal;font-weight:normal;font-size:10px;line-height:1.25;font-family:sans-serif;letter-spacing:0px;word-spacing:0px;fill:#000000;fill-opacity:1;stroke:none;stroke-width:0.75000006"
     xml:space="preserve"><tspan
       style="stroke-width:0.75000006"
       y="165.4274"
       x="82.494499"
       id="tspan2198">50.00mm</tspan></text>
</svg>
