<?xml version="1.0" encoding="UTF-8" standalone="no"?>
<svg
   xmlns:dc="http://purl.org/dc/elements/1.1/"
   xmlns:cc="http://creativecommons.org/ns#"
   xmlns:rdf="http://www.w3.org/1999/02/22-rdf-syntax-ns#"
   xmlns:svg="http://www.w3.org/2000/svg"
   xmlns="http://www.w3.org/2000/svg"
   version="1.1"
   id="svg869"
   width="70mm"
   height="70mm"
   viewBox="0 0 264.56693 264.56691">
  <metadata
     id="metadata875">
    <rdf:RDF>
      <cc:Work
         rdf:about="">
        <dc:format>image/svg+xml</dc:format>
        <dc:type
           rdf:resource="http://purl.org/dc/dcmitype/StillImage" />
        <dc:title></dc:title>
      </cc:Work>
    </rdf:RDF>
  </metadata>
  <defs
     id="defs873" />
  <path
     style="fill:#000000;stroke-width:0.25626034"
     d="m 115.72443,180.98374 c -3.26021,-0.65807 -7.53827,-2.10619 -11.12613,-3.76617 -16.499709,-7.6339 -27.62768,-22.92029 -29.513082,-40.54186 -0.377913,-3.53209 -0.125885,-14.80708 0.416039,-18.61209 3.006068,-21.106777 12.962742,-41.555001 29.831753,-61.266072 8.37583,-9.786981 17.59115,-18.297769 34.37693,-31.748781 7.8243,-6.26985 8.41358,-6.710571 7.59353,-5.679141 -16.76162,21.082162 -20.83412,26.857374 -26.3039,37.301647 -4.03769,7.709743 -6.59052,14.335034 -8.54252,22.170242 -1.36451,5.476991 -1.30198,4.978555 -0.60104,4.790685 6.23824,-1.672093 8.21878,-1.948958 14.96518,-2.091992 5.39269,-0.114386 5.9601,-0.166735 5.80232,-0.535549 -0.44396,-1.037831 -1.44594,-6.472715 -1.71498,-9.302564 -0.88572,-9.315805 1.60018,-20.443565 7.08315,-31.706751 1.66164,-3.413377 5.00813,-9.722937 5.09855,-9.612958 0.0405,0.04911 -0.0902,1.499127 -0.29037,3.222134 -0.75094,6.465595 -0.11562,13.978176 1.7485,20.67625 2.94393,10.577945 8.07208,20.534297 19.87909,38.595493 9.84612,15.061617 11.30716,17.605657 13.15458,22.905527 1.84158,5.28305 2.38419,8.42474 2.5369,14.68816 0.10632,4.359 0.0434,6.10862 -0.30052,8.35108 -1.26368,8.24191 -4.41446,15.73209 -9.45405,22.47461 -1.54016,2.06058 -7.93895,9.037 -8.11808,8.85087 -0.042,-0.0436 0.21981,-2.16558 0.58157,-4.71564 0.92407,-6.51378 0.97197,-15.6879 0.10976,-21.01592 -1.89443,-11.70607 -5.63582,-20.12486 -16.19421,-36.4399 -6.79225,-10.49553 -9.77872,-15.685753 -11.88549,-20.656057 l -0.86834,-2.048582 -2.24934,-0.179292 c -3.77942,-0.301239 -10.25605,0.04208 -13.64751,0.723475 -3.18648,0.640188 -6.42677,1.515247 -7.06306,1.907418 -0.46561,0.286982 -0.75897,2.799652 -0.78156,6.694053 -0.0425,7.329565 1.58062,14.383405 4.99747,21.718035 1.68435,3.61564 3.67467,7.17517 8.22574,14.71115 4.93845,8.17742 6.92534,11.65842 8.75865,15.34493 5.57599,11.2125 6.88962,20.67904 3.70646,26.71031 -2.06065,3.90443 -6.67088,7.27961 -11.19583,8.19656 -2.40946,0.48824 -6.2766,0.43965 -9.01615,-0.11334 z m 8.47886,-3.39659 c 4.37019,-1.08872 7.9188,-4.18823 9.14084,-7.98394 0.44951,-1.39622 0.57484,-2.39966 0.56806,-4.54827 -0.023,-7.28296 -2.94462,-14.67519 -11.24858,-28.46058 -1.11589,-1.85253 -3.14777,-5.22907 -4.51526,-7.50345 -8.97384,-14.92507 -11.76922,-23.47115 -11.53838,-35.275167 0.0465,-2.377938 0.0521,-4.323371 0.0124,-4.323181 -0.24061,9.21e-4 -3.97345,1.910582 -5.2343,2.677562 -9.465722,5.757916 -16.915093,14.888886 -20.357866,24.953346 -4.006904,11.71364 -3.138453,24.09283 2.4659,35.14982 4.894778,9.65706 12.782109,17.1788 22.864816,21.80499 7.12159,3.26755 13.65415,4.55225 17.84226,3.50887 z m 45.2464,-21.34132 c 2.86744,-4.441 5.17053,-10.12843 6.33802,-15.65145 0.53222,-2.51788 0.60322,-3.57116 0.59804,-8.87196 -0.005,-5.57039 -0.0579,-6.24748 -0.71088,-9.16227 -1.30832,-5.84106 -3.96792,-11.99096 -7.14699,-16.52632 -4.86819,-6.94516 -12.02335,-12.934048 -19.64698,-16.444636 -2.78131,-1.280766 -7.2117,-2.827996 -9.47981,-3.310674 -1.09201,-0.232391 -1.09428,-0.231346 -0.84755,0.38938 0.60464,1.521117 3.49965,6.970689 5.16205,9.717042 1.00123,1.654088 3.64695,5.826918 5.87935,9.272948 6.16163,9.5113 9.15133,14.74678 11.73553,20.55087 2.57968,5.79403 4.66954,13.17637 5.53389,19.54842 0.18697,1.37839 0.34411,5.0141 0.3492,8.07933 0.0109,6.36328 -0.18253,6.15526 2.23613,2.40932 z M 87.514967,99.08945 C 92.199253,93.844021 97.77917,89.693844 104.35523,86.564181 l 2.94566,-1.401878 0.45183,-2.408534 c 2.29031,-12.20869 9.05433,-27.563485 18.06291,-41.00409 0.73911,-1.102729 1.44168,-2.174125 1.56127,-2.380895 0.43198,-0.746875 -8.64004,7.985116 -12.23784,11.779171 -15.7163,16.573536 -26.791238,34.174794 -32.267625,51.282505 -1.517655,4.74101 -1.489957,4.80648 0.707213,1.67142 1.082807,-1.54501 2.854151,-3.8006 3.936319,-5.01243 z M 156.91398,88.051815 C 146.49129,71.820984 141.22998,59.864427 139.50121,48.480563 l -0.33709,-2.219706 -0.85967,2.255576 c -2.99411,7.855952 -4.33378,16.058099 -3.71813,22.764212 0.49631,5.406195 1.84119,10.944244 2.65778,10.944244 0.25587,0 1.85866,0.342968 3.56176,0.762164 5.62786,1.385207 11.61461,3.990349 16.32889,7.105526 0.93676,0.619006 1.73197,1.132023 1.76718,1.14005 0.0353,0.0085 -0.85937,-1.423336 -1.98795,-3.180814 z m 13.55986,92.835635 c -3.83143,-1.9347 -3.74534,-7.28063 0.14447,-8.97061 2.31774,-1.00696 5.18722,-0.32897 6.79657,1.60587 1.50837,1.81344 1.18913,4.95998 -0.67166,6.62015 -1.58115,1.41066 -4.30874,1.73461 -6.26938,0.74459 z m 4.91391,-1.31332 c 1.02671,-0.74521 1.78568,-2.52964 1.56057,-3.66905 -0.41194,-2.08507 -1.87526,-3.31363 -3.94683,-3.31363 -2.34727,0 -3.87395,1.53556 -3.87395,3.89647 0,3.22554 3.61378,5.00709 6.26021,3.08621 z m -4.36555,-2.94043 v -2.61614 l 0.9171,-0.14236 c 1.36214,-0.21143 2.72134,0.0765 3.15465,0.66817 0.50789,0.69357 0.48255,1.08607 -0.10097,1.56399 -0.47028,0.38514 -0.47028,0.42139 0,1.30365 0.62525,1.17299 0.62237,1.80398 -0.009,1.80398 -0.59498,0 -0.95044,-0.39629 -1.18008,-1.31575 -0.12901,-0.5167 -0.33088,-0.68921 -0.80638,-0.68921 -0.54379,0 -0.64587,0.13408 -0.71558,0.93983 -0.0653,0.75492 -0.19733,0.95559 -0.67089,1.01992 -0.5791,0.0787 -0.58956,0.0335 -0.58956,-2.53608 z m 2.46782,-0.57827 c 0.91178,-0.33464 0.32033,-1.3516 -0.78608,-1.3516 -0.23822,0 -0.37161,0.26988 -0.37161,0.75186 0,0.76021 0.29877,0.91499 1.15769,0.59974 z"
     id="path879" />
  <circle
     style="opacity:1;fill:none;fill-opacity:1;stroke:#000000;stroke-width:1.48007536;stroke-miterlimit:4;stroke-dasharray:none;stroke-opacity:1"
     id="path881"
     cx="136.51167"
     cy="102.17604"
     r="93.748154" />
  <text
     xml:space="preserve"
     style="font-style:normal;font-weight:normal;font-size:13.33333302px;line-height:1.25;font-family:sans-serif;letter-spacing:0px;word-spacing:0px;fill:#000000;fill-opacity:1;stroke:none"
     x="110.97987"
     y="215.00987"
     id="text885"><tspan
       id="tspan883"
       x="110.97987"
       y="215.00987">50.00mm</tspan></text>
</svg>
