<?xml version="1.0" encoding="UTF-8" standalone="no"?>
<svg
   xmlns:dc="http://purl.org/dc/elements/1.1/"
   xmlns:cc="http://creativecommons.org/ns#"
   xmlns:rdf="http://www.w3.org/1999/02/22-rdf-syntax-ns#"
   xmlns:svg="http://www.w3.org/2000/svg"
   xmlns="http://www.w3.org/2000/svg"
   viewBox="0 0 226.77164 226.77165"
   height="60mm"
   width="60mm"
   id="svg3464"
   version="1.1">
  <metadata
     id="metadata3470">
    <rdf:RDF>
      <cc:Work
         rdf:about="">
        <dc:format>image/svg+xml</dc:format>
        <dc:type
           rdf:resource="http://purl.org/dc/dcmitype/StillImage" />
        <dc:title></dc:title>
      </cc:Work>
    </rdf:RDF>
  </metadata>
  <defs
     id="defs3468" />
  <path
     id="path4017"
     d="m 153.15584,168.00595 c -4.31336,-1.25854 -10.39595,-2.39111 -15.81017,-2.94379 -8.37199,-0.85472 -15.86583,-0.9212 -30.26912,-0.26857 -14.565234,0.65988 -21.462984,0.56077 -27.143774,-0.38994 -10.43514,-1.7465 -15.98039,-6.6524 -18.97249,-16.78527 -0.50982,-1.72645 -1.30857,-5.43027 -1.48089,-6.8669 l -0.0875,-0.72959 1.0761,0.31528 c 6.36775,1.86538 13.54781,3.06268 22.07127,3.68065 3.90102,0.28282 17.40281,0.20972 24.744284,-0.13397 16.90495,-0.79137 24.54472,-0.5524 30.5061,0.95448 1.89563,0.47913 3.04834,0.89472 4.78711,1.72581 4.21796,2.01607 6.99209,4.81138 9.20764,9.27779 1.58573,3.19673 2.51989,6.45747 3.53342,12.33385 0.0514,0.29817 0.0242,0.41375 -0.0947,0.4017 -0.0918,-0.009 -1.02205,-0.26654 -2.06732,-0.57153 z m 4.84501,-19.08343 c 0.0361,-0.12569 0.1823,-0.63423 0.32478,-1.13009 2.81823,-9.8085 4.04414,-20.85402 3.83126,-34.51969 -0.0814,-5.22063 -0.11989,-6.327 -0.54975,-15.778557 -0.30544,-6.71584 -0.30787,-16.35994 -0.005,-19.55778 0.61432,-6.48487 1.87282,-10.85437 4.11937,-14.3023 3.00058,-4.60524 7.48202,-7.43558 14.7093,-9.29002 1.75801,-0.45108 5.34453,-1.15878 5.87263,-1.15878 0.19375,0 0.1839,0.10776 -0.0972,1.0627 -1.8559,6.30531 -3.05501,13.50192 -3.6753,22.05776 -0.25213,3.47809 -0.21598,17.05025 0.0612,22.99164 0.45283,9.704227 0.50091,11.271607 0.50575,16.486997 0.005,5.28867 -0.10366,7.69339 -0.48848,10.81961 -0.82713,6.71979 -2.80134,11.48419 -6.17039,14.89139 -3.51701,3.5568 -8.23161,5.73304 -15.40793,7.1124 -2.998,0.57621 -3.10892,0.58771 -3.03039,0.31472 z m -45.25689,-10.27474 c -4.29621,-0.44115 -7.21187,-1.26967 -11.13973,-3.16557 -3.474584,-1.67708 -5.717034,-3.15141 -9.964044,-6.55098 -2.87127,-2.29835 -4.47247,-3.89469 -4.60265,-4.5886 -0.15889,-0.847 0.81429,-2.06214 4.32932,-5.40599 1.24957,-1.18867 1.71413,-1.75118 2.92248,-3.53859 1.62375,-2.40197 2.84701,-3.81452 3.73119,-4.30872 0.50026,-0.27961 0.70273,-0.3231 1.19066,-0.25607 0.32335,0.0441 0.819754,0.24172 1.103114,0.4383 0.28338,0.19658 1.41364,0.98427 2.5117,1.75026 3.70458,2.58439 9.1358,5.03408 12.49781,5.63696 2.4902,0.44648 9.34537,0.32815 13.33726,-0.23032 2.30302,-0.32218 4.21027,-1.25744 5.62723,-2.75945 0.65607,-0.69547 0.91962,-1.09883 1.21068,-1.85269 0.34517,-0.89398 0.36612,-1.04753 0.2899,-2.12531 -0.0892,-1.26166 -0.29304,-1.80883 -1.15348,-3.09661 -1.13026,-1.6916 -3.86892,-2.95143 -7.85173,-3.61196 -0.46047,-0.0763 -3.27163,-0.37072 -6.24702,-0.65409 -3.83113,-0.36484 -5.95481,-0.62771 -7.27747,-0.90079 -2.35055,-0.48519 -2.42343,-0.5056 -5.20029,-1.45631 -2.66664,-0.91302 -6.90316,-2.934057 -8.867844,-4.230477 -0.68863,-0.45439 -1.76457,-1.15777 -2.39097,-1.56306 -2.5229,-1.63221 -3.88126,-3.14737 -5.11301,-5.70343 -0.50965,-1.05755 -1.26919,-3.25375 -1.53684,-4.4437 -0.40406,-1.79651 -0.7358,-5.1114 -0.73225,-7.31706 0.003,-1.57695 0.23319,-4.21917 0.47688,-5.46291 0.46306,-2.36325 2.34316,-6.92427 3.64378,-8.83948 1.32507,-1.95126 4.86876,-4.9528 7.272474,-6.15985 0.50603,-0.25413 1.35476,-0.71101 1.88608,-1.01525 0.88749,-0.50837 3.325,-1.54633 5.00689,-2.13211 0.74654,-0.26002 4.78913,-1.00542 7.29396,-1.34479 0.85012,-0.11521 2.12528,-0.31528 2.83371,-0.44455 3.98039,-0.72627 7.45024,-0.65419 12.81607,0.26627 0.46048,0.0791 1.85157,0.31666 3.09132,0.52813 2.755,0.46993 3.59487,0.66973 6.31142,1.50137 2.06303,0.63157 2.56882,0.82235 5.1522,1.94344 1.63907,0.71128 1.75117,0.76719 3.60653,1.79761 2.06916,1.14913 3.02281,1.76304 3.70314,2.38367 0.48849,0.44566 0.54741,0.5616 0.54741,1.07741 0,0.4737 -0.1666,0.88313 -0.92361,2.26985 -1.20796,2.21274 -1.70851,2.94646 -4.69859,6.88694 -3.18999,4.204 -4.07805,5.04492 -5.32746,5.04492 -0.57792,0 -0.85265,-0.11925 -2.38163,-1.03392 -3.08772,-1.84717 -8.43203,-3.28555 -13.6533,-3.67457 -7.62566,-0.56813 -11.76922,0.57125 -13.32421,3.664 -1.12222,2.23196 -0.72738,4.29796 1.17646,6.15589 0.78781,0.76885 2.27056,1.50404 3.58224,1.77619 1.23678,0.25662 3.96335,0.56234 5.79621,0.64978 2.47941,0.11833 5.98881,0.8332 9.46715,1.92854 0.99179,0.31225 2.38289,0.69189 3.09132,0.8436 4.05766,0.86878 8.14672,2.5031 11.80335,4.71741 1.65783,1.00385 4.47695,3.35213 5.71708,4.7621 1.20069,1.3652 3.25423,4.437987 3.87247,5.794637 1.27013,2.78713 1.89518,7.96077 1.41632,11.72306 -0.78528,6.1696 -2.82278,10.69604 -6.55064,14.55267 -1.34633,1.39287 -1.85861,1.81269 -3.81993,3.13072 -3.0747,2.06619 -4.92029,2.96403 -8.57452,4.17163 -3.18785,1.05341 -5.42255,1.51341 -9.46714,1.94859 -5.21759,0.56151 -14.45717,0.83743 -17.51745,0.52326 z m -53.325164,-0.25331 c 0,-0.0524 0.17042,-0.68343 0.37871,-1.40244 2.92469,-10.09554 4.14644,-21.95919 3.75732,-36.48464 -0.0795,-2.967887 -0.26929,-8.033397 -0.42173,-11.256707 -0.3354,-7.09153 -0.40661,-18.63704 -0.13307,-21.57477 0.51657,-5.54787 1.33321,-9.05418 2.85204,-12.2455 1.08827,-2.28657 2.02921,-3.63081 3.7385,-5.3408 3.17565,-3.17697 7.02065,-5.11452 13.01308,-6.5576 2.02417,-0.4874 5.20399,-1.03383 5.25545,-0.90308 0.0213,0.0542 -0.22151,1.04615 -0.53974,2.2041 -1.91413,6.96473 -2.99385,14.1288 -3.43871,22.81621 -0.22485,4.39101 -0.0828,16.53298 0.27817,23.7911 0.35152,7.06633 0.42979,19.161857 0.14379,22.218847 -0.6175,6.60007 -1.93113,11.07816 -4.29263,14.6332 -1.11046,1.67175 -3.38449,3.92495 -5.13714,5.09026 -3.14272,2.08935 -6.98606,3.54162 -12.04072,4.54961 -2.18538,0.43591 -3.41332,0.60215 -3.41332,0.46221 z M 184.3266,51.051263 c -5.84433,-1.70521 -12.67895,-2.79659 -21.47759,-3.42945 -3.338,-0.24016 -16.18938,-0.2031 -21.89681,0.0634 -2.51491,0.11733 -6.10857,0.28218 -7.9859,0.36631 -4.61652,0.20697 -14.22848,0.21028 -16.68021,0.009 -3.88307,-0.32402 -6.53353,-0.74935 -9.01955,-1.4474 -7.890754,-2.21569 -12.633994,-7.24231 -15.186514,-16.09375 -0.48633,-1.68645 -1.29498,-5.46373 -1.44062,-6.72926 l -0.0851,-0.73979 0.62946,0.19465 c 2.96558,0.91669 7.48092,1.93167 11.448404,2.57353 9.79949,1.58522 18.93556,1.84028 36.90321,1.03034 14.94512,-0.67368 21.70035,-0.51756 27.63771,0.63911 6.57918,1.28162 11.18432,4.09338 14.24696,8.69881 0.94623,1.42284 2.46249,4.60073 3.07171,6.43788 0.79089,2.38505 1.30255,4.61187 1.99076,8.66443 0.0393,0.23124 0.006,0.34838 -0.0976,0.33725 -0.0868,-0.009 -1.013,-0.26645 -2.05825,-0.57143 z"
     style="fill:#000000;stroke-width:0.12880474" />
  <rect
     y="20.135626"
     x="48.256275"
     height="150.79126"
     width="150.79126"
     id="rect4019"
     style="opacity:1;fill:none;fill-opacity:1;stroke:#000000;stroke-width:0.38984135;stroke-miterlimit:4;stroke-dasharray:none;stroke-opacity:1" />
  <text
     id="text4023"
     y="189.41318"
     x="95.54335"
     style="font-style:normal;font-weight:normal;font-size:13.33333302px;line-height:1.25;font-family:sans-serif;letter-spacing:0px;word-spacing:0px;fill:#000000;fill-opacity:1;stroke:none"
     xml:space="preserve"><tspan
       y="189.41318"
       x="95.54335"
       id="tspan4021">40.00mm</tspan></text>
</svg>
