<?xml version="1.0" encoding="UTF-8" standalone="no"?>
<!-- Created with Inkscape (http://www.inkscape.org/) -->

<svg
   xmlns:dc="http://purl.org/dc/elements/1.1/"
   xmlns:cc="http://creativecommons.org/ns#"
   xmlns:rdf="http://www.w3.org/1999/02/22-rdf-syntax-ns#"
   xmlns:svg="http://www.w3.org/2000/svg"
   xmlns="http://www.w3.org/2000/svg"
   xmlns:sodipodi="http://sodipodi.sourceforge.net/DTD/sodipodi-0.dtd"
   xmlns:inkscape="http://www.inkscape.org/namespaces/inkscape"
   version="1.1"
   id="svg1265"
   width="60mm"
   height="60mm"
   viewBox="0 0 226.77165 226.77165"
   sodipodi:docname="40mm_sq.svg"
   inkscape:version="0.92.2 5c3e80d, 2017-08-06">
  <metadata
     id="metadata1271">
    <rdf:RDF>
      <cc:Work
         rdf:about="">
        <dc:format>image/svg+xml</dc:format>
        <dc:type
           rdf:resource="http://purl.org/dc/dcmitype/StillImage" />
        <dc:title></dc:title>
      </cc:Work>
    </rdf:RDF>
  </metadata>
  <defs
     id="defs1269" />
  <sodipodi:namedview
     pagecolor="#ffffff"
     bordercolor="#666666"
     borderopacity="1"
     objecttolerance="10"
     gridtolerance="10"
     guidetolerance="10"
     inkscape:pageopacity="0"
     inkscape:pageshadow="2"
     inkscape:window-width="1440"
     inkscape:window-height="805"
     id="namedview1267"
     showgrid="false"
     units="mm"
     inkscape:zoom="1.8101934"
     inkscape:cx="132.86376"
     inkscape:cy="112.15266"
     inkscape:window-x="0"
     inkscape:window-y="1"
     inkscape:window-maximized="1"
     inkscape:current-layer="svg1265" />
  <path
     style="fill:#000000;stroke-width:0.0345565"
     d="m 106.33415,168.56979 c -0.23848,-0.036 -0.25997,-0.046 -0.26907,-0.1256 -0.009,-0.079 0.0174,-0.097 0.31101,-0.2156 0.35334,-0.1424 2.21696,-0.5861 3.37915,-0.8047 0.37062,-0.07 0.77843,-0.1581 0.90625,-0.1966 0.776,-0.2332 1.65632,-1.2458 1.85619,-2.1351 0.022,-0.098 0.0353,-1.2427 0.0358,-3.0973 l 0.001,-2.9418 -0.21913,-0.4274 c -0.12053,-0.2352 -1.21108,-2.4024 -2.42345,-4.8162 -1.21237,-2.4137 -2.48799,-4.9484 -2.83472,-5.6326 -0.34673,-0.6843 -1.41962,-2.8147 -2.38421,-4.7343 -0.96459,-1.9196 -2.18533,-4.3455 -2.71276,-5.3908 -0.52742,-1.0453 -1.71707,-3.409 -2.643667,-5.2526 -0.92661,-1.8436 -2.03067,-4.0362 -2.45348,-4.8724 -0.42281,-0.8363 -1.62018,-3.2155 -2.6608,-5.2872 -1.04063,-2.0717 -2.30796,-4.5909 -2.8163,-5.5982 -0.50833,-1.0073 -1.61243,-3.1999 -2.45355,-4.8724 -0.84112,-1.6726 -2.05409,-4.0828 -2.69551,-5.3563 -0.64141,-1.2734 -1.79208,-3.5593 -2.55704,-5.0798 -2.09449,-4.163095 -5.39487,-10.719395 -7.70615,-15.308495 -0.64136,-1.2734 -1.89317,-3.7615 -2.78182,-5.529 -0.88864,-1.7676 -2.0627,-4.1002 -2.60902,-5.1835 -0.54631,-1.0834 -1.73589,-3.447 -2.64352,-5.2526 -0.90762,-1.8056 -2.08947,-4.1537 -2.62634,-5.2181 -0.53686,-1.0643 -1.68754,-3.3502 -2.55706,-5.0798 -0.86952,-1.7295 -2.07468,-4.1243 -2.67813,-5.3217 -0.60345,-1.1973 -1.81652,-3.6076 -2.69572,-5.3562 -0.8792,-1.7486 -1.92889,-3.8323 -2.33264,-4.6306 -2.21886,-4.3869 -2.78661,-5.5473 -2.80597,-5.7348 -0.0261,-0.2527 0.0656,-0.5302 0.24073,-0.7292 0.16616,-0.1888 0.18764,-0.2002 0.8384,-0.4474 6.04015,-2.2941 13.00635,-4.3751 19.95569,-5.9613 5.19326,-1.1854 10.80829,-2.187 16.25884,-2.9001 1.78864,-0.234 2.7662,-0.3472 5.68454,-0.6582 2.41524,-0.2574 6.359627,-0.5546 9.399367,-0.7084 3.58169,-0.1812 6.00905,-0.2388 10.07322,-0.2393 3.94572,-3e-4 5.76795,0.039 9.34753,0.2052 11.10259,0.5136 22.51195,2.0672 32.75956,4.4609 1.27337,0.2975 1.32479,0.3099 2.70666,0.6551 1.14972,0.2873 1.64799,0.4169 3.23705,0.8427 1.60677,0.4305 3.71992,1.0502 5.73639,1.6824 2.27973,0.7147 5.38393,1.7754 5.65525,1.9324 0.29324,0.1696 0.48979,0.5786 0.44819,0.9326 -0.023,0.1958 -0.20887,0.5797 -2.99344,6.1836 -0.78387,1.5776 -1.73242,3.4903 -2.10792,4.2505 -0.3755,0.7602 -1.29296,2.6107 -2.03881,4.1122 -0.74585,1.5015 -1.68663,3.3986 -2.09062,4.2159 -0.40398,0.8173 -1.28265,2.59 -1.95259,3.9394 -0.66993,1.3495 -1.65735,3.3399 -2.19426,4.4233 -0.53691,1.0833 -1.46207,2.9494 -2.05591,4.1468 -0.59385,1.1973 -1.48025,2.9856 -1.9698,3.974 -0.48954,0.9882 -1.48484,2.9942 -2.21176,4.4577 -0.72693,1.4635 -1.65996,3.3451 -2.07341,4.1814 -0.41344,0.8362 -1.3464,2.7179 -2.07324,4.1813 -0.72683,1.4635 -1.68314,3.3917 -2.12516,4.285 -0.442,0.8933 -1.3207,2.666 -1.95267,3.9394 -0.63197,1.2735 -1.59606,3.2172 -2.14243,4.319596 -0.54636,1.1023 -1.47931,2.983999 -2.07323,4.181399 -0.59391,1.1973 -1.48035,2.9856 -1.96986,3.9739 -0.48952,0.9884 -1.47698,2.9788 -2.19438,4.4233 -0.71738,1.4444 -1.65818,3.3416 -2.09065,4.2159 -0.43248,0.8742 -1.34992,2.7248 -2.03875,4.1122 -0.68883,1.3874 -1.65292,3.3313 -2.14242,4.3196 -0.4895,0.9883 -1.36044,2.7455 -1.93541,3.9049 -0.57498,1.1594 -1.52352,3.072 -2.10788,4.2504 -0.58437,1.1784 -1.54063,3.1066 -2.12503,4.285 -0.58441,1.1784 -1.45531,2.9356 -1.93533,3.9049 -0.48003,0.9693 -1.48306,2.9909 -2.22894,4.4923 -0.74587,1.5015 -1.67112,3.3675 -2.05608,4.1468 -0.38497,0.7792 -1.3024,2.6297 -2.03872,4.1122 -0.73634,1.4825 -1.71014,3.4472 -2.164,4.366 l -0.82521,1.6706 6.4e-4,2.839 c 6.5e-4,3.1044 -0.002,3.058 0.20557,3.5566 0.2803,0.6733 0.8287,1.2481 1.49017,1.5618 0.24903,0.1182 0.62873,0.2108 2.62323,0.6401 1.07442,0.2312 1.67764,0.3859 1.92035,0.4923 0.22968,0.1007 0.25687,0.1225 0.24865,0.1994 -0.009,0.081 -0.0276,0.089 -0.30295,0.127 -0.41135,0.057 -14.17158,0.056 -14.54829,0 z m 9.74295,-16.6098 c 0.5976,-1.2065 1.75408,-3.5387 2.56996,-5.1827 1.55928,-3.142 2.79306,-5.6311 4.18793,-8.449 0.46098,-0.9314 1.5213,-3.0696 2.35626,-4.7515 0.83496,-1.6821 2.038,-4.108 2.67342,-5.3909 0.63543,-1.2829 1.58459,-3.1956 2.10924,-4.2504 l 0.95392,-1.9179 -17.40257,-0.017 c -9.57141,-0.01 -17.407527,-0.01 -17.413607,0.01 -0.006,0.014 0.46236,0.962 1.04098,2.1079 1.30089,2.5762 3.052217,6.0548 5.276567,10.4807 0.93612,1.8625 2.08687,4.1485 2.55723,5.0798 0.47035,0.9312 1.65221,3.2794 2.62635,5.218 0.97413,1.9386 2.17132,4.3178 2.66042,5.2871 0.48909,0.9693 1.44735,2.8708 2.12945,4.2256 l 1.24019,2.4631 0.67386,-1.3582 c 0.37061,-0.747 1.1628,-2.3452 1.7604,-3.5517 z m 17.18271,-34.6507 c 0.76164,-1.5348 1.76188,-3.5525 2.22278,-4.4837 0.46089,-0.9313 1.37821,-2.7818 2.03848,-4.1123 0.66027,-1.3304 1.54675,-3.1187 1.96996,-3.974 0.4232,-0.8553 1.3952,-2.8146 2.15999,-4.3541 0.7648,-1.539499 1.73661,-3.498795 2.15959,-4.354095 0.42298,-0.8553 1.29385,-2.6125 1.93526,-3.9049 1.67343,-3.3718 3.20618,-6.4622 4.25047,-8.57 0.49908,-1.0074 1.40881,-2.8423 2.02163,-4.0777 1.44469,-2.9124 2.92917,-5.9068 4.04299,-8.1553 0.48958,-0.9884 1.48483,-2.9944 2.21168,-4.4578 0.72685,-1.4635 1.66764,-3.3606 2.09064,-4.2159 0.423,-0.8553 1.34047,-2.7057 2.03881,-4.1122 0.69834,-1.4064 1.66245,-3.3502 2.14248,-4.3196 0.48002,-0.9693 1.44418,-2.9131 2.14257,-4.3196 0.69838,-1.4064 1.58474,-3.1947 1.96966,-3.9739 0.38494,-0.7792 1.35508,-2.7372 2.15588,-4.3509 0.8008,-1.6138 1.45195,-2.938 1.447,-2.9429 -0.0182,-0.017 -1.1776,-0.4137 -2.2379,-0.7644 -12.59799,-4.1661 -26.42417,-6.8424 -40.93218,-7.923 -2.62751,-0.1957 -5.27627,-0.3337 -8.69096,-0.4531 -1.66152,-0.058 -7.67769,-0.08 -9.6931,-0.035 -9.42629,0.2085 -18.270217,1.019 -27.023177,2.4768 -2.95816,0.4926 -6.64934,1.2087 -9.08836,1.7632 -1.22185,0.2777 -1.52711,0.348 -2.26345,0.5211 -5.70191,1.3408 -12.31031,3.3209 -17.27782,5.1767 -0.23734,0.089 -0.43627,0.166 -0.44208,0.1718 -0.006,0.01 0.19786,0.4207 0.45259,0.9219 0.25472,0.5013 1.22929,2.4354 2.16571,4.298 2.26305,4.5013 4.17613,8.3036 5.59852,11.1272 0.64149,1.2734 1.81559,3.606 2.60911,5.1835 0.7935,1.5775 1.98312,3.9411 2.64356,5.2525 0.66046,1.3115 1.8578,3.6907 2.66077,5.2872 0.80297,1.5965 1.99256,3.9601 2.64354,5.2525 0.65098,1.2925 1.8329,3.6406 2.62649,5.2181 0.7936,1.5775 1.92875,3.8323 2.52256,5.0107 0.59381,1.1783 1.8534,3.682 2.79908,5.5636 0.94568,1.8816 2.08864,4.1519 2.5399,5.0453 0.45127,0.893196 1.68753,3.350195 2.74727,5.459895 1.05974,2.1096 2.19488,4.3644 2.52255,5.0106 0.71501,1.4102 5.07896,10.0898 5.60609,11.1502 l 0.37218,0.7488 18.377227,0.01 18.37724,0.01 1.38477,-2.7904 z"
     id="path1275"
     inkscape:connector-curvature="0" />
  <rect
     style="fill:none;fill-opacity:1;stroke:#000000;stroke-width:1;stroke-miterlimit:4;stroke-dasharray:none;stroke-opacity:1"
     id="rect1277"
     width="151.11226"
     height="151.11227"
     x="38.970448"
     y="22.774914" />
  <text
     xml:space="preserve"
     style="font-style:normal;font-weight:normal;font-size:13.33333302px;line-height:1.25;font-family:sans-serif;letter-spacing:0px;word-spacing:0px;fill:#000000;fill-opacity:1;stroke:none"
     x="86.178642"
     y="193.07359"
     id="text1834"><tspan
       sodipodi:role="line"
       id="tspan1832"
       x="86.178642"
       y="193.07359">40.00mm</tspan></text>
</svg>
