<?xml version="1.0" encoding="UTF-8" standalone="no"?>
<svg
   xmlns:dc="http://purl.org/dc/elements/1.1/"
   xmlns:cc="http://creativecommons.org/ns#"
   xmlns:rdf="http://www.w3.org/1999/02/22-rdf-syntax-ns#"
   xmlns:svg="http://www.w3.org/2000/svg"
   xmlns="http://www.w3.org/2000/svg"
   id="svg1614"
   version="1.2"
   viewBox="0 0 198.42519 198.42521"
   height="70mm"
   width="70mm">
  <metadata
     id="metadata1618">
    <rdf:RDF>
      <cc:Work
         rdf:about="">
        <dc:format>image/svg+xml</dc:format>
        <dc:type
           rdf:resource="http://purl.org/dc/dcmitype/StillImage" />
        <dc:title></dc:title>
      </cc:Work>
    </rdf:RDF>
  </metadata>
  <defs
     id="defs1605">
    <clipPath
       id="clip1">
      <path
         id="path1602"
         d="M 0,0 H 5385.8281 V 2551.1797 H 0 Z m 0,0" />
    </clipPath>
  </defs>
  <g
     transform="matrix(0.03663736,0,0,0.03663736,1.3154195,49.673017)"
     id="surface517831">
    <g
       style="clip-rule:nonzero"
       id="g1609"
       clip-path="url(#clip1)" />
    <path
       id="path1611"
       d="m 2740.4336,1334.1719 c 0.5742,0 1.1602,-0.027 1.7422,-0.062 h 0.01 c 19.7539,-1.2031 35.0117,-17.6563 34.7383,-37.4649 -0.293,-20.3398 -17.1367,-36.7187 -37.5391,-36.4961 -59.2656,0.8477 -156.914,3.0039 -212.8984,6.4063 -201.4883,12.2539 -381.5664,41.1055 -535.2383,85.7812 -29.1953,8.4922 -57.7695,17.6563 -84.9922,27.2344 31.6758,-126.7109 46.2891,-266.0312 43.4258,-414.13671 -0.3828,-20.37109 -17.2969,-36.65234 -37.8828,-36.28125 -14.5,-0.38672 -27.8906,7.28125 -34.9297,19.83985 -24.1875,43.22265 -55.332,84.32031 -92.5625,122.14451 -84.457,85.8086 -192.0625,142.4649 -280.8125,147.8672 -47.7149,2.9024 -86.8086,-9.2187 -113.0586,-35.0508 -37.5156,-36.9297 -47.0469,-98.8672 -26.832,-174.4062 20.3086,-75.88674 67.6836,-154.44924 133.3945,-221.20315 84.4531,-85.8125 192.0508,-142.47266 280.7969,-147.87109 47.7265,-2.89844 86.8437,9.22656 113.1133,35.07812 0.5546,0.54297 1.0898,1.08984 1.6328,1.64063 7.8906,8.08593 18.8789,12.32812 30.1562,11.64453 9.2891,-0.56641 18.0742,-4.46094 24.7422,-10.96875 15.3242,-14.94532 15.6289,-39.57422 0.6719,-54.89844 -0.9141,-0.94531 -1.8633,-1.88281 -2.7735,-2.78125 -42.4492,-41.78125 -102,-61.61328 -172.2148,-57.33984 -21.4922,1.30078 -44,4.89843 -66.9258,10.68359 -91.5469,23.10156 -185.4961,80.04687 -264.539,160.33984 -79.0157,80.27735 -134.461,175.125 -156.129,267.04691 -23.2695,98.7968 -5.3554,183.4492 50.4375,238.3672 38.9922,38.3828 92.9649,58.4023 156.086,57.8867 26.2773,-0.1797 54.3203,-3.9883 83.0586,-11.2344 91.5508,-23.0898 185.5,-80.0352 264.539,-160.3398 12,-12.1914 23.918,-25.293 35.4844,-38.9961 -3.1797,48.8007 -8.4961,92.0039 -8.5508,92.4804 -8.9804,81.9649 -24.5547,160.6524 -46.3047,233.8711 -85.7109,36.6211 -161.3515,79.9258 -224.8164,128.6992 -172.7695,132.7305 -205.0625,267.2852 -208.1562,282.0977 -2.8945,11.0938 -9.5352,40.1953 -8.6641,71.1172 1.1055,39.3047 13.6524,67.0117 37.2891,82.3398 10.7656,6.9688 23.0781,10.8555 36.6055,11.5703 3.4062,0.1836 6.9375,0.1641 10.5078,-0.055 12.3828,-0.7579 25.8515,-3.9141 40.0429,-9.4102 31.211,-12 68.2383,-35.5781 113.168,-72.0508 1.1367,-0.9179 2.2461,-1.9375 3.293,-3.0078 118.5703,-122.6133 206.4258,-269.2969 261.1367,-435.9726 175.3594,-69.1602 395.5195,-112.211 654.3828,-127.9493 53.9453,-3.2734 149.0508,-5.3476 205.3672,-6.1601 M 1567.967,1851.1173 c -71.6875,57.8945 -100.8125,63.8281 -108.0351,64.2656 -2.3164,0.1445 -3.375,-0.1797 -3.668,-0.3828 -7.0156,-4.9297 -5.6054,-41.207 2.8711,-73.2656 0.2031,-0.8203 0.4414,-1.8906 0.6211,-2.7344 0.055,-0.2891 6.2734,-30.6953 31.9492,-75.1953 23.9961,-41.5664 70.3867,-104.4844 155.1407,-168.2227 41.3476,-31.0859 88.3906,-59.8632 139.8906,-85.5742 -51.0469,128.6367 -124.6875,243.4102 -218.7696,341.1094 M 4082.2344,813.5 c -19.4258,-4.46484 -38.7735,7.65234 -43.2461,27.06641 l -151.4727,656.82029 c -4.4726,19.4297 7.6563,38.7852 27.0664,43.2422 3.3594,0.7852 6.711,1.0625 9.9727,0.8828 15.6836,-0.8086 29.5781,-11.8867 33.2851,-27.9492 l 151.4649,-656.82031 c 4.4805,-19.42188 -7.6563,-38.78125 -27.0703,-43.24219 m -232.2813,589.332 c -5.4218,-11.5859 -17.1836,-19.0547 -29.957,-19.0468 -4.8398,0.01 -9.5273,1.0586 -13.9453,3.1289 -13.5117,6.3086 -26.7656,12.1836 -39.3945,17.457 l -2.6954,1.1172 0.2305,-2.9063 c 3.3399,-42.5898 -2.2461,-76.2617 -16.5937,-100.0742 -12.1954,-20.2422 -31.0625,-32.7773 -53.1172,-35.2851 -3.5547,-0.4102 -7.1992,-0.6055 -10.8125,-0.6055 h -0.3907 c -68.5351,0.2617 -139.4921,68.4922 -180.789,173.8203 -21.125,53.8516 -31.3828,108.8359 -28.875,154.832 3.0078,55.0391 24.1328,92.961 59.4922,106.7696 8.9492,3.5156 18.4883,5.2812 28.3789,5.2734 v 1.7813 l 0.1094,-1.7813 c 61.4492,-0.25 130.4726,-71.125 171.7421,-176.3437 6.086,-15.5625 11.5079,-31.8321 16.1133,-48.3399 l 0.25,-0.8906 0.875,-0.3125 c 25.2891,-8.9453 53.3633,-20.6211 83.4492,-34.6875 7.9883,-3.7305 14.0469,-10.3516 17.0586,-18.6524 3.0118,-8.2968 2.6055,-17.2617 -1.1289,-25.2539 m -177.6914,102.8711 c -0.1406,0.3907 -0.2851,0.7774 -0.4297,1.168 -15.707,40.0352 -37.1718,76.0977 -60.457,101.5273 -22.1641,24.2032 -40.8008,32.8204 -50.0312,32.8477 v 0 c -1.6562,0 -2.9726,-0.2305 -4.1523,-0.7031 -7.6094,-2.9844 -16.0117,-19.2578 -17.6367,-48.8828 -1.7539,-32.2696 5.0547,-72.3125 19.1719,-112.7735 l 0.9179,-2.6289 2.0039,1.9258 c 0.3555,0.3555 0.7032,0.7109 1.0508,1.0586 0.5195,0.543 1.0508,1.0781 1.6328,1.5898 18.5625,16.3086 42.7696,24.2266 74.0039,24.1953 h 0.5118 c 9.6406,-0.043 20.3515,-0.9179 31.8242,-2.6015 l 3.0195,-0.4375 z m 26.6406,-120.8593 c -0.2968,13.3984 -1.8984,28.2031 -4.75,43.9726 l -0.207,1.1133 -1.0859,0.2891 c -13.6524,3.6093 -26.1406,6.1054 -37.1289,7.414 -6.2305,0.7383 -12.0742,1.1211 -17.3594,1.1289 -18.8672,0.02 -27.1094,-4.6601 -30.3477,-7.457 -10.3671,-8.9727 -7.4218,-32.7695 -4.3671,-42.8945 l 0.4531,-1.3711 c 32.5156,-48.2422 60.0976,-55.4766 73.6445,-55.4883 5.1055,0 8.4922,0.9883 9.5977,1.3125 l 0.3711,0.043 0.4218,0.2382 c 3.3047,1.836 12.6836,7.0508 10.7578,51.6993 m 185.1915,223.1992 c -24.8477,3.3828 -42.254,26.2617 -38.8829,51.1015 3.3672,24.8711 26.2539,42.2774 51.1094,38.918 24.8477,-3.3945 42.2617,-26.2734 38.8945,-51.1289 -3.3867,-24.8555 -26.2656,-42.2539 -51.121,-38.8906 m -28.6172,-401.5977 c 19.9257,-0.75 35.4453,-17.5 34.6875,-37.414 -0.7422,-19.9141 -17.5743,-35.375 -37.3985,-34.6875 -122.7617,4.6484 -241.7031,14.7851 -354.2968,30.0078 l 83.4179,-365.66019 c 4.4649,-19.41407 -7.6484,-38.77344 -27.0781,-43.23829 -19.4102,-4.46093 -38.7773,7.66797 -43.2344,27.08204 l -89.6875,393.13284 c -81.5117,13.0586 -159.164,28.8906 -231.9492,47.3359 l 92.2852,-404.48437 c 4.457,-19.41016 -7.6719,-38.76953 -27.0899,-43.23047 -19.375,-4.45703 -38.7617,7.65625 -43.2422,27.07813 l -100.8867,442.24221 c -2.5469,0.75 -5.0976,1.4844 -7.6289,2.2422 -30.9414,9.2773 -60.6094,20.1132 -89.4297,31.1015 29.9766,-131.5508 41.7422,-274.3125 35.1719,-427.75388 -0.8477,-19.90625 -17.5977,-35.32422 -37.5781,-34.4961 -18.1836,0.77344 -32.5782,14.89454 -34.3243,32.48829 -1.6406,8.55468 -8.9804,84.32031 -48.1132,156.67969 -23.5118,43.4492 -56.086,79.8906 -86.4024,101.6211 -24.1797,17.3437 -42.2969,21.1719 -48.9453,17.3555 -6.6211,-3.7891 -12.4883,-21.3789 -9.7344,-51.0352 2.5235,-27.1094 11.8282,-58.8633 26.1953,-90.69531 2.0743,-4.1836 4.1407,-8.42578 6.2188,-12.7461 l -0.1094,-0.0664 c 3.7071,-7.50391 7.5938,-14.98828 11.8203,-22.36328 27.7969,-48.46875 72.3282,-82.89454 104.7891,-103.23829 16.8789,-10.58984 22.0039,-32.85156 11.4297,-49.73046 -10.5938,-16.875 -32.8633,-21.9961 -49.7461,-11.41016 -48.0156,27.10547 -93.8438,67.07812 -129.0391,128.47656 -3.1718,5.51953 -9.8476,17.94531 -10.1914,18.64453 -3.957,7.64453 -7.6679,15.3125 -11.1172,22.99219 -61.0195,122.44532 -127.8086,170.46482 -135.8476,163.71872 -8.8906,-6.7304 9.6406,-54.3125 46.5,-137.332 36.1523,-81.33594 55.3945,-132.30859 17.9726,-154.28906 -26.2187,-15.37891 -54.6289,-6.59375 -122.332,83.6914 -0.1445,0.1836 -0.2852,0.375 -0.4258,0.5586 l -58.8594,81.76562 c 0,0 11.0274,-38.8789 11.3165,-40.18359 l 17.5742,-62.36719 c 5.4023,-19.17578 -5.7578,-39.10156 -24.9375,-44.50391 -19.1758,-5.38281 -39.0977,5.76172 -44.5039,24.9375 l -18.0039,63.89844 c -31.9297,113.21099 -121.0274,228.16799 -159.2344,221.11329 -21.1992,-7.3125 0.6875,-86.3984 66.1836,-234.03907 0.1523,-0.34375 0.3125,-0.6875 0.457,-1.03516 0.074,-0.16796 0.1406,-0.33203 0.2149,-0.49609 l -0.066,0.0977 c 6.3047,-15.85157 1.1094,-34.50391 -13.5351,-44.58203 -17.0117,-11.69141 -40.2891,-7.40625 -51.9961,9.60937 -69.5898,101.125 -178.9063,256.68358 -193,275.47648 -1.8359,2.5625 -3.7227,6.0157 -6.1641,6.0391 -1.8984,-0.078 -0.289,-4.3633 0.8633,-7.7851 5.8516,-20.875 47.4414,-135.6563 76.043,-203.26954 8.0508,-19.01563 -0.8438,-40.95313 -19.8594,-48.9961 -19.0195,-8.05859 -40.957,0.84375 -49,19.85938 -7.7617,18.34375 -68.9726,180.15626 -78.0351,212.45306 -6.3125,22.4844 -23.0743,82.2266 23.246,104.8203 6.6719,3.2422 13.9571,5.1993 21.5782,5.9493 29.6562,2.8867 64.4883,-12.5 88.4492,-41.0508 7.918,-9.4258 33.9648,-45.9375 64.7266,-89.7656 -1.9336,28.4921 -3.586,64.0664 11.582,86.9179 9.9492,15 25.082,23.6563 41.7305,24.1563 0.8984,0.027 61.3984,11.0976 108.4609,-45.6602 1.5234,11.7774 8.8125,22.4297 20.0703,27.8633 4.6953,2.2539 9.6602,3.4336 14.5938,3.5703 11.6718,0.3438 23.1679,-4.9961 30.3515,-14.9805 l 130.7149,-181.5429 c -33.793,89.2343 -40.9024,153.0742 -5.4493,173.2773 74.8282,37.8086 134.25,-33.7031 160.5235,-62.2422 6.9414,26.2969 21.0078,46.2578 41.6914,58.1133 11.9687,6.8555 25.1406,10.4727 39.2031,10.8828 26.8164,0.7891 56.8242,-10.0703 87.6875,-32.1953 31.1992,-22.375 61.7539,-55.1758 88.1016,-94.1797 -7.2578,84.7539 -21.2461,165.3438 -42.0196,241.6211 -87.1484,39.6406 -163.2578,85.5469 -227.3906,137.2891 -172.3125,138.9844 -202.3203,274.9492 -205.6055,292.7812 -5.25,22.2383 -24.414,119.5625 32.1797,154.3828 10.9532,6.7305 23.2657,10.293 36.8516,10.7032 15.332,0.4375 32.2969,-3.1368 50.7617,-10.7735 31.5195,-12.9922 68.668,-37.9218 113.6094,-76.1875 1.0976,-0.9453 2.1484,-1.9609 3.1289,-3.0156 118.9414,-128.9453 204.6289,-280.2734 256.5898,-452.6367 32.5274,-13.75 66.3829,-26.3711 101.211,-37.9649 l -84.7617,371.5391 c -4.5196,19.3984 7.5468,38.793 26.9414,43.3203 3.3945,0.7852 6.7656,1.0625 10.0625,0.8906 15.6562,-0.8046 29.5429,-11.8359 33.2578,-27.8515 l 94.0508,-412.1836 c 75.5312,-21.1289 154.1992,-37.9922 232.8671,-51.3867 l -97.5,427.3867 c -4.5273,19.4023 7.5391,38.789 26.9493,43.3086 3.3789,0.7812 6.7578,1.0742 10.0507,0.9062 15.6524,-0.8125 29.5196,-11.8437 33.2618,-27.8593 l 103.9882,-455.7735 c 132.9375,-19.0351 262.8321,-28.7851 374.1368,-33 M 2682.813,1767.2305 c -82.2305,69.6914 -108.0547,70.9375 -114.9687,68.2109 -8.379,-3.3672 -7.4727,-44.0234 0.3945,-76.9726 0.1953,-0.8086 0.4023,-1.8829 0.5508,-2.6915 0.039,-0.3046 5.582,-31.5937 31.0859,-78.3007 23.6289,-43.2774 69.7344,-109.0391 155.1992,-176.5157 44.3086,-34.9961 93.2578,-65.9492 145.5938,-93.3632 -49.3867,135.2578 -122.0742,255.3945 -217.8555,359.6328"
       style="fill:#000000;fill-opacity:1;fill-rule:nonzero;stroke:none" />
  </g>
  <text
     id="text3619"
     y="165.36656"
     x="76.769539"
     style="font-style:normal;font-weight:normal;font-size:10px;line-height:1.25;font-family:sans-serif;letter-spacing:0px;word-spacing:0px;fill:#000000;fill-opacity:1;stroke:none;stroke-width:0.75"
     xml:space="preserve"><tspan
       style="stroke-width:0.75"
       y="165.36656"
       x="76.769539"
       id="tspan3617">40.00mm</tspan></text>
  <circle
     r="56.44294"
     cy="95.571602"
     cx="100.86485"
     id="path3663"
     style="opacity:1;fill:none;fill-opacity:1;stroke:#000000;stroke-width:0.49995124;stroke-miterlimit:4;stroke-dasharray:none;stroke-opacity:1" />
</svg>
