<?xml version="1.0" encoding="UTF-8" standalone="no"?>
<svg
   xmlns:dc="http://purl.org/dc/elements/1.1/"
   xmlns:cc="http://creativecommons.org/ns#"
   xmlns:rdf="http://www.w3.org/1999/02/22-rdf-syntax-ns#"
   xmlns:svg="http://www.w3.org/2000/svg"
   xmlns="http://www.w3.org/2000/svg"
   id="svg2291"
   version="1.2"
   viewBox="0 0 198.4252 198.4252"
   height="70mm"
   width="70mm">
  <metadata
     id="metadata2297">
    <rdf:RDF>
      <cc:Work
         rdf:about="">
        <dc:format>image/svg+xml</dc:format>
        <dc:type
           rdf:resource="http://purl.org/dc/dcmitype/StillImage" />
        <dc:title></dc:title>
      </cc:Work>
    </rdf:RDF>
  </metadata>
  <defs
     id="defs2295" />
  <g
     transform="matrix(0.38851749,0,0,0.38851749,-51.355583,-84.645334)"
     id="surface342715">
    <path
       id="path2240"
       d="m 440.17187,514.62891 2.96094,-0.11719 0.19922,19.46484 10.07031,0.80078 v 1.44141 c -0.69531,0.51953 -0.082,0.27344 -1.19531,0.55469 -0.66016,0.16406 -1.16406,0.17968 -1.85156,0.19531 l -10.1836,-0.17969 z m -82.9414,13.41015 c -2.79688,-16.21484 21.79297,-18.53515 23.85937,-4.3125 2.36328,16.26172 -21.55468,17.67578 -23.85937,4.3125 z m -24.47656,8.85938 -3.01954,0.0703 -0.1875,-22.32031 3.16797,-0.0117 0.12891,9.47265 12.4375,0.0547 0.13672,-9.5 2.89453,-0.11719 0.16016,16.85938 c 0.0156,1.76562 0.35546,4.01953 -0.66797,5.46484 l -1.92578,-0.008 c -0.99219,-2.46875 -0.26172,-5.9375 -0.61719,-9.64453 l -12.3086,-0.12109 z m 84.86328,-12.76172 9.03125,0.0781 0.0391,2.73438 -8.97656,0.13672 -0.13672,6.85547 9.80469,0.0859 0.0351,2.80078 -12.90625,0.0781 -0.20312,-22.20703 12.73828,-0.12891 0.0351,2.67969 -9.40234,0.17578 z m -30.88282,-9.57422 18.72266,-0.082 -0.0117,2.78515 -7.61719,0.13282 -0.13671,19.50781 -3.00782,0.0703 -0.22656,-19.45703 -7.55469,-0.18359 z m 77.33594,-47.42188 5.1211,-0.008 c -0.0977,6.87891 -0.21094,14.19922 0.0117,20.96875 0.22657,6.91797 2.8711,10.54297 10.00391,10.6211 14.11328,0.15234 10.36719,-14.05079 10.56641,-31.44922 l 5.0625,-0.22266 c 0.0586,17.54297 4.40234,36.05859 -15.13672,36.16406 -20.26172,0.10938 -15.53125,-17.96093 -15.62891,-36.07422 z m -188.10937,35.69922 -4.9375,0.0195 15.08203,-35.90625 3.6289,-0.13281 16.08594,35.89453 -5.18359,0.17188 -4.74219,-10.45313 -15.52344,-0.19922 c -0.71484,2.64063 -3.2539,8.61329 -4.41015,10.60547 z m 178.48828,-14.7539 c -4.76172,24.03515 -42.72656,17.97656 -37.92578,-6.78125 4.58593,-23.65625 42.66015,-17.13282 37.92578,6.78125 z m -73.07422,14.68359 -4.91797,0.10156 -0.16406,-35.77343 4.99219,-0.0703 c 0.42968,4.26953 -0.53907,12.09375 0.41796,15.51953 h 19.70704 l 0.20703,-15.34375 5.02343,-0.0976 -0.0195,35.58594 -4.91015,0.0195 -0.19922,-15.35547 -20.10547,0.0234 z m -69.47656,-35.69531 c 7.28515,-0.48047 14.83593,-0.80078 18.57812,3.67969 6.82422,8.17187 -3.18359,15.20703 -3.30078,15.40625 2.98828,2.84765 4.03906,4.22656 6.42578,7.95703 1.11328,1.74218 5.20313,7.57031 5.41797,8.78125 l -5.65234,-0.10938 c -6.17188,-7.96875 -7.44532,-16.14453 -16.34766,-15.30078 l -0.20312,15.41016 -5.03125,-0.0859 z m 227.70703,15.39844 14.5,0.043 0.14844,4.52344 -14.46094,0.10547 -0.15625,11.05469 15.5,0.0547 0.0547,4.5625 -20.42188,0.0156 -0.23047,-35.77734 20.11328,-0.0586 0.10157,4.53516 -15.04688,0.0508 z m -188.66406,-0.0234 14.49218,0.0742 0.17578,4.48828 -14.50781,0.13672 -0.13672,11.03515 15.47657,0.0664 0.0469,4.5625 c -4.67187,0.11719 -9.32422,0.0195 -13.87109,0.0234 -8.45313,0.008 -6.94922,1.44531 -6.94141,-7.04688 0.008,-9.21094 -0.44141,-19.52344 0.0508,-28.58984 l 20.19922,-0.20703 0.11328,4.51172 -15.01172,0.082 z m 153.64453,17.85156 -0.0234,-6.1875 c 2.30078,1.23438 3.51953,3.32813 6.67578,4.23047 3.3125,0.94922 6.99219,0.125 8.07813,-2.41016 2.41015,-5.61328 -6.17579,-8.98828 -9.61719,-11.35937 -9.42188,-6.4961 -5.64453,-17.29688 4.14062,-17.90625 4.32422,-0.26953 6.26953,1.01172 9.3125,2.10547 l 0.008,5.57812 c -2.73047,-1.09375 -4.19141,-3.02734 -7.84766,-3.16015 -3.23828,-0.11719 -6.51953,1.4375 -6.10938,4.71484 0.50782,4.05859 8.82032,7.09375 11.8125,9.82812 4.30469,3.92969 5.29297,11.03125 0.35938,15.15625 -5.67578,4.75 -11.92188,1.53125 -16.78906,-0.58984 z m -272.78125,2.68359 c -0.98438,-0.99609 -14.15235,-33.21093 -14.65625,-35.94531 l 5.01562,-0.0273 9.58985,23.96484 L 242.01562,467 l 4.71094,0.0859 c 2.61719,3.92968 8.02344,21.79687 10.10547,23.61718 0.28125,-0.33203 0.34766,-0.39062 0.69531,-0.96484 l 9.00391,-22.77734 5,0.15234 c -0.28125,2.10156 -8.96094,22.65234 -10.96094,27.60938 l -2.69922,6.85156 c -1.25,2.20703 0.0508,0.85547 -1.51953,1.38672 -2.21484,-2.69141 -9.94922,-26.11719 -12.03125,-28.28907 -1.63281,2.09375 -4.90625,11.52344 -6.14062,14.5 -1.09375,2.63672 -4.48438,12.9336 -6.375,13.8125 z m 144.75,-45.58984 c -0.61328,-1.87891 -0.56641,-24.05859 -0.16407,-26.94141 l 4.88282,0.17579 -0.0117,16.38671 c 3.28515,-0.41015 8.29297,-3.77343 10.32422,-3.69531 2.13672,0.082 6.35547,3.17969 9.85937,3.70703 l 0.0859,-16.51172 5.32812,0.0742 0.0156,26.72266 -5.42188,-0.20703 -0.1289,-5.70703 c -11.42578,-3.67578 -5.64063,-6.72266 -19.9375,0.10156 l -0.26953,5.92578 z m 40.39062,-26.88672 17.16016,0.14063 -0.0937,3.60547 -12.7461,0.2539 0.0469,7.23438 12.34766,0.11718 -0.0781,3.91407 -12.17187,0.10937 0.0976,7.53516 12.9336,0.0859 0.0312,3.83984 -17.5,0.0156 z m -48.03906,-0.0312 -0.0508,3.70313 -10.38672,0.18359 -0.0547,22.98047 -4.33984,-0.082 -0.16016,-23.00781 -10.10937,-0.0781 0.10937,-3.80078 z m 62.32031,-78.125 c 2.44141,-1.32422 33.19531,-14.1875 33.60938,-14.21094 1.86328,-0.10937 29.13672,12.5586 33.57422,14.26172 l -0.0625,57.28907 -67.23829,-0.11329 c -0.39062,-10.94531 -0.46875,-49.79687 0.11719,-57.22656 z m -73.47265,0.25781 c 1.78515,-1.07421 33.14843,-14.44531 33.91406,-14.47656 0.89844,-0.0391 30.26172,12.63281 33.5625,14.33594 l -0.0625,57.05469 c -4.17188,0.58984 -65.39453,0.44531 -67.44531,-0.13282 z m -72.88282,-0.25781 c 3.14063,-1.55859 32.81641,-14.16797 33.61328,-14.19922 0.92969,-0.0391 30.36719,12.67969 33.27735,14.19141 0.34375,6.38281 0.51172,51.19922 0.0195,57.35156 l -67.08594,-0.0391 c -0.23437,-8.8125 -0.44922,-51.02734 0.17578,-57.30469 z m -98.79297,206.4921 H 586.54687 V 320.10156 H 186.07812 Z m 0,0"
       style="fill:#ffffff;fill-opacity:1;fill-rule:evenodd;stroke:none" />
    <path
       id="path2242"
       d="m 357.75391,352.60937 -0.0312,56.78125 c 2.05078,0.57813 63.27343,0.72266 67.44531,0.13282 l 0.0625,-57.05469 c -3.30078,-1.70313 -32.66406,-14.375 -33.5625,-14.33594 -0.76563,0.0312 -32.12891,13.40235 -33.91406,14.47656"
       style="fill:#000000;fill-opacity:1;fill-rule:evenodd;stroke:none" />
    <path
       id="path2244"
       d="m 284.87109,352.35156 c -0.625,6.27735 -0.41015,48.49219 -0.17578,57.30469 l 67.08594,0.0391 c 0.49219,-6.15234 0.32422,-50.96875 -0.0195,-57.35156 -2.91016,-1.51172 -32.34766,-14.23047 -33.27735,-14.19141 -0.79687,0.0312 -30.47265,12.64063 -33.61328,14.19922"
       style="fill:#000000;fill-opacity:1;fill-rule:evenodd;stroke:none" />
    <path
       id="path2246"
       d="m 431.22656,352.35156 c -0.58594,7.42969 -0.50781,46.28125 -0.11719,57.22656 l 67.23829,0.11329 0.0625,-57.28907 c -4.4375,-1.70312 -31.71094,-14.37109 -33.57422,-14.26172 -0.41407,0.0234 -31.16797,12.88672 -33.60938,14.21094"
       style="fill:#000000;fill-opacity:1;fill-rule:evenodd;stroke:none" />
    <path
       id="path2248"
       d="m 231.80469,502.98437 c 1.89062,-0.8789 5.28125,-11.17578 6.375,-13.8125 1.23437,-2.97656 4.50781,-12.40625 6.14062,-14.5 2.08203,2.17188 9.81641,25.59766 12.03125,28.28907 1.57031,-0.53125 0.26953,0.82031 1.51953,-1.38672 l 2.69922,-6.85156 c 2,-4.95704 10.67969,-25.50782 10.96094,-27.60938 l -5,-0.15234 -9.00391,22.77734 c -0.34765,0.57422 -0.41406,0.63281 -0.69531,0.96484 -2.08203,-1.82031 -7.48828,-19.6875 -10.10547,-23.61718 L 242.01562,467 l -10.26171,23.97656 -9.58985,-23.96484 -5.01562,0.0273 c 0.5039,2.73438 13.67187,34.94922 14.65625,35.94531"
       style="fill:#000000;fill-opacity:1;fill-rule:evenodd;stroke:none" />
    <path
       id="path2250"
       d="m 432.6875,471.73828 c -4.36328,1.19141 -6.11719,1.92188 -8.55859,5.05469 -1.99219,2.55078 -3.21875,6.78125 -2.39063,11.10937 1.26953,6.61328 8.27734,12.01563 16.84766,10.40235 6.6289,-1.2461 12.20703,-7.91797 10.58984,-16.3711 -1.24609,-6.52734 -8.75391,-12.30468 -16.48828,-10.19531"
       style="fill:#ffffff;fill-opacity:1;fill-rule:evenodd;stroke:none" />
    <path
       id="path2252"
       d="m 432.6875,471.73828 c 7.73437,-2.10937 15.24219,3.66797 16.48828,10.19531 1.61719,8.45313 -3.96094,15.125 -10.58984,16.3711 -8.57032,1.61328 -15.57813,-3.78907 -16.84766,-10.40235 -0.82812,-4.32812 0.39844,-8.55859 2.39063,-11.10937 2.4414,-3.13281 4.19531,-3.86328 8.55859,-5.05469 z m 21.76172,16.34766 c 4.73437,-23.91407 -33.33985,-30.4375 -37.92578,-6.78125 -4.80078,24.75781 33.16406,30.8164 37.92578,6.78125"
       style="fill:#000000;fill-opacity:1;fill-rule:evenodd;stroke:none" />
    <path
       id="path2254"
       d="m 381.40625,487.37891 20.10547,-0.0234 0.19922,15.35547 4.91015,-0.0195 0.0195,-35.58594 -5.02343,0.0976 -0.20703,15.34375 h -19.70704 c -0.95703,-3.42578 0.0117,-11.25 -0.41796,-15.51953 l -4.99219,0.0703 0.16406,35.77343 4.91797,-0.10156 z m 0,0"
       style="fill:#000000;fill-opacity:1;fill-rule:evenodd;stroke:none" />
    <path
       id="path2256"
       d="m 317.18359,482.625 -0.16797,-11.24609 c 5.20704,-0.19532 10.20313,0.28515 10.22657,5.63281 0.0234,5.44531 -5.10938,5.86328 -10.0586,5.61328 z m -5.39843,20.1875 5.03125,0.0859 0.20312,-15.41016 c 8.90234,-0.84375 10.17578,7.33203 16.34766,15.30078 l 5.65234,0.10938 c -0.21484,-1.21094 -4.30469,-7.03907 -5.41797,-8.78125 -2.38672,-3.73047 -3.4375,-5.10938 -6.42578,-7.95703 0.11719,-0.19922 10.125,-7.23438 3.30078,-15.40625 -3.74219,-4.48047 -11.29297,-4.16016 -18.57812,-3.67969 z m 0,0"
       style="fill:#000000;fill-opacity:1;fill-rule:evenodd;stroke:none" />
    <path
       id="path2258"
       d="m 464.07031,467.14062 c 0.0977,18.11329 -4.63281,36.1836 15.62891,36.07422 19.53906,-0.10547 15.19531,-18.62109 15.13672,-36.16406 l -5.0625,0.22266 c -0.19922,17.39843 3.54687,31.60156 -10.56641,31.44922 -7.13281,-0.0781 -9.77734,-3.70313 -10.00391,-10.6211 -0.22265,-6.76953 -0.10937,-14.08984 -0.0117,-20.96875 z m 0,0"
       style="fill:#000000;fill-opacity:1;fill-rule:evenodd;stroke:none" />
    <path
       id="path2260"
       d="m 288.04297,475.26172 c 1.02734,1.70312 4.95703,10.23437 5.46094,12.45703 l -4.42188,0.004 -1.92578,0.0273 -4.53125,-0.22656 z m -12.08203,27.57812 c 1.15625,-1.99218 3.69531,-7.96484 4.41015,-10.60547 l 15.52344,0.19922 4.74219,10.45313 5.18359,-0.17188 -16.08594,-35.89453 -3.6289,0.13281 -15.08203,35.90625 z m 0,0"
       style="fill:#000000;fill-opacity:1;fill-rule:evenodd;stroke:none" />
    <path
       id="path2262"
       d="m 351.02734,471.58594 15.01172,-0.082 -0.11328,-4.51172 -20.19922,0.20703 c -0.49219,9.0664 -0.043,19.3789 -0.0508,28.58984 -0.008,8.49219 -1.51172,7.05469 6.94141,7.04688 4.54687,-0.004 9.19922,0.0937 13.87109,-0.0234 l -0.0469,-4.5625 -15.47657,-0.0664 0.13672,-11.03515 14.50781,-0.13672 -0.17578,-4.48828 -14.49218,-0.0742 z m 0,0"
       style="fill:#000000;fill-opacity:1;fill-rule:evenodd;stroke:none" />
    <path
       id="path2264"
       d="m 539.70703,471.58203 15.04688,-0.0508 -0.10157,-4.53516 -20.11328,0.0586 0.23047,35.77734 20.42188,-0.0156 -0.0547,-4.5625 -15.5,-0.0547 0.15625,-11.05469 14.46094,-0.10547 -0.14844,-4.52344 -14.5,-0.043 z m 0,0"
       style="fill:#000000;fill-opacity:1;fill-rule:evenodd;stroke:none" />
    <path
       id="path2266"
       d="m 376.55469,457.39453 4.5625,0.0312 0.26953,-5.92578 c 14.29687,-6.82422 8.51172,-3.77734 19.9375,-0.10156 l 0.1289,5.70703 5.42188,0.20703 -0.0156,-26.72266 -5.32812,-0.0742 -0.0859,16.51172 c -3.5039,-0.52734 -7.72265,-3.625 -9.85937,-3.70703 -2.03125,-0.0781 -7.03907,3.28516 -10.32422,3.69531 l 0.0117,-16.38671 -4.88282,-0.17579 c -0.40234,2.88282 -0.44921,25.0625 0.16407,26.94141"
       style="fill:#000000;fill-opacity:1;fill-rule:evenodd;stroke:none" />
    <path
       id="path2268"
       d="m 504.58594,500.30078 c 4.86718,2.12109 11.11328,5.33984 16.78906,0.58984 4.93359,-4.125 3.94531,-11.22656 -0.35938,-15.15625 -2.99218,-2.73437 -11.30468,-5.76953 -11.8125,-9.82812 -0.41015,-3.27734 2.8711,-4.83203 6.10938,-4.71484 3.65625,0.13281 5.11719,2.0664 7.84766,3.16015 l -0.008,-5.57812 c -3.04297,-1.09375 -4.98828,-2.375 -9.3125,-2.10547 -9.78515,0.60937 -13.5625,11.41015 -4.14062,17.90625 3.4414,2.37109 12.02734,5.74609 9.61719,11.35937 -1.08594,2.53516 -4.76563,3.35938 -8.07813,2.41016 -3.15625,-0.90234 -4.375,-2.99609 -6.67578,-4.23047 z m 0,0"
       style="fill:#000000;fill-opacity:1;fill-rule:evenodd;stroke:none" />
    <path
       id="path2270"
       d="m 416.97266,457.35937 17.5,-0.0156 -0.0312,-3.83984 -12.9336,-0.0859 -0.0976,-7.53516 12.17187,-0.10937 0.0781,-3.91407 -12.34766,-0.11718 -0.0469,-7.23438 12.7461,-0.2539 0.0937,-3.60547 -17.16016,-0.14063 z m 0,0"
       style="fill:#000000;fill-opacity:1;fill-rule:evenodd;stroke:none" />
    <path
       id="path2272"
       d="m 366.89062,517.65234 c -11.28125,2.84766 -6.57421,19.77344 5.30469,16.07032 10.02735,-3.125 6.14453,-18.95704 -5.30469,-16.07032"
       style="fill:#ffffff;fill-opacity:1;fill-rule:evenodd;stroke:none" />
    <path
       id="path2274"
       d="m 366.89062,517.65234 c 11.44922,-2.88672 15.33204,12.94532 5.30469,16.07032 -11.8789,3.70312 -16.58594,-13.22266 -5.30469,-16.07032 z m -9.66015,10.38672 c 2.30469,13.36328 26.22265,11.94922 23.85937,-4.3125 -2.0664,-14.22265 -26.65625,-11.90234 -23.85937,4.3125"
       style="fill:#000000;fill-opacity:1;fill-rule:evenodd;stroke:none" />
    <path
       id="path2276"
       d="m 343.80469,434.17578 10.10937,0.0781 0.16016,23.00781 4.33984,0.082 0.0547,-22.98047 10.38672,-0.18359 0.0508,-3.70313 -24.99219,-0.10156 z m 0,0"
       style="fill:#000000;fill-opacity:1;fill-rule:evenodd;stroke:none" />
    <path
       id="path2278"
       d="m 332.95312,527.09766 12.3086,0.12109 c 0.35547,3.70703 -0.375,7.17578 0.61719,9.64453 l 1.92578,0.008 c 1.02343,-1.44531 0.68359,-3.69922 0.66797,-5.46484 l -0.16016,-16.85938 -2.89453,0.11719 -0.13672,9.5 -12.4375,-0.0547 -0.12891,-9.47265 -3.16797,0.0117 0.1875,22.32031 3.01954,-0.0703 z m 0,0"
       style="fill:#000000;fill-opacity:1;fill-rule:evenodd;stroke:none" />
    <path
       id="path2280"
       d="m 417.67578,517.42578 9.40234,-0.17578 -0.0351,-2.67969 -12.73828,0.12891 0.20312,22.20703 12.90625,-0.0781 -0.0351,-2.80078 -9.80469,-0.0859 0.13672,-6.85547 8.97656,-0.13672 -0.0391,-2.73438 -9.03125,-0.0781 z m 0,0"
       style="fill:#000000;fill-opacity:1;fill-rule:evenodd;stroke:none" />
    <path
       id="path2282"
       d="m 397.69141,536.90625 0.13671,-19.50781 7.61719,-0.13282 0.0117,-2.78515 -18.72266,0.082 0.16797,2.77344 7.55469,0.18359 0.22656,19.45703 z m 0,0"
       style="fill:#000000;fill-opacity:1;fill-rule:evenodd;stroke:none" />
    <path
       id="path2284"
       d="m 317.18359,482.625 c 4.94922,0.25 10.08203,-0.16797 10.0586,-5.61328 -0.0234,-5.34766 -5.01953,-5.82813 -10.22657,-5.63281 z m 0,0"
       style="fill:#ffffff;fill-opacity:1;fill-rule:evenodd;stroke:none" />
    <path
       id="path2286"
       d="m 440.17187,536.78906 10.1836,0.17969 c 0.6875,-0.0156 1.1914,-0.0312 1.85156,-0.19531 1.11328,-0.28125 0.5,-0.0352 1.19531,-0.55469 v -1.44141 l -10.07031,-0.80078 -0.19922,-19.46484 -2.96094,0.11719 z m 0,0"
       style="fill:#000000;fill-opacity:1;fill-rule:evenodd;stroke:none" />
    <path
       id="path2288"
       d="m 282.625,487.52344 4.53125,0.22656 1.92578,-0.0273 4.42188,-0.004 C 293,485.49609 289.07031,476.96484 288.04297,475.26172 Z m 0,0"
       style="fill:#ffffff;fill-opacity:1;fill-rule:evenodd;stroke:none" />
  </g>
  <circle
     r="70.339691"
     cy="88.010857"
     cx="100.23215"
     id="path2842"
     style="opacity:1;fill:none;fill-opacity:1;stroke:#000000;stroke-width:1.05291367;stroke-miterlimit:4;stroke-dasharray:none;stroke-opacity:1" />
  <text
     id="text2846"
     y="171.18965"
     x="76.237709"
     style="font-style:normal;font-weight:normal;font-size:10px;line-height:1.25;font-family:sans-serif;letter-spacing:0px;word-spacing:0px;fill:#000000;fill-opacity:1;stroke:none;stroke-width:0.75000006"
     xml:space="preserve"><tspan
       style="stroke-width:0.75000006"
       y="171.18965"
       x="76.237709"
       id="tspan2844">50.00mm</tspan></text>
</svg>
