<?xml version="1.0" encoding="UTF-8" standalone="no"?>
<svg
   xmlns:dc="http://purl.org/dc/elements/1.1/"
   xmlns:cc="http://creativecommons.org/ns#"
   xmlns:rdf="http://www.w3.org/1999/02/22-rdf-syntax-ns#"
   xmlns:svg="http://www.w3.org/2000/svg"
   xmlns="http://www.w3.org/2000/svg"
   version="1.1"
   width="841.88977"
   height="595.27557"
   id="svg63"
   viewBox="0 0 841.88977 595.27557">
  <metadata
     id="metadata69">
    <rdf:RDF>
      <cc:Work
         rdf:about="">
        <dc:format>image/svg+xml</dc:format>
        <dc:type
           rdf:resource="http://purl.org/dc/dcmitype/StillImage" />
        <dc:title></dc:title>
      </cc:Work>
    </rdf:RDF>
  </metadata>
  <defs
     id="defs67">
    <marker
       orient="auto"
       refY="0.0"
       refX="0.0"
       id="marker5581"
       style="overflow:visible;">
      <path
         id="path5579"
         d="M 0.0,0.0 L 5.0,-5.0 L -12.5,0.0 L 5.0,5.0 L 0.0,0.0 z "
         style="fill-rule:evenodd;stroke:#000000;stroke-width:1pt;stroke-opacity:1;fill:#000000;fill-opacity:1"
         transform="scale(0.8) rotate(180) translate(12.5,0)" />
    </marker>
    <marker
       style="overflow:visible"
       id="marker5547"
       refX="0.0"
       refY="0.0"
       orient="auto">
      <path
         transform="scale(0.8) translate(12.5,0)"
         style="fill-rule:evenodd;stroke:#000000;stroke-width:1pt;stroke-opacity:1;fill:#000000;fill-opacity:1"
         d="M 0.0,0.0 L 5.0,-5.0 L -12.5,0.0 L 5.0,5.0 L 0.0,0.0 z "
         id="path5545" />
    </marker>
    <marker
       orient="auto"
       refY="0.0"
       refX="0.0"
       id="Arrow1Lend"
       style="overflow:visible;">
      <path
         id="path4598"
         d="M 0.0,0.0 L 5.0,-5.0 L -12.5,0.0 L 5.0,5.0 L 0.0,0.0 z "
         style="fill-rule:evenodd;stroke:#000000;stroke-width:1pt;stroke-opacity:1;fill:#000000;fill-opacity:1"
         transform="scale(0.8) rotate(180) translate(12.5,0)" />
    </marker>
    <marker
       orient="auto"
       refY="0.0"
       refX="0.0"
       id="Arrow1Lstart"
       style="overflow:visible">
      <path
         id="path4595"
         d="M 0.0,0.0 L 5.0,-5.0 L -12.5,0.0 L 5.0,5.0 L 0.0,0.0 z "
         style="fill-rule:evenodd;stroke:#000000;stroke-width:1pt;stroke-opacity:1;fill:#000000;fill-opacity:1"
         transform="scale(0.8) translate(12.5,0)" />
    </marker>
  </defs>
  <path
     style="fill:#000000;stroke-width:0.13639213"
     d="m 270.59404,491.2445 c -18.65835,-0.0286 -22.55552,-0.0667 -22.66593,-0.22163 -0.0925,-0.12982 -0.63998,-0.21362 -1.78776,-0.27366 -0.90994,-0.0476 -1.70853,-0.14312 -1.77464,-0.21231 -0.0714,-0.0747 0.17948,-1.4905 0.61771,-3.48613 0.93134,-4.24117 1.45333,-7.36461 1.88162,-11.25909 0.44263,-4.02487 0.74752,-5.88596 1.46471,-8.94096 2.19645,-9.35609 7.23647,-20.02266 17.46344,-36.95909 1.15,-1.90446 2.15835,-3.62623 2.24078,-3.82616 0.0824,-0.19991 0.34718,-0.57058 0.58833,-0.82366 0.24115,-0.2531 0.43846,-0.57142 0.43846,-0.70736 0,-0.13594 0.14613,-0.38014 0.32474,-0.54266 0.17861,-0.16251 0.74031,-0.94296 1.24822,-1.73435 2.21739,-3.4549 9.42161,-13.23522 17.34973,-23.55367 2.38796,-3.10794 4.62707,-6.0221 4.9758,-6.47593 0.34872,-0.45383 0.63328,-0.89333 0.63234,-0.97668 -10e-4,-0.0833 -0.15772,-0.65383 -0.3484,-1.26775 -0.29782,-0.95883 -0.35632,-1.4408 -0.41497,-3.41842 -0.0789,-2.6615 0.12511,-5.6272 0.51808,-7.5307 0.15093,-0.731 0.77206,-2.9302 1.38029,-4.887 1.60677,-5.1694 1.73047,-5.8787 2.47026,-14.1619 0.9868,-11.0492 1.84206,-15.8078 3.54328,-19.7143 1.11023,-2.5495 3.51856,-5.5903 5.4782,-6.9168 1.94163,-1.3143 3.43338,-1.7448 6.44101,-1.8585 3.41709,-0.1292 6.06017,0.4154 8.88224,1.8303 2.94902,1.4785 4.87896,3.0417 8.94942,7.2488 1.63101,1.6858 2.98687,3.0384 3.01302,3.0058 0.097,-0.1209 0.63404,-3.7341 0.75543,-5.0822 0.16749,-1.8601 0.16392,-8.98 -0.006,-11.5109 -0.184,-2.7444 -0.46428,-5.1095 -1.00866,-8.5111 -0.63734,-3.9824 -1.31742,-7.0949 -4.05654,-18.5652 -4.52023,-18.9288 -5.4452,-23.7633 -6.12496,-32.0128 -1.12384,-13.6388 1.13743,-25.0574 14.32653,-72.344 2.46857,-8.8506 3.26452,-11.9052 3.83559,-14.72 0.38875,-1.9162 0.42486,-2.3108 0.42763,-4.6741 0.003,-2.5598 -5.6e-4,-2.5922 -0.4336,-3.8934 -0.70061,-2.1055 -1.50133,-3.5686 -4.62707,-8.4546 -6.70018,-10.4735 -13.64682,-20.1853 -37.22562,-52.0431 -1.49587,-2.0211 -2.03987,-3.0267 -1.82787,-3.3789 0.22769,-0.3782 0.61041,-0.4293 3.3206,-0.4433 10.55142,-0.055 24.87646,3.5957 37.99877,9.6831 7.82981,3.6321 25.13704,13.3177 45.40141,25.4079 l 6.86933,4.0984 2.53037,-0.3407 c 3.66689,-0.4937 6.6795,-0.6333 13.66333,-0.6332 8.55099,2e-4 13.0302,0.2358 17.53276,0.922 21.64726,3.2993 38.5431,11.4313 51.71368,24.89 3.97067,4.0575 7.61825,8.5719 11.83734,14.6502 12.42975,17.9072 20.07568,36.1339 23.23635,55.3917 1.3085,7.9726 1.85116,15.1904 1.85674,24.696 0.004,7.394 -0.28682,12.098 -1.19173,19.2546 -0.64928,5.1346 -2.35226,15.2189 -3.65995,21.6725 -1.11441,5.4997 -2.85781,15.606 -3.51813,20.3944 -1.06,7.6866 -1.31552,12.2926 -0.86305,15.5571 0.24331,1.7556 0.2588,1.7705 2.76253,2.6699 2.66475,0.9573 4.67372,2.2393 5.94056,3.7911 0.58186,0.7127 1.09132,1.7322 1.88518,3.7724 0.69021,1.7739 2.23729,4.225 4.26471,6.7568 3.2126,4.0119 10.02189,10.981 13.63277,13.9529 2.80595,2.3094 4.2282,3.7361 5.20398,5.2202 1.37171,2.0864 3.12402,6.3588 4.23846,10.33418 0.25876,0.92302 0.58269,1.90482 0.71984,2.18179 0.30592,0.61776 1.32336,1.6514 3.33677,3.38985 2.28221,1.97053 4.90298,4.54218 9.77974,9.59649 4.42944,4.59071 8.67051,9.21702 10.55666,11.51563 3.02551,3.68714 7.36869,10.28445 10.42532,15.83616 8.9107,16.18439 14.81137,36.59203 16.09562,55.6672 0.10578,1.57121 0.18081,2.86725 0.16674,2.88009 -0.0459,0.0419 -299.51349,0.12422 -322.68178,0.0887 z m 74.52718,-9.63149 c 12.27815,-22.57722 17.23989,-31.9066 24.87529,-46.77211 2.76964,-5.39227 6.47756,-13.00052 10.98539,-22.54081 l 3.76132,-7.9604 1.34477,-0.23099 c 2.61369,-0.44899 4.26317,-1.28345 5.83544,-2.95212 2.48207,-2.63428 2.70929,-4.59869 2.20415,-19.05639 -0.11311,-3.2376 0.0229,-7.0486 0.26067,-7.3055 0.0611,-0.066 1.3314,-0.2376 2.82296,-0.3815 7.59411,-0.7322 18.54082,-3.0583 36.37753,-7.7298 6.60743,-1.7305 7.69148,-2.1325 13.26624,-4.9192 15.86082,-7.9285 35.41561,-13.833 55.14191,-16.65 l 1.14368,-0.1634 -0.007,-5.1098 c -0.007,-5.6242 0.0777,-6.8131 0.92919,-12.9929 0.5877,-4.2656 1.57731,-9.9355 3.0562,-17.5105 0.62924,-3.223 1.46819,-7.5239 1.86431,-9.5575 1.64729,-8.4566 2.66611,-16.1547 3.29613,-24.9053 0.26414,-3.6687 0.22214,-15.5745 -0.0677,-19.1848 -1.02693,-12.7925 -3.31175,-23.6203 -7.49487,-35.5179 -1.1821,-3.3621 -2.64683,-6.8934 -2.79472,-6.7376 -0.098,0.1032 -0.34038,3.9729 -0.47498,7.5833 -0.24248,6.504 -0.36659,26.2795 -0.24649,39.2765 0.12628,13.6672 0.061,16.3332 -0.4848,19.8104 -1.65911,10.5693 -4.13568,16.1126 -10.34861,23.1635 -0.84524,0.9593 -2.16045,2.3641 -2.92268,3.1219 -8.44977,8.4007 -20.57144,15.1175 -33.52356,18.5758 -5.71038,1.5247 -7.6962,1.7398 -16.06615,1.7409 -9.04742,0 -10.64152,-0.1786 -14.99951,-1.692 -6.24902,-2.17 -11.1234,-5.5008 -16.53965,-11.302 -5.96134,-6.385 -9.25598,-11.6488 -19.72413,-31.5129 -7.29702,-13.8467 -11.34726,-20.9731 -15.10412,-26.5756 -5.84049,-8.7097 -10.04494,-12.3201 -15.20235,-13.0541 -8.2682,-1.1769 -16.38522,6.157 -27.49227,24.84 -2.5591,4.3046 -3.73424,6.5487 -3.73424,7.1312 0,1.3439 1.24617,7.1294 4.53471,21.0529 2.80253,11.8658 3.82834,16.5319 4.58581,20.8592 1.02357,5.8476 1.2535,8.2753 1.36771,14.4408 0.0996,5.3801 -0.0797,8.7835 -0.62772,11.9131 -0.21343,1.2188 -0.34682,2.2861 -0.29642,2.3719 0.0504,0.086 0.71632,1.0349 1.47983,2.1093 1.53479,2.1596 6.43066,9.8037 6.95549,10.8598 l 0.33332,0.6707 -0.39999,0.3402 c -0.21999,0.1871 -1.29871,0.9832 -2.39715,1.7691 -5.0795,3.6343 -7.83972,7.7284 -9.33971,13.853 -1.7031,6.9538 -1.39248,14.80522 0.68878,17.41025 0.67062,0.83941 0.43551,0.97504 -2.92451,1.68715 -11.45539,2.42783 -25.34291,3.55858 -29.21984,2.37915 -0.38445,-0.11697 -0.80105,-0.17168 -0.92578,-0.12159 -0.48608,0.1952 -0.98972,1.47219 -4.00369,10.15141 -4.57396,13.17148 -5.13159,15.51263 -6.60159,27.71599 -1.64704,13.67314 -5.87453,54.30692 -5.87453,56.4648 0,0.31506 0.006,0.31594 2.43325,0.35721 1.33829,0.0228 14.31287,0.0538 28.8324,0.0691 l 26.39914,0.0277 z M 311.7927,464.37036 c -0.79273,-0.38804 -1.7011,-1.3782 -2.10202,-2.29131 -0.23702,-0.53983 -0.28992,-0.92255 -0.29351,-2.12353 -0.004,-1.32194 0.0315,-1.54149 0.36323,-2.24801 0.44099,-0.93926 1.58655,-2.11601 2.46552,-2.53265 0.87343,-0.41404 2.03776,-0.40653 2.81327,0.0181 0.84897,0.46489 1.69313,1.33756 2.08026,2.15054 0.30455,0.63956 0.33973,0.87871 0.33973,2.30928 0,0.87771 -0.0725,1.84916 -0.16116,2.15877 -0.21513,0.7514 -1.40722,2.07925 -2.2711,2.52975 -0.93511,0.48764 -2.27277,0.49965 -3.23422,0.0291 z m 17.97598,-45.66385 c -0.80083,-0.29697 -1.7015,-1.18829 -2.13568,-2.11355 -0.33024,-0.70377 -0.37413,-0.95281 -0.37413,-2.1228 0,-1.16498 0.0446,-1.42053 0.36827,-2.11025 0.45444,-0.96838 1.46041,-1.97421 2.46922,-2.46885 1.02223,-0.50125 2.60538,-0.53044 3.44606,-0.0635 1.34192,0.74528 2.10888,2.26891 2.09115,4.15431 -0.0212,2.25461 -1.2948,4.30941 -2.9856,4.81686 -0.65876,0.1977 -2.23348,0.14729 -2.87929,-0.0922 z m 49.27127,-15.2596 c -2.83491,-0.34173 -5.26345,-1.38218 -8.31583,-3.5627 -6.3756,-4.55451 -6.77993,-4.73054 -11.23105,-4.88957 -4.27204,-0.15264 -6.28932,-0.85221 -6.92204,-2.40045 -1.35694,-3.32044 1.14851,-16.2757 5.16525,-26.7086 2.16166,-5.6145 4.87793,-9.9152 9.18165,-14.5373 3.47409,-3.7311 5.91469,-5.6739 9.69596,-7.7187 l 2.21735,-1.199 6.41276,0.091 c 3.52702,0.05 6.83276,0.1553 7.34607,0.2339 1.2667,0.1938 2.43844,0.6092 3.8499,1.3647 1.50549,0.8059 2.47333,1.7743 3.05283,3.0547 0.39889,0.8813 0.42969,1.0529 0.42101,2.3461 -0.008,1.2103 -0.0994,1.7559 -0.68907,4.116 -0.37383,1.4964 -1.15814,4.3532 -1.74291,6.3484 -1.98888,6.7861 -2.70522,9.7215 -3.25164,13.3247 -0.29853,1.9686 -0.307,2.2902 -0.31429,11.9294 -0.008,10.34095 -0.057,11.41329 -0.59778,13.02454 -0.36701,1.09359 -0.95532,1.97343 -2.03662,3.04579 -1.07388,1.06503 -2.19673,1.74595 -3.29128,1.99589 -0.90848,0.20746 -7.53357,0.31198 -8.95027,0.1412 z m -31.98173,-8.66729 c -0.76997,-0.065 -2.26993,-0.24293 -3.33323,-0.39546 -1.06329,-0.15252 -3.61321,-0.49598 -5.66647,-0.76325 -2.05327,-0.26726 -4.04867,-0.58543 -4.43422,-0.70705 -1.62086,-0.51133 -2.55589,-2.4691 -2.97449,-6.22807 -0.19618,-1.7617 -0.0907,-5.9803 0.20125,-8.0463 0.88887,-6.2909 2.55851,-10.0446 6.26516,-14.0854 1.78214,-1.9429 3.54641,-3.3554 5.47942,-4.3871 2.42252,-1.293 2.84461,-1.391 6.32919,-1.4704 3.28634,-0.075 7.35984,0.1239 9.57834,0.4675 0.78171,0.121 1.43289,0.2314 1.44705,0.2453 0.0142,0.014 -0.39702,0.9968 -0.91374,2.1843 -2.22589,5.115 -3.82139,9.8761 -5.23554,15.6231 -1.29591,5.2666 -1.84474,8.9456 -1.85246,12.41781 -0.006,2.72209 0.0506,2.91799 1.25598,4.34075 l 0.81433,0.96122 -2.78031,-0.0194 c -1.52917,-0.0107 -3.41028,-0.0726 -4.18026,-0.13754 z m 98.59679,-68.63113 c 2.3663,-0.2028 4.56942,-0.6254 7.99974,-1.5347 11.64039,-3.0853 22.39367,-8.6593 30.78382,-15.957 1.58238,-1.3763 5.59911,-5.3819 5.50043,-5.4852 -0.0287,-0.03 -0.41779,0.1697 -0.86472,0.4438 -1.23334,0.7565 -3.26086,1.5547 -4.82052,1.8979 -1.90331,0.4188 -4.99208,0.4232 -7.19977,0.01 -8.44213,-1.5789 -18.97646,-7.9628 -31.13232,-18.8662 -13.74382,-12.3279 -29.0255,-29.6823 -44.28512,-50.2917 -8.4597,-11.4255 -15.17456,-19.4328 -24.1644,-28.815 -9.99253,-10.4287 -16.8386,-16.0607 -21.48089,-17.6716 -0.50303,-0.1746 -1.13106,-0.2545 -1.99993,-0.2545 -1.20961,0 -1.30894,0.024 -2.20655,0.5258 -1.12201,0.6277 -2.95292,2.2961 -4.05311,3.6935 -3.74497,4.7564 -7.69159,13.7573 -10.14708,23.142 -1.74115,6.6546 -5.45631,16.3479 -10.6532,27.7956 -2.01889,4.4472 -2.30979,5.5217 -2.7457,10.1411 -0.47435,5.0269 -0.3974,10.6637 0.21428,15.6966 0.42329,3.4828 0.29815,3.3095 1.18636,1.6423 2.83954,-5.3302 8.03857,-13.5262 11.23847,-17.717 4.63203,-6.0662 8.6993,-9.7444 12.5767,-11.3736 2.07681,-0.8727 2.97751,-1.0561 5.18981,-1.0566 1.7404,-4e-4 2.17296,0.048 3.33322,0.3693 2.74344,0.761 5.22306,2.4016 7.93308,5.2485 5.05379,5.3092 10.52588,14.216 21.13323,34.398 10.48034,19.9403 13.79953,25.1879 20.12748,31.8212 5.42749,5.6893 9.99924,8.7282 16.35105,10.8685 2.27719,0.7674 4.07453,1.164 5.96572,1.3164 2.04736,0.165 14.32917,0.1743 16.21992,0.012 z m 21.05516,-114.616 c 1.81934,-0.3013 3.06676,-0.6101 3.35429,-0.8301 0.22242,-0.1702 0.22837,-0.2612 0.0742,-1.1368 -0.37102,-2.1071 -3.99459,-14.0406 -5.54667,-18.2667 -1.60525,-4.3709 -3.16694,-7.2348 -4.9568,-9.0902 -0.99617,-1.0326 -3.23035,-2.6741 -4.04717,-2.9735 -1.25653,-0.4607 -7.44811,-0.2888 -9.99967,0.2775 -3.71999,0.8256 -11.0017,3.4001 -12.11471,4.2832 -0.41156,0.3265 -0.44246,0.4029 -0.37608,0.9296 0.17118,1.3579 3.25396,6.7241 5.82673,10.1425 3.1217,4.1478 13.22539,13.3828 16.57573,15.1506 1.26086,0.6653 3.46091,1.4144 4.85438,1.6529 1.42524,0.2439 4.44343,0.1779 6.35577,-0.139 z m -7.18894,-3.6272 c -2.52421,-0.5816 -6.88879,-3.262 -10.59965,-6.5097 -2.15548,-1.8865 -6.83518,-6.729 -7.98954,-8.2676 -0.4543,-0.6054 -1.06923,-1.6071 -1.36654,-2.2259 l -0.54055,-1.125 0.3818,-0.3262 c 0.90503,-0.7732 2.37438,-1.7027 4.27996,-2.7076 4.59172,-2.4214 6.80662,-2.9843 9.47341,-2.4079 4.92884,1.0654 8.94476,6.1829 10.28225,13.1027 0.36975,1.9129 0.55694,5.1053 0.41492,7.0759 -0.17079,2.3699 -0.48696,2.9668 -1.79367,3.3866 -0.78454,0.2519 -1.46356,0.2532 -2.54239,0.01 z m -60.45925,-22.6206 c 0.9068,-0.2818 1.66619,-1.0344 1.80068,-1.7847 0.14704,-0.8202 -0.12204,-1.4826 -1.01796,-2.5058 -1.39863,-1.5973 -4.04955,-3.5523 -9.38789,-6.9236 -9.89964,-6.2518 -12.35088,-8.069 -17.13278,-12.7016 -2.98969,-2.8964 -7.05188,-6.6368 -10.00829,-9.2156 -14.249,-12.4289 -31.96193,-25.2384 -47.25651,-34.1745 -2.95548,-1.7268 -10.38068,-5.7436 -10.133,-5.4817 0.16597,0.1755 2.36776,1.7688 5.93313,4.2935 28.81038,20.4007 50.60437,39.2627 59.37969,51.391 4.06642,5.6202 7.70753,9.1292 13.0446,12.5712 2.23581,1.4419 3.65394,2.2069 5.44684,2.938 1.44082,0.5876 3.66289,1.295 4.79285,1.5257 0.40332,0.082 0.85331,0.1745 0.99997,0.2047 0.74092,0.1527 2.87262,0.07 3.53867,-0.1366 z"
     id="path3762" />
  <rect
     style="fill:none;fill-opacity:1;stroke:#000000;stroke-width:0.1;stroke-miterlimit:4;stroke-dasharray:none;stroke-opacity:1"
     id="rect4573"
     width="519.05463"
     height="112.37264"
     x="-1696.2919"
     y="-1523.7515" />
  <path
     style="fill:none;fill-opacity:1;stroke:#000000;stroke-width:0.1;stroke-miterlimit:4;stroke-dasharray:none;stroke-opacity:1"
     id="path4575"
     d="m -792.78586,-1619.6346 c 27.98943,12.0635 55.5587,25.0918 83.49709,37.2772 35.83782,14.7979 71.04377,30.7844 107.736,43.3776 24.57053,8.2178 49.90207,14.7591 75.2771,20.1407 3.27092,0.8123 6.50476,1.792 9.81276,2.4368 8.21992,1.6023 16.65911,2.2421 24.8577,4.0541 14.27524,3.155 0.19848,1.0642 13.32607,2.7365 9.37753,1.4348 17.92493,4.88 26.65059,8.352 4.14378,1.4313 8.36321,2.1125 12.7111,2.3601 0,0 -65.09682,46.0068 -65.09682,46.0068 v 0 c -4.6672,-0.9385 -9.18835,-2.42 -13.59016,-4.235 -8.06844,-3.3824 -16.4553,-5.8253 -25.0813,-7.3484 -15.80858,-3.4089 -31.70803,-6.3781 -47.43585,-10.1386 -25.05608,-6.1734 -50.15013,-12.8485 -74.34005,-21.8332 -36.46698,-13.1397 -71.34753,-29.8442 -107.29627,-44.2899 -28.58868,-12.1213 -56.88471,-25.2309 -86.60955,-34.4002 0,0 65.58159,-44.4965 65.58159,-44.4965 z" />
  <path
     style="fill:none;fill-opacity:1;stroke:#000000;stroke-width:0.1;stroke-miterlimit:4;stroke-dasharray:none;stroke-opacity:1"
     id="path4577"
     d="m -1056.2755,-1536.4033 c 39.6249,1.3885 79.30865,-2.5821 118.8528,-5.1094 85.43668,-8.0128 171.0218,-14.2776 256.52401,-21.5184 85.97079,-6.7428 172.14762,-10.9455 258.35757,-12.8702 58.08385,-1.1756 116.17982,-1.8438 174.2755,-1.9079 40.34317,-0.634 80.69189,-0.3484 120.67608,5.4063 25.05374,1.8179 49.671852,6.3657 74.264219,11.2073 6.716527,2.4084 14.500407,1.3314 21.275326,3.2168 7.294855,2.0302 0.50364,1.5044 4.831534,1.7035 0,0 -65.806366,45.1985 -65.806366,45.1985 v 0 c -7.417033,-3.5028 -16.804603,-2.488 -24.442033,-5.534 -23.83212,-5.424 -47.85299,-9.6101 -72.20729,-11.9748 -39.34113,-5.207 -78.94592,-6.1289 -118.60575,-5.6247 -57.1961,-0.1142 -114.39579,-0.7277 -171.58993,0.1474 -85.5222,1.7315 -171.06742,4.0615 -256.29701,11.9047 -86.45178,7.3298 -172.96823,13.9533 -259.22269,23.4312 -41.67267,3.6078 -83.35097,7.7975 -125.17407,9.0317 0,0 64.2881,-46.708 64.2881,-46.708 z" />
  <path
     style="fill:none;fill-opacity:1;stroke:#000000;stroke-width:0.1;stroke-miterlimit:4;stroke-dasharray:none;stroke-opacity:1"
     id="path4579"
     d="m -89.430432,-1511.1467 c -19.096178,-0.5645 -38.205628,-0.4711 -57.308358,-0.6276 -38.7755,0.5905 -77.41957,-3.1976 -115.81617,-8.2302 -58.43635,-7.1719 -116.58165,-16.5149 -175.0904,-23.054 -67.08214,-6.4155 -134.35391,-9.7678 -201.69944,-11.5547 -51.24103,-1.122 -102.50115,-1.0735 -153.75,-0.6123 -27.02821,-0.022 -54.25115,1.4878 -80.45812,8.4413 -12.11962,1.7904 -24.10925,4.0138 -35.77203,7.8349 -2.80485,0.1091 -5.51623,0.7955 -8.24968,1.3514 0,0 63.68567,-48.0926 63.68567,-48.0926 v 0 c 2.54103,-0.4288 5.10243,-0.7495 7.53279,-1.6714 11.49627,-2.607 23.10013,-4.4495 34.69238,-6.5576 26.19634,-5.0869 52.90434,-6.4197 79.55937,-5.6056 50.4479,0.6033 100.89738,1.0979 151.32811,2.6332 67.38818,2.3488 134.73772,5.8521 201.88892,12.1217 59.00008,6.4232 117.69151,15.3112 176.66351,22.0141 39.16964,4.185 78.49296,7.0238 117.915717,5.6232 19.678717,-0.1577 39.3633,-0.075 59.036054,-0.6276 0,0 -64.158323,46.6138 -64.158323,46.6138 z" />
  <circle
     r="1.5"
     id="path4581"
     style="fill:#000000;stroke:none"
     cx="277.05371"
     cy="34.693039" />
  <ellipse
     r="1.5"
     id="path4583"
     style="fill:#000000;stroke:none"
     cx="615.37402"
     cy="-1352.5168" />
  <ellipse
     r="1.5"
     id="path4585"
     style="fill:#000000;stroke:none"
     cx="593.96967"
     cy="-1363.2191" />
  <path
     style="fill:none;stroke:#000000;stroke-width:1.2727133;stroke-linecap:butt;stroke-linejoin:miter;stroke-miterlimit:4;stroke-dasharray:none;stroke-opacity:1;marker-start:url(#Arrow1Lstart);marker-end:url(#Arrow1Lend)"
     d="M 200.23182,558.86263 H 647.51287"
     id="path4593" />
  <text
     transform="scale(0.97754157,1.0229744)"
     xml:space="preserve"
     style="font-style:normal;font-weight:normal;font-size:22.73203468px;line-height:1.25;font-family:sans-serif;letter-spacing:0px;word-spacing:0px;fill:#000000;fill-opacity:1;stroke:none;stroke-width:0.5683009"
     x="382.84503"
     y="566.63281"
     id="text5535"><tspan
       style="stroke-width:0.5683009"
       id="tspan5533"
       x="382.84503"
       y="566.63281">40mm</tspan></text>
  <path
     style="fill:none;stroke:#000000;stroke-width:1.23762405;stroke-linecap:butt;stroke-linejoin:miter;stroke-miterlimit:4;stroke-dasharray:none;stroke-opacity:1;marker-start:url(#marker5547);marker-end:url(#marker5581)"
     d="M 161.15927,80.44207 V 530.45919"
     id="path5537" />
  <text
     xml:space="preserve"
     style="font-style:normal;font-weight:normal;font-size:22.73203468px;line-height:1.25;font-family:sans-serif;letter-spacing:0px;word-spacing:0px;fill:#000000;fill-opacity:1;stroke:none;stroke-width:0.5683009"
     x="-331.22134"
     y="158.38455"
     id="text5627"
     transform="matrix(0,-1.0229744,0.97754157,0,0,0)"><tspan
       style="stroke-width:0.5683009"
       id="tspan5625"
       x="-331.22134"
       y="158.38455">40mm</tspan></text>
  <rect
     y="78.057579"
     x="197.51665"
     height="450.15421"
     width="450.15421"
     id="rect5959"
     style="fill:none;fill-opacity:1;stroke:#000000;stroke-width:2;stroke-miterlimit:4;stroke-dasharray:none;stroke-opacity:1" />
</svg>
