<?xml version="1.0" encoding="UTF-8" standalone="no"?>
<svg
   xmlns:dc="http://purl.org/dc/elements/1.1/"
   xmlns:cc="http://creativecommons.org/ns#"
   xmlns:rdf="http://www.w3.org/1999/02/22-rdf-syntax-ns#"
   xmlns:svg="http://www.w3.org/2000/svg"
   xmlns="http://www.w3.org/2000/svg"
   viewBox="0 0 264.56693 264.56691"
   height="70mm"
   width="70mm"
   id="svg869"
   version="1.1">
  <metadata
     id="metadata875">
    <rdf:RDF>
      <cc:Work
         rdf:about="">
        <dc:format>image/svg+xml</dc:format>
        <dc:type
           rdf:resource="http://purl.org/dc/dcmitype/StillImage" />
        <dc:title></dc:title>
      </cc:Work>
    </rdf:RDF>
  </metadata>
  <defs
     id="defs873" />
  <path
     id="path879"
     d="m 115.72443,183.76958 c -3.26021,-0.69278 -7.53827,-2.21729 -11.12613,-3.96484 -16.499709,-8.03661 -27.62768,-24.12939 -29.513082,-42.68055 -0.377913,-3.71841 -0.125885,-15.58818 0.416039,-19.59392 3.006068,-22.22021 12.962742,-43.747128 29.831753,-64.498006 8.37583,-10.303268 17.59115,-19.263021 34.37693,-33.423607 7.8243,-6.6006 8.41358,-7.06457 7.59353,-5.97873 -16.76162,22.194298 -20.83412,28.274167 -26.3039,39.269401 -4.03769,8.116451 -6.59052,15.091242 -8.54252,23.339776 -1.36451,5.765916 -1.30198,5.241186 -0.60104,5.043406 6.23824,-1.7603 8.21878,-2.05177 14.96518,-2.20235 5.39269,-0.12042 5.9601,-0.17553 5.80232,-0.5638 -0.44396,-1.09258 -1.44594,-6.814167 -1.71498,-9.793297 -0.88572,-9.807237 1.60018,-21.522014 7.08315,-33.37936 1.66164,-3.593441 5.00813,-10.235846 5.09855,-10.120066 0.0405,0.0517 -0.0902,1.57821 -0.29037,3.39211 -0.75094,6.806671 -0.11562,14.715559 1.7485,21.766973 2.94393,11.135957 8.07208,21.617531 19.87909,40.6315 9.84612,15.85615 11.30716,18.5344 13.15458,24.11385 1.84158,5.56174 2.38419,8.86917 2.5369,15.463 0.10632,4.58894 0.0434,6.43086 -0.30052,8.79162 -1.26368,8.67669 -4.41446,16.56199 -9.45405,23.6602 -1.54016,2.16928 -7.93895,9.51372 -8.11808,9.31777 -0.042,-0.0459 0.21981,-2.27982 0.58157,-4.9644 0.92407,-6.8574 0.97197,-16.51548 0.10976,-22.12456 -1.89443,-12.32359 -5.63582,-21.1865 -16.19421,-38.36219 -6.79225,-11.0492 -9.77872,-16.51322 -11.88549,-21.74572 l -0.86834,-2.15665 -2.24934,-0.18875 c -3.77942,-0.31713 -10.25605,0.0443 -13.64751,0.76164 -3.18648,0.67396 -6.42677,1.59518 -7.06306,2.00804 -0.46561,0.30212 -0.75897,2.94734 -0.78156,7.04718 -0.0425,7.71622 1.58062,15.14216 4.99747,22.86372 1.68435,3.80637 3.67467,7.55367 8.22574,15.48719 4.93845,8.6088 6.92534,12.27343 8.75865,16.15442 5.57599,11.80398 6.88962,21.76991 3.70646,28.11934 -2.06065,4.1104 -6.67088,7.66363 -11.19583,8.62895 -2.40946,0.514 -6.2766,0.46284 -9.01615,-0.11932 z m 8.47886,-3.57577 c 4.37019,-1.14615 7.9188,-4.40917 9.14084,-8.40511 0.44951,-1.46987 0.57484,-2.52625 0.56806,-4.7882 -0.023,-7.66716 -2.94462,-15.44934 -11.24858,-29.96195 -1.11589,-1.95025 -3.14777,-5.50491 -4.51526,-7.89927 -8.97384,-15.71241 -11.76922,-24.70931 -11.53838,-37.13602 0.0465,-2.50338 0.0521,-4.55144 0.0124,-4.55124 -0.24061,9.7e-4 -3.97345,2.01137 -5.2343,2.81881 -9.465722,6.06166 -16.915093,15.67431 -20.357866,26.2697 -4.006904,12.33156 -3.138453,25.36378 2.4659,37.00406 4.894778,10.16649 12.782109,18.08502 22.864816,22.95525 7.12159,3.43992 13.65415,4.7924 17.84226,3.69397 z m 45.2464,-22.46712 c 2.86744,-4.67528 5.17053,-10.66273 6.33802,-16.47711 0.53222,-2.6507 0.60322,-3.75954 0.59804,-9.33997 -0.005,-5.86424 -0.0579,-6.57705 -0.71088,-9.64561 -1.30832,-6.14919 -3.96792,-12.62351 -7.14699,-17.39812 -4.86819,-7.31153 -12.02335,-13.61635 -19.64698,-17.31213 -2.78131,-1.34833 -7.2117,-2.97718 -9.47981,-3.48532 -1.09201,-0.24465 -1.09428,-0.24355 -0.84755,0.40992 0.60464,1.60136 3.49965,7.33841 5.16205,10.22964 1.00123,1.74135 3.64695,6.1343 5.87935,9.76212 6.16163,10.01304 9.15133,15.52471 11.73553,21.63498 2.57968,6.09968 4.66954,13.87145 5.53389,20.57964 0.18697,1.45111 0.34411,5.27861 0.3492,8.50554 0.0109,6.69896 -0.18253,6.47996 2.23613,2.53642 z M 87.514967,97.55517 C 92.199253,92.03303 97.77917,87.66392 104.35523,84.36916 l 2.94566,-1.47583 0.45183,-2.53559 c 2.29031,-12.852729 9.05433,-29.017527 18.06291,-43.167157 0.73911,-1.160901 1.44168,-2.288815 1.56127,-2.506493 0.43198,-0.786274 -8.64004,8.40635 -12.23784,12.400551 -15.7163,17.447831 -26.791238,35.977599 -32.267625,53.987779 -1.517655,4.99111 -1.489957,5.06004 0.707213,1.7596 1.082807,-1.62652 2.854151,-4.0011 3.936319,-5.27685 z M 156.91398,85.93527 C 146.49129,68.848223 141.22998,56.260929 139.50121,44.276538 l -0.33709,-2.336801 -0.85967,2.374563 c -2.99411,8.270373 -4.33378,16.905203 -3.71813,23.96508 0.49631,5.691385 1.84119,11.52158 2.65778,11.52158 0.25587,0 1.85866,0.36106 3.56176,0.80237 5.62786,1.45828 11.61461,4.20085 16.32889,7.48036 0.93676,0.65166 1.73197,1.19174 1.76718,1.20019 0.0353,0.009 -0.85937,-1.49842 -1.98795,-3.34861 z m 13.55986,97.73294 c -3.83143,-2.03676 -3.74534,-7.6647 0.14447,-9.44383 2.31774,-1.06008 5.18722,-0.34632 6.79657,1.69058 1.50837,1.90911 1.18913,5.22164 -0.67166,6.96938 -1.58115,1.48508 -4.30874,1.82612 -6.26938,0.78387 z m 4.91391,-1.3826 c 1.02671,-0.78452 1.78568,-2.66308 1.56057,-3.8626 -0.41194,-2.19506 -1.87526,-3.48843 -3.94683,-3.48843 -2.34727,0 -3.87395,1.61656 -3.87395,4.10202 0,3.39569 3.61378,5.27122 6.26021,3.24901 z m -4.36555,-3.09554 v -2.75415 l 0.9171,-0.14987 c 1.36214,-0.22258 2.72134,0.0805 3.15465,0.70342 0.50789,0.73015 0.48255,1.14336 -0.10097,1.64649 -0.47028,0.40546 -0.47028,0.44362 0,1.37242 0.62525,1.23487 0.62237,1.89915 -0.009,1.89915 -0.59498,0 -0.95044,-0.4172 -1.18008,-1.38516 -0.12901,-0.54396 -0.33088,-0.72557 -0.80638,-0.72557 -0.54379,0 -0.64587,0.14115 -0.71558,0.98941 -0.0653,0.79474 -0.19733,1.006 -0.67089,1.07372 -0.5791,0.0828 -0.58956,0.0353 -0.58956,-2.66986 z m 2.46782,-0.60878 c 0.91178,-0.35229 0.32033,-1.4229 -0.78608,-1.4229 -0.23822,0 -0.37161,0.28412 -0.37161,0.79152 0,0.80032 0.29877,0.96326 1.15769,0.63138 z"
     style="fill:#000000;stroke-width:0.26293266" />
  <circle
     r="93.748154"
     cy="102.17604"
     cx="136.51167"
     id="path881"
     style="opacity:1;fill:none;fill-opacity:1;stroke:#000000;stroke-width:1.48007536;stroke-miterlimit:4;stroke-dasharray:none;stroke-opacity:1" />
  <text
     id="text885"
     y="215.00987"
     x="110.97987"
     style="font-style:normal;font-weight:normal;font-size:13.33333302px;line-height:1.25;font-family:sans-serif;letter-spacing:0px;word-spacing:0px;fill:#000000;fill-opacity:1;stroke:none"
     xml:space="preserve"><tspan
       y="215.00987"
       x="110.97987"
       id="tspan883">50.00mm</tspan></text>
</svg>
