<?xml version="1.0" encoding="UTF-8" standalone="no"?>
<svg
   xmlns:dc="http://purl.org/dc/elements/1.1/"
   xmlns:cc="http://creativecommons.org/ns#"
   xmlns:rdf="http://www.w3.org/1999/02/22-rdf-syntax-ns#"
   xmlns:svg="http://www.w3.org/2000/svg"
   xmlns="http://www.w3.org/2000/svg"
   viewBox="0 0 264.56692 264.56695"
   height="70mm"
   width="70mm"
   id="svg5302"
   version="1.1">
  <metadata
     id="metadata5308">
    <rdf:RDF>
      <cc:Work
         rdf:about="">
        <dc:format>image/svg+xml</dc:format>
        <dc:type
           rdf:resource="http://purl.org/dc/dcmitype/StillImage" />
        <dc:title></dc:title>
      </cc:Work>
    </rdf:RDF>
  </metadata>
  <defs
     id="defs5306" />
  <path
     id="path5855"
     d="m 22.336809,155.24246 0.0447,-0.38868 H 125.46055 228.53959 v 0.35325 0.35325 l -103.12376,0.0354 -103.123761,0.0354 z m 209.294821,-0.49568 c 0.19309,-0.25314 0.51364,-0.80951 0.71233,-1.23638 l 0.36127,-0.77613 9.9e-4,-6.40089 c 0.002,-6.99191 0.0273,-6.75991 -0.84266,-7.5879 l -0.44537,-0.42391 -1.97776,-0.0461 -1.97775,-0.0462 0.0437,4.92104 c 0.0432,4.85912 0.048,4.92904 0.3778,5.55689 0.18374,0.34972 0.489,0.84251 0.67838,1.09508 l 0.34444,0.45923 h -3.67342 -3.67341 l 0.62589,-1.16573 0.6259,-1.16573 0.003,-16.19704 c 0.003,-17.82917 0.065,-16.53321 -0.86077,-17.87877 -0.22471,-0.32661 -0.40858,-0.63008 -0.40858,-0.67436 0,-0.0443 2.17781,-0.0795 4.83956,-0.0784 5.33437,0.002 5.992,0.0775 7.44047,0.85081 1.70049,0.90784 3.00734,2.45359 3.54436,4.1923 0.26545,0.85942 0.28381,1.30651 0.28224,6.87428 -9.9e-4,4.52134 -0.0472,6.12517 -0.19068,6.66158 -0.28901,1.08032 -0.89364,2.16014 -1.66803,2.97894 l -0.70126,0.74148 0.70823,0.87891 c 0.38953,0.48341 0.88624,1.29953 1.10376,1.81362 l 0.39554,0.9347 0.071,7.06505 c 0.0698,6.94288 0.0765,7.07511 0.38226,7.64671 0.17115,0.31992 0.47883,0.78091 0.68374,1.02443 l 0.37258,0.44277 h -3.76424 -3.76422 l 0.35105,-0.46025 z m -0.15328,-22.4801 c 0.68734,-0.28719 1.33653,-1.10577 1.44073,-1.81667 0.0489,-0.33357 0.0692,-2.93214 0.0449,-5.77459 l -0.044,-5.16811 -0.35082,-0.51173 c -0.63511,-0.92638 -1.12591,-1.09199 -3.23627,-1.09199 h -1.85299 v 7.277 7.27699 h 1.7708 c 1.16762,0 1.92643,-0.065 2.22769,-0.1909 z m -106.68717,18.06991 c -2.51691,-0.5652 -4.81348,-2.80432 -5.49273,-5.35528 -0.15633,-0.58712 -0.19339,-3.13347 -0.19475,-13.38121 -0.002,-13.92898 -0.0407,-13.26576 0.87747,-15.00012 0.82335,-1.55535 2.54055,-2.99242 4.18725,-3.50415 1.27553,-0.39639 4.27131,-0.39722 5.55161,-0.002 2.27302,0.70248 4.22885,2.78354 4.84721,5.15754 0.32764,1.25791 0.33021,25.44812 0.003,26.705 -0.64821,2.48861 -2.95838,4.76261 -5.36504,5.28103 -1.23355,0.26573 -3.44952,0.31529 -4.41386,0.0987 z m 3.88012,-4.98026 c 0.25045,-0.1156 0.64054,-0.48978 0.86689,-0.83149 l 0.41154,-0.62131 0.0974,-4.27463 c 0.0536,-2.35106 0.0768,-7.8777 0.0515,-12.28144 l -0.0459,-8.00679 -0.4258,-0.61257 c -0.60415,-0.86915 -1.41918,-1.24841 -2.68283,-1.24841 -1.64461,0 -2.65869,0.71096 -3.04143,2.13233 -0.0941,0.34934 -0.13078,4.62562 -0.10567,12.30717 0.0383,11.72852 0.0396,11.77389 0.34137,12.33702 0.38186,0.71255 0.74251,1.03955 1.39331,1.26328 0.6462,0.22215 2.51518,0.12502 3.13949,-0.16316 z m -103.168001,4.72855 c 0.0553,-0.0972 0.18117,-0.27201 0.27979,-0.38858 0.0986,-0.11658 0.34329,-0.53911 0.5437,-0.93898 l 0.36442,-0.72702 v -16.0961 -16.0961 l -0.4655,-0.76884 c -0.25603,-0.42287 -0.58127,-0.9437 -0.72275,-1.15742 l -0.25726,-0.38858 h 4.04332 c 2.22384,0 4.04333,0.036 4.04333,0.08 0,0.044 -0.15699,0.2859 -0.34888,0.53748 -0.48121,0.6309 -0.78152,1.39804 -0.78152,1.99637 0,0.35461 5.55255,17.58933 6.28226,19.49966 0.0297,0.0778 0.059,-5.68863 0.0651,-12.81412 l 0.0112,-12.95544 -0.63491,-0.92738 -0.63492,-0.92739 h 3.68753 3.68752 l -0.43767,0.49848 c -0.24072,0.27417 -0.56524,0.74852 -0.72114,1.05413 -0.2796,0.54803 -0.28347,0.81517 -0.28347,19.5003 V 148.01 l 0.34542,0.68167 c 0.18998,0.37491 0.51357,0.88147 0.71906,1.12571 l 0.37364,0.44404 h -3.85231 -3.85232 l 0.29129,-0.31793 c 0.516,-0.56319 0.88838,-1.47523 0.88838,-2.17583 0,-0.51197 -0.78427,-2.88174 -3.3559,-10.14027 l -3.35589,-9.47216 -0.0415,9.88737 c -0.0274,6.53932 0.008,10.0596 0.10529,10.39602 0.0807,0.27976 0.37253,0.80434 0.64848,1.16573 l 0.5017,0.65707 h -3.61799 c -2.85377,0 -3.59675,-0.0373 -3.5175,-0.17662 z m 21.75299,-1.02789 0.63006,-1.20452 v -16.08381 -16.08379 l -0.36238,-0.68155 c -0.19931,-0.37483 -0.49121,-0.8453 -0.64867,-1.04548 l -0.28631,-0.36393 6.95878,-0.0367 c 3.82733,-0.0202 6.98091,-0.0145 7.00796,0.0125 0.0537,0.0537 0.89235,5.41863 0.89431,5.72114 8.5e-4,0.12944 -0.12428,0.0969 -0.41015,-0.10666 -0.22625,-0.1611 -0.75083,-0.45094 -1.16573,-0.64409 -0.73506,-0.34219 -0.83851,-0.35123 -4.03963,-0.35257 l -3.28525,-9.9e-4 v 5.43998 5.44009 l 2.22549,-8.4e-4 c 1.22402,-4.3e-4 2.47984,-0.0701 2.7907,-0.15498 0.31086,-0.0848 0.89902,-0.40443 1.30703,-0.71029 l 0.74183,-0.55611 v 3.69303 3.69305 l -0.49646,-0.4359 c -1.00371,-0.88128 -1.18194,-0.92512 -3.98984,-0.98153 l -2.57875,-0.0518 v 6.10062 6.10062 l 3.3559,-0.0465 c 3.14106,-0.0435 3.40063,-0.0672 4.05462,-0.36871 0.38431,-0.17719 0.91841,-0.48973 1.18692,-0.69452 l 0.48818,-0.37236 -0.0788,0.34127 c -0.0433,0.1877 -0.25603,1.5335 -0.4727,2.99066 l -0.39396,2.6494 h -7.03163 -7.03163 l 0.63007,-1.20451 z m 21.4832,0.81593 c 0.45287,-0.68821 0.62255,-1.11007 0.7019,-1.74513 0.0975,-0.78027 -5.43741,-31.91296 -5.81516,-32.709 -0.13524,-0.285 -0.5558,-0.82809 -0.93457,-1.20686 l -0.68867,-0.68867 h 3.68055 c 2.02431,0 3.67975,0.0159 3.67877,0.0353 -8.5e-4,0.0194 -0.19174,0.4099 -0.42391,0.86771 -0.27085,0.53412 -0.42032,1.04047 -0.41711,1.41302 0.003,0.31934 0.81859,5.25414 1.81298,10.96623 1.3077,7.51171 1.83268,10.24877 1.89717,9.89107 0.0491,-0.27201 0.73409,-5.02304 1.52231,-10.55786 l 1.43314,-10.0633 -0.31129,-0.64305 c -0.17122,-0.35368 -0.59618,-0.92793 -0.94435,-1.2761 l -0.63304,-0.63304 h 4.19371 4.19371 l -0.69844,0.76419 c -1.32641,1.45131 -1.3601,0.26666 0.35009,12.30443 0.82685,5.81996 1.52164,10.52211 1.54399,10.44921 0.14936,-0.48711 3.72154,-20.95234 3.72154,-21.32095 0,-0.2538 -0.18995,-0.83602 -0.42211,-1.29385 -0.23217,-0.45781 -0.42292,-0.84828 -0.4239,-0.86771 -8.5e-4,-0.0194 1.6484,-0.0353 3.6653,-0.0353 h 3.66709 l -0.68505,0.68505 c -0.37678,0.37679 -0.77875,0.86957 -0.89325,1.09509 -0.11451,0.22552 -1.52765,7.64194 -3.14029,16.48093 l -2.93208,16.07091 0.24156,0.7439 c 0.13287,0.40915 0.39807,0.95056 0.58934,1.20313 l 0.34777,0.45923 h -3.7689 -3.7689 l 0.22851,-0.31793 c 0.457,-0.63583 0.66009,-1.10238 0.73704,-1.69318 0.0515,-0.39579 -0.3626,-3.56442 -1.20541,-9.22232 -0.70618,-4.74064 -1.30071,-8.6723 -1.32119,-8.73702 -0.0205,-0.0647 -0.6268,3.87757 -1.34738,8.76066 -1.26425,8.56739 -1.30288,8.90206 -1.10308,9.55587 0.11387,0.37266 0.37459,0.89724 0.57939,1.16574 l 0.37235,0.48818 h -3.76792 -3.76791 z m 36.086721,-0.0706 c 0.16827,-0.25257 0.49239,-0.84074 0.72027,-1.30704 l 0.41433,-0.8478 1.2e-4,-5.00112 1.1e-4,-5.00113 -1.82779,-6.16165 c -1.00528,-3.3889 -2.47176,-8.35037 -3.25884,-11.02549 -0.7871,-2.67511 -1.519791,-5.03541 -1.628221,-5.24509 -0.10843,-0.20968 -0.5246,-0.67563 -0.92481,-1.03546 l -0.72767,-0.65423 h 3.971721 c 2.18444,0 3.9717,0.0229 3.9717,0.0508 0,0.028 -0.23176,0.29663 -0.51504,0.597 -0.28327,0.30036 -0.60492,0.76119 -0.71475,1.02409 -0.1919,0.45925 -0.12127,0.75826 1.80328,7.63378 1.10165,3.93569 2.04334,7.23094 2.09266,7.32278 0.0493,0.0918 1.00273,-3.07156 2.1187,-7.02977 1.58169,-5.61003 2.00901,-7.30349 1.93819,-7.68093 -0.054,-0.28795 -0.35204,-0.77473 -0.73531,-1.20102 l -0.64448,-0.71681 h 4.05156 4.05156 l -0.79557,0.72709 c -0.43756,0.39991 -0.88029,0.8927 -0.98384,1.09509 -0.10356,0.20238 -0.54106,1.54431 -0.97223,2.98205 -0.94093,3.13752 -3.69873,12.47793 -4.90099,16.59918 l -0.86456,2.96363 0.0435,4.87857 0.0435,4.87856 0.38401,0.81958 c 0.21121,0.45077 0.51323,1.00106 0.67118,1.22288 0.15794,0.2218 0.28716,0.44116 0.28716,0.48745 0,0.0463 -1.65946,0.0842 -3.68769,0.0842 h -3.68771 z m 32.77546,0.0505 c 0.16008,-0.22482 0.48229,-0.81299 0.71601,-1.30703 l 0.42496,-0.89828 1.1e-4,-15.91391 c 1.1e-4,-17.54937 0.0623,-16.33348 -0.9139,-17.85959 l -0.50738,-0.79317 5.26764,0.051 c 5.02049,0.0486 5.30689,0.0656 6.10406,0.36318 2.33766,0.87266 4.05231,2.77463 4.67003,5.18023 0.17589,0.68495 0.21625,1.86178 0.21625,6.30393 0,3.03454 -0.0627,5.8 -0.14113,6.22287 -0.20201,1.08948 -1.01606,2.65588 -1.83177,3.52472 l -0.70211,0.74785 0.52858,0.57573 c 0.69129,0.75298 1.09373,1.42011 1.46807,2.4337 0.28349,0.76761 0.30938,1.14521 0.36203,5.27774 0.0561,4.40737 0.0602,4.45791 0.40904,5.15749 0.19378,0.38858 0.48584,0.84958 0.649,1.02443 l 0.29666,0.31793 h -3.70524 -3.70524 l 0.42399,-0.61625 c 0.90899,-1.32117 0.93194,-1.46437 0.93194,-5.81294 0,-3.73659 -0.0161,-3.98388 -0.29024,-4.4505 -0.15963,-0.27174 -0.50286,-0.63736 -0.76272,-0.81248 -0.42932,-0.28931 -0.63841,-0.31841 -2.28851,-0.31841 h -1.81601 v 4.85497 4.85497 l 0.39043,0.76174 c 0.21474,0.41897 0.50818,0.93661 0.6521,1.15032 l 0.26168,0.38858 h -3.6997 -3.6997 z m 9.89557,-17.67456 c 0.30122,-0.15368 0.69611,-0.4875 0.87751,-0.74183 l 0.32983,-0.46242 0.04,-5.62088 c 0.0446,-6.27873 0.0485,-6.24993 -0.93143,-6.99821 -0.47703,-0.36427 -0.58231,-0.38257 -2.45288,-0.42661 l -1.95445,-0.046 v 7.28769 7.28766 h 1.77188 c 1.48629,0 1.86017,-0.045 2.31957,-0.2794 z m 9.04953,18.00325 c 0,-0.044 0.15171,-0.2825 0.33712,-0.52988 0.18541,-0.24739 0.47155,-0.71752 0.63586,-1.04471 l 0.29874,-0.5949 v -16.31704 -16.31695 l -0.63491,-0.92738 -0.63493,-0.92739 h 3.68544 3.68546 l -0.37365,0.44404 c -0.2055,0.24423 -0.52959,0.75183 -0.72022,1.128 l -0.34658,0.68395 0.0365,8.07827 0.0365,8.07828 3.42655,-8.08983 c 2.30146,-5.43368 3.42651,-8.25374 3.42651,-8.58906 0,-0.52942 -0.42953,-1.35732 -0.82345,-1.58718 -0.15745,-0.0918 1.17835,-0.13879 4.00272,-0.1406 l 4.23903,-0.003 -0.49455,0.38573 c -0.98977,0.772 -1.72296,1.51503 -2.05644,2.08406 -0.38451,0.65614 -5.99772,14.29939 -5.99772,14.57786 0,0.0988 0.72779,2.10947 1.61731,4.46818 0.88951,2.35871 2.25389,6.07756 3.03196,8.26411 0.77807,2.18655 1.53799,4.21677 1.68873,4.51158 0.15074,0.29481 0.66776,0.96521 1.14893,1.4898 l 0.87487,0.95378 h -4.19277 -4.19278 l 0.41643,-0.52988 c 0.532,-0.67695 0.87903,-1.35605 0.87903,-1.72013 0,-0.27177 -4.1958,-11.84039 -4.37089,-12.05135 -0.0459,-0.0553 -0.67089,1.22626 -1.38881,2.84798 l -1.30534,2.94857 0.003,3.08667 c 0.003,3.35052 0.0672,3.68283 0.92245,4.80416 0.19037,0.2496 0.34615,0.48986 0.34615,0.5339 0,0.044 -1.62143,0.08 -3.60318,0.08 -1.98174,0 -3.60317,-0.036 -3.60317,-0.08 z m 27.12979,-0.004 c 0,-0.0463 0.13179,-0.26925 0.29287,-0.49546 0.16107,-0.22621 0.4631,-0.8083 0.67118,-1.29353 l 0.37831,-0.88206 v -16.03798 -16.03765 l -0.4067,-0.77716 c -0.2237,-0.42744 -0.52572,-0.94594 -0.67117,-1.15223 -0.14547,-0.20628 -0.26449,-0.41293 -0.26449,-0.45922 0,-0.1521 9.09933,-0.0902 9.97108,0.0679 2.68119,0.48607 5.10338,2.76275 5.70127,5.35875 0.0807,0.35038 0.148,2.30579 0.1499,4.35541 0.003,3.60123 -0.008,3.75317 -0.35117,4.77598 -0.37121,1.10583 -0.56321,1.46887 -1.24719,2.3583 l -0.4144,0.53888 0.42897,0.45023 c 0.65823,0.69085 1.28356,1.76778 1.6152,2.7817 0.2697,0.82447 0.30677,1.32411 0.36234,4.88228 0.0754,4.8258 -0.0461,6.06059 -0.73981,7.52136 -0.60576,1.27556 -1.8818,2.65233 -3.01353,3.25142 -1.60074,0.84734 -1.85224,0.87715 -7.40147,0.87715 -2.78366,0 -5.06119,-0.0379 -5.06119,-0.0842 z m 9.63939,-4.72613 c 0.73012,-0.20278 1.32039,-0.74124 1.59189,-1.4522 0.19776,-0.51779 0.22404,-1.18827 0.1868,-4.76489 -0.0417,-4.00412 -0.0552,-4.18132 -0.3543,-4.66225 -0.17103,-0.27497 -0.56119,-0.64058 -0.86704,-0.81248 -0.49528,-0.27836 -0.75874,-0.31254 -2.40911,-0.31254 h -1.853 v 6.07594 6.07594 l 1.58965,-8.5e-4 c 0.87429,-4.3e-4 1.82609,-0.0665 2.11511,-0.14673 z m 0.26273,-17.97769 c 0.26224,-0.1767 0.62135,-0.53583 0.79806,-0.79805 0.3122,-0.46328 0.3213,-0.57347 0.3213,-3.89684 0,-3.31414 -0.01,-3.43455 -0.31794,-3.88721 -0.64656,-0.95 -0.92189,-1.05341 -2.94178,-1.10488 l -1.82713,-0.0466 v 5.02741 5.02742 h 1.74537 c 1.58144,0 1.79014,-0.0302 2.22212,-0.32129 z m 7.66764,22.47021 c 0.88035,-1.24826 0.98499,-1.55215 1.25109,-3.63391 2.7222,-21.29639 3.79798,-30.35038 3.66055,-30.80819 -0.0816,-0.27201 -0.37265,-0.83393 -0.6467,-1.24872 -0.27405,-0.41479 -0.49826,-0.7804 -0.49826,-0.81248 0,-0.032 2.51486,-0.0583 5.58858,-0.0583 h 5.58858 l -0.35483,0.46519 c -0.19515,0.25586 -0.51124,0.81223 -0.70243,1.23639 l -0.34761,0.77118 0.89824,7.20636 c 0.49404,3.96349 1.37979,11.08506 1.96836,15.8257 0.58856,4.74065 1.13353,8.84866 1.21103,9.12893 0.0776,0.28027 0.39342,0.90023 0.70202,1.37769 l 0.5611,0.86811 h -3.68751 -3.68752 l 0.37653,-0.49366 c 0.5752,-0.75413 0.92225,-1.62914 0.92505,-2.33237 0.002,-0.56742 -0.30109,-2.80344 -0.49361,-3.63849 -0.0731,-0.31722 -0.0798,-0.31792 -3.02671,-0.31792 h -2.9534 l -0.0771,0.38858 c -0.0424,0.2137 -0.17765,1.14152 -0.30051,2.0618 -0.2687,2.01251 -0.19242,2.36845 0.84757,3.95568 l 0.24661,0.37638 h -3.63666 -3.63665 z m 11.62818,-11.37501 c -0.0387,-0.136 -0.56644,-4.5828 -1.17275,-9.88178 -0.60631,-5.29898 -1.12292,-9.61397 -1.14803,-9.58886 -0.0431,0.0431 -2.28217,19.16598 -2.28805,19.54129 -0.002,0.1343 0.55818,0.17663 2.33824,0.17663 2.16213,0 2.33561,-0.0189 2.27059,-0.24728 z M 111.08212,111.19263 c -0.45578,-0.19808 -0.74075,-0.66818 -0.74075,-1.22196 0,-0.33703 0.73051,-1.11034 1.04889,-1.11034 0.34117,0 0.265,0.36377 -0.13044,0.62286 -0.82116,0.53805 -0.14435,1.49665 1.0567,1.49665 2.09979,0 4.39404,-1.62894 5.46223,-3.87827 0.37643,-0.79265 0.9537,-2.85926 2.31044,-8.2713 1.05606,-4.21267 1.95908,-7.52206 2.17021,-7.95348 0.19889,-0.406357 0.61822,-1.005802 0.93184,-1.332096 0.31363,-0.326296 0.52334,-0.622023 0.46601,-0.657169 -0.0574,-0.03514 -1.12161,-0.173465 -2.36506,-0.307371 -6.33211,-0.681899 -10.15017,0.932123 -10.80544,4.567806 -0.36096,2.00281 0.2541,3.35394 2.16271,4.75084 0.6794,0.49726 0.51345,0.7918 -0.24368,0.43251 -0.76717,-0.36403 -1.62417,-1.27267 -2.04302,-2.16612 -0.32725,-0.69802 -0.37464,-0.97825 -0.37464,-2.21544 0,-1.31517 0.0331,-1.4836 0.46354,-2.35759 0.80581,-1.636196 2.35516,-2.729463 4.79343,-3.382391 1.4739,-0.394684 4.1694,-0.399186 6.96556,-0.01162 l 2.04886,0.283981 0.64001,-0.403196 c 2.73625,-1.723801 6.65564,-2.244845 7.8561,-1.04439 0.78315,0.783151 0.18157,1.83396 -1.2958,2.263445 -0.6911,0.20091 -1.18177,0.224962 -3.02354,0.148223 -1.2092,-0.05039 -2.49617,-0.128053 -2.85991,-0.172605 l -0.66135,-0.081 -0.27549,0.896576 c -0.31718,1.032277 -2.35951,9.010887 -2.92413,11.423497 -0.49787,2.1274 -1.04694,3.4824 -1.97838,4.88226 -1.32367,1.98935 -3.86418,4.11138 -5.6632,4.73034 -0.94816,0.32621 -2.32477,0.3572 -2.9917,0.0674 z m 19.44702,-22.262634 c 0.49511,-0.08033 1.14686,-0.271903 1.44834,-0.425708 0.44983,-0.229488 0.54814,-0.354498 0.54814,-0.697041 0,-0.628334 -0.54646,-0.848564 -2.10554,-0.848564 -0.69948,0 -1.60873,0.07129 -2.02056,0.158417 -0.87323,0.18474 -2.29125,0.80352 -2.7971,1.22056 l -0.35271,0.29078 0.49401,0.09225 c 1.77715,0.331865 3.55176,0.409482 4.78542,0.209307 z M 25.419509,108.43643 v -0.4239 h 4.45097 4.45098 v 0.4239 0.4239 h -4.45098 -4.45097 z m 21.24624,0.21195 c -0.0447,-0.11657 -0.0447,-0.30733 0,-0.42391 0.0719,-0.18742 3.34433,-0.21194 28.2753,-0.21194 h 28.193981 v 0.4239 0.4239 H 74.941049 c -24.93097,0 -28.20339,-0.0245 -28.2753,-0.21195 z m 99.283461,-0.21217 v -0.42413 l 44.75707,0.0355 44.75707,0.0355 0.0447,0.38857 0.0447,0.38858 h -44.80178 -44.80178 z m -17.29889,-0.3279 c -0.37437,-0.27374 -0.26962,-0.8608 0.75898,-4.25336 0.46945,-1.54837 0.83151,-2.83727 0.80456,-2.86421 -0.1,-0.10001 -2.06778,2.08516 -2.7803,3.08746 -0.40571,0.57071 -1.05231,1.68941 -1.43688,2.48599 l -0.69921,1.44834 h -0.97821 c -0.53802,0 -0.97821,-0.0543 -0.97821,-0.12074 0,-0.51504 3.63118,-14.35474 3.91141,-14.90775 0.36819,-0.72659 1.98122,-2.492831 2.27659,-2.492831 0.0938,0 0.17054,0.134268 0.17054,0.298381 0,0.22544 -3.03047,12.31786 -3.48405,13.90236 -0.0445,0.15543 0.41188,-0.38505 1.01416,-1.20106 1.2941,-1.75333 3.8489,-4.36141 4.68721,-4.78496 0.60782,-0.30709 1.03261,-0.28051 1.03261,0.0646 0,0.10722 -0.48051,1.85404 -1.06781,3.88183 -0.58729,2.02779 -1.04608,3.75205 -1.01954,3.83168 0.0265,0.0797 0.48098,-0.3387 1.00985,-0.92963 0.52888,-0.59093 1.01947,-1.07442 1.0902,-1.07442 0.68588,0 -1.64552,2.83909 -2.83873,3.45689 -0.60829,0.31496 -1.18509,0.38207 -1.47317,0.17142 z m 6.04185,0.0397 c -0.55776,-0.17128 -1.13871,-0.845 -1.25274,-1.45281 -0.0962,-0.51244 0.62261,-3.89267 1.0995,-5.17098 0.53035,-1.42156 1.78555,-2.39973 3.73354,-2.9095 1.82688,-0.47808 2.71338,0.28348 2.43043,2.0879 -0.28277,1.80313 -0.22718,1.74276 -2.58532,2.80751 -1.15992,0.52373 -2.15447,1.0357 -2.21011,1.13771 -0.21098,0.38685 -0.57637,2.37098 -0.48793,2.64962 0.07,0.22066 0.21168,0.29123 0.58449,0.29123 0.94688,0 1.57043,-0.52697 2.7201,-2.29881 0.33942,-0.52311 0.66949,-0.95111 0.73349,-0.95111 0.30144,0 0.25435,0.35121 -0.14841,1.10687 -0.51525,0.96669 -1.54403,2.05848 -2.30695,2.44823 -0.64412,0.32905 -1.69103,0.44423 -2.31009,0.25414 z m 2.70833,-4.92007 0.7065,-0.37284 0.30936,-1.20105 c 0.17015,-0.66058 0.31322,-1.50308 0.31793,-1.87223 l 0.009,-0.67119 h -0.5013 c -0.82477,0 -1.09031,0.43152 -1.65622,2.69157 -0.5644,2.25395 -0.60842,2.17696 0.81516,1.42574 z"
     style="fill:#000000;stroke-width:0.14130095" />
  <rect
     y="11.838642"
     x="18.791792"
     height="223.66646"
     width="223.66646"
     id="rect5857"
     style="opacity:1;fill:none;fill-opacity:1;stroke:#000000;stroke-width:1;stroke-miterlimit:4;stroke-dasharray:none;stroke-opacity:1" />
  <text
     id="text5861"
     y="252.42958"
     x="97.09877"
     style="font-style:normal;font-weight:normal;font-size:13.33333302px;line-height:1.25;font-family:sans-serif;letter-spacing:0px;word-spacing:0px;fill:#000000;fill-opacity:1;stroke:none"
     xml:space="preserve"><tspan
       y="252.42958"
       x="97.09877"
       id="tspan5859">60.00mm</tspan></text>
</svg>
