<?xml version="1.0" encoding="UTF-8" standalone="no"?>
<!-- Created with Inkscape (http://www.inkscape.org/) -->

<svg
   xmlns:dc="http://purl.org/dc/elements/1.1/"
   xmlns:cc="http://creativecommons.org/ns#"
   xmlns:rdf="http://www.w3.org/1999/02/22-rdf-syntax-ns#"
   xmlns:svg="http://www.w3.org/2000/svg"
   xmlns="http://www.w3.org/2000/svg"
   xmlns:sodipodi="http://sodipodi.sourceforge.net/DTD/sodipodi-0.dtd"
   xmlns:inkscape="http://www.inkscape.org/namespaces/inkscape"
   width="210mm"
   height="297mm"
   viewBox="0 0 210 297"
   version="1.1"
   id="svg289"
   sodipodi:docname="cir40mm-ailsabay.svg"
   inkscape:version="0.92.2 5c3e80d, 2017-08-06">
  <sodipodi:namedview
     id="base"
     pagecolor="#ffffff"
     bordercolor="#666666"
     borderopacity="1.0"
     inkscape:pageopacity="0.0"
     inkscape:pageshadow="2"
     inkscape:zoom="0.98994949"
     inkscape:cx="237.6577"
     inkscape:cy="661.41749"
     inkscape:document-units="mm"
     inkscape:current-layer="g660"
     showgrid="false"
     inkscape:window-width="1440"
     inkscape:window-height="809"
     inkscape:window-x="0"
     inkscape:window-y="1"
     inkscape:window-maximized="1" />
  <defs
     id="defs283">
    <marker
       id="Arrow1Lstart"
       orient="auto"
       refX="0.0"
       refY="0.0"
       style="overflow:visible"
       inkscape:stockid="Arrow1Lstart">
      <path
         d="M 0.0,0.0 L 5.0,-5.0 L -12.5,0.0 L 5.0,5.0 L 0.0,0.0 z "
         transform="scale(0.8) translate(12.5,0)"
         style="fill-rule:evenodd;stroke:#000000;stroke-width:1.0pt;marker-start:none"
         id="path525" />
    </marker>
    <marker
       id="Arrow1Lend"
       orient="auto"
       refX="0.0"
       refY="0.0"
       style="overflow:visible"
       inkscape:stockid="Arrow1Lend">
      <path
         d="M 0.0,0.0 L 5.0,-5.0 L -12.5,0.0 L 5.0,5.0 L 0.0,0.0 z "
         transform="scale(0.8) rotate(180) translate(12.5,0)"
         style="fill-rule:evenodd;stroke:#000000;stroke-width:1.0pt;marker-start:none"
         id="path528" />
    </marker>
    <marker
       inkscape:stockid="Arrow1Lstart"
       style="overflow:visible"
       refY="0.0"
       refX="0.0"
       orient="auto"
       id="marker632">
      <path
         id="path630"
         style="fill-rule:evenodd;stroke:#000000;stroke-width:1.0pt;marker-start:none"
         transform="scale(0.8) translate(12.5,0)"
         d="M 0.0,0.0 L 5.0,-5.0 L -12.5,0.0 L 5.0,5.0 L 0.0,0.0 z " />
    </marker>
    <marker
       inkscape:stockid="Arrow1Lend"
       style="overflow:visible"
       refY="0.0"
       refX="0.0"
       orient="auto"
       id="marker636">
      <path
         id="path634"
         style="fill-rule:evenodd;stroke:#000000;stroke-width:1.0pt;marker-start:none"
         transform="scale(0.8) rotate(180) translate(12.5,0)"
         d="M 0.0,0.0 L 5.0,-5.0 L -12.5,0.0 L 5.0,5.0 L 0.0,0.0 z " />
    </marker>
  </defs>
  <metadata
     id="metadata286">
    <rdf:RDF>
      <cc:Work
         rdf:about="">
        <dc:format>image/svg+xml</dc:format>
        <dc:type
           rdf:resource="http://purl.org/dc/dcmitype/StillImage" />
        <dc:title></dc:title>
      </cc:Work>
    </rdf:RDF>
  </metadata>
  <g
     inkscape:label="Layer 1"
     inkscape:groupmode="layer"
     id="layer1">
    <path
       d="m 60.962597,138.71333 c -0.897877,-1.56192 -2.492933,-3.34542 -2.260198,-4.90937 l 22.5458,-39.818859 45.806111,0.06627 22.83526,40.129809 -22.81224,39.65389 -45.859864,-0.0615 z m 19.008658,38.8611 h 48.835195 c 0.87906,-0.25211 25.17367,-42.44778 25.16088,-43.39728 -0.0193,-1.41931 -23.33104,-40.513753 -24.50668,-43.93388 H 79.971255 c -1.60783,0.313367 -5.830469,8.952829 -6.680687,10.33093 l -18.868534,33.30337 c -0.197718,1.12522 1.998419,4.17478 2.61627,5.27525 1.143964,2.03797 2.109857,3.67381 3.23879,5.72492 l 12.783953,22.10362 c 1.099744,1.78502 4.939305,9.82116 6.910208,10.59307 z"
       style="fill:#1b1918;fill-rule:evenodd;stroke-width:0.72980261"
       id="path190"
       inkscape:connector-curvature="0" />
    <path
       d="m 88.98002,107.20941 c 0.0795,-0.0786 0.207699,-0.31236 0.242865,-0.2317 l 10.798895,-6.57873 c 4.95325,-2.978796 4.0793,-2.537322 12.09698,2.11173 l 12.69011,7.72071 c 2.25224,1.82856 7.4034,4.01637 10.24145,6.22117 l 0.10762,35.44191 c -1.33435,1.12274 -5.72682,3.51976 -7.5406,4.48091 -2.66525,1.41276 -4.77701,2.79443 -7.59701,4.38299 -1.85342,1.04417 -14.49909,8.65254 -15.64894,8.70713 -2.16029,0.10284 -27.097498,-15.68188 -31.031581,-17.27657 l -0.02699,-35.98342 c 4.434429,-2.06717 13.929592,-8.70428 15.667178,-8.99622 z m -18.416429,7.57443 -0.04953,38.82643 16.692043,9.68199 c 1.79692,0.99013 16.209116,9.38996 16.808586,9.44755 1.27126,0.1219 15.55911,-8.55513 16.77466,-9.23778 3.07531,-1.72717 5.72566,-3.2885 8.48434,-4.95578 2.41828,-1.46177 6.29511,-3.37859 8.43512,-4.88095 l 0.006,-38.92878 c -4.70008,-3.08099 -31.63923,-19.482948 -33.40826,-19.585032 -1.01908,-0.05876 -14.640267,8.126902 -17.023811,9.433992 -7.651759,4.1966 -10.043173,6.70515 -16.719847,10.19836 z"
       style="fill:#1b1918;fill-rule:evenodd;stroke-width:0.72980261"
       id="path192"
       inkscape:connector-curvature="0" />
    <path
       d="m 90.934355,109.24215 h 26.909155 l 14.45278,24.91583 c -2.55132,5.64449 -12.57058,20.72288 -13.89421,24.47787 H 90.934355 c -2.076947,-0.46101 -14.627147,-23.83989 -14.633351,-24.4803 -0.0022,-0.27059 12.794473,-23.95227 14.633351,-24.9134 z m -1.954335,-2.03274 c -2.121537,4.86852 -4.599806,8.68942 -7.185932,13.33437 -9.345272,16.78468 -9.925831,9.91211 -0.391321,26.62805 1.692045,2.96646 5.934393,11.18005 7.729928,13.18912 l 30.146185,0.0248 14.89679,-26.21284 c -0.0113,-0.97698 -6.41591,-11.83334 -7.41131,-13.42983 -2.96372,-4.75412 -4.92593,-8.92092 -7.50097,-13.34048 z"
       style="fill:#1b1918;fill-rule:evenodd;stroke-width:0.72980261"
       id="path194"
       inkscape:connector-curvature="0" />
    <path
       d="m 117.34527,142.16494 c -0.77121,1.51762 -1.08399,2.10344 -1.89204,3.56493 -0.78261,1.41575 -1.53681,2.40632 -1.98592,4.03522 l -9.22062,-0.0113 3.15631,-2.10935 c 1.41234,-0.73237 1.87466,-0.92233 3.24857,-1.74644 1.88809,-1.1325 4.80692,-3.03311 6.6937,-3.73461 z m -26.490387,-0.17295 c 2.530366,1.20236 4.3043,2.41073 6.548074,3.64477 1.119662,0.6158 2.131321,1.16477 3.190053,1.8091 l 3.43969,2.28546 c -11.039497,0.0528 -7.599799,1.74487 -13.177817,-7.73933 z m 19.916297,-18.51642 c 1.31184,1.2525 4.30243,3.04934 5.99258,3.24238 l -0.12964,14.4166 -9.14889,5.56488 c -4.83925,2.81075 -3.03072,1.5583 -9.649592,-1.75884 -2.469142,-1.61089 -5.700852,-2.8466 -6.063936,-4.3045 l 0.0022,-12.95619 c 0.25967,-1.01809 7.63352,-5.17417 9.093718,-6.00294 1.79815,-1.02068 2.80323,-2.04454 4.64888,-1.16737 1.85169,0.8802 3.62993,2.07754 5.25512,2.96598 z m -19.869451,3.04956 -0.04683,15.46686 c -0.661346,-1.08039 -4.171402,-6.82229 -4.248767,-7.44691 -0.162154,-1.31031 3.50356,-6.89161 4.295624,-8.01995 z m 26.443541,15.63989 0.0113,-13.97797 c -0.46547,-2.5728 0.0646,-0.72016 -0.59203,-1.4691 -0.47721,-0.94366 1.23606,0.0701 -2.78595,-2.15467 l -9.8829,-6.01248 9.35599,0.005 c 0.6326,2.49547 4.90352,9.12269 6.34052,11.65199 1.34532,2.36761 2.73376,3.21149 1.11935,5.98122 -0.81556,1.39932 -2.726,5.12475 -3.5655,5.97614 z M 90.901729,126.52513 c 0.573265,-1.31014 3.802275,-7.64257 5.015793,-7.97433 l 7.598488,0.59318 -6.035111,3.59998 c -1.936451,1.02557 -4.584691,2.98708 -6.57917,3.78117 z m 3.576478,24.08704 19.542143,0.0646 c 0.86723,-2.42073 3.07371,-5.44848 4.43744,-7.93272 l 4.47549,-7.69511 c 0.0823,-0.097 0.22589,-0.23775 0.2955,-0.31635 0.0712,-0.0803 0.19914,-0.21738 0.30577,-0.31878 l -0.10144,11.45642 c 1.69519,-1.58409 0.85912,-14.98451 0.89015,-17.69157 0.007,-0.7214 0.11193,-2.44091 0.0651,-3.02672 -0.25431,-3.18574 -0.56665,-2.41139 -1.02311,-2.67824 l 0.20438,11.45369 c -1.91877,-1.6395 -9.07514,-14.872 -9.63328,-16.22817 l -19.386924,0.0281 c -1.735908,2.66393 -2.792951,5.09899 -4.570616,7.99792 -5.986341,9.76257 -6.14033,7.06821 -0.238067,16.6027 1.517482,2.45148 3.603989,5.73269 4.737444,8.2845 z"
       style="fill:#1b1918;fill-rule:evenodd;stroke-width:0.72980261"
       id="path196"
       inkscape:connector-curvature="0" />
    <path
       d="m 94.549435,117.72698 c 0.536694,-0.73045 8.454685,-5.39917 9.401015,-5.46937 1.30272,-0.0968 3.69696,1.5174 5.07768,2.32173 0.81073,0.47211 1.72364,1.06624 2.46293,1.49689 0.2891,0.16826 1.15645,0.65398 1.27325,0.73011 0.0924,0.0601 0.21927,0.14261 0.30622,0.20301 l 0.58398,0.45114 c 0.0618,0.0474 0.19474,0.15143 0.28185,0.23833 3.06823,1.07844 6.90456,4.43384 9.42888,4.77451 0.45652,0.26675 0.76872,-0.5075 1.02311,2.67824 0.0466,0.58582 -0.0571,2.3053 -0.0651,3.0267 -0.0309,2.70706 0.80503,16.10749 -0.89014,17.69161 -2.97817,0.30848 -6.01248,3.60074 -9.4127,4.80654 l -4.66907,2.90154 c -0.71862,0.43554 -4.38996,2.61045 -5.04344,2.65656 -1.19279,0.0842 -9.049988,-4.77983 -9.829633,-5.62254 l -7.596815,-3.93182 c -1.401437,-0.80314 -1.497841,-0.61309 -2.049571,-2.05767 l 0.01215,-20.92929 c 0.375116,-1.8259 8.140289,-5.44098 9.705571,-5.96637 z m -11.03849,4.42892 0.008,24.08811 c 1.862602,1.11988 19.636675,11.32106 20.418925,11.38411 1.38619,0.11149 19.43276,-10.38494 20.82135,-11.39959 l -3.6e-4,-24.05654 -15.36931,-8.9495 c -1.60067,-0.95136 -4.17023,-1.65148 -5.09935,-3.25895 -1.82028,2.11928 -17.093375,9.75637 -20.779241,12.19236 z"
       style="fill:#1b1918;fill-rule:evenodd;stroke-width:0.72980261"
       id="path198"
       inkscape:connector-curvature="0" />
    <path
       d="m 98.29916,124.07106 5.91672,0.0193 5.91682,0.0193 2.94256,5.13323 2.94249,5.13321 -2.97423,5.11489 -2.97426,5.11498 -5.91671,-0.0193 -5.91681,-0.0193 -2.942496,-5.13322 -2.942562,-5.13321 2.974236,-5.11489 z"
       style="fill:none;stroke:#1b1918;stroke-width:0.4137252;stroke-linecap:butt;stroke-linejoin:miter;stroke-dasharray:none"
       id="path200"
       inkscape:connector-curvature="0" />
    <path
       d="m 104.0778,126.26064 a 8.0468046,8.0468046 0 0 1 8.04682,8.04679 8.0468046,8.0468046 0 1 1 -8.04682,-8.04679 z"
       style="fill:none;stroke:#1b1918;stroke-width:0.4137252;stroke-linecap:butt;stroke-linejoin:miter;stroke-dasharray:none"
       id="path202"
       inkscape:connector-curvature="0" />
    <g
       id="g660"
       stroke="black"
       fill="none">
      <path
         id="path647"
         stroke-width="0.264583333328"
         marker-end="url(#Arrow1Lend)"
         marker-start="url(#Arrow1Lstart)"
         d="M 48.243490 65.279315 H 159.959466" />
      <path
         id="path649"
         stroke-width="0.132291666664"
         d="M 48.243490 52.050148 V 190.224458" />
      <path
         id="path651"
         stroke-width="0.132291666664"
         d="M 159.959466 52.050148 V 190.224458" />
      <path
         id="path655"
         stroke-width="0.132291666664"
         d="M 21.785157 78.508482 H 159.959466" />
      <path
         id="path657"
         stroke-width="0.132291666664"
         d="M 21.785157 190.224458 H 159.959466" />
      <circle
         r="55.725697"
         cy="134.36647"
         cx="104.10148"
         id="path623"
         style="fill:none;fill-opacity:1;stroke:#000000;stroke-width:0.26458332;stroke-miterlimit:4;stroke-dasharray:none;stroke-opacity:1" />
      <text
         xml:space="preserve"
         style="font-style:normal;font-weight:normal;font-size:10.58333302px;line-height:1.25;font-family:sans-serif;letter-spacing:0px;word-spacing:0px;fill:#000000;fill-opacity:1;stroke:none;stroke-width:0.26458332"
         x="86.595329"
         y="74.364471"
         id="text692"><tspan
           sodipodi:role="line"
           id="tspan690"
           x="86.595329"
           y="74.364471"
           style="stroke-width:0.26458332">40mm</tspan></text>
    </g>
  </g>
</svg>
