<?xml version="1.0" encoding="UTF-8" standalone="no"?>
<!-- Created with Inkscape (http://www.inkscape.org/) -->

<svg
   xmlns:dc="http://purl.org/dc/elements/1.1/"
   xmlns:cc="http://creativecommons.org/ns#"
   xmlns:rdf="http://www.w3.org/1999/02/22-rdf-syntax-ns#"
   xmlns:svg="http://www.w3.org/2000/svg"
   xmlns="http://www.w3.org/2000/svg"
   xmlns:sodipodi="http://sodipodi.sourceforge.net/DTD/sodipodi-0.dtd"
   xmlns:inkscape="http://www.inkscape.org/namespaces/inkscape"
   version="1.1"
   id="svg64"
   width="3153"
   height="1599"
   viewBox="0 0 3153 1599"
   sodipodi:docname="40mm_sq.svg"
   inkscape:version="0.92.2 5c3e80d, 2017-08-06">
  <metadata
     id="metadata70">
    <rdf:RDF>
      <cc:Work
         rdf:about="">
        <dc:format>image/svg+xml</dc:format>
        <dc:type
           rdf:resource="http://purl.org/dc/dcmitype/StillImage" />
        <dc:title></dc:title>
      </cc:Work>
    </rdf:RDF>
  </metadata>
  <defs
     id="defs68" />
  <sodipodi:namedview
     pagecolor="#ffffff"
     bordercolor="#666666"
     borderopacity="1"
     objecttolerance="10"
     gridtolerance="10"
     guidetolerance="10"
     inkscape:pageopacity="0"
     inkscape:pageshadow="2"
     inkscape:window-width="1440"
     inkscape:window-height="805"
     id="namedview66"
     showgrid="false"
     inkscape:zoom="2.094345"
     inkscape:cx="792.68458"
     inkscape:cy="1012.316"
     inkscape:window-x="0"
     inkscape:window-y="1"
     inkscape:window-maximized="1"
     inkscape:current-layer="svg64" />
  <path
     style="fill:#000000;stroke-width:0.10333154"
     d="m 794.12825,646.10065 c -0.48313,-0.0462 -1.6688,-0.1594 -2.63493,-0.25147 -12.23394,-1.1659 -22.25918,-3.61945 -28.08733,-6.87405 -2.32395,-1.29773 -3.2074,-1.97385 -7.2004,-5.51039 -1.95583,-1.73222 -6.68827,-6.49322 -7.87393,-7.92136 -2.60704,-3.14037 -8.94755,-12.7316 -11.8441,-17.9162 -2.99911,-5.36823 -4.94284,-10.46497 -5.99548,-15.72051 -0.88999,-4.44382 -1.29019,-9.05892 -1.29402,-14.92314 0,-6.35311 0.58826,-11.29014 2.05814,-17.15304 1.83108,-7.30344 4.85238,-13.51382 10.53157,-21.64845 5.59812,-8.01842 11.65098,-14.49826 18.0337,-19.30567 3.88663,-2.92746 8.33115,-5.59084 14.15706,-8.48379 10.55836,-5.24278 18.9453,-7.69384 27.79623,-8.12337 2.3348,-0.11329 3.36079,-0.0822 5.73497,0.17429 7.24618,0.7826 16.40908,4.49286 26.24614,10.62764 9.00628,5.61666 15.72293,10.56089 19.58401,14.41594 1.49541,1.49314 2.25965,2.44529 3.69287,4.60047 3.3102,4.97785 6.06953,10.83815 9.63282,20.45808 1.45691,3.93344 1.76013,5.02488 3.50136,12.60643 1.84008,8.01222 2.48697,12.60796 2.50029,17.76548 0.0124,2.9208 -0.26752,4.94395 -1.14889,8.44983 -2.06257,8.20405 -8.15949,23.23872 -10.9409,26.97971 -0.20277,0.27277 -0.71748,0.78825 -1.14372,1.14551 -1.10064,0.92262 -3.57984,3.24465 -6.39715,5.99184 -4.18538,4.08124 -6.1073,5.71058 -9.75697,8.27202 -2.40034,1.68452 -6.62323,3.90816 -9.88543,5.20527 -9.48967,3.77336 -20.50128,6.09745 -32.85937,6.93522 -3.81987,0.25896 -5.32799,0.30691 -6.40654,0.20371 z m 9.93739,-4.85064 c 4.49154,-0.30923 12.15507,-1.59669 17.80712,-2.99155 6.21465,-1.53369 10.6783,-3.28607 15.1316,-5.9404 6.34162,-3.7798 14.60823,-10.38669 19.48443,-15.57236 2.10529,-2.23889 3.46618,-4.70213 5.82259,-10.5395 5.17595,-12.82142 6.98381,-21.9296 5.95611,-30.00768 -0.79509,-6.25072 -3.23061,-15.74048 -6.61399,-25.77119 -1.98496,-5.88478 -3.16235,-8.5024 -5.22876,-11.6248 -2.57112,-3.88523 -5.01921,-6.92329 -8.15011,-10.11419 -3.36919,-3.43384 -6.04398,-5.68314 -9.94196,-8.36038 -5.4214,-3.72356 -12.87625,-7.22937 -23.33144,-10.9721 -3.27897,-1.17379 -3.47063,-1.21715 -7.58047,-1.71381 l -3.70559,-0.44781 -2.44266,0.27764 c -2.67579,0.30412 -8.34078,1.02648 -9.43761,1.20339 -2.60766,0.42059 -7.2242,2.23251 -14.52888,5.70228 -9.18079,4.36092 -13.36088,6.8335 -16.81225,9.94466 -8.69519,7.83825 -16.05194,16.19423 -20.11737,22.85015 -2.03716,3.33516 -3.78111,7.08174 -4.93025,10.5915 -1.22369,3.73732 -2.26806,9.1466 -2.71305,14.05311 -0.17141,1.89014 -0.17264,7.81164 0,9.7648 0.5668,6.48769 1.66386,11.43346 3.44459,15.52898 2.17105,4.99352 7.80409,14.59699 11.70811,19.96047 3.98152,5.47001 8.8471,10.57295 13.98504,14.66732 3.65648,2.91387 7.29752,5.11651 10.17136,6.15312 3.26405,1.17735 8.97261,2.16879 17.07744,2.96594 2.97009,0.29211 3.79864,0.332 8.1622,0.39279 2.67111,0.0372 4.93433,0.0769 5.02923,0.088 0.095,0.0111 0.88543,-0.0285 1.75666,-0.0886 z m 10.83217,-22.94096 c -2.28555,-0.21239 -4.39566,-0.95403 -6.30866,-2.21731 -1.14199,-0.75412 -2.90075,-2.56762 -3.7926,-3.91064 -2.06554,-3.11033 -4.04432,-8.13494 -5.04143,-12.80045 l -0.17104,-0.80081 -13.70688,-0.002 c -8.94486,0 -13.83796,-0.0371 -14.08416,-0.10537 -0.45906,-0.12751 -2.09848,-1.7926 -2.55928,-2.59935 -0.4893,-0.85681 -0.4893,-1.07163 0,-2.25138 0.47956,-1.15565 0.37848,-1.09519 1.55959,-0.93212 2.21388,0.3057 5.22999,0.33874 34.59776,0.37908 19.29625,0.0267 30.0428,0.005 30.27616,-0.0599 0.1988,-0.0555 0.76535,-0.22591 1.25885,-0.37855 1.58723,-0.49108 2.49289,-0.26228 2.99464,0.75648 0.20646,0.41927 0.24139,0.64688 0.24139,1.57508 0,0.91337 -0.0371,1.16669 -0.23756,1.60163 -0.47522,1.03329 -1.4041,1.70971 -2.6184,1.90675 -0.36144,0.0586 -2.15266,0.10699 -3.98039,0.10749 l -3.32316,0.002 0.14327,0.54249 c 0.54828,2.07681 0.58987,4.65847 0.10493,6.50667 -0.34553,1.31642 -0.86285,2.6201 -1.68298,4.24134 -2.66899,5.27615 -6.08717,7.95413 -10.77678,8.4432 -1.0999,0.11477 -1.61945,0.1139 -2.89334,-0.005 z m 2.37554,-5.21708 c 2.12331,-0.40279 3.72966,-1.3219 4.8514,-2.77582 0.63603,-0.82437 2.30717,-3.634 2.95517,-4.96811 0.78768,-1.62201 1.02734,-2.56272 0.92109,-3.61652 -0.10984,-1.08906 -0.11601,-1.8321 -0.0198,-2.55754 l 0.079,-0.59414 h -4.70245 c -2.84792,0 -4.70256,0.0381 -4.70256,0.0966 0,0.053 0.0481,0.2239 0.10734,0.37947 0.0592,0.1556 0.1281,0.82125 0.15328,1.47921 0.0246,0.65797 0.0987,1.75866 0.16302,2.446 0.0901,0.95365 0.0888,1.3036 0,1.4774 -0.40885,0.76407 -2.07505,0.32491 -3.27046,-0.86205 -0.73957,-0.73429 -1.15223,-1.53606 -1.7922,-3.48151 -0.41353,-1.25733 -0.44216,-1.30941 -0.76067,-1.38519 -0.18201,-0.0433 -1.7084,-0.0961 -3.39226,-0.11723 l -3.06129,-0.0385 0.0839,0.44876 c 0.41724,2.23386 2.03692,7.37698 2.94542,9.35375 1.23083,2.67778 3.44062,4.45051 5.98658,4.8026 0.7877,0.10898 2.67788,0.0614 3.46051,-0.0871 z m -2.53448,-46.22236 c -0.9771,-0.44387 -1.83933,-2.04866 -1.58906,-2.95752 0.0728,-0.26201 1.18195,-1.9074 3.03166,-4.49492 1.60488,-2.24487 2.9543,-4.14371 2.99873,-4.21964 0.0569,-0.0963 -0.82497,-1.05109 -2.90852,-3.1516 -1.87722,-1.89243 -3.05858,-3.16349 -3.17544,-3.41651 -0.77239,-1.67284 0.84186,-3.98867 2.78043,-3.98867 0.24988,0 0.5853,0.0492 0.74523,0.1096 0.16006,0.0602 1.55774,1.37245 3.10609,2.91602 2.42723,2.41977 2.83448,2.78556 2.95517,2.6546 0.0765,-0.0835 1.01302,-1.3609 2.08034,-2.83852 1.06733,-1.47764 2.08023,-2.83466 2.25102,-3.01558 0.74081,-0.78511 2.08085,-1.01555 3.03563,-0.52204 1.38965,0.71826 1.93103,2.29088 1.28845,3.74327 -0.11229,0.25531 -1.19022,1.84741 -2.39416,3.53799 -1.20381,1.69059 -2.21314,3.13707 -2.24274,3.21444 -0.0332,0.0869 1.29709,1.49368 3.47001,3.6695 2.61974,2.62338 3.57749,3.64813 3.73261,3.99381 0.55557,1.23812 0,2.71539 -1.32512,3.4914 -0.38798,0.22806 -0.6016,0.27983 -1.14828,0.27815 -0.57975,-0.002 -0.77511,-0.0571 -1.42767,-0.40389 -0.67033,-0.35632 -1.08547,-0.73986 -3.66239,-3.38402 -1.59846,-1.64021 -2.94084,-2.96968 -2.98318,-2.95438 -0.042,0.0153 -1.22268,1.58552 -2.62308,3.4894 -2.76105,3.75368 -3.03414,4.086 -3.53431,4.3006 -0.49781,0.21357 -1.9446,0.18334 -2.46142,-0.0515 z m -41.69092,-0.4142 c -0.80423,-0.25993 -1.41878,-0.82059 -1.74987,-1.59664 -0.33492,-0.78514 -0.36824,-1.21354 -0.13453,-1.7336 0.11231,-0.24917 1.51011,-2.26651 3.1071,-4.48298 1.59683,-2.21647 2.90517,-4.08155 2.90727,-4.14458 0,-0.063 -1.33425,-1.4348 -2.96972,-3.04829 -1.89599,-1.8705 -3.04574,-3.08341 -3.17261,-3.34696 -0.40649,-0.84455 -0.15364,-2.11888 0.59617,-3.00522 0.31875,-0.37677 1.30931,-0.91978 1.85452,-1.01661 0.90628,-0.16099 1.0361,-0.0662 4.1317,3.01742 1.57538,1.56933 2.88334,2.83254 2.90667,2.80718 0.0234,-0.0254 1.00476,-1.37135 2.18105,-2.99107 1.17616,-1.61971 2.26286,-3.04836 2.41477,-3.17475 0.3607,-0.30008 1.27859,-0.64853 1.7084,-0.64853 1.04871,0 2.28596,0.94577 2.59397,1.98281 0.20115,0.67739 0.19917,0.90786 -0.0148,1.66863 -0.14722,0.52477 -0.53261,1.10309 -2.5852,3.8792 l -2.41218,3.26249 3.61426,3.61911 c 2.6917,2.69532 3.66758,3.73781 3.82296,4.0841 0.2764,0.61609 0.27567,1.41929 0,2.00987 -0.25102,0.53387 -1.08079,1.34763 -1.59205,1.56127 -0.50781,0.21216 -1.29266,0.18402 -1.98643,-0.0713 -0.55027,-0.20246 -0.85571,-0.47642 -3.82641,-3.43136 -2.38294,-2.37041 -3.25862,-3.181 -3.34414,-3.09554 -0.0641,0.0638 -1.26575,1.73563 -2.67144,3.71549 -2.98764,4.20813 -2.98775,4.20825 -4.27548,4.24165 -0.464,0.0124 -0.96021,-0.0158 -1.10261,-0.0618 z"
     id="path74"
     inkscape:connector-curvature="0" />
  <rect
     style="fill:none;fill-opacity:1;stroke:#000000;stroke-width:0.45739874;stroke-miterlimit:4;stroke-dasharray:none;stroke-opacity:1"
     id="rect76"
     width="150.72371"
     height="150.72371"
     x="725.80133"
     y="498.29077" />
  <text
     xml:space="preserve"
     style="font-style:normal;font-weight:normal;font-size:13.33333302px;line-height:1.25;font-family:sans-serif;letter-spacing:0px;word-spacing:0px;fill:#000000;fill-opacity:1;stroke:none"
     x="774.46643"
     y="664.1015"
     id="text80"><tspan
       sodipodi:role="line"
       id="tspan78"
       x="774.46643"
       y="664.1015">40.00mm</tspan><tspan
       sodipodi:role="line"
       x="774.46643"
       y="680.76819"
       id="tspan82" /></text>
</svg>
