<?xml version="1.0" encoding="UTF-8" standalone="no"?>
<!-- Created with Inkscape (http://www.inkscape.org/) -->

<svg
   xmlns:dc="http://purl.org/dc/elements/1.1/"
   xmlns:cc="http://creativecommons.org/ns#"
   xmlns:rdf="http://www.w3.org/1999/02/22-rdf-syntax-ns#"
   xmlns:svg="http://www.w3.org/2000/svg"
   xmlns="http://www.w3.org/2000/svg"
   xmlns:sodipodi="http://sodipodi.sourceforge.net/DTD/sodipodi-0.dtd"
   xmlns:inkscape="http://www.inkscape.org/namespaces/inkscape"
   width="210mm"
   height="297mm"
   viewBox="0 0 210 297"
   version="1.1"
   id="svg428"
   inkscape:version="0.92.2 5c3e80d, 2017-08-06"
   sodipodi:docname="40hexa-ailsabay.svg">
  <defs
     id="defs422" />
  <sodipodi:namedview
     id="base"
     pagecolor="#ffffff"
     bordercolor="#666666"
     borderopacity="1.0"
     inkscape:pageopacity="0.0"
     inkscape:pageshadow="2"
     inkscape:zoom="0.35"
     inkscape:cx="393.79576"
     inkscape:cy="605.54318"
     inkscape:document-units="mm"
     inkscape:current-layer="layer1"
     showgrid="false"
     inkscape:window-width="1440"
     inkscape:window-height="809"
     inkscape:window-x="0"
     inkscape:window-y="1"
     inkscape:window-maximized="1" />
  <metadata
     id="metadata425">
    <rdf:RDF>
      <cc:Work
         rdf:about="">
        <dc:format>image/svg+xml</dc:format>
        <dc:type
           rdf:resource="http://purl.org/dc/dcmitype/StillImage" />
        <dc:title></dc:title>
      </cc:Work>
    </rdf:RDF>
  </metadata>
  <g
     inkscape:label="Layer 1"
     inkscape:groupmode="layer"
     id="layer1">
    <path
       d="m 61.214875,128.84274 c -0.898067,-1.56221 -2.49342,-3.34609 -2.260621,-4.91043 l 22.550506,-39.827314 45.8158,0.06622 22.83997,40.138304 -22.81699,39.66231 -45.869433,-0.0614 z m 19.012648,38.86928 h 48.845537 c 0.87922,-0.25198 25.1789,-42.45673 25.16616,-43.40638 -0.0209,-1.41959 -23.336,-40.522331 -24.51185,-43.943196 H 80.227523 c -1.608221,0.313413 -5.831608,8.954744 -6.682082,10.333071 L 54.673008,124.00596 c -0.19784,1.12544 1.998767,4.17566 2.616729,5.27639 1.144255,2.03837 2.110357,3.6746 3.239555,5.72617 l 12.786544,22.10827 c 1.099999,1.78534 4.940378,9.82321 6.911687,10.59523 z"
       style="fill:#1b1918;fill-rule:evenodd;stroke-width:0.91834903"
       id="path219"
       inkscape:connector-curvature="0" />
    <path
       d="m 89.238188,97.332176 c 0.07951,-0.07879 0.207566,-0.312392 0.242957,-0.231507 l 10.801175,-6.580148 c 4.95429,-2.979405 4.08011,-2.53798 12.09951,2.112188 l 12.69281,7.722301 c 2.2527,1.8289 7.4049,4.0172 10.24362,6.22246 l 0.10773,35.44935 c -1.33465,1.12299 -5.72804,3.5206 -7.54222,4.48194 -2.66581,1.41305 -4.77802,2.79501 -7.59863,4.38392 -1.85378,1.04444 -14.5021,8.65434 -15.65225,8.70897 -2.16079,0.10286 -27.103239,-15.68521 -31.038086,-17.2802 l -0.02782,-35.99113 c 4.435459,-2.06755 13.932648,-8.706105 15.67053,-8.998036 z m -18.420241,7.575974 -0.04972,38.83469 16.695568,9.684 c 1.797212,0.99044 16.212555,9.39198 16.812165,9.44953 1.27155,0.1222 15.56232,-8.55688 16.77815,-9.23967 3.07601,-1.72763 5.72689,-3.28926 8.48611,-4.9569 2.41882,-1.462 6.29646,-3.37923 8.43695,-4.88193 l 0.007,-38.93699 c -4.70052,-3.08162 -31.64537,-19.487082 -33.41475,-19.589196 -1.01936,-0.05868 -14.643442,8.12866 -17.027389,9.436027 -7.653425,4.197384 -10.045341,6.706509 -16.723403,10.200439 z"
       style="fill:#1b1918;fill-rule:evenodd;stroke-width:0.91834903"
       id="path221"
       inkscape:connector-curvature="0" />
    <path
       d="m 91.192969,99.365307 h 26.914811 l 14.45581,24.921143 c -2.55181,5.64573 -12.57321,20.72721 -13.89708,24.483 H 91.192969 c -2.077373,-0.46111 -14.630185,-23.84484 -14.63643,-24.48551 -0.0017,-0.27039 12.797097,-23.95731 14.63643,-24.918633 z m -1.954781,-2.033131 c -2.122022,4.869534 -4.600744,8.691234 -7.187359,13.337164 -9.347338,16.78824 -9.928026,9.91421 -0.391409,26.6337 1.692316,2.96707 5.935553,11.18234 7.731599,13.19188 l 30.152401,0.0242 14.89996,-26.2183 c -0.0104,-0.97739 -6.41725,-11.83603 -7.41282,-13.43283 -2.96435,-4.75504 -4.92704,-8.92272 -7.50252,-13.343172 z"
       style="fill:#1b1918;fill-rule:evenodd;stroke-width:0.91834903"
       id="path223"
       inkscape:connector-curvature="0" />
    <path
       d="m 117.6094,132.29507 c -0.77134,1.51796 -1.08411,2.10385 -1.89236,3.5657 -0.7828,1.4161 -1.53713,2.40682 -1.9864,4.03607 l -9.22261,-0.0104 3.15702,-2.10983 c 1.4127,-0.73246 1.87506,-0.92257 3.24931,-1.74677 1.88849,-1.13271 4.80792,-3.03377 6.69504,-3.73538 z M 91.113448,132.1219 c 2.530871,1.20257 4.305237,2.41133 6.549473,3.64558 1.119915,0.61592 2.131773,1.16502 3.190699,1.80951 l 3.44044,2.28587 c -11.041846,0.0528 -7.601369,1.74534 -13.180612,-7.74096 z M 111.034,113.60157 c 1.31205,1.25279 4.30328,3.05 5.99381,3.24312 l -0.12939,14.41964 -9.15083,5.56605 c -4.84036,2.81131 -3.03137,1.55862 -9.651637,-1.75931 -2.469737,-1.61112 -5.702037,-2.84711 -6.06527,-4.30529 l 0.0017,-12.95902 c 0.259629,-1.01826 7.635067,-5.17516 9.095587,-6.00415 1.79861,-1.02086 2.80381,-2.04499 4.6499,-1.16762 1.85212,0.88034 3.63069,2.07799 5.25623,2.96658 z m -19.873623,3.0502 -0.04684,15.47013 c -0.661482,-1.08064 -4.172259,-6.8237 -4.249661,-7.44846 -0.162054,-1.31059 3.504317,-6.89306 4.296591,-8.02171 z m 26.449023,15.64323 0.0104,-13.98102 c -0.46562,-2.57321 0.0646,-0.72026 -0.59218,-1.46929 -0.47725,-0.94384 1.23639,0.0698 -2.78652,-2.15516 l -9.88503,-6.0138 9.35796,0.004 c 0.63275,2.49606 4.90463,9.12463 6.34195,11.6544 1.34556,2.36814 2.73428,3.21221 1.11958,5.98249 -0.81578,1.39966 -2.72659,5.12587 -3.56633,5.97745 z M 91.160377,116.65177 c 0.573331,-1.3104 3.803065,-7.64414 5.016772,-7.97604 l 7.600051,0.59332 -6.03628,3.60074 c -1.936928,1.02579 -4.585688,2.98766 -6.580543,3.78194 z m 3.57714,24.09222 19.546353,0.0646 c 0.86738,-2.42122 3.07427,-5.44968 4.43837,-7.93444 l 4.47644,-7.69667 c 0.0822,-0.0969 0.22593,-0.23776 0.29535,-0.31655 0.0711,-0.0803 0.19924,-0.21727 0.30581,-0.31898 l -0.10171,11.45889 c 1.69556,-1.58445 0.8593,-14.98775 0.89033,-17.69531 0.007,-0.72154 0.11179,-2.44145 0.0653,-3.02744 -0.25441,-3.18638 -0.5667,-2.41184 -1.02334,-2.67872 l 0.20445,11.45603 c -1.91907,-1.6398 -9.07697,-14.87504 -9.63522,-16.23155 l -19.391033,0.0278 c -1.736227,2.66449 -2.793532,5.10002 -4.57156,7.99965 -5.987615,9.76462 -6.141719,7.0696 -0.238093,16.60622 1.517771,2.452 3.604722,5.73389 4.738389,8.28629 z"
       style="fill:#1b1918;fill-rule:evenodd;stroke-width:0.91834903"
       id="path225"
       inkscape:connector-curvature="0" />
    <path
       d="m 94.808817,107.85192 c 0.536737,-0.73063 8.456523,-5.40022 9.402933,-5.47049 1.30307,-0.0969 3.69776,1.51774 5.07877,2.32223 0.81092,0.47211 1.72401,1.06637 2.46355,1.49716 0.28914,0.16834 1.15666,0.65415 1.27338,0.73029 0.0924,0.0601 0.21938,0.14268 0.30615,0.20305 l 0.58414,0.45126 c 0.0617,0.0472 0.19472,0.15129 0.28186,0.23845 3.06884,1.0787 6.906,4.43482 9.43091,4.77551 0.45661,0.26692 0.76885,-0.50765 1.0233,2.67876 0.0469,0.586 -0.0569,2.30587 -0.0653,3.02742 -0.0312,2.70755 0.80524,16.11087 -0.89032,17.6953 -2.97876,0.30854 -6.01372,3.6016 -9.41465,4.80757 l -4.67009,2.90215 c -0.7188,0.43567 -4.3909,2.61097 -5.04447,2.65716 -1.19303,0.0843 -9.051906,-4.78085 -9.831779,-5.62369 l -7.598334,-3.93267 c -1.401766,-0.80334 -1.498191,-0.61324 -2.050039,-2.05818 l 0.01078,-20.93368 c 0.375149,-1.82622 8.141958,-5.44202 9.707587,-5.96763 z m -11.040781,4.42995 0.0072,24.09315 c 1.863058,1.12013 19.640824,11.32344 20.423244,11.38654 1.38645,0.11144 19.43678,-10.3872 20.8258,-11.40206 l -8.4e-4,-24.06164 -15.37253,-8.95133 c -1.60097,-0.9516 -4.17104,-1.65184 -5.10043,-3.25969 -1.82063,2.11973 -17.096913,9.75846 -20.783508,12.19503 z"
       style="fill:#1b1918;fill-rule:evenodd;stroke-width:0.91834903"
       id="path227"
       inkscape:connector-curvature="0" />
    <path
       d="m 98.559322,114.19736 5.918028,0.018 5.91803,0.018 2.94313,5.13424 2.94313,5.13428 -2.9748,5.11603 -2.9749,5.11603 -5.91804,-0.018 -5.918035,-0.018 -2.943138,-5.13431 -2.943098,-5.13428 2.97479,-5.11595 z"
       style="fill:none;stroke:#1b1918;stroke-width:0.52061218;stroke-linecap:butt;stroke-linejoin:miter;stroke-dasharray:none"
       id="path229"
       inkscape:connector-curvature="0" />
    <path
       d="m 104.33924,116.38744 a 8.0485034,8.0485034 0 0 1 8.0485,8.0485 8.0485034,8.0485034 0 1 1 -8.0485,-8.0485 z"
       style="fill:none;stroke:#1b1918;stroke-width:0.52061218;stroke-linecap:butt;stroke-linejoin:miter;stroke-dasharray:none"
       id="path231"
       inkscape:connector-curvature="0" />
    <path
       d="m 129.91279,78.211114 13.13439,22.711966 13.13444,22.71188 -12.73007,22.94983 -12.73014,22.9499 -25.86458,0.23774 -25.864568,0.23811 L 65.857757,147.29857 52.723359,124.58672 65.4535,101.63688 78.183639,78.687087 104.04821,78.448993 Z"
       style="fill:none;stroke:#1b1918;stroke-width:0.52061218;stroke-linecap:butt;stroke-linejoin:miter;stroke-dasharray:none"
       id="path233"
       inkscape:connector-curvature="0" />
    <g
       transform="matrix(0.9183491,0,0,0.9183491,2.1245984,-199.94912)"
       id="Layer1001">
      <path
         d="m 167.8192,359.4404 0.6772,73.6592"
         style="fill:none;stroke:#006fa6;stroke-width:0.21600001;stroke-linecap:butt;stroke-linejoin:miter;stroke-dasharray:none"
         id="path235"
         inkscape:connector-curvature="0" />
      <path
         d="m 55.1625,360.4762 0.6772,73.6591"
         style="fill:none;stroke:#006fa6;stroke-width:0.21600001;stroke-linecap:butt;stroke-linejoin:miter;stroke-dasharray:none"
         id="path237"
         inkscape:connector-curvature="0" />
      <path
         d="m 142.314,426.2536 26.1175,-0.2401"
         style="fill:none;stroke:#006fa6;stroke-width:0.21600001;stroke-linecap:butt;stroke-linejoin:miter;stroke-dasharray:none"
         id="path239"
         inkscape:connector-curvature="0" />
      <path
         d="m 55.7748,427.0493 27.1255,-0.2495"
         style="fill:none;stroke:#006fa6;stroke-width:0.21600001;stroke-linecap:butt;stroke-linejoin:miter;stroke-dasharray:none"
         id="path241"
         inkscape:connector-curvature="0" />
    </g>
    <text
       x="82.719063"
       y="195.70863"
       id="text246"
       style="font-size:11.02018929px;stroke-width:0.91834903">
      <tspan
         font-size="12.0000"
         id="tspan244"
         style="font-size:11.02018929px;font-family:Arial;fill:#006fa6;stroke-width:0.91834903">40.00mm</tspan>
    </text>
  </g>
</svg>
