<?xml version="1.0" encoding="UTF-8" standalone="no"?>
<svg
   xmlns:dc="http://purl.org/dc/elements/1.1/"
   xmlns:cc="http://creativecommons.org/ns#"
   xmlns:rdf="http://www.w3.org/1999/02/22-rdf-syntax-ns#"
   xmlns:svg="http://www.w3.org/2000/svg"
   xmlns="http://www.w3.org/2000/svg"
   viewBox="0 0 188.97637 188.97637"
   height="50mm"
   width="50mm"
   id="svg907"
   version="1.1">
  <metadata
     id="metadata913">
    <rdf:RDF>
      <cc:Work
         rdf:about="">
        <dc:format>image/svg+xml</dc:format>
        <dc:type
           rdf:resource="http://purl.org/dc/dcmitype/StillImage" />
        <dc:title></dc:title>
      </cc:Work>
    </rdf:RDF>
  </metadata>
  <defs
     id="defs911" />
  <path
     id="path917"
     d="m 76.128729,99.782046 c -0.21415,-0.0945 -0.49204,-0.28718 -0.61753,-0.42811 -0.21825,-0.24508 -0.21711,-0.26624 0.0261,-0.48637 0.24414,-0.22093 0.26822,-0.21918 0.60259,0.0438 0.4384,0.34485 0.72633,0.34674 1.03397,0.007 0.32686,-0.36117 0.15119,-0.61786 -0.70618,-1.03189 -0.77755,-0.37549 -0.91827,-0.54972 -0.92101,-1.1403 -0.002,-0.48951 0.43221,-1.00599 0.95711,-1.13773 0.36472,-0.0915 1.40111,0.1904 1.46066,0.39737 0.0206,0.0714 -0.0485,0.24345 -0.15341,0.38238 -0.14804,0.19602 -0.22554,0.21782 -0.34602,0.0973 -0.19771,-0.19771 -0.78435,-0.20105 -0.97981,-0.006 -0.23278,0.23277 0.0239,0.57129 0.61135,0.80635 0.78582,0.31443 1.04382,0.63512 1.04382,1.29751 0,0.6667 -0.40929,1.17028 -1.05635,1.29969 -0.5091,0.10182 -0.49079,0.10376 -0.95531,-0.10128 z m 14.40339,0.0627 c -1.90512,-0.46306 -2.20757,-3.11724 -0.45594,-4.00134 0.61998,-0.31293 1.21259,-0.36902 1.74804,-0.16544 0.27046,0.10283 0.33292,0.2124 0.33292,0.58403 0,0.50255 -0.0704,0.54327 -0.44661,0.25866 -0.59203,-0.44779 -1.6544,-0.009 -1.87023,0.77294 -0.22902,0.82945 0.13184,1.55041 0.8897,1.77746 0.40417,0.1211 0.56582,0.10978 0.91411,-0.064 0.23272,-0.11609 0.44334,-0.21107 0.46807,-0.21107 0.0247,0 0.045,0.20047 0.045,0.4455 0,0.3134 -0.0673,0.46446 -0.22713,0.50945 -0.53041,0.14934 -1.03111,0.18293 -1.39789,0.0938 z m 15.288101,-0.007 c -1.03345,-0.24471 -1.59188,-0.97868 -1.59263,-2.09325 -8.1e-4,-0.91247 0.35421,-1.49214 1.16367,-1.90107 0.6256,-0.31604 1.09531,-0.36407 1.61776,-0.16544 0.26897,0.10226 0.33291,0.21296 0.33291,0.57634 0,0.44926 -3.9e-4,0.44955 -0.3569,0.26358 -0.52888,-0.27589 -1.00234,-0.22856 -1.44571,0.1445 -0.73721,0.62032 -0.65086,1.77773 0.16996,2.27827 0.48522,0.29588 0.74883,0.30573 1.24974,0.0467 l 0.38291,-0.19801 v 0.44992 c 0,0.24746 -0.0438,0.4749 -0.0973,0.50543 -0.23065,0.13152 -1.0389,0.18431 -1.42438,0.093 z m 7.78707,0.004 c -0.94026,-0.23229 -1.58398,-1.078 -1.59026,-2.08923 -0.0117,-1.90132 2.45889,-2.92013 3.74188,-1.54299 l 0.27732,0.29765 -0.34714,0.22771 c -0.33807,0.22179 -0.35691,0.21948 -0.72313,-0.0887 -0.57524,-0.48403 -1.29937,-0.38404 -1.81328,0.25039 -0.28285,0.3492 -0.29885,1.28407 -0.029,1.6959 0.40515,0.61834 1.3545,0.73671 1.908,0.2379 0.37004,-0.33348 0.27969,-0.5538 -0.22713,-0.5538 -0.398,0 -0.45424,-0.0402 -0.45424,-0.32447 0,-0.31519 0.026,-0.32446 0.9085,-0.32446 h 0.90848 l -4.1e-4,0.48669 c -9.9e-4,1.19953 -1.25926,2.048604 -2.5595,1.72738 z m 14.42255,-0.12077 c -0.63257,-0.29255 -0.7713,-0.56189 -0.44262,-0.85934 0.22661,-0.20507 0.26382,-0.20113 0.62535,0.0661 0.43469,0.32138 0.85015,0.26561 1.0691,-0.14352 0.18381,-0.34346 0.0652,-0.49148 -0.63935,-0.79794 -0.85652,-0.37254 -1.05399,-0.58399 -1.05399,-1.12859 0,-0.87342 0.65363,-1.39615 1.55159,-1.24089 0.25305,0.0438 0.57218,0.16274 0.70919,0.26442 0.24235,0.17986 0.24262,0.19203 0.0101,0.44957 -0.16339,0.18054 -0.2818,0.22246 -0.3724,0.13185 -0.33317,-0.33317 -1.28529,0.0126 -1.05604,0.3835 0.047,0.0761 0.42433,0.30941 0.83844,0.51845 0.80573,0.40673 0.91537,0.55584 0.91537,1.24499 0,0.99898 -1.13314,1.583574 -2.15419,1.11135 z m 4.68498,0.0608 c -0.21414,-0.0945 -0.49202,-0.28717 -0.61751,-0.4281 -0.21819,-0.24501 -0.2172,-0.26617 0.0226,-0.48316 0.23959,-0.21682 0.26807,-0.21413 0.63955,0.0605 0.45783,0.3385 0.99456,0.27087 1.12554,-0.14182 0.11353,-0.35768 -0.11431,-0.59972 -0.8709,-0.92519 -0.69978,-0.30104 -0.88326,-0.53831 -0.88326,-1.1422 0,-0.84759 1.0661,-1.37946 1.99067,-0.99315 0.52366,0.2188 0.56125,0.30413 0.2946,0.6688 -0.15031,0.20557 -0.21433,0.21905 -0.38151,0.0803 -0.3208,-0.26626 -0.92281,-0.1364 -0.97194,0.20965 -0.0342,0.24103 0.0689,0.34007 0.58402,0.56086 0.92104,0.39478 1.07986,0.58289 1.07986,1.27911 0,0.74735 -0.25746,1.12798 -0.87988,1.30084 -0.60098,0.16691 -0.65324,0.16476 -1.13179,-0.0465 z m -84.684466,-2.02435 v -2.07655 h 0.912665 c 1.073846,0 1.63232,0.20227 2.10303,0.76167 0.81507,0.96866 0.47777,2.5183 -0.674617,3.09942 -0.43088,0.21728 -0.804563,0.29201 -1.460085,0.29201 h -0.880993 z m 2.216329,0.91848 c 0.687326,-0.68733 0.446766,-1.77916 -0.477023,-2.16514 -0.819173,-0.34227 -0.83081,-0.32572 -0.83081,1.18177 v 1.36274 h 0.464231 c 0.340045,0 0.565704,-0.10148 0.843602,-0.37937 z m 3.234626,-0.91848 v -2.07655 h 0.98337 c 0.91384,0 1.0102,0.0268 1.36274,0.37937 0.56722,0.56723 0.46491,1.50807 -0.20201,1.85751 l -0.33378,0.17488 0.58391,0.77333 c 0.32114,0.42534 0.58546,0.81714 0.58737,0.87068 0.002,0.0535 -0.19878,0.0973 -0.44596,0.0973 -0.4054,0 -0.5039,-0.0794 -1.00583,-0.81116 l -0.55642,-0.81115 -0.0386,0.81115 -0.0386,0.81116 h -0.44805 -0.44806 z m 1.65476,-0.42113 c 0.24703,-0.19764 0.19375,-0.72093 -0.0888,-0.87215 -0.52594,-0.28148 -0.65745,-0.17681 -0.65745,0.52332 0,0.62203 0.0158,0.65282 0.29201,0.56815 0.16061,-0.0492 0.36502,-0.14793 0.45425,-0.21932 z m 3.27706,0.42113 v -2.07655 h 0.38935 0.38935 v 2.07655 2.07655 h -0.38935 -0.38935 z m 2.98504,-0.0649 c 0,-2.13437 8.9e-4,-2.14144 0.29202,-2.14099 0.20958,3.9e-4 0.62178,0.38403 1.46007,1.35906 0.64245,0.74722 1.21188,1.36025 1.26541,1.36227 0.0535,0.002 0.0973,-0.58034 0.0973,-1.29415 v -1.29786 h 0.38936 0.38935 v 2.07656 2.07655 h -0.3163 c -0.23864,0 -0.59431,-0.31867 -1.44859,-1.29785 -0.62275,-0.71381 -1.18125,-1.29784 -1.24111,-1.29784 -0.0599,0 -0.10883,0.58403 -0.10883,1.29784 v 1.29785 h -0.38935 -0.38936 z m 6.09988,0.0649 v -2.07655 h 0.38935 0.38936 v 0.7787 c 0,0.42829 0.0474,0.77871 0.10545,0.77871 0.058,0 0.39381,-0.35 0.74626,-0.77777 0.60821,-0.73822 0.6703,-0.77783 1.22041,-0.77871 l 0.5796,-8.9e-4 -0.64925,0.68136 c -1.27126,1.33417 -1.25158,1.09219 -0.19204,2.36073 l 0.92796,1.11101 h -0.57767 c -0.56224,0 -0.59605,-0.0241 -1.26453,-0.90063 -0.37777,-0.49534 -0.73395,-0.87152 -0.79152,-0.83594 -0.0576,0.0356 -0.10467,0.44084 -0.10467,0.90061 v 0.83594 h -0.38936 -0.38935 z m 12.71889,0 v -2.07655 h 0.85005 c 1.0949,0 1.55879,0.23362 1.75336,0.88304 0.1195,0.39886 0.10932,0.58342 -0.0536,0.97345 -0.2196,0.52556 -0.60262,0.7392 -1.32527,0.7392 h -0.44579 v 0.77871 0.7787 h -0.38935 -0.38936 z m 1.65403,-0.41568 c 0.38673,-0.32095 -0.0534,-1.01195 -0.64462,-1.01195 -0.19097,0 -0.2307,0.11419 -0.2307,0.66299 0,0.65813 0.003,0.66234 0.35619,0.5736 0.19589,-0.0492 0.4295,-0.15025 0.51913,-0.22464 z m 2.88844,0.41568 v -2.07655 h 1.16806 c 1.15307,0 1.16807,0.004 1.16807,0.31798 0,0.29608 -0.0514,0.32067 -0.74627,0.35691 -0.73779,0.0385 -0.74673,0.0437 -0.78694,0.46072 l -0.0407,0.4218 h 0.72204 c 0.71573,0 0.72203,0.003 0.72203,0.38936 0,0.38542 -0.007,0.38935 -0.71381,0.38935 h -0.71382 v 0.51914 0.51914 h 0.77871 0.77871 v 0.38935 0.38935 h -1.16806 -1.16806 z m 9.34449,0 v -2.07655 h 0.45425 0.45425 v 2.07655 2.07655 h -0.45425 -0.45425 z m 3.11484,0 v -2.07655 h 1.10317 c 1.09019,0 1.10316,0.004 1.10316,0.32446 0,0.30676 -0.0389,0.32446 -0.71382,0.32446 h -0.7138 v 0.45425 0.45424 h 0.64892 c 0.6345,0 0.64892,0.009 0.64892,0.38936 0,0.3807 -0.0145,0.38935 -0.64892,0.38935 h -0.64892 v 0.90849 0.90849 h -0.38936 -0.38935 z m 4.153101,0 v -2.07655 h 0.38936 0.38935 v 2.07655 2.07655 h -0.38935 -0.38936 z m 16.872,0 v -2.07655 h 0.38936 0.38934 v 1.6872 1.6872 h 0.64893 c 0.6345,0 0.64892,0.009 0.64892,0.38935 v 0.38935 h -1.03828 -1.03827 z m 3.50418,1.98516 c 0,-0.0503 0.39126,-1.01668 0.86945,-2.14757 0.81075,-1.91739 0.89107,-2.05358 1.18985,-2.01761 0.28301,0.0341 0.42216,0.2847 1.19228,2.14757 l 0.87186,2.109 h -0.44604 c -0.38706,0 -0.47112,-0.06 -0.63582,-0.45424 -0.18844,-0.451 -0.19564,-0.45425 -1.00762,-0.45425 -0.80686,0 -0.82072,0.006 -1.03442,0.45425 -0.17687,0.37086 -0.28848,0.45424 -0.60808,0.45424 -0.21529,0 -0.39146,-0.0411 -0.39146,-0.0914 z m 2.381,-2.0499 c -0.10942,-0.32113 -0.24456,-0.61206 -0.30029,-0.64651 -0.0557,-0.0344 -0.22224,0.2283 -0.37,0.58388 l -0.26869,0.64651 h 0.56896 0.56897 z m 13.45976,1.72665 c -0.0842,-0.23593 -0.40982,-1.1736 -0.72353,-2.08371 l -0.57038,-1.65475 h 0.4403 0.44033 l 0.42284,1.29003 c 0.23256,0.70952 0.46535,1.26375 0.51732,1.23164 0.052,-0.0321 0.27912,-0.61263 0.50481,-1.29003 0.35286,-1.0592 0.45038,-1.23164 0.69647,-1.23164 0.24773,0 0.34373,0.17562 0.71481,1.30777 0.23578,0.71927 0.45547,1.28097 0.48823,1.24821 0.0328,-0.0328 0.25455,-0.60666 0.49283,-1.27533 0.43054,-1.20815 0.43617,-1.21601 0.89917,-1.25587 l 0.46593,-0.0401 -0.33432,0.88371 c -0.18387,0.48604 -0.52438,1.40933 -0.75669,2.05177 -0.36886,1.02007 -0.4642,1.1731 -0.75239,1.20782 -0.35337,0.0426 -0.38369,-0.0121 -0.9927,-1.79185 -0.15399,-0.45001 -0.2733,-0.64187 -0.32284,-0.51914 -0.0432,0.10707 -0.24759,0.6619 -0.45418,1.23295 -0.32097,0.88726 -0.42268,1.04404 -0.69924,1.07788 -0.26412,0.0323 -0.35179,-0.0393 -0.47677,-0.38936 z m 6.14825,0.18752 c 0.0457,-0.12492 0.4434,-1.08857 0.88367,-2.14144 0.69316,-1.65767 0.83944,-1.91433 1.0911,-1.91433 0.36222,0 0.28566,-0.13601 1.27488,2.26535 l 0.83108,2.01754 h -0.45238 c -0.39434,0 -0.47674,-0.0583 -0.64218,-0.45424 -0.18898,-0.45228 -0.1934,-0.45425 -1.02326,-0.45425 h -0.83344 l -0.16427,0.45425 c -0.14394,0.39808 -0.21891,0.45424 -0.60632,0.45424 -0.36616,0 -0.42777,-0.039 -0.35888,-0.22712 z m 2.54029,-1.38442 c 0,-0.0298 -0.12362,-0.33639 -0.27471,-0.68137 l -0.27471,-0.62724 -0.2348,0.51914 c -0.34728,0.76777 -0.32344,0.8436 0.26508,0.8436 0.28553,0 0.51914,-0.0244 0.51914,-0.0541 z m 3.24462,-0.46501 v -2.07655 h 0.98337 c 0.91383,0 1.01018,0.0268 1.36273,0.37937 0.56793,0.56793 0.46483,1.50811 -0.20382,1.85845 l -0.33557,0.17582 0.65841,0.86973 0.6584,0.86973 h -0.51864 c -0.49035,0 -0.54903,-0.0443 -1.07508,-0.81115 l -0.55643,-0.81115 -0.0386,0.81115 -0.0386,0.81115 h -0.44805 -0.44805 z m 1.65475,-0.42113 c 0.24704,-0.19764 0.19375,-0.72093 -0.0888,-0.87215 -0.52595,-0.28148 -0.65744,-0.17681 -0.65744,0.52332 0,0.62203 0.0158,0.65282 0.29202,0.56815 0.1606,-0.0492 0.36502,-0.14793 0.45424,-0.21932 z m 3.27706,0.42113 v -2.07655 h 1.10317 c 1.09019,0 1.10317,0.004 1.10317,0.32446 0,0.30676 -0.0389,0.32446 -0.71382,0.32446 h -0.71381 v 0.45425 0.45424 h 0.71381 c 0.70661,0 0.71382,0.004 0.71382,0.38936 0,0.38542 -0.007,0.38935 -0.71382,0.38935 h -0.71381 v 0.51914 0.51914 h 0.71381 c 0.70661,0 0.71382,0.004 0.71382,0.38935 v 0.38935 h -1.10317 -1.10317 z M 48.030354,83.614196 v -9.73684 h 3.667275 c 2.017,0 3.86536,0.0568 4.10747,0.12625 0.61244,0.17564 1.2125,0.612 1.58146,1.15001 0.30655,0.44702 0.31354,0.51933 0.3524,3.64567 0.0437,3.51264 -0.0325,4.071 -0.6379,4.67639 l -0.36449,0.36449 0.27258,0.24243 c 0.14992,0.13333 0.37986,0.47604 0.51097,0.76156 0.21468,0.46752 0.23867,0.916 0.24123,4.51002 l 0.003,3.99087 h -2.27122 -2.27122 v -3.54312 c 0,-3.46448 -0.0418,-3.8546 -0.41329,-3.8546 -0.056,0 -0.11732,1.64989 -0.13628,3.66642 l -0.0345,3.66641 -2.303675,0.0354 -2.303678,0.0354 z m 3.893535,5.23513 v -3.71702 l 0.73552,0.0759 c 1.29503,0.13366 1.26944,0.0561 1.31657,3.9871 l 0.0404,3.37102 h 1.49033 1.49033 l -0.0382,-3.62473 c -0.0362,-3.43573 -0.0523,-3.64382 -0.30831,-3.99088 -0.14855,-0.20138 -0.48421,-0.48295 -0.74591,-0.62571 -0.65241,-0.3559 -0.6323,-0.70368 0.0601,-1.03842 0.95908,-0.46369 1.02082,-0.7149 1.02082,-4.15326 0,-2.95487 -0.004,-2.99477 -0.31653,-3.45521 -0.60388,-0.88868 -0.89687,-0.95234 -4.58283,-0.99586 l -3.277071,-0.0387 v 8.96138 8.96138 h 1.557419 1.557412 z m 0.22713,-6.36936 -0.3569,-0.0541 v -2.78175 -2.78175 h 0.62955 c 0.92678,0 1.40288,0.20587 1.56736,0.67771 0.18188,0.52171 0.18014,3.83838 -0.002,4.36166 -0.10748,0.30833 -0.2556,0.43754 -0.61647,0.53778 -0.48146,0.13372 -0.58312,0.13709 -1.22125,0.0404 z m 1.04477,-0.84149 c 0.10586,-0.10586 0.15574,-0.72102 0.15574,-1.92081 0,-1.82223 -0.0668,-2.07655 -0.54509,-2.07655 -0.21523,0 -0.23361,0.16343 -0.23361,2.07655 0,1.91312 0.0184,2.07655 0.23361,2.07655 0.12848,0 0.30369,-0.0701 0.38935,-0.15574 z m 6.70466,11.54434 c -0.0341,-0.0892 -0.0468,-4.45485 -0.0284,-9.7014 l 0.0336,-9.53917 2.36857,-0.0354 2.36857,-0.0354 v 9.73678 9.73678 h -2.34019 c -1.75259,0 -2.35575,-0.0407 -2.40214,-0.16223 z m 3.96363,-9.57161 v -8.95514 h -1.6223 -1.62231 v 8.95514 8.95514 h 1.62231 1.6223 z m 2.72548,0 v -9.73802 l 3.53663,0.0345 3.53663,0.0345 0.036,1.91432 0.036,1.91432 h -1.17154 -1.17153 v 1.49253 1.49252 h 1.16806 1.16806 v 1.94677 1.94677 h -1.16806 -1.16806 v 2.40102 2.40101 h 1.17153 1.17154 l -0.036,1.91432 -0.036,1.91433 -3.53663,0.0345 -3.53663,0.0345 z m 6.29456,7.72218 v -1.16806 l -1.13562,-0.0375 -1.13562,-0.0375 v -3.10978 -3.10977 h 1.16806 1.16807 v -1.16806 -1.16806 h -1.16807 -1.16806 v -2.20128 -2.20129 l 1.13562,-0.0375 1.13562,-0.0375 v -1.16806 -1.16806 h -2.79037 -2.79038 l -0.0336,8.76046 c -0.0185,4.81826 -0.005,8.83463 0.0293,8.92529 0.0488,0.12764 0.68575,0.15692 2.82398,0.12978 l 2.76101,-0.035 z m 14.27111,1.84943 c -0.0341,-0.0892 -0.0468,-4.45485 -0.0283,-9.7014 l 0.0336,-9.53917 3.53663,-0.0345 3.53662,-0.0345 v 1.9438 1.94381 l -1.13561,0.0375 -1.13561,0.0375 -0.0367,1.46007 -0.0366,1.46008 h 1.1723 1.17232 v 1.94677 1.94677 h -1.17099 -1.17099 l 0.0353,2.36857 0.0354,2.36857 1.13561,0.0375 1.13562,0.0375 v 1.94171 1.94172 h -3.50825 c -2.68705,0 -3.52276,-0.038 -3.57021,-0.16223 z m 6.36464,-1.84943 v -1.16806 l -1.2005,-0.0373 -1.20051,-0.0373 v -3.10995 -3.10996 h 1.23295 1.23295 v -1.16318 -1.1632 l -1.2005,-0.0373 -1.20051,-0.0373 -0.0355,-2.16898 -0.0355,-2.16898 1.20361,-0.0374 1.20363,-0.0374 v -1.16804 -1.16807 l -2.82281,-0.035 -2.82281,-0.035 v 8.96021 8.9602 l 2.82281,-0.035 2.82281,-0.035 z m 2.20114,1.84943 c -0.0341,-0.0892 -0.0468,-4.45485 -0.0284,-9.7014 l 0.0336,-9.53917 2.36754,-0.0354 2.367551,-0.0354 0.0335,7.75756 0.0335,7.75755 1.13562,0.0375 1.13559,0.0375 v 1.94172 1.94171 h -3.508241 c -2.68705,0 -3.52276,-0.038 -3.57021,-0.16223 z m 6.299751,-1.84943 v -1.23295 h -1.16806 -1.168061 v -7.72219 -7.72218 h -1.62231 -1.6223 v 8.95514 8.95514 h 2.79037 2.790361 z m 2.98505,-7.72218 v -9.73385 h 2.25037 2.25035 l 0.0855,3.60152 c 0.047,1.98084 0.0857,6.36107 0.0858,9.73385 l 2.4e-4,6.13232 h -2.3361 -2.33614 z m 5.97008,0.0169 v -9.75071 h 1.35637 c 1.65603,0 2.50074,0.16596 3.48479,0.68467 0.8756,0.46154 1.29961,0.92034 1.76617,1.91102 0.3057,0.64912 0.33616,0.86085 0.33616,2.33613 0,1.51494 -0.0241,1.67139 -0.36419,2.36395 -0.20066,0.40861 -0.62185,0.96845 -0.93799,1.24672 -0.56147,0.49421 -0.61425,0.67094 -0.20115,0.67349 0.39662,0.002 1.63813,0.66776 2.13103,1.14198 0.27384,0.26348 0.65346,0.77107 0.84358,1.12798 0.3234,0.60707 0.3457,0.75775 0.3457,2.33612 0,1.55171 -0.0275,1.74578 -0.342,2.41659 -0.63677,1.35805 -1.74343,2.29698 -3.35685,2.84808 -0.68976,0.2356 -1.22822,0.29968 -2.9526,0.35141 l -2.10902,0.0633 z m 8.45765,9.60434 c 0.0238,-0.062 1.70682,-4.44219 3.74005,-9.73385 l 3.6968,-9.6212 h 1.07279 1.07279 v 8.0424 8.0424 l -1.4547,0.0367 -1.45468,0.0367 -0.65432,1.65372 -0.65431,1.65372 -2.70385,0.001 c -1.48711,5.3e-4 -2.68436,-0.0497 -2.66057,-0.11162 z m 14.80733,-0.11447 c -0.0485,-0.12492 -0.32664,-0.86956 -0.61816,-1.65476 l -0.53004,-1.42763 -1.38942,-0.0368 -1.38944,-0.0368 v -8.04225 -8.04226 h 1.07682 1.07682 l 3.35493,8.92269 c 1.84522,4.90748 3.49187,9.28772 3.65921,9.73385 l 0.30427,0.81115 h -2.72844 c -2.47842,0 -2.73651,-0.0208 -2.81655,-0.22712 z m 7.10463,-9.50673 v -9.73385 h 2.53079 2.53082 v 9.73385 9.73384 h -2.53082 -2.53079 z m 9.4331,9.05248 c -0.24119,-0.37475 -1.03142,-1.60102 -1.75609,-2.72503 l -1.31756,-2.04366 v -7.00882 -7.00882 l 1.39518,0.002 c 2.39418,0.003 3.76095,0.48998 4.97198,1.77046 1.25274,1.3246 1.80034,3.18104 1.54238,5.22888 -0.27181,2.15784 -1.42138,3.58953 -3.42543,4.2661 l -0.72897,0.24609 2.03491,2.64683 c 1.11922,1.45576 2.49745,3.24546 3.06276,3.97712 l 1.02783,1.33029 h -3.18425 -3.18423 z m -75.233901,-9.12439 v -9.67597 l 3.92598,0.0395 3.92599,0.0395 0.608,0.3574 c 0.70349,0.41355 1.05609,0.85888 1.25843,1.58936 0.19471,0.70302 0.20025,14.72188 0.006,15.42111 -0.0758,0.27274 -0.33961,0.71936 -0.58637,0.99249 -0.81757,0.90497 -0.86162,0.91265 -5.23174,0.91265 h -3.90637 z m 7.89082,8.64263 c 0.30691,-0.17573 0.68653,-0.52615 0.84361,-0.77871 0.28558,-0.45915 0.2856,-0.45973 0.2856,-7.86701 v -7.40783 l -0.36362,-0.47672 c -0.68738,-0.9012 -0.8031,-0.92598 -4.53575,-0.97112 l -3.34196,-0.0404 v 8.97121 8.97122 l 3.27707,-0.0405 c 3.20832,-0.0397 3.28876,-0.0473 3.83505,-0.36007 z m -4.25685,-8.55608 v -6.76345 h 0.88837 c 1.48971,0 1.38286,-0.52215 1.38286,6.7578 0,7.20745 0.11632,6.63419 -1.36316,6.71778 l -0.90807,0.0513 z m 1.40167,5.79971 c 0.11644,-0.11645 0.15575,-1.60543 0.15575,-5.90064 0,-5.54698 -0.009,-5.74952 -0.25104,-5.87924 -0.13808,-0.0739 -0.31329,-0.13435 -0.38936,-0.13435 -0.0959,0 -0.13831,1.85 -0.13831,6.03498 0,5.72495 0.0119,6.03499 0.23361,6.03499 0.12848,0 0.30369,-0.0701 0.38935,-0.15574 z"
     style="fill:#000000;stroke-width:0.12978461" />
  <rect
     y="56.481445"
     x="46.611492"
     height="59.458332"
     width="112.37172"
     id="rect919"
     style="opacity:1;fill:none;fill-opacity:1;stroke:#000000;stroke-width:1.01410782;stroke-miterlimit:4;stroke-dasharray:none;stroke-opacity:1" />
  <text
     id="text923"
     y="129.03946"
     x="72.720901"
     style="font-style:normal;font-weight:normal;font-size:13.33333302px;line-height:1.25;font-family:sans-serif;letter-spacing:0px;word-spacing:0px;fill:#000000;fill-opacity:1;stroke:none"
     xml:space="preserve"><tspan
       y="129.03946"
       x="72.720901"
       id="tspan921">30.00mm</tspan></text>
  <text
     transform="rotate(-90)"
     id="text927"
     y="41.751049"
     x="-118.12317"
     style="font-style:normal;font-weight:normal;font-size:13.33333302px;line-height:1.25;font-family:sans-serif;letter-spacing:0px;word-spacing:0px;fill:#000000;fill-opacity:1;stroke:none"
     xml:space="preserve"><tspan
       y="41.751049"
       x="-118.12317"
       id="tspan925">16.00mm</tspan></text>
</svg>
