<?xml version="1.0" encoding="UTF-8" standalone="no"?>
<!-- Created with Inkscape (http://www.inkscape.org/) -->

<svg
   xmlns:dc="http://purl.org/dc/elements/1.1/"
   xmlns:cc="http://creativecommons.org/ns#"
   xmlns:rdf="http://www.w3.org/1999/02/22-rdf-syntax-ns#"
   xmlns:svg="http://www.w3.org/2000/svg"
   xmlns="http://www.w3.org/2000/svg"
   xmlns:sodipodi="http://sodipodi.sourceforge.net/DTD/sodipodi-0.dtd"
   xmlns:inkscape="http://www.inkscape.org/namespaces/inkscape"
   width="70mm"
   height="70mm"
   viewBox="0 0 70 70"
   version="1.1"
   id="svg9266"
   inkscape:version="0.92.2 5c3e80d, 2017-08-06"
   sodipodi:docname="BI_50x25.svg">
  <defs
     id="defs9260" />
  <sodipodi:namedview
     id="base"
     pagecolor="#ffffff"
     bordercolor="#666666"
     borderopacity="1.0"
     inkscape:pageopacity="0.0"
     inkscape:pageshadow="2"
     inkscape:zoom="0.7"
     inkscape:cx="514.54957"
     inkscape:cy="306.07052"
     inkscape:document-units="mm"
     inkscape:current-layer="layer1"
     showgrid="false"
     inkscape:window-width="1440"
     inkscape:window-height="805"
     inkscape:window-x="0"
     inkscape:window-y="1"
     inkscape:window-maximized="1" />
  <metadata
     id="metadata9263">
    <rdf:RDF>
      <cc:Work
         rdf:about="">
        <dc:format>image/svg+xml</dc:format>
        <dc:type
           rdf:resource="http://purl.org/dc/dcmitype/StillImage" />
        <dc:title></dc:title>
      </cc:Work>
    </rdf:RDF>
  </metadata>
  <g
     inkscape:label="Layer 1"
     inkscape:groupmode="layer"
     id="layer1"
     transform="translate(0,-227)">
    <path
       style="fill:#000000;fill-opacity:1;fill-rule:nonzero;stroke:none;stroke-width:0.35277778"
       d="m 51.897819,265.71983 c -0.11851,-0.01 -0.22875,-0.0262 -0.33624,-0.0496 l -0.0579,-0.0124 v -0.61737 c 0,-0.58015 0,-0.61598 0.0165,-0.60909 0.008,0.003 0.0661,0.0124 0.12678,0.0207 0.13367,0.0165 0.34038,0.008 0.41617,-0.0193 0.18879,-0.0662 0.30041,-0.20808 0.35829,-0.45337 l 0.0207,-0.0909 0.003,-1.59991 0.003,-1.59852 h 1.22232 l -0.004,1.79834 c -0.003,1.77767 -0.003,1.8011 -0.022,1.93201 -0.051,0.339 -0.14332,0.58567 -0.30317,0.80202 -0.28663,0.39136 -0.75103,0.55121 -1.44281,0.49747 z m -39.04534,-0.0786 c 0,-0.004 0.34038,-1.11346 0.75517,-2.46394 0.41479,-1.35047 0.75654,-2.46255 0.7593,-2.47082 0.004,-0.0138 0.13918,-0.0165 0.76481,-0.0138 l 0.7593,0.003 0.75654,2.47358 c 0.41617,1.36012 0.75654,2.47358 0.75654,2.47496 0,0 -0.28249,0.003 -0.62976,0.003 h -0.62838 l -0.0124,-0.0387 c -0.007,-0.0221 -0.0648,-0.23564 -0.12815,-0.47405 -0.0648,-0.23977 -0.11989,-0.4451 -0.12265,-0.45751 -0.007,-0.0193 -0.0482,-0.0207 -0.75792,-0.0179 l -0.74965,0.003 -0.13092,0.48921 -0.13091,0.49058 -0.62976,0.003 c -0.34727,0 -0.63115,0 -0.63115,-0.004 z m 2.70647,-2.15525 c -0.32659,-1.20992 -0.43546,-1.60955 -0.44097,-1.60128 -0.003,0.004 -0.0331,0.11162 -0.0661,0.23702 -0.0345,0.12678 -0.13918,0.51814 -0.23288,0.87092 -0.0937,0.3514 -0.17088,0.64079 -0.17088,0.64354 0,0 0.21359,0.004 0.47542,0.004 h 0.4768 z m 4.04041,2.18885 c 0,-0.006 -0.18879,-0.79651 -0.41479,-1.75838 l -0.41065,-1.74735 v 3.5016 h -1.03629 v -4.94441 h 1.72806 l 0.0179,0.0744 c 0.01,0.0427 0.1695,0.73312 0.35416,1.53514 0.18603,0.80339 0.34037,1.45383 0.34313,1.44556 0.003,-0.008 0.16261,-0.69866 0.35553,-1.53513 l 0.3514,-1.51998 h 1.73495 v 4.9444 h -1.03628 v -1.90858 c 0,-0.96601 -0.004,-1.75149 -0.007,-1.74736 -0.004,0.005 -0.19155,0.79651 -0.41893,1.75838 l -0.41203,1.75011 -0.57051,0.004 c -0.31419,0 -0.57188,0 -0.57464,-0.007 z m 3.62424,-2.5058 v -2.47909 h 3.23839 v 1.11207 h -2.02709 v 0.79789 h 1.93338 v 1.06522 h -1.93338 v 0.86954 h 2.06292 v 1.11346 h -3.27422 z m 3.77445,0.0478 v -2.4791 h 1.13137 c 1.12723,0 1.28019,0.004 1.47312,0.0427 0.47542,0.0965 0.81167,0.36932 0.98116,0.79789 0.15985,0.39825 0.17226,0.95911 0.0331,1.38079 -0.10335,0.31557 -0.31695,0.59669 -0.56086,0.74138 -0.051,0.0303 -0.0689,0.0468 -0.0661,0.0606 0,0.011 0.18466,0.44235 0.40652,0.95912 0.22325,0.51676 0.40652,0.94671 0.40928,0.95635 0.005,0.0165 -0.0741,-0.0167 -0.65457,0.0179 h -0.66008 l -0.69453,-1.72254 -0.28939,-0.003 -0.28801,-0.003 v 1.72943 h -1.22094 z m 2.11391,-0.2894 c 0.0965,-0.0413 0.1502,-0.0813 0.19844,-0.14607 0.0799,-0.10335 0.11989,-0.24529 0.11989,-0.41754 0,-0.23565 -0.073,-0.40377 -0.21498,-0.49058 -0.12402,-0.0744 -0.12954,-0.0758 -0.58291,-0.0813 l -0.41341,-0.004 v 1.17546 l 0.41341,-0.003 c 0.40514,-0.004 0.41617,-0.006 0.47956,-0.0331 z m 2.06706,0.2894 v -2.4791 h 1.21267 v 4.95818 h -1.21267 z m 1.83141,-0.0488 v -2.47909 h 1.22094 v 1.92649 l 0.67662,-0.96324 0.67524,-0.96325 h 1.41387 l -0.0234,0.0331 c -0.0138,0.0179 -0.3266,0.46026 -0.69867,0.98253 -0.37069,0.52366 -0.68075,0.96188 -0.6904,0.97566 -0.0152,0.0234 0,0.0565 0.71934,1.48965 0.40514,0.80754 0.73587,1.469 0.73587,1.47175 0,0.003 -0.31205,-0.0175 -0.69177,0.004 h -0.69178 l -0.47129,-0.96187 c -0.25907,-0.52917 -0.47404,-0.96463 -0.47818,-0.96738 -0.003,0 -0.11162,0.14056 -0.24253,0.31832 l -0.23703,0.32246 v 1.28985 h -1.22094 v -2.47909 z m 4.17959,2.43912 c 0.007,-0.0207 0.35002,-1.13688 0.76206,-2.47771 l 0.74827,-2.4405 h 1.51584 l 0.75655,2.47357 c 0.416,1.36017 0.75791,2.47358 0.75791,2.47496 0,0 -0.28387,0.003 -0.62976,0.003 h -0.62976 l -0.0124,-0.0386 c -0.007,-0.022 -0.0648,-0.23564 -0.12816,-0.47405 -0.0648,-0.23977 -0.11851,-0.4451 -0.12264,-0.45751 -0.006,-0.0193 -0.052,-0.0576 -0.75379,-0.0207 h -0.7469 l -0.0275,0.0992 c -0.0152,0.0551 -0.0744,0.27837 -0.13367,0.4961 l -0.10473,0.39549 h -1.26367 z m 2.723,-1.94165 c 0,-0.01 -0.46302,-1.72531 -0.47129,-1.7446 -0.004,-0.011 -0.0152,0.0138 -0.0303,0.073 -0.10611,0.40101 -0.40936,1.45661 -0.43546,1.62746 l -0.0138,0.051 h 0.47542 c 0.26183,0 0.4768,-0.003 0.4768,-0.007 z m 2.10013,-0.4644 v -2.47909 h 1.22232 v 3.70003 h 1.83141 v 1.25815 h -3.05373 z m 3.44234,0.0299 v -2.47909 h 1.2113 v 4.95818 h -1.2113 z m 1.83141,-2.48004 0.58992,-0.001 0.70131,-0.0463 0.75378,1.44142 0.75379,1.44005 v -2.88148 h 1.11897 v 4.95818 h -1.22921 l -0.65043,-1.18787 c -0.3583,-0.65319 -0.65595,-1.20027 -0.66284,-1.21543 -0.0207,-0.051 -0.25218,-0.46853 -0.26183,-0.47267 -0.004,0 -0.008,0.54433 -0.008,1.43592 v 1.44005 h -1.1107 z m 6.92465,2.42184 v -2.47909 h 3.24665 v 1.11208 h -2.02571 v 0.79788 h 1.93339 v 1.06385 h -1.93339 v 0.87092 h 2.05328 v 1.11208 h -3.27422 z m 3.78271,-0.0108 v -2.47771 h 1.29122 l 1.50758,2.88286 v -2.88286 h 1.11896 v 4.9568 h -1.2292 l -0.65457,-1.19751 c -0.36028,-0.65912 -0.71383,-1.30638 -0.7841,-1.43867 -0.0717,-0.13229 -0.13368,-0.24116 -0.13643,-0.24116 -0.004,0 -0.008,0.64768 -0.008,1.43867 v 1.43867 h -1.10932 z"
       id="path4914"
       inkscape:connector-curvature="0"
       sodipodi:nodetypes="cccscccccccccccccccccccsccccccccccccccccscccccccccccccccccsccccccccccccccccccccccscccccccscccccccccscccccccccccccccccccccccsscccccccccccccccsccccscccccccccccsccccccccccccccccccccccccccccscccccccccccccccccccccccccccssccccc" />
    <g
       transform="matrix(0.3527778,0,0,0.3527778,76.055417,-63.926014)"
       style="fill:#000000;fill-opacity:1"
       id="g4932" />
    <rect
       style="opacity:1;fill:none;fill-opacity:1;stroke:#000000;stroke-width:0.31378055;stroke-miterlimit:4;stroke-dasharray:none;stroke-opacity:1"
       id="rect9408"
       width="49.686218"
       height="24.68622"
       x="12.665668"
       y="250.71153" />
    <text
       xml:space="preserve"
       style="font-style:normal;font-weight:normal;font-size:3.52777767px;line-height:1.25;font-family:sans-serif;letter-spacing:0px;word-spacing:0px;fill:#000000;fill-opacity:1;stroke:none;stroke-width:0.26458332"
       x="29.043575"
       y="279.23096"
       id="text9412"><tspan
         sodipodi:role="line"
         id="tspan9410"
         x="29.043575"
         y="279.23096"
         style="stroke-width:0.26458332">50.00mm</tspan></text>
    <text
       xml:space="preserve"
       style="font-style:normal;font-weight:normal;font-size:3.52777767px;line-height:1.25;font-family:sans-serif;letter-spacing:0px;word-spacing:0px;fill:#000000;fill-opacity:1;stroke:none;stroke-width:0.26458332"
       x="-271.78439"
       y="11.905537"
       id="text9416"
       transform="rotate(-90)"><tspan
         sodipodi:role="line"
         id="tspan9414"
         x="-271.78439"
         y="11.905537"
         style="stroke-width:0.26458332">25.00mm</tspan></text>
  </g>
</svg>
