<?xml version="1.0" encoding="UTF-8" standalone="no"?>
<svg
   xmlns:dc="http://purl.org/dc/elements/1.1/"
   xmlns:cc="http://creativecommons.org/ns#"
   xmlns:rdf="http://www.w3.org/1999/02/22-rdf-syntax-ns#"
   xmlns:svg="http://www.w3.org/2000/svg"
   xmlns="http://www.w3.org/2000/svg"
   viewBox="0 0 642.5197 453.54328"
   height="120mm"
   width="170mm"
   id="svg1032"
   version="1.1">
  <metadata
     id="metadata1038">
    <rdf:RDF>
      <cc:Work
         rdf:about="">
        <dc:format>image/svg+xml</dc:format>
        <dc:type
           rdf:resource="http://purl.org/dc/dcmitype/StillImage" />
        <dc:title></dc:title>
      </cc:Work>
    </rdf:RDF>
  </metadata>
  <defs
     id="defs1036" />
  <path
     id="path1585"
     d="m 169.29002,391.69599 c -12.81977,-1.11012 -21.17607,-3.93425 -25.91509,-8.75828 -12.4765,-12.7003 1.75003,-36.75651 43.65416,-73.81661 8.62525,-7.6282 20.62024,-17.65786 29.01465,-24.26071 1.27288,-1.00122 2.31432,-1.85353 2.31432,-1.894 0,-0.32875 -9.03161,-3.88763 -25.72756,-10.13782 -36.29831,-13.58844 -49.26266,-19.87914 -61.83134,-30.00246 -12.94003,-10.42241 -20.13529,-23.65764 -21.75285,-40.01297 -0.37813,-3.82342 -0.13379,-14.4126 0.4196,-18.1837 3.14781,-21.45115 13.17276,-41.34987 30.24338,-60.03073 8.34189,-9.12876 20.1704,-18.79493 32.38607,-26.465642 19.44119,-12.20791 40.12462,-20.41404 58.86126,-23.35316 28.43955,-4.46114 54.35914,1.41225 69.89656,15.83859 1.83185,1.70086 3.95272,3.94649 4.71303,4.9903 l 1.38241,1.89784 -8.28995,6.860342 c -4.55947,3.7732 -8.67293,7.19489 -9.14103,7.60377 l -0.85108,0.74341 -3.14347,-2.82187 c -3.87666,-3.48006 -7.13146,-5.67529 -11.53772,-7.78171 -4.34975,-2.07941 -7.20709,-3.097432 -11.36365,-4.048682 -9.12628,-2.0886 -18.04973,-2.28574 -28.48245,-0.62926 -16.39879,2.603752 -36.16271,10.861482 -51.93336,21.698732 -20.48399,14.07615 -34.51761,32.67257 -40.37276,53.49931 -4.62549,16.4528 -2.70921,29.22746 6.00192,40.0108 2.59989,3.21837 8.36335,8.41008 12.633,11.37978 11.15862,7.76125 24.23463,14.0582 47.14808,22.70487 14.21736,5.36511 24.6738,9.83387 33.39579,14.27236 3.25451,1.65616 3.75293,1.84082 4.22554,1.56552 0.2947,-0.17167 3.11011,-2.16889 6.25649,-4.43829 11.32209,-8.1663 25.58275,-18.00774 38.01276,-26.23302 2.7352,-1.80995 4.97311,-3.45583 4.97311,-3.65749 0,-0.20167 0.6613,-8.0499 1.46957,-17.44053 0.80826,-9.39063 1.42325,-17.11707 1.36666,-17.16987 -0.0566,-0.0528 -6.3436,2.24843 -13.97109,5.11386 -7.62749,2.86543 -14.00003,5.23272 -14.16122,5.26066 -0.1612,0.0279 -0.26983,-0.22753 -0.24145,-0.5677 0.71281,-8.53924 1.54391,-16.26243 1.77258,-16.47202 0.16051,-0.14712 6.55797,-2.80859 14.21657,-5.9144 7.65858,-3.1058 13.94961,-5.66199 13.98002,-5.68041 0.0304,-0.0184 0.55729,-6.09623 1.17083,-13.50626 0.65677,-7.93217 1.23395,-13.58496 1.40347,-13.74557 0.43174,-0.40897 25.37112,-10.55403 25.54533,-10.39155 0.13855,0.12925 -1.90149,24.64861 -2.17893,26.1885 -0.0689,0.38215 -7.9e-4,0.68034 0.1554,0.68034 0.15288,0 7.79978,-3.06966 16.99312,-6.82147 9.19332,-3.7518 16.76778,-6.77236 16.83212,-6.71234 0.1785,0.1665 -1.75862,19.82078 -1.97056,19.99351 -0.10196,0.083 -7.63964,2.95031 -16.7504,6.37164 -9.11076,3.42131 -16.67274,6.32104 -16.80442,6.44386 -0.13165,0.12281 -0.70046,5.38258 -1.26401,11.68836 -1.78582,19.98231 -3.39715,37.62448 -5.17086,56.61506 -1.77908,19.04795 -1.83689,20.39696 -0.9967,23.25533 0.79871,2.71727 1.94401,3.71538 4.25204,3.70552 4.26622,-0.0183 10.52971,-5.66407 14.52743,-13.09494 6.11328,-11.36319 9.58396,-22.52098 10.73872,-34.52358 1.2592,-13.08811 6.17971,-27.10173 12.32619,-35.10495 5.82602,-7.58597 12.24255,-12.32811 19.98345,-14.76875 5.39298,-1.70035 12.45946,-2.24995 17.16668,-1.33514 9.39695,1.82623 16.19985,8.15272 19.88165,18.48937 1.64094,4.60695 2.79573,10.91355 2.79573,15.26822 0,1.64606 0.0722,1.98892 0.41822,1.98892 1.3054,0 10.89422,-5.73437 16.24551,-9.71528 2.49325,-1.85471 2.97827,-2.32321 2.85131,-2.75398 -0.70989,-2.40879 -0.81535,-27.47303 -0.15881,-37.75238 2.81529,-44.08168 12.01161,-84.827162 24.54075,-108.731062 4.55986,-8.69958 9.82766,-15.03582 16.22161,-19.51189 9.41726,-6.59252 19.94865,-7.25276 27.33328,-1.71364 5.73308,4.30029 9.18769,11.28229 10.56337,21.34923 0.87092,6.37353 0.21579,19.60395 -1.4946,30.18246 -3.7391,23.125842 -14.09997,52.411242 -28.35716,80.152522 -7.61215,14.81157 -13.63431,23.71031 -21.78202,32.18652 -1.38459,1.44037 -2.08759,2.37245 -2.08759,2.76772 0,1.10474 1.01857,4.32191 1.86989,5.90598 1.86663,3.47328 4.51161,6.13236 7.53017,7.57036 1.7534,0.83531 4.72223,1.03889 6.82708,0.46814 8.8906,-2.41077 19.23288,-18.05091 28.32421,-42.83331 4.88324,-13.31147 8.96409,-30.21522 9.7177,-40.25284 l 0.18022,-2.40107 12.70503,-4.7415 c 6.98774,-2.60783 12.74119,-4.70023 12.78543,-4.64976 0.0443,0.0504 -0.31251,2.9863 -0.79276,6.52408 -3.15919,23.27269 -5.37306,56.22701 -4.12179,61.3545 0.66601,2.72909 2.16864,4.57685 3.722,4.57685 3.1802,0 7.72189,-3.67742 11.97676,-9.69766 1.63739,-2.31669 4.21147,-6.92381 5.43243,-9.72302 0.41547,-0.95248 0.79041,-1.77653 0.83315,-1.8312 0.28771,-0.36793 11.22538,6.5752 11.22538,7.12579 0,0.77406 -4.32542,9.09023 -6.65601,12.79697 -1.91756,3.04982 -6.06624,8.72563 -7.91536,10.82889 -3.91353,4.45146 -9.36283,8.71018 -13.24734,10.35309 -4.38275,1.85359 -11.13708,2.66242 -15.19724,1.81987 -7.91739,-1.64301 -13.11299,-8.00951 -14.93692,-18.30324 -0.0935,-0.52798 -0.26771,-0.86196 -0.38698,-0.74219 -0.11931,0.11977 -0.83772,1.60938 -1.59641,3.31024 -3.16768,7.10114 -7.81567,15.28709 -12.08061,21.27615 -8.12436,11.40867 -16.86578,17.56837 -27.57799,19.43305 -3.18077,0.55369 -8.4761,0.38346 -11.13023,-0.35776 -5.66887,-1.58319 -10.58345,-5.04534 -13.93696,-9.81813 -1.66536,-2.37016 -3.96469,-6.76871 -4.77451,-9.13345 -0.3262,-0.95249 -0.68808,-1.82861 -0.80418,-1.94693 -0.11612,-0.11834 -1.80214,0.72718 -3.74673,1.87893 -4.61246,2.73187 -7.88072,4.44537 -14.52185,7.61361 l -5.44509,2.59767 -0.44808,2.41634 c -1.02155,5.50884 -3.73026,14.17987 -5.93557,19.00077 -5.75297,12.57621 -14.33726,20.33898 -25.4574,23.0211 -2.71049,0.65375 -3.81901,0.78656 -7.47017,0.89497 -5.91938,0.17577 -9.19208,-0.34062 -13.77719,-2.17387 -3.70345,-1.48072 -8.22321,-5.12027 -10.79,-8.68866 -0.76009,-1.05666 -1.44163,-1.92333 -1.51457,-1.92593 -0.0729,-0.003 -0.59289,1.07908 -1.15546,2.40376 -1.5664,3.68837 -5.76879,11.50019 -7.78262,14.46713 -3.54697,5.22563 -5.2251,7.22115 -9.22614,10.97113 -4.77631,4.47657 -7.8081,6.47294 -12.53758,8.25582 -3.81624,1.43859 -6.66153,1.99109 -10.21571,1.98369 -4.85054,-0.0101 -8.23165,-1.28886 -11.46592,-4.33642 -3.30372,-3.11302 -5.60893,-7.92126 -6.81424,-14.21329 -0.9115,-4.75825 -0.86239,-13.91444 0.12855,-23.96567 0.40745,-4.13288 0.68606,-7.56541 0.61911,-7.62785 -0.41685,-0.38884 -31.46384,20.22811 -31.46384,20.89377 0,0.0793 1.61126,1.58285 3.58058,3.34111 1.96931,1.75827 4.36573,4.10554 5.32537,5.21618 6.54058,7.56969 10.35335,16.10518 11.5111,25.76947 0.41445,3.4596 0.33091,12.32549 -0.15362,16.30428 -1.99503,16.38218 -12.95981,32.14985 -31.27059,44.96805 -12.17909,8.52578 -26.78756,15.21322 -42.37334,19.39763 -4.14971,1.1141 -13.97408,2.94584 -18.49754,3.4489 -4.18708,0.46561 -15.93107,0.68245 -19.62723,0.36237 z m 21.61647,-21.1413 c 16.67201,-1.86364 29.73356,-6.88253 41.2081,-15.83407 3.04477,-2.3753 8.43083,-7.57002 11.17318,-10.77624 5.86362,-6.85548 9.28532,-12.86705 10.76726,-18.91702 0.5828,-2.37921 0.66299,-7.6585 0.15031,-9.8959 -1.25639,-5.48313 -4.29392,-10.58889 -9.1426,-15.3677 -3.05654,-3.01245 -8.88816,-7.51653 -9.732,-7.51653 -0.84019,0 -15.83161,12.79156 -26.08278,22.25543 -26.0659,24.0639 -40.65295,41.58983 -41.93517,50.38388 -0.48463,3.32376 1.52601,5.38029 5.89652,6.03108 2.18374,0.32515 13.64408,0.0902 17.69718,-0.36293 z M 381.8646,255.61447 c 7.01255,-2.44731 12.03375,-13.70013 13.95669,-31.27777 0.45691,-4.17666 0.3974,-11.9009 -0.11505,-14.93436 -1.40576,-8.32137 -5.11318,-12.12065 -11.09909,-11.37411 -5.78494,0.72148 -10.31681,6.10044 -13.19503,15.6614 -1.97657,6.56587 -3.1711,14.04768 -3.37853,21.16144 -0.17068,5.852 0.0462,8.15868 1.13466,12.06611 1.29776,4.65895 4.08209,8.06099 7.30546,8.92618 1.54853,0.41565 3.82038,0.3192 5.39089,-0.22889 z m 81.83984,-81.13711 c 5.44663,-8.52526 12.69989,-23.74065 17.67267,-37.07271 6.59403,-17.67847 10.1136,-33.34807 11.89792,-52.971072 1.32109,-14.52901 0.50892,-22.41986 -2.72093,-26.43591 -3.96051,-4.92453 -11.15438,3.65824 -15.87046,18.93457 -6.52735,21.14318 -12.58973,63.705982 -13.78929,96.811722 -0.20728,5.72112 -0.35225,5.68328 2.81009,0.7334 z m 105.50858,-0.1346 c -1.84448,-0.52943 -4.02159,-2.48783 -4.73684,-4.26094 -1.96406,-4.86887 2.1331,-9.99429 7.7022,-9.63521 4.02053,0.25923 6.83615,2.95601 7.10566,6.80574 0.1149,1.6415 0.0534,1.93327 -0.71426,3.38776 -1.74406,3.30443 -5.52779,4.80173 -9.35676,3.70265 z m 5.51827,-1.36822 c 1.495,-0.7176 2.86671,-2.26947 3.31997,-3.75598 1.71727,-5.63165 -5.41078,-10.10211 -10.42249,-6.53661 -3.09216,2.19987 -3.39277,6.63552 -0.62462,9.21751 2.0416,1.90432 5.11018,2.33126 7.72714,1.07508 z m -6.20676,-5.47736 0.0732,-3.7728 2.28608,0.0358 c 2.46595,0.0387 3.17961,0.26297 3.8435,1.20806 0.53969,0.76825 0.31486,1.68941 -0.60671,2.48607 l -0.68864,0.59529 0.59016,1.30094 c 0.32461,0.71552 0.65212,1.4401 0.72775,1.61019 0.0927,0.20838 -0.12993,0.30924 -0.68266,0.30924 -0.73742,0 -0.90229,-0.15151 -1.6319,-1.49972 -0.72306,-1.33604 -0.88996,-1.49131 -1.5289,-1.42254 -0.67586,0.0727 -0.72186,0.1593 -0.79681,1.49973 -0.0781,1.39651 -0.094,1.42253 -0.8689,1.42253 h -0.78942 z m 4.39651,-0.72982 c 0.43365,-0.40452 0.4011,-1.3102 -0.06,-1.66712 -0.208,-0.16105 -0.89429,-0.25818 -1.52507,-0.21585 -1.14465,0.0769 -1.14701,0.079 -1.2284,1.12841 l -0.0816,1.05143 h 1.28836 c 0.70861,0 1.43162,-0.13359 1.60667,-0.29687 z m -44.9039,-54.47657 c -3.42818,-1.0113 -5.53619,-3.30129 -6.61833,-7.18968 -0.52433,-1.8841 -0.52342,-5.713882 0.004,-7.802892 0.80668,-3.20812 3.04907,-6.52577 5.63533,-8.33742 2.01328,-1.41029 3.65714,-1.90943 6.28581,-1.90856 2.81419,7.9e-4 4.60781,0.44892 6.48912,1.62072 2.88799,1.79884 4.2528,4.67637 4.2528,8.96643 0,3.109592 -0.43321,4.776522 -2.03312,7.822932 -0.94052,1.79086 -1.65036,2.73884 -2.98227,3.98268 -1.89998,1.7743 -2.89392,2.35008 -4.93083,2.85635 -1.6488,0.40983 -4.69314,0.40455 -6.10034,-0.0105 z"
     style="fill:#000000;stroke-width:0.25615975" />
  <rect
     y="23.040834"
     x="62.405212"
     height="376.37964"
     width="565.35602"
     id="rect1587"
     style="opacity:1;fill:none;fill-opacity:1;stroke:#000000;stroke-width:1.57312071;stroke-miterlimit:4;stroke-dasharray:none;stroke-opacity:1" />
  <text
     id="text1591"
     y="157.44431"
     x="631.53955"
     style="font-style:normal;font-weight:normal;font-size:13.33333302px;line-height:1.25;font-family:sans-serif;letter-spacing:0px;word-spacing:0px;fill:#000000;fill-opacity:1;stroke:none"
     xml:space="preserve"><tspan
       y="169.24118"
       x="631.53955"
       id="tspan1589" /></text>
  <text
     id="text1595"
     y="425.5899"
     x="283.67514"
     style="font-style:normal;font-weight:normal;font-size:13.33333302px;line-height:1.25;font-family:sans-serif;letter-spacing:0px;word-spacing:0px;fill:#000000;fill-opacity:1;stroke:none"
     xml:space="preserve"><tspan
       y="425.5899"
       x="283.67514"
       id="tspan1593">150.00mm</tspan></text>
  <text
     transform="rotate(-90)"
     id="text1599"
     y="45.498665"
     x="-241.89569"
     style="font-style:normal;font-weight:normal;font-size:13.33333302px;line-height:1.25;font-family:sans-serif;letter-spacing:0px;word-spacing:0px;fill:#000000;fill-opacity:1;stroke:none"
     xml:space="preserve"><tspan
       y="45.498665"
       x="-241.89569"
       id="tspan1597">100.00mm</tspan></text>
</svg>
