<?xml version="1.0" encoding="UTF-8" standalone="no"?>
<!-- Created with Inkscape (http://www.inkscape.org/) -->

<svg
   xmlns:dc="http://purl.org/dc/elements/1.1/"
   xmlns:cc="http://creativecommons.org/ns#"
   xmlns:rdf="http://www.w3.org/1999/02/22-rdf-syntax-ns#"
   xmlns:svg="http://www.w3.org/2000/svg"
   xmlns="http://www.w3.org/2000/svg"
   xmlns:sodipodi="http://sodipodi.sourceforge.net/DTD/sodipodi-0.dtd"
   xmlns:inkscape="http://www.inkscape.org/namespaces/inkscape"
   version="1.1"
   id="svg651"
   width="70mm"
   height="70mm"
   viewBox="0 0 264.56692 264.56692"
   sodipodi:docname="ruuumbitch.svg"
   inkscape:version="0.92.2 5c3e80d, 2017-08-06">
  <metadata
     id="metadata657">
    <rdf:RDF>
      <cc:Work
         rdf:about="">
        <dc:format>image/svg+xml</dc:format>
        <dc:type
           rdf:resource="http://purl.org/dc/dcmitype/StillImage" />
        <dc:title></dc:title>
      </cc:Work>
    </rdf:RDF>
  </metadata>
  <defs
     id="defs655" />
  <sodipodi:namedview
     pagecolor="#ffffff"
     bordercolor="#666666"
     borderopacity="1"
     objecttolerance="10"
     gridtolerance="10"
     guidetolerance="10"
     inkscape:pageopacity="0"
     inkscape:pageshadow="2"
     inkscape:window-width="1299"
     inkscape:window-height="702"
     id="namedview653"
     showgrid="false"
     inkscape:zoom="2.1891892"
     inkscape:cx="172.57636"
     inkscape:cy="113.73759"
     inkscape:window-x="0"
     inkscape:window-y="0"
     inkscape:window-maximized="0"
     inkscape:current-layer="svg651"
     units="mm" />
  <path
     style="fill:#000000;stroke-width:0.18396537"
     d="m 121.04702,178.2562 c -0.84519,-0.42711 -0.88561,-0.92407 -0.50454,-6.20514 0.42395,-5.87545 0.43329,-11.58068 0.0265,-16.1207 -0.16321,-1.82126 -0.34365,-4.55315 -0.40095,-6.07085 -0.0573,-1.51772 -0.15304,-3.63969 -0.2127,-4.71548 l -0.1085,-1.95597 -1.13109,-0.12086 c -0.62209,-0.0665 -2.08311,-0.29572 -3.2467,-0.50938 -2.59176,-0.4759 -5.31892,-0.50503 -7.00512,-0.0748 -1.3591,0.34675 -1.95826,0.23151 -2.45054,-0.4713 -0.68957,-0.98453 -0.0998,-2.14102 1.2917,-2.53283 2.16468,-0.60951 5.78849,-0.70048 7.91913,-0.1988 3.11435,0.73332 6.22244,0.89245 9.27311,0.47478 1.05472,-0.14441 3.69754,-0.35554 5.87293,-0.46918 2.17539,-0.11362 4.51069,-0.28447 5.18957,-0.37961 1.39009,-0.19481 1.97739,-0.0523 2.42642,0.58877 0.4135,0.59036 0.36628,1.33986 -0.11936,1.89496 -0.49509,0.56585 -1.52279,0.71969 -6.76072,1.01205 -3.81212,0.21278 -7.63002,0.56962 -7.90358,0.73869 -0.18976,0.11723 0.19693,9.89132 0.54238,13.70969 0.32902,3.63671 0.41831,8.55967 0.20685,11.40586 -0.11274,1.51771 -0.30313,4.23888 -0.42306,6.04704 -0.16312,2.45935 -0.29049,3.37607 -0.50554,3.63892 -0.34622,0.42315 -1.422,0.5942 -1.97606,0.31421 z m -14.04388,-48.7326 c -1.78496,-0.39489 -2.07027,-0.56769 -3.9591,-2.39777 -0.98996,-0.95918 -1.92663,-1.74394 -2.0815,-1.74394 -0.15486,0 -0.59086,-0.39323 -0.968887,-0.87384 -0.378024,-0.4806 -1.066539,-1.25006 -1.530027,-1.7099 -0.463487,-0.45983 -1.073318,-1.24628 -1.355179,-1.74767 -0.281861,-0.50139 -0.628309,-1.11856 -0.769895,-1.37152 -0.632529,-1.13006 -0.87767,-1.98541 -0.96839,-3.37896 -0.05356,-0.82287 -0.175097,-1.59444 -0.270075,-1.7146 -0.09501,-0.12011 -0.117988,-0.58315 -0.05106,-1.02888 0.07404,-0.49404 0.0037,-1.4419 -0.18159,-2.42802 -0.347597,-1.85503 -0.654878,-4.32726 -0.72074,-5.79884 -0.02497,-0.5565 -0.101632,-1.54991 -0.17039,-2.20758 -0.06879,-0.65768 -0.168866,-2.51528 -0.222342,-4.127983 -0.06343,-1.91311 -0.195249,-3.22088 -0.379235,-3.76278 -0.307881,-0.90685 -0.23559,-1.46351 0.30366,-2.33833 0.452701,-0.73438 1.959979,-1.51387 3.211865,-1.66101 l 0.981063,-0.11536 0.111745,0.71369 c 0.06143,0.39254 0.20118,1.12762 0.310503,1.63352 0.109248,0.5059 0.183974,1.66489 0.165908,2.57552 -0.0246,1.23788 0.0859,2.14314 0.43793,3.58733 0.258925,1.062393 0.470879,2.253163 0.471004,2.646143 2.87e-4,0.85971 0.362242,2.14628 0.632992,2.24998 0.11249,0.0431 0.1691,0.44861 0.13373,0.95737 -0.0375,0.53801 0.11761,1.56086 0.39698,2.61961 0.25208,0.95533 0.50539,2.30803 0.56288,3.00597 0.0601,0.72945 0.26285,1.5727 0.47686,1.9833 0.20478,0.39286 0.37232,1.00414 0.37232,1.35841 0,0.35427 0.131,0.9519 0.29111,1.32809 0.2206,0.5183 0.26407,1.01813 0.17948,2.06369 -0.14514,1.79399 0.09,2.25071 2.05661,3.99446 1.40303,1.24407 1.57352,1.34193 2.29956,1.32007 0.4313,-0.013 0.86697,0.004 0.96815,0.0361 0.28114,0.0913 1.61182,-0.39253 2.00433,-0.72879 0.66392,-0.56876 0.98655,-1.68958 1.11864,-3.88601 0.0699,-1.16357 0.28587,-2.69343 0.47975,-3.39966 0.42614,-1.55215 0.43941,-2.27376 0.071,-3.86208 -0.2582,-1.11335 -0.25596,-1.26748 0.027,-1.86379 0.26198,-0.55208 0.28603,-0.94628 0.15957,-2.61498 -0.14027,-1.85083 -0.1489,-2.89646 -0.0422,-5.10592 0.036,-0.74407 -0.0516,-1.07998 -0.43143,-1.6557 -0.45848,-0.694903 -0.51705,-0.959573 -0.88074,-3.979163 -0.0809,-0.67113 -0.26514,-1.20157 -0.51135,-1.47172 -0.56163,-0.61624 -0.79888,-1.1509 -0.79888,-1.80041 0,-0.6474 0.5652,-1.25469 2.15582,-2.31637 0.52801,-0.35243 1.03727,-0.77882 1.13169,-0.94754 0.23799,-0.42526 1.20967,-0.38634 2.27746,0.0911 0.74918,0.33507 0.87382,0.46624 0.87382,0.91966 0,0.29087 0.12775,0.95899 0.28388,1.48472 0.21837,0.73536 0.23983,1.1144 0.093,1.64308 -0.33131,1.19297 -0.22384,2.16733 0.40498,3.67187 l 0.59789,1.43052 -0.0563,9.014303 c -0.0465,7.43285 -0.10612,9.19143 -0.33982,10.02397 -0.17982,0.64054 -0.24196,1.32247 -0.16995,1.8653 0.0988,0.74464 0.0283,1.01937 -0.54253,2.11775 -0.36084,0.69415 -0.90241,1.57 -1.20352,1.94629 -0.30112,0.37631 -0.70936,1.06183 -0.9072,1.52341 -0.19786,0.46156 -0.60293,1.14709 -0.90017,1.5234 -0.29724,0.3763 -0.74539,1.05505 -0.99586,1.50834 -0.50861,0.9204 -0.59378,0.97945 -1.83192,1.26984 -1.07078,0.25114 -1.3965,0.24325 -2.80284,-0.0679 z m 30.14616,-10e-4 c -0.6204,-0.13493 -1.39092,-0.38129 -1.71228,-0.54748 -1.27377,-0.6587 -7.15079,-6.37276 -7.76362,-7.54837 -0.21098,-0.40473 -0.53905,-0.90594 -0.72904,-1.11381 -0.59884,-0.65519 -1.21508,-2.4962 -1.34774,-4.02636 -0.0697,-0.80348 -0.18165,-1.54854 -0.24886,-1.65569 -0.0672,-0.10713 -0.0971,-0.6942 -0.0664,-1.30453 0.0307,-0.61034 -0.0753,-1.80071 -0.23552,-2.64528 -0.16022,-0.84456 -0.33778,-2.12097 -0.39457,-2.83645 -0.0568,-0.7155 -0.145,-1.36839 -0.19598,-1.45087 -0.0509,-0.0825 -0.13041,-1.49392 -0.17649,-3.1365 -0.0461,-1.6426 -0.16843,-3.512113 -0.27185,-4.154483 -0.10338,-0.64238 -0.13776,-1.51161 -0.0763,-1.93163 0.0717,-0.48992 0.009,-1.05227 -0.17542,-1.56867 -0.15792,-0.44276 -0.28712,-1.06778 -0.28712,-1.38893 0,-0.64923 0.86494,-2.12929 1.24434,-2.12929 0.13325,0 0.46659,-0.16053 0.74074,-0.35671 0.27416,-0.19619 0.96619,-0.41165 1.53787,-0.47881 1.18301,-0.13898 1.09152,-0.24784 1.4753,1.75534 0.12599,0.65767 0.20953,1.91964 0.18562,2.80436 -0.0308,1.14349 0.0704,2.07431 0.35026,3.21939 0.21653,0.88595 0.50376,2.385313 0.63826,3.331923 0.13815,0.97235 0.36696,1.85638 0.52595,2.03205 0.18902,0.20888 0.24915,0.51958 0.18314,0.9464 -0.0602,0.38908 0.0864,1.33866 0.37805,2.44931 0.26198,0.99762 0.54659,2.50705 0.63246,3.35428 0.0876,0.86448 0.2874,1.74075 0.45526,1.99694 0.16453,0.2511 0.29913,0.697 0.29913,0.99093 0,0.29392 0.15591,1.02244 0.34646,1.61892 0.26004,0.81398 0.32295,1.41302 0.25224,2.40143 -0.11949,1.66926 0.15529,2.15589 2.16207,3.8297 1.28996,1.07591 1.53042,1.20606 2.15978,1.16892 0.38951,-0.023 0.8043,0.0176 0.92177,0.0901 0.11749,0.0727 0.3618,0.0566 0.54299,-0.0357 0.18118,-0.0923 0.63674,-0.29919 1.01234,-0.45985 1.10577,-0.47299 1.43845,-1.35569 1.60337,-4.25424 0.076,-1.33586 0.1969,-2.52382 0.26866,-2.63993 0.0718,-0.11612 0.24616,-0.76394 0.38752,-1.43961 0.22642,-1.08217 0.2216,-1.41059 -0.0405,-2.75774 -0.28261,-1.45269 -0.28026,-1.58002 0.0471,-2.54291 0.33229,-0.97761 0.33336,-1.09494 0.0296,-3.29927 -0.2261,-1.64105 -0.2625,-2.42345 -0.12907,-2.77441 0.35252,-0.92716 0.22576,-2.19434 -0.29647,-2.96388 -0.46774,-0.689273 -0.77647,-2.088113 -0.89858,-4.071583 -0.0315,-0.51065 -0.20686,-0.96475 -0.5134,-1.32907 -0.63049,-0.74929 -0.92163,-1.67809 -0.70478,-2.24844 0.0943,-0.24803 0.6367,-0.81874 1.20534,-1.26826 0.56864,-0.44953 1.37565,-1.09021 1.79335,-1.42375 0.83682,-0.66821 1.1942,-0.67378 2.65421,-0.0413 0.74084,0.32091 0.75681,0.34758 0.898,1.49906 0.079,0.64478 0.13315,1.54486 0.12012,2.00018 -0.013,0.45531 -0.0381,1.32454 -0.0559,1.93164 -0.0256,0.87416 0.0762,1.33341 0.48878,2.20758 0.49544,1.04943 0.52732,1.27593 0.64749,4.599133 0.0725,2.00722 0.0519,3.96528 -0.0486,4.59914 -0.099,0.62474 -0.1257,2.86029 -0.0615,5.15102 0.0729,2.60393 0.043,4.40806 -0.0841,5.05905 -0.10863,0.55649 -0.25712,1.75687 -0.32993,2.66749 -0.14359,1.7957 -0.42369,2.5031 -1.60282,4.04785 -0.37107,0.48612 -0.91373,1.38853 -1.20589,2.00534 -0.29216,0.61681 -0.80038,1.46812 -1.12939,1.89179 -0.32899,0.42369 -0.76374,1.037 -0.9661,1.36291 -0.28146,0.45332 -0.5841,0.64867 -1.28776,0.83126 -1.14038,0.29588 -1.71721,0.29229 -3.15159,-0.0197 z m 30.1945,0.017 c -1.74734,-0.38036 -2.05277,-0.56655 -3.95911,-2.4136 -0.98996,-0.95919 -1.92866,-1.74395 -2.08599,-1.74395 -0.15733,0 -0.74698,-0.57771 -1.31035,-1.28379 -0.56336,-0.70608 -1.18789,-1.37132 -1.38782,-1.47833 -0.19994,-0.107 -0.56578,-0.59369 -0.813,-1.08154 -0.24721,-0.48785 -0.66102,-1.13841 -0.91958,-1.44569 -0.25855,-0.30727 -0.4701,-0.67889 -0.4701,-0.82579 0,-0.14692 -0.13229,-0.5323 -0.29396,-0.8564 -0.16169,-0.32411 -0.33819,-1.26814 -0.39224,-2.09788 -0.0541,-0.82972 -0.17594,-1.60691 -0.27091,-1.72707 -0.095,-0.12011 -0.11799,-0.58315 -0.0512,-1.02888 0.075,-0.50035 0.002,-1.43735 -0.19075,-2.44903 -0.53235,-2.79346 -0.66715,-4.25287 -1.00946,-10.92887 -0.12926,-2.521013 -0.31442,-4.447393 -0.47361,-4.927503 -0.35188,-1.06122 -0.33434,-1.26247 0.18769,-2.15324 0.54849,-0.93594 1.90973,-1.69928 3.32736,-1.8659 l 0.98106,-0.11537 0.11175,0.7137 c 0.0614,0.39253 0.20118,1.12762 0.3105,1.63352 0.10925,0.5059 0.18416,1.66488 0.16632,2.57552 -0.0225,1.1482 0.0869,2.15405 0.35694,3.28162 0.21415,0.894263 0.45729,2.231563 0.5403,2.971783 0.083,0.74023 0.28514,1.61488 0.44916,1.94367 0.16403,0.32879 0.29823,0.97858 0.29823,1.44396 0,0.46539 0.16994,1.42539 0.37765,2.13333 0.20772,0.70794 0.45004,2.01601 0.5385,2.90681 0.10026,1.00989 0.30441,1.89505 0.54217,2.35122 0.20974,0.40237 0.38134,1.00838 0.38134,1.34668 0,0.33829 0.13045,0.97733 0.28989,1.42006 0.2116,0.58756 0.25873,1.13586 0.17448,2.02996 -0.15849,1.68215 0.097,2.18638 1.97006,3.8868 1.47775,1.34159 1.61449,1.42225 2.37232,1.39929 0.4423,-0.0134 0.88697,0.002 0.98816,0.0353 0.31493,0.10226 1.63551,-0.41053 2.06497,-0.8019 0.63043,-0.57451 0.93487,-1.694 1.05764,-3.88925 0.0618,-1.10439 0.27439,-2.59285 0.47248,-3.30767 0.43295,-1.56238 0.44831,-2.2839 0.0822,-3.86248 -0.25319,-1.09172 -0.2508,-1.26631 0.0267,-1.96 0.25405,-0.63494 0.27976,-1.07215 0.15462,-2.63022 -0.14093,-1.7547 -0.14908,-2.76236 -0.0405,-5.00971 0.036,-0.74407 -0.0516,-1.07998 -0.43142,-1.6557 -0.45848,-0.694903 -0.51705,-0.959573 -0.88076,-3.979163 -0.0808,-0.67113 -0.26513,-1.20157 -0.51134,-1.47172 -0.5633,-0.61806 -0.79889,-1.15129 -0.79889,-1.80822 0,-0.64239 0.48003,-1.18444 1.85726,-2.09722 0.44564,-0.29535 0.99213,-0.74594 1.21442,-1.00131 0.507,-0.58243 1.29263,-0.60334 2.49329,-0.0663 0.72573,0.32458 0.87382,0.4738 0.87382,0.88051 0,0.26932 0.12261,0.96291 0.27251,1.5413 0.19934,0.76931 0.22404,1.22056 0.092,1.68102 -0.32128,1.12022 -0.20505,2.12728 0.41736,3.6165 l 0.59789,1.43052 -0.0558,9.014303 c -0.0462,7.46518 -0.10488,9.18819 -0.34132,10.02612 -0.17607,0.62407 -0.246,1.34768 -0.18248,1.88829 0.0889,0.75607 0.0145,1.04678 -0.54105,2.11562 -0.35422,0.68151 -0.8904,1.54699 -1.19151,1.92328 -0.30112,0.37631 -0.71677,1.07997 -0.9237,1.56371 -0.20692,0.48374 -0.52974,1.04509 -0.71738,1.24746 -0.18764,0.20235 -0.66726,0.90602 -1.06584,1.5637 -0.63848,1.05356 -0.80975,1.21258 -1.4401,1.33706 -1.42903,0.28221 -2.20836,0.29665 -3.29095,0.061 z m 41.66815,-0.0966 c -0.35414,-0.19057 -0.84486,-0.56167 -1.0905,-0.82465 -0.44432,-0.4757 -0.44682,-0.50065 -0.48601,-4.84667 -0.0549,-6.09273 -0.27776,-9.16549 -0.72361,-9.97945 -0.29963,-0.547 -0.35623,-1.05906 -0.37615,-3.40337 -0.0176,-2.066 -0.0993,-2.95867 -0.32494,-3.55212 -0.16581,-0.43595 -0.39279,-1.71912 -0.50441,-2.85147 -0.11162,-1.13235 -0.32054,-2.27854 -0.46428,-2.54711 -0.14372,-0.26856 -0.26131,-0.62039 -0.26131,-0.78185 0,-0.37973 -0.47872,-0.38169 -0.6242,-0.002 -0.0614,0.16005 -0.11162,0.54675 -0.11162,0.85935 0,0.3126 -0.13071,0.71278 -0.29045,0.8893 -0.15975,0.17652 -0.31317,0.52794 -0.34094,0.78092 -0.0277,0.25298 -0.35316,0.87229 -0.72309,1.37622 -0.36992,0.50394 -0.88685,1.40081 -1.14873,1.99305 -0.26187,0.59224 -0.84059,1.46649 -1.28604,1.94276 -0.44543,0.47627 -0.81046,0.93158 -0.81114,1.0118 -8.3e-4,0.0803 -0.2914,0.34347 -0.64603,0.58497 -0.57769,0.39342 -0.76952,0.42632 -1.84377,0.31626 -2.31483,-0.23716 -2.15959,-0.12881 -3.19659,-2.23091 -0.51431,-1.04257 -0.93511,-1.95519 -0.93511,-2.02804 0,-0.3793 -2.4843,-4.51738 -2.85968,-4.76333 -0.60594,-0.39704 -0.69469,-0.36373 -0.55146,0.20696 0.25466,1.01459 0.24182,4.023 -0.0226,5.30047 -0.18252,0.88184 -0.23118,1.80964 -0.15435,2.94344 0.0713,1.05188 0.0353,1.89051 -0.0986,2.29957 -0.11599,0.35413 -0.26712,2.14053 -0.33586,3.96977 -0.10675,2.83883 -0.17685,3.4046 -0.47895,3.86328 -0.24767,0.37605 -0.39816,1.06203 -0.50126,2.28504 -0.39674,4.70633 -0.32615,4.35255 -1.00885,5.0555 -0.81301,0.83713 -1.52344,0.86713 -2.29371,0.0969 -0.43639,-0.43637 -0.5198,-0.63669 -0.40225,-0.96582 0.0815,-0.22839 0.12866,-0.74639 0.10463,-1.15112 -0.024,-0.40472 -0.0331,-1.64649 -0.0201,-2.75947 0.0416,-3.56213 0.0381,-5.11205 -0.0152,-6.80673 -0.0287,-0.91062 0.005,-2.02821 0.075,-2.48352 0.0699,-0.45532 0.0512,-1.03062 -0.0416,-1.27845 -0.11312,-0.30228 -0.0775,-0.87757 0.10812,-1.74767 0.15225,-0.71339 0.29573,-1.95935 0.31886,-2.7688 0.0305,-1.06418 0.15705,-1.72642 0.45737,-2.39154 0.34962,-0.77432 0.43628,-1.38548 0.5478,-3.86327 0.0926,-2.058193 0.22294,-3.157693 0.43323,-3.655793 0.16542,-0.39178 0.30077,-1.11024 0.30077,-1.59656 0,-1.38264 0.24681,-1.52465 2.47321,-1.42294 1.38435,0.0632 2.03517,0.17994 2.58584,0.46369 1.25529,0.64686 2.54686,1.80083 3.37939,3.01942 0.87921,1.28691 2.83116,2.956963 3.26258,2.791423 0.33101,-0.12703 0.61483,-0.66617 1.64441,-3.123603 0.44028,-1.05088 1.22098,-2.50751 1.7349,-3.23696 0.59977,-0.85128 1.07172,-1.78867 1.31782,-2.61746 0.56456,-1.90124 0.79236,-2.25734 1.58475,-2.47741 0.77315,-0.2147 1.88623,-0.25226 2.33806,-0.0789 0.53158,0.204 1.52512,2.70641 1.67516,4.21922 0.0307,0.30942 0.23617,1.08381 0.45664,1.72086 0.25337,0.73214 0.36404,1.38512 0.3008,1.7748 -0.0551,0.33908 -0.0255,0.84785 0.0657,1.13059 0.43962,1.36392 0.88593,4.160603 0.8747,5.481143 -0.009,0.97246 0.12735,2.00221 0.39981,3.03543 0.22677,0.86005 0.48153,2.55713 0.56613,3.7713 0.0845,1.21416 0.23957,2.53872 0.3444,2.94345 0.11811,0.45592 0.14777,1.89061 0.078,3.77129 -0.12048,3.24821 0.13717,6.92975 0.58969,8.4259 0.24671,0.81562 0.23534,0.93285 -0.20159,2.07965 -0.72919,1.91392 -1.62272,2.49035 -2.84263,1.83385 z M 71.317278,177.73391 c -0.35414,-0.0753 -0.850839,-0.21987 -1.103796,-0.32119 -0.252957,-0.10138 -0.872751,-0.2449 -1.377316,-0.31908 -1.079524,-0.15869 -1.692713,-0.45048 -2.575452,-1.22554 l -0.646364,-0.56752 v -1.74071 c 0,-0.95739 0.07891,-1.88807 0.175272,-2.0682 0.252433,-0.47168 0.64278,-3.4425 0.594336,-4.52339 -0.02272,-0.50592 -0.03408,-1.41655 -0.02535,-2.02363 0.05556,-3.8711 -0.129638,-11.47929 -0.369397,-15.17715 -0.10825,-1.66948 -0.216175,-4.27719 -0.239822,-5.79491 -0.03808,-2.44449 -0.0011,-2.84343 0.324898,-3.49497 0.432923,-0.86544 2.155764,-1.99624 3.540696,-2.32398 0.480968,-0.11387 1.425423,-0.36193 2.098805,-0.55137 2.258108,-0.63522 4.716409,-0.34759 6.249994,0.73126 0.785452,0.55254 1.008668,0.83713 1.255682,1.60092 0.165221,0.51089 0.575957,1.31259 0.912717,1.78154 0.336797,0.46895 0.679487,1.20993 0.761567,1.64661 0.158704,0.84441 -0.04719,2.81452 -0.460828,4.40915 -0.136654,0.52679 -0.210219,1.05745 -0.163498,1.17923 0.141174,0.36789 -2.076194,4.82203 -2.876191,5.77753 l -0.746635,0.89178 0.416767,0.66522 c 0.229222,0.36586 0.585197,0.93233 0.791058,1.25881 0.205836,0.32649 0.762666,0.88174 1.237391,1.23391 1.983401,1.47137 3.178591,5.90403 2.580309,9.56977 -0.389573,2.38702 -1.779275,5.05376 -3.451262,6.62276 -0.485213,0.45531 -1.036624,0.97271 -1.22538,1.14978 -0.188744,0.17707 -0.424708,0.32194 -0.524392,0.32194 -0.09963,0 -0.578455,0.24443 -1.063992,0.54318 -0.605948,0.37286 -1.198136,0.56813 -1.888399,0.6227 -0.553096,0.0437 -1.12979,0.12073 -1.281564,0.17101 -0.151774,0.0503 -0.565695,0.0298 -0.919834,-0.0454 z m 4.221757,-5.98554 c 1.879559,-0.33556 2.208815,-0.60189 2.889638,-2.33716 l 0.500295,-1.27518 -0.533182,-2.08826 c -0.588955,-2.30668 -0.620019,-2.36683 -1.605539,-3.11006 -0.379435,-0.28614 -0.689875,-0.62902 -0.689875,-0.76197 0,-0.13294 -0.158305,-0.29196 -0.35178,-0.35338 -0.193489,-0.0614 -0.658737,-0.35557 -1.033902,-0.65372 -0.841999,-0.66913 -1.681776,-0.91275 -3.150948,-0.91407 l -1.133261,-0.001 -0.117489,1.60969 c -0.06455,0.88533 -0.244005,3.18261 -0.398713,5.10504 -0.154708,1.92243 -0.254168,3.8261 -0.221019,4.23037 0.05294,0.64553 0.127465,0.75078 0.612153,0.86431 0.755837,0.17704 3.355024,0.0208 5.233572,-0.31458 z m -3.535927,-15.86788 c 0.528987,-0.43974 1.105631,-1.04304 1.281427,-1.34066 0.175809,-0.2976 0.390173,-0.54111 0.476373,-0.54111 0.290713,0 2.131679,-1.90368 2.233574,-2.30966 0.05556,-0.22133 0.398887,-0.62965 0.76299,-0.90735 1.135072,-0.86576 1.365043,-1.43149 1.365842,-3.35975 0,-0.93593 -0.07192,-1.70168 -0.160638,-1.70168 -0.08865,0 -0.337472,-0.40951 -0.552785,-0.91002 -0.489345,-1.13753 -0.832772,-1.37944 -2.781239,-1.95907 -0.86004,-0.25584 -1.775916,-0.54645 -2.035291,-0.64579 -0.326521,-0.12507 -0.80448,-0.10675 -1.553836,0.0594 l -1.082271,0.2401 -0.08091,3.21736 c -0.04445,1.76953 -0.07679,3.46569 -0.07167,3.76924 0.01423,0.85105 0.38217,5.58528 0.518561,6.67162 0.137142,1.09231 -0.0025,1.11578 1.679916,-0.2827 z m 86.973662,21.75222 c -0.40472,-0.13317 -0.9999,-0.24848 -1.32262,-0.25626 -0.8166,-0.0197 -3.64209,-1.51402 -4.74823,-2.51125 -0.5059,-0.45609 -1.1436,-0.96561 -1.41711,-1.13228 -0.27349,-0.16667 -1.03708,-1.09462 -1.69686,-2.06212 -1.13335,-1.66197 -1.24178,-1.9165 -1.96427,-4.61056 -0.42058,-1.56829 -0.92233,-3.43094 -1.115,-4.13921 -0.19266,-0.70827 -0.39495,-1.95003 -0.44955,-2.75948 -0.0546,-0.80945 -0.21752,-2.0272 -0.36208,-2.7061 -0.21061,-0.98919 -0.22952,-1.84794 -0.0953,-4.32319 0.1846,-3.4022 0.52136,-5.04636 1.56272,-7.62948 0.34998,-0.86809 0.72473,-1.90673 0.83282,-2.30807 0.33645,-1.24952 1.81877,-2.98768 3.47552,-4.07536 2.35671,-1.54723 3.26899,-1.85196 5.55957,-1.85712 2.12131,-0.005 3.56627,0.28481 5.08053,1.01818 1.8715,0.90639 4.3652,4.54901 4.34658,6.34912 -0.0125,1.13929 -0.45393,1.94834 -1.148,2.10079 -0.48388,0.10625 -0.65758,0.0137 -1.43899,-0.76654 -0.48878,-0.48807 -1.58782,-1.30045 -2.44234,-1.8053 -1.36208,-0.80473 -1.66634,-0.91316 -2.46753,-0.87929 -0.63374,0.0268 -1.10217,-0.0725 -1.52821,-0.32384 -0.46984,-0.27721 -0.95209,-0.3625 -2.04969,-0.3625 -1.40436,0 -1.45274,0.0154 -2.24361,0.7115 -0.90992,0.80096 -2.43016,3.51429 -2.642,4.71549 -0.0713,0.40472 -0.20608,0.82825 -0.29933,0.94117 -0.0933,0.11287 -0.25503,0.89937 -0.35945,1.74766 -0.1045,0.84831 -0.35186,2.48442 -0.54984,3.63581 -0.55968,3.25514 -0.43226,5.50732 0.40175,7.10048 0.21312,0.40712 0.41222,1.17477 0.44248,1.70592 0.0684,1.20244 1.56949,5.51693 2.34564,6.74218 0.72304,1.1414 1.82526,1.84162 3.53243,2.24409 1.33138,0.31387 1.35347,0.31293 2.46911,-0.10426 0.80603,-0.30144 1.34388,-0.39172 1.89402,-0.31793 0.80939,0.10863 3.72717,-0.60697 4.48879,-1.1008 0.27354,-0.17737 0.52163,-0.20189 0.8354,-0.0827 0.79908,0.30381 0.87592,0.55332 0.59187,1.922 -0.30012,1.44597 -0.65008,2.07063 -1.24349,2.21957 -0.31894,0.08 -0.41957,0.23632 -0.41957,0.6516 0,0.30045 -0.114,0.68359 -0.25325,0.85144 -0.39558,0.47664 -2.18784,1.2237 -3.30341,1.37692 -0.55649,0.0764 -1.13598,0.18011 -1.28775,0.23038 -0.15178,0.0503 -0.60709,-0.0176 -1.01182,-0.15073 z m 19.04348,0.045 c -0.76228,-0.38568 -0.84554,-0.99037 -0.49339,-3.58309 0.17501,-1.28875 0.5324,-3.48535 0.79418,-4.88137 0.26179,-1.39601 0.44538,-2.56847 0.40801,-2.60548 -0.0375,-0.037 -1.5415,0.005 -3.34248,0.0926 -3.37969,0.16506 -4.01176,0.0915 -4.47719,-0.52114 -0.40421,-0.53203 -0.30702,-1.57749 0.19004,-2.04445 0.41412,-0.38906 0.67855,-0.42519 4.36649,-0.59662 2.15913,-0.10038 3.96178,-0.2186 4.00594,-0.26274 0.12086,-0.12086 1.62637,-7.90076 1.77244,-9.1591 l 0.12717,-1.09576 -2.55097,0.11749 c -1.40302,0.0646 -3.33741,0.2836 -4.29865,0.48669 -2.27779,0.48125 -2.67863,0.47163 -3.22777,-0.0774 -0.89997,-0.90001 -0.35156,-2.30649 1.04617,-2.68285 1.42821,-0.38458 3.76088,-0.73133 5.58498,-0.8302 1.01179,-0.0548 2.18,-0.14062 2.59603,-0.19061 l 0.75637,-0.0909 0.0949,-1.51027 c 0.0619,-0.98609 0.2919,-2.09741 0.6625,-3.20201 0.71271,-2.12435 2.11925,-4.94707 2.59084,-5.19945 1.03704,-0.55502 2.40558,0.15909 2.40558,1.25523 0,0.299 -0.40562,1.35826 -0.90133,2.35393 -1.16881,2.34754 -1.499,3.35787 -1.6231,4.96637 l -0.10163,1.31641 1.17501,0.10413 c 0.64628,0.0573 3.39881,-0.14527 6.0638,0.21726 l 4.88875,0.11312 0.23815,-1.3497 c 0.13099,-0.74234 0.5674,-2.42592 0.96978,-3.74127 0.6111,-1.99754 0.73939,-2.69462 0.77863,-4.2312 0.0568,-2.22319 0.0212,-2.0351 0.46963,-2.48354 0.50782,-0.50781 1.50264,-0.48193 2.12728,0.0554 0.42593,0.36637 0.50488,0.6017 0.58702,1.74991 0.10775,1.50585 -0.18596,3.62774 -0.71401,5.15836 -0.19711,0.57137 -0.52494,1.70112 -0.72848,2.51057 -0.20354,0.80945 -0.41298,1.6166 -0.46541,1.79367 -0.0879,0.29682 0.13162,0.32257 2.8145,0.32995 4.26515,0.0112 5.04884,0.24676 5.31846,1.59496 0.0988,0.49347 0.029,0.67881 -0.4262,1.13406 l -0.5442,0.54418 -3.64174,-0.10562 -3.64174,-0.10563 0.14466,2.4662 c 0.0795,1.35642 0.19437,3.74937 0.25514,5.31768 l 0.11049,2.85145 0.64391,0.0597 c 1.20536,0.11175 1.90318,1.22763 1.38923,2.2215 -0.30627,0.59227 -1.0901,0.93819 -2.1259,0.93819 -0.62445,0 -0.74673,0.0926 -1.45458,1.10176 -1.47724,2.10591 -2.92726,5.61511 -3.59453,8.69908 -0.25594,1.18277 -1.581,1.62577 -2.55984,0.8558 -0.61875,-0.4867 -0.62496,-1.06421 -0.0357,-3.32387 0.5086,-1.95061 1.48566,-4.46799 2.41386,-6.21931 0.41028,-0.77413 0.55954,-1.22882 0.42967,-1.30908 -0.67385,-0.41647 -12.76777,-0.6925 -13.15989,-0.30035 -0.19932,0.19929 -0.93139,4.16827 -1.38088,7.48666 -0.37786,2.78931 -0.45197,3.07644 -0.91414,3.54133 -0.54559,0.54886 -1.10068,0.63119 -1.81589,0.26933 z m 18.94652,-15.35448 c 0.003,-2.00908 -0.39827,-8.77346 -0.52688,-8.9068 -0.0651,-0.0673 -2.77789,-0.19153 -6.02869,-0.27595 l -5.91051,-0.15349 -0.12211,1.46793 c -0.10226,1.22887 -1.03459,6.27024 -1.4891,8.05228 l -0.12904,0.5059 3.74526,0.0162 c 2.05986,0.009 5.02837,0.12061 6.5967,0.24826 1.5683,0.12763 3.07911,0.24452 3.35735,0.25976 0.50456,0.0276 0.50593,0.0243 0.50707,-1.21408 z M 78.776507,129.26768 c -0.101632,-0.18998 -0.361743,-1.16179 -0.577917,-2.15957 -0.603051,-2.78342 -1.209261,-3.82709 -4.208298,-7.24516 -0.932157,-1.0624 -2.264775,-2.71809 -2.961392,-3.67931 -0.696606,-0.96121 -1.597973,-2.1202 -2.003016,-2.57552 l -0.736472,-0.82784 -0.005,1.15892 c -0.0037,0.71523 -0.123107,1.38432 -0.312737,1.74768 -0.209645,0.40172 -0.326684,1.16703 -0.368448,2.40919 -0.04582,1.36193 -0.221019,2.40449 -0.695756,4.13923 -0.349008,1.27532 -0.68859,2.70712 -0.754613,3.18177 l -0.120111,0.863 -1.011927,0.12643 c -0.996558,0.12448 -3.474336,-0.0172 -4.030179,-0.23048 -0.234066,-0.0898 -0.261947,-0.30877 -0.157118,-1.23351 0.193588,-1.70752 0.938949,-4.39564 1.762257,-6.35546 1.553163,-3.6972 1.858122,-4.93263 2.003853,-8.11788 0.09052,-1.97798 0.205674,-2.84451 0.440127,-3.31138 0.218672,-0.43542 0.400361,-1.60914 0.583486,-3.76922 0.146256,-1.72529 0.400599,-3.587943 0.565208,-4.139223 0.164609,-0.55128 0.293198,-1.33346 0.285756,-1.7382 -0.0075,-0.40471 0.06767,-1.36892 0.166994,-2.14266 0.173224,-1.3499 0.161625,-1.43465 -0.28668,-2.09529 -0.256977,-0.37866 -0.467221,-0.87447 -0.467221,-1.10182 0,-0.35272 0.128201,-0.43192 0.873837,-0.53995 0.480606,-0.0697 1.29877,-0.32522 1.81813,-0.56799 0.519361,-0.24277 1.223382,-0.4309 1.564475,-0.41808 0.341104,0.0129 0.884774,-0.11349 1.208162,-0.28075 0.3234,-0.16723 0.908734,-0.30404 1.300755,-0.30404 0.392033,0 1.327461,-0.21302 2.078753,-0.47337 1.537181,-0.53271 2.97635,-0.53321 4.004758,-0.001 0.320553,0.16577 1.253085,0.38544 2.072273,0.48816 0.819188,0.10276 1.687806,0.31673 1.93025,0.4756 0.667277,0.43721 1.696734,1.93764 2.084122,3.03757 0.189943,0.53932 0.477247,1.23695 0.63846,1.5503 0.419689,0.81571 0.662383,2.28702 0.661196,4.00854 -0.0012,1.768993 -0.228847,2.693943 -0.909745,3.696643 -0.276155,0.40667 -0.801896,1.36787 -1.168309,2.13599 -0.504627,1.0579 -0.843235,1.51374 -1.396231,1.8797 -0.401522,0.26571 -0.997944,0.87901 -1.325389,1.3629 -0.327433,0.48388 -0.961099,1.27691 -1.408143,1.76229 -0.759195,0.82429 -0.795291,0.90923 -0.547341,1.28775 0.146006,0.22289 0.664156,1.02614 1.151453,1.785 0.487286,0.75885 1.513084,2.04701 2.279533,2.86257 0.766462,0.81555 1.626116,1.94402 1.910336,2.50768 0.284233,0.56366 0.718854,1.21468 0.965818,1.44668 0.246976,0.23202 0.449042,0.49366 0.449042,0.58142 0,0.0878 0.258925,0.71338 0.575396,1.39026 0.316458,0.67688 0.585509,1.47162 0.597882,1.76608 0.01973,0.46915 -0.100134,0.59937 -0.969202,1.05269 -0.547203,0.28545 -1.742805,1.25111 -2.667496,2.15449 -1.814871,1.77306 -2.069301,1.94898 -3.083051,2.13178 -0.36926,0.0666 -0.772617,0.24306 -0.896361,0.39215 -0.307806,0.37089 -0.681922,0.34011 -0.90374,-0.0744 z m -5.32946,-22.95052 0.661458,-0.10563 0.478371,-2.05065 c 0.680636,-2.91766 0.814693,-4.310923 0.42904,-4.458913 -0.314061,-0.12049 -0.75028,-1.42575 -0.947389,-2.83474 -0.06368,-0.45531 -0.212854,-0.95562 -0.331441,-1.11179 -0.3241,-0.42676 -1.722916,-1.09581 -2.290908,-1.09572 l -0.500245,9e-5 -0.03658,2.06953 c -0.0201,1.13824 -0.167544,2.60762 -0.327583,3.2653 -0.16004,0.657673 -0.399987,2.191713 -0.533195,3.408953 -0.13322,1.21725 -0.337484,2.39119 -0.453924,2.60876 -0.184536,0.34481 -0.158628,0.40722 0.201866,0.48626 0.443461,0.0973 2.565015,-0.009 3.650544,-0.1815 z m 5.98796,-2.87312 c 0.218546,-0.24665 0.456108,-0.9343 0.587856,-1.70168 0.121609,-0.70826 0.289264,-1.62998 0.372568,-2.048263 l 0.151474,-0.76051 -1.09091,-0.94117 c -0.600005,-0.51765 -1.249415,-0.94117 -1.443128,-0.94117 -0.50916,0 -0.454847,0.7913 0.138914,2.02362 0.401622,0.83353 0.502218,1.344053 0.570964,2.897453 0.04595,1.0371 0.142409,1.88564 0.214476,1.88564 0.07204,0 0.296082,-0.18626 0.497786,-0.41392 z m 14.95147,72.91529 c -0.636013,-0.27189 -0.809399,-0.5854 -0.809399,-1.46349 0,-0.80452 0.641619,-1.39677 1.513233,-1.39677 0.905239,0 1.700979,0.89976 1.534035,1.73453 -0.212854,1.06421 -1.209286,1.56546 -2.237869,1.12573 z m 1.431191,-17.98411 c -1.059459,-0.28187 -1.191831,-0.88605 -1.281464,-5.84819 -0.06155,-3.41 0.0062,-5.31252 0.323375,-9.00683 0.220819,-2.576 0.479781,-4.82997 0.57552,-5.00884 0.449204,-0.83937 1.715974,-0.94067 2.459924,-0.19674 0.487011,0.48704 0.500682,0.55355 0.387488,1.88566 -0.698091,8.21505 -0.836568,12.79709 -0.47169,15.60733 0.140299,1.08039 0.121983,1.45182 -0.09202,1.8657 -0.332077,0.64216 -1.083257,0.91951 -1.901084,0.70191 z"
     id="path661"
     inkscape:connector-curvature="0"
     sodipodi:nodetypes="scsccccsccscssccsscccccscsssscccccccccscsccsccccsccssscccccccscscsccscccsccccscccccccccccccssscscccccsscsccscccsccscssccscssccssccccsccsccccsccscscsccccccsccscscccccssscccsccccssscscssccccscccccccscccsccccscccccsssccccsccsccscscsscscsscscccccccccscccccssccsssscccscscccscccsscscsccccsccsccccccccccccccccccccccscscccccccssccccssccccccscccssscccccccccccccsccsccccccsssccsccccccccccsccccscccccccccccscccsccccccccssccccscccccsccsccccccccccccsccccccccccccscccccccccccscsccssssccsssscsccscscsccsccsccccsccccsscccsccccscccccscscscccsccccssccsccsccsscccsccccccc" />
  <rect
     style="opacity:1;fill:none;fill-opacity:1;stroke:#000000;stroke-width:0.88586074;stroke-miterlimit:4;stroke-dasharray:none;stroke-opacity:1"
     id="rect1569"
     width="188.09052"
     height="93.602325"
     x="42.084026"
     y="86.793274" />
  <text
     xml:space="preserve"
     style="font-style:normal;font-weight:normal;font-size:13.33333302px;line-height:1.25;font-family:sans-serif;letter-spacing:0px;word-spacing:0px;fill:#000000;fill-opacity:1;stroke:none"
     x="96.382713"
     y="195.59163"
     id="text1573"><tspan
       sodipodi:role="line"
       id="tspan1571"
       x="96.382713"
       y="195.59163">50.00mm</tspan></text>
  <text
     xml:space="preserve"
     style="font-style:normal;font-weight:normal;font-size:13.33333302px;line-height:1.25;font-family:sans-serif;letter-spacing:0px;word-spacing:0px;fill:#000000;fill-opacity:1;stroke:none"
     x="-162.45679"
     y="37.325279"
     id="text1577"
     transform="rotate(-90)"><tspan
       sodipodi:role="line"
       id="tspan1575"
       x="-162.45679"
       y="37.325279">25.00mm</tspan></text>
</svg>
