<?xml version="1.0" encoding="UTF-8" standalone="no"?>
<svg
   xmlns:dc="http://purl.org/dc/elements/1.1/"
   xmlns:cc="http://creativecommons.org/ns#"
   xmlns:rdf="http://www.w3.org/1999/02/22-rdf-syntax-ns#"
   xmlns:svg="http://www.w3.org/2000/svg"
   xmlns="http://www.w3.org/2000/svg"
   xmlns:sodipodi="http://sodipodi.sourceforge.net/DTD/sodipodi-0.dtd"
   xmlns:inkscape="http://www.inkscape.org/namespaces/inkscape"
   version="1.1"
   width="841.88977"
   height="595.27557"
   id="svg63"
   viewBox="0 0 841.88977 595.27557"
   sodipodi:docname="logo-edit_peter_circle.svg"
   inkscape:version="0.92.2 5c3e80d, 2017-08-06">
  <sodipodi:namedview
     pagecolor="#ffffff"
     bordercolor="#666666"
     borderopacity="1"
     objecttolerance="10"
     gridtolerance="10"
     guidetolerance="10"
     inkscape:pageopacity="0"
     inkscape:pageshadow="2"
     inkscape:window-width="1103"
     inkscape:window-height="705"
     id="namedview6072"
     showgrid="false"
     inkscape:zoom="0.51495175"
     inkscape:cx="311.81103"
     inkscape:cy="250.81141"
     inkscape:window-x="0"
     inkscape:window-y="0"
     inkscape:window-maximized="0"
     inkscape:current-layer="svg63" />
  <metadata
     id="metadata69">
    <rdf:RDF>
      <cc:Work
         rdf:about="">
        <dc:format>image/svg+xml</dc:format>
        <dc:type
           rdf:resource="http://purl.org/dc/dcmitype/StillImage" />
        <dc:title></dc:title>
      </cc:Work>
    </rdf:RDF>
  </metadata>
  <defs
     id="defs67">
    <marker
       orient="auto"
       refY="0.0"
       refX="0.0"
       id="marker5581"
       style="overflow:visible;">
      <path
         id="path5579"
         d="M 0.0,0.0 L 5.0,-5.0 L -12.5,0.0 L 5.0,5.0 L 0.0,0.0 z "
         style="fill-rule:evenodd;stroke:#000000;stroke-width:1pt;stroke-opacity:1;fill:#000000;fill-opacity:1"
         transform="scale(0.8) rotate(180) translate(12.5,0)" />
    </marker>
    <marker
       style="overflow:visible"
       id="marker5547"
       refX="0.0"
       refY="0.0"
       orient="auto">
      <path
         transform="scale(0.8) translate(12.5,0)"
         style="fill-rule:evenodd;stroke:#000000;stroke-width:1pt;stroke-opacity:1;fill:#000000;fill-opacity:1"
         d="M 0.0,0.0 L 5.0,-5.0 L -12.5,0.0 L 5.0,5.0 L 0.0,0.0 z "
         id="path5545" />
    </marker>
    <marker
       orient="auto"
       refY="0.0"
       refX="0.0"
       id="Arrow1Lend"
       style="overflow:visible;">
      <path
         id="path4598"
         d="M 0.0,0.0 L 5.0,-5.0 L -12.5,0.0 L 5.0,5.0 L 0.0,0.0 z "
         style="fill-rule:evenodd;stroke:#000000;stroke-width:1pt;stroke-opacity:1;fill:#000000;fill-opacity:1"
         transform="scale(0.8) rotate(180) translate(12.5,0)" />
    </marker>
    <marker
       orient="auto"
       refY="0.0"
       refX="0.0"
       id="Arrow1Lstart"
       style="overflow:visible">
      <path
         id="path4595"
         d="M 0.0,0.0 L 5.0,-5.0 L -12.5,0.0 L 5.0,5.0 L 0.0,0.0 z "
         style="fill-rule:evenodd;stroke:#000000;stroke-width:1pt;stroke-opacity:1;fill:#000000;fill-opacity:1"
         transform="scale(0.8) translate(12.5,0)" />
    </marker>
  </defs>
  <path
     style="fill:#000000;stroke-width:0.12125072"
     d="m 296.80994,462.28659 c -16.587,-0.0253 -20.05153,-0.0593 -20.14969,-0.19702 -0.0822,-0.11545 -0.56894,-0.1899 -1.58929,-0.24329 -0.80892,-0.0423 -1.51886,-0.12719 -1.57764,-0.18873 -0.0635,-0.0665 0.15956,-1.32504 0.54913,-3.09913 0.82796,-3.77033 1.292,-6.54703 1.67275,-10.00917 0.39349,-3.57805 0.66453,-5.23253 1.30211,-7.94838 1.95261,-8.31744 6.43311,-17.79987 15.52474,-32.85612 1.02234,-1.69303 1.91875,-3.22367 1.99202,-3.40141 0.0733,-0.1777 0.30865,-0.50722 0.52303,-0.73222 0.21438,-0.22501 0.38979,-0.50798 0.38979,-0.62883 0,-0.12079 0.12986,-0.33795 0.28869,-0.48242 0.15877,-0.14447 0.65813,-0.83827 1.10964,-1.54182 1.97124,-3.07134 8.37568,-11.76592 15.42368,-20.93888 2.12285,-2.76291 4.1134,-5.35355 4.42341,-5.75701 0.31001,-0.40344 0.56297,-0.79416 0.56214,-0.86825 -8.9e-4,-0.0741 -0.14021,-0.58124 -0.30972,-1.12702 -0.26476,-0.85238 -0.31677,-1.28084 -0.3689,-3.03893 -0.0701,-2.36603 0.11117,-5.00249 0.46057,-6.69469 0.13416,-0.64983 0.68634,-2.6049 1.22705,-4.34446 1.42839,-4.59553 1.53835,-5.22608 2.19603,-12.58974 0.87725,-9.82258 1.63756,-14.05291 3.14992,-17.52573 0.98697,-2.26647 3.12795,-4.96971 4.87005,-6.14895 1.72607,-1.16839 3.05223,-1.5511 5.72597,-1.65217 3.03774,-0.11496 5.3874,0.36928 7.89618,1.62711 2.62164,1.31436 4.33732,2.70402 7.95591,6.44408 1.44995,1.49865 2.65529,2.70109 2.67853,2.67212 0.0862,-0.10748 0.56366,-3.31957 0.67157,-4.51801 0.14889,-1.65361 0.14573,-7.9831 -0.006,-10.23303 -0.16357,-2.43974 -0.41274,-4.54227 -0.89668,-7.56626 -0.5666,-3.54029 -1.17117,-6.30726 -3.60621,-16.50419 -4.01842,-16.82744 -4.8407,-21.12525 -5.445,-28.45894 -0.99908,-12.12471 1.01116,-22.27568 12.73608,-64.3128 2.19452,-7.86807 2.90211,-10.58358 3.40979,-13.08589 0.34559,-1.70347 0.37769,-2.05426 0.38016,-4.1552 0.002,-2.27563 -4.9e-4,-2.30443 -0.38548,-3.46117 -0.62283,-1.87178 -1.33464,-3.17245 -4.1134,-7.51604 -5.95636,-9.31079 -12.13183,-17.94445 -33.09305,-46.26559 -1.32981,-1.79672 -1.81341,-2.6907 -1.62495,-3.0038 0.20241,-0.3362 0.54264,-0.38164 2.95197,-0.39407 9.38006,-0.0489 22.11482,3.19653 33.78037,8.60813 6.9606,3.22889 22.34649,11.83925 40.36123,22.58727 l 6.10674,3.64342 2.24946,-0.30288 c 3.25981,-0.4389 5.93798,-0.56299 12.14651,-0.5629 7.60171,1.8e-4 11.58366,0.20963 15.58638,0.81964 19.24412,2.93303 34.26428,10.16227 45.97274,22.12687 3.52988,3.60706 6.77253,7.62029 10.52323,13.02382 11.04987,15.91925 17.847,32.12253 20.65679,49.24245 1.16324,7.08754 1.64566,13.50406 1.65061,21.9544 0.003,6.57317 -0.25497,10.75495 -1.05942,17.11708 -0.57721,4.56458 -2.09112,13.52938 -3.25365,19.26655 -0.99069,4.88915 -2.54054,13.87352 -3.12756,18.13033 -0.94233,6.83328 -1.16948,10.92795 -0.76723,13.83004 0.21629,1.56071 0.23005,1.57396 2.45584,2.37351 2.36892,0.85102 4.15487,1.99071 5.28107,3.37025 0.51726,0.63356 0.97018,1.53989 1.67589,3.3536 0.6136,1.57696 1.98893,3.75596 3.79127,6.0067 2.85597,3.56652 8.90933,9.76196 12.11935,12.40394 2.49445,2.05302 3.75881,3.32134 4.62626,4.64067 1.21944,1.85479 2.77722,5.6529 3.76795,9.18695 0.23003,0.82054 0.51799,1.69336 0.63991,1.93957 0.27197,0.5492 1.17646,1.46808 2.96636,3.01354 2.02884,1.75178 4.35867,4.03794 8.69405,8.53115 3.93771,4.08108 7.70795,8.19381 9.38471,10.23723 2.68964,3.27782 6.55067,9.14273 9.26797,14.07813 7.92149,14.3877 13.1671,32.5298 14.30878,49.48737 0.0941,1.39678 0.16075,2.54894 0.14823,2.56036 -0.0409,0.0373 -266.26333,0.11036 -286.85961,0.0788 z m 66.25363,-8.56225 c 10.91511,-20.07084 15.32603,-28.36454 22.1138,-41.57976 2.46216,-4.79365 5.75845,-11.55728 9.76586,-20.03847 l 3.34375,-7.07668 1.19548,-0.20535 c 2.32355,-0.39915 3.78991,-1.14097 5.18763,-2.62439 2.20652,-2.34184 2.40852,-4.08818 1.95946,-16.94086 -0.10046,-2.87819 0.0203,-6.26612 0.23173,-6.49449 0.0543,-0.0587 1.1836,-0.21123 2.50958,-0.33915 6.75104,-0.65091 16.48252,-2.71879 32.33911,-6.87169 5.8739,-1.5384 6.83762,-1.89577 11.79349,-4.37311 14.10006,-7.04831 31.484,-12.29733 49.0204,-14.80161 l 1.01672,-0.14526 -0.007,-4.54254 c -0.007,-4.99984 0.0692,-6.05675 0.82604,-11.5505 0.52245,-3.79206 1.4022,-8.83253 2.71691,-15.56661 0.55938,-2.86518 1.3052,-6.68863 1.65736,-8.49647 1.4644,-7.5178 2.37012,-14.3613 2.93019,-22.14047 0.23483,-3.26143 0.19749,-13.84551 -0.0602,-17.05502 -0.91293,-11.37236 -2.94409,-20.99811 -6.66284,-31.57491 -1.05086,-2.98886 -2.35299,-6.12814 -2.48446,-5.98964 -0.0871,0.0917 -0.30259,3.53186 -0.42226,6.74145 -0.21556,5.78197 -0.32588,23.36211 -0.21912,34.91626 0.11221,12.14995 0.0542,14.51999 -0.43098,17.61117 -1.47491,9.39597 -3.67655,14.32389 -9.19977,20.59202 -0.75141,0.85282 -1.92061,2.10166 -2.59822,2.77534 -7.51172,7.4681 -18.28771,13.43925 -29.80198,16.51362 -5.07644,1.35545 -6.84182,1.54666 -14.28259,1.54764 -8.04303,0 -9.46015,-0.15877 -13.33435,-1.50417 -5.55529,-1.92909 -9.88855,-4.89012 -14.70351,-10.04731 -5.29956,-5.67617 -8.22845,-10.35562 -17.53449,-28.01454 -6.48694,-12.30952 -10.08755,-18.64479 -13.42735,-23.62534 -5.1921,-7.7428 -8.92981,-10.9524 -13.51468,-11.6049 -7.35031,-1.04625 -14.56622,5.47347 -24.44025,22.08241 -2.275,3.82672 -3.31968,5.8217 -3.31968,6.33954 0,1.1947 1.10782,6.33794 4.03129,18.71573 2.49142,10.54854 3.40335,14.69663 4.07673,18.54355 0.90994,5.19842 1.11434,7.3566 1.21587,12.83765 0.0885,4.78284 -0.0709,7.80842 -0.55803,10.59058 -0.18974,1.0835 -0.30831,2.03232 -0.26351,2.1086 0.0449,0.0765 0.6368,0.92001 1.31554,1.87513 1.36441,1.91987 5.71677,8.71536 6.18333,9.65422 l 0.29632,0.59624 -0.35559,0.30243 c -0.19556,0.16633 -1.15453,0.87406 -2.13102,1.5727 -4.51561,3.23085 -6.9694,6.87044 -8.30288,12.31513 -1.51402,6.18185 -1.2379,13.16164 0.61232,15.47747 0.59617,0.74623 0.38717,0.86681 -2.59984,1.49985 -10.18369,2.15831 -22.52951,3.16353 -25.97605,2.11504 -0.34176,-0.10392 -0.71211,-0.15263 -0.82299,-0.10806 -0.43213,0.17352 -0.87986,1.30875 -3.55923,9.02446 -4.06618,11.70926 -4.56192,13.79051 -5.86873,24.63913 -1.4642,12.15523 -5.22236,48.27809 -5.22236,50.19642 0,0.28008 0.006,0.28087 2.16311,0.31756 1.18972,0.0203 12.72395,0.0478 25.6316,0.0613 l 23.46847,0.0247 z m -29.62858,-15.32849 c -0.70474,-0.34495 -1.51227,-1.2252 -1.86867,-2.03693 -0.21071,-0.47991 -0.25773,-0.82014 -0.26093,-1.88779 -0.003,-1.17519 0.0281,-1.37037 0.32291,-1.99846 0.39203,-0.83498 1.41042,-1.88109 2.19181,-2.25148 0.77647,-0.36808 1.81153,-0.3614 2.50096,0.016 0.75472,0.41328 1.50517,1.18906 1.84932,1.91181 0.27074,0.56855 0.30201,0.78116 0.30201,2.05291 0,0.78028 -0.0644,1.64387 -0.14327,1.91911 -0.19123,0.66799 -1.25099,1.84842 -2.01896,2.24892 -0.83131,0.4335 -2.02048,0.44418 -2.87518,0.0259 z m 15.98038,-40.59453 c -0.71192,-0.26399 -1.5126,-1.05636 -1.89857,-1.8789 -0.29358,-0.62564 -0.33261,-0.84704 -0.33261,-1.88715 0,-1.03565 0.0396,-1.26283 0.32739,-1.87597 0.40399,-0.86088 1.29829,-1.75506 2.19511,-2.19477 0.90874,-0.44561 2.31615,-0.47156 3.0635,-0.0565 1.19293,0.66254 1.87475,2.01703 1.85899,3.69313 -0.0189,2.00431 -1.15105,3.83101 -2.65416,4.28213 -0.58562,0.17574 -1.98552,0.13092 -2.55965,-0.0819 z m 43.80148,-13.56556 c -2.52019,-0.30379 -4.67912,-1.22874 -7.39265,-3.16719 -5.66782,-4.0489 -6.02727,-4.20539 -9.98426,-4.34675 -3.79778,-0.1357 -5.59111,-0.75761 -6.15359,-2.13397 -1.20629,-2.95183 1.02101,-14.46888 4.59185,-23.74358 1.92167,-4.99122 4.33639,-8.81448 8.16234,-12.92346 3.08842,-3.3169 5.25809,-5.04401 8.61958,-6.86181 l 1.97119,-1.0659 5.70086,0.0809 c 3.13547,0.0444 6.07423,0.13807 6.53056,0.20794 1.12607,0.17229 2.16773,0.54156 3.42249,1.2132 1.33837,0.71644 2.19876,1.57733 2.71394,2.7156 0.3546,0.78346 0.38198,0.93599 0.37427,2.08564 -0.007,1.07594 -0.0884,1.56097 -0.61258,3.65906 -0.33233,1.33028 -1.02957,3.86993 -1.54942,5.64364 -1.76809,6.03275 -2.4049,8.64229 -2.89067,11.84547 -0.26539,1.75007 -0.27291,2.03596 -0.27939,10.60508 -0.007,9.19296 -0.0507,10.14626 -0.53142,11.57863 -0.32626,0.97219 -0.84927,1.75435 -1.81052,2.70768 -0.95466,0.94678 -1.95288,1.55211 -2.92592,1.77431 -0.80762,0.18442 -6.69723,0.27734 -7.95666,0.12545 z m -28.43131,-7.7051 c -0.68449,-0.0578 -2.01793,-0.21597 -2.9632,-0.35155 -0.94524,-0.13559 -3.21209,-0.44092 -5.03741,-0.67853 -1.82533,-0.23759 -3.59921,-0.52043 -3.94195,-0.62855 -1.44093,-0.45457 -2.27216,-2.19499 -2.64428,-5.53666 -0.1744,-1.56613 -0.0806,-5.31642 0.1789,-7.15306 0.79019,-5.59253 2.27447,-8.92952 5.56964,-12.52172 1.5843,-1.72721 3.15272,-2.98291 4.87113,-3.90008 2.15359,-1.14945 2.52882,-1.23658 5.62656,-1.30715 2.92151,-0.0667 6.5428,0.11013 8.51502,0.41558 0.69492,0.1076 1.2738,0.20571 1.28641,0.21807 0.012,0.012 -0.35296,0.88615 -0.81232,1.94182 -1.97878,4.54716 -3.39716,8.77971 -4.65431,13.88872 -1.15206,4.68194 -1.63996,7.95251 -1.64682,11.03925 -0.006,2.41991 0.045,2.59406 1.11655,3.85887 l 0.72393,0.85452 -2.47166,-0.0173 c -1.35942,-0.009 -3.03169,-0.0646 -3.71619,-0.12226 z m 87.65118,-61.01211 c 2.1036,-0.1803 4.06216,-0.55599 7.11165,-1.36433 10.34815,-2.74279 19.90766,-7.698 27.3664,-14.18557 1.40671,-1.2235 4.97752,-4.78441 4.88979,-4.87625 -0.0256,-0.0267 -0.37141,0.15085 -0.76872,0.39452 -1.09641,0.67253 -2.89886,1.38211 -4.28537,1.68721 -1.69201,0.37231 -4.43789,0.37622 -6.4005,0.009 -7.50493,-1.40362 -16.8698,-7.07882 -27.6762,-16.77178 -12.21807,-10.95934 -25.80326,-26.38716 -39.36884,-44.70863 -7.52056,-10.15711 -13.48999,-17.27548 -21.48183,-25.61613 -8.88322,-9.27097 -14.96928,-14.27774 -19.09621,-15.70982 -0.44718,-0.1552 -1.00551,-0.22623 -1.77792,-0.22623 -1.07532,0 -1.16361,0.0214 -1.96158,0.46743 -0.99746,0.55801 -2.62511,2.04118 -3.60316,3.28345 -3.32923,4.22838 -6.83772,12.23006 -9.02062,20.57292 -1.54785,5.91586 -4.85059,14.53306 -9.47054,24.70991 -1.79477,3.9535 -2.05337,4.90871 -2.44089,9.01529 -0.42168,4.46885 -0.35328,9.47989 0.19049,13.95406 0.37629,3.09616 0.26505,2.94211 1.05466,1.45999 2.52432,-4.73848 7.14618,-12.02461 9.99084,-15.75018 4.11781,-5.39276 7.73356,-8.66263 11.18052,-10.11096 1.84624,-0.77582 2.64696,-0.93886 4.61366,-0.9393 1.54719,-3.6e-4 1.93174,0.0427 2.96318,0.3283 2.43889,0.67651 4.64323,2.13499 7.05241,4.66584 4.49274,4.71981 9.35736,12.63782 18.78714,30.57934 9.31687,17.72665 12.2676,22.3917 17.89305,28.28862 4.82498,5.0577 8.88918,7.75924 14.53586,9.66194 2.02439,0.6822 3.6222,1.03477 5.30344,1.17025 1.82008,0.14668 12.73843,0.15496 14.41929,0.0104 z m 18.71775,-101.89204 c 1.61737,-0.26786 2.7263,-0.54237 2.9819,-0.73795 0.19774,-0.15131 0.20302,-0.2322 0.0659,-1.01059 -0.32982,-1.87318 -3.55114,-12.4819 -4.9309,-16.23884 -1.42705,-3.88568 -2.81538,-6.43164 -4.40653,-8.08107 -0.88558,-0.91796 -2.87173,-2.37724 -3.59788,-2.6434 -1.11703,-0.40956 -6.62126,-0.25673 -8.88957,0.24669 -3.30702,0.73394 -9.78035,3.02264 -10.76981,3.80771 -0.36587,0.29025 -0.39334,0.35818 -0.33432,0.8264 0.15216,1.20716 2.89271,5.97764 5.17987,9.01654 2.77515,3.68734 11.75719,11.89713 14.7356,13.46868 1.12088,0.59143 3.07669,1.25738 4.31547,1.46939 1.26702,0.21683 3.95015,0.15816 5.6502,-0.12359 z m -6.39089,-3.22453 c -2.24398,-0.51703 -6.12402,-2.89988 -9.42294,-5.78703 -1.91618,-1.67708 -6.07637,-5.98199 -7.10257,-7.34978 -0.40388,-0.53819 -0.95054,-1.42868 -1.21484,-1.9788 l -0.48054,-1.00011 0.33941,-0.28998 c 0.80457,-0.68738 2.11079,-1.51369 3.80483,-2.40702 4.08197,-2.1526 6.05098,-2.653 8.42172,-2.1406 4.38167,0.94714 7.95177,5.49652 9.14078,11.64812 0.32871,1.70055 0.49511,4.53854 0.36886,6.29038 -0.15183,2.10681 -0.43289,2.63744 -1.59456,3.01064 -0.69742,0.22393 -1.30108,0.22509 -2.26015,0.009 z m -53.74742,-20.10939 c 0.80613,-0.25052 1.48122,-0.91957 1.60078,-1.58658 0.13067,-0.72914 -0.10852,-1.31802 -0.90494,-2.22762 -1.24337,-1.41998 -3.6,-3.15795 -8.34571,-6.15499 -8.80065,-5.55776 -10.97976,-7.17324 -15.23081,-11.29154 -2.65779,-2.57486 -6.26902,-5.90002 -8.89723,-8.19255 -12.66716,-11.04913 -28.41371,-22.43658 -42.01037,-30.38066 -2.62739,-1.5351 -9.22829,-5.10597 -9.00811,-4.87314 0.14755,0.15602 2.10491,1.57243 5.27448,3.81686 25.61202,18.13594 44.98657,34.90399 52.78771,45.68589 3.61499,4.99628 6.85189,8.11572 11.59647,11.17562 1.98761,1.28182 3.2483,1.9619 4.84217,2.61183 1.28086,0.52238 3.25625,1.15124 4.26077,1.35633 0.35854,0.0728 0.75859,0.15514 0.88896,0.18197 0.65867,0.13576 2.55372,0.0622 3.14583,-0.12146 z"
     id="path3762"
     inkscape:connector-curvature="0" />
  <rect
     style="fill:none;fill-opacity:1;stroke:#000000;stroke-width:0.1;stroke-miterlimit:4;stroke-dasharray:none;stroke-opacity:1"
     id="rect4573"
     width="519.05463"
     height="112.37264"
     x="-1696.2919"
     y="-1523.7515" />
  <path
     style="fill:none;fill-opacity:1;stroke:#000000;stroke-width:0.1;stroke-miterlimit:4;stroke-dasharray:none;stroke-opacity:1"
     id="path4575"
     d="m -792.78586,-1619.6346 c 27.98943,12.0635 55.5587,25.0918 83.49709,37.2772 35.83782,14.7979 71.04377,30.7844 107.736,43.3776 24.57053,8.2178 49.90207,14.7591 75.2771,20.1407 3.27092,0.8123 6.50476,1.792 9.81276,2.4368 8.21992,1.6023 16.65911,2.2421 24.8577,4.0541 14.27524,3.155 0.19848,1.0642 13.32607,2.7365 9.37753,1.4348 17.92493,4.88 26.65059,8.352 4.14378,1.4313 8.36321,2.1125 12.7111,2.3601 0,0 -65.09682,46.0068 -65.09682,46.0068 v 0 c -4.6672,-0.9385 -9.18835,-2.42 -13.59016,-4.235 -8.06844,-3.3824 -16.4553,-5.8253 -25.0813,-7.3484 -15.80858,-3.4089 -31.70803,-6.3781 -47.43585,-10.1386 -25.05608,-6.1734 -50.15013,-12.8485 -74.34005,-21.8332 -36.46698,-13.1397 -71.34753,-29.8442 -107.29627,-44.2899 -28.58868,-12.1213 -56.88471,-25.2309 -86.60955,-34.4002 0,0 65.58159,-44.4965 65.58159,-44.4965 z" />
  <path
     style="fill:none;fill-opacity:1;stroke:#000000;stroke-width:0.1;stroke-miterlimit:4;stroke-dasharray:none;stroke-opacity:1"
     id="path4577"
     d="m -1056.2755,-1536.4033 c 39.6249,1.3885 79.30865,-2.5821 118.8528,-5.1094 85.43668,-8.0128 171.0218,-14.2776 256.52401,-21.5184 85.97079,-6.7428 172.14762,-10.9455 258.35757,-12.8702 58.08385,-1.1756 116.17982,-1.8438 174.2755,-1.9079 40.34317,-0.634 80.69189,-0.3484 120.67608,5.4063 25.05374,1.8179 49.671852,6.3657 74.264219,11.2073 6.716527,2.4084 14.500407,1.3314 21.275326,3.2168 7.294855,2.0302 0.50364,1.5044 4.831534,1.7035 0,0 -65.806366,45.1985 -65.806366,45.1985 v 0 c -7.417033,-3.5028 -16.804603,-2.488 -24.442033,-5.534 -23.83212,-5.424 -47.85299,-9.6101 -72.20729,-11.9748 -39.34113,-5.207 -78.94592,-6.1289 -118.60575,-5.6247 -57.1961,-0.1142 -114.39579,-0.7277 -171.58993,0.1474 -85.5222,1.7315 -171.06742,4.0615 -256.29701,11.9047 -86.45178,7.3298 -172.96823,13.9533 -259.22269,23.4312 -41.67267,3.6078 -83.35097,7.7975 -125.17407,9.0317 0,0 64.2881,-46.708 64.2881,-46.708 z" />
  <path
     style="fill:none;fill-opacity:1;stroke:#000000;stroke-width:0.1;stroke-miterlimit:4;stroke-dasharray:none;stroke-opacity:1"
     id="path4579"
     d="m -89.430432,-1511.1467 c -19.096178,-0.5645 -38.205628,-0.4711 -57.308358,-0.6276 -38.7755,0.5905 -77.41957,-3.1976 -115.81617,-8.2302 -58.43635,-7.1719 -116.58165,-16.5149 -175.0904,-23.054 -67.08214,-6.4155 -134.35391,-9.7678 -201.69944,-11.5547 -51.24103,-1.122 -102.50115,-1.0735 -153.75,-0.6123 -27.02821,-0.022 -54.25115,1.4878 -80.45812,8.4413 -12.11962,1.7904 -24.10925,4.0138 -35.77203,7.8349 -2.80485,0.1091 -5.51623,0.7955 -8.24968,1.3514 0,0 63.68567,-48.0926 63.68567,-48.0926 v 0 c 2.54103,-0.4288 5.10243,-0.7495 7.53279,-1.6714 11.49627,-2.607 23.10013,-4.4495 34.69238,-6.5576 26.19634,-5.0869 52.90434,-6.4197 79.55937,-5.6056 50.4479,0.6033 100.89738,1.0979 151.32811,2.6332 67.38818,2.3488 134.73772,5.8521 201.88892,12.1217 59.00008,6.4232 117.69151,15.3112 176.66351,22.0141 39.16964,4.185 78.49296,7.0238 117.915717,5.6232 19.678717,-0.1577 39.3633,-0.075 59.036054,-0.6276 0,0 -64.158323,46.6138 -64.158323,46.6138 z" />
  <ellipse
     r="1.5"
     id="path4583"
     style="fill:#000000;stroke:none"
     cx="615.37402"
     cy="-1352.5168" />
  <ellipse
     r="1.5"
     id="path4585"
     style="fill:#000000;stroke:none"
     cx="593.96967"
     cy="-1363.2191" />
  <path
     style="fill:none;stroke:#000000;stroke-width:1.2727133;stroke-linecap:butt;stroke-linejoin:miter;stroke-miterlimit:4;stroke-dasharray:none;stroke-opacity:1;marker-start:url(#Arrow1Lstart);marker-end:url(#Arrow1Lend)"
     d="M 200.23182,558.86263 H 647.51287"
     id="path4593" />
  <text
     transform="scale(0.97754157,1.0229744)"
     xml:space="preserve"
     style="font-style:normal;font-weight:normal;font-size:22.73203468px;line-height:1.25;font-family:sans-serif;letter-spacing:0px;word-spacing:0px;fill:#000000;fill-opacity:1;stroke:none;stroke-width:0.5683009"
     x="382.84503"
     y="566.63281"
     id="text5535"><tspan
       style="stroke-width:0.5683009"
       id="tspan5533"
       x="382.84503"
       y="566.63281">40mm</tspan></text>
  <path
     style="fill:none;stroke:#000000;stroke-width:1.23762405;stroke-linecap:butt;stroke-linejoin:miter;stroke-miterlimit:4;stroke-dasharray:none;stroke-opacity:1;marker-start:url(#marker5547);marker-end:url(#marker5581)"
     d="M 161.15927,80.44207 V 530.45919"
     id="path5537" />
  <text
     xml:space="preserve"
     style="font-style:normal;font-weight:normal;font-size:22.73203468px;line-height:1.25;font-family:sans-serif;letter-spacing:0px;word-spacing:0px;fill:#000000;fill-opacity:1;stroke:none;stroke-width:0.5683009"
     x="-331.22134"
     y="158.38455"
     id="text5627"
     transform="matrix(0,-1.0229744,0.97754157,0,0,0)"><tspan
       style="stroke-width:0.5683009"
       id="tspan5625"
       x="-331.22134"
       y="158.38455">40mm</tspan></text>
  <circle
     style="fill:none;fill-opacity:1;stroke:#000000;stroke-width:2;stroke-miterlimit:4;stroke-dasharray:none;stroke-opacity:1"
     id="path6080"
     cx="429.16644"
     cy="305.92807"
     r="227.20575" />
</svg>
