<?xml version="1.0" encoding="UTF-8" standalone="no"?>
<svg
   xmlns:dc="http://purl.org/dc/elements/1.1/"
   xmlns:cc="http://creativecommons.org/ns#"
   xmlns:rdf="http://www.w3.org/1999/02/22-rdf-syntax-ns#"
   xmlns:svg="http://www.w3.org/2000/svg"
   xmlns="http://www.w3.org/2000/svg"
   viewBox="0 0 264.56693 151.1811"
   height="40mm"
   width="70mm"
   id="svg944"
   version="1.1">
  <metadata
     id="metadata950">
    <rdf:RDF>
      <cc:Work
         rdf:about="">
        <dc:format>image/svg+xml</dc:format>
        <dc:type
           rdf:resource="http://purl.org/dc/dcmitype/StillImage" />
        <dc:title></dc:title>
      </cc:Work>
    </rdf:RDF>
  </metadata>
  <defs
     id="defs948" />
  <path
     id="path954"
     d="m 182.43388,87.952433 c -0.44759,-0.0269 -0.85855,-0.0729 -1.26242,-0.14141 l -0.21683,-0.0368 v -1.76794 c 0,-1.66736 0.009,-1.76691 0.0607,-1.7502 0.0336,0.01 0.24701,0.0362 0.47468,0.059 0.50411,0.0503 1.27728,0.0239 1.56334,-0.0532 0.70599,-0.19047 1.12378,-0.59617 1.34117,-1.30253 l 0.0804,-0.25991 0.0103,-4.58766 0.0103,-4.58764 h 2.28979 2.28988 l -0.0121,5.16002 c -0.0112,5.0976 -0.0131,5.16463 -0.086,5.5416 -0.18834,0.97226 -0.53615,1.67868 -1.13228,2.29961 -1.07969,1.12466 -2.81651,1.58279 -5.41021,1.42708 z M 36.023187,87.726713 c 0,-0.0112 1.27376,-3.19073 2.83057,-7.06551 1.55682,-3.87478 2.83855,-7.06586 2.84832,-7.09128 0.0146,-0.0381 0.51945,-0.0447 2.86535,-0.0374 l 2.84763,0.009 2.83763,7.09382 c 1.56066,3.9016 2.83757,7.09778 2.83757,7.10261 0,0.005 -1.06227,0.008 -2.36059,0.008 h -2.36064 l -0.0462,-0.11274 c -0.0253,-0.062 -0.24202,-0.67471 -0.48112,-1.36155 -0.2391,-0.68685 -0.44551,-1.27622 -0.45864,-1.30972 -0.0224,-0.0575 -0.18186,-0.0605 -2.83865,-0.052 l -2.81471,0.008 -0.48933,1.40491 -0.4893,1.40491 -2.36389,0.009 c -1.30012,0.005 -2.36385,-3.3e-4 -2.36385,-0.0115 z m 10.14585,-6.18072 c -1.22239,-3.47212 -1.63298,-4.61503 -1.65073,-4.59467 -0.0117,0.0135 -0.12461,0.32096 -0.25098,0.68347 -0.12635,0.3625 -0.5188,1.48548 -0.87205,2.49551 -0.3533,1.01003 -0.64235,1.84126 -0.64235,1.8472 0,0.006 0.80363,0.0108 1.7859,0.0108 h 1.7859 z m 14.99452,6.17494 c -0.009,-0.0145 -0.70702,-2.28335 -1.55446,-5.04199 l -1.54092,-5.0157 -0.009,5.02438 -0.009,5.02437 h -1.94245 -1.94254 v -7.09393 -7.09395 h 3.23991 3.23999 l 0.0663,0.21681 c 0.0364,0.11925 0.6349,2.10083 1.33015,4.40353 0.69516,2.30269 1.27326,4.1681 1.28456,4.14535 0.0112,-0.0228 0.61248,-2.00428 1.33585,-4.40341 l 1.31512,-4.36205 3.25213,-1e-4 3.25205,-1.2e-4 v 7.09394 7.09394 h -1.94263 -1.94254 v -5.0357 c 0,-2.76965 -0.0112,-5.02479 -0.0243,-5.01142 -0.0131,0.0134 -0.71973,2.28333 -1.56969,5.04439 l -1.5454,5.02006 -2.13975,0.009 c -1.17694,0.005 -2.14602,-0.003 -2.15358,-0.0174 z m 13.57282,-7.08554 v -7.11128 h 6.07061 6.07061 v 1.5957 1.59571 h -3.79848 -3.79847 v 1.14474 1.14475 h 3.62499 3.62498 v 1.52632 1.52632 h -3.62498 -3.62499 v 1.24882 1.24881 h 3.86779 3.86789 v 1.5957 1.5957 h -6.14002 -6.13993 z m 14.15317,0 v -7.11128 l 4.24073,7e-5 c 4.23046,7e-5 4.80296,0.0131 5.52427,0.12487 1.785503,0.27686 3.045493,1.05895 3.683663,2.28644 0.59454,1.14375 0.64443,2.75151 0.12276,3.96151 -0.38995,0.90443 -1.18946,1.71291 -2.10453,2.12813 -0.19171,0.087 -0.25925,0.13437 -0.24972,0.17523 0.009,0.0307 0.69469,1.268 1.52774,2.74933 0.83305,1.48133 1.52363,2.71666 1.53456,2.74515 0.0177,0.0457 -0.27382,0.0518 -2.45543,0.0516 l -2.475333,-2.1e-4 -1.30343,-2.47139 -1.30353,-2.47139 -1.08137,-0.009 -1.08146,-0.009 v 2.48078 2.48077 h -2.28941 -2.28951 v -7.11129 z m 7.92645,-0.82883 c 0.36061,-0.12025 0.56231,-0.23315 0.74747,-0.41832 0.29596,-0.29597 0.44936,-0.70496 0.44936,-1.19843 0,-0.67778 -0.27671,-1.15881 -0.80904,-1.40654 -0.46459,-0.21621 -0.48729,-0.21864 -2.18291,-0.23276 l -1.55241,-0.0129 v 1.68664 1.68663 l 1.55241,-0.0117 c 1.51821,-0.0114 1.55763,-0.0135 1.79512,-0.0927 z m 7.753053,0.82883 v -7.11128 h 2.27214 2.27213 v 7.11128 7.11129 h -2.27213 -2.27214 z m 6.86844,0 v -7.11128 h 2.28932 2.28923 l 0.009,2.7642 0.009,2.7642 2.53222,-2.76378 2.53241,-2.76378 2.65152,-4.4e-4 2.65152,-4.3e-4 -0.0878,0.0954 c -0.0486,0.0525 -1.2259,1.32159 -2.61677,2.82027 -1.39097,1.49868 -2.55661,2.75682 -2.59034,2.79588 -0.0598,0.0694 -3.7e-4,0.16396 2.69702,4.27649 1.51719,2.31301 2.7584,4.21201 2.7584,4.22001 0,0.008 -1.16685,0.0143 -2.59294,0.0138 l -2.59304,-4.9e-4 -1.76868,-2.76016 c -0.97272,-1.51809 -1.77896,-2.76653 -1.79157,-2.77432 -0.0131,-0.007 -0.42264,0.40238 -0.91106,0.91151 l -0.88817,0.92568 v 1.8493 1.84928 h -2.28951 -2.28951 v -7.11128 z m 15.68987,6.99855 c 0.0252,-0.062 1.30942,-3.26175 2.8536,-7.11053 l 2.80773,-6.99781 2.84275,0.007 2.84276,0.007 2.83762,7.09382 c 1.56063,3.9016 2.83763,7.09778 2.83763,7.10261 0,0.005 -1.06231,0.008 -2.3607,0.008 h -2.36061 l -0.0467,-0.11274 c -0.0252,-0.062 -0.24196,-0.67471 -0.48103,-1.36155 -0.23916,-0.68684 -0.44544,-1.27613 -0.45861,-1.30951 -0.0224,-0.0571 -0.18947,-0.0607 -2.82669,-0.0607 h -2.80287 l -0.10221,0.28618 c -0.056,0.15741 -0.28017,0.79742 -0.49757,1.42226 l -0.39536,1.13607 -2.36799,10e-6 h -2.36798 z m 10.25763,-5.66588 c 0,-0.0306 -1.73776,-4.95049 -1.76803,-5.00568 -0.0168,-0.0314 -0.057,0.0406 -0.11472,0.20813 -0.39658,1.15009 -1.46057,4.19168 -1.63378,4.67034 l -0.0533,0.14743 h 1.78494 c 0.98178,0 1.78493,-0.009 1.78493,-0.0203 z m 7.8745,-1.33267 v -7.11128 h 2.28951 2.28942 v 5.30745 5.30745 h 3.43422 3.43431 v 1.80383 1.80384 h -5.72373 -5.72373 z m 12.90429,0 v -7.11128 h 2.27223 2.27213 v 7.11128 7.11129 h -2.27213 -2.27223 z m 6.86853,0 v -7.11128 h 2.42124 2.42133 l 2.82548,4.13372 2.82538,4.13372 0.009,-4.13372 0.009,-4.13372 h 2.09856 2.09855 v 7.11128 7.11129 h -2.30324 -2.30324 l -2.44049,-3.40566 c -1.34229,-1.8731 -2.46084,-3.44248 -2.48569,-3.48749 -0.0804,-0.1457 -0.94675,-1.34516 -0.98038,-1.3571 -0.0196,-0.007 -0.0327,1.56393 -0.0327,4.11934 v 4.13091 h -2.08136 -2.08137 z m 25.98216,0 v -7.11128 h 6.08799 6.08789 v 1.5957 1.59571 h -3.79838 -3.79847 v 1.14474 1.14475 h 3.62498 3.62499 v 1.52632 1.52632 h -3.62499 -3.62498 v 1.24882 1.24881 h 3.8505 3.85051 v 1.5957 1.5957 h -6.14002 -6.14002 z m 14.18792,0 v -7.11128 h 2.42002 2.42012 l 2.82669,4.1364 2.8266,4.13638 0.009,-4.13638 0.009,-4.1364 h 2.09856 2.09855 v 7.11128 7.11129 h -2.30464 -2.30465 l -2.45646,-3.43643 c -1.35098,-1.89004 -2.67497,-3.74739 -2.94206,-4.12745 -0.2671,-0.38005 -0.49739,-0.69126 -0.51168,-0.69157 -0.0149,-3.3e-4 -0.0262,1.85703 -0.0262,4.12744 v 4.12801 h -2.08136 -2.08137 z"
     style="fill:#000000;stroke-width:0.03468919" />
  <rect
     y="29.986973"
     x="33.914997"
     height="94.114067"
     width="188.60226"
     id="rect956"
     style="opacity:1;fill:none;fill-opacity:1;stroke:#000000;stroke-width:0.37412044;stroke-miterlimit:4;stroke-dasharray:none;stroke-opacity:1" />
  <text
     id="text960"
     y="139.66505"
     x="97.886421"
     style="font-style:normal;font-weight:normal;font-size:13.33333302px;line-height:1.25;font-family:sans-serif;letter-spacing:0px;word-spacing:0px;fill:#000000;fill-opacity:1;stroke:none"
     xml:space="preserve"><tspan
       y="139.66505"
       x="97.886421"
       id="tspan958">50.00mm</tspan></text>
  <text
     transform="rotate(-90)"
     id="text964"
     y="30.390709"
     x="-108.52651"
     style="font-style:normal;font-weight:normal;font-size:13.33333302px;line-height:1.25;font-family:sans-serif;letter-spacing:0px;word-spacing:0px;fill:#000000;fill-opacity:1;stroke:none"
     xml:space="preserve"><tspan
       y="30.390709"
       x="-108.52651"
       id="tspan962">25.00mm</tspan></text>
</svg>
