<?xml version="1.0" encoding="UTF-8" standalone="no"?>
<!-- Created with Inkscape (http://www.inkscape.org/) -->

<svg
   xmlns:dc="http://purl.org/dc/elements/1.1/"
   xmlns:cc="http://creativecommons.org/ns#"
   xmlns:rdf="http://www.w3.org/1999/02/22-rdf-syntax-ns#"
   xmlns:svg="http://www.w3.org/2000/svg"
   xmlns="http://www.w3.org/2000/svg"
   xmlns:sodipodi="http://sodipodi.sourceforge.net/DTD/sodipodi-0.dtd"
   xmlns:inkscape="http://www.inkscape.org/namespaces/inkscape"
   width="210mm"
   height="297mm"
   viewBox="0 0 210 297"
   version="1.1"
   id="svg105"
   inkscape:version="0.92.2 5c3e80d, 2017-08-06"
   sodipodi:docname="50x25mm_logo.svg">
  <defs
     id="defs99" />
  <sodipodi:namedview
     id="base"
     pagecolor="#ffffff"
     bordercolor="#666666"
     borderopacity="1.0"
     inkscape:pageopacity="0.0"
     inkscape:pageshadow="2"
     inkscape:zoom="1.4"
     inkscape:cx="327.35338"
     inkscape:cy="577.54648"
     inkscape:document-units="mm"
     inkscape:current-layer="layer1"
     showgrid="false"
     inkscape:window-width="1440"
     inkscape:window-height="805"
     inkscape:window-x="0"
     inkscape:window-y="1"
     inkscape:window-maximized="1" />
  <metadata
     id="metadata102">
    <rdf:RDF>
      <cc:Work
         rdf:about="">
        <dc:format>image/svg+xml</dc:format>
        <dc:type
           rdf:resource="http://purl.org/dc/dcmitype/StillImage" />
        <dc:title></dc:title>
      </cc:Work>
    </rdf:RDF>
  </metadata>
  <g
     inkscape:label="Layer 1"
     inkscape:groupmode="layer"
     id="layer1">
    <path
       style="fill:#000000;stroke-width:0.08466666"
       d="m 55.151378,148.37926 c -1.097137,-0.16885 -2.02824,-0.6413 -2.795844,-1.41863 -0.896782,-0.90814 -1.285216,-1.81426 -1.365073,-3.18438 -0.166349,-2.85405 1.714423,-5.02748 4.513514,-5.21582 2.419683,-0.16281 4.467057,1.27871 5.062393,3.56437 0.166571,0.63951 0.166823,1.95316 5.29e-4,2.65872 -0.391101,1.65918 -1.693633,2.99886 -3.345001,3.4404 -0.495268,0.13243 -1.654358,0.21939 -2.070494,0.15534 z m 1.83814,-2.59449 c 0.702347,-0.4116 1.070456,-1.0869 1.143312,-2.0974 0.08493,-1.17789 -0.356777,-2.09251 -1.240854,-2.5694 -0.969197,-0.52281 -2.269521,-0.22414 -2.86128,0.6572 -0.354926,0.52861 -0.479735,0.97321 -0.478566,1.70475 0.0013,0.85839 0.217223,1.4234 0.74435,1.94841 0.525103,0.52299 0.831998,0.63379 1.669121,0.60259 0.5152,-0.0192 0.721114,-0.0687 1.023917,-0.24615 z m 58.154292,2.52254 c -2.39793,-0.54592 -3.8495,-2.55962 -3.70181,-5.13532 0.12632,-2.20282 1.37572,-3.83615 3.39938,-4.44396 0.3631,-0.10907 0.78571,-0.15232 1.48166,-0.15164 1.57797,0.002 2.60432,0.35734 3.47607,1.20509 0.43673,0.42471 0.50538,0.52987 0.43237,0.66232 -0.0477,0.0866 -0.4084,0.47563 -0.80149,0.86451 l -0.7147,0.70707 -0.37283,-0.37283 c -0.56567,-0.56567 -1.08165,-0.78349 -1.85008,-0.781 -1.30913,0.004 -2.19593,0.73044 -2.45475,2.01016 -0.34384,1.70018 0.79712,3.19054 2.44255,3.19054 0.78433,0 1.29528,-0.19665 1.85334,-0.71333 l 0.49026,-0.45389 0.8444,0.78488 0.8444,0.78488 -0.5257,0.50647 c -0.56207,0.54151 -1.38398,1.02001 -2.13984,1.24575 -0.6627,0.19793 -2.02988,0.24359 -2.70323,0.0903 z m 39.63155,0.0401 c -0.94688,-0.13269 -1.7518,-0.4529 -2.49009,-0.99062 l -0.4021,-0.29287 0.50354,-0.60666 c 0.27694,-0.33367 0.6156,-0.73998 0.75258,-0.90291 l 0.24903,-0.29624 0.40381,0.28999 c 0.63771,0.45797 1.26294,0.67916 1.92629,0.68148 0.92907,0.003 1.35293,-0.33936 1.14782,-0.92777 -0.11517,-0.33035 -0.54178,-0.57896 -1.65305,-0.96327 -1.44409,-0.49943 -2.01074,-0.87977 -2.46699,-1.65587 -0.20315,-0.34556 -0.22777,-0.47157 -0.22467,-1.15008 0.003,-0.65261 0.0367,-0.83059 0.23469,-1.23977 0.58357,-1.20589 1.99549,-1.86368 3.73587,-1.74049 0.80297,0.0568 1.88172,0.37765 2.41829,0.71917 0.65318,0.41574 0.65339,0.39715 -0.0144,1.24745 -0.3281,0.4178 -0.6079,0.77191 -0.62176,0.78692 -0.0139,0.015 -0.18807,-0.0755 -0.38713,-0.2012 -1.336,-0.84338 -2.78674,-0.75676 -2.78674,0.16639 0,0.43437 0.32496,0.6469 1.70515,1.11518 1.37425,0.46628 1.96885,0.81827 2.39519,1.41793 0.35933,0.5054 0.50494,1.09505 0.45225,1.83143 -0.0883,1.2337 -1.0117,2.20198 -2.47825,2.59864 -0.56021,0.15152 -1.73141,0.20676 -2.39936,0.11317 z m 12.83224,-0.004 c -1.02431,-0.14176 -2.27376,-0.67817 -2.7148,-1.16551 -0.14189,-0.15679 -0.1207,-0.19496 0.58559,-1.05442 l 0.73282,-0.89174 0.36193,0.27627 c 0.65503,0.49999 1.11329,0.67018 1.90673,0.70811 0.68774,0.0329 0.73796,0.0231 0.99604,-0.19407 0.30562,-0.25716 0.35467,-0.56566 0.13891,-0.8737 -0.16228,-0.23169 -0.72814,-0.52218 -1.51811,-0.77935 -1.24103,-0.40402 -2.09645,-0.94625 -2.45322,-1.55502 -0.77255,-1.31824 -0.1984,-3.09967 1.23273,-3.82488 1.45156,-0.73556 3.66472,-0.54324 5.09399,0.44266 0.17463,0.12045 0.3175,0.25194 0.3175,0.29219 0,0.0674 -1.17487,1.59712 -1.22662,1.59712 -0.0126,0 -0.24579,-0.13424 -0.51826,-0.29831 -0.58907,-0.35472 -1.01995,-0.48432 -1.61702,-0.48637 -0.7429,-0.003 -1.17398,0.42801 -0.95583,0.95466 0.13213,0.31899 0.42615,0.47674 1.65342,0.88714 1.66063,0.55532 2.21636,0.95409 2.65018,1.90169 0.28299,0.61813 0.29875,1.54679 0.0362,2.13606 -0.21893,0.49146 -0.78353,1.11337 -1.2691,1.39793 -0.83849,0.49139 -2.19588,0.70076 -3.43312,0.52954 z M 35.435083,148.03287 c -0.02424,-0.0827 -0.523277,-2.13148 -1.109001,-4.55295 -0.585724,-2.42147 -1.085686,-4.46934 -1.111033,-4.55083 -0.04252,-0.13674 0.0555,-0.14817 1.270346,-0.14817 1.295959,0 1.317096,0.003 1.359549,0.1905 0.02373,0.10477 0.294558,1.50495 0.601866,3.1115 0.487299,2.54752 0.628237,3.20338 0.628237,2.92355 0,-0.0633 1.177544,-4.94994 1.362472,-5.65405 l 0.08339,-0.3175 h 1.132551 1.132552 l 0.695463,2.8575 c 0.382505,1.57162 0.725334,2.91353 0.761844,2.98202 0.0461,0.0865 0.08538,0.0218 0.128558,-0.21167 0.0342,-0.1849 0.296524,-1.57443 0.582946,-3.08785 l 0.520769,-2.75167 1.277329,-0.0233 1.277331,-0.0233 -1.094964,4.38365 c -0.602229,2.41101 -1.132719,4.52653 -1.178865,4.70116 l -0.0839,0.3175 h -1.29967 -1.29967 l -0.697071,-2.8575 c -0.383389,-1.57163 -0.718979,-2.89459 -0.745752,-2.93991 -0.02677,-0.0453 -0.376775,1.23102 -0.777785,2.83633 l -0.729107,2.91874 -1.322165,0.0233 c -1.204937,0.0212 -1.326071,0.01 -1.366216,-0.127 z m 31.188627,-4.55975 v -4.70579 l 2.434167,0.0307 c 2.263153,0.0285 2.469657,0.0439 2.93934,0.2185 0.61935,0.23025 1.018281,0.53998 1.377509,1.06951 0.363497,0.53581 0.473249,0.96058 0.473339,1.83196 6.1e-5,0.60243 -0.03737,0.80586 -0.222824,1.21094 -0.269097,0.58779 -0.473699,0.85997 -0.905841,1.20503 l -0.32734,0.26138 0.966666,1.72829 c 0.531667,0.95056 0.967338,1.75686 0.968158,1.79178 7.94e-4,0.0349 -0.580334,0.0635 -1.291455,0.0635 h -1.292947 l -0.800772,-1.60866 -0.800769,-1.60867 h -0.530948 -0.53095 v 1.60867 1.60866 H 67.851377 66.62371 Z m 4.489902,-0.77262 c 0.323377,-0.36217 0.394867,-0.77793 0.214826,-1.24937 -0.209769,-0.54927 -0.447117,-0.6673 -1.423895,-0.7081 l -0.8255,-0.0345 v 1.16056 1.16055 l 0.896107,-0.0289 c 0.886743,-0.0286 0.898639,-0.0317 1.138462,-0.30029 z m 8.972098,0.77942 v -4.699 h 1.227667 1.227666 v 3.59833 3.59834 h 2.201334 2.201333 v 1.10066 1.10067 h -3.429 -3.429 z m 12.530667,-0.002 v -4.71437 l 2.434166,0.0402 c 2.667477,0.0441 2.955557,0.0871 3.998607,0.59747 0.98563,0.48227 1.76834,1.47979 2.07624,2.64603 0.17609,0.66696 0.1764,2.20184 8e-4,2.86488 -0.39655,1.49544 -1.53271,2.60314 -3.14774,3.06888 -0.39551,0.11406 -0.97693,0.14917 -2.92769,0.1768 l -2.434164,0.0345 v -4.71437 z m 4.417683,2.41203 c 0.53298,-0.14804 1.09129,-0.59206 1.36836,-1.08825 0.20423,-0.36575 0.26209,-0.58501 0.29236,-1.10786 0.0544,-0.94047 -0.1291,-1.5119 -0.65433,-2.03713 -0.516,-0.51596 -1.00873,-0.67463 -2.095107,-0.67463 h -0.788966 v 2.49766 2.49767 l 0.783166,-5.3e-4 c 0.430747,-2.5e-4 0.923277,-0.0394 1.094517,-0.087 z m 28.94098,-2.41013 v -4.699 h 1.22767 1.22767 v 3.59833 3.59834 h 2.20133 2.20134 v 1.10066 1.10067 h -3.429 -3.42901 z m 11.89931,4.1275 c 0.11644,-0.31433 0.89038,-2.41935 1.71989,-4.67783 l 1.50818,-4.10634 1.43215,-0.0224 1.43214,-0.0224 1.66036,4.70028 1.66035,4.70028 h -1.33814 -1.33816 l -0.30453,-0.97553 -0.30453,-0.97552 -1.58046,0.023 -1.58044,0.023 -0.29989,0.95071 -0.29989,0.95071 -1.28937,0.002 -1.28937,0.002 0.21171,-0.5715 z m 5.59286,-3.302 c -0.0249,-0.0815 -0.20071,-0.66252 -0.39071,-1.29117 -0.56331,-1.8638 -0.60703,-1.98341 -0.67766,-1.85383 -0.069,0.1266 -1.01446,3.14368 -1.01446,3.23725 0,0.0307 0.47881,0.0559 1.06404,0.0559 0.97416,0 1.06021,-0.0125 1.01879,-0.14816 z m 35.1705,-4.12188 v -0.97929 h -0.33867 c -0.3048,0 -0.33866,-0.0212 -0.33866,-0.21166 v -0.21167 h 0.93133 0.93133 v 0.21167 c 0,0.1902 -0.0341,0.21166 -0.33588,0.21166 h -0.3359 l -0.0239,0.9525 -0.0239,0.9525 -0.23284,0.0268 -0.23283,0.0268 z m 1.49578,0.9116 c -0.0311,-0.031 -0.0565,-0.56444 -0.0565,-1.18533 v -1.12889 h 0.37405 0.37405 l 0.22914,0.6985 c 0.12601,0.38417 0.25938,0.73158 0.29635,0.77201 0.037,0.0404 0.17149,-0.2739 0.29892,-0.6985 l 0.23168,-0.77201 h 0.36791 0.3679 v 1.19095 1.19096 l -0.23283,-0.0268 c -0.23239,-0.0267 -0.23288,-0.0282 -0.26048,-0.78879 l -0.0277,-0.762 -0.27781,0.762 c -0.24034,0.6592 -0.30418,0.762 -0.47322,0.762 -0.17105,0 -0.22978,-0.10029 -0.47106,-0.80433 l -0.27564,-0.80433 -0.007,0.8255 c -0.007,0.80646 -0.0112,0.8255 -0.2042,0.8255 -0.10866,0 -0.22296,-0.0254 -0.254,-0.0564 z M 89.399043,120.06753 c 0,-4.37926 0.03166,-7.53554 0.07542,-7.51917 0.04148,0.0155 1.869414,1.5427 4.062077,3.39373 l 3.98667,3.3655 h 1.85058 1.85059 l 0.19172,-0.86784 c 0.10546,-0.47731 0.26757,-1.20121 0.36025,-1.60866 l 0.16853,-0.74084 h 0.33108 0.33108 v 3.937 3.937 h -0.33705 c -0.28012,0 -0.34446,-0.0322 -0.38085,-0.1905 -0.0241,-0.10477 -0.18675,-0.81915 -0.36146,-1.5875 l -0.31764,-1.397 -1.82033,-0.0209 -1.82033,-0.0209 -4.013586,3.38948 c -2.207472,1.86421 -4.045797,3.40939 -4.085167,3.43372 -0.03937,0.0243 -0.07159,-3.35208 -0.07159,-7.50314 z m 23.768627,4.09455 -4.04438,-3.41516 h -1.81169 -1.8117 l -0.21175,0.91017 c -0.11646,0.50059 -0.27854,1.22449 -0.36017,1.60866 l -0.14844,0.6985 h -0.36658 -0.36658 v -3.94187 -3.94186 l 0.35983,0.026 0.35983,0.026 0.31378,1.397 c 0.17257,0.76835 0.33522,1.48272 0.36144,1.5875 0.0476,0.19026 0.0499,0.1905 1.89187,0.1905 h 1.84418 l 4.01737,-3.39122 4.01736,-3.39121 0.022,3.77221 c 0.0121,2.07472 0.0121,5.46144 0,7.52604 l -0.022,3.75383 z m -35.918293,-3.78897 c -7.641932,-0.20471 -7.760558,-0.1857 2.766044,-0.44318 6.415124,-0.15691 6.250956,-0.16374 6.250956,0.26009 0,0.1014 -0.04572,0.23009 -0.1016,0.28597 -0.127482,0.12747 -0.459224,0.12365 -8.9154,-0.10288 z m 43.283363,0.0841 c -0.17644,-0.17643 -0.18337,-0.30372 -0.0281,-0.51609 0.11551,-0.15797 0.25567,-0.15739 7.80973,0.0324 4.23066,0.10632 7.70076,0.20195 7.71133,0.21252 0.0106,0.0106 -2.71323,0.0852 -6.0529,0.16589 -3.33967,0.0807 -6.79713,0.17013 -7.68326,0.1988 -1.45379,0.0471 -1.62537,0.0379 -1.75684,-0.0936 z"
       id="path88"
       inkscape:connector-curvature="0" />
    <rect
       style="fill:none;fill-opacity:1;stroke:#000000;stroke-width:0.29573739;stroke-miterlimit:4;stroke-dasharray:none;stroke-opacity:1"
       id="rect113"
       width="154.21428"
       height="64.223053"
       x="30.46488"
       y="98.482002" />
    <path
       style="fill:none;stroke:#000000;stroke-width:0.26458332px;stroke-linecap:butt;stroke-linejoin:miter;stroke-opacity:1"
       d="m 30.427083,171.70089 h 154.592257 1.13393"
       id="path115"
       inkscape:connector-curvature="0" />
    <path
       style="fill:none;stroke:#000000;stroke-width:0.29495448px;stroke-linecap:butt;stroke-linejoin:miter;stroke-opacity:1"
       d="m 22.489583,98.940478 v 63.883452 0.93946"
       id="path117"
       inkscape:connector-curvature="0" />
    <text
       xml:space="preserve"
       style="font-style:normal;font-weight:normal;font-size:10.58333302px;line-height:1.25;font-family:sans-serif;letter-spacing:0px;word-spacing:0px;fill:#000000;fill-opacity:1;stroke:none;stroke-width:0.26458332"
       x="85.04464"
       y="181.1503"
       id="text121"><tspan
         sodipodi:role="line"
         id="tspan119"
         x="85.04464"
         y="181.1503"
         style="stroke-width:0.26458332">50.00mm</tspan></text>
    <text
       xml:space="preserve"
       style="font-style:normal;font-weight:normal;font-size:10.58333302px;line-height:1.25;font-family:sans-serif;letter-spacing:0px;word-spacing:0px;fill:#000000;fill-opacity:1;stroke:none;stroke-width:0.26458332"
       x="-155.84064"
       y="19.247995"
       id="text125"
       transform="rotate(-90)"><tspan
         sodipodi:role="line"
         id="tspan123"
         x="-155.84064"
         y="19.247995"
         style="stroke-width:0.26458332">25.00mm</tspan></text>
  </g>
</svg>
