<?xml version="1.0" encoding="UTF-8" standalone="no"?>
<svg
   xmlns:dc="http://purl.org/dc/elements/1.1/"
   xmlns:cc="http://creativecommons.org/ns#"
   xmlns:rdf="http://www.w3.org/1999/02/22-rdf-syntax-ns#"
   xmlns:svg="http://www.w3.org/2000/svg"
   xmlns="http://www.w3.org/2000/svg"
   viewBox="0 0 264.56693 264.56693"
   height="70mm"
   width="70mm"
   id="svg106"
   version="1.1">
  <metadata
     id="metadata112">
    <rdf:RDF>
      <cc:Work
         rdf:about="">
        <dc:format>image/svg+xml</dc:format>
        <dc:type
           rdf:resource="http://purl.org/dc/dcmitype/StillImage" />
        <dc:title></dc:title>
      </cc:Work>
    </rdf:RDF>
  </metadata>
  <defs
     id="defs110" />
  <path
     id="path116"
     d="m 118.93906,208.69876 c -0.016,-0.019 -0.021,-0.1372 -0.017,-0.3817 v -0.3546 l 0.6981,-0.013 c 0.4487,0 0.7058,-0.017 0.7191,-0.031 0.015,-0.015 0.019,-2.6971 0.016,-8.8267 v -8.8059 h -0.6925 c -0.4708,0 -0.701,-0.013 -0.719,-0.027 -0.036,-0.03 -0.039,-0.7113 0,-0.7471 0.019,-0.019 0.6436,-0.024 2.6938,-0.024 2.05,0 2.6752,0 2.6936,0.024 0.035,0.035 0.034,0.7212 -9e-4,0.7436 -0.013,0.013 -0.3372,0.02 -0.719,0.026 l -0.6942,0.013 v 8.8058 c 0,6.1295 0,8.8123 0.016,8.8268 0.013,0.013 0.2704,0.024 0.719,0.031 l 0.6982,0.013 v 0.3544 c 0,0.2447 0,0.363 -0.018,0.3819 -0.019,0.023 -0.4465,0.027 -2.6957,0.027 -2.2491,0 -2.6765,0 -2.6956,-0.027 z m 7.3659,-0.038 c 0,-0.013 -0.013,-0.1859 0,-0.3818 v -0.3564 l 0.6876,-0.013 c 0.3782,0 0.6934,-0.016 0.7003,-0.023 0.013,-0.014 0.1356,-0.4645 0.6938,-2.5461 0.1492,-0.5564 0.3017,-1.1232 0.3387,-1.2596 0.114,-0.4192 0.3588,-1.331 1.6336,-6.0795 1.1873,-4.4236 1.5978,-5.9541 2.0573,-7.6712 0.1194,-0.4446 0.2217,-0.8083 0.2286,-0.8084 0.013,0 0.017,0.027 0.024,0.06 0,0.034 0.4268,1.606 0.9338,3.4958 0.507,1.8899 1.5254,5.6854 2.2629,8.4345 0.7378,2.7492 1.4207,5.2975 1.518,5.663 0.097,0.3655 0.1847,0.6779 0.1942,0.6943 0.015,0.025 0.1221,0.031 0.7096,0.04 l 0.6919,0.013 v 0.377 0.3767 h -2.7074 -2.7075 v -0.3543 c 0,-0.2447 0,-0.363 0.017,-0.3819 0.019,-0.023 0.1439,-0.027 0.6724,-0.027 0.5624,0 0.6531,0 0.6752,-0.031 0.027,-0.032 0.062,0.1019 -0.8041,-3.1231 -0.192,-0.7145 -0.4463,-1.6607 -0.5651,-2.1025 -0.1194,-0.4418 -0.494,-1.8388 -0.8336,-3.1042 -0.743,-2.769 -0.6756,-2.5294 -0.6967,-2.4795 -0.013,0.021 -0.3013,1.1019 -0.6491,2.4001 -1.0591,3.9543 -2.226,8.3093 -2.2348,8.3408 0,0.016 0,0.043 0.013,0.059 0.016,0.025 0.1247,0.031 0.7087,0.04 l 0.69,0.013 v 0.3767 0.377 h -2.1179 c -1.7133,0 -2.12,2e-4 -2.1279,-0.02 z m -30.951982,-5.5059 c -0.27819,-0.1616 -1.31354,-0.76 -2.30061,-1.3298 -0.98707,-0.5698 -1.80084,-1.0458 -1.80808,-1.0576 -0.0188,-0.031 -0.0134,-0.052 0.17303,-0.3625 0.13681,-0.2334 0.17021,-0.2776 0.20951,-0.277 0.0255,0 0.28919,0.1408 0.58561,0.3124 0.29657,0.1714 0.55209,0.3117 0.56791,0.3117 0.047,0 0.0644,-0.038 0.13145,-0.2876 0.18121,-0.6796 1.66416,-6.2269 2.17399,-8.1325 0.60117,-2.2466 0.64141,-2.3998 0.63202,-2.4091 -0.0134,-0.013 -7.87668,7.8499 -7.90498,7.9009 -0.0161,0.028 -0.0134,0.046 0.0134,0.07 0.0174,0.017 0.27899,0.1752 0.58052,0.3497 0.30166,0.1746 0.55758,0.3324 0.56871,0.3505 0.0161,0.027 -0.0147,0.095 -0.14902,0.3263 -0.0926,0.1612 -0.18309,0.3018 -0.19985,0.3124 -0.0228,0.015 -0.35719,-0.1694 -1.41642,-0.7811 -0.76213,-0.4402 -1.57979,-0.912 -1.8168,-1.0489 -0.23688,-0.1366 -0.43579,-0.2612 -0.44169,-0.2769 0,-0.016 0.0671,-0.1634 0.16377,-0.3281 0.15117,-0.259 0.18148,-0.2995 0.2236,-0.2991 0.0268,0 0.29951,0.1454 0.60586,0.3223 0.30636,0.177 0.56872,0.3218 0.58307,0.3218 0.0147,0 3.04651,-3.0192 6.73818,-6.7094 3.69168,-3.69 6.7208,-6.7121 6.7312,-6.7158 0.013,0 0.015,0 0.013,0.02 -0.013,0.025 -0.277302,1.0261 -1.230202,4.5886 -0.92914,3.4737 -1.16414,4.3522 -1.22087,4.5621 -0.0322,0.1194 -0.2511,0.9367 -0.48609,1.815 -0.4991,1.8655 -1.04153,3.8919 -1.58422,5.9186 -0.23929,0.8936 -0.38107,1.4567 -0.37114,1.4742 0.0134,0.016 0.2739,0.1776 0.58937,0.3599 0.33264,0.1921 0.57596,0.3449 0.57958,0.3636 0,0.017 -0.0724,0.1673 -0.16753,0.3317 -0.13534,0.233 -0.18282,0.2992 -0.21434,0.2988 -0.0228,0 -0.26813,-0.1328 -0.54632,-0.2943 z m 73.871782,-2.6854 c -0.059,-0.075 -0.3438,-0.5973 -0.336,-0.6174 0,-0.013 0.2698,-0.1741 0.5882,-0.3578 0.3184,-0.1836 0.5831,-0.3445 0.5882,-0.3577 0,-0.013 -0.054,-0.2551 -0.1288,-0.538 -0.077,-0.2829 -0.2778,-1.0364 -0.4483,-1.6747 -0.1705,-0.6382 -0.4115,-1.5397 -0.5356,-2.0034 -0.1234,-0.4636 -0.3639,-1.3606 -0.5329,-1.9935 -0.1691,-0.6327 -0.6524,-2.4402 -1.0738,-4.0165 -0.4215,-1.5764 -0.8689,-3.2501 -0.9943,-3.7192 -0.6233,-2.3321 -1.1813,-4.4032 -1.19,-4.4174 0,-0.013 0,-0.016 0,-0.016 0.013,0 3.0396,3.0219 6.7386,6.7156 5.0227,5.0154 6.7345,6.7133 6.7613,6.7063 0.02,0 0.2843,-0.1531 0.5881,-0.3288 0.3036,-0.1755 0.5704,-0.3192 0.5926,-0.3192 0.031,0 0.079,0.068 0.2128,0.2998 0.095,0.165 0.1698,0.314 0.1665,0.331 0,0.017 -0.3585,0.2345 -0.7993,0.4889 -0.4365,0.2518 -1.4784,0.8534 -2.3155,1.3368 -0.8372,0.4832 -1.5375,0.8758 -1.5563,0.8722 -0.042,-0.013 -0.3856,-0.6009 -0.3709,-0.6395 0,-0.015 0.2397,-0.1588 0.5199,-0.3199 0.5918,-0.3403 0.6185,-0.3577 0.6185,-0.402 0,-0.019 -1.7807,-1.8141 -3.9571,-3.9905 -2.1764,-2.1764 -3.9572,-3.9453 -3.9572,-3.9309 0,0.015 0.2372,0.9116 0.527,1.9935 0.2899,1.0819 0.7097,2.65 0.9331,3.4844 0.2233,0.8347 0.4325,1.6156 0.4648,1.7357 0.048,0.1788 0.6751,2.5195 0.8913,3.3287 0.059,0.2229 0.083,0.2714 0.1348,0.2714 0.016,0 0.2805,-0.1445 0.5862,-0.3212 0.3058,-0.1766 0.5745,-0.3216 0.5969,-0.3223 0.042,0 0.1638,0.1824 0.3307,0.4955 0.067,0.1261 0.067,0.1274 0.028,0.1642 -0.058,0.054 -3.5881,2.0864 -3.6245,2.0864 -0.016,0 -0.039,-0.013 -0.05,-0.026 z m -86.338282,-4.476 c -0.30448,-0.1771 -3.24811,-1.8775 -3.92748,-2.2686 -0.20723,-0.1194 -0.38817,-0.2262 -0.40212,-0.2375 -0.0134,-0.013 -0.0201,-0.038 -0.0134,-0.058 0.0268,-0.083 0.34338,-0.6025 0.37128,-0.6082 0.0161,0 0.29495,0.1468 0.61861,0.3335 0.32365,0.1867 0.60318,0.3366 0.62102,0.3331 0.0188,0 0.13628,-0.1859 0.27296,-0.4226 0.13279,-0.2291 0.57542,-0.9966 0.98478,-1.7057 0.4095,-0.7092 1.4969,-2.5925 2.4165,-4.1853 0.9196,-1.5928 1.92196,-3.3289 2.22737,-3.858 0.30555,-0.529 1.08579,-1.8804 1.73378,-3.0031 0.71505,-1.2387 1.17579,-2.0566 1.1723,-2.0809 0,-0.03 -0.15828,-0.1274 -0.57582,-0.369 -0.31333,-0.1809 -0.58468,-0.344 -0.60279,-0.3622 -0.0308,-0.031 -0.0228,-0.052 0.13011,-0.3174 0.0899,-0.1563 0.17947,-0.3007 0.19905,-0.321 0.0349,-0.036 0.0993,2e-4 2.17493,1.1978 2.59314,1.4965 2.51454,1.4501 2.52192,1.4885 0,0.017 -0.0657,0.155 -0.15465,0.3067 -0.1792,0.3078 -0.19235,0.3266 -0.22776,0.3266 -0.0134,0 -0.29052,-0.1532 -0.61485,-0.3405 -0.46289,-0.2672 -0.59688,-0.3363 -0.62223,-0.3207 -0.0349,0.021 -0.11401,0.1566 -1.24742,2.1191 -0.4095,0.7091 -1.42728,2.472 -2.26171,3.9175 -0.83456,1.4456 -1.9013,3.2932 -2.37049,4.1059 -0.46919,0.8127 -1.01805,1.7634 -1.21965,2.1124 -1.53713,2.6609 -1.71177,2.969 -1.70144,3.0008 0,0.019 0.27885,0.1889 0.60613,0.3781 0.35612,0.2059 0.59501,0.3557 0.59501,0.3733 0,0.016 -0.0724,0.1559 -0.1615,0.3105 -0.14687,0.2558 -0.20254,0.3341 -0.23392,0.3292 0,0 -0.145,-0.079 -0.30864,-0.1749 z m -6.28791,-3.6298 c -0.37087,-0.2154 -1.37497,-0.7957 -2.2314,-1.2895 -0.85642,-0.4939 -1.59052,-0.9195 -1.63143,-0.9459 -0.0416,-0.027 -0.0751,-0.064 -0.0751,-0.083 0,-0.063 0.32862,-0.6087 0.37047,-0.615 0.0215,0 0.29522,0.1425 0.62464,0.3327 0.36672,0.2116 0.59796,0.334 0.61754,0.3264 0.0174,0 0.0711,-0.08 0.11804,-0.164 0.0483,-0.083 0.47361,-0.8215 0.94629,-1.6397 0.74925,-1.297 2.1654,-3.7493 4.54702,-7.8746 0.36524,-0.6328 1.23696,-2.1425 1.93698,-3.355 0.70003,-1.2124 1.26808,-2.2168 1.26244,-2.2317 0,-0.015 -0.27818,-0.1818 -0.6052,-0.3707 -0.49641,-0.2866 -0.5946,-0.3506 -0.59366,-0.3866 10e-4,-0.051 0.31239,-0.5861 0.35679,-0.6136 0.0282,-0.017 1.08257,0.5823 4.28856,2.4394 0.2747,0.1592 0.39166,0.2374 0.39166,0.262 0,0.044 -0.31735,0.5959 -0.358,0.6215 -0.0228,0.015 -0.169,-0.06 -0.61753,-0.3201 -0.32272,-0.1867 -0.60386,-0.3395 -0.62465,-0.3395 -0.0282,0 -0.0764,0.066 -0.17906,0.2429 -0.0778,0.1341 -0.54055,0.9348 -1.02838,1.7802 -0.48784,0.8455 -1.20154,2.0818 -1.58596,2.7472 -0.38442,0.6655 -1.36626,2.3658 -2.18191,3.7786 -0.81551,1.4128 -2.01839,3.4963 -2.67308,4.6301 -0.91035,1.5766 -1.18572,2.0684 -1.17096,2.0918 0.0134,0.017 0.26075,0.1698 0.55597,0.34 0.63953,0.3688 0.6402,0.3692 0.6402,0.4072 0,0.016 -0.0765,0.1634 -0.17021,0.3267 -0.13936,0.2432 -0.17799,0.2967 -0.21327,0.2954 -0.0241,0 -0.34646,-0.1779 -0.71746,-0.3931 z m -16.659019,-16.7068 c -0.78078,-1.3524 -1.33782,-2.3373 -1.33205,-2.3554 0,-0.018 0.14888,-0.1114 0.31869,-0.2079 0.26585,-0.1524 0.31252,-0.1731 0.33653,-0.1489 0.0161,0.016 0.16954,0.2736 0.34257,0.5735 0.25955,0.4504 0.32272,0.5467 0.36216,0.5525 0.0402,0 0.65241,-0.5998 3.98944,-3.9473 2.16809,-2.1748 3.93472,-3.9568 3.92574,-3.9598 -0.0134,0 -1.17391,0.3022 -2.7588,0.7296 -0.26477,0.071 -1.24634,0.3342 -5.04801,1.3507 -0.7746,0.2073 -1.50655,0.4031 -1.62646,0.4355 -0.12072,0.032 -0.46758,0.1248 -0.77233,0.2067 -0.30474,0.082 -0.56737,0.1614 -0.5836,0.1778 -0.0389,0.039 -0.047,0.02 0.3246,0.6662 0.169,0.2932 0.30729,0.5494 0.30729,0.5695 0,0.026 -0.0832,0.084 -0.29227,0.2043 -0.16082,0.093 -0.31011,0.1679 -0.33198,0.1679 -0.0322,0 -0.24921,-0.3629 -1.08699,-1.8138 -0.57596,-0.9977 -1.04474,-1.8266 -1.04166,-1.8423 0,-0.016 0.14352,-0.1087 0.31186,-0.2068 0.22413,-0.1301 0.314,-0.1736 0.33546,-0.1601 0.0161,0.014 0.17718,0.2745 0.35786,0.5873 0.18054,0.3128 0.34002,0.5731 0.3541,0.5786 0.0148,0 0.17518,-0.031 0.35759,-0.079 0.18256,-0.05 0.43003,-0.1154 0.55007,-0.1476 0.11938,-0.032 0.67334,-0.1801 1.22971,-0.3286 1.25104,-0.3342 2.46693,-0.6591 4.06631,-1.0867 0.67642,-0.1808 1.73404,-0.4636 2.3505,-0.6283 2.54634,-0.6806 4.03478,-1.0785 6.416679,-1.7161 0.14191,-0.037 0.95675,-0.2564 1.81089,-0.4855 0.85415,-0.2292 1.5641,-0.4166 1.57751,-0.4166 0.0134,0 -0.57005,0.5958 -1.29677,1.324 -0.72672,0.7282 -3.75083,3.7571 -6.720349,6.7311 -4.54153,4.5483 -5.39647,5.4132 -5.3836,5.4455 0.0134,0.022 0.16123,0.2906 0.33962,0.5985 0.17839,0.308 0.31977,0.572 0.31413,0.5864 -0.0134,0.031 -0.59138,0.3694 -0.63336,0.3694 -0.0174,0 -0.54886,-0.9001 -1.37108,-2.3242 z m 140.781911,-3.5527 c -0.1565,-0.09 -0.2921,-0.178 -0.3017,-0.1949 -0.013,-0.023 0.064,-0.1721 0.2812,-0.5448 0.31,-0.5343 0.3743,-0.6506 0.3743,-0.6768 0,-0.014 -3.0233,-3.039 -6.7183,-6.7342 -3.6952,-3.6952 -6.7136,-6.7232 -6.7079,-6.7291 0,0 0.9561,0.2429 2.1117,0.5528 1.1555,0.3098 2.8241,0.7566 3.7077,0.9928 0.8837,0.2362 1.687,0.4515 1.7852,0.4783 0.098,0.027 0.7765,0.2086 1.5075,0.4039 0.7308,0.1954 1.918,0.5126 2.638,0.7051 0.7201,0.1924 1.4564,0.3894 1.6364,0.4378 0.2777,0.075 0.7969,0.2137 2.8861,0.7727 0.1418,0.038 0.6578,0.1762 1.1466,0.3071 0.4887,0.1314 0.9055,0.2381 0.926,0.2381 0.048,0 0.06,-0.017 0.4181,-0.6397 0.2418,-0.4204 0.3136,-0.5305 0.3454,-0.5302 0.021,2e-4 0.1694,0.075 0.3277,0.1666 0.243,0.1403 0.2875,0.1731 0.287,0.2127 0,0.025 -0.1886,0.3725 -0.4185,0.7707 -0.2297,0.3982 -0.8221,1.4246 -1.3161,2.281 -0.494,0.8564 -0.9071,1.5683 -0.918,1.582 -0.013,0.013 -0.032,0.024 -0.047,0.024 -0.016,0 -0.1615,-0.077 -0.3249,-0.1701 -0.2265,-0.1301 -0.2969,-0.1796 -0.2969,-0.2098 0,-0.021 0.1393,-0.2808 0.3098,-0.5756 0.1704,-0.2949 0.314,-0.5523 0.3192,-0.5721 0.014,-0.052 -0.051,-0.084 -0.3216,-0.1555 -0.2707,-0.071 -2.4256,-0.6462 -2.7571,-0.7358 -0.2351,-0.063 -1.8204,-0.4873 -3.4514,-0.9226 -0.5564,-0.1484 -1.1097,-0.2965 -1.2297,-0.3288 -0.1207,-0.032 -0.736,-0.1972 -1.3687,-0.3662 -0.6327,-0.1689 -1.2669,-0.3384 -1.4092,-0.3767 -0.1421,-0.038 -0.2716,-0.07 -0.2875,-0.07 -0.016,0 1.7518,1.781 3.9282,3.9578 3.2382,3.2386 3.9655,3.9567 4.0033,3.9521 0.038,0 0.106,-0.1099 0.3793,-0.5807 0.249,-0.4297 0.3437,-0.5768 0.3744,-0.5814 0.042,0 0.5741,0.29 0.6197,0.3449 0.027,0.032 0.046,0 -1.3353,2.3886 -0.5574,0.9655 -0.7486,1.2807 -0.7785,1.2843 -0.022,0 -0.1677,-0.068 -0.3241,-0.1594 z m -147.438011,-7.9137 c -0.35397,-0.6135 -0.95421,-1.6534 -1.33393,-2.3108 -0.37986,-0.6574 -0.6905,-1.2116 -0.6905,-1.2319 0,-0.027 0.0832,-0.084 0.29696,-0.2081 0.16337,-0.094 0.31051,-0.1714 0.32688,-0.1714 0.0376,0 0.0268,-0.016 0.40293,0.6333 0.17316,0.2994 0.32835,0.5528 0.34485,0.5632 0.0228,0.015 0.65603,-0.3424 2.61688,-1.4745 1.42286,-0.8214 3.53743,-2.0424 4.6994,-2.7132 1.16184,-0.6707 2.77745,-1.6035 3.59014,-2.0728 1.41562,-0.8174 2.98226,-1.7218 3.92239,-2.2644 0.33291,-0.1922 0.44142,-0.2641 0.44142,-0.2928 0,-0.02 -0.15278,-0.3026 -0.33949,-0.626 -0.25793,-0.4471 -0.33479,-0.5953 -0.32017,-0.6185 0.0295,-0.047 0.58428,-0.3601 0.62599,-0.3537 0.0241,0 0.11133,0.136 0.25995,0.3926 2.328769,4.0321 2.455119,4.2542 2.436879,4.2837 -0.0322,0.052 -0.56643,0.357 -0.617,0.3521 -0.0389,0 -0.10328,-0.1032 -0.3867,-0.594 -0.18724,-0.3242 -0.35276,-0.5945 -0.36792,-0.6004 -0.0148,0 -0.233789,0.1087 -0.485949,0.255 -0.25217,0.1462 -1.99372,1.1519 -3.87021,2.235 -3.37124,1.9461 -7.76482,4.4827 -9.83204,5.6764 -0.58561,0.3382 -1.07009,0.6287 -1.07653,0.6456 -0.0134,0.019 0.12072,0.2589 0.32674,0.6167 0.18953,0.328 0.336,0.6031 0.33278,0.6245 -0.0134,0.044 -0.55369,0.3704 -0.62022,0.3701 -0.0322,-1e-4 -0.1678,-0.2215 -0.68353,-1.1157 z m 154.287911,-3.8783 c -0.2075,-0.1207 -0.2992,-0.1856 -0.3031,-0.213 0,-0.021 0.1019,-0.2244 0.2351,-0.4557 0.4198,-0.727 0.4362,-0.7572 0.4252,-0.7855 0,-0.015 -0.067,-0.059 -0.1344,-0.098 -0.068,-0.039 -0.9091,-0.5245 -1.8691,-1.0791 -0.9601,-0.5545 -2.4908,-1.4385 -3.4018,-1.9643 -0.9109,-0.5258 -2.9595,-1.7086 -4.5523,-2.6282 -1.5926,-0.9196 -3.422,-1.9757 -4.0651,-2.347 -0.643,-0.3711 -1.188,-0.6786 -1.211,-0.683 -0.023,0 -0.052,0 -0.063,0.019 -0.013,0.015 -0.166,0.2763 -0.3425,0.5818 -0.1764,0.3055 -0.3323,0.5673 -0.3465,0.5819 -0.022,0.021 -0.039,0.02 -0.1033,-0.013 -0.2123,-0.1087 -0.5535,-0.3202 -0.5586,-0.3453 0,-0.016 0.406,-0.7416 0.9094,-1.6136 0.5032,-0.8718 1.1039,-1.9131 1.3347,-2.3138 0.2307,-0.4008 0.4346,-0.7337 0.4531,-0.7399 0.037,-0.013 0.6277,0.3163 0.644,0.3589 0,0.015 -0.143,0.2908 -0.33,0.6146 -0.2004,0.3471 -0.3373,0.6052 -0.3337,0.6287 0,0.03 0.3125,0.2169 1.2159,0.7382 0.6655,0.3842 1.9107,1.103 2.7671,1.5975 0.8563,0.4944 2.3871,1.3782 3.4017,1.964 1.0145,0.5856 2.3937,1.3818 3.0646,1.7691 3.9283,2.2682 4.7093,2.7182 4.7532,2.7382 0.04,0.019 0.055,0.016 0.084,-0.016 0.02,-0.022 0.1812,-0.2912 0.3588,-0.6004 0.1777,-0.309 0.3356,-0.5667 0.3507,-0.5726 0.015,0 0.1413,0.055 0.2801,0.1342 0.312,0.1786 0.3613,0.2126 0.3613,0.2489 0,0.035 -2.6527,4.6338 -2.6847,4.6543 -0.013,0.013 -0.027,0.015 -0.032,0.015 0,0 -0.1438,-0.078 -0.3074,-0.1737 z m -157.073671,-0.9515 c -0.19757,-0.3077 -2.6476,-4.5909 -2.63888,-4.6135 0.0148,-0.038 0.59808,-0.3741 0.63591,-0.3662 0.0161,0 0.18416,0.2739 0.37328,0.6012 0.19624,0.3394 0.35773,0.5978 0.37611,0.6014 0.0174,0 0.1234,-0.047 0.23513,-0.1113 0.19154,-0.1114 0.59996,-0.3472 4.0608,-2.3448 0.77997,-0.4501 1.76194,-1.0171 2.1819,-1.2597 0.92993,-0.5372 4.91522,-2.8379 7.11094,-4.1051 0.88365,-0.5099 1.62284,-0.9416 1.64256,-0.959 0.0201,-0.017 0.0322,-0.046 0.0282,-0.063 0,-0.016 -0.15707,-0.2886 -0.33922,-0.6038 -0.18228,-0.3152 -0.32862,-0.5874 -0.32526,-0.6048 0,-0.031 0.24572,-0.1842 0.50218,-0.3211 0.11267,-0.06 0.13011,-0.064 0.15599,-0.038 0.0161,0.016 0.40776,0.6858 0.87051,1.4877 0.46275,0.8018 1.05507,1.8283 1.31649,2.281 0.26129,0.4527 0.48073,0.8379 0.48757,0.856 0.0134,0.019 0,0.046 -0.0215,0.062 -0.0738,0.064 -0.595,0.3513 -0.62076,0.3411 -0.0147,0 -0.18027,-0.2762 -0.36685,-0.6005 -0.24733,-0.4293 -0.35008,-0.5911 -0.37891,-0.5954 -0.0376,0 -0.41433,0.2094 -3.61576,2.0589 -0.56188,0.3246 -2.52112,1.4557 -4.35388,2.5137 -1.83276,1.0582 -3.7786,2.1815 -4.32411,2.4965 -0.5455,0.3149 -1.43358,0.8274 -1.97346,1.1392 -0.61271,0.3535 -0.98425,0.5793 -0.98827,0.6005 0,0.019 0.14633,0.2981 0.33318,0.6211 0.18684,0.323 0.33693,0.6013 0.33371,0.6185 0,0.031 -0.57703,0.3772 -0.62558,0.3797 -0.0134,0 -0.0456,-0.032 -0.0724,-0.074 z m -3.35662,-5.8318 c -0.0389,-0.025 -2.68757,-4.6314 -2.68154,-4.6623 0.0134,-0.046 0.61392,-0.3883 0.64799,-0.3668 0.0147,0.013 0.16726,0.2587 0.33747,0.5535 0.37047,0.6412 0.37141,0.6428 0.41245,0.6428 0.0174,0 0.26974,-0.1372 0.55986,-0.3048 0.81498,-0.4706 7.85617,-4.5357 11.42699,-6.597 1.76194,-1.0172 3.219,-1.8633 3.23818,-1.8803 0.0188,-0.017 0.0349,-0.036 0.0349,-0.043 0,0 -0.1517,-0.2743 -0.33721,-0.5951 -0.18537,-0.321 -0.33707,-0.6022 -0.3368,-0.625 1.4e-4,-0.032 0.0657,-0.079 0.30448,-0.2154 0.16726,-0.095 0.31695,-0.1691 0.33264,-0.1631 0.0161,0 0.18135,0.2763 0.36806,0.6005 0.18671,0.3243 0.47093,0.8173 0.63175,1.0955 1.4022,2.4267 1.69501,2.9385 1.69501,2.9636 0,0.036 -0.0496,0.071 -0.36256,0.2483 -0.13949,0.079 -0.26544,0.1395 -0.28006,0.1341 -0.0148,0 -0.17196,-0.263 -0.34981,-0.5722 -0.33774,-0.5867 -0.36658,-0.6314 -0.40695,-0.6314 -0.0215,0 -1.05588,0.5949 -6.27678,3.6096 -1.88655,1.0893 -3.465,2.0004 -6.10938,3.5265 -3.1239,1.8028 -2.85618,1.6441 -2.85618,1.6927 0,0.021 0.1521,0.3019 0.33801,0.6237 0.23915,0.4136 0.33318,0.5935 0.32138,0.6146 -0.0161,0.028 -0.58468,0.3667 -0.61526,0.366 -0.0134,-1e-4 -0.0241,-0.013 -0.0362,-0.015 z m 152.050591,-24.7777 c -0.023,-0.042 -0.031,-5.3076 -0.013,-5.3651 0.013,-0.027 0.063,-0.031 0.3847,-0.031 0.3214,0 0.3742,0 0.3846,0.031 0,0.017 0.013,0.3322 0.013,0.7002 0,0.4937 0,0.675 0.024,0.6926 0.031,0.03 17.5622,0.035 17.6099,0 0.025,-0.016 0.031,-0.1261 0.04,-0.7187 l 0.014,-0.6999 h 0.3655 c 0.2791,0 0.3692,0 0.3814,0.02 0.013,0.013 0.016,1.2268 0.016,2.6956 3e-4,2.2473 0,2.674 -0.027,2.6932 -0.019,0.016 -0.1372,0.021 -0.3819,0.017 h -0.3545 l -0.013,-0.6962 c -0.013,-0.5496 -0.016,-0.703 -0.037,-0.7289 -0.025,-0.031 -0.6676,-0.032 -8.8079,-0.032 -6.8029,0 -8.7861,0 -8.8044,0.024 -0.018,0.017 -0.024,0.1996 -0.024,0.6956 0,0.4251 -0.013,0.6859 -0.02,0.7101 -0.019,0.036 -0.044,0.039 -0.3761,0.039 -0.3313,0 -0.3571,0 -0.3762,-0.039 z m -159.670821,-0.6396 c -0.0376,-0.039 -0.0349,-5.3579 0,-5.3897 0.0188,-0.016 0.13722,-0.022 0.38174,-0.018 h 0.35451 l 0.0134,0.6983 c 0,0.4486 0.0174,0.7057 0.0308,0.719 0.0148,0.015 2.69723,0.019 8.82673,0.016 h 8.80595 v -0.6926 c 0,-0.4708 0.0134,-0.7009 0.0268,-0.7189 0.0295,-0.036 0.7113,-0.039 0.74711,0 0.0349,0.035 0.0349,5.3528 0,5.3874 -0.0362,0.036 -0.7172,0.034 -0.74711,0 -0.0147,-0.017 -0.0241,-0.2482 -0.0268,-0.719 v -0.6925 h -8.80595 c -6.1295,0 -8.81224,0 -8.82673,0.016 -0.0134,0.013 -0.0241,0.2704 -0.0308,0.7189 l -0.0134,0.6983 h -0.3576 c -0.26142,0 -0.36416,0 -0.38187,-0.019 z m 159.674121,-6.1494 c -0.019,-0.019 -0.024,-0.6435 -0.024,-2.6937 0,-2.05 0,-2.6753 0.024,-2.6936 0.036,-0.036 0.7172,-0.033 0.7471,0 0.015,0.018 0.024,0.2483 0.027,0.7191 v 0.6925 h 8.8058 c 6.1296,0 8.8123,0 8.8267,-0.016 0.014,-0.013 0.024,-0.2704 0.031,-0.719 l 0.013,-0.6982 h 0.3544 c 0.2446,0 0.3629,0 0.3818,0.017 0.042,0.034 0.042,5.3574 0,5.3913 -0.019,0.016 -0.1372,0.021 -0.3818,0.017 h -0.3544 l -0.013,-0.6983 c 0,-0.4485 -0.017,-0.7056 -0.031,-0.719 -0.015,-0.015 -2.6971,-0.019 -8.8267,-0.016 h -8.8058 v 0.6925 c 0,0.4708 -0.013,0.7011 -0.027,0.7191 -0.029,0.036 -0.7113,0.039 -0.7471,0 z m -159.674121,-0.6541 c -0.0322,-0.032 -0.0362,-5.3134 0,-5.3731 0.0188,-0.036 0.0443,-0.039 0.35532,-0.039 0.18416,0 0.349,0 0.36631,0.013 0.0282,0.013 0.0308,0.078 0.0308,0.5443 0,0.2927 0.0134,0.5359 0.0147,0.5403 0.0134,0 0.2916,-0.067 0.62974,-0.1577 0.33815,-0.091 1.07908,-0.2903 1.64632,-0.4421 0.56724,-0.1519 1.41964,-0.3799 1.89406,-0.5069 0.47442,-0.1274 0.86622,-0.2345 0.87064,-0.2389 0,0 0,-0.013 -0.0201,-0.017 -0.0241,-0.014 -3.68148,-0.9882 -4.53026,-1.2138 -0.1855,-0.05 -0.36309,-0.098 -0.39474,-0.1086 -0.1167,-0.038 -0.11133,-0.059 -0.11133,0.4555 0,0.4138 0,0.4753 -0.0308,0.4859 -0.0174,0 -0.18215,0.013 -0.36631,0.013 -0.31078,0 -0.3364,0 -0.35545,-0.039 -0.0134,-0.025 -0.0201,-0.7202 -0.0201,-2.111 0,-1.8579 0,-2.076 0.0308,-2.1039 0.0255,-0.026 0.0858,-0.031 0.34834,-0.031 0.18081,0 0.33385,0.013 0.35571,0.02 0.0376,0.02 0.0389,0.051 0.0389,0.9411 0,0.5063 0.0134,0.9247 0.0148,0.9299 0.0134,0 0.61767,0.1707 1.35378,0.3679 0.7361,0.1972 1.42312,0.3813 1.5268,0.4094 0.10328,0.028 1.23159,0.3307 2.5065,0.6725 l 2.31818,0.6213 2.59114,-0.6945 c 1.42514,-0.3822 3.66217,-0.982 4.97141,-1.3332 l 2.38015,-0.6384 0.0134,-0.911 c 0,-0.5011 0.0174,-0.9223 0.0255,-0.9359 0.0134,-0.019 0.10865,-0.025 0.37114,-0.025 0.3309,0 0.35665,0 0.3757,0.039 0.0322,0.059 0.0282,5.3411 0,5.3728 -0.0349,0.035 -0.72136,0.034 -0.74362,0 -0.0134,-0.013 -0.0201,-0.2264 -0.0255,-0.473 l -0.0134,-0.448 -0.65456,0.1756 c -0.36,0.097 -1.07411,0.2879 -1.58676,0.4249 -2.13147,0.57 -2.77583,0.7441 -2.78402,0.7522 -0.0134,0.014 0,0.018 0.28476,0.091 0.13145,0.035 0.31387,0.083 0.40655,0.1086 0.0925,0.024 0.32487,0.087 0.51573,0.1378 0.19101,0.051 1.12643,0.3017 2.0789,0.5573 0.95259,0.2555 1.73578,0.4646 1.74061,0.4646 0,0 0.0134,-0.2405 0.0134,-0.5344 0,-0.5298 2.7e-4,-0.5348 0.0443,-0.5653 0.0349,-0.025 0.10597,-0.031 0.3639,-0.031 0.28463,0 0.32339,0 0.35263,0.036 0.0295,0.034 0.0322,0.2078 0.0322,2.1039 0,1.3873 0,2.0802 -0.0201,2.1059 -0.0188,0.036 -0.0443,0.039 -0.3761,0.039 -0.3313,0 -0.35706,0 -0.37624,-0.039 -0.0134,-0.025 -0.0201,-0.3355 -0.0201,-0.8727 0,-0.4589 0,-0.8343 -0.0134,-0.8343 0,0 -0.32486,-0.084 -0.70915,-0.1875 -1.59629,-0.4285 -5.12942,-1.3752 -6.02622,-1.6148 l -0.96386,-0.2576 -0.16686,0.047 c -0.0912,0.025 -1.18866,0.3204 -2.43782,0.6547 -1.24916,0.3342 -3.25294,0.8709 -4.45301,1.1924 -1.20006,0.3215 -2.34259,0.6274 -2.53895,0.6799 l -0.35706,0.095 -0.0134,0.8507 -0.0134,0.8506 h -0.35759 c -0.26142,0 -0.36403,0 -0.38173,-0.019 z m 159.662321,-6.157 c -0.021,-0.058 -0.014,-5.3235 0.013,-5.365 0.019,-0.036 0.044,-0.039 0.3761,-0.039 0.3313,0 0.357,0 0.3762,0.039 0.013,0.024 0.02,0.2848 0.02,0.71 0,0.4961 0,0.6779 0.024,0.6955 0.019,0.019 2.0019,0.024 8.8058,0.024 h 8.7819 l 0.031,-0.044 c 0.027,-0.038 0.031,-0.1406 0.031,-0.7219 0,-0.5997 0,-0.6791 0.031,-0.6898 0.062,-0.024 0.6932,-0.014 0.7184,0.013 0.019,0.019 0.024,0.643 0.023,2.6926 -3e-4,1.468 -0.013,2.6802 -0.016,2.6942 -0.013,0.019 -0.102,0.024 -0.3816,0.02 h -0.3655 l -0.013,-0.6999 c -0.013,-0.5931 -0.015,-0.7028 -0.04,-0.7187 -0.048,-0.03 -17.5795,-0.025 -17.6097,0 -0.017,0.017 -0.024,0.199 -0.024,0.6927 0,0.3679 0,0.683 -0.013,0.7002 -0.013,0.027 -0.063,0.031 -0.3847,0.031 -0.3215,0 -0.3742,0 -0.3846,-0.031 z m -5.0098,-26.299099 c -0.013,-0.016 -0.1956,-0.3259 -0.4056,-0.6893 -1.8431,-3.1892 -2.2757,-3.9469 -2.2668,-3.97 0,-0.015 0.1462,-0.1059 0.3125,-0.2013 0.2323,-0.1341 0.3094,-0.1701 0.334,-0.1549 0.017,0.013 0.1837,0.2819 0.3696,0.6028 0.1924,0.3321 0.3519,0.586 0.3701,0.5895 0.017,0 1.3338,-0.7454 2.9249,-1.6641 5.2471,-3.0296 5.6951,-3.2882 7.3657,-4.2526 5.5886,-3.2262 4.9398,-2.8488 4.9645,-2.8877 0.015,-0.024 -0.059,-0.1666 -0.3203,-0.6171 -0.187,-0.3223 -0.3399,-0.6032 -0.3399,-0.6241 0,-0.028 0.076,-0.082 0.2924,-0.2059 0.1607,-0.093 0.3101,-0.1679 0.332,-0.1679 0.032,0 0.1404,0.1742 0.5264,0.843 0.2678,0.4637 0.8656,1.499 1.3286,2.3008 0.466,0.807 0.8422,1.4795 0.8425,1.5062 0,0.042 -0.042,0.072 -0.3005,0.2231 -0.1655,0.097 -0.3133,0.1702 -0.3283,0.1643 -0.015,0 -0.1818,-0.278 -0.3704,-0.605 -0.2651,-0.4596 -0.3517,-0.5943 -0.3817,-0.5943 -0.022,0 -0.4198,0.22 -0.8858,0.4888 -0.4657,0.2688 -1.3601,0.7852 -1.9874,1.1475 -0.6273,0.3624 -2.2384,1.2926 -3.5804,2.0673 -1.3418,0.7746 -3.1895,1.8412 -4.1058,2.3702 -0.9164,0.5292 -2.3357,1.3482 -3.1538,1.8202 -0.8182,0.472 -1.4988,0.8671 -1.5125,0.8781 -0.013,0.014 -0.024,0.035 -0.024,0.052 0,0.017 0.1519,0.2956 0.3377,0.6174 0.1856,0.3217 0.3352,0.5974 0.3322,0.6125 0,0.024 -0.5978,0.3788 -0.6328,0.3791 -0.013,0 -0.023,-0.013 -0.036,-0.03 z m -129.348911,-0.5813 c -0.30568,-0.174 -0.33533,-0.1952 -0.33533,-0.2402 0,-0.017 0.18805,-0.3576 0.41782,-0.7551 l 0.41768,-0.7228 -2.82278,-2.8221 -2.82277,-2.822 -1.74545,-0.4677 c -0.9601,-0.2571 -1.84376,-0.494 -1.9638,-0.5263 -0.46691,-0.1261 -3.6957,-0.991 -4.92689,-1.3201 -0.71331,-0.1906 -1.30536,-0.3439 -1.31542,-0.3406 -0.0134,0 -0.20388,0.3273 -0.43042,0.7198 -0.292,0.5056 -0.42305,0.7152 -0.44988,0.719 -0.0215,0 -0.16726,-0.07 -0.32553,-0.1615 -0.26491,-0.1538 -0.28758,-0.1714 -0.28704,-0.2235 2.7e-4,-0.038 0.36939,-0.6952 1.12924,-2.0105 0.62076,-1.0747 1.21737,-2.1079 1.32575,-2.2959 0.1462,-0.2538 0.20697,-0.3422 0.23486,-0.3422 0.0563,0 0.6103,0.3218 0.62344,0.362 0.0134,0.023 -0.0791,0.1923 -0.24787,0.483 -0.14258,0.2465 -0.25927,0.4542 -0.25927,0.4613 0,0.013 0.5958,0.1723 1.324,0.3672 0.72819,0.1949 1.41776,0.3796 1.53231,0.4107 0.11401,0.031 0.6453,0.1735 1.17954,0.3166 0.53424,0.143 0.97822,0.2644 0.9868,0.2696 0.0134,0 0.0161,0 0.0161,0 0,-0.021 -3.68564,-3.7064 -3.6953,-3.6946 0,0 -0.10865,0.1851 -0.23312,0.4002 -0.1234,0.2152 -0.23835,0.3961 -0.25404,0.4021 -0.0161,0 -0.11804,-0.04 -0.22883,-0.1019 -0.31561,-0.1776 -0.4087,-0.2413 -0.4087,-0.2795 2.7e-4,-0.046 2.06307,-3.6157 2.10371,-3.6409 0.0228,-0.015 0.10462,0.023 0.33036,0.1525 0.16458,0.094 0.30461,0.1854 0.31105,0.2023 0.0147,0.038 0.0536,-0.035 -0.46731,0.8669 -0.23822,0.4124 -0.43311,0.7562 -0.43311,0.7637 0,0.013 1.26968,1.2825 2.82157,2.8329 2.61702,2.6146 2.82801,2.8206 2.91077,2.8417 0.0925,0.023 4.09407,1.0939 4.41343,1.1806 0.24278,0.066 0.37168,0.1006 2.44963,0.6564 0.9982,0.2671 1.91753,0.5132 2.04308,0.5467 0.12474,0.034 0.30837,0.083 0.40655,0.1087 0.0979,0.027 0.25887,0.07 0.35705,0.097 0.13843,0.038 0.1835,0.043 0.20093,0.025 0.0134,-0.013 0.21206,-0.3542 0.443969,-0.7578 0.23192,-0.4036 0.43526,-0.7495 0.45176,-0.7686 0.0161,-0.019 0.0443,-0.035 0.0617,-0.034 0.0443,0 0.5789,0.3191 0.60345,0.3585 0.0161,0.025 -0.2354,0.4754 -1.225819,2.1919 -0.68527,1.1877 -1.28779,2.2308 -1.33889,2.318 -0.0604,0.1019 -0.10731,0.1608 -0.13145,0.1646 -0.0215,0 -0.16766,-0.068 -0.3258,-0.161 -0.21314,-0.1247 -0.28811,-0.1778 -0.29294,-0.21 0,-0.027 0.0751,-0.1838 0.2134,-0.4223 0.12072,-0.2085 0.21662,-0.3825 0.2126,-0.3865 0,0 -0.32326,-0.093 -0.70929,-0.1953 -0.8972,-0.2403 -0.92402,-0.2474 -2.77328,-0.7428 -0.85549,-0.2293 -1.55806,-0.4142 -1.56115,-0.411 0,0 0.82692,0.8382 1.84443,1.8558 l 1.8502,1.8501 0.26652,-0.4609 c 0.14647,-0.2534 0.28033,-0.4695 0.2975,-0.4799 0.0228,-0.015 0.10462,0.023 0.33076,0.1537 0.16472,0.095 0.30462,0.186 0.31092,0.2024 0,0.016 0,0.046 -0.0134,0.066 -0.12609,0.2366 -2.07178,3.5836 -2.08909,3.5946 -0.0349,0.021 -0.0215,0.027 -0.31292,-0.1384 z m 125.920411,-5.3454 c -0.021,-0.035 -0.3894,-0.6714 -0.8174,-1.4133 -0.428,-0.7418 -1.0143,-1.7573 -1.3028,-2.2566 -0.2884,-0.4993 -0.5215,-0.9232 -0.5179,-0.9422 0.013,-0.042 0.602,-0.3892 0.6395,-0.3749 0.013,0 0.1706,0.2627 0.3485,0.5718 0.3389,0.5894 0.3663,0.6317 0.4099,0.6317 0.023,0 1.3216,-0.7441 3.7555,-2.152 0.3437,-0.1988 1.5219,-0.8793 2.6183,-1.5122 1.0963,-0.6328 3.06,-1.7664 4.3638,-2.5191 1.3036,-0.7526 2.8388,-1.6386 3.4116,-1.9688 0.5727,-0.3302 1.0525,-0.6093 1.0662,-0.6202 0.013,-0.013 0.024,-0.036 0.024,-0.055 0,-0.02 -0.1518,-0.299 -0.3373,-0.6205 -0.1855,-0.3215 -0.3325,-0.597 -0.3268,-0.6123 0.014,-0.024 0.5231,-0.3318 0.6058,-0.3627 0.017,0 0.046,0 0.063,0.024 0.064,0.072 2.6748,4.6165 2.6692,4.6457 0,0.016 -0.1431,0.11 -0.3108,0.2075 -0.2338,0.1357 -0.3122,0.1725 -0.3361,0.1573 -0.017,-0.013 -0.1655,-0.2515 -0.3296,-0.5347 -0.3977,-0.6867 -0.382,-0.6618 -0.4172,-0.6618 -0.017,0 -0.7784,0.4316 -1.6917,0.9591 -0.9134,0.5276 -2.5622,1.4794 -3.664,2.1151 -1.1019,0.6358 -2.1685,1.2517 -2.3704,1.3688 -0.2017,0.1167 -1.9646,1.1345 -3.9174,2.2611 -1.9528,1.1265 -3.5678,2.0645 -3.5887,2.0845 -0.038,0.036 -0.032,0.046 0.2569,0.5479 0.3911,0.6786 0.4064,0.7072 0.3902,0.7335 -0.019,0.031 -0.5944,0.3633 -0.6283,0.3633 -0.015,0 -0.044,-0.03 -0.066,-0.064 z M 87.711018,63.121661 c -0.14781,-0.235 -0.31118,-0.5414 -0.30179,-0.5661 0,-0.016 0.34136,-0.2189 0.74509,-0.4518 0.40374,-0.2328 0.73048,-0.4331 0.72592,-0.445 0,-0.013 -0.10328,-0.3788 -0.22065,-0.8151 -0.11669,-0.4365 -0.42532,-1.5879 -0.68581,-2.5588 -0.26034,-0.971 -0.62598,-2.3366 -0.81256,-3.0349 l -0.33908,-1.2694 -3.64393,-3.645096 c -2.00418,-2.0047 -3.65345,-3.6427 -3.66485,-3.6398 -0.0134,0 -0.33372,0.186 -0.71585,0.407 -0.38228,0.2209 -0.71358,0.4017 -0.73625,0.4017 -0.0322,0 -0.0778,-0.062 -0.20575,-0.2826 -0.0899,-0.1555 -0.16472,-0.3045 -0.16512,-0.3311 -6.7e-4,-0.042 0.0335,-0.068 0.22722,-0.1798 0.12608,-0.073 1.16747,-0.6739 2.3155,-1.3366 1.40166,-0.8093 2.09887,-1.2015 2.12234,-1.1937 0.0416,0.013 0.36243,0.5627 0.36243,0.6202 0,0.031 -0.0993,0.097 -0.45632,0.3022 -0.25082,0.1442 -0.45618,0.2683 -0.45618,0.2757 0,0.019 3.67639,3.6926 3.69557,3.6926 0.0134,0 0.0134,-0.013 0,-0.016 0,-0.013 -0.24277,-0.8857 -0.52767,-1.9489 -0.28476,-1.0631 -0.55275,-2.0624 -0.5954,-2.2207 -0.0429,-0.1581 -0.10999,-0.408 -0.14849,-0.5553 -0.0389,-0.1473 -0.0751,-0.2788 -0.0791,-0.2923 0,-0.016 -0.14983,0.058 -0.40333,0.2034 -0.21703,0.1247 -0.4091,0.2277 -0.42694,0.2277 -0.0362,0 -0.0657,-0.044 -0.25914,-0.3812 -0.0952,-0.1667 -0.12877,-0.2413 -0.1167,-0.2634 0.0134,-0.017 0.51654,-0.319 1.12697,-0.671 0.61029,-0.3521 1.41709,-0.8178 1.79279,-1.0347 0.37583,-0.2171 0.70123,-0.395 0.72323,-0.3957 0.0577,0 0.40548,0.5927 0.37516,0.6407 -0.0134,0.018 -0.37046,0.2348 -0.79834,0.482 -0.42788,0.2472 -0.78238,0.4539 -0.78802,0.4595 0,0 0.29938,1.1645 0.6775,2.5754 0.37824,1.4109 0.84327,3.1457 1.03334,3.8547 l 0.34565,1.2892 3.63467,3.635396 c 2.16299,2.1634 3.64701,3.6332 3.66512,3.6298 0.0174,0 0.37584,-0.2047 0.79781,-0.4482 0.51734,-0.2985 0.77917,-0.4391 0.80358,-0.4314 0.0416,0.013 0.36161,0.5621 0.36161,0.6202 0,0.031 -0.49467,0.3241 -2.30825,1.3711 -1.26955,0.7329 -2.3265,1.3326 -2.34863,1.3326 -0.0308,0 -0.0791,-0.067 -0.21246,-0.297 -0.0952,-0.1634 -0.169,-0.3125 -0.16538,-0.3313 0,-0.02 0.16297,-0.1247 0.40011,-0.2614 l 0.39367,-0.2271 -1.85073,-1.8509 c -1.01792,-1.0179 -1.85261,-1.8488 -1.85489,-1.8465 0,0 0.10059,0.3969 0.23003,0.8769 0.12877,0.4799 0.43244,1.6136 0.67495,2.5191 0.24237,0.9054 0.44289,1.6488 0.44558,1.6517 0,0 0.21702,-0.1167 0.47629,-0.2661 0.35398,-0.204 0.47885,-0.2669 0.50152,-0.2527 0.0161,0.013 0.10596,0.1512 0.19959,0.3128 0.13278,0.2307 0.16511,0.3008 0.14928,0.3265 -0.0134,0.017 -0.14446,0.1046 -0.29616,0.1928 -1.81639,1.0535 -3.2976,1.9016 -3.33314,1.9084 -0.0335,0 -0.055,-0.013 -0.0926,-0.068 z m 76.391142,-4.6169 c -1.7005,-0.9826 -2.3122,-1.3456 -2.3167,-1.374 0,-0.038 0.2825,-0.5592 0.3405,-0.6171 0.034,-0.034 -0.024,-0.063 0.6687,0.3356 0.3009,0.1731 0.5646,0.3149 0.5859,0.3149 0.031,0 0.167,-0.2219 0.6263,-1.0166 0.6307,-1.0914 1.8901,-3.2725 3.7249,-6.451396 0.6298,-1.091 1.5805,-2.7377 2.1128,-3.6596 0.5323,-0.9219 1.2835,-2.2231 1.6696,-2.8915 0.5518,-0.9559 0.6976,-1.2227 0.683,-1.2497 -0.014,-0.019 -0.2358,-0.1585 -0.5013,-0.3103 -0.6077,-0.3478 -0.6909,-0.4006 -0.6909,-0.4382 0,-0.017 0.076,-0.1642 0.1702,-0.3276 0.1181,-0.2049 0.181,-0.297 0.205,-0.297 0.019,0 0.9176,0.5095 1.9968,1.1322 2.8058,1.619 2.6555,1.5301 2.6615,1.5754 0.013,0.06 -0.3191,0.6135 -0.3674,0.6209 -0.023,0 -0.2842,-0.1353 -0.6255,-0.3322 -0.3533,-0.2041 -0.5981,-0.3336 -0.6164,-0.3267 -0.017,0 -0.2913,0.4639 -0.6101,1.0166 -0.319,0.5526 -0.7064,1.2236 -0.861,1.4909 -0.1545,0.2672 -0.6854,1.1866 -1.1796,2.0429 -0.4942,0.8565 -1.1951,2.0703 -1.5574,2.6977 -0.3622,0.6273 -1.2099,2.095596 -1.8838,3.262996 -0.6739,1.1672 -1.5634,2.7079 -1.9768,3.4238 -0.4243,0.7346 -0.7469,1.3138 -0.7407,1.3299 0,0.016 0.2784,0.1832 0.6055,0.3723 0.4266,0.2468 0.5944,0.3539 0.5944,0.3791 0,0.036 -0.278,0.5364 -0.3329,0.5991 -0.017,0.019 -0.04,0.035 -0.052,0.034 -0.013,0 -1.0615,-0.6017 -2.3325,-1.3362 z m -66.265892,-1.2067 c -0.21662,-0.3583 -0.32352,-0.5623 -0.30769,-0.5874 0.0134,-0.015 0.26276,-0.1702 0.56238,-0.3439 0.6567,-0.3807 0.6339,-0.3661 0.6339,-0.4066 0,-0.017 -0.1086,-0.2207 -0.241,-0.4506 -0.1328,-0.2301 -0.90337,-1.5652 -1.71285,-2.967 -0.80948,-1.401896 -1.85825,-3.218296 -2.33052,-4.036496 -0.88003,-1.5247 -1.35204,-2.3424 -2.77141,-4.8002 -0.44732,-0.7746 -1.01161,-1.752 -1.25412,-2.1719 -0.41634,-0.7213 -0.48555,-0.8331 -0.5156,-0.8331 -0.0134,0 -0.27537,0.1517 -0.59674,0.3372 -0.32138,0.1853 -0.59943,0.3372 -0.61781,0.3372 -0.0416,0 -0.0711,-0.043 -0.25136,-0.3599 -0.0778,-0.1379 -0.13762,-0.2632 -0.13145,-0.2783 0,-0.015 0.0979,-0.078 0.20361,-0.1394 0.10596,-0.062 0.73732,-0.4258 1.40274,-0.8099 0.66556,-0.384 1.61775,-0.9336 2.11604,-1.2215 0.4983,-0.2878 0.91947,-0.5234 0.93583,-0.5234 0.0376,0 0.0684,0.046 0.24962,0.3617 0.0791,0.1389 0.13976,0.2649 0.13413,0.2798 0,0.015 -0.2633,0.1723 -0.57247,0.3499 -0.58186,0.3341 -0.63149,0.3663 -0.63149,0.4086 0,0.013 0.0926,0.1843 0.20509,0.3787 0.11267,0.1945 0.42399,0.7329 0.69171,1.1966 0.47952,0.8307 3.80716,6.5951 4.88933,8.4697 0.30542,0.5291 0.94202,1.6314 1.41442,2.449596 0.4725,0.8182 1.021302,1.7689 1.219502,2.1125 0.2697,0.4678 0.3705,0.6263 0.4012,0.6309 0.024,0 0.2727,-0.1288 0.6258,-0.3325 0.3535,-0.2044 0.5972,-0.3339 0.6156,-0.3269 0.046,0.017 0.375,0.5993 0.3614,0.6394 -0.013,0.028 -0.9665,0.5867 -4.063602,2.3694 -0.3175,0.1827 -0.58787,0.3323 -0.60101,0.3323 -0.0134,0 -0.0416,-0.03 -0.063,-0.064 z m 19.489292,-8.267996 c -0.031,-0.017 -0.035,-0.058 -0.035,-0.3756 0,-0.331 0,-0.3567 0.039,-0.3759 0.024,-0.013 0.3342,-0.02 0.8679,-0.02 h 0.8293 l 0.5806,-2.1669 c 0.3192,-1.1918 0.7811,-2.9159 1.0265,-3.8315 0.2453,-0.9154 0.4459,-1.682 0.4459,-1.7036 0,-0.021 -0.1073,-0.4372 -0.2371,-0.924 -0.1301,-0.4867 -0.5313,-1.9828 -0.8909,-3.3247 -0.3597,-1.3418 -0.8476,-3.1628 -1.0842,-4.0464 -0.2366,-0.8837 -0.4384,-1.6223 -0.4486,-1.6414 -0.017,-0.032 -0.078,-0.035 -0.8468,-0.035 -0.6178,0 -0.8345,0 -0.8522,-0.024 -0.016,-0.016 -0.024,-0.1234 -0.024,-0.3556 0,-0.2752 0,-0.3372 0.031,-0.3631 0.028,-0.028 0.2999,-0.031 2.6962,-0.031 2.3963,0 2.6682,0 2.6962,0.031 0.025,0.026 0.031,0.089 0.031,0.3631 0,0.2317 -0.013,0.339 -0.024,0.3556 -0.017,0.017 -0.1683,0.024 -0.5553,0.024 -0.2924,0 -0.5317,0 -0.5317,0.014 0,0 0.1207,0.4632 0.2692,1.0165 0.898,3.3561 1.062,3.9653 1.0775,4.001 0.015,0.035 0.02,0.03 0.039,-0.04 0.013,-0.044 0.2544,-0.9495 0.5393,-2.0132 0.2848,-1.0638 0.5797,-2.1642 0.6554,-2.4455 0.075,-0.2812 0.1376,-0.5154 0.1376,-0.5203 0,0 -0.2165,-0.013 -0.481,-0.015 h -0.481 v -0.3569 c 0,-0.3182 0,-0.3596 0.028,-0.3819 0.052,-0.039 4.1776,-0.036 4.2098,0 0.016,0.019 0.022,0.1372 0.017,0.3819 v 0.3545 h -0.9267 c -0.8575,0 -0.928,0.013 -0.9443,0.04 -0.013,0.019 -0.05,0.1549 -0.089,0.3022 -0.039,0.1473 -0.4014,1.4996 -0.8046,3.0051 -0.4034,1.5056 -0.8322,3.1066 -0.953,3.5581 l -0.2199,0.8207 0.338,1.2619 c 0.1861,0.6941 0.3647,1.3602 0.3972,1.4801 0.055,0.2036 0.8968,3.3451 1.6169,6.035 l 0.3147,1.1752 h 0.9067 c 0.7978,0 0.9105,0 0.9379,0.031 0.026,0.026 0.031,0.089 0.031,0.3655 0,0.2775 0,0.3396 -0.031,0.3655 -0.028,0.028 -0.2997,0.031 -2.6936,0.031 -2.0444,0 -2.668,0 -2.6863,-0.024 -0.016,-0.017 -0.024,-0.1274 -0.024,-0.3729 0,-0.245 0.013,-0.3562 0.024,-0.3729 0.017,-0.017 0.1485,-0.024 0.4661,-0.024 0.3119,0 0.4424,0 0.4424,-0.022 0,-0.013 -0.2683,-1.023 -0.5961,-2.2464 -0.3278,-1.2233 -0.6288,-2.347 -0.6689,-2.497 -0.04,-0.1499 -0.078,-0.2727 -0.083,-0.2725 0,2e-4 -0.1127,0.3817 -0.2365,0.848 -0.1248,0.4662 -0.4255,1.5922 -0.6695,2.5023 -0.2438,0.9101 -0.4434,1.662 -0.4434,1.6711 0,0.013 0.2326,0.016 0.5171,0.016 0.3184,0 0.5317,0.013 0.5553,0.02 0.036,0.019 0.039,0.044 0.039,0.3729 0,0.2476 -0.013,0.3595 -0.024,0.3763 -0.031,0.031 -4.1524,0.034 -4.2061,0 z m 11.6721,0 c -0.036,-0.036 -0.034,-0.7172 0,-0.7471 0.017,-0.015 0.2483,-0.024 0.7191,-0.027 h 0.6925 v -8.806 c 0,-6.1295 0,-8.8122 -0.016,-8.8267 -0.013,-0.013 -0.2705,-0.024 -0.7191,-0.031 l -0.6981,-0.014 v -0.3653 c 0,-0.2792 5e-4,-0.3694 0.02,-0.3816 0.013,-0.013 1.2269,-0.016 2.6956,-0.016 2.2474,-3e-4 2.6741,0 2.6931,0.027 0.016,0.019 0.022,0.1372 0.017,0.3819 v 0.3543 l -0.7008,0.014 c -0.6646,0.013 -0.7023,0.013 -0.7289,0.048 -0.024,0.034 -0.028,1.2664 -0.028,8.7934 0,5.997 0,8.7669 0.02,8.7932 0.02,0.036 0.048,0.039 0.6956,0.039 0.4273,0 0.689,0.013 0.7133,0.02 0.036,0.019 0.039,0.046 0.039,0.3762 0,0.3313 0,0.3571 -0.039,0.3761 -0.059,0.032 -5.3411,0.028 -5.3727,0 z m 6.791,-0.013 c -0.025,-0.025 -0.031,-0.088 -0.031,-0.3655 0,-0.2775 0,-0.3396 0.031,-0.3655 0.027,-0.027 0.1194,-0.031 0.7101,-0.031 0.5017,0 0.6852,0 0.7027,-0.024 0.019,-0.019 0.024,-2.0018 0.024,-8.8057 v -8.782 l -0.044,-0.031 c -0.037,-0.027 -0.1405,-0.031 -0.7219,-0.031 -0.5997,0 -0.6791,0 -0.6898,-0.031 0,-0.017 -0.013,-0.1773 -0.013,-0.3556 0,-0.2684 0,-0.3297 0.031,-0.3554 0.028,-0.028 0.3,-0.031 2.6962,-0.031 2.3962,0 2.6681,0 2.6962,0.031 0.025,0.026 0.031,0.087 0.031,0.3554 0,0.1783 0,0.3383 -0.013,0.3556 -0.013,0.028 -0.09,0.031 -0.69,0.031 -0.5813,0 -0.6839,0 -0.7217,0.031 l -0.044,0.031 v 8.782 c 0,6.8039 0,8.7873 0.024,8.8057 0.017,0.017 0.2012,0.024 0.7029,0.024 0.5907,0 0.6828,0 0.7101,0.031 0.025,0.025 0.031,0.088 0.031,0.3655 0,0.2775 0,0.3396 -0.031,0.3655 -0.028,0.028 -0.2999,0.031 -2.6962,0.031 -2.3964,0 -2.6682,0 -2.6963,-0.031 z"
     style="fill:#000000;stroke-width:0.01983533" />
  <ellipse
     ry="94.45105"
     rx="94.451042"
     cy="119.18201"
     cx="128.16299"
     id="path118"
     style="opacity:1;fill:none;fill-opacity:1;stroke:#000000;stroke-width:1;stroke-miterlimit:4;stroke-dasharray:none;stroke-opacity:1" />
  <text
     id="text927"
     y="230.54091"
     x="97.178932"
     style="font-style:normal;font-weight:normal;font-size:13.33333302px;line-height:1.25;font-family:sans-serif;letter-spacing:0px;word-spacing:0px;fill:#000000;fill-opacity:1;stroke:none"
     xml:space="preserve"><tspan
       y="230.54091"
       x="97.178932"
       id="tspan925">50.00mm</tspan></text>
</svg>
