<?xml version="1.0" encoding="UTF-8" standalone="no"?>
<!-- Created with Inkscape (http://www.inkscape.org/) -->

<svg
   xmlns:dc="http://purl.org/dc/elements/1.1/"
   xmlns:cc="http://creativecommons.org/ns#"
   xmlns:rdf="http://www.w3.org/1999/02/22-rdf-syntax-ns#"
   xmlns:svg="http://www.w3.org/2000/svg"
   xmlns="http://www.w3.org/2000/svg"
   xmlns:sodipodi="http://sodipodi.sourceforge.net/DTD/sodipodi-0.dtd"
   xmlns:inkscape="http://www.inkscape.org/namespaces/inkscape"
   width="100mm"
   height="100mm"
   viewBox="0 0 100 100"
   version="1.1"
   id="svg122"
   inkscape:version="0.92.2 5c3e80d, 2017-08-06"
   sodipodi:docname="40mm_sq.svg">
  <defs
     id="defs116" />
  <sodipodi:namedview
     id="base"
     pagecolor="#ffffff"
     bordercolor="#666666"
     borderopacity="1.0"
     inkscape:pageopacity="0.0"
     inkscape:pageshadow="2"
     inkscape:zoom="0.7"
     inkscape:cx="274.55844"
     inkscape:cy="372.90218"
     inkscape:document-units="mm"
     inkscape:current-layer="layer1"
     showgrid="false"
     inkscape:window-width="1440"
     inkscape:window-height="805"
     inkscape:window-x="0"
     inkscape:window-y="1"
     inkscape:window-maximized="1" />
  <metadata
     id="metadata119">
    <rdf:RDF>
      <cc:Work
         rdf:about="">
        <dc:format>image/svg+xml</dc:format>
        <dc:type
           rdf:resource="http://purl.org/dc/dcmitype/StillImage" />
        <dc:title></dc:title>
      </cc:Work>
    </rdf:RDF>
  </metadata>
  <g
     inkscape:label="Layer 1"
     inkscape:groupmode="layer"
     id="layer1"
     transform="translate(0,-197)">
    <path
       style="fill:#000000;stroke-width:0.0273398"
       d="m 48.787484,267.30888 c -0.12783,-0.0122 -0.44154,-0.0422 -0.69716,-0.0665 -3.2369,-0.30848 -5.88941,-0.95765 -7.43144,-1.81876 -0.61488,-0.34336 -0.84862,-0.52225 -1.90511,-1.45796 -0.51748,-0.45832 -1.7696,-1.718 -2.08331,-2.09586 -0.68978,-0.83089 -2.36737,-3.36857 -3.13375,-4.74033 -0.79351,-1.42034 -1.30779,-2.76886 -1.5863,-4.15938 -0.23548,-1.17576 -0.34136,-2.39684 -0.34238,-3.94842 0,-1.68092 0.15565,-2.98718 0.54455,-4.53841 0.48448,-1.93236 1.28386,-3.57553 2.78648,-5.72782 1.48117,-2.12154 3.08266,-3.83599 4.77142,-5.10795 1.02833,-0.77456 2.20428,-1.47925 3.74572,-2.24467 2.79356,-1.38716 5.01261,-2.03566 7.35442,-2.14931 0.61775,-0.03 0.88921,-0.0217 1.51738,0.0461 1.91721,0.20707 4.34156,1.18874 6.94429,2.8119 2.38291,1.48607 4.16002,2.79423 5.1816,3.81422 0.39566,0.39506 0.59787,0.64698 0.97707,1.2172 0.87582,1.31706 1.6059,2.8676 2.54868,5.41287 0.38548,1.04072 0.46571,1.3295 0.92641,3.33545 0.48685,2.1199 0.65801,3.33586 0.66153,4.70045 0.003,0.7728 -0.0708,1.30809 -0.30398,2.23569 -0.54572,2.17065 -2.15886,6.14858 -2.89478,7.13838 -0.0537,0.0722 -0.18983,0.20856 -0.3026,0.30308 -0.29122,0.24411 -0.94717,0.85848 -1.69258,1.58534 -1.10739,1.07983 -1.61589,1.51093 -2.58154,2.18864 -0.63509,0.4457 -1.75239,1.03404 -2.61552,1.37723 -2.5108,0.99837 -5.42429,1.61328 -8.69404,1.83494 -1.01067,0.0685 -1.40969,0.0812 -1.69506,0.0539 z m 2.62927,-1.2834 c 1.18838,-0.0818 3.21603,-0.42246 4.71146,-0.79151 1.6443,-0.40579 2.8253,-0.86944 4.00357,-1.57173 1.67789,-1.00007 3.8651,-2.74815 5.15526,-4.12019 0.55702,-0.59237 0.91709,-1.2441 1.54056,-2.78858 1.36947,-3.39233 1.8478,-5.8022 1.57589,-7.93953 -0.21037,-1.65383 -0.85477,-4.16467 -1.74996,-6.81863 -0.52518,-1.55701 -0.8367,-2.24959 -1.38344,-3.07572 -0.68027,-1.02797 -1.328,-1.83179 -2.15638,-2.67605 -0.89143,-0.90854 -1.59914,-1.50366 -2.63048,-2.21202 -1.43441,-0.98519 -3.40684,-1.91277 -6.17311,-2.90303 -0.86756,-0.31057 -0.91827,-0.32204 -2.00566,-0.45345 l -0.98044,-0.11848 -0.64629,0.0735 c -0.70797,0.0805 -2.20683,0.27159 -2.49703,0.3184 -0.68995,0.11128 -1.91141,0.59068 -3.8441,1.50872 -2.42909,1.15383 -3.53507,1.80803 -4.44824,2.63119 -2.30061,2.07388 -4.24708,4.28473 -5.32273,6.04577 -0.53899,0.88243 -1.00041,1.87371 -1.30446,2.80234 -0.32377,0.98883 -0.60009,2.42004 -0.71782,3.71822 -0.0454,0.5001 -0.0457,2.06683 0,2.5836 0.14996,1.71653 0.44022,3.0251 0.91138,4.10871 0.57442,1.3212 2.06483,3.86212 3.09777,5.28121 1.05344,1.44727 2.34079,2.79742 3.70021,3.88073 0.96744,0.77096 1.9308,1.35374 2.69117,1.62801 0.86361,0.31151 2.374,0.57382 4.5184,0.78474 0.78584,0.0773 1.00506,0.0878 2.15959,0.10392 0.70673,0.01 1.30554,0.0203 1.33065,0.0233 0.0251,0.003 0.23427,-0.008 0.46478,-0.0235 z m 2.86601,-6.06979 c -0.60472,-0.0562 -1.16302,-0.25242 -1.66917,-0.58667 -0.30215,-0.19952 -0.76749,-0.67935 -1.00346,-1.03469 -0.5465,-0.82294 -1.07006,-2.15237 -1.33388,-3.38678 l -0.0452,-0.21188 -3.62661,-5.3e-4 c -2.36666,0 -3.66129,-0.01 -3.72643,-0.0279 -0.12146,-0.0337 -0.55522,-0.47429 -0.67714,-0.68775 -0.12947,-0.22669 -0.12947,-0.28353 0,-0.59567 0.12688,-0.30577 0.10014,-0.28977 0.41264,-0.24663 0.58575,0.0809 1.38377,0.0896 9.15399,0.1003 5.10546,0.007 7.94882,0.001 8.01057,-0.0159 0.0526,-0.0147 0.20249,-0.0598 0.33307,-0.10016 0.41995,-0.12993 0.65957,-0.0694 0.79233,0.20016 0.0546,0.11093 0.0639,0.17115 0.0639,0.41674 0,0.24166 -0.01,0.30868 -0.0628,0.42376 -0.12574,0.27339 -0.3715,0.45236 -0.69279,0.5045 -0.0956,0.0155 -0.56956,0.0283 -1.05314,0.0284 l -0.87926,5.2e-4 0.0379,0.14354 c 0.14507,0.54949 0.15607,1.23255 0.0278,1.72155 -0.0914,0.34831 -0.22829,0.69324 -0.44528,1.12219 -0.70617,1.39598 -1.61057,2.10453 -2.85136,2.23393 -0.29102,0.0304 -0.42848,0.0301 -0.76553,-0.001 z m 0.62853,-1.38036 c 0.56179,-0.10657 0.9868,-0.34975 1.2836,-0.73443 0.16828,-0.21812 0.61043,-0.9615 0.78188,-1.31448 0.20841,-0.42916 0.27182,-0.67805 0.24371,-0.95687 -0.0291,-0.28815 -0.0307,-0.48474 -0.005,-0.67668 l 0.0209,-0.1572 h -1.24419 c -0.75351,0 -1.24422,0.0101 -1.24422,0.0256 0,0.014 0.0127,0.0592 0.0284,0.1004 0.0157,0.0412 0.0339,0.21729 0.0405,0.39137 0.007,0.17409 0.0261,0.46531 0.0431,0.64717 0.0238,0.25232 0.0235,0.34491 0,0.3909 -0.10817,0.20216 -0.54902,0.086 -0.86531,-0.22809 -0.19568,-0.19428 -0.30486,-0.40641 -0.47418,-0.92115 -0.10942,-0.33266 -0.11699,-0.34644 -0.20126,-0.36649 -0.0482,-0.0115 -0.45202,-0.0254 -0.89754,-0.031 l -0.80997,-0.0102 0.0222,0.11874 c 0.1104,0.59104 0.53894,1.95182 0.77931,2.47484 0.32566,0.7085 0.91033,1.17753 1.58395,1.27069 0.20841,0.0288 0.70852,0.0163 0.91559,-0.023 z m -0.67058,-12.22966 c -0.25853,-0.11744 -0.48666,-0.54204 -0.42044,-0.78251 0.0193,-0.0693 0.31272,-0.50467 0.80212,-1.18928 0.42463,-0.59396 0.78166,-1.09636 0.79342,-1.11645 0.0151,-0.0255 -0.21828,-0.2781 -0.76955,-0.83386 -0.49668,-0.50071 -0.80925,-0.83701 -0.84017,-0.90395 -0.20436,-0.44261 0.22274,-1.05534 0.73566,-1.05534 0.0661,0 0.15486,0.013 0.19717,0.029 0.0423,0.0159 0.41216,0.36313 0.82182,0.77153 0.64221,0.64023 0.74996,0.73701 0.78189,0.70236 0.0202,-0.0221 0.26803,-0.36007 0.55043,-0.75102 0.28239,-0.39096 0.55039,-0.75001 0.59558,-0.79787 0.196,-0.20773 0.55056,-0.2687 0.80317,-0.13813 0.36768,0.19004 0.51092,0.60613 0.34091,0.99041 -0.0297,0.0675 -0.31491,0.48879 -0.63346,0.93609 -0.31851,0.44731 -0.58556,0.83002 -0.59339,0.85049 -0.009,0.023 0.34319,0.3952 0.91811,0.97089 0.69314,0.6941 0.94654,0.96523 0.98758,1.05669 0.147,0.32759 0,0.71845 -0.3506,0.92377 -0.10265,0.0603 -0.15917,0.074 -0.30382,0.0736 -0.15339,-5.2e-4 -0.20508,-0.0151 -0.37773,-0.10686 -0.17736,-0.0943 -0.2872,-0.19575 -0.96901,-0.89535 -0.42293,-0.43398 -0.7781,-0.78573 -0.7893,-0.78168 -0.0111,0.004 -0.3235,0.4195 -0.69402,0.92323 -0.73053,0.99317 -0.80279,1.08109 -0.93512,1.13787 -0.13172,0.0565 -0.51451,0.0485 -0.65125,-0.0136 z m -11.03073,-0.10959 c -0.21278,-0.0688 -0.37538,-0.21712 -0.46298,-0.42245 -0.0886,-0.20773 -0.0974,-0.32108 -0.0356,-0.45868 0.0297,-0.0659 0.39955,-0.59968 0.82208,-1.18612 0.4225,-0.58644 0.76866,-1.07991 0.76922,-1.09659 0,-0.0167 -0.35302,-0.37962 -0.78574,-0.80652 -0.50165,-0.49491 -0.80585,-0.81582 -0.83942,-0.88555 -0.10755,-0.22346 -0.0406,-0.56062 0.15774,-0.79513 0.0843,-0.0997 0.34642,-0.24336 0.49067,-0.26898 0.23979,-0.0426 0.27414,-0.0175 1.09318,0.79836 0.41682,0.41521 0.76289,0.74944 0.76906,0.74273 0.006,-0.007 0.26584,-0.36284 0.57707,-0.79139 0.31119,-0.42855 0.59871,-0.80654 0.63891,-0.83998 0.0954,-0.0794 0.33829,-0.17159 0.45201,-0.17159 0.27747,0 0.60483,0.25023 0.68632,0.52461 0.0532,0.17923 0.0527,0.24021 -0.004,0.4415 -0.0389,0.13884 -0.14092,0.29186 -0.684,1.02637 l -0.63822,0.8632 0.95627,0.95755 c 0.71218,0.71314 0.97038,0.98897 1.01149,1.08059 0.0731,0.16301 0.0729,0.37552 0,0.53178 -0.0664,0.14125 -0.28596,0.35656 -0.42123,0.41308 -0.13436,0.0561 -0.34201,0.0487 -0.52557,-0.0189 -0.1456,-0.0536 -0.22641,-0.12605 -1.01241,-0.90788 -0.63048,-0.62717 -0.86218,-0.84164 -0.8848,-0.81903 -0.017,0.0169 -0.3349,0.45922 -0.70682,0.98306 -0.79048,1.1134 -0.79051,1.11343 -1.13122,1.12227 -0.12277,0.003 -0.25406,-0.004 -0.29173,-0.0164 z"
       id="path74"
       inkscape:connector-curvature="0" />
    <rect
       style="fill:none;fill-opacity:1;stroke:#000000;stroke-width:0.12102009;stroke-miterlimit:4;stroke-dasharray:none;stroke-opacity:1"
       id="rect76"
       width="39.878983"
       height="39.878983"
       x="30.709328"
       y="228.20087" />
    <text
       xml:space="preserve"
       style="font-style:normal;font-weight:normal;font-size:3.52777767px;line-height:1.25;font-family:sans-serif;letter-spacing:0px;word-spacing:0px;fill:#000000;fill-opacity:1;stroke:none;stroke-width:0.26458332"
       x="43.585297"
       y="272.07159"
       id="text80"><tspan
         sodipodi:role="line"
         id="tspan78"
         x="43.585297"
         y="272.07159"
         style="stroke-width:0.26458332">40.00mm</tspan><tspan
         sodipodi:role="line"
         x="43.585297"
         y="276.48132"
         id="tspan82"
         style="stroke-width:0.26458332" /></text>
  </g>
</svg>
