<?xml version="1.0" encoding="UTF-8" standalone="no"?>
<!-- Created with Inkscape (http://www.inkscape.org/) -->

<svg
   xmlns:dc="http://purl.org/dc/elements/1.1/"
   xmlns:cc="http://creativecommons.org/ns#"
   xmlns:rdf="http://www.w3.org/1999/02/22-rdf-syntax-ns#"
   xmlns:svg="http://www.w3.org/2000/svg"
   xmlns="http://www.w3.org/2000/svg"
   xmlns:sodipodi="http://sodipodi.sourceforge.net/DTD/sodipodi-0.dtd"
   xmlns:inkscape="http://www.inkscape.org/namespaces/inkscape"
   version="1.1"
   id="svg1265"
   width="60mm"
   height="60mm"
   viewBox="0 0 226.77165 226.77165"
   sodipodi:docname="40mm_sq.svg"
   inkscape:version="0.92.2 5c3e80d, 2017-08-06">
  <metadata
     id="metadata1271">
    <rdf:RDF>
      <cc:Work
         rdf:about="">
        <dc:format>image/svg+xml</dc:format>
        <dc:type
           rdf:resource="http://purl.org/dc/dcmitype/StillImage" />
        <dc:title />
      </cc:Work>
    </rdf:RDF>
  </metadata>
  <defs
     id="defs1269" />
  <sodipodi:namedview
     pagecolor="#ffffff"
     bordercolor="#666666"
     borderopacity="1"
     objecttolerance="10"
     gridtolerance="10"
     guidetolerance="10"
     inkscape:pageopacity="0"
     inkscape:pageshadow="2"
     inkscape:window-width="1440"
     inkscape:window-height="805"
     id="namedview1267"
     showgrid="false"
     units="mm"
     inkscape:zoom="1.8101934"
     inkscape:cx="132.86376"
     inkscape:cy="112.15266"
     inkscape:window-x="0"
     inkscape:window-y="1"
     inkscape:window-maximized="1"
     inkscape:current-layer="svg1265" />
  <path
     style="fill:#000000;stroke-width:0.02970856"
     d="m 107.91265,158.57593 c -0.20503,-0.0309 -0.2235,-0.0395 -0.23132,-0.10798 -0.008,-0.0679 0.015,-0.0833 0.26738,-0.18535 0.30377,-0.12243 1.90594,-0.50388 2.90508,-0.69181 0.31863,-0.0602 0.66923,-0.13592 0.77911,-0.16902 0.66714,-0.20048 1.42396,-1.07102 1.59579,-1.83557 0.0189,-0.0843 0.0304,-1.06836 0.0308,-2.66277 l 8.6e-4,-2.5291 -0.18839,-0.36744 c -0.10362,-0.2022 -1.04118,-2.06536 -2.08346,-4.14053 -1.04228,-2.07508 -2.13895,-4.25419 -2.43703,-4.8424 -0.2981,-0.5883 -1.22047,-2.41983 -2.04974,-4.07013 -0.82926,-1.65029 -1.87874,-3.73587 -2.33218,-4.63452 -0.45343,-0.89865 -1.47618,-2.93075 -2.27279,-4.51571 -0.79661,-1.58496 -1.74578,-3.46996 -2.10928,-4.18885 -0.3635,-0.71898 -1.39288,-2.7644 -2.287511,-4.54546 -0.894647,-1.78106 -1.98418,-3.94684 -2.421205,-4.81282 -0.437016,-0.86599 -1.386222,-2.75099 -2.109341,-4.18885 -0.723119,-1.43796 -1.765921,-3.51003 -2.317356,-4.60487 -0.551426,-1.09475 -1.540669,-3.05997 -2.198312,-4.36715 -1.800654,-3.579053 -4.638023,-9.21557 -6.625053,-13.160865 -0.551383,-1.094754 -1.627576,-3.233798 -2.391557,-4.753335 -0.763973,-1.519622 -1.773324,-3.524982 -2.243,-4.456305 -0.469649,-0.93141 -1.492343,-2.96342 -2.272641,-4.515712 -0.78029,-1.552292 -1.796338,-3.570976 -2.25789,-4.486052 -0.461544,-0.914989 -1.450795,-2.880199 -2.19833,-4.367153 -0.747534,-1.486868 -1.783623,-3.545701 -2.302414,-4.575117 -0.518792,-1.02933 -1.56168,-3.101489 -2.317537,-4.604778 -0.755857,-1.503288 -1.658286,-3.294665 -2.005393,-3.980971 -1.907576,-3.771461 -2.395677,-4.769068 -2.412321,-4.930263 -0.02244,-0.21725 0.0564,-0.455819 0.206958,-0.626902 0.142851,-0.162312 0.161317,-0.172114 0.720781,-0.384633 5.192776,-1.97226 11.181686,-3.761316 17.156102,-5.124988 4.464696,-1.0191 9.291992,-1.880185 13.977883,-2.493244 1.537711,-0.201173 2.378129,-0.298491 4.887047,-0.565861 2.07641,-0.22129 5.46744,-0.476795 8.08074,-0.609019 3.07921,-0.15578 5.16603,-0.205299 8.66004,-0.205729 3.39218,-2.57e-4 4.95876,0.03353 8.03616,0.176413 9.54501,0.441547 19.35375,1.777192 28.16371,3.835079 1.09474,0.255764 1.13894,0.266424 2.32695,0.563196 0.98842,0.246995 1.41679,0.358413 2.78293,0.724478 1.38135,0.370105 3.19805,0.902867 4.93162,1.446376 1.9599,0.614434 4.62861,1.526328 4.86187,1.661302 0.25211,0.145807 0.42109,0.497429 0.38532,0.801766 -0.0198,0.168331 -0.17957,0.498373 -2.57349,5.316101 -0.6739,1.356278 -1.48938,3.000645 -1.8122,3.654196 -0.32282,0.653552 -1.11157,2.244445 -1.75279,3.535299 -0.64121,1.290854 -1.45,2.921809 -1.79733,3.62445 -0.3473,0.702641 -1.1027,2.226648 -1.67865,3.386741 -0.57594,1.160178 -1.42484,2.871344 -1.88642,3.802754 -0.46159,0.931324 -1.25697,2.535627 -1.76749,3.565044 -0.51055,1.029331 -1.27259,2.56675 -1.69346,3.416486 -0.42086,0.849566 -1.27654,2.574144 -1.90147,3.832329 -0.62496,1.258185 -1.42708,2.875814 -1.78253,3.59479 -0.35544,0.71889 -1.15751,2.336605 -1.78239,3.594705 -0.62486,1.258185 -1.44701,2.915877 -1.82702,3.683856 -0.37999,0.767979 -1.13542,2.291986 -1.67873,3.386739 -0.54331,1.09484 -1.37214,2.765859 -1.84186,3.713597 -0.46972,0.94766 -1.27178,2.56538 -1.78238,3.59479 -0.51059,1.02933 -1.27267,2.56675 -1.69351,3.4164 -0.42085,0.84974 -1.26978,2.56091 -1.88653,3.80276 -0.61674,1.24176 -1.42556,2.8728 -1.79736,3.62445 -0.3718,0.75155 -1.16053,2.34254 -1.75272,3.5353 -0.5922,1.19275 -1.42104,2.86394 -1.84187,3.7136 -0.42082,0.84965 -1.16958,2.36033 -1.66388,3.35708 -0.49432,0.99675 -1.30979,2.64103 -1.81218,3.65411 -0.50238,1.01308 -1.32448,2.67077 -1.8269,3.68386 -0.50242,1.01308 -1.25115,2.52376 -1.66382,3.35707 -0.41269,0.83333 -1.27501,2.57131 -1.91624,3.86208 -0.64123,1.29085 -1.43668,2.89507 -1.76763,3.56505 -0.33097,0.66988 -1.11969,2.26077 -1.75271,3.5353 -0.63304,1.27451 -1.47023,2.96358 -1.86042,3.75348 l -0.70944,1.43624 5.5e-4,2.44072 c 5.6e-4,2.66888 -0.002,2.62898 0.17673,3.05764 0.24098,0.57884 0.71244,1.073 1.28112,1.3427 0.21409,0.10161 0.54053,0.18121 2.25521,0.55029 0.92369,0.19877 1.44229,0.33177 1.65095,0.42323 0.19745,0.0866 0.22083,0.10532 0.21377,0.17143 -0.008,0.0696 -0.0237,0.0765 -0.26045,0.10919 -0.35364,0.049 -12.18345,0.0482 -12.50731,0 z m 8.37611,-14.2796 c 0.51376,-1.03724 1.508,-3.04226 2.20942,-4.45563 1.34052,-2.7012 2.40122,-4.84111 3.6004,-7.26368 0.39631,-0.80074 1.30788,-2.63897 2.02571,-4.08491 0.71782,-1.44612 1.75208,-3.53168 2.29836,-4.63461 0.54629,-1.10293 1.36228,-2.74728 1.81334,-3.65411 l 0.82009,-1.64884 -14.96116,-0.0146 c -8.22864,-0.008 -14.96542,-0.008 -14.97065,0.008 -0.005,0.012 0.3975,0.82704 0.89494,1.81219 1.11839,2.21478 2.62402,5.20536 4.53632,9.01035 0.80479,1.60121 1.7941,3.56651 2.19847,4.36715 0.40437,0.80057 1.42043,2.81934 2.25791,4.48598 0.83746,1.66662 1.8667,3.71204 2.28718,4.54537 0.42047,0.83331 1.2443,2.46805 1.83071,3.63278 l 1.0662,2.11755 0.57933,-1.16766 c 0.31861,-0.64219 0.99967,-2.01618 1.51343,-3.05342 z m 14.77214,-29.78955 c 0.6548,-1.31948 1.51471,-3.05412 1.91095,-3.85468 0.39623,-0.80065 1.18486,-2.39154 1.7525,-3.53539 0.56764,-1.14376 1.32976,-2.68117 1.6936,-3.41648 0.36382,-0.73531 1.19946,-2.41974 1.85696,-3.74326 0.6575,-1.32352 1.49298,-3.007955 1.85662,-3.743264 0.36364,-0.735309 1.11234,-2.245989 1.66376,-3.357077 1.43867,-2.89877 2.75638,-5.555617 3.65417,-7.367713 0.42907,-0.866072 1.21117,-2.443553 1.73802,-3.505639 1.24201,-2.503819 2.51823,-5.078133 3.47579,-7.011191 0.4209,-0.849736 1.27652,-2.574314 1.90141,-3.832414 0.62488,-1.258185 1.43369,-2.889141 1.79734,-3.62445 0.36366,-0.73531 1.15242,-2.326117 1.75278,-3.535298 0.60038,-1.209096 1.42923,-2.8802 1.84192,-3.713603 0.41267,-0.833316 1.24157,-2.50442 1.84198,-3.713602 0.60041,-1.209096 1.36242,-2.746515 1.69334,-3.4164 0.33094,-0.669886 1.16498,-2.353198 1.85343,-3.740512 0.68846,-1.387399 1.24826,-2.525827 1.244,-2.530039 -0.0156,-0.01462 -1.01239,-0.355663 -1.92394,-0.657162 -10.83062,-3.581638 -22.71712,-5.882479 -35.1898,-6.811481 -2.25889,-0.168245 -4.53606,-0.286885 -7.4717,-0.389534 -1.42842,-0.04987 -6.60058,-0.06878 -8.33325,-0.03009 -8.10388,0.179249 -15.707086,0.876045 -23.232091,2.12933 -2.543159,0.423492 -5.716503,1.03913 -7.813352,1.515839 -1.050436,0.238741 -1.312872,0.299179 -1.94591,0.447995 -4.901988,1.152699 -10.583294,2.85501 -14.853911,4.45046 -0.204043,0.07652 -0.375065,0.142712 -0.38006,0.147697 -0.0052,0.0086 0.170102,0.36168 0.389096,0.792567 0.218986,0.430973 1.056833,2.093737 1.861882,3.695033 1.945566,3.869811 3.59026,7.138686 4.813103,9.566162 0.551495,1.094754 1.56088,3.100113 2.243076,4.456306 0.682181,1.356192 1.704908,3.388202 2.272695,4.515625 0.567804,1.127509 1.597169,3.172931 2.28749,4.545458 0.690321,1.372525 1.713023,3.404536 2.272677,4.515625 0.559654,1.111174 1.575762,3.129859 2.258019,4.486051 0.682265,1.356193 1.658166,3.294666 2.168669,4.307747 0.510505,1.012997 1.593386,3.165452 2.406397,4.783082 0.81301,1.617637 1.795624,3.56943 2.183577,4.337495 0.387961,0.767887 1.450786,2.880197 2.361855,4.693927 0.911068,1.81364 1.886959,3.75212 2.16866,4.30766 0.614701,1.21236 4.36643,8.6743 4.81961,9.58594 l 0.319968,0.64375 15.79908,0.008 15.79909,0.008 1.1905,-2.39893 z"
     id="path1275"
     inkscape:connector-curvature="0" />
  <rect
     style="fill:none;fill-opacity:1;stroke:#000000;stroke-width:1;stroke-miterlimit:4;stroke-dasharray:none;stroke-opacity:1"
     id="rect1277"
     width="151.11226"
     height="151.11227"
     x="38.970448"
     y="22.774914" />
  <text
     xml:space="preserve"
     style="font-style:normal;font-weight:normal;font-size:13.33333302px;line-height:1.25;font-family:sans-serif;letter-spacing:0px;word-spacing:0px;fill:#000000;fill-opacity:1;stroke:none"
     x="86.178642"
     y="193.07359"
     id="text1834"><tspan
       sodipodi:role="line"
       id="tspan1832"
       x="86.178642"
       y="193.07359">40.00mm</tspan></text>
</svg>
