<?xml version="1.0" encoding="UTF-8" standalone="no"?>
<svg
   xmlns:dc="http://purl.org/dc/elements/1.1/"
   xmlns:cc="http://creativecommons.org/ns#"
   xmlns:rdf="http://www.w3.org/1999/02/22-rdf-syntax-ns#"
   xmlns:svg="http://www.w3.org/2000/svg"
   xmlns="http://www.w3.org/2000/svg"
   viewBox="0 0 264.56693 264.56692"
   height="70mm"
   width="70mm"
   id="svg4655"
   version="1.1">
  <metadata
     id="metadata4661">
    <rdf:RDF>
      <cc:Work
         rdf:about="">
        <dc:format>image/svg+xml</dc:format>
        <dc:type
           rdf:resource="http://purl.org/dc/dcmitype/StillImage" />
        <dc:title></dc:title>
      </cc:Work>
    </rdf:RDF>
  </metadata>
  <defs
     id="defs4659" />
  <path
     id="path5208"
     d="m 227.81979,158.87072 c -0.3835,-0.0955 -1.24637,-0.36004 -1.9175,-0.58806 l -1.22022,-0.41461 0.88024,0.0582 0.88028,0.0582 -0.009,-0.89337 c -0.0154,-1.58492 0.76232,-2.21663 1.96108,-1.59293 0.76974,0.4005 1.2039,1.01136 1.30834,1.84079 0.13295,1.05602 0.47193,1.28254 1.73177,1.15726 3.09154,-0.30746 8.29042,-3.65821 8.79497,-5.66849 0.0893,-0.35582 0.002,-0.52057 -0.46514,-0.88005 -0.31624,-0.24325 -0.99653,-0.81487 -1.51176,-1.27028 -0.98794,-0.87326 -1.42986,-1.00355 -1.87935,-0.55408 -0.43801,0.43803 -0.31943,0.97162 0.42334,1.90505 0.78639,0.98823 0.8715,1.56186 0.33325,2.24612 -0.45131,0.57374 -1.07594,0.90166 -2.0144,1.05752 -0.63101,0.10486 -0.75839,0.0689 -1.00662,-0.28443 -0.15628,-0.22244 -0.33092,-0.69498 -0.38807,-1.05011 -0.15238,-0.94719 -0.59184,-1.25976 -1.77324,-1.26125 -0.98611,-0.001 -1.57975,0.2002 -2.86257,0.97134 l -0.65179,0.39182 -0.69461,-0.39039 c -0.55157,-0.31 -0.76734,-0.35146 -1.04783,-0.20135 -0.19425,0.10401 -0.35319,0.34165 -0.35319,0.52821 0,0.39213 -0.64223,0.6155 -1.2971,0.45114 -0.23403,-0.0588 -0.87037,-0.63596 -1.41407,-1.28271 -1.33506,-1.58811 -1.88151,-1.99439 -2.89874,-2.1552 -0.72818,-0.11511 -0.98743,-0.27132 -1.68702,-1.01648 -0.7067,-0.75274 -0.92099,-0.88047 -1.47705,-0.88047 -0.35771,0 -0.94114,0.12147 -1.29648,0.26994 -0.85436,0.35698 -1.33208,0.21089 -1.67526,-0.51229 -0.36687,-0.77312 -0.35513,-1.11766 0.0613,-1.80062 0.31195,-0.51159 1.6275,-1.61772 1.924,-1.61772 0.0679,0 0.40594,0.45777 0.75126,1.01725 1.07713,1.74507 2.96687,3.16473 5.82837,4.37852 2.15413,0.91374 3.1309,1.12734 5.09831,1.11486 3.95291,-0.025 7.15202,-1.85436 8.60466,-4.92025 0.51951,-1.09644 0.54705,-1.26088 0.54705,-3.26539 v -2.1108 l -0.94165,-1.89851 c -0.86306,-1.74009 -1.09943,-2.05378 -2.83268,-3.75919 -1.80121,-1.77237 -1.89098,-1.89497 -1.89098,-2.58266 0,-0.82265 0.22509,-1.35036 0.76125,-1.78466 0.64906,-0.52576 0.9554,-0.39776 1.01549,0.42429 0.052,0.71271 0.08,0.74326 0.99504,1.09151 0.51779,0.19705 1.09267,0.56084 1.27752,0.80841 0.31578,0.42295 0.31946,0.48993 0.0608,1.10877 -0.33171,0.79389 -0.35509,1.46791 -0.0549,1.58311 0.12116,0.0465 0.86488,-0.1507 1.65268,-0.43822 1.51537,-0.55304 1.98132,-0.53228 2.70254,0.12041 0.71331,0.64554 0.13756,1.82221 -1.18872,2.4294 -0.8718,0.39913 -0.94636,0.4794 -0.94636,1.01884 0,0.71494 0.1662,0.77941 1.91751,0.74359 0.83632,-0.0171 1.4958,0.0643 1.83032,0.22612 l 0.52296,0.25284 0.0876,2.00298 c 0.0482,1.10164 0.0695,2.03392 0.0475,2.07174 -0.14087,0.24142 -1.83603,-0.68855 -2.55683,-1.40269 -0.46909,-0.46477 -0.91486,-0.84503 -0.99058,-0.84503 -0.30774,0 -0.35296,0.77552 -0.0859,1.47464 0.22106,0.5788 0.43686,0.81223 0.97548,1.05511 0.86669,0.39084 2.34255,1.93399 2.7878,2.91499 0.38388,0.84577 0.44185,2.06921 0.13928,2.9401 -0.11325,0.32589 -0.60349,0.99615 -1.08949,1.48948 -0.48598,0.49331 -1.34032,1.37458 -1.89849,1.95835 -1.92948,2.01799 -5.21807,3.88693 -7.39268,4.20138 -1.45436,0.21031 -3.56131,0.19154 -4.49198,-0.04 z M 35.459752,157.95519 c -0.23969,-0.13702 -0.6169,-0.25191 -0.83824,-0.2553 -0.22134,-0.003 -0.71346,-0.25613 -1.09359,-0.56161 -0.53386,-0.42902 -0.93372,-0.58404 -1.75687,-0.68109 -1.2552,-0.14801 -1.78541,-0.49416 -2.48823,-1.62447 -0.4454,-0.7163 -0.516,-1.00739 -0.54556,-2.24936 -0.0283,-1.19396 0.0512,-1.66805 0.48802,-2.90741 0.28708,-0.81446 0.82674,-1.98616 1.19923,-2.60377 0.60393,-1.00131 0.67729,-1.24686 0.67735,-2.267 9e-5,-1.11623 -0.6187,-3.71461 -1.6631,-6.98374 -0.65949,-2.06427 -2.34822,-9.42142 -2.70084,-11.76647 -0.11533,-0.76701 -0.21551,-2.21821 -0.22262,-3.22489 -0.0157,-2.22602 0.32113,-3.3266 2.12076,-6.92874 0.65873,-1.3185 1.37246,-2.90716 1.58606,-3.53035 0.2136,-0.62318 0.84889,-2.15283 1.41174,-3.3992 0.56284,-1.24638 1.92881,-4.44492 3.03548,-7.10784 2.14312,-5.15694 3.56292,-8.14075 4.6189,-9.70692 1.24323,-1.84386 3.33559,-5.45248 3.42664,-5.90975 0.11005,-0.55295 -0.35581,-4.80156 -0.73468,-6.69982 -0.1492,-0.74752 -0.24833,-1.88494 -0.22027,-2.52762 0.028,-0.64267 0.0339,-1.61743 0.0131,-2.16613 -0.0376,-0.9915 -0.0466,-1.00686 -1.44599,-2.49257 -0.77446,-0.8222 -1.55582,-1.82881 -1.73634,-2.23691 -0.42726,-0.96591 -0.72226,-2.90469 -0.65601,-4.31155 l 0.0526,-1.11771 0.74629,-0.0539 c 0.89477,-0.0646 1.88807,0.36342 4.11887,1.77476 1.92439,1.21748 2.55111,1.39398 4.54802,1.28078 1.24176,-0.0704 2.0777,-0.25768 4.00931,-0.89821 2.37208,-0.78659 2.52768,-0.81405 5.55323,-0.98045 2.5728,-0.14151 3.19755,-0.12892 3.60144,0.0726 0.26876,0.13406 0.68656,0.20593 0.92845,0.15969 0.24189,-0.0462 0.95243,0.0864 1.57896,0.29501 2.82952,0.94161 4.09371,0.82459 7.26167,-0.67214 1.00105,-0.47297 1.8455,-0.83499 1.87655,-0.8045 0.031,0.0305 -0.067,0.29415 -0.2179,0.58592 -0.44691,0.86424 -0.35457,1.13664 0.53117,1.56697 0.44304,0.21525 0.83861,0.35826 0.87904,0.31781 0.0404,-0.0404 0.11825,-0.34897 0.17288,-0.68561 0.0777,-0.47863 3e-5,-0.75821 -0.35611,-1.2823 -0.56137,-0.82617 -0.56625,-0.99951 -0.0378,-1.34578 0.73003,-0.47834 1.22192,-0.51853 1.57475,-0.12864 0.26934,0.29762 0.30684,0.55437 0.23258,1.59237 -0.0774,1.08201 -0.23464,1.53491 -1.25082,3.6032 -0.63924,1.3011 -1.20707,2.69259 -1.26185,3.0922 -0.0681,0.49746 0.0285,1.16259 0.30665,2.1094 0.34693,1.18097 0.41973,1.90345 0.4987,4.94865 l 0.0925,3.56579 1.49341,1.05364 c 0.82139,0.5795 2.66903,2.03997 4.10589,3.2455 2.95218,2.47688 4.98967,3.87179 8.52046,5.83328 1.34226,0.74567 3.29447,1.83322 4.33828,2.41676 1.04378,0.58356 2.41003,1.49291 3.0361,2.0208 1.06425,0.89736 2.41201,2.5622 2.22533,2.74888 -0.26014,0.26014 -1.15771,-0.31437 -2.54456,-1.62868 -1.65427,-1.56774 -2.37552,-1.99074 -3.39447,-1.99074 -0.85717,0 -1.60319,0.34471 -2.585,1.19446 -0.45947,0.39767 -0.97882,0.72304 -1.15412,0.72304 -0.52163,0 -1.0982,-0.58439 -1.0982,-1.11309 0,-0.64158 0.26666,-0.87415 1.00232,-0.87415 0.33557,0 0.61011,-0.0837 0.61011,-0.18614 0,-0.35551 -0.83516,-1.40189 -1.36357,-1.70841 l -0.53143,-0.30826 0.16307,0.56858 c 0.0897,0.31273 0.16308,0.66441 0.16308,0.78151 0,0.34373 -0.67546,0.6063 -1.24048,0.48222 -0.69291,-0.1522 -0.6241,-0.73075 0.14427,-1.21303 0.3079,-0.19328 0.56151,-0.39061 0.56355,-0.43855 0.002,-0.048 -0.42653,-0.27343 -0.95242,-0.50108 -0.65635,-0.28415 -1.12341,-0.38049 -1.48957,-0.30725 -0.65193,0.13039 -1.63327,-0.25043 -1.89224,-0.73431 -0.10359,-0.19356 -0.18834,-0.55837 -0.18834,-0.81066 0,-0.64415 -0.27563,-1.08635 -0.86811,-1.39273 -0.70166,-0.36286 -0.80172,-0.33824 -1.0486,0.25778 -0.23173,0.55945 -1.43003,1.73714 -1.78804,1.75732 -0.40182,0.0226 0.47426,0.31174 0.98224,0.32414 0.35833,0.009 0.66825,-0.16365 1.08096,-0.60124 l 0.57858,-0.61349 0.12146,0.64747 c 0.11017,0.58722 0.0678,0.69222 -0.45495,1.12866 -0.31703,0.26467 -0.8189,0.53239 -1.11525,0.59495 -0.29638,0.0625 -0.79187,0.26736 -1.1011,0.45514 -0.49198,0.29871 -0.6219,0.3127 -1.03958,0.11199 -0.26253,-0.12622 -0.59784,-0.45109 -0.74514,-0.72197 -0.26124,-0.4804 -0.25284,-0.50516 0.34231,-1.00878 0.64145,-0.54281 0.6613,-0.66285 0.32449,-1.96233 l -0.17483,-0.67452 -0.87952,0.11668 c -0.69916,0.0927 -0.94685,0.0557 -1.2079,-0.18051 -0.44379,-0.40165 -0.41914,-1.25715 0.0505,-1.7572 l 0.37903,-0.40345 h -1.07629 -1.07629 v -0.53749 c 0,-0.29561 -0.0587,-0.51076 -0.13075,-0.47812 -0.5746,0.26088 -2.48237,1.29247 -2.83267,1.53171 -0.30052,0.20526 -0.69599,0.28039 -1.27403,0.24207 -0.56187,-0.0373 -0.98196,0.0386 -1.2742,0.23012 -0.62937,0.41237 -0.24697,0.5747 1.3613,0.5779 1.33803,0.002 1.77008,0.18652 1.37254,0.58406 -0.1113,0.11131 -0.96342,0.24498 -1.8936,0.29706 -1.52021,0.0851 -1.64161,0.11597 -1.20049,0.30538 0.2699,0.11589 1.16454,0.21071 1.9881,0.21071 1.4577,0 1.48946,0.009 1.19897,0.32973 -0.16411,0.18135 -0.43354,0.29439 -0.59873,0.2512 -0.16517,-0.0432 -0.51371,0.002 -0.77451,0.1017 -0.37012,0.14072 -0.47421,0.29469 -0.47421,0.70142 0,0.55387 0.38486,0.88204 1.03445,0.88204 0.30178,0 0.36009,-0.10903 0.36009,-0.67358 0,-0.66917 0.005,-0.67429 0.80877,-0.78443 1.81982,-0.24944 2.32897,0.006 2.32897,1.17059 0,0.51044 -0.14663,0.80291 -0.70759,1.41149 -0.62942,0.68284 -0.69508,0.83445 -0.59417,1.3723 0.1265,0.67428 -0.13887,1.33863 -0.53473,1.33863 -0.43144,0 -0.95261,-0.66759 -0.95261,-1.22022 0,-0.48146 0.0484,-0.52296 0.61012,-0.52296 h 0.61011 v -1.13306 c 0,-1.22545 -0.19986,-1.43039 -0.77508,-0.79478 -0.44002,0.48621 -1.89415,0.62996 -2.86395,0.28314 -0.41951,-0.15004 -1.0616,-0.27279 -1.42685,-0.27279 -0.60379,0 -0.75597,0.10686 -1.67543,1.17664 -2.82395,3.2856 -3.5294,3.71326 -5.50665,3.33832 -0.59806,-0.11335 -1.52227,-0.21474 -2.05381,-0.22519 -1.22399,-0.024 -1.74278,-0.35955 -2.37546,-1.53621 -0.65615,-1.22029 -1.17872,-1.41616 -2.25499,-0.84522 -0.56601,0.30027 -0.75175,0.49072 -0.67414,0.69119 0.25548,0.65983 0.28635,1.25158 0.0783,1.50215 -0.18018,0.21711 -0.17768,0.40202 0.0133,0.9805 l 0.23531,0.71294 -0.67279,0.61657 c -0.62859,0.57605 -0.65993,0.65062 -0.47708,1.13505 0.24711,0.65466 0.0648,1.0138 -0.7629,1.5021 -0.45068,0.26591 -0.60025,0.45454 -0.52203,0.65837 0.0693,0.18049 -0.0649,0.46778 -0.3642,0.78025 -0.44128,0.46059 -0.56743,0.49457 -1.83576,0.49457 h -1.36194 v -0.51893 c 0,-0.57165 0.35565,-0.87528 1.42012,-1.2124 0.42836,-0.13566 0.70142,-0.36003 0.83726,-0.68797 0.11085,-0.26767 0.44136,-0.74919 0.73442,-1.07004 0.47189,-0.51666 0.52384,-0.67693 0.45424,-1.40128 l -0.0786,-0.81788 0.80031,-0.24778 c 0.61265,-0.18968 0.81399,-0.34261 0.85865,-0.65222 0.0321,-0.22243 -0.0334,-0.49344 -0.14539,-0.60223 -0.24256,-0.23551 -1.27121,0.83167 -2.22103,2.30424 -0.40007,0.62025 -0.6602,0.87489 -0.7757,0.75936 -0.22879,-0.22877 0.31401,-1.35909 1.3477,-2.80652 l 0.79558,-1.11401 -0.44492,-0.4644 c -0.24471,-0.25541 -0.44492,-0.59738 -0.44492,-0.75992 0,-0.3663 -0.24009,-0.37917 -0.58772,-0.0316 -0.21066,0.21066 -0.22639,0.37186 -0.0778,0.79802 0.13339,0.38264 0.13164,0.65371 -0.005,0.95624 -0.2788,0.61191 -0.82173,0.53359 -1.28772,-0.18575 -0.2166,-0.33438 -0.43304,-0.60614 -0.48098,-0.60392 -0.048,0.002 -0.51859,0.54633 -1.04591,1.20914 -0.78498,0.98668 -0.97455,1.35677 -1.0459,2.04203 l -0.0872,0.83695 -0.84848,0.2094 c -0.46667,0.11517 -0.99284,0.34006 -1.16928,0.49973 -0.30004,0.27154 -0.35794,0.26825 -0.8947,-0.0506 -0.63869,-0.37948 -0.71542,-0.96921 -0.1791,-1.37646 0.25974,-0.19722 0.13365,-0.23045 -0.89245,-0.23522 -1.31761,-0.005 -2.54399,0.47188 -3.48406,1.35792 -0.62556,0.58962 -1.16069,1.6191 -1.16069,2.23297 0,0.25993 -0.13253,0.61905 -0.29454,0.79807 -0.27701,0.30609 -0.27329,0.39515 0.0625,1.49542 0.19643,0.64349 0.41207,1.29748 0.47919,1.45334 0.10118,0.23498 -0.0743,0.32041 -1.02795,0.50034 -0.63249,0.11936 -1.30432,0.34484 -1.49295,0.50108 -0.35132,0.291 -1.56134,3.01256 -1.56134,3.51176 0,0.15259 0.27455,0.54354 0.61011,0.86878 0.33557,0.32523 0.60892,0.63479 0.60745,0.68789 -0.009,0.31833 -0.41372,0.60349 -1.23844,0.87216 -1.0531,0.34308 -1.17963,0.581 -0.84627,1.59111 0.40635,1.23125 -0.15879,1.90407 -1.59931,1.90407 -0.62436,0 -0.6208,0.0744 0.0396,0.82646 0.42009,0.47846 0.51183,0.71033 0.42287,1.0689 -0.11188,0.45087 -0.72882,1.24237 -0.96843,1.24237 -0.0675,0 -0.41389,0.12168 -0.76985,0.27042 l -0.64722,0.27041 0.40848,0.38328 c 0.22466,0.2108 0.56515,0.57938 0.75665,0.81906 0.19151,0.2397 0.64235,0.65552 1.00189,0.92405 0.66823,0.4991 0.81652,0.93521 0.44451,1.30722 -0.3172,0.3172 -1.20424,0.24952 -1.84429,-0.14073 -0.75911,-0.46282 -0.85168,-0.21546 -0.55155,1.47367 0.25112,1.41335 0.30255,1.43969 1.32958,0.68081 0.66654,-0.49251 1.12186,-0.52002 1.50989,-0.0913 0.39847,0.44029 0.36185,0.78753 -0.14678,1.39201 -0.50914,0.60507 -1.1662,0.81776 -1.67882,0.54341 -0.47403,-0.25368 -0.75515,0.0175 -0.61151,0.58972 0.074,0.29488 0.33288,0.51912 0.82801,0.71723 l 0.72034,0.28822 -0.0872,0.90695 c -0.0862,0.89742 -0.0781,0.91562 0.76295,1.73062 1.14069,1.10526 1.1167,1.67552 -0.0832,1.97668 -0.44833,0.11256 -0.48443,0.17614 -0.37886,0.6677 0.0641,0.29884 0.22736,1.20508 0.36262,2.01389 0.1922,1.14908 0.38398,1.67841 0.87733,2.42146 0.39763,0.59885 0.678,0.87542 0.75734,0.74705 0.16886,-0.2732 0.53509,0.5396 0.53509,1.18754 0,0.31534 -0.13869,0.58558 -0.3842,0.74858 l -0.3842,0.25511 0.46344,0.46342 c 0.30518,0.30518 0.6506,0.46345 1.01154,0.46345 0.38837,0 0.69548,0.15776 1.05383,0.54138 0.95831,1.02589 0.50633,1.55044 -1.33596,1.55044 -0.8186,0 -0.9474,0.0456 -0.9474,0.33525 0,0.18439 0.19611,0.56833 0.4358,0.85317 0.47505,0.56457 0.59353,1.67747 0.24744,2.32416 -0.21794,0.40722 -1.16378,0.84537 -1.82493,0.84537 h -0.4556 l 0.0578,2.13539 c 0.0566,2.09079 0.0698,2.15269 0.63269,2.96341 0.65611,0.94497 1.13768,1.05793 2.07459,0.48668 0.40682,-0.24806 0.60883,-0.54261 0.7468,-1.08884 0.38731,-1.53345 0.5536,-1.71723 1.22742,-1.35663 0.32316,0.17296 0.32291,0.19313 -0.0114,0.9732 -0.59712,1.39305 -0.40906,2.33166 0.53298,2.66007 1.15113,0.40127 1.87728,-0.34347 2.45046,-2.51322 0.21566,-0.8164 0.45207,-1.42252 0.52533,-1.34693 0.0733,0.0755 0.21349,0.7239 0.31165,1.4407 0.19142,1.39805 0.49842,1.83738 1.14568,1.63962 0.57341,-0.17518 0.77952,-0.41294 0.96946,-1.11834 0.15506,-0.5759 0.12107,-0.77024 -0.26023,-1.48736 -0.24122,-0.4537 -0.4386,-1.08951 -0.4386,-1.4129 0,-0.5111 0.10766,-0.65629 0.82358,-1.1103 1.00488,-0.63726 1.25403,-1.05612 1.26205,-2.12157 0.004,-0.62549 -0.0847,-0.90593 -0.37532,-1.17665 -0.20984,-0.19549 -0.47223,-0.35543 -0.5831,-0.35543 -0.36037,0 -0.77858,-0.62488 -0.77858,-1.16335 0,-0.60314 0.38204,-1.00153 1.13209,-1.18054 0.77148,-0.18414 0.95972,-0.41316 0.95972,-1.16761 0,-0.6392 -0.0622,-0.7199 -1.04229,-1.3534 -0.57325,-0.37051 -1.25964,-0.72791 -1.52528,-0.79421 -1.48534,-0.37071 -1.41371,-1.36918 0.1548,-2.15774 0.74376,-0.37393 0.98907,-1.15123 0.66922,-2.1204 -0.12518,-0.37933 -0.37242,-0.73566 -0.54941,-0.79182 -0.39656,-0.12588 -0.40357,-0.36257 -0.0307,-1.03741 0.18435,-0.33365 0.32593,-1.13579 0.39114,-2.21598 l 0.10223,-1.69304 -1.21427,-0.0501 c -1.19979,-0.0496 -1.21616,-0.0568 -1.37281,-0.60493 -0.27535,-0.9635 -0.0364,-1.41187 0.99568,-1.8683 0.99374,-0.4395 1.21908,-0.74967 1.0459,-1.43966 -0.13626,-0.54292 -0.65063,-0.74506 -1.44186,-0.56661 -0.78035,0.17599 -0.8466,0.12452 -0.97877,-0.76068 -0.15623,-1.04636 0.12872,-1.65947 0.91678,-1.97247 2.1107,-0.83833 2.31082,-1.04225 2.31082,-2.35469 0,-0.77588 -0.31942,-1.49312 -1.09462,-2.45799 -0.89322,-1.11175 -0.61934,-1.9213 0.7327,-2.16566 1.06052,-0.19169 1.52112,-0.53624 2.82637,-2.1143 1.6958,-2.05023 3.47212,-3.79605 6.01942,-5.916 2.52228,-2.09915 3.99447,-3.12317 5.1908,-3.61059 0.79493,-0.32388 1.40824,-0.37144 6.28476,-0.48733 2.97213,-0.0706 5.79608,-0.15486 6.27546,-0.18712 0.47936,-0.0322 1.1161,-0.0741 1.41496,-0.093 0.42247,-0.0266 0.64603,-0.18945 1.00478,-0.73157 0.47862,-0.72324 1.08593,-0.91089 1.67673,-0.51811 0.21831,0.14516 0.16703,0.25261 -0.31067,0.65104 l -0.57214,0.47718 3.18692,0.001 c 2.95327,0.001 3.26358,0.0318 4.23283,0.4186 1.06625,0.42561 1.84036,1.09643 2.41048,2.08885 l 0.31867,0.55473 -1.18415,-0.79416 c -1.44967,-0.97226 -2.33732,-1.24731 -3.05966,-0.9481 -0.47039,0.19482 -1.8047,1.44513 -4.06354,3.80766 -0.47937,0.50137 -1.06171,0.98736 -1.29408,1.07995 -0.86548,0.34487 -1.76474,-0.19545 -2.16479,-1.3007 -0.19224,-0.53116 0.91558,-1.50874 1.70973,-1.50874 1.23133,0 1.7469,-0.72248 0.92593,-1.29752 -0.51202,-0.35862 -0.78671,-0.34254 -0.91238,0.0535 -0.13045,0.4111 -2.28535,1.41851 -3.03407,1.41851 -0.86554,0 -1.64957,-0.41134 -2.26493,-1.18831 -0.52087,-0.65765 -1.15371,-1.05343 -1.35789,-0.84924 -0.0474,0.0474 0.0762,0.44244 0.27461,0.87795 0.64369,1.41297 0.41391,1.69266 -1.11035,1.35154 -0.91162,-0.20401 -1.66712,-0.7091 -1.66616,-1.1139 3.6e-4,-0.1161 0.23288,-0.3668 0.5169,-0.55709 0.63723,-0.42695 0.44299,-0.68636 -0.31587,-0.42181 -0.3085,0.10754 -0.72054,0.15379 -0.91562,0.10275 -0.1951,-0.0511 -0.76139,0.0967 -1.25844,0.32802 -1.14504,0.53313 -1.97163,0.54615 -2.51087,0.0395 -0.37277,-0.35021 -0.45956,-0.36414 -0.96999,-0.15559 -0.30831,0.12597 -0.95069,0.32411 -1.4275,0.44032 -0.7859,0.19154 -0.87891,0.26718 -0.99515,0.80927 -0.0712,0.33226 -0.0466,0.85383 0.0555,1.17378 0.10107,0.31669 0.13929,0.75278 0.085,0.96912 -0.1348,0.53709 -1.4848,1.61017 -1.76435,1.40244 -0.81943,-0.60889 -1.13002,-0.7764 -1.62197,-0.87478 -0.54364,-0.1087 -0.55742,-0.0961 -0.55742,0.51012 0,0.69658 0.1343,0.82529 1.13272,1.08548 0.67406,0.17567 0.69938,0.20879 0.74986,0.98069 0.0514,0.78597 0.0389,0.80665 -0.76956,1.28048 l -0.82182,0.48162 -0.60478,-0.32571 c -0.33269,-0.17911 -0.92612,-0.7067 -1.31878,-1.17237 l -0.71393,-0.84668 -0.29566,0.66883 c -0.35242,0.79729 -0.40852,2.03599 -0.1037,2.2878 0.11984,0.099 0.49245,0.25039 0.82801,0.33647 0.48383,0.12413 0.62154,0.25367 0.66527,0.62583 0.0438,0.37262 -0.0173,0.4693 -0.2964,0.4693 -0.19335,0 -0.41818,0.11906 -0.49962,0.26458 -0.12267,0.21921 -0.24605,0.23042 -0.71952,0.0654 -0.42454,-0.14799 -0.6821,-0.14878 -1.00186,-0.003 -0.91947,0.41894 -1.27651,0.14327 -1.28321,-0.99082 -0.003,-0.56193 -0.31788,-0.31752 -0.71398,0.55475 -0.43669,0.96164 -0.46427,3.32369 -0.0461,3.94901 0.44927,0.67188 1.15219,1.38977 1.36078,1.38977 0.10412,0 0.33631,-0.27313 0.51608,-0.60693 0.36286,-0.67378 1.0277,-1.18686 1.42987,-1.10347 0.21086,0.0438 0.15762,0.25006 -0.27181,1.05341 -1.05731,1.97792 -0.59428,2.6204 2.35265,3.26438 0.80919,0.17683 1.47025,0.30966 1.469,0.29517 -10e-4,-0.0144 -0.15812,-0.52358 -0.34862,-1.13134 -0.19052,-0.60777 -0.3464,-1.45103 -0.3464,-1.87392 0,-0.70102 0.0379,-0.76891 0.42967,-0.76891 0.47176,0 0.68209,0.29784 0.85585,1.21185 0.18254,0.96017 0.71975,1.40293 1.70222,1.40293 0.68124,0 0.94602,-0.0974 1.43683,-0.52829 0.61203,-0.53736 1.07497,-1.78267 2.79097,-7.50756 0.46081,-1.53733 1.0743,-2.42324 1.67808,-2.42324 0.28192,0 0.28561,-0.0548 0.0499,-0.73902 -0.54809,-1.59084 0.48059,-4.3162 1.62912,-4.3162 0.522,0 1.74786,1.52816 1.90721,2.37753 0.13713,0.73101 -0.16567,1.86856 -0.61772,2.32061 -0.17612,0.17611 -0.64364,0.37484 -1.03894,0.44163 l -0.71874,0.12144 0.87462,0.95696 c 0.91325,0.99923 1.12911,1.70532 0.56956,1.86287 -0.16779,0.0473 -0.56422,0.13813 -0.88098,0.20197 -0.31676,0.0638 -0.87229,0.40309 -1.23453,0.75386 -0.54352,0.52633 -0.78774,1.01857 -1.39745,2.81676 -0.86391,2.5478 -1.4865,3.60515 -2.60453,4.42319 -1.55295,1.13629 -3.90926,1.77047 -6.1057,1.64332 -1.79417,-0.10391 -2.87787,-0.62925 -4.72926,-2.2928 -0.81492,-0.73227 -1.61039,-1.3318 -1.76768,-1.33232 -0.32105,-10e-4 -0.42108,0.43466 -0.64154,2.79456 -0.0764,0.81846 -0.20123,1.58878 -0.27726,1.7118 -0.13638,0.22067 -0.33396,2.49895 -0.31965,3.68565 0.0105,0.84316 0.33973,3.61046 0.45151,3.79131 0.0503,0.0815 0.53721,2.30135 1.08194,4.9332 1.21414,5.8659 1.23798,6.51725 0.34742,9.49174 -0.34444,1.1505 -0.86829,2.99392 -1.16409,4.09647 -0.84954,3.16652 -1.31275,3.81834 -2.9653,4.17274 -0.48541,0.10413 -1.4802,0.38447 -2.21065,0.62304 -0.73045,0.23857 -1.33026,0.43099 -1.33291,0.42759 -0.002,-0.003 -0.20095,-0.11828 -0.44065,-0.2553 z m 8.34112,-59.35642 c 0.39788,-0.28823 0.72342,-0.60701 0.72342,-0.7084 0,-0.10139 0.71529,-0.8895 1.58953,-1.75134 1.47699,-1.45604 1.56664,-1.58373 1.26611,-1.80347 -0.30751,-0.22486 -0.30852,-0.25292 -0.0206,-0.57101 0.1665,-0.18399 0.30273,-0.39689 0.30273,-0.47312 0,-0.29178 -1.87837,0.0351 -2.85394,0.49657 -0.62695,0.2966 -1.08382,0.42086 -1.18296,0.32173 -0.25971,-0.25973 0.15184,-0.47309 2.24841,-1.16571 1.07764,-0.356 2.01258,-0.73342 2.07765,-0.8387 0.0651,-0.10528 -0.14923,-0.41476 -0.4762,-0.68775 -0.40232,-0.33585 -0.61643,-0.42448 -0.66227,-0.27411 -0.24723,0.81069 -1.41461,1.13924 -1.75932,0.49514 -0.32908,-0.61492 -0.21853,-1.0424 0.29893,-1.15577 0.98098,-0.21495 1.02711,-0.26752 1.32876,-1.51405 0.10276,-0.42447 0.0669,-0.47938 -0.31283,-0.47938 -0.55314,0 -0.66922,-0.20624 -0.44621,-0.79281 0.28484,-0.74918 0.0678,-1.15432 -0.58462,-1.09104 -0.53003,0.0514 -0.54931,0.0808 -0.49235,0.75079 0.16731,1.96768 0.14985,2.06801 -0.39331,2.2604 -0.36256,0.12842 -0.52683,0.12466 -0.57281,-0.0131 -0.0355,-0.1063 -0.17531,-0.34158 -0.31073,-0.52296 -0.23426,-0.31372 -0.28445,-0.29159 -1.03106,0.45466 -1.05114,1.05059 -3.09835,4.43228 -2.83977,4.69086 0.29203,0.29202 0.45453,0.23395 0.9315,-0.3329 0.49279,-0.58565 0.7816,-0.64847 1.17458,-0.25551 0.33973,0.33975 0.11497,0.8668 -0.62119,1.45663 l -0.52008,0.41669 -0.66387,-0.37311 c -0.36513,-0.20521 -0.71486,-0.37311 -0.77715,-0.37311 -0.1598,0 -1.49585,2.80035 -1.49262,3.12851 10e-4,0.14888 0.0681,0.37396 0.1482,0.50018 0.10213,0.16091 0.28677,-0.0593 0.61822,-0.73668 0.74334,-1.5193 1.83441,-2.08636 2.08596,-1.08411 0.0525,0.20923 0.36077,0.6921 0.68503,1.07301 0.32424,0.38094 0.6829,0.86911 0.797,1.08482 0.28625,0.54117 0.87,0.49689 1.73791,-0.13182 z m -2.40737,-1.90844 c -0.21698,-0.13724 -0.20412,-0.21766 0.0872,-0.54489 0.43247,-0.48589 1.59024,-1.02312 2.21561,-1.02811 0.40799,-0.003 0.47919,0.0676 0.47803,0.47554 -0.002,0.85225 -1.95203,1.62169 -2.78082,1.09746 z m 0.85689,-4.90337 c -0.42728,-0.79839 0.99747,-1.41905 1.6365,-0.71293 0.26981,0.29813 0.26246,0.34273 -0.11495,0.69728 -0.51947,0.48802 -1.26464,0.49569 -1.52155,0.0156 z m 18.41241,4.61556 c 0.55849,-0.26503 0.60226,-0.32542 0.31695,-0.43737 -0.18207,-0.0714 -0.60558,-0.13713 -0.94114,-0.14601 -0.33556,-0.009 -0.80623,-0.16952 -1.04591,-0.35701 -0.49773,-0.38931 -0.72012,-0.4164 -1.46933,-0.17899 -0.29444,0.0933 -0.91952,0.21751 -1.38906,0.27602 l -0.85373,0.10641 0.72114,0.43002 c 1.33467,0.79591 3.35089,0.92869 4.66108,0.30697 z m -9.02347,-1.59407 c -0.0433,-0.37653 -0.158,-0.49122 -0.53453,-0.53454 -0.43073,-0.0496 -0.47938,-8.7e-4 -0.47938,0.47937 0,0.48029 0.0542,0.53453 0.53453,0.53453 0.48029,0 0.52894,-0.0486 0.47938,-0.47936 z m 3.55061,-0.74086 -0.0549,-0.61011 0.45341,0.65368 c 0.50136,0.72284 0.70167,0.78296 1.27364,0.38234 0.2826,-0.19794 0.3867,-0.44555 0.38476,-0.91516 -0.004,-0.98689 -0.20396,-1.16609 -0.70533,-0.6324 l -0.42365,0.45095 -0.0931,-0.39419 c -0.0512,-0.21681 -0.32605,-0.52523 -0.61082,-0.68536 -0.43269,-0.24332 -0.51459,-0.39452 -0.49845,-0.92005 0.0222,-0.72301 0.40223,-1.38174 1.03716,-1.79777 0.34157,-0.22381 0.85513,-0.28839 2.26904,-0.28535 1.58807,0.003 1.84971,-0.0375 1.99653,-0.3118 0.093,-0.17365 0.16898,-1.25223 0.16898,-2.39685 0,-1.69102 -0.0642,-2.2265 -0.34312,-2.8568 -0.28535,-0.64507 -0.31257,-0.89093 -0.16163,-1.46027 0.41038,-1.54783 1.89891,-3.06554 3.25639,-3.3202 0.32775,-0.0615 1.27558,-0.0143 2.1063,0.10465 1.12788,0.16166 1.68623,0.16767 2.2048,0.0237 0.38192,-0.10607 0.95838,-0.19324 1.281,-0.19376 l 0.58658,-10e-4 -0.30409,0.47937 c -0.78901,1.24381 -2.91424,2.89539 -4.35472,3.3842 -0.83584,0.28362 -0.89269,0.28204 -1.41255,-0.0393 -0.53723,-0.33202 -0.54434,-0.33182 -0.866,0.0236 -0.3172,0.3505 -0.31496,0.37606 0.10233,1.16267 0.85657,1.61465 1.51876,1.86768 1.59938,0.61117 0.0457,-0.71291 0.10904,-0.83592 0.45495,-0.88497 0.60668,-0.086 0.92151,0.25382 0.72182,0.77908 -0.23797,0.62589 -0.21447,0.71927 0.29011,1.15295 0.89283,0.76741 0.84534,0.95098 -0.67862,2.62225 -1.50271,1.64797 -1.99202,1.85918 -2.23024,0.96262 -0.14754,-0.55524 0.22519,-1.18913 0.69923,-1.18913 0.17458,0 0.40507,-0.10562 0.51219,-0.23471 0.15257,-0.18384 -0.0473,-0.46713 -0.92232,-1.30738 -0.61441,-0.58998 -1.20233,-1.07269 -1.3065,-1.07269 -0.20807,0 -0.28789,1.05296 -0.20858,2.7517 0.0375,0.80338 -0.0277,1.21599 -0.24435,1.54665 -0.25305,0.38623 -0.26278,0.51673 -0.0678,0.90898 0.12524,0.25189 0.25201,0.51096 0.28171,0.57568 0.0955,0.20789 -1.23869,1.35935 -1.82433,1.57453 -0.51904,0.19071 -0.56653,0.271 -0.56653,0.95759 0,0.71381 0.0245,0.74941 0.51475,0.74941 0.28311,0 0.71731,0.0923 0.96486,0.20508 0.34923,0.15912 0.71244,0.15403 1.62065,-0.0226 1.3636,-0.26537 1.60632,-0.4175 1.60632,-1.00679 0,-0.31163 -0.0726,-0.40521 -0.25915,-0.33366 -0.14254,0.0546 -0.47591,-0.0911 -0.74086,-0.32384 l -0.48169,-0.4233 0.52296,-0.43765 c 0.28763,-0.24071 1.04833,-0.61058 1.69049,-0.82194 1.15198,-0.37918 1.46569,-0.80461 0.44238,-0.59995 -0.50647,0.10128 -0.99981,-0.11591 -0.99981,-0.44021 0,-0.0842 0.15047,-0.15297 0.33438,-0.15297 0.60028,0 0.88949,-0.20391 1.45136,-1.02331 0.30436,-0.44386 0.81151,-1.05162 1.127,-1.35058 0.31863,-0.30191 0.57363,-0.71842 0.57363,-0.93695 0,-0.34417 0.0655,-0.38032 0.52295,-0.28883 0.48412,0.0969 0.52295,0.0674 0.52295,-0.39696 0,-0.40054 -0.10528,-0.53826 -0.52295,-0.68384 -0.57002,-0.19872 -0.60786,-0.30307 -0.35295,-0.97353 0.20466,-0.53828 0.41705,-0.55913 1.00266,-0.0985 0.52663,0.41426 0.77203,0.44801 0.63355,0.0872 -0.0707,-0.18444 0.0207,-0.26693 0.31053,-0.28002 0.39559,-0.0179 0.39304,-0.0256 -0.0684,-0.20797 -0.41557,-0.1642 -0.47937,-0.28576 -0.47937,-0.91318 0,-0.49662 -0.10686,-0.82048 -0.3405,-1.03192 -0.33355,-0.30185 -0.32021,-0.32457 0.65369,-1.11286 0.54682,-0.44261 1.13716,-0.98287 1.3119,-1.20059 0.17475,-0.21771 0.46362,-0.39585 0.64195,-0.39585 0.45793,0 0.62188,-0.64665 0.26416,-1.04193 -0.25906,-0.28625 -0.26354,-0.39589 -0.0429,-1.04881 0.25315,-0.74882 0.20984,-1.64207 -0.0712,-1.46841 -0.0868,0.0536 -0.35364,0.48413 -0.59311,0.95673 -0.48187,0.95092 -0.85655,1.08623 -1.16052,0.4191 -0.15067,-0.33069 -0.15118,-0.70556 -0.002,-1.50766 0.10914,-0.58712 0.1556,-1.13696 0.10307,-1.22185 -0.0524,-0.0849 -0.38998,0.2994 -0.75003,0.85396 -0.61032,0.94007 -0.63713,1.03544 -0.39606,1.40924 0.24247,0.37594 0.22185,0.43882 -0.33089,1.00911 -0.69913,0.72131 -1.32081,0.75907 -1.24392,0.0755 0.0266,-0.23695 0.25575,-0.64715 0.50911,-0.91161 0.44525,-0.46475 0.45023,-0.49233 0.14878,-0.82544 -0.56423,-0.62346 -0.0156,-1.47879 1.71689,-2.67652 0.64306,-0.44458 0.57135,-0.96564 -0.23216,-1.68671 -0.37683,-0.33817 -0.73511,-0.79136 -0.79617,-1.00708 -0.10023,-0.35419 -0.0506,-0.39221 0.51085,-0.39221 0.56368,0 0.62186,-0.0454 0.62186,-0.48418 0,-0.26628 -0.11567,-0.64929 -0.25703,-0.85113 -0.25288,-0.36104 -0.27156,-0.35254 -1.15841,0.52776 -0.49577,0.49209 -0.92277,0.81627 -0.94893,0.72039 -0.0262,-0.0959 -0.0969,-0.46878 -0.15699,-0.8287 -0.11017,-0.65896 -0.66405,-1.35028 -1.08171,-1.35028 -0.12391,0 -0.27502,0.19818 -0.33581,0.4404 -0.0608,0.24221 -0.26059,0.5207 -0.44401,0.61885 -0.1974,0.10561 -0.28075,0.26377 -0.20425,0.38751 0.0711,0.11498 0.10822,0.40883 0.0825,0.65299 -0.0285,0.27195 0.0921,0.5695 0.31148,0.76798 0.79778,0.72199 0.31199,1.91663 -1.20764,2.96973 -0.61026,0.42291 -0.70056,0.56359 -0.6142,0.95686 0.0739,0.33657 5.3e-4,0.55221 -0.27182,0.79869 -0.57313,0.51868 -0.86034,1.2036 -0.86034,2.05165 0,0.79644 -0.335,1.2998 -0.71056,1.0677 -0.1465,-0.0905 -0.16901,-0.64784 -0.081,-2.00541 0.13969,-2.15529 0.0319,-2.504 -0.89341,-2.89063 -0.8829,-0.36891 -1.58225,-0.0831 -2.47153,1.01013 -0.69245,0.85124 -0.91662,1.57576 -0.55641,1.79837 0.20531,0.1269 0.60983,-0.28013 1.36185,-1.37028 0.65172,-0.94473 1.0911,-1.01389 1.65179,-0.26 0.33835,0.45494 0.3382,0.46242 -0.0261,1.28596 -0.20154,0.4556 -0.36815,0.91645 -0.37025,1.0241 -0.002,0.10766 -0.15349,0.5254 -0.33642,0.92831 l -0.33258,0.73257 -0.68898,-0.68899 c -0.4965,-0.49649 -0.83523,-0.68899 -1.21242,-0.68899 -0.36595,0 -0.60931,-0.13111 -0.80895,-0.43579 -0.15705,-0.2397 -0.40141,-0.43581 -0.54301,-0.43581 -0.43509,0 -0.2852,-0.67157 0.22192,-0.99427 0.6209,-0.39511 0.68345,-0.49426 0.80962,-1.28327 0.13462,-0.84194 0.64408,-1.24452 2.10396,-1.66261 0.62662,-0.17945 1.13931,-0.3735 1.13931,-0.43122 0,-0.24031 -0.94946,-0.50949 -1.79496,-0.50888 -1.07266,7e-4 -1.95335,0.4629 -2.24035,1.17561 -0.61936,1.538 -0.96033,2.13211 -1.31694,2.29459 -0.37292,0.16991 -0.39982,0.14395 -0.39405,-0.38043 0.003,-0.30955 0.11827,-0.75892 0.25528,-0.9986 0.13702,-0.23968 0.25192,-0.6422 0.25531,-0.89448 0.004,-0.31123 0.1941,-0.60202 0.59074,-0.90456 0.32152,-0.24523 0.68636,-0.6916 0.81076,-0.99194 0.19544,-0.47183 0.18384,-0.63322 -0.0855,-1.18725 l -0.31158,-0.64121 -0.2508,0.73659 c -0.1597,0.46906 -0.50118,0.9349 -0.94021,1.28261 -0.7699,0.60976 -1.09914,1.15692 -1.2725,2.11475 -0.0644,0.35616 -0.2045,0.70153 -0.31122,0.76748 -0.34946,0.21599 -0.69689,-0.49471 -0.60214,-1.23176 0.0752,-0.5845 0.28743,-0.87413 1.40782,-1.92076 1.49662,-1.39808 1.74786,-2.04579 0.76314,-1.96746 -0.67144,0.0534 -1.00479,-0.44852 -1.01256,-1.52462 l -0.004,-0.69727 -0.88233,1.00092 c -0.48529,0.55052 -1.11105,1.45861 -1.39057,2.01797 -0.46081,0.92219 -1.22827,1.6389 -1.48259,1.38457 -0.0552,-0.0552 0.0232,-0.33899 0.17405,-0.63077 0.15089,-0.29178 0.27434,-0.82432 0.27434,-1.18347 v -0.65296 l -0.60831,0.58958 c -0.38014,0.36847 -0.64786,0.82261 -0.71376,1.21085 -0.19951,1.17516 -0.42787,1.84236 -0.77001,2.24961 l -0.34289,0.40814 -0.62202,-0.38444 c -0.34212,-0.21144 -0.65001,-0.35588 -0.68419,-0.32097 -0.0342,0.0349 -0.0197,0.43747 0.0322,0.8946 l 0.0943,0.83115 0.56637,-0.43199 0.56634,-0.43198 0.32428,0.35832 c 0.31749,0.35081 0.31569,0.36528 -0.0858,0.69033 -0.22551,0.18261 -0.63798,0.332 -0.91659,0.332 h -0.5066 l 0.44639,0.88091 0.44639,0.88091 -0.44345,0.52702 c -0.56009,0.66562 -0.5625,0.91228 -0.008,0.80627 0.55152,-0.10539 1.0163,0.22574 0.93227,0.66425 -0.0356,0.18542 -0.37744,0.49401 -0.75981,0.68577 -0.38236,0.19174 -0.73216,0.37251 -0.77732,0.40169 -0.12431,0.0803 0.3449,0.34618 1.18458,0.67118 0.73901,0.28605 0.7843,0.28206 2.30132,-0.20276 1.37567,-0.43962 1.62399,-0.47161 2.23656,-0.28809 0.89998,0.26964 2.33978,1.57594 2.81187,2.55112 l 0.37379,0.77216 -0.37889,1.35029 c -0.28373,1.01114 -0.34631,1.54961 -0.2492,2.14382 0.26943,1.64849 0.19946,2.45598 -0.24389,2.81498 -0.52974,0.42896 -0.97885,0.44395 -0.80244,0.0267 0.55218,-1.30572 0.51036,-2.51044 -0.0985,-2.8363 -0.29397,-0.15734 -0.43888,-0.10043 -0.88799,0.34867 -0.46907,0.46907 -0.52273,0.61844 -0.42585,1.18533 0.23697,1.38649 0.217,1.49615 -0.30669,1.68305 -0.4024,0.14363 -0.52459,0.1222 -0.65753,-0.11534 -0.72334,-1.29254 -1.26744,-0.93749 -1.72986,1.12886 -0.25901,1.15731 -0.0552,1.6111 0.66225,1.47398 0.49738,-0.0952 0.66968,0.22452 0.39637,0.73524 -0.17818,0.33291 -0.1471,0.36226 0.38363,0.36226 0.35976,0 0.68889,0.13007 0.87291,0.34501 0.16248,0.18976 0.40511,0.30291 0.5392,0.25146 0.13408,-0.0515 0.54437,0.1104 0.91176,0.35976 0.36738,0.24931 0.82855,0.43032 1.02483,0.40222 0.29469,-0.0421 0.34729,-0.15735 0.30193,-0.66118 z m -2.25489,-2.30972 c 0.0399,-0.11984 0.22044,-0.24656 0.40121,-0.28157 0.28433,-0.0552 0.29712,-0.0258 0.0948,0.2179 -0.27651,0.33316 -0.59968,0.37464 -0.49614,0.0637 z m 3.1613,-10.55022 c -0.40705,-0.26543 -0.44453,-0.88237 -0.076,-1.25091 0.30094,-0.30093 0.57839,-0.35755 1.7521,-0.35755 h 1.39455 v 0.51682 c 0,0.61121 -0.27353,0.78706 -1.4817,0.95252 -0.47938,0.0656 -0.98926,0.15233 -1.13307,0.19262 -0.14381,0.0403 -0.34896,0.0162 -0.45589,-0.0536 z m -3.34941,-2.6108 c -0.16866,-0.32792 -0.13228,-0.5125 0.27635,-1.40198 0.24963,-0.54336 0.24245,-0.59659 -0.13444,-0.99777 -0.37123,-0.39517 -0.37682,-0.432 -0.0828,-0.54487 0.22569,-0.0865 0.42764,0.0196 0.70956,0.3732 0.38728,0.48568 0.40211,0.489 0.8554,0.192 0.55263,-0.36212 0.7071,-0.26268 1.30498,0.83992 0.39974,0.73723 0.41036,0.81619 0.14527,1.08128 -0.26509,0.26509 -0.32358,0.22557 -0.80075,-0.54109 l -0.5148,-0.82707 -0.58588,1.06572 c -0.60346,1.09767 -0.90057,1.29035 -1.17301,0.76066 z m -3.60966,-0.29042 c -0.22203,-0.33886 -0.23863,-0.50402 -0.0803,-0.79973 0.14503,-0.271 0.14843,-0.51903 0.0124,-0.90908 -0.13395,-0.38426 -0.13308,-0.60135 0.003,-0.76533 0.50283,-0.60588 1.67069,-0.36245 1.49445,0.3115 -0.067,0.25617 0.12686,0.55359 0.72441,1.11144 l 0.81589,0.76165 -0.38495,0.38684 c -0.34571,0.34739 -0.45062,0.36668 -1.02898,0.18916 -0.42702,-0.13104 -0.75053,-0.14066 -0.96007,-0.0284 -0.24936,0.13345 -0.37505,0.0791 -0.59584,-0.25793 z m 14.48244,-0.44203 c -0.29504,-0.32603 -0.29255,-0.36505 0.0598,-0.93513 0.32971,-0.53349 1.83003,-1.86236 2.10264,-1.86236 0.22865,0 0.70624,1.03701 0.70624,1.53354 0,0.58158 -0.23728,0.7326 -1.15108,0.7326 -0.47039,0 -0.64235,0.0939 -0.79814,0.43579 -0.23876,0.52403 -0.50648,0.55186 -0.91942,0.0956 z m -12.93821,-3.37728 c -0.77864,-0.28761 -0.81563,-0.36303 -0.4883,-0.99601 0.23566,-0.45569 0.24731,-0.58914 0.0615,-0.70398 -0.26248,-0.16222 -0.24897,-0.17732 0.45789,-0.512 0.28763,-0.13618 0.58179,-0.27626 0.65369,-0.3113 0.0719,-0.035 0.13075,0.0637 0.13075,0.21925 0,0.15562 0.16311,0.60268 0.36246,0.99345 0.66342,1.3004 0.1976,1.81867 -1.17797,1.31059 z m 15.18838,-0.89022 c -0.34301,-0.5235 -0.11882,-1.05317 0.51287,-1.21172 1.00232,-0.25156 1.29054,0.40336 0.51763,1.17626 -0.56627,0.56627 -0.68013,0.5702 -1.0305,0.0355 z m -13.39197,-2.85208 c -0.0471,-0.0761 0.0617,-0.46752 0.24184,-0.86971 0.2356,-0.52625 0.40332,-0.70212 0.59823,-0.62732 0.34769,0.1334 0.34743,0.75131 -5.3e-4,1.24806 -0.27179,0.38805 -0.67895,0.5088 -0.83954,0.24897 z m 14.62133,21.57836 c 0.13845,-0.22403 -0.35118,-0.41748 -0.70909,-0.28013 -0.14988,0.0575 -0.2237,0.18358 -0.16403,0.28013 0.14039,0.22714 0.73275,0.22714 0.87312,0 z m 11.72467,-2.43922 c 0.0262,-0.24767 -0.19811,-0.84968 -0.51965,-1.39456 l -0.56577,-0.95875 -0.094,0.90072 c -0.0561,0.5382 -0.23007,1.05112 -0.43217,1.27445 -0.28894,0.31929 -0.30115,0.39786 -0.0836,0.53931 0.14,0.0911 0.56832,0.14511 0.95182,0.1201 0.60084,-0.0392 0.70364,-0.10572 0.74339,-0.48127 z m -30.60909,-0.46281 c 0.40689,-0.36824 0.40584,-0.5831 -0.003,-0.5831 -0.4353,0 -1.00964,0.62521 -0.69138,0.75259 0.34898,0.13966 0.35392,0.13846 0.69421,-0.16949 z m 2.22711,-1.41111 c 0.23542,-0.84773 0.23105,-2.04419 -0.0105,-2.91477 l -0.19221,-0.69221 -0.50168,0.56147 c -0.58138,0.65068 -0.68199,0.69044 -0.55921,0.22096 0.0489,-0.1873 0.27695,-0.46365 0.50664,-0.61414 0.83092,-0.54444 0.3648,-1.95709 -0.79948,-2.42294 -0.88485,-0.35405 -1.29316,-0.35764 -1.57848,-0.0138 -0.18867,0.22732 -0.12415,0.37093 0.41445,0.92251 0.56117,0.57469 0.63779,0.75724 0.63693,1.51751 -10e-4,1.27516 -0.27491,2.08252 -0.78399,2.31448 -0.2394,0.10903 -0.43526,0.31765 -0.43526,0.46353 0,0.34453 0.96866,0.34684 1.56887,0.003 0.23968,-0.13702 0.62976,-0.25191 0.86685,-0.2553 0.42803,-0.005 0.42711,-0.002 -0.13073,0.50695 -0.80835,0.73831 -0.71805,1.01092 0.34517,1.04198 0.40029,0.0117 0.49849,-0.0845 0.65272,-0.63994 z m 26.30204,-0.0793 0.3537,-0.55864 -0.64164,-0.4391 c -0.3529,-0.2415 -1.222,-0.77108 -1.9313,-1.17684 -1.07396,-0.61435 -1.34929,-0.70583 -1.64621,-0.54692 -0.19611,0.10497 -0.82511,0.18418 -1.39779,0.17605 -1.2637,-0.0179 -1.49092,0.0923 -1.97796,0.95881 -0.5052,0.89887 -0.30104,1.29792 0.41035,0.80209 1.72977,-1.20561 4.05236,-0.90473 5.63707,0.73028 0.32674,0.3371 0.64941,0.61291 0.71707,0.61291 0.0677,0 0.28216,-0.25139 0.47671,-0.55864 z m -24.24595,-1.57675 c 0.63947,-0.66295 0.91648,-1.31285 0.91648,-2.15008 0,-0.56892 -0.0264,-0.59565 -0.47936,-0.48531 -0.26367,0.0642 -0.54054,0.2198 -0.61527,0.3457 -0.10118,0.17038 -0.25215,0.18469 -0.59072,0.0559 -0.25015,-0.0952 -0.48841,-0.13934 -0.52947,-0.0983 -0.15836,0.15836 0.36608,2.89851 0.55477,2.89851 0.10846,0 0.44302,-0.25494 0.74357,-0.56654 z m -5.04665,-1.53351 c -0.27608,-0.66432 -0.3164,-0.92902 -0.16466,-1.08078 0.11051,-0.1105 0.20098,-0.30293 0.20098,-0.42756 0,-0.46729 -0.51677,-0.19757 -1.30833,0.68284 l -0.8177,0.90945 0.46263,0.39793 c 0.32974,0.28364 0.68234,0.39792 1.22765,0.39792 h 0.76507 z m 5.1012,-2.08877 c 0.39894,-0.2135 0.86193,-1.05176 0.86193,-1.56052 0,-0.78395 -1.23183,-0.64915 -1.66155,0.18183 l -0.27336,0.52862 -0.53619,-0.45118 c -0.2949,-0.24816 -0.61947,-0.42342 -0.72125,-0.3895 -0.41042,0.13681 -0.29125,0.51948 0.36674,1.17745 0.7176,0.71761 1.2983,0.8694 1.96368,0.5133 z m 18.9814,-0.8844 c -0.41577,-0.77688 -1.55925,-1.08556 -1.55925,-0.42093 0,0.60506 0.36039,0.88279 1.05903,0.81617 0.60348,-0.0575 0.65792,-0.10065 0.50022,-0.39524 z m -25.51827,-0.23386 c 0.15357,-0.2344 0.25742,-0.60701 0.23075,-0.82801 -0.0266,-0.22103 0.0456,-0.57319 0.16059,-0.78262 0.27225,-0.49585 0.2649,-0.95794 -0.0216,-1.34958 -0.21505,-0.29412 -0.26663,-0.2966 -0.76867,-0.0371 -0.29599,0.15306 -0.56925,0.37161 -0.60727,0.48566 -0.0381,0.11406 -0.27298,-0.13924 -0.52212,-0.56286 -0.24914,-0.42363 -0.64915,-0.95344 -0.88889,-1.17736 l -0.43591,-0.40712 -0.11809,0.37207 c -0.117,0.36862 0.29071,1.22659 0.58287,1.22659 0.0776,0 0.10595,0.45105 0.063,1.00234 l -0.078,1.00233 0.63022,-0.60073 0.63023,-0.60073 v 0.53114 c 0,0.29212 0.0854,0.79778 0.18967,1.12368 0.10433,0.3259 0.21953,0.6906 0.25601,0.81044 0.10422,0.34252 0.39268,0.25635 0.6971,-0.20826 z m 18.69662,0.0707 c 0.45517,-0.42404 0.48998,-0.78586 0.0903,-0.93921 -0.26595,-0.10213 -0.57122,0.14447 -0.5778,0.46663 -0.006,0.32564 -0.48706,0.074 -0.99846,-0.52295 l -0.55998,-0.6537 -0.006,0.70922 c -0.005,0.62891 0.0577,0.74116 0.55998,0.99119 0.76125,0.37886 1.04113,0.36925 1.49243,-0.0512 z m -20.01952,-4.84083 c -0.005,-0.27492 -0.55889,-1.0792 -0.74266,-1.0792 -0.26892,0 -0.21418,0.75613 0.082,1.13266 0.36518,0.46425 0.67035,0.43956 0.66065,-0.0535 z m 1.73163,-0.0471 c 0.35065,-0.4743 0.37198,-0.59679 0.18322,-1.05248 -0.31826,-0.76835 -0.59499,-0.51417 -0.65394,0.60069 -0.0287,0.5437 -0.0239,0.98855 0.0114,0.98855 0.0346,0 0.24166,-0.24153 0.45992,-0.53676 z m 0.31668,-2.28375 c 0.34838,-0.28913 0.2757,-0.84017 -0.11085,-0.84017 -0.28449,0 -1.06011,0.93655 -1.06011,1.28007 0,0.13455 0.87473,-0.19408 1.17093,-0.4399 z m -0.23035,-2.21408 c 1.11584,-0.20846 1.52733,-0.6452 1.63173,-1.73181 0.0758,-0.78862 0.0415,-0.89618 -0.37156,-1.16683 -0.57988,-0.37996 -1.13166,-0.25258 -2.3353,0.53904 -0.80138,0.52707 -0.89564,0.64807 -0.73649,0.94543 0.17453,0.32611 0.15502,0.3248 -0.44601,-0.0299 l -0.62852,-0.37083 0.0577,0.50488 c 0.0366,0.3217 0.19991,0.56731 0.44983,0.67695 0.53119,0.23304 0.4935,0.39571 -0.1528,0.65943 l -0.54501,0.22238 0.48271,0.57366 0.4827,0.57366 0.63429,-0.61937 c 0.45208,-0.44144 0.87632,-0.66458 1.47681,-0.77677 z m -0.59193,-1.02776 c 0,-0.30749 0.5645,-0.91038 0.85243,-0.91038 0.51206,0 0.56674,0.21279 0.16468,0.64076 -0.36181,0.38513 -1.01711,0.55884 -1.01711,0.26962 z m 17.45816,1.22503 c 0.85009,-0.68659 1.36819,-1.38987 1.36819,-1.85723 0,-0.20956 -0.17671,-0.27818 -0.71638,-0.27818 -0.64536,0 -0.83113,0.11154 -1.87392,1.12485 -1.11976,1.08814 -1.14615,1.13348 -0.80891,1.389 0.57053,0.43227 1.1642,0.32164 2.03102,-0.37844 z m 0.67092,-1.78677 c 0,-0.0959 0.0783,-0.17431 0.17431,-0.17431 0.0959,0 0.17432,0.0783 0.17432,0.17431 0,0.0958 -0.0783,0.17432 -0.17432,0.17432 -0.0958,0 -0.17431,-0.0783 -0.17431,-0.17432 z m -20.91817,0.72673 c 0,-0.52889 -0.0882,-0.71499 -0.42378,-0.89462 -0.23309,-0.12474 -0.66913,-0.68709 -0.96898,-1.24968 -0.29986,-0.56258 -0.60644,-1.02289 -0.6813,-1.02289 -0.2125,0 -0.54072,0.83584 -0.54072,1.37698 0,0.91923 1.4348,2.45804 2.29191,2.45804 0.25809,0 0.32287,-0.13399 0.32287,-0.66783 z m 17.21069,-0.55261 c 1.41829,-0.18424 2.5825,-0.69629 2.74466,-1.2072 0.15557,-0.49018 -0.52797,-1.75601 -0.94825,-1.75601 -0.18433,0 -0.60999,-0.16217 -0.94593,-0.36037 -0.3756,-0.2216 -0.83251,-0.33908 -1.1866,-0.30505 -0.5135,0.0493 -0.58192,0.11902 -0.63211,0.64392 -0.053,0.55434 -0.0302,0.58206 0.39234,0.47604 0.24674,-0.062 0.80154,-0.16098 1.23293,-0.2201 0.90575,-0.12415 0.98503,0.0358 0.37144,0.74905 -0.39298,0.45688 -0.44641,0.46994 -1.10971,0.27121 -0.95961,-0.28751 -0.99941,-0.27962 -1.7029,0.33807 -1.62399,1.42587 -1.19271,1.75714 1.78413,1.37044 z m 11.78585,-0.54197 c 0.78334,-0.35692 1.03496,-1.40981 0.49598,-2.07543 -0.46046,-0.56863 -0.98599,-0.3207 -1.60388,0.75666 -0.69895,1.21869 -0.68319,1.51231 0.0813,1.51231 0.33105,0 0.79305,-0.0871 1.02668,-0.19354 z m -15.57405,-3.02522 c 0,-0.67565 -0.46464,-1.0622 -1.05249,-0.87564 -0.45943,0.14583 -0.43253,0.29999 0.16368,0.93823 0.65436,0.70051 0.88881,0.68398 0.88881,-0.0625 z m -15.62498,0.0683 c 0.51629,-0.40612 0.595,-0.8178 0.18633,-0.97462 -0.16915,-0.065 -0.48718,0.10286 -0.8363,0.44127 -0.30983,0.3003 -0.67728,0.54721 -0.81653,0.54868 -0.2158,0.002 -0.21458,0.0276 0.008,0.17165 0.41972,0.27123 0.96448,0.20139 1.4582,-0.18698 z m 180.915928,90.05142 c -0.50677,-0.23592 -1.29119,-0.73623 -1.74319,-1.11181 -0.45199,-0.37559 -1.07674,-0.81136 -1.38833,-0.96837 -0.3116,-0.15704 -0.56654,-0.34409 -0.56654,-0.41571 0,-0.0716 -0.27429,-0.27791 -0.60952,-0.45845 -1.49551,-0.80539 -5.26606,-5.24764 -6.1999,-7.30444 -0.45295,-0.99758 -0.42051,-1.41287 0.16126,-2.06398 l 0.49888,-0.55834 0.48134,0.72733 c 0.39358,0.59476 0.51901,1.06164 0.68806,2.56127 0.23177,2.05593 0.49486,2.5862 1.54133,3.10671 0.60435,0.3006 0.68668,0.30166 1.6852,0.0216 0.97658,-0.27402 1.08044,-0.2745 1.48875,-0.006 0.66574,0.43621 0.56715,1.32534 -0.10697,0.96455 -0.29555,-0.15816 -0.32573,-0.10202 -0.32573,0.60636 0,0.60914 0.0851,0.84032 0.38743,1.05206 0.53509,0.37478 0.84425,0.34155 1.53008,-0.16444 0.6494,-0.47913 1.59857,-0.57364 2.34505,-0.23352 0.26456,0.12055 0.61356,0.55917 0.86374,1.08557 0.38008,0.79968 0.39659,0.92823 0.17438,1.35793 -0.49492,0.95704 -0.17968,1.52833 1.09398,1.98258 l 0.66523,0.23725 -0.87158,0.005 c -0.57045,0.003 -1.18996,-0.14225 -1.79297,-0.423 z m 9.00229,-1.16314 c -0.61346,-0.65671 -0.58688,-0.98505 0.11256,-1.38994 0.90018,-0.52108 1.36186,-0.55776 1.88089,-0.14949 0.6876,0.54087 0.64688,1.29014 -0.0947,1.74229 -0.80207,0.48904 -1.3024,0.43559 -1.89879,-0.20286 z M 31.922432,152.28802 c -0.16214,-0.62004 0.28488,-1.50059 0.83144,-1.63776 0.51023,-0.12806 1.13701,0.005 1.13701,0.242 0,0.0814 -0.33339,0.40825 -0.74085,0.72642 -0.40746,0.31817 -0.82672,0.68935 -0.93168,0.82485 -0.15684,0.2025 -0.20955,0.1748 -0.29592,-0.15551 z m 3.41985,-0.59028 c -0.4256,-0.36606 -0.4642,-0.47834 -0.31271,-0.90912 0.13004,-0.36976 0.33474,-0.52975 0.82661,-0.64607 0.82023,-0.19399 1.13071,-0.0772 1.3538,0.5097 0.24697,0.64955 0.0681,1.0542 -0.56314,1.27426 -0.7276,0.25364 -0.74787,0.25009 -1.30456,-0.22877 z m 3.03729,-2.2381 c -0.54796,-0.60934 -0.58022,-0.82722 -0.22434,-1.51541 0.62233,-1.20347 2.45487,-0.82176 2.80792,0.58489 0.13753,0.54798 -0.14617,0.9357 -0.92196,1.25999 -0.80358,0.3359 -1.11961,0.27324 -1.66162,-0.32947 z m 55.76449,-2.18156 c 3.00209,-4.8428 7.764868,-12.65452 7.848848,-12.87337 0.0681,-0.17762 -0.057,-0.24408 -0.45941,-0.24408 -0.6212,0 -1.12854,-0.22277 -1.706788,-0.74944 -0.31858,-0.29018 -0.3922,-0.30624 -0.3922,-0.0856 0,0.14943 -0.32499,0.92096 -0.72218,1.71454 -1.32171,2.64069 -3.74613,4.52539 -6.48644,5.04245 -2.82662,0.53335 -4.8092,-0.74436 -4.81647,-3.10406 l -0.003,-0.92991 -1.08949,0.94718 c -1.66002,1.44319 -2.87556,2.1867 -4.32928,2.64812 -2.82482,0.89661 -4.424,0.75855 -5.66831,-0.48932 -0.81201,-0.81434 -1.18221,-2.00252 -0.99175,-3.18304 l 0.10936,-0.67789 -1.3802,1.24886 c -0.75911,0.68687 -2.40799,2.29496 -3.66418,3.57352 -1.71861,1.74923 -2.39267,2.5659 -2.72313,3.2992 -0.48727,1.08126 -1.1969,1.69529 -2.1352,1.84756 -0.7352,0.1193 -1.00497,-0.29005 -0.53406,-0.8104 0.35724,-0.39475 0.52907,-1.49377 0.36788,-2.35302 -0.1519,-0.80966 -1.03842,-1.80969 -1.96937,-2.2215 -1.35377,-0.59883 -2.67768,-0.59486 -4.94352,0.0148 -3.11388,0.8379 -5.07355,0.71008 -4.5352,-0.29581 0.247,-0.46155 0.69189,-0.53271 4.11384,-0.65799 2.42423,-0.0888 3.09702,-0.17084 3.69769,-0.45113 1.70783,-0.79691 3.69975,-3.42205 6.48561,-8.54724 0.87075,-1.60196 1.58319,-2.94269 1.58319,-2.9794 0,-0.0366 -0.33339,-0.16634 -0.74086,-0.28809 -1.57704,-0.47114 -2.8893,-1.37607 -3.3913,-2.33865 -0.93571,-1.79419 -0.3893,-4.09801 1.16224,-4.90035 0.96845,-0.5008 3.09723,-0.493 3.26554,0.012 0.0349,0.10443 -0.406,0.14445 -1.13682,0.10317 -1.57519,-0.089 -2.44952,0.32603 -2.97544,1.41242 -0.72163,1.4907 -0.34168,3.00914 1.05127,4.20146 0.67588,0.57853 2.27958,1.32752 2.84242,1.32752 0.13106,0 0.48526,-0.4376 0.78711,-0.97243 0.74189,-1.31457 3.10367,-3.73893 4.64992,-4.77311 0.69509,-0.46492 1.91559,-1.09987 2.7122,-1.411 1.21354,-0.47398 1.74742,-0.57902 3.29285,-0.64792 1.59533,-0.0711 1.95381,-0.0338 2.6537,0.27573 1.44621,0.63974 1.90376,2.08496 1.15184,3.63822 -1.14079,2.35654 -5.24095,4.02188 -11.52437,4.68079 l -0.99346,0.10412 -0.90219,1.68817 c -2.82313,5.28257 -5.93907,8.38595 -9.74175,9.70247 -0.57444,0.19888 -0.51905,0.21532 1.04404,0.30978 2.64279,0.1597 4.46138,1.08508 4.79523,2.44007 0.065,0.26365 0.12922,0.47889 0.1428,0.4783 0.14868,-0.006 8.3048,-8.18405 8.3048,-8.32672 0,-0.3473 1.96028,-2.3217 3.01874,-3.04048 2.71003,-1.84035 6.01539,-2.24698 7.09936,-0.8734 0.54709,0.69327 0.39356,1.79335 -0.35861,2.56938 -1.02523,1.05778 -3.50249,2.10084 -6.44745,2.71474 -0.52732,0.10993 -1.05681,0.27873 -1.17665,0.37515 -0.32211,0.25914 -0.25761,1.50999 0.12088,2.3436 0.43693,0.96241 1.17197,1.34928 2.51873,1.32573 2.32494,-0.0406 5.7806,-2.51257 6.97024,-4.98597 1.37462,-2.85794 4.94478,-5.18283 7.94077,-5.17102 1.85498,0.006 3.08288,0.94353 3.60838,2.75119 0.15807,0.54375 0.37374,1.12688 0.479258,1.29584 0.31029,0.49685 1.25438,0.8597 1.91458,0.73585 0.55297,-0.10381 0.76364,-0.39862 3.60579,-5.04722 l 3.01851,-4.93704 1.54679,-0.12243 c 0.85074,-0.0674 1.57729,-0.0919 1.61454,-0.0546 0.0373,0.0373 -1.3236,2.18351 -3.02412,4.76945 -3.34257,5.08297 -3.62986,5.54274 -2.88336,4.61454 1.13457,-1.41073 2.74913,-2.94429 3.57042,-3.39129 0.54789,-0.29819 1.25382,-0.51163 1.87002,-0.56541 0.84104,-0.0734 1.08122,-0.024 1.59744,0.32795 0.90066,0.6142 1.07547,1.07004 0.99968,2.60701 -0.0704,1.42735 -0.5888,2.77584 -1.46962,3.82265 -0.24338,0.28922 -0.41273,0.55562 -0.37635,0.592 0.12943,0.12943 1.88379,-0.57772 2.81492,-1.13466 0.6629,-0.3965 1.10651,-0.83251 1.48107,-1.45573 2.01032,-3.34488 6.11578,-5.55513 8.48202,-4.56645 0.32301,0.13497 0.77635,0.52361 1.00742,0.86365 l 0.42012,0.61826 0.30363,-0.51402 c 0.36717,-0.62157 0.72039,-0.7238 2.26522,-0.65561 l 1.18839,0.0524 -1.46775,2.17898 c -2.87474,4.26778 -3.94438,6.3441 -3.72288,7.22662 0.20221,0.80569 1.40032,0.54209 2.98087,-0.65582 1.77873,-1.34813 2.54307,-2.29866 4.46358,-5.55085 1.3522,-2.28986 2.03258,-3.28111 2.30157,-3.35323 0.21004,-0.0563 0.99444,-0.10349 1.74311,-0.10486 l 1.36121,-0.002 -0.78749,1.0895 c -0.43311,0.5992 -1.20037,1.6778 -1.70504,2.39686 l -0.91754,1.30739 1.27729,-1.27609 c 1.23846,-1.23731 3.43332,-3.00675 4.33684,-3.49629 0.24375,-0.13205 0.95807,-0.28142 1.58742,-0.33194 l 1.14426,-0.0918 -0.30786,0.46986 c -0.82,1.25148 -1.16201,2.10781 -1.16201,2.90947 0,0.994 0.31318,1.38104 1.11755,1.38104 0.48994,0 0.68358,-0.14668 1.38327,-1.04768 1.55627,-2.00402 3.98042,-3.42949 6.14323,-3.61238 1.30608,-0.1104 2.16584,0.24388 2.70377,1.11425 0.20419,0.3304 0.39286,0.57699 0.41926,0.54798 0.0264,-0.0291 1.54915,-2.52371 3.38388,-5.54377 l 3.33586,-5.49103 0.91063,-0.11347 c 1.71251,-0.21345 2.44084,-0.17721 2.3284,0.11581 -0.0557,0.14507 -1.97179,3.14553 -4.25801,6.66767 -6.32025,9.73692 -7.61637,12.06307 -7.25143,13.01412 0.17012,0.4433 1.11061,0.32382 2.16017,-0.27442 1.12592,-0.64174 3.78828,-3.32247 5.40386,-5.44114 0.62318,-0.81723 1.2339,-1.49014 1.3571,-1.49534 0.317,-0.0134 0.10033,0.33412 -1.29844,2.08237 -1.54032,1.92515 -4.10377,4.49565 -5.17408,5.18833 -1.13123,0.73208 -2.49851,1.03702 -3.41653,0.76197 -0.85763,-0.25695 -1.40417,-0.92558 -1.40417,-1.71783 v -0.60141 l -0.79971,0.70394 c -1.04408,0.91902 -2.02706,1.38107 -3.20961,1.50864 -2.64655,0.28551 -3.80402,-2.23316 -2.53226,-5.5103 0.0949,-0.24458 -0.003,-0.25661 -0.84945,-0.10339 -1.23894,0.22456 -2.41005,-0.17449 -2.90785,-0.99089 -0.36458,-0.5979 -0.44502,-1.84466 -0.15408,-2.38827 0.29946,-0.55954 -0.0337,-0.38347 -1.26323,0.66744 -1.96758,1.68185 -3.28182,3.34661 -5.77799,7.31907 l -0.46554,0.74086 h -1.39207 c -0.76563,0 -1.39207,-0.061 -1.39207,-0.13555 0,-0.0745 0.10359,-0.29025 0.23019,-0.47936 0.12661,-0.18912 0.41836,-0.65549 0.64834,-1.03638 l 0.41813,-0.69253 -1.12771,0.91616 c -2.88052,2.34018 -5.48975,2.52639 -6.0086,0.42881 l -0.17433,-0.70471 -0.75162,0.66713 c -1.57013,1.39359 -3.30896,1.86101 -4.59936,1.23634 -1.14189,-0.55279 -1.44743,-1.19293 -1.44743,-3.03259 0,-0.83891 -0.0392,-1.50157 -0.0872,-1.4726 -0.62255,0.37635 -2.51889,1.16647 -3.02941,1.26223 -0.3881,0.0728 -0.98123,0.40087 -1.43529,0.79387 -1.13621,0.98337 -2.21499,1.69231 -3.34099,2.19554 -2.26957,1.01431 -4.32425,0.32683 -3.51916,-1.17749 0.33667,-0.62906 2.06953,-1.25281 4.5732,-1.64609 0.53147,-0.0835 0.74514,-0.24299 1.1193,-0.83555 0.75604,-1.1973 1.29308,-2.71621 1.39336,-3.94075 0.0821,-1.00265 0.0455,-1.21082 -0.28655,-1.62892 -0.74786,-0.94177 -1.64758,-0.5833 -3.50961,1.39828 -1.65516,1.76143 -3.50565,4.48203 -6.67161,9.80856 -1.393878,2.34514 -2.972718,4.98948 -3.508518,5.87632 l -0.9742,1.61245 h -1.56278 -1.5628 z m -1.5777,-8.03365 c 2.50656,-1.82278 4.93035,-6.89225 4.36751,-9.13483 -0.0582,-0.23182 -0.31026,-0.51464 -0.56018,-0.62851 -1.37143,-0.62486 -3.56988,1.251 -5.10427,4.35531 -1.34479,2.72072 -1.74428,4.83304 -1.0681,5.64777 0.36845,0.44396 1.59597,0.31953 2.36504,-0.23974 z m 14.468408,-0.18125 c 0.37391,-0.27572 0.95438,-0.79584 1.28996,-1.15582 l 0.61011,-0.65451 -0.78443,0.11699 c -1.94166,0.28954 -3.13773,0.8815 -3.13773,1.55292 0,0.54019 0.12458,0.64172 0.78732,0.64172 0.33744,0 0.82136,-0.19646 1.23477,-0.5013 z m 13.89347,-0.49842 c 1.83446,-1.25876 4.29111,-5.61839 4.30166,-7.63381 0.008,-1.49988 -0.98442,-1.97627 -2.53562,-1.21735 -2.11384,1.03421 -4.47133,4.88055 -4.48858,7.32328 -0.0149,2.10236 1.03044,2.68898 2.72254,1.52788 z m 26.21341,0.11302 c 2.33087,-1.12837 5.06865,-6.24024 4.51771,-8.43534 -0.14295,-0.56955 -1.10356,-1.02312 -1.8048,-0.85217 -1.38744,0.33821 -2.97096,2.05365 -4.16216,4.50884 -1.16054,2.39201 -1.23551,4.4258 -0.18193,4.93516 0.55769,0.26961 0.79874,0.24649 1.63118,-0.15649 z m -66.597268,-4.50953 c 1.66785,-0.83884 2.56868,-1.56553 3.2264,-2.60262 0.639,-1.00761 0.66934,-1.86673 0.0755,-2.13733 -0.64264,-0.29279 -1.78986,0.35127 -3.09552,1.7379 -0.99152,1.05301 -2.23443,2.99887 -2.23443,3.49816 0,0.35681 0.64681,0.19858 2.02807,-0.49611 z m -3.72862,-7.78091 c 0.69562,-0.15521 1.89231,-0.57512 2.65932,-0.93312 2.29268,-1.07017 3.47661,-2.51541 3.68316,-4.49608 0.13685,-1.31226 -0.19906,-1.78288 -1.36647,-1.91446 -2.18012,-0.24572 -5.19923,2.02433 -7.70937,5.79663 -1.4437,2.16965 -1.4501,2.07593 0.13274,1.94212 0.73471,-0.0621 1.90499,-0.2399 2.60062,-0.39509 z m 166.779818,21.10857 c 0,-1.69135 0.2553,-1.93055 0.67344,-0.63094 0.201,0.62473 0.20071,0.8357 -0.002,1.36819 -0.44353,1.16533 -0.67148,0.91507 -0.67148,-0.73725 z m -208.797268,1.12317 c -0.49438,-0.19641 -0.95169,-1.23474 -0.80364,-1.82465 0.13158,-0.52423 0.7763,-1.06473 1.44526,-1.21166 0.65631,-0.14415 2.35448,0.42644 2.4272,0.81555 0.0739,0.39561 -0.57959,1.25562 -1.34918,1.77541 -0.79078,0.5341 -1.21781,0.6447 -1.71964,0.44535 z m 179.240228,-3.60986 c -0.64978,-0.45124 -0.77432,-0.97987 -0.77432,-3.28679 0,-2.11657 0.0335,-2.35568 0.42713,-3.04866 0.2815,-0.49559 0.45679,-0.66509 0.51421,-0.49718 0.0479,0.14014 0.29755,0.96078 0.55473,1.82365 0.25721,0.86287 0.73181,2.26198 1.05466,3.1091 0.32284,0.84713 0.587,1.57273 0.587,1.61245 0,0.0398 -0.38758,0.0722 -0.86131,0.0722 -0.4737,0 -0.90978,0.0784 -0.96902,0.17431 -0.1269,0.20532 -0.27946,0.21703 -0.53308,0.0408 z m 29.83868,-0.41364 c -0.35793,-0.51105 -0.37498,-1.37045 -0.0272,-1.37045 0.33592,0 0.74871,1.33266 0.49223,1.58915 -0.12835,0.12834 -0.26799,0.0626 -0.46507,-0.2187 z M 37.249982,144.32279 c -0.21381,-0.0413 -0.55427,-0.28553 -0.7566,-0.54275 -0.73793,-0.93812 -0.0446,-2.34379 1.2651,-2.56508 0.57733,-0.0975 0.76222,-0.0508 1.11699,0.28251 0.50423,0.4737 0.85615,1.52668 0.7078,2.11778 -0.17027,0.67839 -1.07068,0.95142 -2.33329,0.70754 z m 204.991648,-4.09026 c -0.16019,-0.41538 -0.50027,-1.15764 -0.75571,-1.64946 -0.53597,-1.03192 -0.42407,-1.65149 0.16737,-0.92681 1.23498,1.51316 1.82751,3.13553 1.19308,3.26671 -0.23334,0.0482 -0.38789,-0.12819 -0.60474,-0.69044 z m -208.960858,0.35359 c -1.34264,-0.7577 -1.69656,-1.86858 -0.86139,-2.70374 l 0.446,-0.446 -0.70748,-0.60558 c -0.81833,-0.70045 -0.90205,-1.20642 -0.29411,-1.77755 0.22734,-0.21358 0.55896,-0.65868 0.73691,-0.98914 0.38787,-0.72022 0.805,-0.76609 1.37485,-0.15122 0.82001,0.8848 0.70453,1.88319 -0.32958,2.84927 -0.2488,0.23244 -0.45236,0.47735 -0.45236,0.54426 0,0.0668 0.31913,0.17269 0.70916,0.23505 1.42447,0.22779 1.94895,1.38775 1.1592,2.56374 -0.43351,0.64551 -1.14779,0.83837 -1.7812,0.48091 z m 3.58971,-0.56637 c -0.31169,-0.37558 0.10756,-1.15257 0.6219,-1.15257 0.33585,0 0.40782,0.0913 0.40782,0.51681 0,0.33257 -0.12021,0.58116 -0.33717,0.69727 -0.43008,0.23018 -0.45209,0.22823 -0.69255,-0.0615 z m 132.358138,-0.004 c -1.12387,-0.27274 -2.30798,-0.96193 -2.79881,-1.62897 -1.25011,-1.69887 -0.61994,-4.05174 1.08517,-4.05174 0.81792,0 1.10103,0.14755 1.40281,0.73111 0.33802,0.65367 0.18155,1.42168 -0.37952,1.86305 -0.63709,0.50112 -0.58545,1.47162 0.11302,2.12408 0.63529,0.59347 1.31967,0.74818 2.91175,0.65822 1.57693,-0.0891 2.79909,-0.70361 4.19331,-2.10841 1.41058,-1.42129 2.29114,-2.69847 4.29643,-6.23147 3.40771,-6.00387 5.04329,-8.02249 8.49125,-10.47988 0.39421,-0.28095 0.39095,-0.28482 -0.71237,-0.84177 -5.9126,-2.98467 -14.77299,0.80843 -16.64602,7.12609 -0.40578,1.36866 -0.36607,3.55463 0.0825,4.5442 0.67463,1.48808 1.53247,2.09182 2.97223,2.09182 2.86045,0 4.93525,-3.1555 4.61329,-7.01631 -0.0701,-0.84103 -0.0483,-1.35097 0.0579,-1.35097 0.5537,0 0.43381,3.72106 -0.17124,5.31543 -0.5946,1.56681 -1.99849,2.90407 -3.55267,3.38413 -2.1124,0.65244 -3.91445,0.34939 -5.25162,-0.88317 -2.74119,-2.52674 -1.61537,-7.51371 2.41653,-10.70424 3.16461,-2.50425 7.20403,-3.90141 11.29735,-3.90752 2.26632,-0.003 3.22311,0.13855 5.40627,0.802 l 1.5039,0.45704 1.45283,-0.56029 c 0.79908,-0.30815 1.8873,-0.59461 2.41826,-0.63657 l 0.96542,-0.0763 -1.30738,0.40832 c -0.71907,0.22457 -1.642,0.58228 -2.05098,0.79493 l -0.74358,0.38659 0.94567,0.92326 c 0.72104,0.70397 1.01151,1.14505 1.22297,1.85703 0.34278,1.15436 0.34469,1.45187 0.0162,2.55777 -0.46734,1.5737 -2.23392,2.90939 -4.68037,3.53876 -1.31614,0.33859 -1.30383,0.37041 0.26754,0.69221 1.09534,0.22432 1.92508,0.71213 2.4759,1.45555 0.26881,0.36284 0.37839,0.81833 0.42662,1.77359 0.0797,1.57814 -0.24138,2.64422 -1.19922,3.98184 -2.80782,3.92107 -10.33574,4.29941 -10.33574,0.51945 0,-1.06705 0.74882,-1.84257 1.77915,-1.84257 0.38942,0 0.90085,0.12633 1.13651,0.28073 l 0.42845,0.28075 -0.50992,0.5459 c -0.41991,0.44949 -0.50995,0.69656 -0.50995,1.39906 0,1.14759 0.39864,1.55179 1.52528,1.54659 1.1156,-0.005 2.0695,-0.47414 2.97902,-1.46461 1.53732,-1.67411 2.28603,-4.3578 1.75221,-6.28053 -0.35792,-1.28921 -1.35119,-1.96389 -3.35448,-2.2785 -0.84307,-0.13241 -0.71675,-0.26903 0.41402,-0.44779 2.8971,-0.45796 4.87641,-2.47001 4.87137,-4.95189 -0.002,-1.0963 -0.40121,-2.24574 -0.93196,-2.68499 -0.26336,-0.21795 -0.38979,-0.14669 -1.16299,0.65551 -1.05572,1.09526 -1.86732,2.34696 -4.27968,6.6003 -2.35508,4.15234 -3.06971,5.25537 -4.42486,6.82992 -2.95086,3.42854 -7.36049,5.16659 -10.91788,4.30327 z m 26.02613,0.0774 c -0.64339,-0.20416 -0.95364,-0.47421 -1.29356,-1.1259 -1.08751,-2.08487 -0.25889,-4.7847 2.23202,-7.27244 2.83531,-2.83173 6.62657,-3.65792 7.78519,-1.69654 0.36139,0.61181 0.51972,0.62844 0.76921,0.0809 0.10551,-0.23157 0.35878,-0.46583 0.56281,-0.52057 0.51886,-0.13925 2.72426,-0.12938 2.72426,0.0122 0,0.064 -0.86612,1.4355 -1.92469,3.04762 -2.25297,3.43106 -3.18021,5.25713 -3.09912,6.10321 0.0496,0.51692 0.11972,0.5878 0.63063,0.6369 0.72416,0.0696 1.61268,-0.44126 3.34727,-1.92442 1.1949,-1.02172 1.47971,-1.40735 3.31007,-4.48183 1.36342,-2.29015 2.13211,-3.41313 2.40822,-3.51809 0.43582,-0.16572 2.99762,-0.21664 2.99762,-0.0596 0,0.052 -0.29726,0.50307 -0.66062,1.00232 -0.36333,0.49925 -1.04479,1.45683 -1.51434,2.12796 l -0.85378,1.22022 1.30346,-1.22022 c 1.75683,-1.64466 3.83749,-3.20507 4.54366,-3.40761 0.31819,-0.0913 0.94591,-0.16591 1.39496,-0.16591 h 0.81645 l -0.59925,0.99516 c -1.30414,2.16575 -1.21775,3.71142 0.20744,3.71142 0.74367,0 1.43982,-0.3453 2.34515,-1.16321 0.37778,-0.3413 0.68686,-0.54296 0.68686,-0.44814 0,0.31553 -1.58313,1.63715 -2.40983,2.01175 -1.05135,0.47641 -2.72362,0.51416 -3.3915,0.0765 -0.93712,-0.61404 -1.29266,-1.73359 -0.94581,-2.97832 l 0.1384,-0.4967 -0.5742,0.40008 c -0.91577,0.63807 -3.14686,2.93292 -4.05107,4.16686 -0.45668,0.62318 -1.3004,1.89789 -1.87494,2.83266 l -1.04465,1.69961 h -1.48484 -1.48483 l 0.24855,-0.39221 c 0.73313,-1.15695 1.02796,-1.6996 0.92338,-1.6996 -0.0642,0 -0.5217,0.35571 -1.01654,0.7905 -1.31295,1.15356 -2.57525,1.72489 -3.82593,1.7316 -0.93914,0.004 -1.06592,-0.0416 -1.53283,-0.56379 -0.3263,-0.36492 -0.50904,-0.75973 -0.50904,-1.09985 v -0.53057 l -0.82801,0.68878 c -1.51877,1.26343 -3.23961,1.81539 -4.45623,1.4293 z m 3.15448,-1.14684 c 1.3908,-0.57886 3.33849,-3.04526 4.3585,-5.51932 0.69386,-1.68297 0.82508,-2.54737 0.50355,-3.31693 -0.30627,-0.73297 -0.86735,-0.92331 -1.9011,-0.64496 -0.88907,0.23941 -2.72668,2.03312 -3.58748,3.50177 -1.55168,2.64748 -1.86763,5.46539 -0.67728,6.04051 0.51756,0.25005 0.56113,0.24801 1.30381,-0.0611 z M 36.052432,137.40308 c -0.58117,-0.58116 -0.74065,-1.17028 -0.44359,-1.63859 0.2161,-0.3407 0.79226,-0.32038 1.48433,0.0523 0.34041,0.18334 0.66211,0.29016 0.71485,0.23743 0.0527,-0.0528 -0.0284,-0.44154 -0.18027,-0.86395 -0.56532,-1.57224 -0.25148,-2.48431 0.93119,-2.70617 0.87515,-0.16418 1.30774,0.39686 1.1881,1.54092 -0.10834,1.03667 -0.36871,1.53026 -0.80707,1.53026 -0.47035,0 -0.43902,0.079 0.31119,0.78386 l 0.6537,0.61422 -0.40617,0.34253 c -0.47408,0.39982 -1.44081,0.6975 -2.26961,0.69888 -0.43246,7e-4 -0.73774,-0.1528 -1.17665,-0.59171 z m 202.313598,-2.6808 c -0.14381,-0.0484 -0.73214,-0.57207 -1.30738,-1.16371 -0.7654,-0.78719 -1.3615,-1.21173 -2.22256,-1.58292 -1.34021,-0.57775 -1.52291,-0.81885 -0.43579,-0.57514 0.99072,0.22209 2.09089,0.95367 3.34564,2.22471 1.01012,1.02322 1.15332,1.27659 0.62009,1.09706 z M 35.057872,132.39777 c -0.2486,-0.14463 -0.2716,-0.23507 -0.10937,-0.4305 0.1129,-0.13607 0.36011,-0.2474 0.54929,-0.2474 0.37597,0 1.35653,-0.52262 1.35653,-0.723 0,-0.0687 -0.23533,-0.29243 -0.52296,-0.49724 -0.55912,-0.39814 -0.67795,-0.69726 -0.27697,-0.69726 0.32919,0 1.14856,0.9915 1.14856,1.38986 0,0.3856 -1.11583,1.40128 -1.53135,1.39393 -0.16444,-0.003 -0.44062,-0.0877 -0.61371,-0.18839 z m -3.81687,-1.67652 c -0.25899,-0.16064 -0.61198,-0.55658 -0.78443,-0.87986 l -0.31353,-0.5878 0.48909,-0.42289 c 0.26902,-0.23258 0.64551,-0.42288 0.83668,-0.42288 0.49552,0 1.33445,0.46793 1.54532,0.86192 0.24282,0.45374 0.22679,1.28718 -0.0297,1.54366 -0.29776,0.29776 -1.19088,0.25056 -1.74342,-0.0921 z m 3.57912,-2.12812 c -1.16702,-0.52987 -1.4521,-1.45472 -0.64425,-2.09016 0.53899,-0.42397 1.23238,-0.46032 2.07391,-0.10869 0.70969,0.29653 0.75397,0.59009 0.26206,1.73763 -0.38786,0.90487 -0.59203,0.96053 -1.69172,0.46124 z m -3.33462,-2.71018 c -0.30692,-0.25824 -0.55802,-0.62548 -0.55802,-0.81609 0,-0.51117 0.93152,-1.36564 1.4888,-1.36564 0.52605,0 1.82324,1.16077 1.82324,1.63151 0,0.38196 -0.7228,0.82217 -1.52716,0.93005 -0.54881,0.0736 -0.769,0.005 -1.22686,-0.37983 z m 3.10265,-1.83308 c -0.50159,-0.50161 -0.45127,-1.2885 0.11062,-1.73054 0.57463,-0.45198 1.03952,-0.45582 1.76325,-0.0146 0.654,0.39874 0.70247,0.73559 0.21982,1.52719 -0.29738,0.48773 -0.44277,0.56653 -1.04526,0.56653 -0.4674,0 -0.81562,-0.11579 -1.04847,-0.34864 z m 3.24038,-1.75656 c -0.54457,-0.64718 -0.59867,-1.46434 -0.11411,-1.72368 0.55148,-0.29514 1.49653,-0.20938 1.99261,0.18084 0.35256,0.27732 0.45931,0.51558 0.45931,1.02522 0,0.64013 -0.0278,0.67091 -0.77446,0.85894 -1.05426,0.26546 -1.05243,0.26586 -1.56335,-0.34132 z m -7.42401,-0.32706 c 0,-0.42797 0.43801,-1.04716 0.85062,-1.20248 1.03293,-0.38881 1.41551,-0.4016 1.41551,-0.0473 0,0.49888 -1.13291,1.41593 -1.74924,1.41593 -0.2843,0 -0.51689,-0.0747 -0.51689,-0.16612 z m 59.26816,-0.93424 c -0.3718,-0.19079 -0.43436,-0.34113 -0.42606,-1.02386 0.008,-0.63637 0.19325,-1.11662 0.90579,-2.34501 0.8904,-1.53501 0.89335,-1.5451 0.46964,-1.59992 -0.60225,-0.0779 -0.53162,-0.38063 0.0888,-0.38063 0.44321,0 0.59686,-0.14004 1.09971,-1.00233 0.5496,-0.94244 0.62817,-1.00553 1.31515,-1.05592 0.43233,-0.0317 0.73062,0.0219 0.73062,0.13124 0,0.1016 -0.23227,0.55724 -0.51614,1.01236 l -0.51613,0.8275 0.86933,0.0528 c 1.13562,0.0691 0.94053,0.38239 -0.23956,0.38478 l -0.90488,0.002 -1.0895,1.96898 c -1.41945,2.56534 -1.44522,3.27919 -0.0931,2.58058 1.2295,-0.63525 2.07172,-1.762 4.44237,-5.9431 l 2.32001,-4.09178 0.77265,-0.13191 c 0.42495,-0.0725 0.8038,-0.10075 0.84186,-0.0626 0.0562,0.0562 -2.69879,4.83215 -3.77692,6.54782 -0.16399,0.26098 0.12651,0.0744 0.72416,-0.4652 1.38815,-1.25326 2.55809,-1.44122 2.92723,-0.47029 0.20207,0.5315 -0.0534,1.18465 -1.15413,2.95069 -0.77735,1.2472 -0.9115,1.80269 -0.47079,1.94941 0.31702,0.1055 2.147488,-1.68951 2.442988,-2.39574 0.64349,-1.53795 2.74931,-3.13772 4.13022,-3.13772 1.34735,0 1.76078,1.14426 0.73792,2.04234 -0.49141,0.43147 -1.24973,0.73807 -3.38533,1.36873 -0.11985,0.0354 -0.2179,0.30571 -0.2179,0.6007 0,0.6485 0.67583,1.39208 1.26523,1.39208 1.06936,0 2.82108,-1.33112 4.35851,-3.31204 0.26044,-0.33555 0.4744,-0.51613 0.47546,-0.40126 0.002,0.28876 -1.55071,2.12851 -2.43966,2.88941 -1.01134,0.86566 -1.83154,1.22471 -2.99881,1.3127 -0.92329,0.0696 -1.03364,0.0367 -1.52529,-0.45495 -0.33082,-0.33081 -0.52998,-0.70828 -0.52998,-1.00446 0,-0.46609 -0.0164,-0.45896 -0.926078,0.40136 -1.33686,1.26433 -2.56441,1.39525 -2.83861,0.30276 -0.16445,-0.65525 0.005,-1.08743 1.0478,-2.66035 0.95382,-1.43978 1.06768,-1.95405 0.4326,-1.95405 -0.67368,0 -2.6372,2.21853 -3.89562,4.40153 -0.44097,0.76495 -0.52915,0.82801 -1.15802,0.82801 -0.77554,0 -0.77775,-0.004 -0.40427,-0.72621 l 0.27645,-0.5346 -0.59088,0.4507 c -0.55744,0.42516 -1.70552,0.9875 -2.00466,0.98186 -0.075,-0.001 -0.33244,-0.10318 -0.57212,-0.2262 z m 13.545888,-3.11283 c 1.27203,-0.76987 1.94872,-2.23659 1.03188,-2.23659 -0.58957,0 -2.3755,2.03367 -2.3755,2.70502 0,0.16193 0.71256,-0.0864 1.34362,-0.46843 z m -68.893178,2.43973 c -0.21188,-0.84415 0.53219,-2.06154 1.25999,-2.06154 0.46209,0 1.10978,0.29305 1.30983,0.59263 0.35302,0.52871 0.13017,0.99726 -0.63536,1.33589 -0.42281,0.18703 -1.00737,0.38777 -1.29901,0.44611 -0.45658,0.0913 -0.54488,0.0479 -0.63545,-0.31309 z m -3.0057,-1.71834 c -0.54744,-0.22004 -0.4991,-0.3746 0.36685,-1.1728 0.88598,-0.81666 1.35731,-1.006 1.84913,-0.74279 0.74933,0.40103 0.11953,1.60209 -1.00368,1.91405 -0.74614,0.20722 -0.70073,0.20717 -1.2123,10e-4 z m 20.48238,-1.08168 c -0.6236,-0.21096 -0.60801,-0.45505 0.0437,-0.68218 0.41905,-0.1461 0.52295,-0.28282 0.52295,-0.68821 0,-0.40869 0.0754,-0.50574 0.39222,-0.50504 0.21571,5.2e-4 0.62755,0.19659 0.91517,0.43579 l 0.52295,0.43493 -0.52295,0.43377 c -0.70948,0.58848 -1.2949,0.76684 -1.87393,0.57094 z m -16.65391,-0.69965 c -0.099,-0.11984 -0.2504,-0.49245 -0.33653,-0.82801 -0.14471,-0.56373 -0.21289,-0.61423 -0.89681,-0.66418 -1.03145,-0.0753 -1.13517,-0.4641 -0.31337,-1.17448 0.87594,-0.75721 2.09217,-1.3804 2.43627,-1.24836 0.50815,0.19499 0.55932,0.96253 0.0971,1.45546 l -0.41354,0.44094 0.40467,0.32827 c 0.22256,0.18055 0.6736,0.37872 1.00232,0.44039 0.32873,0.0616 0.59216,0.16222 0.58542,0.22346 -0.058,0.5268 -0.36783,0.80105 -1.13267,1.00254 -1.09089,0.28738 -1.21356,0.28944 -1.43279,0.0239 z m 2.91654,-1.54363 c -0.31413,-0.58696 -0.0521,-1.50959 0.51168,-1.80109 0.4383,-0.22665 0.54065,-0.21834 1.0381,0.0842 0.79964,0.48629 0.7113,0.91 -0.32235,1.54601 -0.48081,0.29585 -0.90949,0.53791 -0.95262,0.53791 -0.0431,0 -0.16679,-0.16515 -0.27481,-0.367 z m 17.14821,-0.26353 c -0.14512,-0.37813 0.13424,-1.11849 0.51132,-1.35519 0.70843,-0.44469 1.40359,0.91254 0.72249,1.41057 -0.42916,0.31381 -1.10376,0.28352 -1.23381,-0.0554 z m -2.49566,-1.52048 c 0,-0.45337 0.0974,-0.62651 0.44029,-0.78274 0.39625,-0.18055 0.46103,-0.15514 0.64743,0.25396 0.18254,0.40065 0.15903,0.49353 -0.19813,0.78274 -0.61415,0.49732 -0.88959,0.41867 -0.88959,-0.25396 z m -11.60949,-0.31749 c -0.15079,-0.244 1.0835,-1.42843 1.32988,-1.27616 0.0931,0.0575 0.16915,0.32265 0.16915,0.58923 0,0.35021 -0.12318,0.54081 -0.444,0.68697 -0.56345,0.25673 -0.89635,0.25672 -1.05503,-4e-5 z m -4.02395,-0.7768 c -0.22836,-0.59515 0.18568,-1.18943 1.16529,-1.67246 1.154,-0.56903 1.55832,-0.55234 1.91142,0.079 0.32006,0.57224 0.16813,0.89884 -0.69001,1.48322 -0.71706,0.48831 -2.21507,0.55756 -2.3867,0.11028 z m 17.32856,-0.20166 c -0.59514,-0.36891 -0.54825,-0.7385 0.13735,-1.08258 0.57324,-0.28772 2.25885,-0.34183 2.51258,-0.0806 0.2781,0.28625 0.002,1.07252 -0.4475,1.27765 -0.62245,0.28361 -1.64617,0.23044 -2.20243,-0.11438 z m -21.02557,-0.31651 c -0.3299,-0.41939 -0.33556,-0.48121 -0.0797,-0.87159 0.32623,-0.49789 1.16587,-0.56867 1.76528,-0.14882 0.48902,0.34253 0.49074,0.66472 0.005,1.11639 -0.53506,0.49848 -1.25604,0.45756 -1.69146,-0.096 z m 32.42598,0.0932 c -1.19956,-0.42593 -1.41623,-0.61563 -1.41623,-1.23993 0,-0.56231 0.74507,-1.45113 1.10173,-1.31427 0.11804,0.0454 0.68326,0.1777 1.25605,0.29424 1.02587,0.20872 2.00017,0.8543 2.00017,1.32532 0,0.34422 -1.20071,1.29388 -1.6185,1.28011 -0.21238,-0.006 -0.80783,-0.16246 -1.32322,-0.34547 z m -24.07758,-0.81673 c 0,-0.30739 0.7143,-1.09106 1.24433,-1.36513 0.53871,-0.2786 1.26217,-0.18571 1.15101,0.14777 -0.20676,0.62029 -2.39534,1.73258 -2.39534,1.21736 z m 13.64038,-1.78656 c -0.96468,-0.58819 -0.6327,-1.60112 0.60596,-1.84885 1.18923,-0.23784 2.67151,0.76991 2.1166,1.43901 -0.29555,0.35638 -1.22687,0.75678 -1.75821,0.75591 -0.21878,-3.5e-4 -0.65275,-0.15609 -0.96435,-0.34607 z m -19.71253,-0.0127 c -0.54629,-0.21895 -0.42446,-0.47657 0.59426,-1.25659 1.08817,-0.83318 1.70398,-0.83292 1.78445,7.1e-4 0.10675,1.10598 -1.12721,1.75748 -2.37871,1.25587 z m 4.19658,-0.50976 c -0.11894,-0.19044 -0.21625,-0.52779 -0.21625,-0.74963 0,-0.51211 1.65147,-2.39046 2.10175,-2.39046 0.45966,0 0.89653,0.73804 0.89653,1.51461 0,1.34221 -2.16789,2.60888 -2.78203,1.62548 z m 4.83626,0.0816 c -0.17981,-0.21665 -0.16295,-0.32747 0.0929,-0.61011 0.51227,-0.56605 1.30443,-0.3425 1.30443,0.36812 0,0.52349 -1.01741,0.69969 -1.39726,0.24199 z m 2.5198,-1.87389 c -0.73299,-0.40073 -0.77625,-0.852 -0.13833,-1.44319 0.35156,-0.32584 0.65322,-0.42748 1.2686,-0.42748 0.44771,0 0.9795,-0.12058 1.19381,-0.27068 0.25661,-0.17974 0.47982,-0.21842 0.6644,-0.11512 0.2531,0.14163 0.25208,0.18144 -0.0115,0.44499 -0.15918,0.15919 -0.47434,0.28944 -0.70032,0.28944 -0.46412,0 -0.84998,0.32993 -1.21785,1.0413 -0.30393,0.58776 -0.60939,0.72644 -1.05881,0.48074 z m -3.65111,-0.30337 c -0.14293,-0.23127 0.0611,-0.87938 0.39723,-1.26224 0.49577,-0.56459 1.78271,-0.27086 1.78271,0.40687 0,0.57049 -1.89618,1.31451 -2.17994,0.85537 z m -5.47083,-0.37408 -0.59088,-0.16989 0.6691,-0.68524 c 0.76933,-0.78785 1.20761,-0.978 1.56693,-0.67978 0.37085,0.30777 0.31006,0.75229 -0.17435,1.27499 -0.46144,0.49789 -0.57395,0.51778 -1.4708,0.25992 z m -1.84063,-1.35308 c -0.21401,-0.34627 -0.30691,-1.71453 -0.12408,-1.82751 0.10307,-0.0637 0.70066,-0.0213 1.32794,0.0943 1.14012,0.21008 1.14049,0.21034 1.14049,0.80397 0,0.56049 -0.0276,0.58779 -0.49082,0.48603 -0.35018,-0.0769 -0.62027,-0.005 -0.94265,0.24764 -0.49183,0.38686 -0.75743,0.44388 -0.91088,0.19556 z m 15.35488,-0.28785 c 0.21012,-0.32068 0.39749,-0.42156 0.66036,-0.35558 0.25384,0.0637 0.63312,-0.1178 1.22981,-0.58849 0.68676,-0.54176 0.91286,-0.63905 1.10824,-0.4769 0.20369,0.16905 0.13059,0.30447 -0.42965,0.79597 -0.80426,0.70558 -1.6015,1.07271 -2.32953,1.07271 -0.53179,0 -0.53214,-7.1e-4 -0.23923,-0.44771 z m -9.90195,-0.28149 c -0.7342,-0.19548 -1.27776,-0.71101 -1.13684,-1.07822 0.0531,-0.13834 0.35676,-0.30789 0.67484,-0.3768 0.31807,-0.069 0.80402,-0.28485 1.07989,-0.47991 0.49333,-0.34881 0.51151,-0.34931 1.10499,-0.0296 0.59191,0.31877 1.26968,1.02487 1.26968,1.32278 0,0.083 -0.15689,0.30769 -0.34864,0.49945 -0.38703,0.38701 -1.50001,0.44696 -2.64392,0.14238 z m 8.66227,-0.37912 c -0.3958,-0.28941 -0.27053,-0.68386 0.34536,-1.0874 0.42594,-0.27909 0.47461,-0.27953 0.74724,-0.006 0.32745,0.32743 0.18687,0.69472 -0.42019,1.09778 -0.29196,0.19387 -0.4033,0.19328 -0.67241,-0.003 z m 14.75696,-0.67844 c 0.0358,-0.25206 0.19587,-0.41213 0.44793,-0.44793 0.33982,-0.0483 0.39221,-0.1596 0.39221,-0.8336 0,-0.81985 0.39145,-1.96971 0.74761,-2.19606 0.11613,-0.0738 0.50131,-0.13538 0.85596,-0.13685 0.52795,-0.002 0.72541,0.10296 1.08948,0.58032 0.54523,0.71482 0.54671,0.76828 0.0324,1.17278 -0.2267,0.17832 -0.51119,0.56322 -0.63218,0.85531 -0.23916,0.57742 -0.77847,0.80626 -1.48322,0.62939 -0.37847,-0.095 -0.4358,-0.0516 -0.4358,0.32974 0,0.3739 -0.0794,0.43911 -0.53508,0.43911 -0.45519,0 -0.52676,-0.0585 -0.47938,-0.39221 z m 7.5244,-0.54554 -0.48223,-0.41479 0.47709,-0.62549 c 0.79876,-1.04723 2.59377,-1.35308 2.6981,-0.45974 0.0777,0.66482 -1.26547,1.91482 -2.05749,1.91482 -0.0843,0 -0.37025,-0.18666 -0.63547,-0.4148 z m -20.18262,0.0844 c -0.0531,-0.0858 0.0207,-0.20102 0.16402,-0.256 0.14326,-0.0549 0.26047,-0.25434 0.26047,-0.44302 0,-0.25962 -0.13778,-0.35634 -0.56652,-0.39768 -0.65094,-0.0627 -0.82893,-0.53278 -0.41576,-1.09784 0.21086,-0.28835 0.33066,-0.31495 0.74744,-0.16587 0.42287,0.15126 0.48841,0.25899 0.44281,0.72785 -0.0294,0.30267 0.0754,0.74704 0.23291,0.98749 0.15756,0.24044 0.23584,0.51905 0.17397,0.61914 -0.13746,0.22245 -0.90604,0.24162 -1.03934,0.026 z m 24.87933,-0.23332 c -0.3156,-0.34872 -0.40059,-1.36305 -0.16821,-2.00749 0.13152,-0.3648 0.0928,-0.39221 -0.55335,-0.39221 -0.89404,0 -1.2467,-0.14115 -1.24435,-0.49803 0.002,-0.33337 1.3215,-1.76884 1.62367,-1.7666 0.11267,8.6e-4 0.71467,0.25577 1.33785,0.56653 0.95043,0.47394 1.1422,0.64478 1.18972,1.05981 0.0311,0.27214 -0.0551,0.62514 -0.19139,0.78443 -0.52721,0.61569 -0.51281,0.72758 0.12813,0.99538 0.68481,0.28614 1.15018,1.00952 0.84548,1.31423 -0.0992,0.0992 -0.74086,0.20045 -1.42615,0.22527 -1.03302,0.0374 -1.29648,-0.0105 -1.5414,-0.28132 z m -39.7043,-0.20152 c -0.70978,-0.70978 -0.26613,-1.49418 0.91618,-1.61992 1.77048,-0.18826 1.866,-0.17293 1.92198,0.30862 0.0398,0.34195 -0.11856,0.60556 -0.65421,1.0895 -0.85284,0.77049 -1.56312,0.84263 -2.18395,0.2218 z m 26.58014,-0.58972 c 0,-0.62448 0.054,-0.73689 0.35412,-0.73689 0.56746,0 0.6198,0.49985 0.10617,1.01352 l -0.46025,0.46026 z m 17.56812,0.11279 c -0.71736,-0.58206 -0.99686,-1.43903 -0.66907,-2.0515 0.24498,-0.45776 0.43885,-0.45777 1.63477,-1.1e-4 1.3044,0.49916 1.39124,0.88147 0.41928,1.84615 l -0.73685,0.73135 z m -36.81099,-0.25215 c -0.1112,-0.28972 0.16354,-0.9459 0.48619,-1.16135 0.10551,-0.0704 0.36831,-0.12926 0.58402,-0.13073 0.31547,-0.002 0.39222,0.0943 0.39222,0.49327 0,0.84687 -1.19377,1.49894 -1.46243,0.79881 z m 25.24166,-0.16018 c -0.1847,-0.73587 0.0211,-2.7378 0.34588,-3.36601 0.16286,-0.31495 0.50457,-0.65188 0.75933,-0.74875 0.60979,-0.23183 1.73889,-0.0305 2.1533,0.38385 0.40785,0.40784 0.43979,1.53012 0.0642,2.25635 -0.22721,0.43937 -0.36746,0.51431 -0.96264,0.51431 -0.57306,0 -0.83394,0.1265 -1.47001,0.71281 l -0.77332,0.71282 z m 15.68367,0.18635 c -0.70899,-0.31133 -1.07416,-1.23083 -0.66735,-1.68036 0.34126,-0.37709 1.53539,-0.68647 2.64959,-0.68647 0.7135,0 0.92794,0.0824 1.34414,0.51688 l 0.49522,0.51689 -0.41902,0.3513 c -1.0895,0.91344 -2.57925,1.34327 -3.40258,0.98176 z m -32.50337,-2.29449 -0.4226,-0.4506 0.41152,-0.33382 c 0.48573,-0.39402 1.38835,-0.43531 1.86488,-0.0854 0.32907,0.24171 0.32431,0.26326 -0.17362,0.78444 -0.62503,0.65423 -1.1229,0.6795 -1.68018,0.0854 z m 3.29472,-0.41431 c 0.0362,-0.37982 0.18457,-0.7891 0.32965,-0.90952 0.21824,-0.18111 0.32052,-0.14884 0.59243,0.18696 0.43711,0.53978 0.41442,0.79393 -0.10107,1.13164 -0.70481,0.4618 -0.89508,0.36701 -0.82107,-0.40908 z m 5.56498,0.24927 c -0.0622,-0.32527 0.0303,-0.53154 0.35182,-0.78442 0.23989,-0.18872 0.49877,-0.34311 0.57524,-0.34311 0.30189,0 0.34215,0.70151 0.0647,1.12512 -0.37875,0.57804 -0.88138,0.57928 -0.99165,0.002 z m 28.28003,-0.058 c -0.57486,-0.57486 -0.63383,-0.84681 -0.28659,-1.32169 0.19395,-0.26526 0.37028,-0.29828 1.04917,-0.19647 0.46846,0.0703 1.01883,0.29889 1.29215,0.53682 0.45565,0.39663 0.46463,0.43548 0.20907,0.904 -0.2176,0.39893 -0.40373,0.4995 -1.00555,0.54331 -0.62531,0.0455 -0.81819,-0.0259 -1.25825,-0.46597 z m -44.79653,-0.43236 c 0,-0.90648 0.75817,-1.39334 1.64176,-1.05428 0.43363,0.16639 0.32677,0.51052 -0.34044,1.09636 -0.84115,0.73853 -1.30132,0.72365 -1.30132,-0.042 z m 18.86008,0.19846 c -0.11443,-0.11443 -0.20805,-0.42769 -0.20805,-0.69613 0,-0.40443 -0.0747,-0.48811 -0.43579,-0.48811 -0.36429,0 -0.4358,-0.0825 -0.4358,-0.50364 0,-0.277 0.14668,-0.68476 0.32593,-0.90614 l 0.32593,-0.4025 0.12446,0.42677 c 0.0684,0.23472 0.45127,0.71643 0.85072,1.07048 0.59546,0.52778 0.69313,0.69778 0.54233,0.94387 -0.32,0.5222 -0.85186,0.79327 -1.08973,0.5554 z m 18.25952,-0.44675 c -0.63781,-0.5161 -0.79779,-0.75568 -0.81079,-1.21419 -0.0198,-0.69766 0.37335,-0.84413 1.81188,-0.67506 1.08799,0.12788 1.62385,0.35828 1.62385,0.69826 0,0.19174 -1.61578,1.86356 -1.7793,1.84101 -0.028,-0.003 -0.40861,-0.29637 -0.84564,-0.65002 z m -14.332,0.11062 c -0.44317,-0.24801 -0.40432,-1.3033 0.0571,-1.55022 0.60358,-0.32305 1.11679,-0.14582 1.18023,0.40757 0.0882,0.76951 -0.66353,1.46377 -1.23732,1.14265 z m -2.03761,-0.31372 c -0.42601,-0.796 -0.0722,-1.55424 0.60397,-1.29473 0.31296,0.12009 0.33589,0.5806 0.0592,1.1879 -0.24209,0.53132 -0.4206,0.56007 -0.66317,0.10687 z m 12.02181,-0.64388 c -0.33557,-0.14856 -0.78913,-0.34062 -1.00793,-0.42678 -0.38661,-0.15225 -0.3898,-0.17219 -0.11302,-0.70748 0.31087,-0.60117 1.01606,-1.37106 1.25583,-1.37106 0.22881,0 2.01653,1.3701 2.18834,1.67714 0.10454,0.18696 0.0296,0.39823 -0.24504,0.69065 -0.46292,0.49275 -1.1702,0.53957 -2.07821,0.13753 z m -4.71852,-1.0672 c -0.33311,-0.35952 -0.80008,-0.87606 -1.03771,-1.14786 l -0.43206,-0.49419 0.41153,-0.33383 c 0.26563,-0.21547 0.68229,-0.33382 1.1753,-0.33382 0.63451,0 0.84513,0.0915 1.2445,0.54037 0.26439,0.2972 0.48516,0.66982 0.4906,0.82801 0.0153,0.44544 -0.80685,1.58272 -1.15115,1.59236 -0.0524,0.001 -0.36791,-0.29149 -0.70101,-0.65104 z m -8.79187,-0.74203 c -0.11687,-0.1891 0.54078,-1.21904 0.77839,-1.21904 0.32254,0 0.31382,0.52883 -0.0156,0.94762 -0.37564,0.47753 -0.58857,0.5533 -0.76278,0.27142 z m 2.00863,-0.35873 c 0.21266,-0.74145 0.38598,-0.90305 0.89184,-0.83148 0.26079,0.0369 0.43142,0.19207 0.4643,0.42223 0.0635,0.44433 -0.25734,0.73179 -0.9775,0.87584 l -0.54363,0.10869 z m 14.0829,-0.11946 c -0.36042,-0.41963 -0.49853,-0.86264 -0.37187,-1.19271 0.0845,-0.22022 0.26096,-0.25438 0.85423,-0.16542 0.47056,0.0705 0.87282,0.0341 1.08517,-0.0986 0.18558,-0.11591 0.47933,-0.15627 0.65278,-0.0897 0.272,0.10434 0.1982,0.23994 -0.53689,0.98626 -0.91185,0.92578 -1.26774,1.04421 -1.68342,0.56019 z m -10.30923,-5.21501 c -0.0639,-0.0639 -0.11622,-0.28557 -0.11622,-0.49257 0,-0.54639 0.70609,-1.1344 1.36219,-1.1344 0.82873,0 0.77217,0.6739 -0.10778,1.28368 -0.67906,0.4706 -0.93401,0.54748 -1.13821,0.34329 z"
     style="fill:#000000;stroke-width:0.17431813" />
  <rect
     y="7.0405154"
     x="22.344002"
     height="225.52182"
     width="225.52182"
     id="rect5210"
     style="opacity:1;fill:none;fill-opacity:1;stroke:#000000;stroke-width:1.24983072;stroke-miterlimit:4;stroke-dasharray:none;stroke-opacity:1" />
  <text
     id="text5214"
     y="249.11012"
     x="105.29938"
     style="font-style:normal;font-weight:normal;font-size:13.33333302px;line-height:1.25;font-family:sans-serif;letter-spacing:0px;word-spacing:0px;fill:#000000;fill-opacity:1;stroke:none"
     xml:space="preserve"><tspan
       y="249.11012"
       x="105.29938"
       id="tspan5212">60.00mm</tspan></text>
</svg>
