<?xml version="1.0" encoding="UTF-8" standalone="no"?>
<!-- Created with Inkscape (http://www.inkscape.org/) -->

<svg
   xmlns:dc="http://purl.org/dc/elements/1.1/"
   xmlns:cc="http://creativecommons.org/ns#"
   xmlns:rdf="http://www.w3.org/1999/02/22-rdf-syntax-ns#"
   xmlns:svg="http://www.w3.org/2000/svg"
   xmlns="http://www.w3.org/2000/svg"
   xmlns:sodipodi="http://sodipodi.sourceforge.net/DTD/sodipodi-0.dtd"
   xmlns:inkscape="http://www.inkscape.org/namespaces/inkscape"
   width="60mm"
   height="60mm"
   viewBox="0 0 60 60"
   version="1.1"
   id="svg102"
   inkscape:version="0.92.2 5c3e80d, 2017-08-06"
   sodipodi:docname="40mm_sq.svg">
  <defs
     id="defs96" />
  <sodipodi:namedview
     id="base"
     pagecolor="#ffffff"
     bordercolor="#666666"
     borderopacity="1.0"
     inkscape:pageopacity="0.0"
     inkscape:pageshadow="2"
     inkscape:zoom="0.35"
     inkscape:cx="400"
     inkscape:cy="560"
     inkscape:document-units="mm"
     inkscape:current-layer="layer1"
     showgrid="false"
     inkscape:window-width="1440"
     inkscape:window-height="805"
     inkscape:window-x="0"
     inkscape:window-y="1"
     inkscape:window-maximized="1" />
  <metadata
     id="metadata99">
    <rdf:RDF>
      <cc:Work
         rdf:about="">
        <dc:format>image/svg+xml</dc:format>
        <dc:type
           rdf:resource="http://purl.org/dc/dcmitype/StillImage" />
        <dc:title></dc:title>
      </cc:Work>
    </rdf:RDF>
  </metadata>
  <g
     inkscape:label="Layer 1"
     inkscape:groupmode="layer"
     id="layer1"
     transform="translate(0,-237)">
    <path
       style="fill:#000000;stroke-width:0.0403601"
       d="m 29.043283,279.82555 c -0.06659,-0.008 -0.293618,-0.0334 -0.504499,-0.057 -2.200138,-0.24627 -4.586536,-1.23473 -6.397078,-2.6497 -2.247786,-1.75668 -3.887213,-4.2523 -4.582569,-6.97581 -0.30225,-1.18382 -0.401929,-1.99774 -0.401858,-3.28139 8.5e-5,-1.30791 0.157245,-2.43861 0.505717,-3.63823 0.267756,-0.92173 0.787839,-2.11883 1.288336,-2.96538 0.100952,-0.17075 0.183547,-0.31803 0.183547,-0.3273 0,-0.009 -1.421178,-0.0172 -3.158178,-0.0177 l -3.158179,-7.9e-4 -0.908102,-1.09664 c -0.499456,-0.60315 -0.914156,-1.11131 -0.921555,-1.12923 -0.0074,-0.0179 2.988177,-0.0326 6.656841,-0.0326 h 6.670288 l -0.279942,0.18762 c -2.576547,1.72686 -4.239501,4.38233 -4.72757,7.5492 -0.09716,0.63044 -0.09701,2.3171 2.49e-4,2.97878 0.462648,3.14688 2.179849,5.85807 4.832085,7.6291 0.973693,0.65018 2.452365,1.27948 3.590745,1.52817 0.943248,0.20605 1.324658,0.24473 2.401425,0.24354 1.14191,-0.001 1.737921,-0.0714 2.698559,-0.31763 1.115624,-0.28593 2.339557,-0.82982 3.278791,-1.45703 3.646612,-2.43517 5.48594,-6.64052 4.774173,-10.91549 -0.479594,-2.88053 -2.042639,-5.3634 -4.469005,-7.09895 l -0.4576,-0.32731 h 6.666331 6.666324 l -0.074,0.0984 c -0.0407,0.0541 -0.45539,0.56178 -0.92155,1.12812 l -0.84756,1.02972 -3.158185,0.002 c -2.261124,0.002 -3.158178,0.0145 -3.158178,0.0462 0,0.0243 0.03363,0.0924 0.07472,0.15135 0.140152,0.20093 0.563936,0.9942 0.732525,1.37119 0.741675,1.6585 1.105864,3.24172 1.158383,5.03581 0.09084,3.10306 -0.891997,6.0339 -2.847768,8.49211 -0.413674,0.51994 -1.506099,1.61025 -2.019663,2.01574 -1.990598,1.57169 -4.250909,2.49935 -6.744266,2.76792 -0.487177,0.0525 -2.089933,0.0744 -2.441787,0.0333 z m -4.877493,-7.15253 c 0.299979,-1.1958 0.333724,-1.8543 0.335611,-6.5492 l 0.0016,-3.41592 -0.662249,-0.76932 c -0.364236,-0.42312 -0.674063,-0.78843 -0.688501,-0.81179 -0.0182,-0.0295 0.461584,-0.0425 1.565216,-0.0425 h 1.591472 l 0.01884,0.19609 c 0.03955,0.41164 0.178631,0.60954 2.088711,2.97217 1.004983,1.2431 1.86354,2.29994 1.907908,2.34854 l 0.08066,0.0884 1.702208,-2.16692 c 0.936214,-1.1918 1.758037,-2.24864 1.826278,-2.34853 0.209166,-0.30619 0.380389,-0.68296 0.405069,-0.89134 l 0.0235,-0.19838 h 1.449724 c 1.148654,0 1.44358,0.0105 1.420135,0.0505 -0.01627,0.0277 -0.101113,0.15688 -0.188529,0.28697 -0.221125,0.32907 -0.575373,1.0839 -0.656114,1.39806 -0.186629,0.72617 -0.188677,0.76488 -0.20819,3.93511 -0.02455,3.9913 0.01963,4.76043 0.345028,6.00405 l 0.113397,0.43339 h -1.490728 c -1.228395,0 -1.487075,-0.01 -1.469999,-0.054 0.049,-0.12769 0.233402,-0.92255 0.287097,-1.23751 0.124444,-0.72995 0.149124,-1.49353 0.136813,-4.23295 l -0.0122,-2.71943 -1.875684,2.44605 c -1.031621,1.34533 -1.887188,2.43286 -1.901256,2.41674 -0.01405,-0.0161 -0.848138,-1.04639 -1.853494,-2.28949 -1.005356,-1.24309 -1.844529,-2.27832 -1.864831,-2.30052 -0.05508,-0.0602 -0.01236,5.98789 0.04459,6.31322 0.03809,0.21759 0.249471,1.15681 0.34815,1.54691 l 0.02808,0.11099 h -1.489184 -1.489171 z"
       id="path74"
       inkscape:connector-curvature="0" />
    <rect
       style="fill:none;fill-opacity:1;stroke:#000000;stroke-width:0.12961641;stroke-miterlimit:4;stroke-dasharray:none;stroke-opacity:1"
       id="rect78"
       width="39.87038"
       height="39.87038"
       x="10.302904"
       y="247.62579" />
    <text
       xml:space="preserve"
       style="font-style:normal;font-weight:normal;font-size:3.52777767px;line-height:1.25;font-family:sans-serif;letter-spacing:0px;word-spacing:0px;fill:#000000;fill-opacity:1;stroke:none;stroke-width:0.26458332"
       x="23.152109"
       y="291.96048"
       id="text82"><tspan
         sodipodi:role="line"
         id="tspan80"
         x="23.152109"
         y="291.96048"
         style="stroke-width:0.26458332">40.00mm</tspan></text>
  </g>
</svg>
