<?xml version="1.0" encoding="UTF-8" standalone="no"?>
<svg
   xmlns:dc="http://purl.org/dc/elements/1.1/"
   xmlns:cc="http://creativecommons.org/ns#"
   xmlns:rdf="http://www.w3.org/1999/02/22-rdf-syntax-ns#"
   xmlns:svg="http://www.w3.org/2000/svg"
   xmlns="http://www.w3.org/2000/svg"
   viewBox="0 0 192 192"
   height="192"
   width="192"
   xml:space="preserve"
   id="svg3928"
   version="1.1"><metadata
     id="metadata3934"><rdf:RDF><cc:Work
         rdf:about=""><dc:format>image/svg+xml</dc:format><dc:type
           rdf:resource="http://purl.org/dc/dcmitype/StillImage" /><dc:title></dc:title></cc:Work></rdf:RDF></metadata><defs
     id="defs3932"><clipPath
       id="clipPath3944"
       clipPathUnits="userSpaceOnUse"><path
         id="path3942"
         d="M 0,144 H 144 V 0 H 0 Z" /></clipPath><clipPath
       id="clipPath4092"
       clipPathUnits="userSpaceOnUse"><path
         id="path4090"
         d="M 12.5854,130.285 H 132.805 V 9.14781 H 12.5854 Z" /></clipPath></defs><g
     transform="matrix(1.3333333,0,0,-1.3333333,0,192)"
     id="g3936"><g
       transform="matrix(0.66713252,0,0,0.66713252,24.508069,43.07473)"
       id="g3938"><g
         clip-path="url(#clipPath3944)"
         id="g3940"><g
           transform="translate(101.8447,97.8022)"
           id="g3946"><path
             id="path3948"
             style="fill:#000000;fill-opacity:1;fill-rule:nonzero;stroke:none"
             d="M 0,0 C 0.001,0.001 0.001,0.002 0.001,0.003 L 0,0.001 Z" /></g><g
           transform="translate(101.8447,44.9424)"
           id="g3950"><path
             id="path3952"
             style="fill:#000000;fill-opacity:1;fill-rule:nonzero;stroke:none"
             d="M 0,0 0.001,-0.002 C 0.001,-0.001 0.001,0 0,0.001 Z" /></g><g
           transform="translate(101.501,93.2173)"
           id="g3954"><path
             id="path3956"
             style="fill:#000000;fill-opacity:1;fill-rule:nonzero;stroke:none"
             d="M 0,0 C 0.001,0.002 0.017,0.004 0.026,0.007 L 0.005,0.004 -0.016,0.002 -0.013,0.001 Z" /></g><g
           transform="translate(101.5273,49.5215)"
           id="g3958"><path
             id="path3960"
             style="fill:#000000;fill-opacity:1;fill-rule:nonzero;stroke:none"
             d="M 0,0 C -0.01,0.003 -0.025,0.005 -0.026,0.008 L -0.039,0.006 -0.042,0.005 -0.021,0.003 Z" /></g><g
           transform="translate(99.0791,103.8945)"
           id="g3962"><path
             id="path3964"
             style="fill:#000000;fill-opacity:1;fill-rule:nonzero;stroke:none"
             d="M 0,0 0.001,0.002 V 0.006 C 0.001,0.003 0,0.002 0,0" /></g><g
           transform="translate(99.0801,38.8457)"
           id="g3966"><path
             id="path3968"
             style="fill:#000000;fill-opacity:1;fill-rule:nonzero;stroke:none"
             d="M 0,0 V 0.004 L -0.001,0.006 C -0.001,0.004 0,0.002 0,0" /></g><g
           transform="translate(93.9473,108.4678)"
           id="g3970"><path
             id="path3972"
             style="fill:#000000;fill-opacity:1;fill-rule:nonzero;stroke:none"
             d="M 0,0 C 0,-0.004 -0.026,0.006 -0.037,-0.004 L 0,-0.002 Z" /></g><g
           transform="translate(93.9473,34.2783)"
           id="g3974"><path
             id="path3976"
             style="fill:#000000;fill-opacity:1;fill-rule:nonzero;stroke:none"
             d="M 0,0 V 0.002 L -0.037,0.005 C -0.026,-0.006 0,0.005 0,0" /></g><g
           transform="translate(93.9102,108.4634)"
           id="g3978"><path
             id="path3980"
             style="fill:#000000;fill-opacity:1;fill-rule:nonzero;stroke:none"
             d="m 0,0 -0.007,-0.001 0.002,-0.005 C -0.003,-0.002 -0.001,-0.001 0,0" /></g><g
           transform="translate(93.9053,34.2891)"
           id="g3982"><path
             id="path3984"
             style="fill:#000000;fill-opacity:1;fill-rule:nonzero;stroke:none"
             d="M 0,0 -0.002,-0.005 0.005,-0.006 C 0.004,-0.005 0.002,-0.004 0,0" /></g><g
           transform="translate(85.999,118.4507)"
           id="g3986"><path
             id="path3988"
             style="fill:#000000;fill-opacity:1;fill-rule:nonzero;stroke:none"
             d="m 0,0 0.002,-0.005 v 0.003 z" /></g><g
           transform="translate(86.001,24.2979)"
           id="g3990"><path
             id="path3992"
             style="fill:#000000;fill-opacity:1;fill-rule:nonzero;stroke:none"
             d="M 0,0 V 0.002 L -0.002,-0.003 Z" /></g><g
           transform="translate(120.2354,71.373)"
           id="g3994"><path
             id="path3996"
             style="fill:#000000;fill-opacity:1;fill-rule:nonzero;stroke:none"
             d="m 0,0 c 0.015,-12.899 -4.985,-25.042 -14.079,-34.187 -9.118,-9.067 -21.212,-14.064 -34.066,-14.08 -12.854,0.016 -24.948,5.013 -34.066,14.08 -9.094,9.145 -14.094,21.288 -14.08,34.187 -0.014,12.899 4.986,25.042 14.08,34.187 9.118,9.067 21.212,14.064 34.066,14.08 12.854,-0.016 24.948,-5.013 34.066,-14.08 C -4.985,25.042 0.015,12.899 0,0 M -82.698,34.673 C -91.922,25.396 -96.993,13.082 -96.977,0 c -0.016,-13.082 5.055,-25.396 14.279,-34.673 9.25,-9.196 21.516,-14.265 34.553,-14.281 13.037,0.016 25.303,5.085 34.552,14.281 9.225,9.277 14.296,21.591 14.28,34.673 0.016,13.082 -5.055,25.396 -14.28,34.673 -9.249,9.197 -21.515,14.265 -34.552,14.281 -13.037,-0.016 -25.303,-5.084 -34.553,-14.281" /></g><g
           transform="translate(72.3345,117.1484)"
           id="g3998" /><g
           transform="translate(99.4717,104.4595)"
           id="g4002" /><g
           transform="translate(131.4971,108.4678)"
           id="g4006"><path
             id="path4008"
             style="fill:#000000;fill-opacity:1;fill-rule:nonzero;stroke:none"
             d="M 0,0 C 0,-0.004 -0.026,0.006 -0.037,-0.004 L 0,-0.002 Z" /></g><g
           transform="translate(131.4971,34.2783)"
           id="g4010"><path
             id="path4012"
             style="fill:#000000;fill-opacity:1;fill-rule:nonzero;stroke:none"
             d="M 0,0 V 0.002 L -0.037,0.005 C -0.026,-0.006 0,0.005 0,0" /></g><g
           transform="translate(131.46,108.4634)"
           id="g4014"><path
             id="path4016"
             style="fill:#000000;fill-opacity:1;fill-rule:nonzero;stroke:none"
             d="m 0,0 -0.007,-0.001 0.002,-0.005 C -0.004,-0.002 -0.001,-0.001 0,0" /></g><g
           transform="translate(131.4551,34.2891)"
           id="g4018"><path
             id="path4020"
             style="fill:#000000;fill-opacity:1;fill-rule:nonzero;stroke:none"
             d="M 0,0 -0.002,-0.005 0.005,-0.006 C 0.004,-0.005 0.001,-0.004 0,0" /></g><g
           transform="translate(123.5488,118.4507)"
           id="g4022"><path
             id="path4024"
             style="fill:#000000;fill-opacity:1;fill-rule:nonzero;stroke:none"
             d="m 0,0 0.001,-0.005 v 0.003 z" /></g><g
           transform="translate(123.5498,24.2979)"
           id="g4026"><path
             id="path4028"
             style="fill:#000000;fill-opacity:1;fill-rule:nonzero;stroke:none"
             d="M 0,0 V 0.002 L -0.001,-0.003 Z" /></g><g
           transform="translate(32.6118,13.2246)"
           id="g4030"><path
             id="path4032"
             style="fill:#000000;fill-opacity:1;fill-rule:nonzero;stroke:none"
             d="M 0,0 -0.004,-0.042 -0.005,-0.073 C 0,-0.057 0.004,-0.041 0.004,-0.037 l -0.002,0.026 z" /></g><g
           transform="translate(32.606,13.126)"
           id="g4034"><path
             id="path4036"
             style="fill:#000000;fill-opacity:1;fill-rule:nonzero;stroke:none"
             d="M 0,0 0.001,0.025 C -0.002,0.011 -0.004,0 0,0" /></g><g
           transform="translate(10.9116,109.6528)"
           id="g4038"><path
             id="path4040"
             style="fill:#000000;fill-opacity:1;fill-rule:nonzero;stroke:none"
             d="m 0,0 h -0.001 -0.012 c 0.004,-0.001 0.007,-0.002 0.009,-0.002 0.005,-0.001 0.007,0 0.007,0.001 V 0 Z" /></g><g
           transform="translate(10.8984,33.0938)"
           id="g4042"><path
             id="path4044"
             style="fill:#000000;fill-opacity:1;fill-rule:nonzero;stroke:none"
             d="M 0,0 H 0.012 0.013 0.017 V 0.001 C 0.017,0.002 0.014,0.003 0.009,0.002 0.007,0.002 0.004,0.001 0,0" /></g><g
           transform="translate(7.7632,106.6118)"
           id="g4046"><path
             id="path4048"
             style="fill:#000000;fill-opacity:1;fill-rule:nonzero;stroke:none"
             d="M 0,0 C -0.001,0.011 -0.023,0.002 -0.024,0.005 L -0.027,0.003 -0.024,0.002 Z" /></g><g
           transform="translate(7.7632,36.1338)"
           id="g4050"><path
             id="path4052"
             style="fill:#000000;fill-opacity:1;fill-rule:nonzero;stroke:none"
             d="m 0,0 -0.024,-0.002 -0.003,-0.001 0.003,-0.001 C -0.023,-0.002 -0.001,-0.01 0,0" /></g><g
           transform="translate(7.1797,102.9546)"
           id="g4054"><path
             id="path4056"
             style="fill:#000000;fill-opacity:1;fill-rule:nonzero;stroke:none"
             d="M 0,0 0.004,0.002 H 0.006 L 0,0.018 Z" /></g><g
           transform="translate(7.1797,39.791)"
           id="g4058"><path
             id="path4060"
             style="fill:#000000;fill-opacity:1;fill-rule:nonzero;stroke:none"
             d="m 0,0 v -0.018 l 0.006,0.016 H 0.004 Z" /></g><g
           transform="translate(7.1787,102.9888)"
           id="g4062"><path
             id="path4064"
             style="fill:#000000;fill-opacity:1;fill-rule:nonzero;stroke:none"
             d="M 0,0 -0.001,0.001 H -0.002 L -0.001,0 Z" /></g><g
           transform="translate(7.1763,39.7559)"
           id="g4066"><path
             id="path4068"
             style="fill:#000000;fill-opacity:1;fill-rule:nonzero;stroke:none"
             d="M 0,0 H 0.001 L 0.002,0.002 H 0.001 Z" /></g><g
           transform="translate(2.3936,94.1904)"
           id="g4070"><path
             id="path4072"
             style="fill:#000000;fill-opacity:1;fill-rule:nonzero;stroke:none"
             d="M 0,0 V 0.001 H -0.003 C -0.001,0 0,0 0,0" /></g><g
           transform="translate(2.3936,48.5547)"
           id="g4074"><path
             id="path4076"
             style="fill:#000000;fill-opacity:1;fill-rule:nonzero;stroke:none"
             d="m 0,0 v 0.001 c 0,0 -0.001,0 -0.003,-0.001 z" /></g><g
           transform="translate(2.3574,94.1929)"
           id="g4078"><path
             id="path4080"
             style="fill:#000000;fill-opacity:1;fill-rule:nonzero;stroke:none"
             d="M 0,0 0.019,-0.001 H 0.032 C 0.028,0 0.022,0.001 0.015,0.002 0.013,0.003 0.009,0.005 0.007,0.005 c -0.01,0.002 -0.019,0.003 -0.017,0 L -0.02,0.001 -0.008,0 Z" /></g><g
           transform="translate(2.3643,48.5488)"
           id="g4082"><path
             id="path4084"
             style="fill:#000000;fill-opacity:1;fill-rule:nonzero;stroke:none"
             d="M 0,0 C 0.002,0 0.006,0.001 0.008,0.002 0.016,0.003 0.021,0.004 0.025,0.006 H 0.012 L -0.007,0.004 H -0.015 L -0.026,0.003 -0.017,0 C -0.019,-0.004 -0.01,-0.003 0,0" /></g><g
           id="g4086"><g
             id="g4088" /><g
             id="g4376"><g
               style="opacity:0.08999628"
               id="g4374"
               clip-path="url(#clipPath4092)"><g
                 id="g4096"
                 transform="translate(68.4976,130.1572)" /><g
                 id="g4100"
                 transform="translate(62.9585,129.5098)" /><g
                 id="g4104"
                 transform="translate(57.5054,128.3525)" /><g
                 id="g4108"
                 transform="translate(52.187,126.6938)" /><g
                 id="g4112"
                 transform="translate(47.0527,124.542)" /><g
                 id="g4116"
                 transform="translate(42.1445,121.9258)" /><g
                 id="g4120"
                 transform="translate(37.5044,118.8696)" /><g
                 id="g4124"
                 transform="translate(33.1699,115.4028)" /><g
                 id="g4128"
                 transform="translate(29.1763,111.5576)" /><g
                 id="g4132"
                 transform="translate(25.5542,107.3696)" /><g
                 id="g4136"
                 transform="translate(22.3325,102.876)" /><g
                 id="g4140"
                 transform="translate(19.5356,98.1162)" /><g
                 id="g4144"
                 transform="translate(17.1943,93.1289)" /><g
                 id="g4148"
                 transform="translate(15.3228,87.9604)" /><g
                 id="g4152"
                 transform="translate(13.9258,82.6577)" /><g
                 id="g4156"
                 transform="translate(13.0078,77.2656)" /><g
                 id="g4160"
                 transform="translate(12.5854,71.8291)" /><g
                 id="g4164"
                 transform="translate(12.6392,66.3945)" /><g
                 id="g4168"
                 transform="translate(13.1606,61.002)" /><g
                 id="g4172"
                 transform="translate(14.1606,55.6982)" /><g
                 id="g4176"
                 transform="translate(15.6279,50.5254)" /><g
                 id="g4180"
                 transform="translate(17.5352,45.5186)" /><g
                 id="g4184"
                 transform="translate(19.8643,40.7139)" /><g
                 id="g4188"
                 transform="translate(22.5991,36.1475)" /><g
                 id="g4192"
                 transform="translate(25.7183,31.8545)" /><g
                 id="g4196"
                 transform="translate(29.1899,27.8594)" /><g
                 id="g4200"
                 transform="translate(32.9873,24.1895)" /><g
                 id="g4204"
                 transform="translate(37.0825,20.8711)" /><g
                 id="g4208"
                 transform="translate(41.4453,17.9248)" /><g
                 id="g4212"
                 transform="translate(46.0449,15.373)" /><g
                 id="g4216"
                 transform="translate(50.8506,13.2422)" /><g
                 id="g4220"
                 transform="translate(55.8247,11.5459)" /><g
                 id="g4224"
                 transform="translate(60.9282,10.2949)" /><g
                 id="g4228"
                 transform="translate(66.1216,9.4932)" /><g
                 id="g4232"
                 transform="translate(71.3652,9.1475)" /><g
                 id="g4236"
                 transform="translate(76.6191,9.2656)" /><g
                 id="g4240"
                 transform="translate(81.8428,9.8379)" /><g
                 id="g4244"
                 transform="translate(86.9961,10.8643)" /><g
                 id="g4248"
                 transform="translate(92.04,12.3379)" /><g
                 id="g4252"
                 transform="translate(96.9346,14.2549)" /><g
                 id="g4256"
                 transform="translate(101.6416,16.5977)" /><g
                 id="g4260"
                 transform="translate(106.126,19.3496)" /><g
                 id="g4264"
                 transform="translate(110.3594,22.4854)" /><g
                 id="g4268"
                 transform="translate(114.3086,25.9824)" /><g
                 id="g4272"
                 transform="translate(117.9463,29.8184)" /><g
                 id="g4276"
                 transform="translate(121.2451,33.9658)" /><g
                 id="g4280"
                 transform="translate(124.1777,38.3975)" /><g
                 id="g4284"
                 transform="translate(126.7109,43.0889)" /><g
                 id="g4288"
                 transform="translate(128.8311,47.999)" /><g
                 id="g4292"
                 transform="translate(130.5205,53.0928)" /><g
                 id="g4296"
                 transform="translate(131.7598,58.3359)" /><g
                 id="g4300"
                 transform="translate(132.5166,63.6904)" /><g
                 id="g4304"
                 transform="translate(132.8047,69.1084)" /><g
                 id="g4308"
                 transform="translate(132.623,74.5498)" /><g
                 id="g4312"
                 transform="translate(131.9512,79.9702)" /><g
                 id="g4316"
                 transform="translate(130.7939,85.3228)" /><g
                 id="g4320"
                 transform="translate(129.1592,90.5645)" /><g
                 id="g4324"
                 transform="translate(127.0498,95.6479)" /><g
                 id="g4328"
                 transform="translate(124.4795,100.5273)" /><g
                 id="g4332"
                 transform="translate(121.4668,105.1582)" /><g
                 id="g4336"
                 transform="translate(118.042,109.5039)" /><g
                 id="g4340"
                 transform="translate(114.2305,113.5254)" /><g
                 id="g4344"
                 transform="translate(110.0615,117.1855)" /><g
                 id="g4348"
                 transform="translate(105.5703,120.4512)" /><g
                 id="g4352"
                 transform="translate(100.791,123.2905)" /><g
                 id="g4356"
                 transform="translate(95.7646,125.6772)" /><g
                 id="g4360"
                 transform="translate(90.5322,127.585)" /><g
                 id="g4364"
                 transform="translate(85.1406,128.9946)" /><g
                 id="g4368"
                 transform="translate(79.6387,129.897)" /><g
                 id="g4372"
                 transform="translate(74.1445,130.2852)" /></g></g></g><g
           transform="translate(93.2686,22.6191)"
           id="g4378"><path
             id="path4380"
             style="fill:#000000;fill-opacity:1;fill-rule:nonzero;stroke:none"
             d="m 0,0 -1.561,-0.607 -0.147,-0.334 2.971,-7.648 0.334,-0.146 1.56,0.607 0.148,0.334 -2.97,7.647 z m 38.81,26.537 -2.092,0.689 -0.86,0.028 0.85,2.589 0.699,-0.521 0.817,-0.267 0.309,0.17 0.522,1.589 -0.148,0.321 -2.615,0.86 -0.325,-0.165 -0.937,-2.851 -1.401,-0.739 -5.196,1.708 -0.66,1.415 1.362,4.146 1.352,0.7 2.125,-0.699 0.875,0.021 -0.855,-2.605 -0.703,0.503 -0.819,0.268 -0.308,-0.17 -0.523,-1.59 0.15,-0.321 2.614,-0.859 0.326,0.165 0.946,2.884 1.371,0.695 5.18,-1.703 0.691,-1.371 -1.363,-4.147 z m -7.349,-15.414 -0.515,0.703 -3.048,2.154 -7.711,2.176 -1.155,0.034 1.863,2.637 0.243,-0.553 4.765,-1.571 -3.072,3.968 -0.601,0.045 1.863,2.636 0.418,-1.079 4.633,-6.53 3.047,-2.156 0.814,-0.279 z M 21.125,0.114 20.952,0.637 19.332,1.896 18.97,1.937 17.283,0.593 17.241,0.23 l 0.863,-1.862 0.47,-0.284 -2.146,-1.709 -0.208,0.954 -5.014,10.623 -0.66,0.443 2.335,1.859 0.282,-0.742 9.225,-7.272 0.883,-0.417 z m -15.9,-9.8 -5.339,-2.078 -0.081,0.873 -4.128,10.628 -0.525,0.682 5.34,2.079 1.415,-0.593 3.955,-10.179 z m -18.607,-4.884 -4.354,-0.323 -1.215,0.997 -0.163,2.196 -0.302,0.805 2.719,0.202 -0.214,-0.843 0.063,-0.859 0.276,-0.22 1.669,0.123 0.241,0.26 -0.204,2.744 -0.278,0.239 -2.995,-0.223 -1.216,1.015 -0.405,5.455 1.057,1.148 4.353,0.322 1.163,-0.983 0.166,-2.23 0.353,-0.802 -2.736,-0.203 0.197,0.844 -0.064,0.857 -0.275,0.22 -1.67,-0.123 -0.24,-0.259 0.205,-2.746 0.276,-0.237 3.029,0.224 1.165,-1 0.402,-5.438 z m -56.247,63.613 c 0,27.164 21.196,47.97 48.36,47.97 27.165,0 48.361,-20.806 48.361,-47.97 0,-27.165 -20.806,-49.141 -47.97,-49.141 -27.165,0 -48.751,21.976 -48.751,49.141 m 41.146,-52.803 -0.821,0.447 -3.283,0.733 -0.309,-0.195 -0.589,-2.633 0.195,-0.308 1.079,-0.241 0.885,0.084 -0.597,-2.668 -0.766,0.453 -1.078,0.241 -0.304,-0.179 -0.616,-2.751 0.196,-0.308 3.285,-0.734 0.932,0.057 -0.925,-2.313 -6.399,1.429 0.453,0.762 2.489,11.122 -0.09,0.866 6.399,-1.428 z m -14.75,6.208 -5.693,-9.88 -0.174,-0.852 -2.138,1.233 1.218,8.47 -3.556,-6.169 -0.174,-0.854 -2.346,1.354 0.651,0.577 5.695,9.878 0.182,0.869 2.108,-1.216 -1.226,-8.484 3.555,6.168 0.182,0.869 2.378,-1.371 z m -13.7,9.289 -8.05,-7.387 -1.545,0.082 -3.872,4.218 0.785,0.393 8.404,7.713 0.446,0.737 3.872,-4.221 z m -16.389,11.046 -0.119,0.881 -0.478,0.994 -0.33,0.13 -2.543,-1.223 -0.12,-0.344 1.459,-3.033 0.621,-0.697 -2.389,-0.709 -2.842,5.909 0.88,0.118 10.279,4.942 0.624,0.606 2.842,-5.908 -1.998,-1.401 -0.156,0.921 -1.46,3.032 -0.344,0.121 -2.434,-1.17 -0.12,-0.346 0.478,-0.995 0.615,-0.642 z m -10.906,15.962 -0.316,2.968 0.808,-0.122 7.331,2.286 -7.643,0.648 -0.765,-0.289 -0.317,2.986 0.808,-0.122 10.694,3.492 1.214,0.632 0.286,-2.694 -0.513,0.102 -7.699,-2.396 7.81,-0.75 0.698,0.265 0.29,-2.73 -0.739,0.114 -7.474,-2.388 8.031,-0.728 0.476,0.242 0.291,-2.729 -1.303,0.382 -11.203,1.121 z m 12.251,38.395 1.01,0.299 1.307,-0.71 0.301,-1.009 -0.711,-1.308 -1.01,-0.299 -1.307,0.709 -0.299,1.01 z m 4.124,14.262 0.228,-0.46 6.485,-4.564 -4.106,6.531 -0.625,0.385 1.944,1.856 0.357,-0.642 6.344,-4.394 -4.257,6.691 -0.474,0.225 1.946,1.857 0.485,-1.243 5.857,-9.395 0.684,-0.423 -2.117,-2.019 -0.39,0.703 -6.179,4.342 4.088,-6.339 0.683,-0.423 -2.127,-2.032 -0.391,0.703 -9.138,6.242 -1.217,0.566 z m 20.126,14.505 0.09,-0.868 1.712,-3.849 0.335,-0.127 1.5,0.666 0.129,0.334 -1.713,3.85 -0.569,0.654 2.458,1.092 0.089,-0.867 4.56,-10.247 0.576,-0.632 -2.458,-1.093 -0.097,0.845 -1.768,3.972 -0.335,0.129 -1.498,-0.667 -0.129,-0.335 1.767,-3.972 0.577,-0.632 -2.426,-1.079 -0.083,0.852 -4.558,10.247 -0.584,0.647 z m 17.616,5.158 -0.136,-0.861 1.766,-11.071 0.396,-0.759 -2.623,-0.419 0.14,0.844 -1.767,11.072 -0.398,0.776 z m 10.469,-8.153 2.66,-0.264 -0.349,-0.782 -0.084,-0.841 0.229,-0.261 1.633,-0.162 0.276,0.211 0.267,2.692 -0.227,0.279 -2.929,0.29 -1.004,1.189 0.531,5.353 1.214,0.932 4.261,-0.423 0.956,-1.149 -0.218,-2.188 0.206,-0.836 -2.676,0.265 0.333,0.783 0.083,0.842 -0.229,0.261 -1.633,0.161 -0.276,-0.209 -0.267,-2.695 0.227,-0.276 2.964,-0.295 0.954,-1.165 -0.53,-5.337 -1.167,-0.955 -4.257,0.423 -1.006,1.17 0.215,2.155 z m 14.711,-5.923 4.373,10.311 0.074,0.868 2.445,-1.037 -0.572,-0.657 -1.796,-4.236 4.59,3.548 -0.01,0.408 2.772,-1.175 -1.15,-0.633 -3.887,-2.928 -0.084,-7.13 0.32,-1.239 -2.834,1.202 0.389,0.441 0.045,5.09 -1.73,-1.306 -0.996,-2.352 -0.075,-0.869 -2.446,1.038 z m 13.978,-7.431 7.232,8.573 0.317,0.794 4.913,-4.145 -1.23,-2.061 -0.508,0.762 -2.522,2.127 -0.358,-0.03 -1.711,-2.031 0.03,-0.358 0.828,-0.698 0.807,-0.327 -1.735,-2.056 -0.459,0.742 -0.826,0.698 -0.347,-0.018 -1.79,-2.12 0.032,-0.358 2.52,-2.127 0.837,-0.373 -1.858,-1.598 -4.913,4.145 z m 19.479,-4.088 0.455,1.039 1.718,-2.655 -0.592,-0.021 -3.18,-3.77 4.743,1.356 0.261,0.532 1.717,-2.656 -1.134,0.01 -7.65,-1.845 -3.081,-1.995 -0.553,-0.638 -1.423,2.2 0.829,0.215 3.081,1.993 z m 4.944,-20.776 -1.418,-0.451 -0.936,0.484 -0.451,1.418 0.484,0.934 1.418,0.451 0.935,-0.484 0.451,-1.418 z m 3.036,-17.013 -1.859,-3.037 -3.541,0.101 -1.68,3.139 1.858,3.019 3.541,-0.101 z m -57.969,66.882 c -36.51,0 -66.106,-29.596 -66.106,-66.105 0,-36.509 29.596,-66.105 66.106,-66.105 36.509,0 66.105,29.596 66.105,66.105 0,36.509 -29.596,66.105 -66.105,66.105 m 52.759,-65.628 1.856,-0.053 0.333,-0.356 1.281,0.257 0.278,0.096 -0.023,-0.845 -0.256,0.075 -1.23,-0.257 -0.069,-0.049 -0.008,-0.226 0.085,-0.071 1.202,-0.034 0.262,0.079 -0.026,-0.863 -0.255,0.094 -3.558,0.102 -0.26,-0.079 0.051,1.794 z m 0.171,-3.614 2.87,-0.082 1.499,2.46 -1.355,2.526 -2.871,0.082 -1.515,-2.443 z M 15.983,2.613 16.263,2.595 17.262,3.39 17.306,3.666 14.043,6.41 Z m 16.717,44.918 0.089,0.066 0.014,0.535 -0.083,0.089 -1.013,0.029 -0.089,-0.084 -0.016,-0.535 0.085,-0.071 z m -99.642,-39.01 -0.016,-0.364 1.132,-1.232 0.365,-0.017 6.046,5.549 0.016,0.365 -1.132,1.234 -0.365,0.014 z" /></g><g
           transform="translate(87.9609,76.9395)"
           id="g4382"><path
             id="path4384"
             style="fill:#000000;fill-opacity:1;fill-rule:nonzero;stroke:none"
             d="m 0,0 h 14.906 l -26.08,-28.553 z m -28.347,0 h 24.768 l -12.384,-31.745 z m -18.486,0 h 14.908 l 11.174,-28.553 z M 5.947,16.323 15.396,3.295 H 1.21 Z m -43.82,0 4.737,-13.028 h -14.185 z m 21.91,0.849 11.354,-13.877 h -22.708 z m 3.501,0.953 H 3.114 L -1.7,4.917 Z m -22.579,0 h 15.577 L -30.226,4.917 Z M 5.381,21.446 C 5.32,21.441 5.26,21.432 5.2,21.42 h -42.378 -0.18 -0.025 c -0.043,0.002 -0.086,0.002 -0.129,0 -0.482,-0.034 -0.925,-0.279 -1.21,-0.669 L -51.904,2.626 c -0.46,-0.637 -0.406,-1.51 0.129,-2.085 l 34.551,-37.873 0.025,-0.025 c 0.033,-0.037 0.067,-0.071 0.103,-0.103 0.064,-0.066 0.133,-0.126 0.206,-0.181 0.017,-0.008 0.034,-0.017 0.051,-0.025 h 0.026 c 0.033,-0.027 0.067,-0.053 0.103,-0.077 0.008,-10e-4 0.017,-10e-4 0.025,0 0.042,-0.02 0.085,-0.036 0.129,-0.052 0.009,-0.009 0.017,-0.017 0.026,-0.025 0.042,-0.01 0.085,-0.019 0.128,-0.026 0.051,-0.019 0.103,-0.037 0.155,-0.05 h 0.025 0.026 c 0.043,-0.002 0.086,-0.002 0.129,0 h 0.025 c 0.043,-0.002 0.086,-0.002 0.129,0 h 0.025 c 0.06,-0.004 0.12,-0.004 0.18,0 0.044,0.006 0.087,0.014 0.129,0.025 0.009,0.008 0.017,0.017 0.026,0.025 0.052,0.006 0.103,0.015 0.154,0.026 0.018,0.008 0.035,0.016 0.051,0.025 0.08,0.028 0.158,0.064 0.232,0.104 0.009,0.007 0.017,0.016 0.026,0.025 0.035,0.024 0.069,0.05 0.103,0.077 0.008,0.009 0.017,0.017 0.025,0.026 0.035,0.024 0.069,0.05 0.103,0.078 0.008,0.007 0.017,0.016 0.026,0.025 0.075,0.07 0.145,0.147 0.206,0.231 l 34.474,37.77 c 0.534,0.576 0.588,1.448 0.129,2.085 L 6.793,20.751 c -0.323,0.457 -0.856,0.72 -1.416,0.696 z" /></g></g></g><path
       id="path4386"
       d="m 30.633305,38.399489 c 83.834555,0 85.859535,0 85.859535,0"
       style="fill:none;stroke:#000000;stroke-width:0.72664094px;stroke-linecap:butt;stroke-linejoin:miter;stroke-opacity:1" /><text
       transform="scale(1,-1)"
       id="text4390"
       y="-28.90748"
       x="50.048779"
       style="font-style:normal;font-weight:normal;font-size:30px;line-height:1.25;font-family:sans-serif;letter-spacing:0px;word-spacing:0px;fill:#000000;fill-opacity:1;stroke:none;stroke-width:0.75"
       xml:space="preserve"><tspan
         style="font-size:10px;stroke-width:0.75"
         y="-28.90748"
         x="50.048779"
         id="tspan4388">40.00mm</tspan></text>
</g></svg>