<?xml version="1.0" encoding="UTF-8" standalone="no"?>
<svg
   xmlns:dc="http://purl.org/dc/elements/1.1/"
   xmlns:cc="http://creativecommons.org/ns#"
   xmlns:rdf="http://www.w3.org/1999/02/22-rdf-syntax-ns#"
   xmlns:svg="http://www.w3.org/2000/svg"
   xmlns="http://www.w3.org/2000/svg"
   viewBox="0 0 620 882"
   height="882"
   width="620"
   id="svg2674"
   version="1.1">
  <metadata
     id="metadata2680">
    <rdf:RDF>
      <cc:Work
         rdf:about="">
        <dc:format>image/svg+xml</dc:format>
        <dc:type
           rdf:resource="http://purl.org/dc/dcmitype/StillImage" />
        <dc:title></dc:title>
      </cc:Work>
    </rdf:RDF>
  </metadata>
  <defs
     id="defs2678" />
  <path
     id="path2684"
     d="m 426.26776,598.31021 c -0.17056,-0.17058 -14.34218,-0.46259 -31.49247,-0.64895 -17.15027,-0.18634 -34.50914,-0.45806 -38.57527,-0.6038 -5.28156,-0.1893 -9.7527,-0.0579 -15.65562,0.45998 -7.35626,0.64543 -13.17653,0.69148 -53.0552,0.41981 -24.63588,-0.16782 -45.65214,-0.42526 -46.70281,-0.57207 -3.37069,-0.47098 -4.53795,-3.43 -2.00718,-5.08824 0.77514,-0.50789 2.87741,-0.72796 8.82156,-0.92348 l 7.80388,-0.25668 0.37477,-3.95733 c 0.20614,-2.17652 0.34264,-6.69705 0.30335,-10.04561 -0.0393,-3.34856 -0.25021,-59.31745 -0.46872,-124.3753 -0.34042,-101.35245 -0.2588,-127.10055 0.45001,-141.98788 l 0.11381,-2.39183 -9.96771,-0.1171 c -6.4603,-0.0759 -10.17114,-0.28589 -10.54581,-0.59685 -0.7293,-0.60526 -0.74851,-2.58453 -0.0345,-3.55565 1.0515,-1.43015 7.02308,-1.7436 25.54911,-1.34107 9.44773,0.20528 25.92808,0.37942 36.62298,0.387 18.8954,0.0137 19.46375,0.0382 20.09931,0.87919 0.81215,1.07465 0.86942,3.26917 0.1123,4.30457 -0.9163,1.2531 -3.92446,1.56608 -12.21852,1.27129 l -7.78678,-0.27679 0.29318,2.56685 c 1.09191,9.5601 0.77017,36.4318 -1.07472,89.76 -0.82636,23.88719 -0.86573,28.53289 -0.42745,50.44592 0.61155,30.57596 0.61088,66.63271 -10e-4,89.20914 -0.52417,19.31953 0.1409,49.90283 1.09085,50.16352 0.25993,0.0714 3.81191,0.35881 7.89328,0.63886 12.44344,0.85377 28.04179,0.50064 46.72171,-1.05773 5.16871,-0.43121 8.15049,-0.90791 10.66168,-1.70452 9.04169,-2.86826 18.70318,-11.14082 22.80395,-19.52569 2.11778,-4.33024 3.01455,-8.78728 3.72181,-18.498 0.3735,-5.12799 1.09969,-11.11471 1.7196,-14.17636 3.90994,-19.31055 14.31083,-35.10812 28.40141,-43.13797 3.9116,-2.22913 5.69471,-2.43328 7.29301,-0.83498 1.26249,1.2625 1.40799,3.28155 0.30639,4.25158 -0.41857,0.36859 -1.83736,1.20578 -3.15286,1.86046 -4.63107,2.30467 -9.3897,5.78019 -13.15582,9.6085 -8.35312,8.49106 -11.44998,14.34259 -13.44021,25.39527 -1.26368,7.01786 -1.59933,20.85196 -0.63978,26.36917 2.22303,12.78179 7.32113,21.30892 16.07171,26.88167 4.17527,2.65899 6.71079,3.35171 13.50912,3.69078 5.87995,0.29328 6.06892,0.3332 7.06677,1.4933 1.26519,1.47084 1.31186,3.27111 0.12395,4.78128 -0.82586,1.0499 -1.16568,1.14583 -4.05887,1.14583 -1.73665,0 -3.2971,-0.13955 -3.46767,-0.31012 z m -138.56112,-6.59272 3.69647,-0.27265 0.2792,-121.11371 c 0.15355,-66.61254 0.48815,-128.94153 0.74353,-138.50885 0.25538,-9.56733 0.47221,-18.67558 0.48184,-20.24055 l 0.0175,-2.8454 -16.50931,0.007 c -16.3508,0.007 -16.50752,0.0156 -16.32435,0.88844 1.36792,6.51876 1.83468,87.36892 0.70431,121.99505 -0.76789,23.52202 -1.22126,67.42032 -0.83316,80.67 0.2857,9.75369 1.29003,26.67971 1.93531,32.6159 0.15599,1.4351 0.40051,12.49188 0.54338,24.57064 l 0.25975,21.96137 6.52317,0.50328 c 6.12557,0.47261 9.52312,0.43022 18.48235,-0.23062 z m -19.31781,-4.89382 c -0.58129,-1.76163 -1.19005,-38.48663 -1.41554,-85.39872 -0.23229,-48.32543 0.30153,-139.31767 1.01862,-173.6253 l 0.28406,-13.58995 h 8.58358 8.58359 l 0.27208,5.76214 c 1.78333,37.76909 1.91172,148.62367 0.25094,216.67829 -0.66738,27.34792 -1.38069,49.99602 -1.58125,50.20673 -0.10244,0.10765 -3.69912,0.27859 -7.99261,0.37994 -6.35531,0.14999 -7.84298,0.0731 -8.00347,-0.41313 z m 9.2712,-32.34352 c 0.97085,-6.13033 1.30992,-22.51883 1.63307,-78.93048 0.4121,-71.93932 0.41211,-72.12011 0.005,-103.71855 -0.31586,-24.57921 -0.66287,-31.17023 -1.67393,-31.79509 -0.22745,-0.14057 -0.49197,-0.17718 -0.58781,-0.0814 -0.24242,0.24241 -0.9966,13.96013 -1.53732,27.96249 -0.45508,11.78425 -1.39436,89.10418 -1.45809,120.02652 -0.0188,9.08896 0.21442,23.08118 0.51811,31.09381 0.30368,8.01265 0.75427,20.0343 1.00129,26.71478 0.24704,6.68048 0.56381,12.33187 0.70395,12.55861 0.41836,0.67693 0.88284,-0.59885 1.39467,-3.83077 z m 126.09315,33.81181 c -4.70534,-4.86299 -8.02414,-10.08261 -10.16176,-15.98178 -0.43335,-1.19593 -0.93625,-2.34531 -1.11757,-2.5542 -0.18131,-0.20888 -0.91378,0.77732 -1.62769,2.19158 -2.62994,5.20989 -8.81119,12.56136 -14.85916,17.67225 l -2.39183,2.02124 16.70953,0.011 16.70952,0.011 -3.26104,-3.37031 z m -17.23903,-2.17439 c 1.35008,-1.3753 3.12682,-3.53094 3.94833,-4.79032 l 1.49365,-2.28975 0.92143,2.5271 c 0.50679,1.3899 1.64131,3.36813 2.52118,4.39605 1.28023,1.49566 1.47746,1.94638 0.98751,2.25656 -0.33675,0.21317 -3.24803,0.3906 -6.46952,0.39425 l -5.85724,0.007 z m 2.99984,-216.84061 c -0.8013,-0.9655 -0.14945,-1.81545 2.24442,-2.92649 8.36171,-3.88082 17.3008,-11.32716 22.75344,-18.95377 1.85046,-2.58824 5.40044,-9.38675 5.39552,-10.33288 -0.001,-0.28637 -1.58971,-0.47275 -4.24007,-0.49758 -3.28462,-0.0308 -4.80345,-0.25912 -6.75327,-1.01535 -3.2598,-1.26428 -7.14842,-4.83902 -8.69109,-7.98957 -3.54057,-7.2308 -1.99974,-17.36432 3.47233,-22.8364 3.09588,-3.09588 6.43228,-4.54262 11.01238,-4.77523 8.73457,-0.44358 15.47426,3.44375 18.53072,10.6882 1.17032,2.77388 1.2312,3.24481 1.22061,9.44266 -0.01,5.96439 -0.11257,6.81351 -1.19514,9.91233 -1.44434,4.1344 -3.34404,7.95933 -5.61816,11.3118 -4.83085,7.12163 -13.32623,15.64922 -19.91254,19.98808 -3.61212,2.37958 -15.90277,8.57667 -17.01573,8.57956 -0.38928,8.8e-4 -0.93081,-0.2669 -1.20342,-0.59536 z m 31.91783,-39.9479 c 2.34479,-0.89431 4.08851,-2.55123 5.31653,-5.05186 1.01979,-2.0766 1.20574,-3.00246 1.20079,-5.97838 -0.008,-4.72231 -1.56201,-7.97485 -4.75215,-9.9455 -1.98853,-1.22837 -2.4219,-1.31913 -6.29909,-1.31913 -3.96101,0 -4.30121,0.0759 -6.99036,1.55824 -4.97951,2.74497 -6.74438,6.94191 -5.04038,11.98619 2.46932,7.30975 9.96299,11.26835 16.56466,8.75044 z m -5.96278,-5.00339 c -1.6674,-0.23799 -3.64459,-2.24748 -4.2721,-4.34192 -0.47495,-1.58524 -0.43232,-1.99423 0.38353,-3.67955 1.08686,-2.24517 2.83184,-3.39976 5.13479,-3.39751 3.52541,0.004 6.08193,2.88287 5.68513,6.40326 -0.38363,3.40348 -3.32326,5.53068 -6.93135,5.01572 z"
     style="fill:#000000;stroke-width:0.43487865" />
  <rect
     y="281.08154"
     x="216.65822"
     height="336.69232"
     width="241.88365"
     id="rect2686"
     style="fill:none;fill-opacity:1;stroke:#000000;stroke-width:0.91990262;stroke-miterlimit:4;stroke-dasharray:none;stroke-opacity:1" />
  <path
     id="path2688"
     d="m 218.0196,660.01641 h 240.48222 l 6.60665,-1.32133"
     style="fill:none;stroke:#000000;stroke-width:1px;stroke-linecap:butt;stroke-linejoin:miter;stroke-opacity:1" />
  <path
     id="path2690"
     d="m 159.88104,284.75844 v 334.29671 l -2.64266,3.96399"
     style="fill:none;stroke:#000000;stroke-width:1px;stroke-linecap:butt;stroke-linejoin:miter;stroke-opacity:1" />
  <text
     id="text2694"
     y="700.97766"
     x="241.80354"
     style="font-style:normal;font-weight:normal;font-size:40px;line-height:1.25;font-family:sans-serif;letter-spacing:0px;word-spacing:0px;fill:#000000;fill-opacity:1;stroke:none"
     xml:space="preserve"><tspan
       y="700.97766"
       x="241.80354"
       id="tspan2692">20.00mm</tspan></text>
  <text
     transform="rotate(-90)"
     id="text2698"
     y="139.73334"
     x="-553.93036"
     style="font-style:normal;font-weight:normal;font-size:40px;line-height:1.25;font-family:sans-serif;letter-spacing:0px;word-spacing:0px;fill:#000000;fill-opacity:1;stroke:none"
     xml:space="preserve"><tspan
       y="139.73334"
       x="-553.93036"
       id="tspan2696">35.00mm</tspan></text>
</svg>
