<?xml version="1.0" encoding="UTF-8" standalone="no"?>
<svg
   xmlns:dc="http://purl.org/dc/elements/1.1/"
   xmlns:cc="http://creativecommons.org/ns#"
   xmlns:rdf="http://www.w3.org/1999/02/22-rdf-syntax-ns#"
   xmlns:svg="http://www.w3.org/2000/svg"
   xmlns="http://www.w3.org/2000/svg"
   viewBox="0 0 226.77164 226.77165"
   height="60mm"
   width="60mm"
   id="svg3464"
   version="1.1">
  <metadata
     id="metadata3470">
    <rdf:RDF>
      <cc:Work
         rdf:about="">
        <dc:format>image/svg+xml</dc:format>
        <dc:type
           rdf:resource="http://purl.org/dc/dcmitype/StillImage" />
        <dc:title></dc:title>
      </cc:Work>
    </rdf:RDF>
  </metadata>
  <defs
     id="defs3468" />
  <path
     id="path4017"
     d="m 140.35318,151.35174 c -3.7244,-1.0867 -8.97648,-2.06463 -13.65143,-2.54184 -7.22886,-0.73801 -13.69949,-0.79542 -26.13613,-0.2319 -12.576475,0.56978 -18.532397,0.48421 -23.437524,-0.33669 -9.010312,-1.50803 -13.798406,-5.74408 -16.38196,-14.49339 -0.440209,-1.49072 -1.129896,-4.68881 -1.278687,-5.92928 l -0.07555,-0.62998 0.929168,0.27224 c 5.498289,1.61068 11.697973,2.6445 19.057628,3.17808 3.36837,0.24421 15.026606,0.18109 21.365665,-0.11568 14.59672,-0.68331 21.19334,-0.47697 26.34076,0.82416 1.63679,0.41371 2.63211,0.77256 4.13346,1.49017 3.64204,1.74079 6.03738,4.15443 7.95042,8.01099 1.36921,2.76024 2.17582,5.57576 3.05096,10.64977 0.0443,0.25745 0.0209,0.35725 -0.0818,0.34684 -0.0793,-0.007 -0.88249,-0.23014 -1.78504,-0.49349 z m 4.18346,-16.47775 c 0.0311,-0.10853 0.15742,-0.54763 0.28044,-0.97578 2.43343,-8.46924 3.49195,-18.00659 3.30814,-29.80633 -0.0703,-4.5078 -0.10356,-5.463104 -0.47469,-13.624139 -0.26373,-5.798848 -0.26583,-14.126126 -0.004,-16.887329 0.53045,-5.599417 1.61711,-9.372299 3.55692,-12.349444 2.59087,-3.976434 6.46041,-6.420316 12.70087,-8.021548 1.51797,-0.389489 4.61477,-1.000559 5.07077,-1.000559 0.16729,0 0.15879,0.09304 -0.0839,0.917598 -1.6025,5.444374 -2.63788,11.658349 -3.17348,19.045962 -0.2177,3.003187 -0.18648,14.722191 0.0529,19.852329 0.39099,8.3792 0.43251,9.73257 0.43669,14.23584 0.004,4.56656 -0.0895,6.64293 -0.42179,9.3423 -0.71419,5.80226 -2.41883,9.91611 -5.32787,12.85809 -3.03679,3.07115 -7.10765,4.95025 -13.3041,6.14126 -2.58866,0.49754 -2.68443,0.50747 -2.61662,0.27175 z m -39.07745,-8.87181 c -3.70959,-0.38091 -6.227146,-1.09631 -9.61869,-2.73334 -3.00016,-1.44809 -4.936423,-2.72111 -8.60354,-5.6565 -2.479223,-1.98453 -3.861793,-3.3629 -3.974198,-3.96207 -0.137194,-0.73135 0.703106,-1.78057 3.738189,-4.66785 1.078952,-1.02637 1.480081,-1.51207 2.52344,-3.05542 1.402041,-2.074 2.458276,-3.29368 3.221729,-3.7204 0.431953,-0.24144 0.606778,-0.27899 1.028085,-0.22111 0.2792,0.0381 0.707823,0.20871 0.952494,0.37845 0.244687,0.16974 1.220619,0.84989 2.168748,1.51128 3.198753,2.23152 7.888383,4.34673 10.791343,4.86728 2.15019,0.38552 8.06934,0.28335 11.51617,-0.19887 1.98856,-0.27819 3.6354,-1.08575 4.85888,-2.38267 0.56649,-0.60051 0.79405,-0.94879 1.04537,-1.59972 0.29805,-0.77191 0.31614,-0.9045 0.25032,-1.83511 -0.077,-1.0894 -0.25303,-1.56185 -0.99598,-2.6738 -0.97593,-1.460626 -3.34065,-2.548443 -6.77965,-3.11878 -0.39759,-0.06588 -2.82492,-0.320107 -5.39404,-0.564779 -3.30802,-0.315028 -5.14174,-0.542008 -6.28379,-0.777803 -2.0296,-0.418937 -2.09254,-0.436557 -4.49024,-1.257457 -2.302531,-0.788355 -5.960592,-2.53344 -7.657015,-3.652841 -0.594603,-0.392346 -1.523633,-0.999692 -2.064504,-1.349638 -2.178419,-1.409346 -3.351307,-2.717623 -4.414872,-4.924681 -0.440062,-0.913153 -1.095893,-2.809482 -1.326998,-3.836952 -0.348889,-1.55121 -0.635333,-4.41348 -0.632268,-6.317976 0.0026,-1.361631 0.20135,-3.643079 0.411767,-4.716997 0.399833,-2.040568 2.023221,-5.97882 3.146253,-7.632525 1.144143,-1.684833 4.203972,-4.276538 6.27948,-5.318776 0.436937,-0.21943 1.16978,-0.613928 1.628552,-0.876626 0.766311,-0.438956 2.871,-1.335192 4.323245,-1.840989 0.64461,-0.224516 4.13521,-0.868138 6.29803,-1.16117 0.73405,-0.09948 1.83509,-0.272231 2.4468,-0.383851 3.43689,-0.627104 6.43297,-0.564866 11.06613,0.229914 0.39762,0.06829 1.59876,0.273422 2.66923,0.456017 2.37884,0.405766 3.10403,0.578284 5.44965,1.296372 1.78135,0.545334 2.21807,0.710065 4.44871,1.67808 1.41527,0.614161 1.51207,0.662437 3.1141,1.552161 1.78663,0.992227 2.61007,1.522312 3.1975,2.058201 0.42179,0.384809 0.47267,0.484918 0.47267,0.930298 0,0.409021 -0.14385,0.762547 -0.7975,1.959922 -1.04303,1.91061 -1.47522,2.544147 -4.05704,5.946588 -2.75442,3.62998 -3.52123,4.35608 -4.60004,4.35608 -0.49901,0 -0.73623,-0.102962 -2.05644,-0.892748 -2.66611,-1.594954 -7.28071,-2.836936 -11.78906,-3.172839 -6.58444,-0.490556 -10.16223,0.493251 -11.5049,3.163713 -0.96899,1.927205 -0.62806,3.711111 1.01583,5.315356 0.68024,0.66387 1.96053,1.298677 3.09311,1.533667 1.06791,0.22158 3.42218,0.485557 5.00479,0.561058 2.14086,0.102171 5.17109,0.719434 8.17449,1.665211 0.85637,0.26962 2.05753,0.597418 2.66922,0.728418 3.50363,0.750149 7.03436,2.161327 10.19171,4.073288 1.43147,0.866787 3.86566,2.894428 4.93647,4.111879 1.03674,1.178786 2.80988,3.832018 3.34371,5.003425 1.0967,2.406572 1.63641,6.8738 1.22294,10.12238 -0.67806,5.3272 -2.43736,9.23559 -5.65622,12.56563 -1.16249,1.20269 -1.60483,1.56518 -3.29834,2.70325 -2.65488,1.78407 -4.24847,2.55932 -7.40375,3.60203 -2.75258,0.90957 -4.68215,1.30676 -8.17448,1.68252 -4.50518,0.48485 -12.48317,0.72309 -15.1256,0.45182 z m -46.044068,-0.21872 c 0,-0.0453 0.147152,-0.59012 0.327001,-1.21096 2.525349,-8.71707 3.580279,-18.96084 3.244291,-31.502972 -0.06865,-2.562655 -0.232521,-6.936514 -0.364147,-9.719706 -0.289604,-6.12324 -0.351091,-16.092311 -0.1149,-18.628918 0.446037,-4.790357 1.151172,-7.81791 2.462619,-10.573483 0.939676,-1.974359 1.752138,-3.135054 3.22804,-4.61156 2.742042,-2.743183 6.06204,-4.416176 11.236256,-5.662216 1.747787,-0.42085 4.49343,-0.892669 4.537863,-0.779773 0.01839,0.0468 -0.191265,0.903308 -0.466043,1.90315 -1.652772,6.013755 -2.585065,12.199634 -2.969184,19.700853 -0.194149,3.791456 -0.07149,14.275544 0.240189,20.542635 0.303523,6.10148 0.371106,16.54547 0.124156,19.18505 -0.533186,5.6989 -1.66745,9.56554 -3.706509,12.63517 -0.958836,1.44348 -2.922366,3.38903 -4.435707,4.39523 -2.713609,1.80406 -6.032174,3.05804 -10.396663,3.9284 -1.886986,0.37639 -2.947262,0.51993 -2.947262,0.3991 z M 167.26785,50.366206 c -5.04634,-1.472379 -10.94775,-2.414739 -18.54502,-2.961189 -2.88223,-0.207367 -13.97886,-0.175368 -18.90699,0.05474 -2.17152,0.101308 -5.2745,0.243651 -6.89549,0.316294 -3.98618,0.17871 -12.2857,0.181568 -14.40267,0.0078 -3.35288,-0.279778 -5.64144,-0.647032 -7.78801,-1.24977 -6.81334,-1.913156 -10.908931,-6.253435 -13.112927,-13.896287 -0.419925,-1.45618 -1.118161,-4.717705 -1.243915,-5.810438 l -0.07348,-0.638777 0.543512,0.168071 c 2.560656,0.791525 6.459465,1.667918 9.885224,2.222137 8.461446,1.368772 16.350066,1.589006 31.864396,0.889656 12.90449,-0.581694 18.73735,-0.446892 23.86402,0.551845 5.68085,1.106626 9.6572,3.534465 12.30166,7.511062 0.81702,1.228564 2.12626,3.97254 2.65229,5.558844 0.68291,2.059391 1.1247,3.982158 1.71894,7.481376 0.0339,0.199666 0.005,0.300813 -0.0843,0.291202 -0.0749,-0.0078 -0.87469,-0.230068 -1.77721,-0.493407 z"
     style="fill:#000000;stroke-width:0.11121757" />
  <text
     id="text4023"
     y="183.41318"
     x="83.54335"
     style="font-style:normal;font-weight:normal;font-size:13.33333302px;line-height:1.25;font-family:sans-serif;letter-spacing:0px;word-spacing:0px;fill:#000000;fill-opacity:1;stroke:none"
     xml:space="preserve"><tspan
       y="183.41318"
       x="83.54335"
       id="tspan4021">40.00mm</tspan></text>
  <circle
     r="75.091904"
     cy="90.657196"
     cx="115.44508"
     id="path4044"
     style="opacity:1;fill:none;fill-opacity:1;stroke:#000000;stroke-width:0.99729419;stroke-miterlimit:4;stroke-dasharray:none;stroke-opacity:1" />
</svg>
