<?xml version="1.0" encoding="UTF-8" standalone="no"?>
<!-- Created with Inkscape (http://www.inkscape.org/) -->

<svg
   xmlns:dc="http://purl.org/dc/elements/1.1/"
   xmlns:cc="http://creativecommons.org/ns#"
   xmlns:rdf="http://www.w3.org/1999/02/22-rdf-syntax-ns#"
   xmlns:svg="http://www.w3.org/2000/svg"
   xmlns="http://www.w3.org/2000/svg"
   xmlns:sodipodi="http://sodipodi.sourceforge.net/DTD/sodipodi-0.dtd"
   xmlns:inkscape="http://www.inkscape.org/namespaces/inkscape"
   version="1.1"
   id="svg1727"
   width="60mm"
   height="60mm"
   viewBox="0 0 226.77166 226.77165"
   sodipodi:docname="50mm_sq.svg"
   inkscape:version="0.92.2 5c3e80d, 2017-08-06">
  <metadata
     id="metadata1733">
    <rdf:RDF>
      <cc:Work
         rdf:about="">
        <dc:format>image/svg+xml</dc:format>
        <dc:type
           rdf:resource="http://purl.org/dc/dcmitype/StillImage" />
        <dc:title></dc:title>
      </cc:Work>
    </rdf:RDF>
  </metadata>
  <defs
     id="defs1731" />
  <sodipodi:namedview
     pagecolor="#ffffff"
     bordercolor="#666666"
     borderopacity="1"
     objecttolerance="10"
     gridtolerance="10"
     guidetolerance="10"
     inkscape:pageopacity="0"
     inkscape:pageshadow="2"
     inkscape:window-width="1440"
     inkscape:window-height="805"
     id="namedview1729"
     showgrid="false"
     units="mm"
     inkscape:zoom="1.8645497"
     inkscape:cx="255.61804"
     inkscape:cy="156.95462"
     inkscape:window-x="0"
     inkscape:window-y="1"
     inkscape:window-maximized="1"
     inkscape:current-layer="svg1727" />
  <path
     style="fill:#000000;stroke-width:0.17493547"
     d="m 51.216515,171.57278 c -0.351644,-1.1888 -1.341559,-0.1135 16.865034,-18.32009 l 16.565963,-16.56596 2.541752,0.39526 c 1.397936,0.21739 2.57669,0.43024 2.619442,0.47299 0.04271,0.0427 -7.828365,7.9838 -17.491375,17.64681 -19.084699,19.0847 -18.052111,18.12494 -19.335687,17.97163 -0.71323,-0.0852 -1.538134,-0.83322 -1.76515,-1.60066 z m -2.600548,-17.63275 c -0.07949,-0.24757 -0.104072,-0.72397 -0.05461,-1.05868 l 0.08989,-0.60855 23.394345,-23.51794 23.394281,-23.51803 -1.885317,-11.845169 C 92.517657,86.876815 91.578953,81.50185 91.468563,81.447293 c -0.110405,-0.05454 -3.11227,-0.533083 -6.670857,-1.0634 -6.091954,-0.907858 -6.469325,-0.939538 -6.456212,-0.54207 0.0076,0.232179 0.84891,5.90502 1.86947,12.60632 l 1.855548,12.184187 -16.48191,16.48191 -16.481902,16.4819 -0.703159,0.13748 c -1.424215,0.27843 -2.774018,-0.98949 -2.540281,-2.38617 l 0.114387,-0.68347 14.975822,-15.0406 c 8.23668,-8.27235 14.91291,-15.06683 14.836084,-15.09883 -0.07683,-0.032 -3.014883,-0.48812 -6.529061,-1.01357 l -6.389419,-0.95541 -8.30475,8.30475 -8.304764,8.30476 -0.696204,0.13562 c -1.459109,0.28427 -2.850984,-1.02133 -2.524516,-2.36797 0.149025,-0.61464 0.441468,-0.92409 8.322595,-8.80611 l 8.168318,-8.168889 -0.757007,-5.040476 c -0.813852,-5.419097 -0.797778,-5.97708 0.191691,-6.653937 0.271755,-0.185969 0.832485,-0.338045 1.245994,-0.338052 0.629641,4e-6 0.848742,0.09695 1.348428,0.596632 0.576209,0.576209 0.619318,0.750416 1.261677,5.089741 0.365774,2.471213 0.720548,4.548951 0.788364,4.617192 0.174299,0.175473 13.21196,2.126609 13.341835,1.996729 0.05883,-0.0588 -0.966251,-7.272044 -2.277856,-16.029455 -1.311606,-8.757412 -2.363332,-16.183819 -2.337154,-16.503133 0.06368,-0.776828 0.50307,-1.396898 1.185923,-1.673575 0.840206,-0.340436 1.477962,-0.234933 2.205196,0.364795 l 0.648502,0.534799 0.579232,3.868241 c 0.318568,2.127545 0.662457,3.952017 0.764175,4.054399 0.128619,0.129213 12.182749,2.042923 13.187713,2.093519 0.03479,0.0017 -0.895891,-6.398183 -2.068124,-14.222063 -1.314551,-8.773712 -2.069208,-14.420429 -1.969229,-14.734541 0.350947,-1.102597 1.571098,-1.772508 2.620221,-1.438589 1.308398,0.416457 1.193603,-0.107915 4.379513,20.004459 1.632858,10.308152 2.983184,18.846825 3.000717,18.974794 0.01935,0.141114 2.605187,0.609254 6.571497,1.189654 5.38348,0.787785 6.53703,0.899566 6.52506,0.632237 -0.008,-0.178624 -1.4467,-9.691373 -3.19719,-21.139467 -1.75048,-11.448103 -3.17747,-21.237432 -3.17107,-21.754098 0.01,-0.81209 0.0894,-1.017095 0.58543,-1.513163 0.48763,-0.487623 0.70011,-0.573813 1.41494,-0.573806 0.70517,8e-6 0.93035,0.08921 1.3929,0.551763 0.65218,0.652182 0.55486,0.209078 1.68137,7.655239 0.47382,3.131978 0.90621,5.886223 0.96087,6.120558 0.092,0.394414 0.58591,0.500904 6.65129,1.433404 6.05884,0.931529 6.55111,0.97688 6.54116,0.602687 -0.006,-0.222557 -0.45882,-3.337448 -1.00645,-6.921975 -1.09242,-7.150553 -1.08912,-7.43412 0.0943,-8.071888 0.93477,-0.503775 1.71171,-0.388385 2.46534,0.366157 l 0.63915,0.639738 4.75178,31.160537 c 2.61344,17.138296 4.78451,31.193323 4.82458,31.233393 0.0401,0.0401 2.95373,-2.8075 6.4748,-6.32795 l 6.40197,-6.400795 15.04267,2.301782 c 17.99544,2.753644 17.21035,2.613979 17.75472,3.158345 1.2516,1.251598 0.59435,3.405588 -1.08009,3.539618 -0.35611,0.0285 -3.60152,-0.39732 -7.21201,-0.94629 -3.6105,-0.54897 -6.59958,-0.96563 -6.64244,-0.92596 -0.0841,0.0785 1.82152,12.65069 1.96745,12.97834 0.0487,0.10932 3.11262,0.65905 6.80869,1.22151 6.12344,0.93187 6.76408,1.06662 7.21491,1.51745 0.62621,0.6262 0.84608,1.46621 0.57955,2.21413 -0.27087,0.76008 -0.65926,1.13155 -1.35602,1.29676 -0.31874,0.0756 -9.94384,-1.28396 -22.03886,-3.11305 -11.81014,-1.78601 -21.5445,-3.20749 -21.6319,-3.15884 -0.18337,0.10204 1.63006,12.79351 1.84581,12.91835 0.0788,0.0455 8.56341,1.41854 18.85491,3.05117 10.29148,1.63262 18.93298,3.06835 19.20337,3.19056 0.65729,0.29705 1.18903,1.40087 1.06745,2.21594 -0.1094,0.73351 -0.82592,1.49614 -1.54674,1.64631 -0.2863,0.0596 -6.8603,-0.84541 -14.60894,-2.0112 -7.74863,-1.16578 -14.12439,-2.05549 -14.16839,-1.97713 -0.1407,0.25073 1.80374,13.06674 1.99717,13.16328 0.10227,0.0511 1.66421,0.32178 3.47098,0.60158 4.1117,0.63674 4.40132,0.70844 4.90942,1.21541 1.23094,1.22812 0.43512,3.49339 -1.24414,3.54163 -0.28462,0.008 -7.72569,-1.07029 -16.53576,-2.39663 -8.81004,-1.32632 -16.04397,-2.36415 -16.07536,-2.30625 -0.14166,0.26117 1.99258,13.35475 2.19125,13.44322 0.12293,0.0548 2.18304,0.38154 4.57799,0.72617 4.18241,0.60188 4.37766,0.64982 4.94078,1.21294 0.66333,0.66333 0.83275,1.26804 0.5788,2.0659 -0.2176,0.6837 -0.66824,1.13843 -1.33982,1.35255 -0.30444,0.0969 -2.61489,-0.13294 -5.50816,-0.54796 l -4.98371,-0.71488 -8.31848,8.2516 -8.31849,8.25159 -0.88545,-0.0387 c -0.9925,-0.0433 -1.64279,-0.52946 -1.93461,-1.44625 -0.38133,-1.1981 -0.75935,-0.74946 8.07653,-9.58533 4.41609,-4.4161 8.16847,-8.23806 8.33862,-8.49328 0.26809,-0.40216 0.18111,-1.31792 -0.65234,-6.86817 -0.52894,-3.52227 -0.99451,-6.43695 -1.03463,-6.47707 -0.0401,-0.0401 -6.87488,6.69988 -15.18837,14.97774 l -15.115447,15.05068 -0.716278,0.0153 c -1.323011,0.0283 -2.410966,-1.19451 -2.197533,-2.46994 l 0.11441,-0.68346 16.488278,-16.55362 16.4883,-16.55363 12.52512,1.8892 c 6.88885,1.03907 12.57144,1.82976 12.62802,1.75711 0.18063,-0.23196 -1.81991,-13.118 -2.04991,-13.2037 -0.12147,-0.0453 -13.4303,-2.18046 -29.57519,-4.7449 l -29.354371,-4.66261 -16.078343,15.95474 c -12.962448,12.86274 -16.165111,15.97842 -16.525842,16.07711 -1.012343,0.27697 -2.285171,-0.39864 -2.600343,-1.38023 z m 45.152127,-33.42467 6.035746,0.89135 8.52515,-8.46179 c 5.42983,-5.38938 8.56905,-8.41788 8.64578,-8.34115 0.12516,0.12516 0.7371,3.66991 0.79258,4.59119 l 0.0316,0.52503 -6.2242,6.2242 -6.2242,6.2242 6.14924,1.01774 6.14925,1.01776 6.61572,-6.61997 6.61573,-6.61997 -2.05471,-13.434933 c -1.13003,-7.389192 -2.16968,-14.192952 -2.3103,-15.119444 l -0.25566,-1.684545 -19.36192,19.361922 c -10.649057,10.64906 -19.317818,19.40126 -19.263845,19.44938 0.05381,0.0481 2.814165,0.48857 6.133827,0.97882 z m 10.478026,-23.961113 4.71123,-4.711231 -0.82555,-0.12381 c -5.12555,-0.768647 -10.393657,-1.502993 -10.445573,-1.456055 -0.08153,0.07375 1.648073,10.764499 1.763763,10.901669 0.0474,0.0545 2.20495,-2.019395 4.79613,-4.610573 z m 24.45991,29.298853 c 2.89415,0.47614 5.29045,0.80575 5.32514,0.73247 0.0948,-0.20031 -1.44612,-10.82466 -1.59096,-10.96949 -0.0824,-0.0824 -1.71825,1.46759 -4.77724,4.52658 -3.69939,3.6994 -4.60752,4.67172 -4.43545,4.74832 0.11906,0.053 2.58438,0.48597 5.47851,0.96212 z m -8.82973,-44.988342 5.49504,-5.559529 -0.81886,-5.489736 c -0.45036,-3.019364 -0.88088,-5.670228 -0.95669,-5.890815 -0.12275,-0.357144 -0.8472,-0.507577 -6.61527,-1.373744 -3.56257,-0.534991 -6.50599,-0.911558 -6.54093,-0.836845 -0.075,0.160315 3.73314,24.454909 3.85701,24.606578 0.0463,0.05713 2.55735,-2.398238 5.57961,-5.456001 z m 30.49566,31.174022 c 6.70306,1.06419 12.24574,1.92111 12.31706,1.90427 0.10979,-0.0259 -1.56236,-11.39052 -1.87268,-12.72711 -0.0998,-0.43002 -0.4061,-0.49853 -6.04137,-1.351036 l -5.9362,-0.898047 -5.48904,5.489043 c -3.51445,3.51445 -5.4308,5.51764 -5.32711,5.56853 0.0891,0.0438 5.64626,0.95017 12.34934,2.01435 z m -81.210631,62.52349 c -0.07972,-0.19243 -0.134499,-0.63862 -0.121594,-0.9917 l 0.0235,-0.64197 16.63362,-16.69825 16.633695,-16.69817 2.51971,0.38982 2.51971,0.38983 -17.591136,17.65378 c -19.338918,19.4078 -18.047169,18.21108 -19.245078,17.82981 -0.597654,-0.19022 -1.143201,-0.68043 -1.37253,-1.23323 z M 143.42794,80.689513 143.0803,78.253938 160.64755,60.686691 c 19.12329,-19.123288 18.04498,-18.122624 19.36027,-17.967704 0.51627,0.06079 0.73546,0.195797 1.16833,0.719623 0.59888,0.724699 0.70302,1.361957 0.36068,2.206768 -0.32595,0.80437 -37.39133,37.897032 -37.61594,37.643661 -0.0804,-0.08972 -0.30175,-1.259949 -0.49295,-2.599526 z m -2.66574,-17.75325 -0.38829,-2.509807 9.98,-9.978587 c 6.4258,-6.424623 10.18748,-10.095831 10.56252,-10.307876 1.71799,-0.971115 3.61112,0.644904 3.00102,2.561712 -0.14729,0.462557 -1.72469,2.090736 -11.37183,11.737879 -6.16045,6.160447 -11.24451,11.157115 -11.29799,11.103636 -0.0535,-0.05346 -0.27191,-1.226592 -0.48546,-2.606985 z m 29.23098,8.938683 c 10.11626,-10.116262 11.2681,-11.22864 11.83528,-11.430833 0.76405,-0.272268 1.51386,-0.05885 2.19843,0.625719 0.41882,0.418826 0.51333,0.668119 0.5133,1.354451 l 1e-5,0.841146 -10.3742,10.369963 -10.3742,10.369955 -2.42452,-0.383477 c -1.33347,-0.21092 -2.45947,-0.418474 -2.50223,-0.461233 -0.0427,-0.04271 4.96538,-5.120836 11.12918,-11.284637 z m -31.88601,-26.57813 -0.3457,-2.578022 2.7812,-2.702674 c 2.66887,-2.593432 2.80884,-2.707285 3.46472,-2.817002 1.3858,-0.231916 2.623,1.011228 2.4181,2.428984 -0.0847,0.585136 -0.24293,0.767178 -3.93998,4.533176 -2.11843,2.157995 -3.89234,3.876255 -3.94202,3.818353 -0.0499,-0.05768 -0.24588,-1.265334 -0.436,-2.68324 z m 42.01482,36.735772 c 3.91343,-3.913431 4.05711,-4.027405 5.13807,-4.077988 1.13908,-0.05328 2.21956,1.314557 1.94221,2.4587 -0.13788,0.568731 -0.40905,0.883756 -2.93493,3.410016 l -2.78301,2.783395 -2.43416,-0.331278 c -1.33878,-0.182221 -2.49832,-0.358353 -2.57678,-0.39146 -0.0785,-0.03307 1.56337,-1.766251 3.64855,-3.851434 z"
     id="path1737"
     inkscape:connector-curvature="0" />
  <text
     xml:space="preserve"
     style="font-style:normal;font-weight:normal;font-size:13.33333302px;line-height:1.25;font-family:sans-serif;letter-spacing:0px;word-spacing:0px;fill:#000000;fill-opacity:1;stroke:none"
     x="86.884247"
     y="222.63715"
     id="text1743"><tspan
       sodipodi:role="line"
       id="tspan1741"
       x="86.884247"
       y="222.63715">50.00mm</tspan></text>
  <rect
     style="opacity:1;fill:none;fill-opacity:1;stroke:#000000;stroke-width:1.07143152;stroke-miterlimit:4;stroke-dasharray:none;stroke-opacity:1"
     id="rect1888"
     width="187.90494"
     height="187.90495"
     x="20.997131"
     y="15.143105" />
</svg>
