<?xml version="1.0" encoding="UTF-8" standalone="no"?>
<!-- Created with Inkscape (http://www.inkscape.org/) -->

<svg
   xmlns:dc="http://purl.org/dc/elements/1.1/"
   xmlns:cc="http://creativecommons.org/ns#"
   xmlns:rdf="http://www.w3.org/1999/02/22-rdf-syntax-ns#"
   xmlns:svg="http://www.w3.org/2000/svg"
   xmlns="http://www.w3.org/2000/svg"
   xmlns:sodipodi="http://sodipodi.sourceforge.net/DTD/sodipodi-0.dtd"
   xmlns:inkscape="http://www.inkscape.org/namespaces/inkscape"
   version="1.1"
   id="svg1532"
   width="314"
   height="280"
   viewBox="0 0 314 280"
   sodipodi:docname="40mm_cir.svg"
   inkscape:version="0.92.2 5c3e80d, 2017-08-06">
  <metadata
     id="metadata1538">
    <rdf:RDF>
      <cc:Work
         rdf:about="">
        <dc:format>image/svg+xml</dc:format>
        <dc:type
           rdf:resource="http://purl.org/dc/dcmitype/StillImage" />
        <dc:title></dc:title>
      </cc:Work>
    </rdf:RDF>
  </metadata>
  <defs
     id="defs1536" />
  <sodipodi:namedview
     pagecolor="#ffffff"
     bordercolor="#666666"
     borderopacity="1"
     objecttolerance="10"
     gridtolerance="10"
     guidetolerance="10"
     inkscape:pageopacity="0"
     inkscape:pageshadow="2"
     inkscape:window-width="1440"
     inkscape:window-height="805"
     id="namedview1534"
     showgrid="false"
     inkscape:zoom="2.38396"
     inkscape:cx="82.589097"
     inkscape:cy="116.58693"
     inkscape:window-x="0"
     inkscape:window-y="1"
     inkscape:window-maximized="1"
     inkscape:current-layer="svg1532" />
  <path
     style="fill:#000000;stroke-width:0.5813812"
     d="m 152.03743,212.77563 c -2.19188,-1.33665 -5.03916,-4.65178 -4.75012,-5.53066 0.46021,-1.39932 2.63464,-0.94039 5.03121,1.06189 3.38792,2.83053 4.95548,2.90381 8.17373,0.38214 2.51209,-1.96834 3.6629,-2.41759 4.64239,-1.81222 0.59528,0.36791 0.4778,0.92178 -0.54735,2.5805 -2.47531,4.00512 -8.71722,5.65558 -12.54986,3.31835 z m 3.22238,-5.15286 c -0.47963,-0.18166 -1.73145,-1.07667 -2.78179,-1.98893 -2.015,-1.75006 -3.54167,-2.04906 -5.39576,-1.05679 -0.97037,0.51933 -1.12455,0.40546 -1.12455,-0.83053 0,-3.49535 3.78318,-4.28424 7.26727,-1.51544 1.2071,0.95928 2.64601,1.74415 3.1976,1.74415 0.55157,0 1.9905,-0.78487 3.19759,-1.74415 3.44815,-2.74024 7.26726,-2.10769 7.26726,1.20367 0,1.54422 -0.12889,1.67516 -1.12453,1.1423 -1.91416,-1.02442 -3.32387,-0.67922 -5.85204,1.43301 -2.43345,2.03309 -3.01179,2.23363 -4.65105,1.61271 z m -0.32709,-6.7204 c -0.65952,-0.38837 -2.12314,-1.42558 -3.25246,-2.30492 -2.37801,-1.85162 -3.19364,-1.96307 -4.65935,-0.63662 -1.00841,0.91261 -1.0632,0.86873 -1.0632,-0.85162 0,-1.91013 1.24591,-3.01746 3.39505,-3.01746 0.63031,0 2.242,0.91567 3.58153,2.03483 1.33955,1.11916 2.90927,2.03483 3.4883,2.03483 0.57899,0 2.14874,-0.91567 3.48827,-2.03483 3.67409,-3.06962 6.60263,-2.5194 7.2634,1.36467 l 0.33107,1.94604 -1.5088,-1.18683 c -1.74744,-1.37453 -2.477,-1.19398 -5.98485,1.48104 -2.75105,2.09789 -3.29263,2.22274 -5.07896,1.17087 z m -2.51336,-7.71261 c -2.80562,-2.20612 -4.16572,-2.47364 -5.54805,-1.09132 -0.83054,0.83054 -0.9136,0.76184 -0.9136,-0.7558 0,-2.17269 0.9541,-3.06471 3.278,-3.06471 1.27991,0 2.49405,0.55841 3.79226,1.74415 1.14928,1.04971 2.54438,1.74414 3.50395,1.74414 0.94247,0 2.40654,-0.71312 3.5808,-1.74414 2.10296,-1.84642 5.0028,-2.33456 6.04413,-1.01742 0.73611,0.93106 1.28616,3.92432 0.72115,3.92432 -0.23626,0 -0.75526,-0.39243 -1.15333,-0.87207 -1.0567,-1.27326 -1.80078,-1.09963 -4.98289,1.16276 -1.57411,1.11916 -3.51692,2.02138 -4.31735,2.00493 -0.80041,-0.0165 -2.6027,-0.93214 -4.00507,-2.03484 z m -0.002,-6.37093 c -2.85629,-2.27052 -3.84878,-2.4668 -5.39552,-1.06701 -1.00843,0.91261 -1.0632,0.86874 -1.0632,-0.85161 0,-3.00377 4.00742,-4.17196 6.15838,-1.79518 2.86584,3.16673 5.5703,3.26178 8.33213,0.29284 2.40767,-2.5882 6.01209,-1.74643 6.58191,1.53713 0.31356,1.80687 0.0491,1.92677 -1.56193,0.70823 -1.51519,-1.14603 -1.5207,-1.14461 -4.5668,1.18125 -3.41146,2.60485 -5.20251,2.60366 -8.48497,-0.006 z m 0,-5.81381 c -2.95051,-2.34543 -3.69504,-2.45824 -5.7187,-0.86643 -0.81301,0.63952 -1.82517,1.16277 -2.24923,1.16277 -1.50543,0 -3.05353,-2.49152 -4.22434,-6.79869 -1.38453,-5.09331 -2.48844,-6.99363 -4.50888,-7.7618 -0.80351,-0.30549 -5.83324,-0.55542 -11.17719,-0.55542 -10.77408,0 -11.74631,-0.27574 -13.19469,-3.74221 -0.67746,-1.62137 -0.60296,-2.54284 0.61198,-7.57014 2.28842,-9.46925 2.29062,-10.37847 0.0627,-25.89605 -3.20526,-22.32501 -4.67595,-35.895118 -4.06325,-37.491777 0.64836,-1.689612 1.88296,-0.855348 3.29341,2.225496 0.78937,1.724191 2.23024,3.680775 3.24022,4.399947 2.22044,1.581094 2.3233,3.184024 0.28982,4.516404 -1.48103,0.97041 -1.51781,1.13332 -1.17397,5.20092 0.38429,4.54617 4.45912,24.27342 5.98971,28.99765 1.35872,4.19375 3.36989,7.4057 6.36687,10.16822 3.17256,2.92437 5.74844,4.07563 9.11898,4.07563 8.24033,0 13.90714,-5.77725 17.10803,-17.44145 0.88825,-3.23679 1.03482,-6.23962 1.02165,-20.92972 -0.0168,-18.740507 -0.24713,-20.348337 -2.91537,-20.348337 -2.01122,0 -3.75514,-0.989272 -3.75514,-2.13017 0,-0.509574 0.94514,-1.972671 2.10035,-3.251324 2.49255,-2.758968 3.94173,-5.857979 5.42702,-11.605577 2.05631,-7.957182 2.6486,-8.087049 4.51839,-0.990714 1.9373,7.352526 2.94517,9.613473 5.44542,12.215738 1.25168,1.302751 2.27578,2.86133 2.27578,3.463507 0,1.216789 -1.61737,2.29854 -3.43666,2.29854 -0.65316,0 -1.64422,0.696921 -2.20234,1.548716 -1.50521,2.297231 -1.89824,29.002151 -0.53377,36.266821 1.95601,10.41406 5.32928,16.32237 10.91167,19.11194 6.42319,3.2097 11.80259,2.16576 16.8636,-3.27265 3.08557,-3.31563 4.63647,-6.09096 5.95144,-10.65011 1.74535,-6.05119 5.57052,-25.86608 5.57764,-28.89282 0.006,-2.60403 -0.20081,-3.17512 -1.44631,-3.99119 -1.97555,-1.29444 -1.82615,-2.55604 0.52484,-4.431903 1.08806,-0.868152 2.5736,-2.89572 3.30123,-4.505704 1.32079,-2.922485 2.59164,-3.721195 3.23855,-2.035385 0.47609,1.240645 -1.23052,17.377702 -3.37955,31.956182 -2.59312,17.59093 -2.71819,22.54866 -0.77622,30.76892 1.49202,6.31565 1.51923,6.70244 0.6067,8.62544 -0.52544,1.10731 -1.60913,2.31116 -2.40816,2.67522 -0.89888,0.40957 -5.11076,0.66194 -11.0471,0.66194 -12.42637,0 -13.85632,0.69149 -15.02792,7.26725 -0.65322,3.66633 -2.39139,7.10748 -3.81891,7.56056 -0.88367,0.28046 -1.80609,0.0251 -2.94156,-0.81442 -0.90982,-0.67266 -1.88038,-1.22301 -2.1568,-1.22301 -0.27644,0 -1.79051,0.91567 -3.36463,2.03484 -1.57413,1.11915 -3.51692,2.03228 -4.31735,2.02918 -0.80042,-0.002 -2.60403,-0.91877 -4.00801,-2.03483 z m 5.63518,-1.67898 c 0.86422,-0.4469 2.06907,-1.36258 2.67744,-2.03483 1.46878,-1.62297 4.24191,-1.58687 6.01443,0.0783 l 1.38443,1.30062 1.11723,-1.44596 c 1.58978,-2.05754 3.4881,-7.32863 3.86853,-10.74174 0.17858,-1.60228 0.72784,-3.37681 1.22057,-3.94342 0.8206,-0.94365 0.74081,-1.19016 -0.94995,-2.93458 -2.37457,-2.44994 -2.48494,-4.04264 -0.24701,-3.56427 l 1.5988,0.34174 -1.5988,-1.04671 c -0.97312,-0.63708 -1.5988,-1.56715 -1.5988,-2.37658 0,-1.15616 0.20883,-1.27977 1.5988,-0.94632 2.73289,0.65563 1.26126,-0.13723 -5.52311,-2.97564 -5.62955,-2.35525 -6.54055,-2.92164 -6.54055,-4.06633 0,-2.35215 -1.83018,-3.94284 -4.53644,-3.94284 -2.93587,0 -4.03823,0.82364 -4.51684,3.37484 -0.34168,1.82136 -0.71476,2.08395 -6.26523,4.41005 -5.59129,2.3432 -8.68973,4.04157 -5.75655,3.15538 1.10768,-0.33466 1.3081,-0.17739 1.3081,1.0265 0,0.80261 -0.56964,1.83939 -1.3081,2.38083 l -1.30812,0.95911 1.30812,-0.34599 c 1.96175,-0.51889 1.68839,1.31948 -0.53771,3.61623 -1.74343,1.79877 -1.7918,1.96407 -0.87207,2.98036 0.53555,0.59179 0.97374,1.52697 0.97374,2.07819 0,2.87098 1.99449,9.25155 3.57315,11.4308 l 1.75099,2.41718 1.29971,-1.22103 c 1.77395,-1.66653 4.69861,-1.60348 6.33963,0.13666 1.08164,1.14695 3.16497,2.63188 3.7801,2.6943 0.0958,0.01 0.8813,-0.34797 1.74551,-0.79487 z m -4.77172,-4.12918 c -1.82958,-1.6956 -4.67598,-1.92389 -6.24811,-0.50115 -1.37997,1.24886 -2.31915,0.47856 -3.84143,-3.1508 -2.06628,-4.92633 -2.0608,-6.12675 0.0371,-8.12275 2.29417,-2.18279 6.85833,-4.56228 10.1429,-5.28795 l 2.47087,-0.54588 v 9.53098 c 0,5.24205 -0.22342,9.531 -0.49649,9.531 -0.27306,0 -1.20222,-0.65406 -2.06479,-1.45345 z m 3.72404,-8.07755 v -9.53098 l 2.47086,0.53583 c 2.9762,0.6454 7.22189,2.7501 10.03684,4.97551 1.91623,1.51494 2.03808,1.79955 1.69441,3.95785 -0.29884,1.87679 -2.63022,7.51498 -3.44491,8.33113 -0.10525,0.1055 -0.8028,-0.1943 -1.55001,-0.66619 -2.68206,-1.69385 -3.68353,-1.66482 -5.99718,0.17384 -1.21392,0.9647 -2.43279,1.75401 -2.70856,1.75401 -0.27581,0 -0.50145,-4.28895 -0.50145,-9.531 z m -16.4192,-5.14163 c -0.82226,-1.23838 -0.69087,-1.42697 3.20853,-4.60517 4.33264,-3.53132 10.47739,-6.88435 12.6162,-6.88435 2.50508,0 12.38877,5.92312 15.31405,9.17745 0.88972,0.98978 0.94072,1.36242 0.32205,2.35305 -0.723,1.15769 -0.77058,1.14889 -2.89668,-0.53499 -8.15295,-6.45726 -17.31634,-6.44411 -25.49892,0.0367 l -2.20786,1.74865 -0.85737,-1.29128 z m 1.88467,-5.93616 c 0,-0.76963 4.48766,-3.61007 4.93416,-3.12306 0.0937,0.10227 -0.9781,1.04448 -2.38186,2.09382 -1.82326,1.36293 -2.5523,1.65693 -2.5523,1.02924 z m 25.15251,-1.05419 c -1.3547,-0.99089 -2.36113,-1.90358 -2.23651,-2.0282 0.49757,-0.49757 4.99029,2.26089 4.99029,3.06396 0,1.05306 0.20984,1.13199 -2.75378,-1.03576 z m -25.15251,-2.71241 c 0,-0.66296 0.10935,-1.20538 0.24315,-1.20538 0.13371,0 0.67999,-0.16764 1.21392,-0.37253 0.76545,-0.29374 0.92921,-0.0798 0.77426,1.01147 -0.25222,1.77639 -2.23133,2.2788 -2.23133,0.56644 z m 26.30749,0.7351 c -0.39968,-0.16128 -0.72672,-0.82268 -0.72672,-1.46975 0,-0.83398 0.26774,-1.07377 0.91961,-0.82363 0.5058,0.1941 1.02905,0.3529 1.16278,0.3529 0.13372,0 0.24313,0.52323 0.24313,1.16276 0,1.17502 -0.27847,1.31049 -1.5988,0.77772 z m -22.8192,-1.86336 c 0,-1.02439 2.46271,-2.98403 3.7501,-2.98403 0.84808,0 0.20967,2.8029 -0.69786,3.06383 -0.55957,0.16088 -1.47524,0.48102 -2.03482,0.71138 -0.77726,0.31999 -1.01742,0.13322 -1.01742,-0.79118 z m 18.45884,0.33018 c -1.09954,-0.4345 -1.59879,-1.05058 -1.59879,-1.97299 0,-1.58589 0.12089,-1.60921 2.35439,-0.45422 1.02075,0.52783 1.71527,1.35178 1.71527,2.03484 0,1.27349 -0.17191,1.30079 -2.47087,0.39237 z m -13.22641,-2.32308 c 0,-1.11351 0.43332,-1.60983 1.8309,-2.09702 2.55942,-0.89222 2.82014,-0.82269 2.82014,0.75217 0,0.98394 -0.40911,1.49311 -1.39944,1.74167 -0.76969,0.19318 -1.81617,0.51114 -2.32552,0.7066 -0.69556,0.26691 -0.92608,-0.007 -0.92608,-1.10342 z m 7.70329,0.60955 c -1.42536,-0.45724 -1.88948,-0.94249 -1.88948,-1.97548 0,-1.55307 0.26508,-1.6218 2.82014,-0.73109 1.36837,0.47701 1.8309,0.99108 1.8309,2.03484 0,1.53477 -0.0405,1.54462 -2.76156,0.67173 z m -5.95915,-4.88143 c 0,-0.83679 1.35814,-1.3703 3.48829,-1.3703 2.13016,0 3.48828,0.53351 3.48828,1.3703 0,0.42462 -1.25937,0.66453 -3.48828,0.66453 -2.22891,0 -3.48829,-0.23991 -3.48829,-0.66453 z m 0.96424,-2.67841 c 0.34262,-0.55923 4.34786,-0.55242 5.23061,0.009 0.36946,0.23493 -0.71639,0.42714 -2.41301,0.42714 -1.69661,0 -2.96454,-0.19621 -2.8176,-0.43604 z m -29.49453,16.05492 c 1.57293,-1.99965 1.52463,-3.84546 -0.15161,-5.79421 -1.82188,-2.11806 -4.78859,-2.09283 -6.63743,0.0565 -1.62986,1.89471 -1.66329,3.75438 -0.10314,5.73779 0.92942,1.18155 1.71742,1.53184 3.44609,1.53184 1.72866,0 2.51666,-0.35029 3.44609,-1.53187 z m 70.78789,0.26776 c 1.70079,-1.59782 1.77469,-4.45124 0.16015,-6.18423 -2.85201,-3.06128 -7.76785,-1.06786 -7.76785,3.14995 0,3.89706 4.69573,5.76993 7.6077,3.03428 z"
     id="path1542"
     inkscape:connector-curvature="0" />
  <ellipse
     style="opacity:1;fill:none;fill-opacity:1;stroke:#000000;stroke-width:0.89205772;stroke-miterlimit:4;stroke-dasharray:none;stroke-opacity:1"
     id="path1544"
     cx="156.81937"
     cy="142.02811"
     rx="75.144516"
     ry="75.144524" />
  <text
     xml:space="preserve"
     style="font-style:normal;font-weight:normal;font-size:13.33333302px;line-height:1.25;font-family:sans-serif;letter-spacing:0px;word-spacing:0px;fill:#000000;fill-opacity:1;stroke:none"
     x="127.21257"
     y="235.1167"
     id="text1548"><tspan
       sodipodi:role="line"
       id="tspan1546"
       x="127.21257"
       y="235.1167">40.00mm</tspan></text>
</svg>
