<?xml version="1.0" encoding="UTF-8" standalone="no"?>
<svg
   xmlns:dc="http://purl.org/dc/elements/1.1/"
   xmlns:cc="http://creativecommons.org/ns#"
   xmlns:rdf="http://www.w3.org/1999/02/22-rdf-syntax-ns#"
   xmlns:svg="http://www.w3.org/2000/svg"
   xmlns="http://www.w3.org/2000/svg"
   viewBox="0 0 135.60001 200"
   height="200"
   width="135.60001"
   id="svg84"
   version="1.1">
  <metadata
     id="metadata90">
    <rdf:RDF>
      <cc:Work
         rdf:about="">
        <dc:format>image/svg+xml</dc:format>
        <dc:type
           rdf:resource="http://purl.org/dc/dcmitype/StillImage" />
        <dc:title></dc:title>
      </cc:Work>
    </rdf:RDF>
  </metadata>
  <defs
     id="defs88" />
  <path
     id="path94"
     d="m 59.439355,156.70884 c -3.012668,-0.23145 -5.768421,-0.84807 -7.313923,-1.63651 -1.674109,-0.85407 -5.022627,-4.75434 -8.893322,-10.35873 -1.289465,-1.86702 -2.554635,-3.59202 -2.811489,-3.83332 -0.256854,-0.24131 -0.467318,-0.56947 -0.467698,-0.72923 -0.0017,-0.73288 -0.69428,-1.42396 -1.848902,-1.84494 -0.636745,-0.23216 -1.360742,-0.62515 -1.60888,-0.87329 -0.416311,-0.41631 -0.446065,-0.56339 -0.385177,-1.90417 0.05949,-1.30989 0.119058,-1.50841 0.604768,-2.01538 0.296329,-0.3093 0.475373,-0.62546 0.397873,-0.70255 -0.0775,-0.0772 -0.606859,-0.14013 -1.176355,-0.14013 -0.934999,0 -1.062944,-0.0488 -1.318875,-0.50235 -0.259527,-0.45997 -0.254519,-0.556 0.05938,-1.13888 0.267695,-0.49708 0.37394,-1.25555 0.48488,-3.4614 0.192998,-3.83753 0.72256,-5.32542 2.261641,-6.35436 0.671771,-0.44914 0.592918,-0.98693 -0.183039,-1.24835 -0.326278,-0.10988 -0.729954,-0.33686 -0.897058,-0.50433 -0.282245,-0.28285 -0.262798,-0.36412 0.273814,-1.14405 0.705611,-1.02558 1.226765,-1.40906 1.914877,-1.40906 0.885731,0 1.23705,0.30213 1.240203,1.06655 0.0048,1.17084 0.177193,1.25918 1.381221,0.70797 1.87591,-0.85883 5.040959,-0.62586 7.698127,0.5666 0.915256,0.41074 1.131494,0.44703 1.497087,0.25139 0.846343,-0.45295 2.214695,-1.59551 2.936977,-2.45233 l 0.736589,-0.8738 -0.581968,-1.15417 c -0.759589,-1.50642 -0.885867,-2.5195 -0.501241,-4.0212 0.386597,-1.50941 0.89533,-2.26286 1.985315,-2.94037 0.735423,-0.45711 0.978441,-0.77084 1.601014,-2.06692 0.963782,-2.00642 1.292285,-3.36397 1.59635,-6.597022 0.138317,-1.470757 0.379566,-3.296326 0.5361,-4.056813 0.399134,-1.939102 0.367981,-2.289392 -0.268039,-3.013768 -0.304195,-0.346463 -0.55308,-0.740271 -0.55308,-0.875146 0,-0.362543 1.499996,-1.826248 1.871531,-1.826248 0.175935,0 0.428287,-0.153239 0.560786,-0.340475 0.132499,-0.187252 0.572751,-0.446632 0.978344,-0.576384 0.40559,-0.129782 0.861882,-0.33725 1.01398,-0.461122 0.152097,-0.123918 0.421723,-0.276695 0.599168,-0.339626 0.247912,-0.08796 0.32263,-0.32401 0.32263,-1.01942 0,-0.579547 0.09946,-0.987552 0.276541,-1.134526 0.422365,-0.350537 0.329876,-0.573498 -0.18436,-0.444425 -0.436059,0.109413 -0.4609,0.07454 -0.4609,-0.647879 0,-0.863248 0.611939,-2.202649 1.409464,-3.085018 0.289472,-0.320259 0.661079,-0.775486 0.825787,-1.011626 0.259823,-0.372465 0.369669,-0.404734 0.82962,-0.243609 0.331523,0.116203 0.552038,0.338361 0.588578,0.593143 0.03213,0.224087 0.261646,0.567279 0.510021,0.762647 0.342793,0.269643 0.439757,0.501986 0.402469,0.96442 -0.03903,0.484054 0.02662,0.623806 0.3196,0.680318 0.593771,0.114505 0.633327,0.257914 0.359822,1.304061 -0.285812,1.093215 -0.236337,1.312334 0.296318,1.312334 0.27284,0 0.35784,0.128393 0.35784,0.540488 0,0.597942 1.185115,2.185844 1.659236,2.223158 0.152097,0.01235 0.525425,0.40995 0.829623,0.88439 0.4029,0.628405 0.758599,0.938541 1.310003,1.142242 0.416318,0.153857 0.8909,0.391447 1.054616,0.528113 0.4868,0.406369 1.988525,0.101542 2.890223,-0.586584 1.234694,-0.942306 1.435513,-1.604923 1.491938,-4.922685 l 0.04863,-2.860189 -0.49404,-0.494054 c -0.941869,-0.941859 -0.540814,-2.68495 0.855947,-3.720152 0.40651,-0.301285 0.854756,-0.399666 2.048632,-0.449636 1.771105,-0.07412 2.486937,0.19079 3.061431,1.132986 0.440264,0.722071 0.45267,1.278778 0.05582,2.507378 -0.269141,0.833356 -0.275631,1.069527 -0.05468,1.990552 0.193026,0.804576 0.199662,1.062027 0.0288,1.118955 -0.144597,0.04815 -0.221854,0.521215 -0.221854,1.358275 0,0.793773 -0.108039,1.493226 -0.282871,1.831294 -0.155566,0.300861 -0.349824,1.272766 -0.431677,2.159825 -0.17581,1.905322 -0.402076,2.418234 -1.927913,4.370329 -1.386234,1.773471 -2.727947,2.887458 -4.665939,3.873961 -0.969247,0.49339 -1.525535,0.899466 -1.680842,1.226994 -0.127684,0.269244 -0.481363,0.576434 -0.785968,0.682604 -0.740569,0.25817 -0.830341,0.58812 -0.393156,1.44508 0.201247,0.39445 0.544071,1.3773 0.761845,2.1841 0.798769,2.95915 0.938593,3.36902 1.310704,3.84207 0.208686,0.26534 0.537944,0.4824 0.73168,0.4824 0.453921,0 1.181157,1.40869 1.434373,2.77849 0.283351,1.53278 0.01343,2.45319 -1.1026,3.76117 l -0.937862,1.09904 0.121866,1.18943 c 0.144644,1.41185 0.185867,1.49603 0.732787,1.49603 0.231797,0 0.571604,0.16593 0.755134,0.36872 0.183531,0.20281 0.426012,0.36873 0.538853,0.36873 0.112854,0 0.510401,0.20739 0.88345,0.46089 0.373051,0.25349 0.798247,0.46091 0.944874,0.46091 0.57461,0 0.677727,-1.43258 0.13827,-1.92077 -0.505361,-0.45734 -0.615822,-1.11471 -0.310237,-1.84608 0.32522,-0.77837 0.838323,-0.90785 3.228829,-0.81478 1.848763,0.0721 2.271719,0.30375 2.492215,1.36561 0.09954,0.47933 0.02441,0.64758 -0.503273,1.12781 l -0.620258,0.56441 0.0339,1.72096 c 0.0217,1.09994 0.109984,1.74632 0.244745,1.79126 0.115971,0.0386 0.210857,0.29723 0.210857,0.57467 0,0.45032 0.146758,0.56888 1.369236,1.10612 1.981305,0.87073 4.220187,2.30135 4.967067,3.17389 0.6947,0.81161 1.03809,1.94695 1.03809,3.43216 0,0.5955 0.10972,0.97153 0.36172,1.23978 0.33323,0.35471 0.35272,0.56436 0.24729,2.66117 -0.1304,2.5938 0.2381,1.98363 -2.79762,4.63222 -1.475045,1.28696 -3.157837,3.29139 -3.157837,3.76145 0,0.12191 -0.257328,0.46542 -0.571827,0.76325 -0.794376,0.75218 -1.959456,2.42354 -3.204801,4.59739 -0.746862,1.30372 -1.444653,2.22152 -2.382839,3.13412 -1.465165,1.42524 -2.32108,2.50314 -2.32108,2.92309 0,0.39554 -1.346001,1.48979 -2.16163,1.75733 -1.779045,0.58359 -11.441471,0.91464 -16.146414,0.55319 z m 10.566917,-2.93008 c 0.09099,-0.3794 0.221563,-0.46031 0.745527,-0.46207 0.688202,-0.002 1.157139,-0.21084 1.009885,-0.4491 -0.05071,-0.0821 0.632362,-0.18803 1.517961,-0.23552 1.663752,-0.0892 2.624161,-0.38844 2.624161,-0.81771 0,-0.27649 -0.293471,-0.3335 -0.446045,-0.0866 -0.05457,0.0881 -0.951238,0.21995 -1.99275,0.29285 -1.301073,0.091 -1.99397,0.22228 -2.214206,0.41943 -0.260417,0.23311 -0.596615,0.2639 -1.79261,0.16415 -0.809632,-0.0674 -1.598713,-0.17138 -1.753506,-0.23077 -0.570293,-0.21884 -0.255853,-0.43725 0.629477,-0.43725 0.501004,0 0.962191,-0.083 1.024857,-0.18438 0.0627,-0.10139 0.316457,-0.18437 0.563967,-0.18437 0.24751,0 0.450019,-0.083 0.450019,-0.18433 0,-0.33009 2.719214,-0.22313 3.255135,0.12808 0.45363,0.29722 0.489449,0.29503 0.738232,-0.0452 0.223627,-0.30585 0.28598,-0.31792 0.430874,-0.0835 0.134906,0.2183 0.216001,0.2275 0.398311,0.0452 0.125909,-0.12593 0.664694,-0.22894 1.197339,-0.22894 1.045612,0 1.957671,-0.31092 1.850725,-0.63093 -0.08869,-0.26536 -8.496246,-0.24107 -8.831463,0.0256 -0.208339,0.16567 -5.204655,0.3996 -10.373246,0.48568 -1.373425,0.0228 -1.665369,0.0792 -1.714981,0.33012 -0.0536,0.2712 0.418826,0.31662 4.558858,0.43824 3.725664,0.10941 4.618654,0.18458 4.618654,0.38866 0,0.16513 -0.208103,0.2486 -0.599172,0.24034 -0.329541,-0.008 -1.013978,0.071 -1.520968,0.17349 -0.506989,0.10231 -1.318471,0.19109 -1.803295,0.19714 -0.918527,0.0108 -1.381993,0.42779 -0.850699,0.76421 0.141527,0.0897 1.856936,0.16419 3.812029,0.16574 3.03801,0.002 3.570647,0.0443 3.664308,0.28842 0.162792,0.42422 0.676071,0.24097 0.802622,-0.28656 z m -3.290569,-3.60179 c 0.708041,-0.18349 1.861596,-0.27899 3.252913,-0.26935 1.185698,0.008 2.77803,-0.066 3.538507,-0.16521 0.760487,-0.0991 1.486407,-0.18529 1.613147,-0.19156 0.246101,-0.0123 0.323969,-0.85388 0.09213,-0.99655 -0.07606,-0.0469 -0.530892,-0.14382 -1.010764,-0.21569 -0.823591,-0.1233 -0.88276,-0.10355 -1.055502,0.35077 -0.176457,0.4641 -0.236409,0.48135 -1.673341,0.48135 -0.946594,0 -1.448752,-0.0671 -1.376384,-0.18437 0.06272,-0.10138 0.40431,-0.18435 0.759205,-0.18435 0.383223,0 0.598994,-0.075 0.53132,-0.18436 -0.0627,-0.10139 -0.274972,-0.18437 -0.471785,-0.18437 -0.196812,0 -0.357836,-0.0662 -0.357836,-0.14737 0,-0.081 0.297946,-0.1125 0.662106,-0.0701 0.36416,0.0424 0.841194,-0.0123 1.060073,-0.12192 0.21887,-0.10956 1.269062,-0.23857 2.333737,-0.28677 1.74331,-0.0788 2.467705,-0.17155 4.609002,-0.58951 0.61264,-0.1196 0.912705,-0.34551 0.918966,-0.69196 10e-4,-0.0858 -0.43271,-0.10632 -0.965052,-0.0457 -1.67163,0.19084 -8.878895,0.2219 -9.193579,0.0398 -0.171927,-0.0995 -0.445168,-0.10571 -0.645256,-0.0139 -0.413835,0.18873 -3.020275,0.24492 -3.020275,0.0651 0,-0.32765 1.378507,-0.43644 5.622973,-0.44371 4.027287,-0.008 4.684627,-0.0486 5.208173,-0.33032 1.309316,-0.70455 0.634103,-0.84762 -4.055917,-0.85942 -1.981367,-0.005 -3.456747,0.0636 -3.456747,0.16052 0,0.23756 -1.006621,0.36544 -3.779384,0.4801 -1.318173,0.0546 -3.047193,0.19383 -3.842266,0.30958 -1.122565,0.16343 -1.646239,0.15901 -2.343546,-0.0198 -0.924053,-0.23682 -1.280765,-0.16924 -1.280765,0.24267 0,0.44583 1.823814,0.6974 4.590833,0.63322 1.908707,-0.0441 2.676035,-5.7e-4 2.729698,0.15401 0.09437,0.27247 -1.859063,0.451 -5.430199,0.49629 -1.444566,0.0182 -2.642504,0.073 -2.662083,0.1216 -0.01958,0.0486 0.05119,0.24341 0.157249,0.43295 0.18356,0.32799 0.489382,0.34132 6.349284,0.27654 3.38604,-0.0375 5.928313,-0.0418 5.64949,-0.009 -0.318116,0.0367 -0.686787,0.29412 -0.98977,0.69135 -0.443891,0.58199 -0.562308,0.63302 -1.46844,0.63302 -0.796928,0 -1.023389,-0.0705 -1.182944,-0.36872 -0.175861,-0.3286 -0.386017,-0.36871 -1.931386,-0.36871 -0.957167,0 -1.785101,0.0826 -1.847994,0.18435 -0.06776,0.10972 -1.235486,0.18436 -2.881977,0.18436 -2.537195,0 -2.76281,0.0268 -2.705359,0.32262 0.05707,0.29378 0.39229,0.32407 3.746809,0.33861 3.027546,0.0123 3.782699,0.0695 4.237207,0.31525 0.689114,0.37288 0.644103,0.3722 1.965676,0.0298 z M 78.89966,149.1386 c 0.533125,-0.27299 0.391862,-0.70532 -0.230461,-0.70532 -0.304187,0 -0.553075,0.083 -0.553075,0.18437 0,0.10139 -0.207402,0.18436 -0.460892,0.18436 -0.333015,0 -0.460901,0.0991 -0.460901,0.35713 0,0.30866 0.0938,0.34271 0.691342,0.25089 0.380249,-0.0585 0.836529,-0.18057 1.013987,-0.27143 z m -3.364575,-4.76023 c 0.354897,-0.0839 1.115373,-0.20645 1.689963,-0.27244 0.646321,-0.0742 1.083215,-0.22038 1.145734,-0.38328 0.130308,-0.33957 -0.461049,-0.48351 -1.545183,-0.37614 -0.45629,0.0452 -1.845903,0.14182 -3.088026,0.21474 -2.227937,0.1307 -2.258414,0.12716 -2.258414,-0.2631 0,-0.29912 0.112453,-0.39566 0.460902,-0.39566 0.531862,0 0.570164,-0.10139 0.184072,-0.48753 -0.417329,-0.41733 -0.900644,-0.2277 -1.0944,0.42938 -0.102036,0.34589 -0.328789,0.6282 -0.553084,0.68845 -0.679178,0.18242 -4.159563,0.11775 -4.159563,-0.0772 0,-0.10525 0.549078,-0.18437 1.278519,-0.18437 1.393322,0 2.296355,-0.24481 2.180884,-0.59122 -0.07826,-0.2348 -4.407701,-0.27968 -5.121615,-0.0531 -0.625575,0.19855 -0.439722,0.64431 0.268631,0.64431 0.67736,0 1.04308,0.31394 0.64926,0.55733 -0.131157,0.081 -0.598084,0.20131 -1.037599,0.26723 -1.219721,0.1829 -0.953767,0.4414 0.537491,0.52242 2.025615,0.11003 9.728996,-0.0665 10.462428,-0.23983 z m 0.737441,-3.70224 c 2.623628,-0.24218 4.682132,-0.49868 5.899515,-0.73508 0.557686,-0.10833 1.428794,-0.24059 1.935781,-0.29396 0.506989,-0.0532 1.000622,-0.17239 1.096936,-0.26443 0.09631,-0.092 0.365966,-0.16738 0.599181,-0.16738 0.347432,0 0.424021,-0.0991 0.424021,-0.54846 0,-0.50957 -0.03873,-0.54072 -0.546295,-0.43921 -0.30045,0.06 -0.756752,0.0565 -1.013987,-0.008 -0.388617,-0.0975 -0.467673,-0.22588 -0.467673,-0.75914 0,-0.77356 0.238183,-0.81239 0.826762,-0.13472 0.432721,0.49819 0.445086,0.50063 0.711815,0.14089 0.183439,-0.24736 0.217112,-0.46765 0.103918,-0.67922 -0.272664,-0.50949 -0.193586,-0.83073 0.19739,-0.80194 0.200739,0.0154 0.421956,0.0839 0.491632,0.15355 0.06975,0.0697 0.486152,0.1267 0.925546,0.1267 0.439394,0 0.7989,0.083 0.7989,0.18435 0,0.10138 0.20251,0.18436 0.45002,0.18436 0.2475,0 0.5013,-0.083 0.56395,-0.18436 0.0627,-0.10139 0.25423,-0.18699 0.4257,-0.19022 0.46347,-0.008 1.0176,-0.49211 0.90389,-0.78846 -0.0736,-0.19179 -0.28286,-0.22701 -0.80666,-0.1358 -0.38901,0.0677 -0.88953,0.0446 -1.11226,-0.0516 -0.773451,-0.33382 -11.854967,1.13489 -11.854967,1.57121 0,0.0944 0.248888,0.38106 0.553086,0.63703 0.931841,0.7841 0.667199,1.68059 -0.71243,2.4134 -0.557958,0.29636 -1.654372,0.2969 -2.291323,5.9e-4 -0.627248,-0.29133 -0.618526,-0.45598 0.06395,-1.20638 0.533553,-0.58666 0.911809,-0.64553 0.911809,-0.14197 0,0.13364 0.115153,0.33865 0.255909,0.45546 0.399594,0.33163 1.467973,-0.62376 1.218594,-1.08973 -0.42336,-0.79107 -0.616073,-0.85282 -2.229022,-0.71419 -0.847088,0.0728 -1.570026,0.22194 -1.606522,0.33143 -0.04497,0.13472 -1.43015,0.19906 -4.291281,0.19906 -3.55567,0 -4.224916,0.0421 -4.224916,0.26566 0,0.14614 0.08836,0.32027 0.19637,0.38703 0.129674,0.0801 0.0954,0.23295 -0.100925,0.44986 -0.27351,0.30223 -0.273416,0.35239 0.001,0.62695 0.164199,0.16417 0.345007,0.29846 0.401843,0.29846 0.294786,0 1.345204,-0.80352 1.345204,-1.02902 0,-0.14383 0.124443,-0.2615 0.27654,-0.2615 0.170286,0 0.276538,0.17292 0.276538,0.45003 0,0.55654 0.295181,0.76232 0.659622,0.45986 0.219391,-0.18209 0.372212,-0.17599 0.758486,0.0302 0.266056,0.14198 0.698779,0.26344 0.961605,0.26977 0.262822,0.008 1.162309,0.027 1.998838,0.0461 1.79794,0.0409 2.097651,0.4033 0.333515,0.4033 -1.201627,0 -1.513953,0.15784 -1.318768,0.66647 0.115709,0.30156 1.733428,0.26726 6.00906,-0.12746 z m -19.39467,-1.12898 c 0.121681,-0.12176 0.221234,-0.61946 0.221234,-1.10618 0,-0.67686 -0.06727,-0.88491 -0.286132,-0.88491 -0.157371,0 -0.369996,0.24058 -0.472495,0.53461 -0.102499,0.29402 -0.347074,0.57664 -0.543489,0.628 -0.432548,0.11311 -0.455505,0.37191 -0.06741,0.76001 0.345033,0.34504 0.842102,0.37467 1.148298,0.0685 z m 1.696112,-0.98666 c 0,-0.58789 -0.320073,-0.73689 -0.749056,-0.34867 -0.406853,0.36821 -0.466778,1.00441 -0.12665,1.34457 0.184373,0.1844 0.294958,0.15077 0.553079,-0.16791 0.177448,-0.21912 0.32263,-0.59171 0.32263,-0.82799 z m 1.808278,0.43966 c 0.03126,-0.27043 0.259419,-0.71027 0.50699,-0.9774 0.583447,-0.62955 0.567424,-0.78036 -0.09846,-0.92661 -0.597435,-0.13117 -0.926299,-0.0123 -0.926299,0.3349 0,0.12207 -0.186664,0.30478 -0.414808,0.40603 -0.761396,0.3379 -0.333726,1.82756 0.490855,1.70975 0.261923,-0.0375 0.403016,-0.21205 0.441712,-0.54667 z m 3.340843,-1.00984 0.01296,-0.76408 -0.783531,0.23109 c -0.463684,0.13673 -0.808574,0.35829 -0.844881,0.54268 -0.09009,0.45753 0.449338,1.17939 0.93252,1.24797 0.503307,0.0713 0.665459,-0.22719 0.682935,-1.25766 z m -14.920198,0.41044 c 0,-0.62923 -0.182508,-1.02904 -0.469744,-1.02904 -0.370492,0 -0.492929,0.316 -0.358889,0.92628 0.154565,0.70373 0.828633,0.78731 0.828633,0.10278 z m 39.010362,0.14831 c 0.640815,-0.30409 0.747415,-0.61713 0.510825,-1.49996 -0.0751,-0.28009 -0.251043,-0.41483 -0.541889,-0.41483 -0.340691,0 -0.470875,0.14445 -0.622726,0.69136 -0.212621,0.76565 -0.254164,1.52098 -0.08364,1.52098 0.0608,0 0.392573,-0.13394 0.737447,-0.29755 z m -34.796445,-0.23534 c 0.161984,-0.10262 0.204186,-0.30342 0.119705,-0.56959 -0.11006,-0.34676 -0.220397,-0.39309 -0.705317,-0.2961 -0.706734,0.14136 -0.94611,0.36278 -0.800999,0.74092 0.119845,0.31228 0.969931,0.38879 1.386604,0.12469 z m 12.88931,-1.46051 c 0.04012,-0.12037 -0.05838,-0.21894 -0.218929,-0.21894 -0.160546,0 -0.291903,0.13133 -0.291903,0.29192 0,0.32556 0.396884,0.26887 0.510832,-0.073 z m 4.098173,-0.0346 c 0,-0.10139 -0.124444,-0.18437 -0.276549,-0.18437 -0.152097,0 -0.276537,0.083 -0.276537,0.18437 0,0.10139 0.124443,0.18437 0.276537,0.18437 0.152098,0 0.276549,-0.083 0.276549,-0.18437 z M 43.23522,136.59739 c 0.567003,-0.56701 -0.26912,-1.12883 -1.05446,-0.70851 -0.315489,0.16886 -0.352036,0.27542 -0.195046,0.56876 0.215307,0.4023 0.90933,0.47992 1.249506,0.13981 z m 27.87523,-1.9685 c 0.861873,-0.0966 2.64556,-0.31345 3.963734,-0.4818 1.318174,-0.16834 2.792478,-0.35202 3.276242,-0.40816 0.483752,-0.0562 0.924204,-0.17433 0.978772,-0.26262 0.05457,-0.0883 0.338305,-0.16054 0.630525,-0.16054 0.29223,0 0.582591,-0.0829 0.645267,-0.18436 0.06271,-0.10139 0.311554,-0.18435 0.553075,-0.18435 0.241521,0 0.490409,-0.083 0.553084,-0.18437 0.06271,-0.10139 0.268232,-0.18436 0.456834,-0.18436 0.18859,0 0.57777,-0.12022 0.864825,-0.26712 0.287076,-0.14691 0.667115,-0.31022 0.844574,-0.36292 0.177436,-0.0526 0.322623,-0.19293 0.322623,-0.31164 0,-0.29881 -1.757656,-0.0789 -2.321331,0.29049 -0.237097,0.15537 -0.719494,0.28247 -1.071967,0.28247 -0.352475,0 -0.696602,0.0901 -0.764735,0.20043 -0.06813,0.11018 -0.281889,0.1591 -0.475019,0.10864 -0.193129,-0.0506 -0.468216,0.0253 -0.611284,0.16829 -0.14307,0.14305 -0.427087,0.26013 -0.63113,0.26013 -0.204064,0 -0.415661,0.0722 -0.470219,0.16053 -0.05457,0.0883 -1.015667,0.19828 -2.135787,0.24442 -1.20335,0.0495 -2.125133,0.17247 -2.253042,0.30039 -0.128703,0.1287 -0.799415,0.21646 -1.654486,0.21646 -0.835756,0 -1.437996,0.0772 -1.437996,0.18437 0,0.10138 -0.451397,0.18435 -1.003103,0.18435 -0.551703,0 -1.054371,0.083 -1.117039,0.18436 -0.223987,0.36242 -0.614462,0.1986 -0.50691,-0.2127 0.102206,-0.39084 0.07967,-0.39492 -1.446051,-0.26069 -0.852434,0.075 -2.662875,0.15 -4.023201,0.16659 -1.79374,0.0221 -2.4945,0.0935 -2.550391,0.26094 -0.04239,0.12685 0.116542,0.31211 0.353185,0.41161 0.516005,0.21702 8.734631,0.0988 11.030951,-0.15879 z m 12.259933,-0.75805 c 0.912581,-0.12607 1.825162,-0.29417 2.027953,-0.37353 0.694424,-0.2718 1.474988,-0.52031 1.981881,-0.63096 0.27884,-0.061 0.506986,-0.19207 0.506986,-0.29153 0,-0.0994 0.180137,-0.18084 0.400285,-0.18084 0.41741,0 1.07459,-0.48126 1.07459,-0.78696 0,-0.36444 -2.287737,0.15542 -3.546422,0.80589 -0.17607,0.091 -0.482291,0.16542 -0.68047,0.16542 -0.198191,0 -0.411624,0.083 -0.474279,0.18436 -0.0627,0.10139 -0.4729,0.18437 -0.911611,0.18437 -0.438708,0 -1.035292,0.12392 -1.325728,0.27526 -0.290434,0.15138 -0.920687,0.3278 -1.400559,0.39205 -0.479871,0.0642 -0.976968,0.24266 -1.104656,0.39652 -0.204127,0.24595 -0.109876,0.26824 0.780312,0.18446 0.556862,-0.0525 1.759147,-0.19844 2.671718,-0.32451 z m -14.979247,-0.54996 c 0.538038,-0.45262 0.391624,-0.74354 -0.36872,-0.7326 -1.070453,0.0154 -3.550172,0.29856 -3.6708,0.41918 -0.05943,0.0594 -0.05619,0.24319 0.0073,0.40836 0.09795,0.25526 0.384945,0.29101 1.912465,0.23841 1.238003,-0.0426 1.897613,-0.14645 2.119853,-0.33335 z m -6.683048,-0.18947 c 0,-0.10139 -0.124443,-0.18435 -0.276539,-0.18435 -0.152097,0 -0.276541,0.083 -0.276541,0.18435 0,0.10139 0.124444,0.18436 0.276541,0.18436 0.152097,0 0.276539,-0.0829 0.276539,-0.18436 z m 11.706852,-0.36872 c 0.0627,-0.10139 0.601925,-0.18436 1.198341,-0.18436 0.596417,0 1.130262,-0.0742 1.186313,-0.16489 0.05603,-0.0907 0.413522,-0.21193 0.794407,-0.26946 1.124763,-0.16986 2.11565,-0.30833 2.950915,-0.4124 0.494834,-0.0617 0.783527,-0.1911 0.783527,-0.35128 0,-0.17829 -0.178043,-0.23191 -0.599172,-0.18046 -1.859458,0.22715 -2.802463,0.30279 -4.383391,0.35152 -0.96594,0.0298 -1.960833,0.11914 -2.210868,0.19844 -0.40696,0.12917 -0.428235,0.1125 -0.203032,-0.15884 0.153055,-0.18443 0.527252,-0.30315 0.955558,-0.30315 0.387187,0 0.755261,-0.083 0.817926,-0.18436 0.06271,-0.10139 0.561213,-0.18437 1.107881,-0.18437 0.64003,0 1.046436,-0.0887 1.141363,-0.24947 0.138378,-0.23415 0.619213,-0.34634 2.636296,-0.61507 0.76227,-0.10154 1.096059,-0.30014 1.10333,-0.65642 0.0042,-0.20703 -0.87961,-0.16674 -1.011149,0.0461 -0.0627,0.10138 -0.601914,0.18436 -1.198351,0.18436 -0.596417,0 -1.135656,0.083 -1.198331,0.18435 -0.06605,0.10695 -1.077353,0.18437 -2.407567,0.18437 -1.406161,0 -2.293608,0.0713 -2.293608,0.18435 0,0.10139 -0.315256,0.18436 -0.700566,0.18436 -0.385321,0 -0.792144,0.0917 -0.904078,0.2035 -0.141033,0.14105 -1.595315,0.18349 -4.738077,0.13827 -4.220597,-0.0606 -4.534576,-0.0429 -4.534548,0.25738 2e-5,0.21827 0.144165,0.32265 0.445567,0.32265 0.245044,0 0.474983,0.0884 0.510976,0.19631 0.04134,0.12407 0.855697,0.19537 2.212887,0.19373 1.652847,-0.002 2.198516,0.059 2.369176,0.26458 0.289953,0.34937 1.029673,0.34343 1.165053,-0.009 0.08545,-0.22268 0.502157,-0.27652 2.139867,-0.27652 1.118554,0 2.033743,0.0728 2.033743,0.16177 0,0.28256 -0.439095,0.53859 -1.152255,0.67186 -0.380238,0.071 -0.691343,0.20293 -0.691343,0.29304 0,0.22677 2.532395,0.20734 2.67321,-0.0205 z m -10.639243,-0.3025 c 1.090851,-0.29222 -0.492037,-0.93241 -2.17377,-0.87919 -1.323632,0.042 -1.290518,0.033 -1.290518,0.34375 0,0.24977 0.169351,0.30413 1.65924,0.5327 0.78159,0.1199 1.364393,0.12083 1.805048,0.003 z m -25.002646,-1.22623 c 0.602681,-0.45847 0.811995,-0.75163 0.855633,-1.19834 0.03178,-0.32528 -0.02137,-0.5914 -0.1181,-0.5914 -0.470962,0 -0.563785,-2.63261 -0.142808,-4.05019 0.273797,-0.92199 0.270935,-0.96842 -0.06512,-1.05631 -0.193327,-0.0505 -0.39612,-0.20817 -0.45065,-0.35029 -0.199199,-0.5191 -0.47944,-0.23907 -0.47944,0.47907 0,0.40559 -0.06222,0.73808 -0.138271,0.73889 -0.263755,0.003 -0.599168,0.99787 -0.599168,1.77765 0,1.08866 0.356265,2.67639 0.684092,3.04874 0.282355,0.32069 0.188026,0.70297 -0.173466,0.70297 -0.297213,0 -0.879347,0.56811 -0.879347,0.85818 0,0.43154 0.680639,0.26937 1.50664,-0.35897 z m 44.156207,0.0193 c -0.05884,-0.14707 -0.102561,-0.1034 -0.111388,0.11141 -0.0083,0.19434 0.03559,0.30324 0.09682,0.24196 0.06125,-0.0613 0.06782,-0.22026 0.01466,-0.35334 z m 4.014846,0.1549 c 0.244643,-0.1789 0.278038,-0.28654 0.119289,-0.38461 -0.228624,-0.14136 -0.75729,0.18765 -0.75729,0.4712 0,0.23288 0.246883,0.19935 0.63794,-0.0866 z m -4.509502,-0.40776 c 0,-0.15808 -0.08431,-0.2353 -0.18737,-0.17162 -0.103085,0.0636 -0.139628,0.19303 -0.08128,0.28742 0.158031,0.25571 0.268659,0.20804 0.268659,-0.11574 z m -40.006109,-0.34697 c 0,-0.14614 -0.09018,-0.32142 -0.200424,-0.38953 -0.260322,-0.1609 -0.615652,0.19444 -0.454766,0.45476 0.180714,0.29239 0.65519,0.24515 0.65519,-0.0653 z m 41.715769,-0.17557 c 0.05842,0.0583 0.279542,0.0511 0.491441,-0.016 0.416445,-0.13225 0.3461,-0.46447 -0.09829,-0.46447 -0.422224,0 -1.191779,0.57081 -1.059072,0.78553 0.0746,0.12068 0.200819,0.0799 0.339276,-0.10941 0.121296,-0.16588 0.268316,-0.25382 0.326683,-0.19544 z m -16.734995,-0.29623 c 0.06781,-0.10972 1.24762,-0.18483 2.914552,-0.18549 2.135891,-5.9e-4 2.927148,-0.0671 3.333784,-0.27921 0.353466,-0.18434 1.363676,-0.31789 2.997045,-0.39622 1.717713,-0.0824 2.526176,-0.19324 2.66961,-0.36607 0.113147,-0.13627 0.465201,-0.25053 0.782325,-0.25377 0.674712,-0.008 1.22186,-0.36678 1.22186,-0.80377 0,-0.46819 -0.412751,-0.53449 -1.787675,-0.28711 -0.689839,0.12407 -1.732352,0.26317 -2.316677,0.30898 -0.802284,0.063 -1.108559,0.16956 -1.250917,0.43553 -0.129875,0.2427 -0.387155,0.35224 -0.827275,0.35224 -0.351326,0 -0.638776,0.083 -0.638776,0.18436 0,0.10139 -0.356733,0.18435 -0.79275,0.18435 -0.436007,0 -0.888782,0.0961 -1.006162,0.21344 -0.16165,0.16165 -0.282389,0.15617 -0.497774,-0.0225 -0.193881,-0.16091 -0.357671,-0.1773 -0.514804,-0.0515 -0.136743,0.10941 -1.780005,0.18555 -4.041459,0.18716 -2.096054,0.001 -4.315288,0.0613 -4.931629,0.13271 -0.79496,0.0923 -1.120618,0.0688 -1.120618,-0.0812 0,-0.14213 -0.377249,-0.1933 -1.152248,-0.15639 -0.876921,0.0418 -1.15225,0.12099 -1.15225,0.33143 0,0.22962 0.474633,0.29218 2.796808,0.36872 1.538244,0.0506 2.858723,0.1544 2.934397,0.23046 0.205514,0.20653 2.248954,0.16697 2.380633,-0.0461 z m -21.676344,-0.8757 c 1.628156,-1.14586 5.176127,-4.37761 5.176127,-4.71482 0,-0.10324 0.120493,-0.32092 0.267761,-0.48365 0.147267,-0.16273 0.317254,-0.62555 0.377744,-1.02849 0.08997,-0.59927 0.02981,-0.83055 -0.330462,-1.27066 -0.5519,-0.67417 -1.052482,-0.55255 -1.052482,0.25571 0,0.30737 -0.07259,0.55887 -0.161315,0.55887 -0.08873,0 -0.209378,0.22815 -0.268119,0.50699 -0.110308,0.52365 -0.870898,1.52095 -1.159932,1.52095 -0.09008,0 -0.453747,0.3702 -0.808168,0.82267 -0.354423,0.45244 -0.747476,0.82576 -0.873454,0.8296 -0.298841,0.009 -1.15295,0.7539 -1.156075,1.00812 -0.0014,0.10849 -0.503239,0.43769 -1.115346,0.73165 -0.777706,0.37347 -1.082155,0.61462 -1.010771,0.80066 0.05619,0.14644 0.152282,0.4659 0.213533,0.70997 0.161164,0.64214 0.744768,0.56612 1.900959,-0.24757 z m 7.342358,-0.41279 c 0.579976,-0.35361 0.771842,-0.79535 0.4357,-1.00309 -0.08991,-0.0556 -0.265993,0.0225 -0.391296,0.17347 -0.125308,0.15092 -0.32625,0.27452 -0.446553,0.27452 -0.377472,0 -0.904643,0.48738 -0.767386,0.70948 0.187012,0.30257 0.484452,0.26332 1.169535,-0.15438 z m 12.279688,0.0901 c 0.210263,-0.21026 0.734808,-0.27654 2.188618,-0.27654 1.051641,0 1.99089,0.0719 2.087217,0.15998 0.349516,0.31926 1.332888,0.38762 1.564341,0.1088 0.153116,-0.18452 0.595279,-0.26873 1.410899,-0.26873 0.653333,0 1.367234,-0.096 1.586459,-0.2133 0.389544,-0.20849 0.390317,-0.21654 0.03401,-0.35577 -0.200539,-0.0784 -2.214635,-0.1483 -4.475771,-0.15542 -3.341896,-0.0108 -4.212865,0.0398 -4.65468,0.26812 -0.403817,0.20882 -0.921649,0.25902 -2.014694,0.1953 -1.543928,-0.09 -2.013513,0.10247 -1.380149,0.56559 0.49392,0.36115 3.286034,0.33978 3.653791,-0.0279 z m -10.389999,-0.9218 c 0.126233,-0.15215 0.387876,-0.27654 0.58144,-0.27654 0.193563,0 0.398474,-0.12129 0.455359,-0.26952 0.05688,-0.1483 0.261684,-0.31975 0.455111,-0.38115 0.561013,-0.17805 0.421445,-0.51243 -0.155301,-0.37208 -0.724704,0.17639 -1.889689,0.979 -1.889689,1.30192 0,0.35194 0.259844,0.3507 0.55308,-0.003 z m 16.826842,-0.46422 c 4.337222,-0.1737 5.130869,-0.28896 5.503354,-0.79924 0.06322,-0.0864 0.285281,-0.066 0.493634,0.0454 0.208343,0.11158 0.48852,0.16849 0.622615,0.1267 0.134104,-0.042 0.471952,-0.12608 0.750806,-0.18722 1.032183,-0.22619 0.479224,-0.47279 -1.060073,-0.47279 -0.921805,0 -1.567063,0.0759 -1.567063,0.18437 0,0.10601 -0.57151,0.18435 -1.345833,0.18435 -0.740204,0 -1.431829,0.0859 -1.536949,0.19112 -0.131928,0.13194 -0.428422,0.0645 -0.95728,-0.2178 l -0.766132,-0.40895 -0.428099,0.40217 c -0.492412,0.4626 -1.680685,0.54115 -2.201836,0.14552 -0.498163,-0.37816 -0.392255,-0.48081 0.49611,-0.48081 0.450306,0 0.861978,-0.0699 0.914825,-0.15546 0.0529,-0.0855 1.758677,-0.21264 3.790731,-0.28251 2.032055,-0.0699 3.818393,-0.17451 3.96965,-0.23256 0.979431,-0.37585 -1.860146,-0.79504 -2.949716,-0.43545 -0.496512,0.16388 -0.733474,0.16915 -0.882917,0.0198 -0.112345,-0.11235 -0.643963,-0.20426 -1.181366,-0.20426 -0.537414,0 -0.977114,-0.0755 -0.977114,-0.16782 0,-0.0923 1.26518,-0.19656 2.8115,-0.2317 2.736908,-0.0622 3.81286,-0.2796 3.543199,-0.71589 -0.05958,-0.0963 -1.088702,-0.17512 -2.287075,-0.17512 -1.711862,0 -2.228064,0.0593 -2.40838,0.27654 -0.215802,0.26005 -1.106159,0.39867 -1.106159,0.17225 0,-0.0574 0.08586,-0.26478 0.190843,-0.4609 0.165386,-0.30903 0.397049,-0.3566 1.736351,-0.3566 1.703191,0 2.128722,-0.0961 2.128722,-0.48065 0,-0.30793 -0.260625,-0.32762 -0.76489,-0.0577 -0.287493,0.15385 -0.445001,0.13287 -0.693753,-0.0921 -0.246572,-0.22315 -0.738651,-0.29123 -2.104798,-0.29123 -0.980651,0 -1.782989,-0.0648 -1.782989,-0.14429 0,-0.0795 0.561807,-0.1125 1.248465,-0.0738 1.358531,0.0769 2.892665,-0.23237 2.700025,-0.54405 -0.06521,-0.10556 -0.288139,-0.14753 -0.495417,-0.0932 -0.430999,0.11265 -3.940237,-0.16633 -4.423364,-0.35171 -0.176121,-0.0676 -0.320234,-0.20637 -0.320234,-0.30845 0,-0.18923 0.2487,-0.15756 1.973208,0.25123 1.127517,0.26731 2.3218,0.0576 2.413648,-0.42413 0.04769,-0.24995 -0.15381,-0.32548 -1.104198,-0.4139 -2.882835,-0.26823 -6.140236,-0.0332 -6.140236,0.44309 0,0.17724 0.215157,0.29728 0.59917,0.33431 0.329543,0.0318 0.59917,0.14259 0.59917,0.24631 0,0.10848 -0.330879,0.16223 -0.779566,0.12654 -0.625397,-0.0497 -0.792138,0.002 -0.843137,0.26069 -0.05444,0.27628 0.08404,0.32264 0.963924,0.32264 1.209586,0 1.334245,0.262 0.275567,0.5792 -0.598917,0.17943 -0.781053,0.17816 -0.895043,-0.008 -0.203796,-0.32975 -1.394965,-0.18926 -1.394965,0.16452 0,0.21046 0.275328,0.28965 1.15225,0.33143 1.336494,0.0636 1.58018,0.418 0.276539,0.40211 -1.104418,-0.0139 -2.116076,0.22216 -2.213899,0.51563 -0.05585,0.16757 0.379841,0.2257 1.691548,0.2257 1.054948,0 1.766782,0.0742 1.766782,0.18437 0,0.10139 -0.202507,0.18435 -0.450019,0.18435 -0.247511,0 -0.508124,0.094 -0.579139,0.20893 -0.08775,0.14198 -0.606494,0.17619 -1.618872,0.10679 -1.537501,-0.1054 -2.856649,0.20088 -2.60676,0.60521 0.065,0.10525 0.174678,0.15897 0.24372,0.11945 0.06904,-0.0395 1.494403,-0.12547 3.16747,-0.19104 2.242087,-0.088 2.954719,-0.066 2.710237,0.083 -0.182435,0.11126 -1.572048,0.24993 -3.088029,0.30821 -1.51598,0.0582 -2.756328,0.1597 -2.756328,0.22543 0,0.42158 0.584844,0.56195 2.341373,0.56195 1.044398,0 1.898907,0.0733 1.898907,0.16293 0,0.0897 -0.80888,0.19579 -1.797511,0.23599 -1.796199,0.073 -2.358095,0.21245 -2.158355,0.53562 0.134382,0.21746 1.958013,0.21364 7.693151,-0.016 z m -2.041403,-3.08471 c 0.45307,-0.92988 0.613905,-1.15224 0.833452,-1.15224 0.141804,0 0.204303,0.0866 0.138887,0.19244 -0.166575,0.26952 0.257632,0.72937 0.672824,0.72937 0.190386,0 0.346151,0.0829 0.346151,0.18435 0,0.10139 -0.463208,0.18435 -1.029345,0.18435 -0.566141,0 -0.999029,-0.0622 -0.961975,-0.13827 z m 1.671222,-1.10017 c 0.280241,-0.0424 0.695047,-0.0412 0.921804,0.002 0.226748,0.0437 -0.0031,0.0784 -0.509534,0.077 -0.506987,-10e-4 -0.692511,-0.0372 -0.41227,-0.0796 z m -1.376017,-1.19508 c 0.172068,-0.1721 0.270401,-0.1721 0.442464,0 0.172065,0.17205 0.122915,0.22121 -0.221231,0.22121 -0.34414,0 -0.3933,-0.0491 -0.221233,-0.22121 z m -17.246875,4.60122 c 0.380243,-0.10895 0.691351,-0.2615 0.691351,-0.33898 0,-0.0775 0.311107,-0.24248 0.69135,-0.36666 1.196654,-0.39079 1.939803,-0.87427 2.85049,-1.85452 0.871839,-0.93844 1.101124,-1.53014 0.652349,-1.68352 -0.246619,-0.0843 -2.35059,1.31133 -2.35059,1.55921 0,0.0813 -0.124444,0.14815 -0.276539,0.14815 -0.152098,0 -0.276541,0.0829 -0.276541,0.18435 0,0.10139 -0.1079,0.18435 -0.239786,0.18435 -0.339171,0 -1.231935,0.43361 -1.233655,0.59919 -6.98e-4,0.0761 -0.188103,0.13951 -0.416248,0.14105 -0.922329,0.008 -1.841456,0.48793 -2.098853,1.1001 -0.138456,0.32927 -0.251736,0.63794 -0.251736,0.68592 0,0.11327 1.372202,-0.10463 2.258408,-0.35855 z m 10.355169,-0.0673 c 0.316836,-0.1216 0.407993,-0.80988 0.107252,-0.80988 -0.101388,0 -0.184359,0.083 -0.184359,0.18435 0,0.10139 -0.165925,0.18437 -0.368721,0.18437 -0.408041,0 -0.499543,0.28519 -0.13827,0.43098 0.126743,0.0511 0.244407,0.0995 0.261462,0.10756 0.01705,0.008 0.162241,-0.0358 0.322628,-0.0974 z m -17.950861,-0.35373 c 0.299159,-0.1547 0.543924,-0.36209 0.543924,-0.46089 0,-0.0988 0.103702,-0.17983 0.230451,-0.18006 0.317039,-4.6e-4 1.428789,-0.97289 1.428789,-1.24957 0,-0.34949 -0.624863,-0.26498 -1.063687,0.14383 -0.217677,0.2028 -0.482206,0.36871 -0.587845,0.36871 -0.105632,0 -0.192068,0.0662 -0.192068,0.14738 0,0.081 -0.290367,0.25231 -0.645259,0.38066 -0.496923,0.17969 -0.645261,0.33654 -0.645261,0.68228 0,0.52209 0.182196,0.55488 0.930956,0.16769 z m -0.930956,-1.22265 c 0,-0.0926 -0.168247,-0.0782 -0.373882,0.0318 -0.205637,0.11002 -0.322693,0.28292 -0.260127,0.38416 0.126079,0.20399 0.634009,-0.12932 0.634009,-0.41599 z m 39.624295,0.37223 c 1.141801,-0.36406 1.487985,-0.57981 1.487985,-0.92741 0,-0.23499 -0.136758,-0.33756 -0.450021,-0.33756 -0.247521,0 -0.501291,0.0829 -0.563967,0.18436 -0.06271,0.10139 -0.34756,0.18435 -0.633102,0.18435 -1.028354,0 -1.671399,0.21694 -1.671399,0.56389 0,0.22222 0.169111,0.35904 0.506998,0.41022 0.278843,0.0423 0.542578,0.0892 0.586078,0.10448 0.0435,0.0154 0.375344,-0.0668 0.737428,-0.18228 z m -22.736482,-1.30147 c 0.316176,-0.61143 0.331776,-1.29053 0.03644,-1.58586 -0.121681,-0.12176 -0.548082,-0.22124 -0.947566,-0.22124 -0.462464,0 -0.807213,-0.11064 -0.948964,-0.30447 -0.14378,-0.19663 -0.265691,-0.23481 -0.344188,-0.10787 -0.06685,0.10818 0.09378,0.45259 0.356967,0.76536 l 0.478518,0.5687 h -0.440415 c -0.483616,0 -0.882879,0.30847 -0.882879,0.68213 0,0.14398 0.223214,0.23967 0.558865,0.23967 0.365532,0 0.598653,0.11157 0.673878,0.32262 0.248809,0.69796 0.456795,0.81326 0.840523,0.46598 0.198638,-0.17976 0.477111,-0.55106 0.618827,-0.8251 z m -16.561342,-0.29767 c 0.04012,-0.12037 -0.05838,-0.21893 -0.218927,-0.21893 -0.160548,0 -0.291903,0.13133 -0.291903,0.29191 0,0.32557 0.396882,0.26889 0.51083,-0.073 z m 38.757845,-0.65149 c 0,-1.00079 0.416402,-2.14846 0.779519,-2.14846 0.109674,0 0.06219,-0.1517 -0.105694,-0.33716 -0.377797,-0.41747 -0.384996,-0.65754 -0.02858,-0.95337 0.152097,-0.12624 0.276536,-0.47401 0.276536,-0.77284 0,-0.45798 -0.06511,-0.53406 -0.414805,-0.4844 -0.333192,0.0472 -0.426074,0.19493 -0.472035,0.75025 -0.06312,0.7624 -0.403672,0.96172 -0.403672,0.23623 0,-0.33975 -0.07409,-0.42666 -0.292366,-0.34291 -0.243097,0.0932 -0.277049,0.34865 -0.201424,1.51519 0.04998,0.77164 0.14898,1.54816 0.219891,1.72561 0.07096,0.17744 0.05373,0.32264 -0.03829,0.32264 -0.414607,0 -0.609678,-0.5204 -0.609678,-1.62651 0,-1.04899 -0.03265,-1.15697 -0.285989,-0.94668 -0.223273,0.18529 -0.259666,0.44824 -0.165909,1.19862 0.07731,0.61905 0.04863,1.00545 -0.08065,1.08536 -0.302653,0.18703 0.315109,1.02664 0.755395,1.02664 0.20974,0 0.40576,0.15673 0.461204,0.36872 0.05301,0.2028 0.211191,0.36873 0.351463,0.36873 0.185345,0 0.255044,-0.26937 0.255044,-0.98566 z m -43.357754,0.0946 c 0.03531,-0.24009 -0.06042,-0.44702 -0.2384,-0.51532 -0.413523,-0.15869 -0.530775,0.0165 -0.389041,0.5812 0.140832,0.56112 0.541388,0.51907 0.627441,-0.0659 z m 3.351638,0.15355 c 0,-0.20279 -0.07807,-0.36872 -0.173478,-0.36872 -0.247476,0 -0.421857,0.33557 -0.287422,0.55308 0.192679,0.31178 0.4609,0.20448 0.4609,-0.18436 z m -2.765398,-1.37181 c 0,-0.14614 -0.08296,-0.31694 -0.184361,-0.37959 -0.101403,-0.0627 -0.184359,0.0569 -0.184359,0.26564 0,0.2088 0.08296,0.37961 0.184359,0.37961 0.101388,0 0.184361,-0.1196 0.184361,-0.26566 z m 12.1426,-0.34929 c 0.361995,-0.43618 2.035028,-1.18463 3.341266,-1.49475 0.570592,-0.13549 0.848044,-0.3044 0.894277,-0.54444 0.06136,-0.31862 -0.01637,-0.33708 -0.91943,-0.21829 -0.54255,0.0713 -1.06527,0.20761 -1.161598,0.30275 -0.09633,0.0952 -0.394689,0.17301 -0.663025,0.17301 -1.011108,0 -2.203772,0.92016 -2.203772,1.70026 0,0.38547 0.420099,0.43351 0.712282,0.0815 z m 9.486396,-0.12932 c 0.377487,-0.29692 0.445754,-0.46081 0.326375,-0.78352 -0.195993,-0.52983 -0.6451,-0.52562 -0.720708,0.008 -0.06736,0.47426 -0.312023,0.54645 -0.468657,0.13827 -0.18029,-0.46982 -0.802078,-0.32865 -0.938016,0.21296 -0.212612,0.84713 0.923727,1.11563 1.801006,0.42556 z M 40.794166,121.1655 c -0.20148,-0.326 -0.656193,-0.23181 -0.656193,0.13595 0,0.1859 0.05728,0.39528 0.127298,0.46529 0.188129,0.18813 0.674821,-0.36513 0.528898,-0.60123 z m 17.323893,-0.0258 c 0.16927,-0.27391 -0.257685,-0.72696 -0.571549,-0.60651 -0.404104,0.15504 -0.32772,0.79893 0.09478,0.79893 0.196812,0 0.411359,-0.0866 0.476772,-0.19242 z m -16.428106,-0.10381 c 0.390319,-0.14985 0.413765,-1.54733 0.02596,-1.54733 -0.337313,0 -0.408794,0.12206 -0.56774,0.96929 -0.131727,0.70216 -0.03912,0.80095 0.54178,0.57804 z m 1.52296,-0.47821 c 0.494885,-0.17895 0.612259,-0.32032 0.612259,-0.73744 0,-0.3358 -0.09659,-0.51603 -0.27654,-0.51603 -0.153641,0 -0.276541,0.16387 -0.276541,0.3687 0,0.27041 -0.1229,0.36873 -0.460898,0.36873 -0.337994,0 -0.460902,0.0983 -0.460902,0.36871 0,0.43137 0.05236,0.44032 0.862622,0.14738 z m 15.911312,-0.7465 c -0.0015,-0.53233 -0.06508,-1.06576 -0.141171,-1.18541 -0.210063,-0.3303 -2.601037,-0.70619 -2.857929,-0.44931 -0.11327,0.11327 -0.770088,0.20593 -1.459594,0.20593 -0.712859,0 -1.253647,0.0795 -1.253647,0.18437 0,0.10139 -0.09116,0.18437 -0.202587,0.18437 -0.435899,0 -1.456653,0.60988 -1.456653,0.87034 0,0.19091 0.09887,0.2337 0.322631,0.13966 0.177446,-0.0745 0.510518,-0.17632 0.740163,-0.22611 0.229646,-0.0498 0.462685,-0.16353 0.51787,-0.25282 0.05518,-0.0893 0.968594,-0.16234 2.029798,-0.16234 1.857869,0 1.935599,0.0161 2.094863,0.43502 0.176341,0.46381 1.05585,1.20867 1.438623,1.21837 0.156186,0.005 0.229541,-0.30608 0.227627,-0.96206 z m -8.190632,0.52206 c 0.196668,-0.14383 0.312603,-0.30643 0.257636,-0.3614 -0.184067,-0.18406 -0.91346,0.10972 -0.91346,0.36785 0,0.3254 0.20474,0.32341 0.655824,-0.008 z m 21.052648,-1.35162 c 0.04497,-0.13519 -0.08201,-0.23045 -0.307358,-0.23045 -0.226455,0 -0.384078,0.11898 -0.384078,0.29005 0,0.33884 0.575287,0.28925 0.691436,-0.0596 z m -33.580485,-0.35216 c 0.516433,-0.33839 0.544938,-0.4849 0.156986,-0.80687 -0.237996,-0.19753 -0.330461,-0.17098 -0.563535,0.16178 -0.153347,0.21895 -0.440042,0.39809 -0.637088,0.39809 -0.241499,0 -0.358266,0.12669 -0.358266,0.3887 0,0.32671 0.07657,0.36948 0.480103,0.2682 0.264056,-0.0662 0.678866,-0.25073 0.9218,-0.4099 z m 31.229814,0.31737 c 0,-0.20083 -1.400565,-0.44258 -2.030751,-0.35053 -0.236076,0.0344 -0.463383,0.16638 -0.505126,0.29314 -0.05591,0.16982 0.267712,0.23045 1.22999,0.23045 0.718235,0 1.305887,-0.0778 1.305887,-0.17306 z m 4.12837,-0.67164 c 0.06156,-0.16039 0.111913,-0.65257 0.111913,-1.09373 0,-0.65591 -0.07137,-0.82479 -0.391748,-0.92645 -0.464564,-0.14738 -0.707535,0.15401 -0.711605,0.88301 -10e-4,0.27884 -0.08316,0.50699 -0.181391,0.50699 -0.310135,0 0.02827,0.57695 0.434671,0.74118 0.554003,0.22386 0.613069,0.21497 0.73816,-0.11095 z m -3.759649,-0.1817 c 0,-0.20507 0.107051,-0.25499 0.368718,-0.17194 0.249911,0.0793 0.368721,0.033 0.368721,-0.14336 0,-0.14321 -0.165929,-0.41055 -0.368721,-0.59409 -0.2028,-0.18351 -0.368718,-0.44525 -0.368718,-0.58164 0,-0.13642 -0.156508,-0.24798 -0.34779,-0.24798 -0.27082,0 -0.375304,0.18349 -0.472116,0.82908 -0.06838,0.456 -0.07292,0.91229 -0.01003,1.01399 0.183122,0.29628 0.829953,0.2152 0.829953,-0.10401 z m -9.329309,-0.18858 c 0.121666,-0.31703 -0.0015,-0.62863 -0.24857,-0.62863 -0.206478,0 -0.404939,0.54401 -0.275102,0.75408 0.15901,0.25728 0.398851,0.19983 0.523672,-0.12546 z m -1.824473,-0.2599 c 0,-0.39983 -0.719254,-0.34475 -0.797406,0.061 -0.05043,0.26181 0.0318,0.32388 0.366195,0.27655 0.237166,-0.0336 0.431211,-0.18552 0.431211,-0.33762 z m 6.360418,-0.84499 c 0,-0.88987 -0.06148,-1.19277 -0.23045,-1.13528 -0.126743,0.043 -0.237969,0.31967 -0.247158,0.61453 -0.02079,0.66724 -0.253277,1.36574 -0.454565,1.36574 -0.08346,0 -0.177477,-0.31041 -0.208947,-0.68982 -0.03999,-0.48208 -0.154374,-0.70824 -0.379849,-0.75095 -0.239522,-0.0454 -0.322629,0.0611 -0.322629,0.41328 0,0.35151 -0.09552,0.47441 -0.368722,0.47441 -0.744458,0 -0.370784,0.51277 0.506989,0.6957 1.741318,0.36292 1.705331,0.38376 1.705331,-0.98761 z m 3.283518,0.10864 c 0.166284,-7e-4 0.223743,-0.21662 0.184361,-0.69248 -0.05228,-0.63178 -0.104659,-0.69137 -0.607773,-0.69137 -0.4051,0 -0.568429,0.0975 -0.618204,0.36873 -0.03719,0.2028 -0.194975,0.51235 -0.350599,0.68788 -0.221783,0.25019 -0.235555,0.3763 -0.0637,0.58336 0.189114,0.22787 0.287608,0.2285 0.716794,0.005 0.273652,-0.14274 0.606261,-0.26009 0.73913,-0.2607 z m 3.906528,-0.25463 c 0,-0.74903 -0.03954,-0.81448 -0.554086,-0.9174 -0.783577,-0.15669 -1.473878,0.19975 -1.473878,0.76108 0,0.37157 0.07523,0.43842 0.41922,0.37266 0.230566,-0.0441 0.666125,0.0647 0.967891,0.24157 0.301765,0.17695 0.569403,0.32778 0.594758,0.33519 0.02536,0.008 0.04611,-0.34948 0.04611,-0.7931 z m 11.580309,0.48395 c -0.04841,-0.25451 -0.284885,-0.3343 -1.119672,-0.37793 -0.961954,-0.0503 -1.058289,-0.0208 -1.058289,0.32263 0,0.33951 0.113826,0.37792 1.119682,0.37792 0.966848,0 1.111292,-0.0441 1.058279,-0.32262 z m -17.701067,-0.26736 c 0.121681,-0.1216 0.221232,-0.55307 0.221232,-0.95866 0,-0.83257 -0.172165,-0.75849 -0.715953,0.30813 -0.233274,0.45755 -0.276763,0.69966 -0.136079,0.75757 0.333028,0.13703 0.397681,0.12607 0.630797,-0.1071 z m 7.161143,-1.53252 c 0.159585,-0.41586 -0.277372,-0.82727 -0.878609,-0.82727 -0.720181,0 -0.736823,0.63135 -0.02358,0.89186 0.704771,0.25742 0.780635,0.25198 0.902126,-0.0647 z m -7.55661,-0.74306 c 0.06005,-0.15647 0.07307,-0.32058 0.02896,-0.3647 -0.139736,-0.13966 -3.530656,-0.13766 -4.251711,0.003 -0.402436,0.0782 -0.69135,0.2415 -0.69135,0.39052 0,0.39988 4.760313,0.3723 4.9141,-0.0285 z m 4.442166,0.054 c -0.04225,-0.1267 -0.187433,-0.23046 -0.322623,-0.23046 -0.1352,0 -0.280388,0.1037 -0.322635,0.23046 -0.04569,0.13704 0.08503,0.23045 0.322635,0.23045 0.237618,0 0.368323,-0.0934 0.322623,-0.23045 z m 0.898755,-1.24443 c 0.342761,0 0.62222,-0.0943 0.62222,-0.21014 0,-0.39912 -0.648283,-0.69996 -1.520975,-0.70581 -0.767041,-0.005 -0.875709,-0.0543 -0.875709,-0.39608 0,-0.32273 0.07179,-0.36631 0.414806,-0.25197 0.228146,0.0761 1.07851,0.20217 1.889695,0.28032 2.447329,0.23582 3.311091,0.4014 3.465907,0.66446 0.155954,0.26496 0.642795,0.32479 1.128019,0.13857 0.492109,-0.18884 0.326347,-0.3885 -0.421881,-0.50815 -0.392425,-0.0627 -0.817393,-0.23926 -0.944372,-0.39227 -0.172992,-0.20845 -0.627332,-0.27819 -1.812245,-0.27819 -2.007211,0 -1.819413,-0.32779 0.280596,-0.48973 1.210966,-0.0934 1.566947,-0.0585 1.918314,0.18754 0.59288,0.41526 1.317986,0.40325 1.235195,-0.0205 -0.03475,-0.17744 -0.227416,-0.32983 -0.428329,-0.33861 -0.649065,-0.0284 -1.563629,-0.30214 -1.563629,-0.46796 0,-0.0887 -0.332972,-0.16131 -0.739944,-0.16131 -0.406959,0 -0.883991,-0.0769 -1.060062,-0.17091 -0.17607,-0.094 -0.486057,-0.2377 -0.688849,-0.31933 -0.262597,-0.10571 -0.05593,-0.16553 0.71822,-0.20783 0.600047,-0.0327 1.174,0.0276 1.281302,0.13503 0.106912,0.10695 0.493027,0.19435 0.858053,0.19435 0.365037,0 0.760541,0.0968 0.87889,0.21519 0.164009,0.16401 0.243453,0.14151 0.334028,-0.0946 0.159085,-0.41455 -0.235689,-0.85812 -0.763701,-0.85812 -0.235105,0 -0.478723,-0.083 -0.5414,-0.18436 -0.0627,-0.10138 -0.310936,-0.18435 -0.551707,-0.18435 -0.340517,0 -0.45074,-0.11265 -0.496116,-0.50698 -0.04957,-0.43095 -0.155016,-0.51618 -0.702851,-0.56816 -0.354479,-0.0336 -0.727821,-0.12901 -0.829611,-0.21203 -0.101836,-0.083 -0.848801,-0.21159 -1.659986,-0.28579 -0.811185,-0.0742 -1.638525,-0.24839 -1.838532,-0.38712 -0.558833,-0.3876 -1.639508,-0.31835 -2.046307,0.13117 -0.252746,0.27927 -0.485819,0.35563 -0.858274,0.28112 -0.603045,-0.12052 -1.504842,0.17617 -1.340981,0.44131 0.06278,0.10154 0.487483,0.18469 0.943775,0.18469 0.571793,0 0.789439,0.065 0.700328,0.20919 -0.08819,0.14275 -0.558186,0.17295 -1.478424,0.0952 -1.520185,-0.12855 -1.916885,-0.0401 -1.916885,0.42726 0,0.29066 0.322247,0.33702 3.18021,0.45751 1.749116,0.0738 3.211199,0.16462 3.249074,0.20196 0.03787,0.0374 0.01836,0.19949 -0.04335,0.36032 -0.09177,0.23915 -0.184967,0.25352 -0.511299,0.0789 -0.511463,-0.27373 -3.869618,-0.42543 -4.951237,-0.22367 -0.55787,0.10401 -0.847993,0.25813 -0.889228,0.47226 -0.05483,0.28465 0.142144,0.31781 1.888095,0.31781 1.176625,0 1.949298,0.073 1.949298,0.18435 0,0.10139 0.435552,0.18563 0.967889,0.18719 0.934471,0.003 1.627625,0.22852 1.400079,0.45604 -0.06062,0.0606 -0.804873,0.0262 -1.653899,-0.0767 -2.749522,-0.33301 -4.351448,-0.12546 -3.957077,0.51263 0.09537,0.15432 0.834435,0.1802 2.674134,0.0937 1.824166,-0.0858 2.579145,-0.06 2.672644,0.0912 0.0765,0.12376 0.01157,0.21084 -0.157112,0.21084 -0.421188,0 -0.354781,0.20286 0.292531,0.89354 0.482626,0.515 0.669214,0.59883 1.128353,0.50701 0.302559,-0.0605 0.830102,-0.11003 1.172319,-0.11003 z m -0.483939,-2.30452 c 0,-0.152 0.08295,-0.27654 0.184354,-0.27654 0.101419,0 0.184366,0.12454 0.184366,0.27654 0,0.15216 -0.08295,0.27654 -0.184366,0.27654 -0.101419,0 -0.184354,-0.12438 -0.184354,-0.27654 z m 0,-1.19832 c 0,-0.10139 0.124443,-0.18436 0.276537,-0.18436 0.152097,0 0.276538,0.083 0.276538,0.18436 0,0.10139 -0.124444,0.18435 -0.276538,0.18435 -0.152097,0 -0.276537,-0.083 -0.276537,-0.18435 z m 2.396673,3.41065 c 0,-0.15216 -0.121851,-0.27653 -0.270746,-0.27653 -0.164938,0 -0.229283,0.10803 -0.164647,0.27653 0.05843,0.15216 0.180213,0.27654 0.270759,0.27654 0.09057,0 0.164634,-0.12438 0.164634,-0.27654 z m -11.17306,-3.19652 c -0.402416,-0.0878 -0.576189,0.14182 -0.256781,0.33921 0.170168,0.10525 0.316264,0.0849 0.404615,-0.056 0.08233,-0.13148 0.02253,-0.24596 -0.147838,-0.2831 z m 11.726144,-3.26257 c 0,-0.0543 -0.131048,-0.29868 -0.291227,-0.54314 -0.399249,-0.60933 -1.807623,-1.05533 -2.688235,-0.85132 -0.484889,0.11234 -0.744461,0.0886 -0.921794,-0.0844 -0.380521,-0.37115 -4.542752,-0.43705 -4.771398,-0.0755 -0.295619,0.4674 -0.193765,0.67814 0.330363,0.68351 1.730502,0.0177 5.350048,0.29981 5.61086,0.43722 0.170781,0.09 0.606329,0.16358 0.967891,0.16358 0.361563,0 0.657381,0.0829 0.657381,0.18436 0,0.10139 0.248877,0.18436 0.553075,0.18436 0.304198,0 0.553084,-0.0444 0.553084,-0.0988 z m -13.32001,-0.86922 c -0.04225,-0.12669 -0.187433,-0.23044 -0.322629,-0.23044 -0.1352,0 -0.28038,0.1037 -0.32263,0.23044 -0.04569,0.13704 0.085,0.23045 0.32263,0.23045 0.237619,0 0.368325,-0.0934 0.322629,-0.23045 z m 1.336611,-0.0154 c 0,-0.38262 -0.218203,-0.50867 -0.490028,-0.28308 -0.357359,0.29657 -0.304072,0.5289 0.121311,0.5289 0.202796,0 0.36872,-0.11065 0.36872,-0.24582 z m 1.233456,-0.0394 c 0.156924,-0.15693 0.237538,-0.3331 0.179142,-0.39149 -0.185372,-0.18537 -0.675159,0.10077 -0.675159,0.39448 0,0.35796 0.135878,0.35716 0.496017,-0.003 z m 1.163224,-0.26777 c 0,-0.10139 -0.08296,-0.18435 -0.184361,-0.18435 -0.101388,0 -0.18436,0.0829 -0.18436,0.18435 0,0.10138 0.08296,0.18436 0.18436,0.18436 0.101403,0 0.184361,-0.0829 0.184361,-0.18436 z m 4.173263,-0.9625 c 0.04883,-0.079 0.664615,-0.14367 1.368411,-0.14367 0.730189,0 1.279642,-0.0792 1.279642,-0.18436 0,-0.10139 -0.171375,-0.18437 -0.380833,-0.18437 -0.469311,0 -1.094046,-0.31952 -1.094046,-0.55956 0,-0.0978 0.456292,-0.17787 1.013978,-0.17787 0.557695,0 1.013976,-0.0829 1.013976,-0.18435 0,-0.10139 -0.321685,-0.18436 -0.714862,-0.18436 -0.410527,0 -0.812572,-0.11775 -0.944372,-0.27655 -0.126233,-0.15215 -0.426752,-0.27654 -0.667832,-0.27654 -0.241081,0 -0.438326,-0.0829 -0.438326,-0.18436 0,-0.10139 0.290366,-0.18435 0.645256,-0.18435 0.693847,0 0.882667,-0.34117 0.276547,-0.49967 -0.202802,-0.0529 -0.368723,-0.16813 -0.368723,-0.25576 0,-0.26896 0.865424,-0.39388 1.26123,-0.18206 0.458618,0.24546 0.951082,0.26 0.951082,0.0282 0,-0.0946 -0.186662,-0.22617 -0.414806,-0.29245 -0.228146,-0.0662 -0.592869,-0.33205 -0.810497,-0.59063 -0.305762,-0.3633 -0.567629,-0.470165 -1.152251,-0.470165 -0.515966,0 -0.756558,-0.07994 -0.756558,-0.251386 0,-0.298192 1.205394,-0.353932 1.384553,-0.06404 0.06364,0.103085 0.189384,0.14182 0.279323,0.08627 0.08994,-0.05555 0.30115,0.108949 0.469365,0.365721 0.168212,0.25673 0.415847,0.46677 0.550298,0.46677 0.497963,0 0.460516,-0.39527 -0.105091,-1.109418 -0.439721,-0.555211 -0.712523,-0.734175 -1.119065,-0.734175 -0.365225,0 -0.537585,-0.09259 -0.537585,-0.288963 0,-0.210677 0.10608,-0.255291 0.391512,-0.164706 0.215331,0.06836 0.484962,0.138425 0.59917,0.155879 0.114212,0.01744 0.318585,0.100925 0.454172,0.185507 0.139536,0.08719 0.326954,0.07346 0.431886,-0.03148 0.242763,-0.24276 -0.131511,-0.962398 -0.500529,-0.962398 -0.148517,0 -0.270048,-0.08287 -0.270048,-0.184366 0,-0.101388 -0.163006,-0.18435 -0.362241,-0.18435 -0.486778,0 -0.850439,-0.657123 -0.448923,-0.811196 0.454485,-0.174397 1.179884,-0.129011 1.179884,0.07377 0,0.101388 0.124443,0.184365 0.276537,0.184365 0.152098,0 0.276538,-0.09722 0.276538,-0.215939 0,-0.346586 -0.580359,-0.890223 -0.950372,-0.890223 -0.384339,0 -0.460923,-0.294257 -0.109706,-0.421447 0.183009,-0.0662 0.183781,-0.162575 0.0042,-0.467711 -0.155599,-0.263779 -0.165699,-0.421956 -0.03224,-0.50444 0.121527,-0.07515 0.03892,-0.285707 -0.220277,-0.561631 l -0.414732,-0.441453 h 0.758692 c 0.417289,0 0.802202,-0.07037 0.855384,-0.156449 0.167003,-0.270214 -0.585233,-0.911504 -1.219043,-1.039219 -1.06822,-0.215245 -1.252574,-0.298515 -1.252574,-0.565689 0,-0.143826 -0.290368,-0.382975 -0.645261,-0.53126 -0.568284,-0.237436 -0.724165,-0.236634 -1.306701,0.0062 -0.42253,0.176541 -0.626505,0.367403 -0.56472,0.528405 0.123888,0.322867 -0.22724,0.45177 -1.616174,0.593297 -1.064026,0.108487 -1.484932,0.32117 -1.282718,0.648358 0.04998,0.08086 0.998581,0.147066 2.107975,0.147066 1.109394,0 2.01708,0.06265 2.01708,0.139351 0,0.0767 -0.263325,0.255908 -0.585167,0.39836 -0.479501,0.212267 -0.736861,0.218455 -1.425232,0.03426 -0.579245,-0.154921 -0.860253,-0.164134 -0.905078,-0.02963 -0.03576,0.107252 -0.431427,0.195029 -0.879267,0.195029 -0.528388,0 -0.814328,0.08086 -0.814463,0.23043 -1.57e-4,0.173733 0.476288,0.214983 1.935778,0.167591 1.313851,-0.04259 1.935988,0.0015 1.935988,0.13827 0,0.110647 -0.296451,0.20114 -0.658777,0.20114 -0.52781,0 -0.646616,0.0642 -0.597594,0.322621 0.0369,0.194597 0.261766,0.345784 0.566597,0.380968 0.288815,0.03333 0.505413,0.171604 0.505413,0.322636 0,0.205893 -0.304275,0.264288 -1.37709,0.264288 -1.035364,0 -1.539999,0.09151 -2.033569,0.368716 -0.361061,0.202806 -0.886244,0.368731 -1.167077,0.368731 -0.492796,0 -0.953062,0.284904 -0.953062,0.589948 0,0.214458 1.247939,0.181171 1.382699,-0.03688 0.06267,-0.101388 0.424301,-0.184365 0.803629,-0.184365 0.379327,0 0.776539,-0.08688 0.882694,-0.193008 0.110462,-0.110492 0.775897,-0.169597 1.555885,-0.13827 1.077294,0.04336 1.374723,0.11682 1.41939,0.351123 0.04758,0.249566 -0.08975,0.282328 -0.869623,0.207375 -0.917382,-0.08812 -4.268901,0.615411 -4.406507,0.925037 -0.03379,0.07608 -0.310339,0.138271 -0.614534,0.138271 -0.359915,0 -0.526652,0.0804 -0.477409,0.230445 0.109768,0.334318 1.041962,0.394317 1.400149,0.09012 0.1872,-0.15898 0.800272,-0.274735 1.576474,-0.297652 0.69858,-0.02052 1.419042,-0.117128 1.60103,-0.214566 0.463543,-0.248084 0.539482,-0.224843 0.539482,0.165122 0,0.295167 -0.206782,0.359457 -1.503927,0.467635 -1.387257,0.115739 -2.551991,0.521507 -2.551991,0.889142 0,0.224319 1.928431,0.1704 2.159202,-0.06049 0.304326,-0.304318 3.182538,-0.02176 3.315803,0.325522 0.156122,0.406832 -0.103178,0.537096 -0.533822,0.268161 -0.468039,-0.292297 -3.244568,-0.315445 -3.530574,-0.02948 -0.106604,0.106635 -0.384647,0.193841 -0.617862,0.193841 -0.481897,0 -0.548035,0.271044 -0.160657,0.658414 0.174486,0.17449 0.718913,0.27221 1.613149,0.28955 1.06985,0.0207 1.196843,0.0494 0.612339,0.13827 -0.482769,0.0733 -0.737439,0.20763 -0.737439,0.38866 0,0.20659 0.292252,0.29986 1.155373,0.36871 1.782318,0.14229 1.387405,0.45424 -0.647447,0.51159 -1.322019,0.0372 -2.00548,0.14707 -2.579967,0.41481 -0.429837,0.20026 -0.906868,0.36412 -1.06007,0.36412 -0.153208,0 -0.278548,0.12438 -0.278548,0.27655 0,0.34028 0.09321,0.34182 1.164873,0.0193 0.511886,-0.15401 1.772235,-0.26492 3.141964,-0.27637 l 2.287204,-0.0191 0.08807,0.46074 c 0.09798,0.51254 -0.346467,0.66655 -0.531566,0.18416 -0.124551,-0.32455 -1.547265,-0.3851 -2.099883,-0.0894 -0.563433,0.30156 -0.244825,0.72425 0.501582,0.66546 0.413439,-0.0326 0.79148,0.0682 1.043823,0.27822 0.404095,0.33633 2.075778,0.42413 2.264392,0.11898 z m -2.732951,-3.77241 c 0.133085,-0.0532 0.292094,-0.0468 0.353356,0.0139 0.06125,0.0613 -0.04762,0.10478 -0.241972,0.0968 -0.214771,-0.008 -0.258454,-0.0525 -0.111387,-0.11142 z m 12.114951,-7.117111 c 0.123549,-0.658528 0.62941,-0.98479 1.82871,-1.179403 0.561339,-0.09105 0.645059,-0.06142 0.547138,0.193718 -0.08441,0.220028 -0.0108,0.301262 0.272833,0.301262 0.495679,0 0.490325,-0.319472 -0.02211,-1.3192 -0.225798,-0.440521 -0.421328,-0.823634 -0.434516,-0.851381 -0.08389,-0.176326 -0.614143,0.238053 -0.785278,0.613652 -0.161244,0.353885 -0.344911,0.450767 -0.8546,0.450767 -0.535974,0 -0.649212,0.06728 -0.649212,0.385968 0,0.23094 -0.148116,0.424719 -0.368709,0.482403 -0.272322,0.0713 -0.36873,0.251479 -0.36873,0.689454 0,1.025268 0.651662,1.207041 0.834432,0.23276 z m 3.405851,-3.254584 c 0,-0.805208 0.08295,-1.515278 0.184365,-1.577948 0.101419,-0.06265 0.184824,-0.627555 0.185377,-1.255312 5.63e-4,-0.627741 0.103718,-1.473211 0.229126,-1.878809 l 0.228093,-0.737432 0.05748,0.875702 c 0.08086,1.230837 0.406032,1.094805 0.406032,-0.169844 0,-0.667833 0.09934,-1.155267 0.274868,-1.349277 0.219839,-0.242915 0.24752,-0.575041 0.138285,-1.658766 -0.08211,-0.814313 -0.228562,-1.385542 -0.36705,-1.431483 -0.126743,-0.04198 -0.23045,0.06373 -0.23045,0.235183 0,0.204813 -0.09724,0.274303 -0.28382,0.202714 -0.156122,-0.05988 -0.425741,-0.02052 -0.599183,0.0875 -0.255846,0.15932 -0.303737,0.418191 -0.253843,1.372333 0.05926,1.133307 0.04424,1.180328 -0.416413,1.295929 -0.321026,0.08056 -0.511306,0.279689 -0.579627,0.606538 -0.05592,0.267636 -0.180986,0.632787 -0.277883,0.811458 -0.227425,0.419348 -0.0217,1.24221 0.310613,1.24221 0.194726,0 0.256558,0.310985 0.256558,1.290513 0,1.253645 -0.01312,1.290528 -0.460903,1.290528 -0.553378,0 -0.64028,0.540689 -0.109228,0.679561 0.193423,0.05062 0.404435,0.229473 0.468926,0.397543 0.229836,0.598976 0.559544,1.135205 0.697989,1.135205 0.07731,0 0.140647,-0.65879 0.140647,-1.463998 z"
     style="fill:#000000;stroke-width:0.18435994" />
  <rect
     y="76.255608"
     x="18.452532"
     height="82.694344"
     width="97.123871"
     id="rect96"
     style="fill:none;fill-opacity:1;stroke:#000000;stroke-width:1.11084437;stroke-miterlimit:4;stroke-dasharray:none;stroke-opacity:1" />
  <path
     id="path192"
     d="M 18.384776,171.71573 H 115.78874"
     style="fill:none;stroke:#000000;stroke-width:1px;stroke-linecap:butt;stroke-linejoin:miter;stroke-opacity:1" />
  <text
     id="text196"
     y="181.43845"
     x="51.795574"
     style="font-style:normal;font-weight:normal;font-size:40px;line-height:1.25;font-family:sans-serif;letter-spacing:0px;word-spacing:0px;fill:#000000;fill-opacity:1;stroke:none"
     xml:space="preserve"><tspan
       style="font-size:10.66666698px"
       y="181.43845"
       x="51.795574"
       id="tspan194">38mm</tspan></text>
</svg>
