<?xml version="1.0" encoding="UTF-8" standalone="no"?>
<svg
   xmlns:dc="http://purl.org/dc/elements/1.1/"
   xmlns:cc="http://creativecommons.org/ns#"
   xmlns:rdf="http://www.w3.org/1999/02/22-rdf-syntax-ns#"
   xmlns:svg="http://www.w3.org/2000/svg"
   xmlns="http://www.w3.org/2000/svg"
   viewBox="0 0 188.97637 188.97638"
   height="50mm"
   width="50mm"
   id="svg1233"
   version="1.1">
  <metadata
     id="metadata1239">
    <rdf:RDF>
      <cc:Work
         rdf:about="">
        <dc:format>image/svg+xml</dc:format>
        <dc:type
           rdf:resource="http://purl.org/dc/dcmitype/StillImage" />
        <dc:title></dc:title>
      </cc:Work>
    </rdf:RDF>
  </metadata>
  <defs
     id="defs1237" />
  <path
     id="path1243"
     d="m 22.62168,97.600028 c 0,-0.25166 0.0511,-0.30926 0.32492,-0.36398 0.17879,-0.0358 0.43444,-0.065 0.56806,-0.065 0.1337,0 0.51156,-0.10045 0.83976,-0.22322 0.80353,-0.30064 1.52054,-0.98318 1.82574,-1.73781 l 0.2373,-0.58682 v -7.48755 c 0,-7.08306 -0.0109,-7.51817 -0.19723,-8.05428 -0.40816,-1.1727 -1.51671,-1.96182 -2.8966,-2.06206 -0.6951,-0.0505 -0.70195,-0.054 -0.70195,-0.35527 v -0.30428 l 8.18945,0.0408 c 7.08894,0.0353 8.34032,0.0647 9.31179,0.21887 3.47368,0.55124 5.41159,1.72956 6.22288,3.78363 0.21156,0.53562 0.24004,0.81605 0.27727,2.72884 0.0438,2.25342 -0.0319,2.91775 -0.4202,3.69178 -0.90666,1.80676 -2.69817,2.91968 -5.71506,3.5502 -0.70405,0.14715 -1.64914,0.1912 -5.12693,0.23898 l -4.26371,0.0586 -0.0292,1.40391 c -0.0329,1.5445 0.0932,2.62106 0.3826,3.27532 0.45406,1.02645 1.35242,1.62664 2.7408,1.83101 0.79112,0.11646 0.8059,0.12415 0.8059,0.41798 v 0.29935 h -6.18765 -6.18756 z m 15.39074,-7.90869 c 1.94913,-0.57695 2.97846,-1.66726 3.37183,-3.57138 0.21795,-1.05537 0.22416,-4.30041 0.01,-5.31073 -0.31177,-1.47162 -1.00222,-2.47465 -2.1074,-3.06139 -1.16897,-0.62061 -1.53696,-0.67341 -5.04396,-0.72374 l -3.19778,-0.0459 v 6.51893 6.51891 l 3.09382,-0.047 c 2.81053,-0.0427 3.1652,-0.0681 3.87345,-0.27775 z m 10.0538,8.1391 c -0.0383,-0.0385 -0.0703,-0.27287 -0.0703,-0.52072 v -0.45064 h 1.30322 c 0.87755,0 1.41266,-0.0469 1.63791,-0.1436 0.52343,-0.22458 1.00259,-0.80727 1.30405,-1.58594 l 0.27664,-0.71431 0.0328,-6.7596 c 0.0347,-7.06455 -0.009,-7.98624 -0.40532,-9.05119 -0.16794,-0.44881 -0.52179,-0.89643 -0.95522,-1.2083 -0.0128,-0.009 -0.7244,-0.044 -1.58233,-0.078 l -1.55987,-0.0619 v -0.46798 -0.46797 h 6.75954 6.75964 v 0.46797 0.46798 l -1.45601,0.052 c -1.71804,0.0613 -1.90642,0.14815 -2.4157,1.11272 -0.56194,1.06436 -0.56541,1.125 -0.52863,9.13067 0.031,6.69495 0.0502,7.42541 0.21302,7.8324 0.49632,1.24354 0.93642,1.46957 2.86712,1.47275 l 1.38354,0.002 -0.0319,0.49397 -0.032,0.49398 -6.71555,0.0267 c -3.69346,0.0147 -6.74704,-0.005 -6.78556,-0.0434 z m 16.11823,-7e-4 c -0.0383,-0.0382 -0.0694,-0.27215 -0.0694,-0.52 v -0.45064 l 1.32586,-0.002 c 1.64037,-0.003 2.04579,-0.14769 2.52422,-0.902 0.68342,-1.07744 0.6638,-0.84255 0.7014,-8.39716 0.0219,-4.51094 0,-7.10224 -0.0767,-7.57252 -0.13243,-0.85334 -0.57006,-1.76048 -1.09075,-2.26088 l -0.37876,-0.36401 -1.47655,-0.052 -1.47655,-0.052 v -0.46797 -0.46797 l 11.41325,-0.0265 11.41334,-0.0265 v 3.84822 3.84823 h -0.34354 c -0.33505,0 -0.34938,-0.0185 -0.58293,-0.75396 -0.54734,-1.72369 -1.59118,-3.55894 -2.56511,-4.50977 -0.33277,-0.32491 -0.88467,-0.70701 -1.3621,-0.94306 l -0.80261,-0.39681 -4.03545,-0.0306 -4.03545,-0.0306 v 4.37232 4.37231 l 1.01391,-9.2e-4 c 1.14834,-0.002 1.84363,-0.15499 2.6237,-0.57959 0.67119,-0.36527 1.59602,-1.35155 1.95635,-2.08621 l 0.27307,-0.55677 h 0.49824 0.49833 v 3.89977 3.89977 l -0.49395,-8e-5 -0.49395,-8e-5 -0.35759,-0.79523 c -0.80745,-1.79582 -2.43779,-2.73297 -4.76413,-2.73855 l -0.75398,-0.002 v 4.8877 4.88771 l 3.45781,-0.002 c 3.82818,-0.002 4.25586,-0.0525 5.48014,-0.65045 0.80207,-0.39173 2.22468,-1.74025 2.90444,-2.75313 0.43015,-0.64101 1.13584,-2.01442 1.34859,-2.62459 0.10222,-0.29336 0.14384,-0.31391 0.63478,-0.31391 h 0.52543 v 3.69178 3.69178 H 75.93578 c -6.42505,0 -11.71316,-0.0312 -11.75131,-0.0694 z m 26.65713,-0.24187 c 0,-0.17203 0.0347,-0.31372 0.0776,-0.31485 0.53055,-0.0141 1.61509,-0.26282 2.05701,-0.47189 0.64865,-0.30685 1.01473,-0.70201 1.3914,-1.50194 l 0.26942,-0.57196 0.0283,-7.42569 c 0.0319,-8.20393 0.0447,-8.01579 -0.62573,-9.01739 -0.46757,-0.69852 -1.42288,-1.18877 -2.46116,-1.26305 -0.73398,-0.0525 -0.73754,-0.0542 -0.73754,-0.35704 v -0.30429 l 8.18945,0.0406 c 8.74975,0.0434 9.0409,0.059 11.1764,0.6001 2.29103,0.5805 3.84543,1.8448 4.44068,3.61191 0.19139,0.56797 0.21604,0.88939 0.21604,2.81895 0,2.43509 -0.10104,2.98735 -0.72431,3.95862 -0.99154,1.54506 -3.19578,2.68347 -5.90509,3.04971 l -0.94536,0.12779 2.7116,2.91182 c 1.49133,1.60151 2.85762,3.01173 3.03623,3.13383 0.44056,0.30124 1.12443,0.51966 1.90487,0.60844 0.63103,0.0717 0.65002,0.0827 0.65002,0.3757 v 0.30177 h -5.09572 -5.09571 v -0.31199 c 0,-0.28798 0.0283,-0.31198 0.36872,-0.31198 0.42212,0 0.87919,-0.37674 0.87919,-0.72462 0,-0.13813 -0.96854,-1.22785 -2.72984,-3.07133 l -2.72985,-2.85723 -0.91771,-9.1e-4 -0.9178,-9.1e-4 0.0338,2.05662 0.0338,2.05662 0.34472,0.69955 c 0.54442,1.10505 1.38975,1.61619 2.96323,1.79186 0.57937,0.0647 0.60273,0.0788 0.57198,0.34518 l -0.032,0.27774 -6.21366,0.0268 -6.21358,0.0268 z m 14.45514,-7.70057 c 2.20971,-0.34864 3.54105,-1.32558 4.175,-3.06359 0.20234,-0.55486 0.23246,-0.88339 0.2717,-2.96659 0.0466,-2.46818 -0.0119,-3.06631 -0.3992,-4.10499 -0.32538,-0.87237 -1.35407,-1.90144 -2.2276,-2.22854 -1.1843,-0.44347 -1.97113,-0.52729 -4.94886,-0.52729 h -2.79867 v 6.49958 6.49961 l 2.6258,-8.3e-4 c 1.44424,-4e-4 2.93,-0.0487 3.30183,-0.10744 z m 29.53419,7.54375 c 0,-0.44891 0.0128,-0.46798 0.30685,-0.46798 0.62702,0 1.37624,-0.23122 1.71613,-0.52959 0.54186,-0.47574 0.8006,-1.21122 0.86413,-2.45615 l 0.0548,-1.07002 h -5.63055 c -3.09684,0 -5.63064,-0.0225 -5.63064,-0.0501 0,-0.0276 3.02282,-3.75965 6.71747,-8.29351 l 6.71737,-8.24337 h 0.79614 0.79614 l 0.0265,7.1089 0.0265,7.1089 0.77269,-0.039 c 0.95932,-0.0485 1.2365,-0.26084 1.42205,-1.08967 0.10743,-0.48007 0.15872,-0.55788 0.36827,-0.55788 h 0.24342 v 2.91183 2.91182 h -0.26003 c -0.22014,0 -0.25993,-0.0483 -0.25993,-0.31531 0,-0.50936 -0.26404,-1.00648 -0.63706,-1.19937 -0.18783,-0.0971 -0.63614,-0.20023 -0.9962,-0.22913 l -0.65457,-0.0526 v 1.03531 c 0,1.926 0.46784,2.66775 1.82345,2.89103 1.04987,0.17293 0.98434,0.1307 0.98434,0.63413 v 0.45972 h -4.78367 -4.78376 z m 2.91184,-11.67041 c 0,-4.75275 0,-4.85435 -0.19477,-4.65372 -0.10715,0.1128 -1.70636,2.05358 -3.55391,4.31284 -1.84746,2.25927 -3.56715,4.35344 -3.8216,4.65372 l -0.46255,0.54597 h 4.01646 4.01637 z m 9.11209,12.05479 c -0.0812,-0.1317 0.12713,-0.93231 0.36662,-1.40757 0.68689,-1.36311 2.04315,-2.75159 4.56499,-4.67345 3.12632,-2.38248 3.65413,-2.82097 4.6276,-3.84478 1.65342,-1.73893 2.2066,-3.19349 2.08613,-5.48568 -0.0347,-0.65776 -0.12595,-1.42992 -0.20307,-1.7159 -0.73143,-2.71103 -3.58851,-4.22571 -6.15772,-3.26445 -1.07214,0.40113 -1.99176,1.61704 -2.33155,3.08246 l -0.12659,0.54597 h -1.34978 -1.34977 l 0.073,-0.33798 c 0.33349,-1.54014 1.47289,-3.02187 2.91402,-3.7895 2.4126,-1.28513 6.77871,-1.37698 9.44312,-0.19866 1.8199,0.80488 3.14868,2.32388 3.64774,4.17015 0.23839,0.88188 0.32756,2.78756 0.16337,3.49222 -0.22443,0.96343 -0.78254,1.89262 -1.60204,2.66744 -0.97156,0.91844 -1.7739,1.43826 -4.17554,2.70518 -2.94324,1.55268 -4.61482,2.53776 -5.73551,3.38011 l -1.0035,0.75426 6.77734,0.0267 6.77734,0.0268 v 1.97512 1.97513 h -8.67737 c -4.77254,0 -8.70056,-0.0376 -8.72894,-0.0836 z"
     style="fill:#000000;stroke-width:0.10399376" />
  <circle
     r="75.466682"
     cy="86.42643"
     cx="93.42218"
     id="path1245"
     style="opacity:1;fill:none;fill-opacity:1;stroke:#000000;stroke-width:0.24773295;stroke-miterlimit:4;stroke-dasharray:none;stroke-opacity:1" />
  <text
     id="text1249"
     y="177.30048"
     x="62.44342"
     style="font-style:normal;font-weight:normal;font-size:13.33333302px;line-height:1.25;font-family:sans-serif;letter-spacing:0px;word-spacing:0px;fill:#000000;fill-opacity:1;stroke:none"
     xml:space="preserve"><tspan
       y="177.30048"
       x="62.44342"
       id="tspan1247">40.00mm</tspan></text>
</svg>
