<?xml version="1.0" encoding="UTF-8" standalone="no"?>
<svg
   xmlns:dc="http://purl.org/dc/elements/1.1/"
   xmlns:cc="http://creativecommons.org/ns#"
   xmlns:rdf="http://www.w3.org/1999/02/22-rdf-syntax-ns#"
   xmlns:svg="http://www.w3.org/2000/svg"
   xmlns="http://www.w3.org/2000/svg"
   viewBox="0 0 841.88977 595.27557"
   id="svg63"
   height="595.27557"
   width="841.88977"
   version="1.1">
  <metadata
     id="metadata69">
    <rdf:RDF>
      <cc:Work
         rdf:about="">
        <dc:format>image/svg+xml</dc:format>
        <dc:type
           rdf:resource="http://purl.org/dc/dcmitype/StillImage" />
        <dc:title></dc:title>
      </cc:Work>
    </rdf:RDF>
  </metadata>
  <defs
     id="defs67">
    <marker
       style="overflow:visible;"
       id="marker5581"
       refX="0.0"
       refY="0.0"
       orient="auto">
      <path
         transform="scale(0.8) rotate(180) translate(12.5,0)"
         style="fill-rule:evenodd;stroke:#000000;stroke-width:1pt;stroke-opacity:1;fill:#000000;fill-opacity:1"
         d="M 0.0,0.0 L 5.0,-5.0 L -12.5,0.0 L 5.0,5.0 L 0.0,0.0 z "
         id="path5579" />
    </marker>
    <marker
       orient="auto"
       refY="0.0"
       refX="0.0"
       id="marker5547"
       style="overflow:visible">
      <path
         id="path5545"
         d="M 0.0,0.0 L 5.0,-5.0 L -12.5,0.0 L 5.0,5.0 L 0.0,0.0 z "
         style="fill-rule:evenodd;stroke:#000000;stroke-width:1pt;stroke-opacity:1;fill:#000000;fill-opacity:1"
         transform="scale(0.8) translate(12.5,0)" />
    </marker>
    <marker
       style="overflow:visible;"
       id="Arrow1Lend"
       refX="0.0"
       refY="0.0"
       orient="auto">
      <path
         transform="scale(0.8) rotate(180) translate(12.5,0)"
         style="fill-rule:evenodd;stroke:#000000;stroke-width:1pt;stroke-opacity:1;fill:#000000;fill-opacity:1"
         d="M 0.0,0.0 L 5.0,-5.0 L -12.5,0.0 L 5.0,5.0 L 0.0,0.0 z "
         id="path4598" />
    </marker>
    <marker
       style="overflow:visible"
       id="Arrow1Lstart"
       refX="0.0"
       refY="0.0"
       orient="auto">
      <path
         transform="scale(0.8) translate(12.5,0)"
         style="fill-rule:evenodd;stroke:#000000;stroke-width:1pt;stroke-opacity:1;fill:#000000;fill-opacity:1"
         d="M 0.0,0.0 L 5.0,-5.0 L -12.5,0.0 L 5.0,5.0 L 0.0,0.0 z "
         id="path4595" />
    </marker>
  </defs>
  <path
     id="path3762"
     d="m 315.11353,446.75216 c -14.41286,-0.022 -17.42328,-0.0515 -17.50857,-0.1712 -0.0714,-0.10032 -0.49437,-0.16501 -1.38098,-0.2114 -0.70289,-0.0368 -1.31977,-0.11052 -1.37085,-0.16399 -0.0552,-0.0578 0.13865,-1.15136 0.47716,-2.69291 0.71943,-3.27614 1.12265,-5.68888 1.45349,-8.69722 0.34191,-3.10906 0.57743,-4.54668 1.13144,-6.90655 1.69667,-7.22723 5.58989,-15.46675 13.48983,-28.5495 0.88834,-1.47112 1.66725,-2.80113 1.73092,-2.95557 0.0637,-0.15441 0.26819,-0.44074 0.45447,-0.63624 0.18628,-0.19552 0.3387,-0.4414 0.3387,-0.54641 0,-0.10496 0.11284,-0.29365 0.25085,-0.41919 0.13796,-0.12553 0.57186,-0.72839 0.96419,-1.33972 1.71286,-2.66877 7.27784,-10.2237 13.40202,-18.19432 1.8446,-2.40076 3.57424,-4.65183 3.84361,-5.00241 0.26938,-0.35056 0.48918,-0.69006 0.48846,-0.75444 -7.7e-4,-0.0644 -0.12183,-0.50506 -0.26912,-0.9793 -0.23006,-0.74065 -0.27525,-1.11295 -0.32055,-2.6406 -0.0609,-2.0559 0.0966,-4.34679 0.4002,-5.81718 0.11658,-0.56466 0.59638,-2.26347 1.06622,-3.77501 1.24116,-3.99317 1.33671,-4.54107 1.90818,-10.93954 0.76227,-8.53509 1.42292,-12.21093 2.73705,-15.22855 0.8576,-1.96939 2.71795,-4.3183 4.2317,-5.34297 1.49983,-1.01525 2.65216,-1.34779 4.97544,-1.43561 2.63957,-0.0999 4.68125,0.32087 6.86119,1.41383 2.27801,1.14208 3.76881,2.34959 6.91309,5.59942 1.2599,1.30222 2.30725,2.34705 2.32744,2.32188 0.0749,-0.0934 0.48978,-2.88446 0.58354,-3.92582 0.12938,-1.43686 0.12663,-6.93671 -0.005,-8.89173 -0.14213,-2.11995 -0.35864,-3.94689 -0.77915,-6.57451 -0.49233,-3.07625 -1.01766,-5.48054 -3.13352,-14.34091 -3.49171,-14.62178 -4.20621,-18.35625 -4.7313,-24.72868 -0.86813,-10.53546 0.87862,-19.35589 11.0667,-55.883 1.90687,-6.83676 2.52171,-9.19633 2.96285,-11.37065 0.30029,-1.48019 0.32818,-1.785 0.33033,-3.61056 0.002,-1.97735 -4.3e-4,-2.00238 -0.33495,-3.0075 -0.5412,-1.62643 -1.15971,-2.75662 -3.57424,-6.53087 -5.17563,-8.09038 -10.54165,-15.59238 -28.75538,-40.20133 -1.1555,-1.56121 -1.57571,-2.33801 -1.41196,-2.61007 0.17588,-0.29214 0.47152,-0.33162 2.56504,-0.34242 8.15057,-0.0425 19.21612,2.77754 29.35261,7.47982 6.04824,2.80566 19.41742,10.28742 35.07088,19.62664 l 5.3063,3.16586 1.95461,-0.26318 c 2.83253,-0.38137 5.15966,-0.4892 10.55441,-0.48912 6.60531,1.6e-4 10.06533,0.18215 13.54339,0.71221 16.7217,2.54858 29.77309,8.83025 39.94686,19.22659 3.0672,3.13426 5.88482,6.62146 9.1439,11.31672 9.60151,13.83263 15.5077,27.91207 17.9492,42.78799 1.01077,6.15854 1.42996,11.73402 1.43426,19.07673 0.003,5.71159 -0.22155,9.34524 -0.92056,14.87346 -0.50155,3.96627 -1.81703,11.75601 -2.82718,16.74118 -0.86083,4.24831 -2.20754,12.05505 -2.71761,15.7539 -0.81882,5.93761 -1.01619,9.49557 -0.66667,12.01727 0.18794,1.35614 0.1999,1.36765 2.13394,2.0624 2.05842,0.73947 3.61027,1.72978 4.58886,2.92849 0.44946,0.55052 0.84301,1.33805 1.45622,2.91403 0.53317,1.37026 1.72823,3.26365 3.29433,5.21937 2.48162,3.09904 7.74154,8.48241 10.5308,10.77809 2.16749,1.78392 3.26613,2.886 4.01988,4.0324 1.0596,1.61167 2.41319,4.91194 3.27406,7.98277 0.19988,0.71299 0.4501,1.4714 0.55604,1.68534 0.23632,0.47721 1.02225,1.27565 2.57754,2.61854 1.76291,1.52216 3.78736,3.50867 7.55448,7.41293 3.42157,3.54615 6.69763,7.1198 8.15461,8.89538 2.33709,2.84818 5.69204,7.94435 8.05317,12.23284 6.88318,12.50183 11.44122,28.26596 12.43325,43.00081 0.0818,1.2137 0.13968,2.21484 0.1288,2.22476 -0.0355,0.0324 -231.36285,0.0959 -249.25947,0.0685 z m 57.56943,-7.43996 c 9.48441,-17.44005 13.31717,-24.64665 19.21523,-36.12969 2.13943,-4.16532 5.00366,-10.04241 8.4858,-17.41192 l 2.90547,-6.14911 1.03878,-0.17843 c 2.01899,-0.34683 3.29315,-0.99142 4.50766,-2.2804 1.9173,-2.03488 2.09283,-3.55232 1.70263,-14.72034 -0.0873,-2.50093 0.0176,-5.44478 0.20135,-5.64322 0.0472,-0.051 1.02846,-0.18354 2.18064,-0.2947 5.86615,-0.56559 14.32207,-2.36242 28.10026,-5.97098 5.10398,-1.33675 5.94138,-1.64728 10.24766,-3.7999 12.25189,-6.12446 27.35723,-10.68546 42.59505,-12.86149 l 0.88345,-0.12622 -0.006,-3.94713 c -0.006,-4.34448 0.0601,-5.26286 0.71777,-10.03652 0.45397,-3.29501 1.21841,-7.6748 2.36079,-13.52621 0.48606,-2.48963 1.13412,-5.81192 1.44012,-7.3828 1.27246,-6.5324 2.05946,-12.47889 2.54612,-19.2384 0.20405,-2.83394 0.1716,-12.03071 -0.0523,-14.81954 -0.79327,-9.88172 -2.5582,-18.24578 -5.78951,-27.43622 -0.91312,-2.5971 -2.04457,-5.3249 -2.15881,-5.20455 -0.0757,0.0797 -0.26293,3.06892 -0.36691,5.85781 -0.18731,5.0241 -0.28317,20.29992 -0.1904,30.33961 0.0975,10.5574 0.0471,12.61678 -0.37449,15.30279 -1.28159,8.16439 -3.19465,12.44638 -7.99391,17.89292 -0.65292,0.74103 -1.66887,1.82618 -2.25766,2.41156 -6.52712,6.48922 -15.89065,11.6777 -25.89568,14.3491 -4.41105,1.17778 -5.94503,1.34393 -12.4105,1.34478 -6.98879,0 -8.22016,-0.13796 -11.58655,-1.30701 -4.82713,-1.67624 -8.59241,-4.24915 -12.77625,-8.73036 -4.60492,-4.93217 -7.1499,-8.99826 -15.23615,-24.34253 -5.63667,-10.69605 -8.76533,-16.20093 -11.66736,-20.52865 -4.51155,-6.72791 -7.75934,-9.51681 -11.74325,-10.08379 -6.38686,-0.90911 -12.65695,4.75604 -21.23674,19.18796 -1.9768,3.32513 -2.88455,5.05862 -2.88455,5.50858 0,1.03811 0.96261,5.5072 3.50289,16.26257 2.16485,9.16589 2.95725,12.77027 3.54237,16.11295 0.79067,4.51704 0.96828,6.39234 1.0565,11.15496 0.0769,4.15593 -0.0616,6.78493 -0.48489,9.20242 -0.16487,0.94148 -0.2679,1.76593 -0.22897,1.83221 0.039,0.0665 0.55333,0.79942 1.14311,1.62935 1.18557,1.66822 4.96744,7.57299 5.37285,8.38879 l 0.25748,0.51809 -0.30898,0.26279 c -0.16993,0.14453 -1.0032,0.75949 -1.8517,1.36656 -3.92373,2.80736 -6.05589,5.96989 -7.21458,10.70092 -1.31557,5.37156 -1.07564,11.43648 0.53206,13.44876 0.51803,0.64842 0.33642,0.75319 -2.25907,1.30326 -8.84886,1.87541 -19.57645,2.74887 -22.57123,1.83781 -0.29697,-0.0903 -0.61877,-0.13263 -0.71512,-0.0939 -0.37549,0.15078 -0.76453,1.13721 -3.0927,7.84158 -3.53321,10.17447 -3.96397,11.98292 -5.09949,21.40956 -1.27228,10.56198 -4.53784,41.95003 -4.53784,43.61692 0,0.24337 0.005,0.24405 1.87958,0.27593 1.03378,0.0176 11.05616,0.0415 22.27194,0.0533 l 20.39234,0.0215 z m -25.74501,-13.3193 c -0.61237,-0.29974 -1.31405,-1.06461 -1.62374,-1.76994 -0.18309,-0.41701 -0.22395,-0.71264 -0.22673,-1.64035 -0.003,-1.02115 0.0244,-1.19075 0.28059,-1.73651 0.34064,-0.72554 1.22555,-1.63453 1.90452,-1.95637 0.67469,-0.31983 1.57408,-0.31403 2.17314,0.0139 0.6558,0.35911 1.30788,1.03321 1.60692,1.66122 0.23526,0.49403 0.26243,0.67877 0.26243,1.78383 0,0.678 -0.056,1.4284 -0.12449,1.66756 -0.16617,0.58043 -1.08702,1.60614 -1.75433,1.95414 -0.72234,0.37668 -1.75564,0.38596 -2.49831,0.0225 z m 13.88575,-35.2736 c -0.61861,-0.22939 -1.31434,-0.9179 -1.64972,-1.63263 -0.2551,-0.54363 -0.28901,-0.73601 -0.28901,-1.63979 0,-0.8999 0.0344,-1.0973 0.28448,-1.63008 0.35103,-0.74804 1.12811,-1.52501 1.90738,-1.90709 0.78963,-0.3872 2.01256,-0.40975 2.66195,-0.0491 1.03657,0.5757 1.62902,1.75265 1.61533,3.20905 -0.0164,1.7416 -1.00018,3.32886 -2.30627,3.72085 -0.50886,0.15271 -1.72527,0.11376 -2.22414,-0.0712 z m 38.0602,-11.78746 c -2.18986,-0.26397 -4.06581,-1.06768 -6.42366,-2.75205 -4.92491,-3.51819 -5.23725,-3.65417 -8.67557,-3.777 -3.29999,-0.11791 -4.85826,-0.6583 -5.34701,-1.85426 -1.04818,-2.56492 0.88718,-12.57237 3.98997,-20.63139 1.66979,-4.33699 3.768,-7.65912 7.09246,-11.22951 2.68361,-2.88214 4.56889,-4.38287 7.48977,-5.9624 l 1.71282,-0.92619 4.95362,0.0703 c 2.72448,0.0386 5.27805,0.11997 5.67456,0.18068 0.97847,0.14971 1.8836,0.47058 2.97389,1.05418 1.16294,0.62253 1.91056,1.37058 2.35821,2.35965 0.30812,0.68077 0.33191,0.81331 0.32521,1.81227 -0.006,0.93491 -0.0768,1.35636 -0.53228,3.17945 -0.28877,1.15591 -0.89462,3.36268 -1.34633,4.9039 -1.53634,5.242 -2.08968,7.5095 -2.51178,10.29282 -0.2306,1.52068 -0.23714,1.7691 -0.24277,9.21502 -0.006,7.98799 -0.0441,8.81634 -0.46176,10.06096 -0.2835,0.84476 -0.73795,1.5244 -1.57321,2.35277 -0.82953,0.82268 -1.6969,1.34867 -2.5424,1.54174 -0.70176,0.16025 -5.81939,0.24099 -6.91374,0.10901 z m -24.70468,-6.69515 c -0.59477,-0.0502 -1.75343,-0.18766 -2.5748,-0.30547 -0.82134,-0.11782 -2.79106,-0.38313 -4.37713,-0.58959 -1.58607,-0.20645 -3.12744,-0.45222 -3.42526,-0.54617 -1.25206,-0.39498 -1.97433,-1.90728 -2.29768,-4.81094 -0.15154,-1.36085 -0.07,-4.61957 0.15545,-6.21547 0.68662,-4.85949 1.97635,-7.75908 4.8396,-10.88044 1.37664,-1.50081 2.73948,-2.59192 4.23265,-3.38887 1.87131,-0.99879 2.19735,-1.0745 4.88906,-1.13582 2.53857,-0.058 5.6852,0.0957 7.39891,0.36111 0.60383,0.0935 1.10684,0.17875 1.11779,0.18949 0.0104,0.0104 -0.30669,0.76999 -0.70584,1.68729 -1.71941,3.95114 -2.95188,7.62891 -4.04425,12.06826 -1.00105,4.06825 -1.425,6.91013 -1.43096,9.59228 -0.005,2.10272 0.0391,2.25404 0.9702,3.35307 l 0.62904,0.74251 -2.14769,-0.015 c -1.18123,-0.008 -2.63431,-0.0561 -3.22909,-0.10623 z m 76.1623,-53.01495 c 1.82787,-0.15666 3.52971,-0.48311 6.17949,-1.1855 8.99177,-2.38328 17.29826,-6.68898 23.77935,-12.32619 1.22232,-1.06313 4.32509,-4.1573 4.24886,-4.2371 -0.0222,-0.0232 -0.32273,0.13108 -0.66796,0.34281 -0.9527,0.58438 -2.51889,1.20095 -3.72367,1.46606 -1.47023,0.32351 -3.85619,0.32691 -5.56155,0.008 -6.52122,-1.21964 -14.65859,-6.15096 -24.04854,-14.57342 -10.61659,-9.52284 -22.4211,-22.92846 -34.20857,-38.84844 -6.5348,-8.82577 -11.72179,-15.0111 -18.6661,-22.2585 -7.71885,-8.05577 -13.00718,-12.40628 -16.59317,-13.65065 -0.38857,-0.13486 -0.87371,-0.19658 -1.54488,-0.19658 -0.93437,0 -1.01109,0.0186 -1.70447,0.40616 -0.86671,0.48487 -2.28102,1.77364 -3.13087,2.85308 -2.89285,3.67414 -5.94147,10.627 -7.83824,17.87632 -1.34497,5.14044 -4.2148,12.62814 -8.22919,21.47106 -1.55952,3.43529 -1.78423,4.2653 -2.12095,7.83361 -0.36641,3.88309 -0.30698,8.23731 0.16552,12.12503 0.32697,2.69033 0.23031,2.55647 0.91642,1.26862 2.19344,-4.11738 6.20949,-10.44848 8.68129,-13.68572 3.57807,-4.68591 6.71988,-7.52718 9.71503,-8.78567 1.60425,-0.67413 2.30001,-0.8158 4.00893,-0.81618 1.34439,-3.1e-4 1.67853,0.0371 2.57478,0.28527 2.11921,0.58783 4.03462,1.85514 6.12801,4.05426 3.90386,4.10116 8.13085,10.98132 16.32462,26.57115 8.09566,15.40313 10.65962,19.45671 15.54772,24.58069 4.19254,4.39476 7.72403,6.7422 12.63057,8.3955 1.75904,0.59278 3.14742,0.89914 4.60829,1.01686 1.58151,0.12746 11.06874,0.13465 12.52928,0.009 z m 16.26432,-88.53653 c 1.40537,-0.23275 2.36895,-0.47128 2.59105,-0.64123 0.17182,-0.13147 0.17641,-0.20176 0.0573,-0.87812 -0.28659,-1.62766 -3.08567,-10.84584 -4.28458,-14.11034 -1.24,-3.37636 -2.44635,-5.58861 -3.82894,-7.02184 -0.76951,-0.79764 -2.49532,-2.06564 -3.12629,-2.29692 -0.97062,-0.35587 -5.75338,-0.22308 -7.72437,0.21436 -2.87355,0.63774 -8.49839,2.62645 -9.35816,3.30861 -0.31791,0.25221 -0.34178,0.31123 -0.2905,0.71808 0.13222,1.04893 2.51355,5.19412 4.50092,7.8347 2.4114,3.20402 10.21612,10.33771 12.80413,11.70327 0.97396,0.51391 2.67342,1.09257 3.74982,1.27679 1.10095,0.18841 3.43239,0.13743 4.9096,-0.10739 z m -5.5532,-2.80188 c -1.94985,-0.44926 -5.32132,-2.51978 -8.18783,-5.02849 -1.66502,-1.45726 -5.27991,-5.1979 -6.1716,-6.38641 -0.35094,-0.46765 -0.82595,-1.24142 -1.05561,-1.71943 l -0.41755,-0.86902 0.29492,-0.25197 c 0.69911,-0.59728 1.83412,-1.31528 3.30611,-2.09152 3.54693,-1.87045 5.25785,-2.30526 7.31785,-1.86002 3.80734,0.82299 6.90949,4.77606 7.94265,10.12134 0.28562,1.47765 0.43021,3.94365 0.32051,5.46587 -0.13193,1.83066 -0.37615,2.29174 -1.38555,2.61602 -0.60601,0.19458 -1.13054,0.19559 -1.9639,0.008 z m -46.70248,-17.47355 c 0.70047,-0.21768 1.28707,-0.79904 1.39096,-1.37862 0.11354,-0.63357 -0.0943,-1.14526 -0.78633,-1.93563 -1.08039,-1.23386 -3.12813,-2.74402 -7.25179,-5.34823 -7.64711,-4.82927 -9.54059,-6.233 -13.23443,-9.8115 -2.30942,-2.23736 -5.44731,-5.12667 -7.73103,-7.11871 -11.00681,-9.60086 -24.68938,-19.4957 -36.50386,-26.39851 -2.283,-1.33389 -8.01869,-4.43671 -7.82737,-4.2344 0.12821,0.13557 1.82901,1.36633 4.58313,3.31657 22.25492,15.75877 39.08995,30.32895 45.86856,39.69761 3.14115,4.34139 5.95378,7.05195 10.07646,9.71077 1.72708,1.11381 2.82253,1.70475 4.20748,2.26949 1.11297,0.45391 2.82944,1.00034 3.70229,1.17855 0.31155,0.0633 0.65916,0.1348 0.77244,0.15812 0.57234,0.11796 2.21899,0.054 2.73349,-0.10554 z"
     style="fill:#000000;stroke-width:0.10535777" />
  <rect
     y="-1523.7515"
     x="-1696.2919"
     height="112.37264"
     width="519.05463"
     id="rect4573"
     style="fill:none;fill-opacity:1;stroke:#000000;stroke-width:0.1;stroke-miterlimit:4;stroke-dasharray:none;stroke-opacity:1" />
  <path
     d="m -792.78586,-1619.6346 c 27.98943,12.0635 55.5587,25.0918 83.49709,37.2772 35.83782,14.7979 71.04377,30.7844 107.736,43.3776 24.57053,8.2178 49.90207,14.7591 75.2771,20.1407 3.27092,0.8123 6.50476,1.792 9.81276,2.4368 8.21992,1.6023 16.65911,2.2421 24.8577,4.0541 14.27524,3.155 0.19848,1.0642 13.32607,2.7365 9.37753,1.4348 17.92493,4.88 26.65059,8.352 4.14378,1.4313 8.36321,2.1125 12.7111,2.3601 0,0 -65.09682,46.0068 -65.09682,46.0068 v 0 c -4.6672,-0.9385 -9.18835,-2.42 -13.59016,-4.235 -8.06844,-3.3824 -16.4553,-5.8253 -25.0813,-7.3484 -15.80858,-3.4089 -31.70803,-6.3781 -47.43585,-10.1386 -25.05608,-6.1734 -50.15013,-12.8485 -74.34005,-21.8332 -36.46698,-13.1397 -71.34753,-29.8442 -107.29627,-44.2899 -28.58868,-12.1213 -56.88471,-25.2309 -86.60955,-34.4002 0,0 65.58159,-44.4965 65.58159,-44.4965 z"
     id="path4575"
     style="fill:none;fill-opacity:1;stroke:#000000;stroke-width:0.1;stroke-miterlimit:4;stroke-dasharray:none;stroke-opacity:1" />
  <path
     d="m -1056.2755,-1536.4033 c 39.6249,1.3885 79.30865,-2.5821 118.8528,-5.1094 85.43668,-8.0128 171.0218,-14.2776 256.52401,-21.5184 85.97079,-6.7428 172.14762,-10.9455 258.35757,-12.8702 58.08385,-1.1756 116.17982,-1.8438 174.2755,-1.9079 40.34317,-0.634 80.69189,-0.3484 120.67608,5.4063 25.05374,1.8179 49.671852,6.3657 74.264219,11.2073 6.716527,2.4084 14.500407,1.3314 21.275326,3.2168 7.294855,2.0302 0.50364,1.5044 4.831534,1.7035 0,0 -65.806366,45.1985 -65.806366,45.1985 v 0 c -7.417033,-3.5028 -16.804603,-2.488 -24.442033,-5.534 -23.83212,-5.424 -47.85299,-9.6101 -72.20729,-11.9748 -39.34113,-5.207 -78.94592,-6.1289 -118.60575,-5.6247 -57.1961,-0.1142 -114.39579,-0.7277 -171.58993,0.1474 -85.5222,1.7315 -171.06742,4.0615 -256.29701,11.9047 -86.45178,7.3298 -172.96823,13.9533 -259.22269,23.4312 -41.67267,3.6078 -83.35097,7.7975 -125.17407,9.0317 0,0 64.2881,-46.708 64.2881,-46.708 z"
     id="path4577"
     style="fill:none;fill-opacity:1;stroke:#000000;stroke-width:0.1;stroke-miterlimit:4;stroke-dasharray:none;stroke-opacity:1" />
  <path
     d="m -89.430432,-1511.1467 c -19.096178,-0.5645 -38.205628,-0.4711 -57.308358,-0.6276 -38.7755,0.5905 -77.41957,-3.1976 -115.81617,-8.2302 -58.43635,-7.1719 -116.58165,-16.5149 -175.0904,-23.054 -67.08214,-6.4155 -134.35391,-9.7678 -201.69944,-11.5547 -51.24103,-1.122 -102.50115,-1.0735 -153.75,-0.6123 -27.02821,-0.022 -54.25115,1.4878 -80.45812,8.4413 -12.11962,1.7904 -24.10925,4.0138 -35.77203,7.8349 -2.80485,0.1091 -5.51623,0.7955 -8.24968,1.3514 0,0 63.68567,-48.0926 63.68567,-48.0926 v 0 c 2.54103,-0.4288 5.10243,-0.7495 7.53279,-1.6714 11.49627,-2.607 23.10013,-4.4495 34.69238,-6.5576 26.19634,-5.0869 52.90434,-6.4197 79.55937,-5.6056 50.4479,0.6033 100.89738,1.0979 151.32811,2.6332 67.38818,2.3488 134.73772,5.8521 201.88892,12.1217 59.00008,6.4232 117.69151,15.3112 176.66351,22.0141 39.16964,4.185 78.49296,7.0238 117.915717,5.6232 19.678717,-0.1577 39.3633,-0.075 59.036054,-0.6276 0,0 -64.158323,46.6138 -64.158323,46.6138 z"
     id="path4579"
     style="fill:none;fill-opacity:1;stroke:#000000;stroke-width:0.1;stroke-miterlimit:4;stroke-dasharray:none;stroke-opacity:1" />
  <ellipse
     cy="-1352.5168"
     cx="615.37402"
     style="fill:#000000;stroke:none"
     id="path4583"
     r="1.5" />
  <ellipse
     cy="-1363.2191"
     cx="593.96967"
     style="fill:#000000;stroke:none"
     id="path4585"
     r="1.5" />
  <path
     id="path4593"
     d="M 200.23182,558.86263 H 647.51287"
     style="fill:none;stroke:#000000;stroke-width:1.2727133;stroke-linecap:butt;stroke-linejoin:miter;stroke-miterlimit:4;stroke-dasharray:none;stroke-opacity:1;marker-start:url(#Arrow1Lstart);marker-end:url(#Arrow1Lend)" />
  <text
     id="text5535"
     y="566.63281"
     x="382.84503"
     style="font-style:normal;font-weight:normal;font-size:22.73203468px;line-height:1.25;font-family:sans-serif;letter-spacing:0px;word-spacing:0px;fill:#000000;fill-opacity:1;stroke:none;stroke-width:0.5683009"
     xml:space="preserve"
     transform="scale(0.97754157,1.0229744)"><tspan
       y="566.63281"
       x="382.84503"
       id="tspan5533"
       style="stroke-width:0.5683009">40mm</tspan></text>
  <path
     id="path5537"
     d="M 161.15927,80.44207 V 530.45919"
     style="fill:none;stroke:#000000;stroke-width:1.23762405;stroke-linecap:butt;stroke-linejoin:miter;stroke-miterlimit:4;stroke-dasharray:none;stroke-opacity:1;marker-start:url(#marker5547);marker-end:url(#marker5581)" />
  <text
     transform="matrix(0,-1.0229744,0.97754157,0,0,0)"
     id="text5627"
     y="158.38455"
     x="-331.22134"
     style="font-style:normal;font-weight:normal;font-size:22.73203468px;line-height:1.25;font-family:sans-serif;letter-spacing:0px;word-spacing:0px;fill:#000000;fill-opacity:1;stroke:none;stroke-width:0.5683009"
     xml:space="preserve"><tspan
       y="158.38455"
       x="-331.22134"
       id="tspan5625"
       style="stroke-width:0.5683009">40mm</tspan></text>
  <circle
     r="227.20575"
     cy="305.92807"
     cx="429.16644"
     id="path6080"
     style="fill:none;fill-opacity:1;stroke:#000000;stroke-width:2;stroke-miterlimit:4;stroke-dasharray:none;stroke-opacity:1" />
</svg>
