<?xml version="1.0" encoding="UTF-8" standalone="no"?>
<svg
   xmlns:dc="http://purl.org/dc/elements/1.1/"
   xmlns:cc="http://creativecommons.org/ns#"
   xmlns:rdf="http://www.w3.org/1999/02/22-rdf-syntax-ns#"
   xmlns:svg="http://www.w3.org/2000/svg"
   xmlns="http://www.w3.org/2000/svg"
   viewBox="0 0 264.56693 264.56691"
   height="70mm"
   width="70mm"
   id="svg869"
   version="1.1">
  <metadata
     id="metadata875">
    <rdf:RDF>
      <cc:Work
         rdf:about="">
        <dc:format>image/svg+xml</dc:format>
        <dc:type
           rdf:resource="http://purl.org/dc/dcmitype/StillImage" />
        <dc:title></dc:title>
      </cc:Work>
    </rdf:RDF>
  </metadata>
  <defs
     id="defs873" />
  <path
     id="path879"
     d="m 116.89469,191.76286 c -3.45069,-0.73326 -7.97871,-2.34684 -11.77621,-4.1965 -17.463769,-8.50618 -29.241934,-25.53924 -31.237498,-45.17432 -0.399994,-3.93567 -0.13324,-16.49899 0.440348,-20.73878 3.181709,-23.518504 13.720139,-46.303215 31.57479,-68.266542 8.86522,-10.905275 18.61898,-20.388536 36.38553,-35.376508 8.28147,-6.986265 8.90518,-7.477345 8.03721,-6.32806 -17.74098,23.491084 -22.05143,29.926193 -27.8408,41.563865 -4.27361,8.590686 -6.9756,15.973005 -9.04166,24.703492 -1.44423,6.102811 -1.37805,5.547421 -0.63615,5.338086 6.60273,-1.863152 8.69899,-2.171653 15.83958,-2.331031 5.70777,-0.127455 6.30834,-0.185785 6.14134,-0.596742 -0.46991,-1.156418 -1.53043,-7.21231 -1.81518,-10.365507 -0.93748,-10.380263 1.69367,-22.779521 7.497,-35.329677 1.75874,-3.803402 5.30076,-10.833915 5.39646,-10.711369 0.0429,0.05472 -0.0954,1.670422 -0.30734,3.590306 -0.79482,7.204377 -0.12237,15.575372 1.85066,23.038792 3.11594,11.786617 8.54373,22.880618 21.04061,43.00555 10.42141,16.782605 11.96782,19.617345 13.92318,25.522795 1.94918,5.88671 2.52349,9.38739 2.68513,16.36648 0.11253,4.85707 0.0459,6.80661 -0.31808,9.30531 -1.33752,9.18366 -4.67239,17.52968 -10.00644,25.04264 -1.63015,2.29602 -8.40281,10.06959 -8.59241,9.86219 -0.0445,-0.0485 0.23265,-2.41303 0.61556,-5.25446 0.97805,-7.25807 1.02875,-17.48046 0.11616,-23.41727 -2.00511,-13.04364 -5.96511,-22.42441 -17.14041,-40.60366 -7.18912,-11.694784 -10.35008,-17.47806 -12.57995,-23.016289 l -0.91908,-2.28266 -2.38077,-0.199779 c -4.00024,-0.335659 -10.85529,0.04689 -14.44491,0.806142 -3.37266,0.713339 -6.80228,1.688384 -7.47575,2.125368 -0.49281,0.319773 -0.80331,3.119549 -0.82722,7.458938 -0.045,8.16707 1.67297,16.0269 5.28947,24.19962 1.78276,4.02877 3.88937,7.99503 8.70636,16.39208 5.227,9.11182 7.32998,12.99056 9.27041,17.09832 5.90179,12.49366 7.29217,23.0419 3.92302,29.76231 -2.18105,4.35057 -7.06065,8.11141 -11.85,9.13314 -2.55023,0.54403 -6.64332,0.48988 -9.54295,-0.1263 z m 8.97427,-3.7847 c 4.62554,-1.21311 8.38149,-4.66679 9.67493,-8.89621 0.47578,-1.55575 0.60843,-2.67385 0.60125,-5.06797 -0.0244,-8.11514 -3.11666,-16.35202 -11.90582,-31.71259 -1.18108,-2.06419 -3.33168,-5.82656 -4.77907,-8.36081 -9.49818,-16.63047 -12.45689,-26.15305 -12.21257,-39.305837 0.0492,-2.649649 0.0552,-4.817375 0.0131,-4.817163 -0.25467,10e-4 -4.20561,2.128892 -5.54013,2.98351 -10.018794,6.415838 -17.903422,16.59014 -21.547353,27.80461 -4.241023,13.05208 -3.321829,26.84576 2.60998,39.16616 5.180774,10.76051 13.528952,19.14171 24.200783,24.2965 7.53769,3.64091 14.45194,5.07241 18.88476,3.9098 z m 47.8901,-23.77984 c 3.03498,-4.94846 5.47264,-11.28575 6.70834,-17.43985 0.56331,-2.80558 0.63846,-3.97921 0.63298,-9.8857 -0.005,-6.20688 -0.0613,-6.96133 -0.75241,-10.20919 -1.38477,-6.50848 -4.19976,-13.36108 -7.56458,-18.41467 -5.15263,-7.73873 -12.72586,-14.411936 -20.79493,-18.323656 -2.94382,-1.427111 -7.63307,-3.151133 -10.0337,-3.688963 -1.15582,-0.258945 -1.15822,-0.25778 -0.89708,0.433871 0.63997,1.694926 3.70413,7.767184 5.46367,10.827346 1.05972,1.843098 3.86004,6.492712 6.22287,10.332512 6.52165,10.59809 9.68603,16.4318 12.42123,22.89908 2.7304,6.45608 4.94237,14.68195 5.85722,21.78209 0.1979,1.53589 0.36422,5.58703 0.3696,9.00251 0.0115,7.09037 -0.19319,6.85857 2.36679,2.68462 z M 87.036987,100.51105 C 91.99497,94.666253 97.900915,90.041861 104.8612,86.554592 l 3.11778,-1.562061 0.47822,-2.683742 c 2.42413,-13.603698 9.58338,-30.712986 19.11831,-45.689362 0.7823,-1.228732 1.52592,-2.422548 1.6525,-2.652945 0.45721,-0.832215 -9.14487,8.897523 -12.95288,13.125101 C 99.64054,65.55887 87.918505,85.17131 82.122139,104.2338 c -1.60633,5.28274 -1.577014,5.3557 0.748534,1.86242 1.146075,-1.72156 3.020916,-4.23489 4.166314,-5.58517 z M 160.49091,88.212208 C 149.45922,70.126785 143.8905,56.80403 142.06072,44.119406 l -0.35678,-2.473338 -0.9099,2.513306 c -3.16905,8.753601 -4.58699,17.892954 -3.93538,25.365331 0.52531,6.023927 1.94877,12.194773 2.81307,12.194773 0.27083,0 1.96726,0.382156 3.76988,0.849251 5.95669,1.543485 12.29323,4.446301 17.28296,7.917429 0.99149,0.689736 1.83317,1.261371 1.87044,1.270315 0.0374,0.0095 -0.90959,-1.585971 -2.1041,-3.544265 z"
     style="fill:#000000;stroke-width:0.27829549" />
  <circle
     r="93.748154"
     cy="102.17604"
     cx="136.51167"
     id="path881"
     style="opacity:1;fill:none;fill-opacity:1;stroke:#000000;stroke-width:1.48007536;stroke-miterlimit:4;stroke-dasharray:none;stroke-opacity:1" />
  <text
     id="text885"
     y="215.00987"
     x="110.97987"
     style="font-style:normal;font-weight:normal;font-size:13.33333302px;line-height:1.25;font-family:sans-serif;letter-spacing:0px;word-spacing:0px;fill:#000000;fill-opacity:1;stroke:none"
     xml:space="preserve"><tspan
       y="215.00987"
       x="110.97987"
       id="tspan883">50.00mm</tspan></text>
</svg>
