<?xml version="1.0" encoding="UTF-8" standalone="no"?>
<!-- Created with Inkscape (http://www.inkscape.org/) -->

<svg
   xmlns:dc="http://purl.org/dc/elements/1.1/"
   xmlns:cc="http://creativecommons.org/ns#"
   xmlns:rdf="http://www.w3.org/1999/02/22-rdf-syntax-ns#"
   xmlns:svg="http://www.w3.org/2000/svg"
   xmlns="http://www.w3.org/2000/svg"
   xmlns:sodipodi="http://sodipodi.sourceforge.net/DTD/sodipodi-0.dtd"
   xmlns:inkscape="http://www.inkscape.org/namespaces/inkscape"
   width="210mm"
   height="297mm"
   viewBox="0 0 210 297"
   version="1.1"
   id="svg289"
   sodipodi:docname="50hexa-ailsabay.svg"
   inkscape:version="0.92.2 5c3e80d, 2017-08-06">
  <defs
     id="defs283" />
  <sodipodi:namedview
     id="base"
     pagecolor="#ffffff"
     bordercolor="#666666"
     borderopacity="1.0"
     inkscape:pageopacity="0.0"
     inkscape:pageshadow="2"
     inkscape:zoom="0.35"
     inkscape:cx="400"
     inkscape:cy="560"
     inkscape:document-units="mm"
     inkscape:current-layer="layer1"
     showgrid="false"
     inkscape:window-width="1440"
     inkscape:window-height="809"
     inkscape:window-x="0"
     inkscape:window-y="1"
     inkscape:window-maximized="1" />
  <metadata
     id="metadata286">
    <rdf:RDF>
      <cc:Work
         rdf:about="">
        <dc:format>image/svg+xml</dc:format>
        <dc:type
           rdf:resource="http://purl.org/dc/dcmitype/StillImage" />
      </cc:Work>
    </rdf:RDF>
  </metadata>
  <g
     inkscape:label="Layer 1"
     inkscape:groupmode="layer"
     id="layer1">
    <path
       d="m 47.555692,138.59143 c -1.229565,-2.13891 -3.413858,-4.58127 -3.095147,-6.72296 l 30.874542,-54.528521 62.727553,0.09075 31.27093,54.954341 -31.23941,54.30261 -62.801159,-0.0842 z m 26.03073,53.21695 h 66.875628 c 1.20378,-0.34524 34.47318,-58.12861 34.45567,-59.42886 -0.0264,-1.94363 -31.94987,-55.480118 -33.55981,-60.163688 H 73.586422 c -2.201785,0.429129 -7.984328,12.260139 -9.148629,14.147335 L 38.598951,131.96927 c -0.270757,1.5409 2.736664,5.71701 3.582757,7.224 1.566562,2.79083 2.88927,5.03098 4.435247,7.83979 l 17.506528,30.26902 c 1.506006,2.44443 6.763956,13.44924 9.462939,14.5063 z"
       style="fill:#1b1918;fill-rule:evenodd;stroke-width:0.99940223"
       id="path190"
       inkscape:connector-curvature="0" />
    <path
       d="m 85.923155,95.449505 c 0.108869,-0.107645 0.284425,-0.427742 0.332581,-0.317289 L 101.04389,86.1232 c 6.78306,-4.079198 5.58626,-3.474638 16.5658,2.891843 l 17.37801,10.572858 c 3.08426,2.504049 10.13833,5.500059 14.02479,8.519349 l 0.14737,48.53466 c -1.82728,1.53749 -7.84239,4.82001 -10.3262,6.13623 -3.64983,1.93465 -6.5417,3.82672 -10.40346,6.00213 -2.5381,1.4299 -19.85526,11.84891 -21.42989,11.92366 -2.95832,0.14084 -37.107696,-21.47499 -42.495086,-23.65877 l -0.03696,-49.27622 C 70.540832,104.93812 83.543644,95.849167 85.92312,95.449387 Z m -25.219724,10.372525 -0.06783,53.16948 22.858324,13.25866 c 2.460728,1.35589 22.197005,12.85874 23.017935,12.9376 1.74087,0.16695 21.30685,-11.71551 22.97145,-12.65034 4.21138,-2.36521 7.84081,-4.50332 11.61858,-6.78652 3.31162,-2.00176 8.62062,-4.62668 11.55117,-6.68404 l 0.008,-53.30963 C 146.2253,101.53809 109.33444,79.077011 106.9119,78.937216 105.51636,78.856738 86.863311,90.066317 83.599251,91.856263 73.120823,97.603146 69.845986,101.03838 60.702853,105.82203 Z"
       style="fill:#1b1918;fill-rule:evenodd;stroke-width:0.99940223"
       id="path192"
       inkscape:connector-curvature="0" />
    <path
       d="m 88.599449,98.233172 h 36.849781 l 19.79185,34.120098 c -3.49381,7.72964 -17.21433,28.3782 -19.02693,33.52035 H 88.599449 c -2.844201,-0.63133 -20.030626,-32.6467 -20.039121,-33.52368 -0.0031,-0.37055 17.520935,-32.800589 20.039121,-34.116768 z m -2.676294,-2.783667 c -2.905263,6.667025 -6.299041,11.899425 -9.840519,18.260285 -12.797551,22.98518 -13.592576,13.57378 -0.535881,36.46483 2.31711,4.06232 8.126643,15.31013 10.585475,18.06137 l 41.28262,0.034 20.39988,-35.89623 c -0.0155,-1.33789 -8.78604,-16.20474 -10.14915,-18.39101 -4.05856,-6.51036 -6.74564,-12.21644 -10.27194,-18.268648 z"
       style="fill:#1b1918;fill-rule:evenodd;stroke-width:0.99940223"
       id="path194"
       inkscape:connector-curvature="0" />
    <path
       d="m 124.76694,143.31811 c -1.0561,2.07825 -1.48444,2.88049 -2.59098,4.88186 -1.07173,1.93876 -2.10454,3.29526 -2.71956,5.52591 l -12.62684,-0.0155 4.32229,-2.88858 c 1.93407,-1.00291 2.56718,-1.26304 4.44864,-2.39159 2.58557,-1.55087 6.58267,-4.15359 9.16645,-5.11423 z m -36.276322,-0.23683 c 3.465121,1.64652 5.89437,3.30128 8.967025,4.9912 1.533283,0.84328 2.918667,1.59504 4.368497,2.47741 l 4.71037,3.12973 c -15.117645,0.0723 -10.407268,2.38946 -18.045892,-10.59834 z m 27.273672,-25.35665 c 1.79644,1.71518 5.89181,4.1758 8.20632,4.44015 l -0.17754,19.7423 -12.52862,7.62063 c -6.62693,3.84908 -4.15031,2.13395 -13.21429,-2.40858 -3.381276,-2.20597 -7.806824,-3.89817 -8.304036,-5.89465 l 0.0031,-17.74239 c 0.355597,-1.39419 10.453456,-7.08557 12.453066,-8.22051 2.46242,-1.39774 3.83878,-2.79983 6.36625,-1.59862 2.53573,1.20536 4.97087,2.84502 7.19643,4.06167 z m -27.20952,4.17611 -0.06413,21.18054 c -0.905656,-1.47951 -5.712378,-9.34255 -5.818323,-10.19792 -0.222056,-1.79435 4.797826,-9.43746 5.88249,-10.98262 z m 36.21217,21.41748 0.0155,-19.14164 c -0.63741,-3.52322 0.0884,-0.9862 -0.81072,-2.0118 -0.6535,-1.29226 1.69268,0.0959 -3.81512,-2.95063 l -13.5338,-8.23358 12.81224,0.007 c 0.86628,3.41733 6.71495,12.49274 8.6828,15.9564 1.8423,3.24224 3.74365,4.39786 1.53286,8.19078 -1.11684,1.91624 -3.73304,7.0179 -4.88265,8.18381 z M 88.55477,121.90074 c 0.785038,-1.79413 5.20689,-10.46585 6.868697,-10.92017 l 10.405483,0.81231 -8.264571,4.92986 c -2.651805,1.40443 -6.27834,4.09055 -9.009609,5.178 z m 4.89768,32.98513 26.76129,0.0884 c 1.1876,-3.31499 4.20919,-7.46123 6.07669,-10.86318 l 6.1288,-10.5378 c 0.11264,-0.1329 0.30935,-0.32558 0.40466,-0.43323 0.0975,-0.10997 0.27272,-0.29767 0.41874,-0.43654 l -0.13892,15.6886 c 2.32142,-2.16929 1.17649,-20.52001 1.21898,-24.2271 0.01,-0.98789 0.15328,-3.34262 0.0892,-4.14483 -0.34826,-4.3626 -0.77598,-3.30219 -1.40107,-3.66761 l 0.27989,15.68483 c -2.62759,-2.24515 -12.42764,-20.36593 -13.19196,-22.22309 l -26.548731,0.0385 c -2.377178,3.64802 -3.824708,6.98263 -6.259067,10.95246 -8.197782,13.36901 -8.408658,9.6793 -0.326013,22.73598 2.078062,3.35708 4.935354,7.85042 6.487524,11.34491 z"
       style="fill:#1b1918;fill-rule:evenodd;stroke-width:0.99940223"
       id="path196"
       inkscape:connector-curvature="0" />
    <path
       d="m 93.549992,109.85242 c 0.734954,-1.00029 11.577968,-7.39371 12.873878,-7.48984 1.78397,-0.13261 5.06267,2.07795 6.95346,3.17941 1.11021,0.64652 2.36038,1.46014 3.37277,2.04987 0.3959,0.23042 1.58365,0.89556 1.7436,0.99982 0.12659,0.0823 0.30028,0.19529 0.41934,0.27801 l 0.79972,0.61779 c 0.0846,0.0649 0.26668,0.20738 0.38596,0.32637 4.20169,1.47684 9.45521,6.07177 12.91205,6.53829 0.62516,0.36529 1.0527,-0.69498 1.40107,3.66762 0.0639,0.80223 -0.0781,3.1569 -0.0892,4.14481 -0.0423,3.70708 1.10243,22.05782 -1.21897,24.22714 -4.07834,0.42244 -8.23357,4.9309 -12.88988,6.58215 l -6.3939,3.97341 c -0.98409,0.59643 -6.01167,3.57478 -6.90656,3.63793 -1.63342,0.11529 -12.393177,-6.54557 -13.460837,-7.69959 l -10.403187,-5.38429 c -1.919148,-1.09983 -2.051166,-0.83958 -2.806713,-2.8178 l 0.01663,-28.66087 c 0.51369,-2.50041 11.14743,-7.45096 13.290949,-8.17043 z m -15.116267,6.06503 0.01091,32.98659 c 2.550675,1.53359 26.890735,15.50324 27.961965,15.58958 1.89827,0.15266 26.6115,-14.22129 28.51306,-15.61076 l -4.8e-4,-32.94338 -21.04695,-12.25558 c -2.19198,-1.3028 -5.71078,-2.26155 -6.98312,-4.462838 -2.49272,2.902168 -23.40791,13.360508 -28.455388,16.696388 z"
       style="fill:#1b1918;fill-rule:evenodd;stroke-width:0.99940223"
       id="path198"
       inkscape:connector-curvature="0" />
    <path
       d="m 98.684917,118.54009 8.102443,0.0264 8.10258,0.0264 4.02959,7.02951 4.02948,7.02949 -4.07295,7.00441 -4.073,7.00453 -8.10243,-0.0264 -8.102556,-0.0264 -4.029497,-7.0295 -4.02959,-7.02949 4.072966,-7.0044 z"
       style="fill:none;stroke:#1b1918;stroke-width:0.56656122;stroke-linecap:butt;stroke-linejoin:miter;stroke-dasharray:none"
       id="path200"
       inkscape:connector-curvature="0" />
    <path
       d="m 106.59827,121.53854 a 11.01941,11.01941 0 0 1 11.01943,11.01938 11.01941,11.01941 0 1 1 -11.01943,-11.01938 z"
       style="fill:none;stroke:#1b1918;stroke-width:0.56656122;stroke-linecap:butt;stroke-linejoin:miter;stroke-dasharray:none"
       id="path202"
       inkscape:connector-curvature="0" />
    <path
       d="m 141.61174,69.270456 17.98273,31.095414 17.98269,31.09552 -17.42919,31.4212 -17.42919,31.42112 -35.41182,0.32599 -35.41182,0.3256 L 53.912392,163.85978 35.929747,132.76439 53.358822,101.34317 70.788004,69.921971 106.19993,69.596362 Z"
       style="fill:none;stroke:#1b1918;stroke-width:0.56656122;stroke-linecap:butt;stroke-linejoin:miter;stroke-dasharray:none"
       id="path204"
       inkscape:connector-curvature="0" />
    <g
       transform="matrix(0.99940228,0,0,0.99940228,-5.7113484,23.155036)"
       id="Layer1000">
      <path
         d="m 183.4631,115.4574 0.8521,92.6694"
         style="fill:none;stroke:#006fa6;stroke-width:0.21600001;stroke-linecap:butt;stroke-linejoin:miter;stroke-dasharray:none"
         id="path206"
         inkscape:connector-curvature="0" />
      <path
         d="m 41.7308,116.7605 0.8521,92.6694"
         style="fill:none;stroke:#006fa6;stroke-width:0.21600001;stroke-linecap:butt;stroke-linejoin:miter;stroke-dasharray:none"
         id="path208"
         inkscape:connector-curvature="0" />
      <path
         d="m 143.5949,201.4146 40.6554,-0.3739"
         style="fill:none;stroke:#006fa6;stroke-width:0.21600001;stroke-linecap:butt;stroke-linejoin:miter;stroke-dasharray:none"
         id="path210"
         inkscape:connector-curvature="0" />
      <path
         d="m 42.518,202.3438 41.6633,-0.3829"
         style="fill:none;stroke:#006fa6;stroke-width:0.21600001;stroke-linecap:butt;stroke-linejoin:miter;stroke-dasharray:none"
         id="path212"
         inkscape:connector-curvature="0" />
    </g>
    <text
       x="82.09655"
       y="229.39825"
       id="text217"
       style="font-size:11.99282742px;stroke-width:0.99940223">
      <tspan
         font-size="12.0000"
         id="tspan215"
         style="font-size:11.99282742px;font-family:Arial;fill:#006fa6;stroke-width:0.99940223">50.00 mm</tspan>
    </text>
  </g>
</svg>
