<?xml version="1.0" encoding="UTF-8" standalone="no"?>
<svg
   xmlns:dc="http://purl.org/dc/elements/1.1/"
   xmlns:cc="http://creativecommons.org/ns#"
   xmlns:rdf="http://www.w3.org/1999/02/22-rdf-syntax-ns#"
   xmlns:svg="http://www.w3.org/2000/svg"
   xmlns="http://www.w3.org/2000/svg"
   viewBox="0 0 888 666"
   height="666"
   width="888"
   id="svg2557"
   version="1.1">
  <metadata
     id="metadata2563">
    <rdf:RDF>
      <cc:Work
         rdf:about="">
        <dc:format>image/svg+xml</dc:format>
        <dc:type
           rdf:resource="http://purl.org/dc/dcmitype/StillImage" />
        <dc:title></dc:title>
      </cc:Work>
    </rdf:RDF>
  </metadata>
  <defs
     id="defs2561">
    <marker
       id="Arrow1Lstart"
       orient="auto"
       refX="0.0"
       refY="0.0"
       style="overflow:visible">
      <path
         d="M 0.0,0.0 L 5.0,-5.0 L -12.5,0.0 L 5.0,5.0 L 0.0,0.0 z "
         transform="scale(0.8) translate(12.5,0)"
         style="fill-rule:evenodd;stroke:#000000;stroke-width:1.0pt;marker-start:none"
         id="path2572" />
    </marker>
    <marker
       id="Arrow1Lend"
       orient="auto"
       refX="0.0"
       refY="0.0"
       style="overflow:visible">
      <path
         d="M 0.0,0.0 L 5.0,-5.0 L -12.5,0.0 L 5.0,5.0 L 0.0,0.0 z "
         transform="scale(0.8) rotate(180) translate(12.5,0)"
         style="fill-rule:evenodd;stroke:#000000;stroke-width:1.0pt;marker-start:none"
         id="path2575" />
    </marker>
  </defs>
  <path
     style="fill:#000000;stroke-width:0.36296684"
     d="m 391.95392,413.9962 c -0.51218,-0.82871 0.13969,-2.18307 1.16956,-2.42994 1.29362,-0.3101 3.09916,-1.21854 3.4371,-1.72933 0.14667,-0.22168 0.26917,-5.6394 0.27223,-12.03937 0.006,-12.60231 -0.0748,-13.1629 -1.84328,-12.78231 -0.48038,0.10339 -1.15925,0.30812 -1.50861,0.45496 -1.44073,0.60559 -0.50528,-0.61408 1.45187,-1.89299 1.14788,-0.7501 2.16872,-1.46204 2.26854,-1.5821 0.34544,-0.41551 5.00621,-2.50602 5.58714,-2.50602 0.50696,0 0.58467,0.65315 0.59382,4.9908 l 0.0105,4.99079 1.34,-2.54077 c 1.61029,-3.05324 5.03151,-6.6264 7.58226,-7.91896 3.46542,-1.75606 9.16594,-2.15927 11.24725,-0.79554 1.22502,0.80266 1.20933,3.13666 -0.0294,4.3754 -1.41383,1.41383 -3.3074,1.22706 -5.68701,-0.56095 -2.19045,-1.64587 -3.13652,-1.77396 -5.52879,-0.74851 -2.13208,0.91392 -4.2454,3.05411 -5.43642,5.50555 -1.62573,3.34614 -2.05708,6.46551 -2.05708,14.87589 v 7.60755 l 0.93105,0.35399 c 0.51207,0.19469 1.41392,0.35398 2.0041,0.35398 0.79653,0 1.18117,0.2373 1.49261,0.92082 0.68535,1.5042 -0.0939,1.84297 -5.69814,2.4774 -8.37298,0.94785 -11.29987,1.1042 -11.59933,0.61966 z m -44.29756,-0.75833 c -9.54441,-1.40945 -19.98625,-3.77507 -20.30265,-4.59961 -0.11238,-0.29285 -0.10703,-0.92014 0.0119,-1.39397 0.19119,-0.76179 0.45372,-0.87399 2.26821,-0.96931 l 2.052,-0.10781 0.30261,-40.10784 c 0.16644,-22.05931 0.33166,-40.13695 0.36716,-40.17252 0.0355,-0.0356 1.36934,0.23659 2.96409,0.60482 1.59475,0.36823 3.71622,0.78711 4.71438,0.93083 0.99815,0.14373 2.18233,0.39836 2.63151,0.56584 l 0.81667,0.30451 v 40.63243 40.63243 l 1.17964,0.27528 c 2.32954,0.5436 8.67026,0.25703 11.04298,-0.49909 10.55403,-3.3633 19.12455,-15.09756 22.23745,-30.44622 0.5261,-2.59399 0.74771,-5.07627 0.74771,-8.37502 0,-15.03382 -6.24275,-28.08337 -17.38803,-36.34709 -5.622,-4.16846 -12.33709,-6.9143 -20.95574,-8.56894 -2.56729,-0.49287 -6.30115,-1.23923 -8.29746,-1.65857 -5.60661,-1.17769 -9.10904,-0.77305 -11.30066,1.30559 -0.8782,0.83293 -1.94726,3.4657 -1.93966,4.7768 0.0112,1.93283 1.10669,4.12511 2.75814,5.51955 1.31217,1.10795 1.33138,1.1507 0.28224,0.62805 -1.27547,-0.6354 -3.12025,-2.61183 -3.968,-4.25122 -0.8157,-1.57738 -0.76549,-5.13586 0.0932,-6.60616 1.32487,-2.26847 4.37145,-3.53326 8.51084,-3.53326 1.01266,0 5.78217,0.72585 10.59891,1.613 4.81674,0.88715 10.88107,1.87898 13.47628,2.20406 9.81606,1.22958 14.28068,2.74481 20.67556,7.01697 3.15704,2.1091 8.26622,7.10818 10.44308,10.21805 7.44611,10.63755 10.25496,25.14932 7.30647,37.74855 -3.21132,13.72234 -12.06783,25.90021 -22.42745,30.83817 -5.60338,2.67087 -10.17036,3.11103 -18.90139,1.8217 z M 431.1,408.60081 c -1.16575,-0.39004 -3.14439,-1.85406 -3.94192,-2.91667 -0.4774,-0.63607 -0.76201,-1.70599 -0.859,-3.22915 -0.12174,-1.91194 0.01,-2.59458 0.81938,-4.2491 1.89829,-3.87997 5.29584,-6.4812 15.25477,-11.67939 l 4.63916,-2.42147 -0.22587,-1.67277 c -0.28697,-2.12526 -1.11885,-3.27017 -3.14668,-4.33077 -1.32079,-0.69079 -2.00565,-0.81325 -3.78991,-0.67765 -3.97963,0.30243 -8.96237,2.64245 -10.50079,4.93143 -0.92764,1.38023 -0.87408,1.64318 0.33772,1.65779 0.87414,0.0105 1.1136,0.18809 1.21411,0.90021 0.22532,1.5963 -2.14413,2.48664 -3.36598,1.26479 -0.80797,-0.80796 -0.7086,-2.09032 0.31535,-4.06951 2.71032,-5.23876 9.29579,-8.78988 16.30062,-8.78988 4.86375,0 8.60393,1.77255 10.33936,4.90005 0.51947,0.93616 0.62034,2.66604 0.71915,12.33283 0.0669,6.5486 0.26197,11.4211 0.46705,11.66821 0.52614,0.63395 1.5531,0.22066 2.89699,-1.16589 2.13615,-2.20395 2.53461,-1.34556 0.44768,0.96442 -1.88649,2.08811 -3.79281,2.96452 -6.83039,3.14018 -2.10066,0.12148 -2.7451,0.0182 -3.72041,-0.5965 -1.09839,-0.69222 -1.17964,-0.88127 -1.17964,-2.74507 0,-1.10091 -0.0681,-2.00165 -0.15131,-2.00165 -0.0832,0 -1.18574,1.07998 -2.45003,2.39997 -2.48244,2.59179 -4.3492,4.00664 -7.12764,5.40217 -1.84038,0.92437 -5.13819,1.42627 -6.46177,0.98342 z m 9.06092,-6.17257 c 0.96956,-0.52565 2.97042,-2.1751 4.44634,-3.66544 l 2.68349,-2.70972 v -4.26793 c 0,-2.34736 -0.12495,-4.34516 -0.27768,-4.43955 -0.35133,-0.21714 -5.78703,2.4782 -8.50785,4.21869 -4.12757,2.64037 -6.45907,5.43423 -6.45907,7.73995 0,1.37743 1.36435,3.40794 2.68614,3.99764 1.42821,0.6372 3.15419,0.35943 5.42863,-0.87364 z m 108.58775,4.96073 c -1.14845,-0.31416 -2.35183,-1.58936 -2.35183,-2.49219 0,-0.37366 0.20237,-0.28142 0.64514,0.29405 0.90171,1.17196 3.16963,1.64348 4.31022,0.89614 1.95562,-1.28137 2.50939,-4.40105 1.17095,-6.59649 -1.06114,-1.74059 -1.50483,-2.11873 -3.65476,-3.11481 -4.33085,-2.00651 -8.38506,-1.57251 -16.82488,1.80113 -3.19411,1.27677 -6.54248,2.5102 -7.44082,2.74094 -2.38342,0.61219 -7.24298,1.39734 -8.71121,1.40745 -1.72938,0.0119 -0.72792,-0.5258 1.60825,-0.86352 1.96546,-0.28413 5.9391,-1.41646 7.64741,-2.17922 4.18205,-1.86728 9.62797,-3.92175 11.70091,-4.41416 3.42027,-0.81246 8.47655,-0.83538 11.01615,-0.0499 2.16755,0.67038 5.07454,2.91921 5.92656,4.58475 0.26915,0.52613 0.60196,1.63452 0.73957,2.46309 0.55972,3.37006 -2.60393,6.39205 -5.78166,5.52278 z m 9.77778,-10e-4 c -2.6597,-0.70873 -4.0806,-3.97055 -3.06722,-7.04112 0.65282,-1.97806 3.12209,-4.27717 5.65543,-5.2657 1.75142,-0.68343 2.8086,-0.83236 5.77366,-0.8134 1.99632,0.0128 4.42199,0.20897 5.39038,0.43601 1.85707,0.43538 10.66847,3.7479 12.21351,4.59149 1.28549,0.70187 5.46866,1.9023 7.62652,2.18855 1.98116,0.26281 2.85431,0.88498 1.19685,0.85281 -1.26559,-0.0246 -6.32162,-0.86709 -8.29889,-1.38292 -1.32225,-0.34496 -8.6822,-3.17051 -10.50607,-4.03338 -1.99765,-0.94509 -5.35107,-1.59472 -8.34823,-1.61723 -2.9339,-0.022 -3.48697,0.0864 -5.42874,1.06437 -2.58362,1.30123 -4.17208,3.1634 -4.44703,5.21331 -0.24588,1.83315 0.34161,3.33695 1.69437,4.33709 1.33531,0.98724 3.36343,0.72129 4.38287,-0.57472 0.48437,-0.61578 0.71331,-0.72928 0.71331,-0.35364 0,1.60213 -2.53171,2.93648 -4.55072,2.39848 z m -96.83485,-4.45205 c -0.33245,-0.86636 0.15827,-1.99587 0.97369,-2.24116 1.64954,-0.4962 3.09058,-1.32349 3.31873,-1.90526 0.13096,-0.33393 0.22769,-15.14398 0.21496,-32.9112 -0.0252,-35.15396 0.21586,-43.51345 1.37102,-47.54866 2.02902,-7.08771 5.62562,-11.74338 10.90088,-14.11078 2.64404,-1.18657 4.19424,-1.18768 2.18392,-0.001 -1.63559,0.96503 -3.66899,3.48527 -4.46472,5.53368 -1.50438,3.87264 -1.66136,5.94381 -1.68453,22.2245 -0.0123,8.61519 0.0524,15.73865 0.14362,15.8299 0.0913,0.0913 2.94025,-0.36903 6.3311,-1.02283 l 6.16518,-1.18874 0.15735,-13.4506 c 0.17655,-15.09211 0.47021,-17.29041 3.01699,-22.58538 0.6891,-1.43271 1.24673,-2.74019 1.23917,-2.90551 -0.0304,-0.66468 -3.36299,-2.8771 -5.15478,-3.4221 l -1.90933,-0.58075 1.67045,-0.26909 c 1.33314,-0.21476 2.04543,-0.10778 3.5275,0.52979 1.02138,0.43938 2.04553,1.02598 2.27589,1.30355 0.64755,0.78025 1.1341,0.62067 2.88387,-0.94586 1.82057,-1.62992 4.61585,-3.13253 6.52025,-3.50498 1.15611,-0.22611 1.22557,-0.19398 0.77223,0.35721 -0.27398,0.33312 -0.70623,0.60566 -0.96056,0.60566 -0.72398,0 -2.73596,2.49794 -3.68938,4.58049 -1.85215,4.04563 -2.01628,5.72051 -2.19359,22.38484 -0.0909,8.54252 -0.0864,15.73749 0.0101,15.98881 0.13728,0.35775 1.2278,0.28635 5.02385,-0.32895 2.66669,-0.43224 5.62436,-0.88651 6.57261,-1.00948 l 1.72409,-0.2236 v 1.58881 1.58882 l -3.17596,0.46062 c -1.74677,0.25335 -4.72764,0.72901 -6.62414,1.05703 l -3.44819,0.5964 -0.0935,22.62363 c -0.0678,16.40848 0.0192,22.75941 0.31666,23.11786 0.2391,0.2881 1.1183,0.49424 2.10798,0.49424 0.93379,0 1.8938,0.196 2.13336,0.43556 0.58348,0.58348 0.55098,1.55756 -0.0691,2.07221 -0.27759,0.23038 -3.66679,0.98287 -7.53156,1.6722 -3.86478,0.68934 -7.46468,1.34801 -7.99979,1.46371 -0.74354,0.16078 -1.06745,0.0337 -1.37389,-0.53885 -0.55488,-1.03679 0.0686,-2.08151 1.41933,-2.37818 0.59118,-0.12984 1.49088,-0.56331 1.99934,-0.96326 l 0.92445,-0.7273 v -22.84056 c 0,-18.03125 -0.0955,-22.84027 -0.45371,-22.83913 -0.24953,7.2e-4 -3.04695,0.49079 -6.21647,1.0889 -3.16952,0.5981 -5.82372,1.08746 -5.89821,1.08746 -0.0745,0 -0.13545,10.36438 -0.13545,23.03195 v 23.03194 l 1.17965,0.19283 c 0.6488,0.10606 1.66964,0.23596 2.26854,0.28867 0.87034,0.0766 1.1108,0.28422 1.19799,1.03434 0.06,0.51616 -0.10333,1.10289 -0.36296,1.30384 -0.25964,0.20095 -2.92209,0.82111 -5.91657,1.37813 -2.99447,0.55702 -6.33632,1.23613 -7.42633,1.50914 -2.51918,0.63097 -3.51617,0.62751 -3.76198,-0.0131 z m 129.69698,-7.26657 c -4.91837,-1.13804 -7.92153,-2.59615 -12.6131,-6.12397 -1.88678,-1.41877 -1.90557,-1.45224 -1.90557,-3.39363 v -1.96073 l 1.72409,1.78637 c 3.79007,3.92695 10.74061,7.3049 15.03072,7.3049 2.06496,0 2.29718,-0.0869 3.42325,-1.28087 2.7487,-2.91447 1.75446,-6.81415 -2.63941,-10.35258 -0.85498,-0.68853 -2.98675,-2.10635 -4.73727,-3.15071 -1.75052,-1.04436 -3.3461,-2.02437 -3.54573,-2.1778 -0.19963,-0.15343 -1.28396,-0.88107 -2.40962,-1.61697 -2.93915,-1.92148 -5.65138,-4.75819 -6.15429,-6.43677 -0.57439,-1.91716 -0.17409,-3.20998 1.4816,-4.785 2.77472,-2.63953 6.61308,-3.12146 12.75585,-1.60158 4.481,1.10872 6.79005,2.31133 9.4213,4.90687 2.77324,2.7356 4.22279,6.50135 3.22222,8.37093 -0.50405,0.94183 -1.50282,0.88591 -2.46473,-0.13799 -1.04853,-1.11612 -1.00285,-1.99622 0.11821,-2.27759 1.06201,-0.26654 1.05966,-0.25746 0.39394,-1.5282 -1.18321,-2.25851 -4.17712,-4.30504 -8.04614,-5.50006 -2.86022,-0.88343 -4.88209,-0.94372 -6.4646,-0.19277 -1.27142,0.60332 -2.39819,2.20982 -2.39819,3.41923 0,2.38778 2.57915,5.37954 6.50275,7.54302 4.36582,2.40733 9.35509,5.86102 11.22376,7.76936 2.45928,2.51148 3.1471,3.97662 3.13137,6.6702 -0.0152,2.59992 -0.73888,3.8947 -2.75052,4.92096 -1.94244,0.99096 -7.61022,0.9105 -12.29989,-0.17462 z m -76.94896,-2.16665 c -6.62221,-1.46966 -10.88901,-7.24509 -10.88901,-14.73908 0,-8.62971 6.06684,-16.65408 14.15571,-18.72318 3.50528,-0.89664 8.06034,-0.56695 10.71351,0.77543 3.72984,1.88712 6.70889,6.24037 6.70889,9.80359 0,1.60136 -0.47896,1.79433 -5.26301,2.12043 -3.25438,0.22183 -13.07208,1.33554 -16.60574,1.88374 l -1.36112,0.21116 0.008,3.14406 c 0.0144,5.92514 2.38509,10.22087 6.65401,12.05731 2.41234,1.03776 6.73728,0.87223 9.57806,-0.36659 1.74101,-0.75922 4.44938,-3.18245 4.44938,-3.98094 0,-0.18273 0.0945,-0.57851 0.21001,-0.87951 0.15165,-0.39522 -0.0753,-0.57995 -0.81668,-0.66488 -1.87781,-0.21509 -1.4922,-3.20282 0.41337,-3.20282 1.06374,0 2.00813,1.08578 2.00813,2.30878 0,4.27892 -7.02157,9.45355 -13.86288,10.21641 -1.0594,0.11813 -2.41618,0.27426 -3.01508,0.34695 -0.59889,0.0727 -1.98724,-0.0672 -3.08521,-0.31086 z m 10.16307,-23.62328 c 2.89466,-0.33925 5.33002,-0.68307 5.41191,-0.76403 0.3866,-0.38219 -0.81404,-3.06594 -1.98213,-4.4306 -3.42032,-3.99587 -10.10782,-3.01493 -13.54078,1.9862 -0.88931,1.29554 -1.94601,4.04869 -1.70416,4.44001 0.0868,0.14045 1.59654,0.0596 3.35498,-0.17969 1.75844,-0.23929 5.56552,-0.71263 8.46018,-1.05189 z m 45.37085,22.66588 c -1.49724,-0.15261 -4.62987,-0.39128 -6.9614,-0.53037 -4.55739,-0.27189 -4.94191,-0.46767 -4.28937,-2.18397 0.23323,-0.61346 0.62109,-0.90427 1.20604,-0.90427 0.47423,0 1.35671,-0.17237 1.96107,-0.38305 0.88213,-0.30751 1.14255,-0.64752 1.32055,-1.72409 0.38355,-2.31986 0.24858,-16.77911 -0.17996,-19.27817 -0.80633,-4.70223 -2.51884,-6.55929 -6.05102,-6.56178 -2.2772,-0.001 -3.54867,0.58473 -5.10037,2.35202 l -1.14278,1.30155 v 11.21342 c 0,12.61431 -0.12552,12.03792 2.78088,12.76976 1.1406,0.28721 1.75679,0.67579 2.03302,1.28205 0.80464,1.76599 0.16022,1.90632 -8.93492,1.94561 -4.56029,0.0197 -8.37254,-0.0453 -8.47167,-0.14441 -0.0991,-0.0991 -0.0724,-0.67128 0.0594,-1.27144 0.18754,-0.85387 0.49109,-1.14533 1.39566,-1.34005 0.6358,-0.13687 1.60517,-0.47838 2.15416,-0.75891 l 0.99816,-0.51005 v -12.32464 -12.32464 l -0.91007,-0.2284 c -0.56596,-0.14205 -1.245,-0.009 -1.7959,0.35201 -0.87434,0.5729 -1.47293,0.35629 -0.99049,-0.35842 0.84092,-1.24578 8.93318,-5.22352 10.62666,-5.22352 1.04777,0 1.05507,0.0151 1.05507,2.18198 v 2.18198 l 2.01304,-1.63964 c 2.85377,-2.32443 4.20244,-2.82132 7.12471,-2.62497 1.72858,0.11615 2.87622,0.42849 4.00497,1.08998 2.35728,1.38146 4.8489,4.05494 6.0856,6.52979 l 1.09782,2.19693 v 9.51528 c 0,5.23341 0.099,10.01012 0.21993,10.61492 0.18099,0.90494 0.51838,1.20904 1.90557,1.7175 1.85814,0.68109 2.95604,1.70555 2.95604,2.75831 0,0.77192 -1.10671,0.82782 -6.17044,0.3117 z m -245.3727,-55.79272 c 2.56424,-0.22552 3.11176,-1.10108 2.01298,-3.21898 -0.67788,-1.30662 -0.20533,-1.88112 1.06952,-1.30026 1.27105,0.57912 1.28497,2.63954 0.0263,3.89817 -0.74421,0.74421 -1.20742,0.88048 -2.81299,0.82751 l -1.92207,-0.0634 z m 185.72091,-22.17193 c -0.78517,-0.8676 -0.75771,-1.25943 0.14553,-2.07685 0.58817,-0.53229 0.88337,-0.5897 1.39361,-0.27106 0.83881,0.52385 1.28954,0.21596 1.96743,-1.34392 l 0.55208,-1.27038 0.0296,1.56063 c 0.062,3.26713 -2.37497,5.29475 -4.08826,3.40158 z m 4.72452,-5.09651 c -0.50847,-4.86481 -3.87546,-8.90621 -8.41044,-10.09505 -0.94355,-0.24736 -0.81296,-0.30066 0.97827,-0.39934 4.76978,-0.26276 8.38414,3.62333 8.38414,9.01446 0,3.39196 -0.64699,4.39777 -0.95197,1.47993 z"
     id="path2567" />
  <g
     fill="none"
     stroke="black"
     id="g2594">
    <path
       d="M 300.727480 150.223740 H 622.753970"
       marker-start="url(#Arrow1Lstart)"
       marker-end="url(#Arrow1Lend)"
       stroke-width="1.0"
       id="path2581" />
    <path
       d="M 300.727480 100.223740 V 522.250230"
       stroke-width="0.5"
       id="path2583" />
    <path
       d="M 622.753970 100.223740 V 522.250230"
       stroke-width="0.5"
       id="path2585" />
    <path
       style="stroke-width:1;marker-start:url(#Arrow1Lstart);marker-end:url(#Arrow1Lend)"
       d="M 210.72748,200.22374 V 522.25023"
       id="path2587" />
    <path
       d="M 200.727480 200.223740 H 622.753970"
       stroke-width="0.5"
       id="path2589" />
    <path
       d="M 200.727480 522.250230 H 622.753970"
       stroke-width="0.5"
       id="path2591" />
    <rect
       style="fill:none;fill-opacity:1;stroke:#000000;stroke-width:1;stroke-miterlimit:4;stroke-dasharray:none;stroke-opacity:1"
       id="rect2569"
       width="321.02649"
       height="321.02649"
       x="301.22748"
       y="200.72374" />
  </g>
  <text
     id="text2614"
     y="169.61104"
     x="436.992"
     style="font-style:normal;font-weight:normal;font-size:40px;line-height:1.25;font-family:sans-serif;letter-spacing:0px;word-spacing:0px;fill:#000000;fill-opacity:1;stroke:none"
     xml:space="preserve"><tspan
       style="font-size:20px"
       y="169.61104"
       x="436.992"
       id="tspan2612">40mm</tspan></text>
  <text
     id="text2618"
     y="370.42935"
     x="222.83557"
     style="font-style:normal;font-weight:normal;font-size:40px;line-height:1.25;font-family:sans-serif;letter-spacing:0px;word-spacing:0px;fill:#000000;fill-opacity:1;stroke:none"
     xml:space="preserve"><tspan
       style="font-size:20px"
       y="370.42935"
       x="222.83557"
       id="tspan2616">40mm</tspan></text>
</svg>
