<?xml version="1.0" encoding="UTF-8" standalone="no"?>
<svg
   xmlns:dc="http://purl.org/dc/elements/1.1/"
   xmlns:cc="http://creativecommons.org/ns#"
   xmlns:rdf="http://www.w3.org/1999/02/22-rdf-syntax-ns#"
   xmlns:svg="http://www.w3.org/2000/svg"
   xmlns="http://www.w3.org/2000/svg"
   viewBox="0 0 264.56693 151.1811"
   height="40mm"
   width="70mm"
   id="svg944"
   version="1.1">
  <metadata
     id="metadata950">
    <rdf:RDF>
      <cc:Work
         rdf:about="">
        <dc:format>image/svg+xml</dc:format>
        <dc:type
           rdf:resource="http://purl.org/dc/dcmitype/StillImage" />
        <dc:title></dc:title>
      </cc:Work>
    </rdf:RDF>
  </metadata>
  <defs
     id="defs948" />
  <path
     id="path954"
     d="m 182.43388,87.943362 c -0.44759,-0.03516 -0.85855,-0.09529 -1.26242,-0.184833 l -0.21683,-0.0481 v -2.310842 c 0,-2.179375 0.009,-2.309496 0.0607,-2.287654 0.0336,0.01307 0.24701,0.04731 0.47468,0.07711 0.50411,0.06574 1.27728,0.03124 1.56334,-0.06954 0.70599,-0.248961 1.12378,-0.779243 1.34117,-1.702513 l 0.0804,-0.339724 0.0103,-5.996446 0.0103,-5.99642 h 2.28979 2.28988 l -0.0121,6.744568 c -0.0112,6.662979 -0.0131,6.750593 -0.086,7.243323 -0.18834,1.270823 -0.53615,2.194172 -1.13228,3.005778 -1.07969,1.470023 -2.81651,2.068835 -5.41021,1.865309 z M 36.023187,87.648329 c 0,-0.01464 1.27376,-4.170545 2.83057,-9.235199 1.55682,-5.064653 2.83855,-9.235656 2.84832,-9.268881 0.0146,-0.0498 0.51945,-0.05842 2.86535,-0.04888 l 2.84763,0.01176 2.83763,9.272201 c 1.56066,5.09971 2.83757,9.277377 2.83757,9.283691 0,0.0065 -1.06227,0.01046 -2.36059,0.01046 h -2.36064 l -0.0462,-0.14736 c -0.0253,-0.08104 -0.24202,-0.881902 -0.48112,-1.779658 -0.2391,-0.897768 -0.44551,-1.668123 -0.45864,-1.71191 -0.0224,-0.07515 -0.18186,-0.07908 -2.83865,-0.06797 l -2.81471,0.01046 -0.48933,1.836332 -0.4893,1.836331 -2.36389,0.01177 c -1.30012,0.0065 -2.36385,-4.32e-4 -2.36385,-0.01504 z m 10.14585,-8.078706 c -1.22239,-4.538345 -1.63298,-6.032221 -1.65073,-6.005608 -0.0117,0.01764 -0.12461,0.41952 -0.25098,0.893351 -0.12635,0.473816 -0.5188,1.941643 -0.87205,3.261835 -0.3533,1.320191 -0.64235,2.406677 -0.64235,2.414441 0,0.0079 0.80363,0.01412 1.7859,0.01412 h 1.7859 z m 14.99452,8.07115 c -0.009,-0.01895 -0.70702,-2.984524 -1.55446,-6.590292 l -1.54092,-6.555929 -0.009,6.567274 -0.009,6.567262 h -1.94245 -1.94254 v -9.272345 -9.272372 h 3.23991 3.23999 l 0.0663,0.283389 c 0.0364,0.155869 0.6349,2.745956 1.33015,5.755772 0.69516,3.009805 1.27326,5.448047 1.28456,5.418311 0.0112,-0.0298 0.61248,-2.619758 1.33585,-5.755616 l 1.31512,-5.701555 3.25213,-1.31e-4 3.25205,-1.57e-4 v 9.272359 9.272358 h -1.94263 -1.94254 V 81.04703 c 0,-3.620159 -0.0112,-6.56781 -0.0243,-6.550334 -0.0131,0.01751 -0.71973,2.984498 -1.56969,6.593429 l -1.5454,6.561628 -2.13975,0.01176 c -1.17694,0.0065 -2.14602,-0.0039 -2.15358,-0.02275 z m 13.57282,-9.261379 v -9.295023 h 6.07061 6.07061 v 2.08571 2.085723 h -3.79848 -3.79847 v 1.496269 1.496282 h 3.62499 3.62498 v 1.995025 1.995024 h -3.62498 -3.62499 v 1.63231 1.632297 h 3.86779 3.86789 v 2.08571 2.08571 h -6.14002 -6.13993 z m 14.15317,0 v -9.295023 l 4.24073,9.2e-5 c 4.23046,9.1e-5 4.80296,0.01712 5.52427,0.163215 1.785503,0.361878 3.045493,1.384134 3.683663,2.988564 0.59454,1.494974 0.64443,3.596448 0.12276,5.178017 -0.38995,1.182163 -1.18946,2.238913 -2.10453,2.781639 -0.19171,0.113716 -0.25925,0.175633 -0.24972,0.22904 0.009,0.04013 0.69469,1.65738 1.52774,3.593599 0.83305,1.936219 1.52363,3.550895 1.53456,3.588134 0.0177,0.05973 -0.27382,0.0677 -2.45543,0.06744 l -2.475333,-2.75e-4 -1.30343,-3.230308 -1.30353,-3.230309 -1.08137,-0.01176 -1.08146,-0.01177 v 3.242581 3.242569 h -2.28941 -2.28951 v -9.295036 z m 7.92645,-1.083348 c 0.36061,-0.157176 0.56231,-0.304746 0.74747,-0.546778 0.29596,-0.386857 0.44936,-0.921441 0.44936,-1.566446 0,-0.885914 -0.27671,-1.514659 -0.80904,-1.838462 -0.46459,-0.282604 -0.48729,-0.285781 -2.18291,-0.304237 l -1.55241,-0.01686 v 2.204575 2.204564 l 1.55241,-0.0153 c 1.51821,-0.0149 1.55763,-0.01764 1.79512,-0.121166 z m 7.753053,1.083348 v -9.295023 h 2.27214 2.27213 v 9.295023 9.295037 h -2.27213 -2.27214 z m 6.86844,0 v -9.295023 h 2.28932 2.28923 l 0.009,3.613035 0.009,3.613035 2.53222,-3.612486 2.53241,-3.612486 2.65152,-5.74e-4 2.65152,-5.63e-4 -0.0878,0.124696 c -0.0486,0.06862 -1.2259,1.727426 -2.61677,3.686323 -1.39097,1.958897 -2.55661,3.603388 -2.59034,3.654443 -0.0598,0.09071 -3.7e-4,0.214309 2.69702,5.589721 1.51719,3.023293 2.7584,5.505441 2.7584,5.515898 0,0.01046 -1.16685,0.01869 -2.59294,0.01804 l -2.59304,-6.41e-4 -1.76868,-3.607755 c -0.97272,-1.984267 -1.77896,-3.61608 -1.79157,-3.626262 -0.0131,-0.0092 -0.42264,0.525943 -0.91106,1.191418 l -0.88817,1.209939 v 2.417186 2.41716 h -2.28951 -2.28951 v -9.295023 z m 15.68987,9.147677 c 0.0252,-0.08104 1.30942,-4.263374 2.8536,-9.294044 l 2.80773,-9.146708 2.84275,0.0092 2.84276,0.0092 2.83762,9.272202 c 1.56063,5.099709 2.83763,9.277377 2.83763,9.28369 0,0.0065 -1.06231,0.01046 -2.3607,0.01046 h -2.36061 l -0.0467,-0.14736 c -0.0252,-0.08104 -0.24196,-0.881901 -0.48103,-1.779657 -0.23916,-0.897756 -0.44544,-1.668007 -0.45861,-1.711637 -0.0224,-0.07464 -0.18947,-0.07934 -2.82669,-0.07934 h -2.80287 l -0.10221,0.37406 c -0.056,0.205748 -0.28017,1.042293 -0.49757,1.85901 l -0.39536,1.484936 -2.36799,1.3e-5 h -2.36798 z m 10.25763,-7.405768 c 0,-0.04 -1.73776,-6.470695 -1.76803,-6.542833 -0.0168,-0.04104 -0.057,0.05307 -0.11472,0.272044 -0.39658,1.503261 -1.46057,5.478867 -1.63378,6.104515 l -0.0533,0.192703 h 1.78494 c 0.98178,0 1.78493,-0.01177 1.78493,-0.02653 z m 7.8745,-1.741909 v -9.295023 h 2.28951 2.28942 v 6.937271 6.937269 h 3.43422 3.43431 v 2.357754 2.357766 h -5.72373 -5.72373 z m 12.90429,0 v -9.295023 h 2.27223 2.27213 v 9.295023 9.295037 h -2.27213 -2.27223 z m 6.86853,0 v -9.295023 h 2.42124 2.42133 l 2.82548,5.40311 2.82538,5.403109 0.009,-5.403109 0.009,-5.40311 h 2.09856 2.09855 v 9.295023 9.295037 h -2.30324 -2.30324 l -2.44049,-4.451476 c -1.34229,-2.448294 -2.46084,-4.499602 -2.48569,-4.558434 -0.0804,-0.190442 -0.94675,-1.758233 -0.98038,-1.77384 -0.0196,-0.0092 -0.0327,2.044183 -0.0327,5.384313 v 5.399437 h -2.08136 -2.08137 z m 25.98216,0 v -9.295023 h 6.08799 6.08789 v 2.08571 2.085723 h -3.79838 -3.79847 v 1.496269 1.496282 h 3.62498 3.62499 v 1.995025 1.995024 h -3.62499 -3.62498 v 1.63231 1.632297 h 3.8505 3.85051 v 2.08571 2.08571 h -6.14002 -6.14002 z m 14.18792,0 v -9.295023 h 2.42002 2.42012 l 2.82669,5.406612 2.8266,5.406586 0.009,-5.406586 0.009,-5.406612 h 2.09856 2.09855 v 9.295023 9.295037 h -2.30464 -2.30465 l -2.45646,-4.491695 c -1.35098,-2.470436 -2.67497,-4.898144 -2.94206,-5.394914 -0.2671,-0.496756 -0.49739,-0.903533 -0.51168,-0.903938 -0.0149,-4.32e-4 -0.0262,2.42729 -0.0262,5.394901 v 5.395646 h -2.08136 -2.08137 z"
     style="fill:#000000;stroke-width:0.03965935" />
  <rect
     y="29.986973"
     x="33.914997"
     height="94.114067"
     width="188.60226"
     id="rect956"
     style="opacity:1;fill:none;fill-opacity:1;stroke:#000000;stroke-width:0.37412044;stroke-miterlimit:4;stroke-dasharray:none;stroke-opacity:1" />
  <text
     id="text960"
     y="139.66505"
     x="97.886421"
     style="font-style:normal;font-weight:normal;font-size:13.33333302px;line-height:1.25;font-family:sans-serif;letter-spacing:0px;word-spacing:0px;fill:#000000;fill-opacity:1;stroke:none"
     xml:space="preserve"><tspan
       y="139.66505"
       x="97.886421"
       id="tspan958">50.00mm</tspan></text>
  <text
     transform="rotate(-90)"
     id="text964"
     y="30.390709"
     x="-108.52651"
     style="font-style:normal;font-weight:normal;font-size:13.33333302px;line-height:1.25;font-family:sans-serif;letter-spacing:0px;word-spacing:0px;fill:#000000;fill-opacity:1;stroke:none"
     xml:space="preserve"><tspan
       y="30.390709"
       x="-108.52651"
       id="tspan962">25.00mm</tspan></text>
</svg>
