<?xml version="1.0" encoding="UTF-8" standalone="no"?>
<svg
   xmlns:dc="http://purl.org/dc/elements/1.1/"
   xmlns:cc="http://creativecommons.org/ns#"
   xmlns:rdf="http://www.w3.org/1999/02/22-rdf-syntax-ns#"
   xmlns:svg="http://www.w3.org/2000/svg"
   xmlns="http://www.w3.org/2000/svg"
   id="svg108"
   version="1.2"
   viewBox="0 0 179.386 179.386"
   height="179.386pt"
   width="179.386pt">
  <metadata
     id="metadata114">
    <rdf:RDF>
      <cc:Work
         rdf:about="">
        <dc:format>image/svg+xml</dc:format>
        <dc:type
           rdf:resource="http://purl.org/dc/dcmitype/StillImage" />
        <dc:title></dc:title>
      </cc:Work>
    </rdf:RDF>
  </metadata>
  <defs
     id="defs112" />
  <g
     transform="matrix(0.9678767,0,0,0.9678767,1.0600688,4.7024242)"
     id="surface6563">
    <path
       id="path37"
       d="m 146.38672,89.691406 c 0,31.312504 -25.38281,56.695314 -56.695314,56.695314 C 58.382812,146.38672 33,121.00391 33,89.691406 33,58.382812 58.382812,33 89.691406,33 121.00391,33 146.38672,58.382812 146.38672,89.691406"
       style="fill:#211e1e;fill-opacity:1;fill-rule:nonzero;stroke:none" />
    <path
       id="path39"
       d="m 89.691406,37.253906 c -28.960937,0 -52.441406,23.476563 -52.441406,52.4375 0,28.964844 23.480469,52.441404 52.441406,52.441404 28.964844,0 52.441404,-23.47656 52.441404,-52.441404 0,-28.960937 -23.47656,-52.4375 -52.441404,-52.4375 m 0,2.5 c 27.539064,0 49.941404,22.402344 49.941404,49.9375 0,27.539064 -22.40234,49.941404 -49.941404,49.941404 C 62.15625,139.63281 39.75,117.23047 39.75,89.691406 c 0,-27.535156 22.40625,-49.9375 49.941406,-49.9375"
       style="fill:#ffffff;fill-opacity:1;fill-rule:nonzero;stroke:none" />
    <path
       id="path41"
       d="m 89.65625,79.554688 c -0.929688,0 -1.308594,0.414062 -1.308594,1.4375 0,0.46875 0.226563,1.34375 1.308594,2.859374 l 1.304688,1.824219 c 1.378906,-0.867187 2.050781,-1.9375 2.050781,-3.253906 0,-0.816406 -0.304688,-1.472656 -0.933594,-2.003906 C 91.386719,79.835938 90.59375,79.554688 89.65625,79.554688 M 84.632812,89.09375 C 84,89.3125 83.714844,89.722656 83.714844,90.386719 c 0,0.671875 0.246094,1.539062 0.734375,2.574219 0.652343,1.375 1.375,2.46875 2.140625,3.253906 0.550781,0.5625 1.085937,0.832031 1.636718,0.832031 0.460938,0 1.011719,-0.183594 1.648438,-0.554687 z M 84.417969,99.8125 c -1.398438,0 -2.730469,-0.308594 -3.957031,-0.917969 -1.167969,-0.589843 -2.085938,-1.421875 -2.730469,-2.480469 -0.496094,-0.8125 -0.75,-1.75 -0.75,-2.78125 0,-1.699218 0.6875,-3.105468 2.035156,-4.183593 0.90625,-0.730469 2.3125,-1.339844 4.292969,-1.863281 0.05859,-0.01563 0.128906,-0.03516 0.210937,-0.05469 l -0.285156,-0.414062 c -0.949219,-1.355469 -1.433594,-2.691407 -1.433594,-3.976563 0,-1.671875 0.734375,-3.03125 2.175781,-4.039063 1.183594,-0.835937 2.707032,-1.257812 4.523438,-1.257812 1.953125,0 3.523438,0.457031 4.664062,1.359375 1.066407,0.847656 1.605469,1.976563 1.605469,3.363281 0,1.382813 -0.527343,2.597656 -1.566406,3.613282 -0.285156,0.289062 -0.683594,0.59375 -1.210937,0.929687 l 3.488281,4.929687 c 0.09766,-0.113281 0.175781,-0.210937 0.238281,-0.296874 0.316406,-0.4375 0.46875,-0.945313 0.46875,-1.558594 0,-0.796875 -0.234375,-1.886719 -2.257812,-2.179688 l -0.425782,-0.0625 v -1.613281 h 9.750004 v 1.582031 l -0.38672,0.08594 c -0.5625,0.128906 -1.13672,0.410156 -1.70313,0.835937 -0.77734,0.601563 -1.796872,1.589844 -3.019529,2.925781 l -1.617187,1.777344 1.652344,2.273438 c 0.574218,0.789062 0.796874,1.03125 0.878906,1.105468 0.300781,0.257813 1.011716,0.570313 2.648436,0.582032 h 1.54688 v 1.679687 H 91.839844 L 90.945312,97.933594 C 88.722656,99.179688 86.527344,99.8125 84.417969,99.8125"
       style="fill:#ffffff;fill-opacity:1;fill-rule:nonzero;stroke:none" />
    <path
       id="path43"
       d="m 121.94922,101.58594 c -3.13281,0 -5.98438,-0.73438 -8.47266,-2.187502 -0.41406,-0.242188 -1.10156,-0.699219 -2.03906,-1.359376 l -4.04297,3.015628 h -1.42578 v -9.820315 h 1.54297 l 0.14453,0.238281 c 1.1875,1.980469 2.875,3.757813 5.01172,5.277344 1.48437,1.054688 2.97266,1.84375 4.43359,2.347656 1.44141,0.496094 3.03907,0.75 4.7461,0.75 1.69922,0 3.07422,-0.242187 4.08984,-0.71875 0.85156,-0.394531 1.24609,-0.960937 1.24609,-1.789062 0,-0.910156 -0.67968,-1.589844 -2.08203,-2.085938 -1.05859,-0.382812 -2.46484,-0.699218 -4.17578,-0.945312 l -6.16015,-0.878906 C 111.99219,93.023438 109.75781,92.28125 108.11719,91.21875 107.21094,90.625 106.5,89.851562 106,88.917969 c -0.48047,-0.929688 -0.72266,-1.960938 -0.72266,-3.078125 0,-2.480469 1.10547,-4.488282 3.27735,-5.964844 2.02734,-1.375 4.46875,-2.074219 7.26172,-2.074219 3.22265,0 6.33203,1.042969 9.24218,3.109375 l 3.64844,-2.792968 h 1.16797 v 9.054687 h -1.44531 l -0.14453,-0.230469 c -1.3125,-2.066406 -2.89453,-3.726562 -4.70703,-4.933594 -2.47266,-1.636718 -5.11719,-2.46875 -7.86329,-2.46875 -1.57421,0 -2.86328,0.265626 -3.83203,0.792969 -0.48828,0.273438 -0.875,0.648438 -1.16797,1.144531 -0.15625,0.269532 -0.23437,0.550782 -0.23437,0.859376 0,0.476562 0.21484,0.890624 0.65234,1.269531 0.28907,0.257812 0.91797,0.628906 2.34766,0.976562 0.73828,0.175781 1.8125,0.382813 3.19531,0.613281 l 5.48047,0.878907 c 3.03125,0.488281 5.33203,1.191406 6.83984,2.082031 2.13672,1.273438 3.21875,3.230469 3.21875,5.808594 0,1.769531 -0.55468,3.300781 -1.63672,4.550781 -1.05468,1.226563 -2.63281,2.109375 -4.68359,2.625005 -1.21094,0.29687 -2.53515,0.44531 -3.94531,0.44531"
       style="fill:#ffffff;fill-opacity:1;fill-rule:nonzero;stroke:none" />
    <path
       id="path45"
       d="m 64.59375,90.210938 c 1.199219,0 2.101562,-0.316407 2.683594,-0.941407 0.792968,-0.835937 1.195312,-2.199219 1.195312,-4.050781 0,-1.859375 -0.402344,-3.226562 -1.191406,-4.058594 -0.585938,-0.617187 -1.488281,-0.929687 -2.6875,-0.929687 h -1.125 c -1.261719,0.01172 -2.140625,0.242187 -2.535156,0.675781 -0.230469,0.253906 -0.511719,0.882812 -0.519532,2.441406 v 6.863282 z M 47.175781,100.89453 v -1.73828 h 1.515625 c 0.742188,0 1.320313,-0.03125 1.710938,-0.09375 0.964844,-0.179688 1.207031,-0.703125 1.304687,-1.082031 0.09375,-0.378907 0.148438,-1.019531 0.15625,-1.898438 v -12.78125 c -0.0078,-0.882812 -0.0625,-1.53125 -0.160156,-1.914062 -0.08984,-0.371094 -0.324219,-0.882813 -1.3125,-1.0625 -0.382813,-0.0625 -0.960937,-0.09375 -1.699219,-0.09375 H 47.175781 V 78.492188 H 66.65625 c 2.15625,0 3.851562,0.144531 5.039062,0.433593 1.867188,0.457031 3.285157,1.324219 4.21875,2.578125 0.847657,1.128906 1.28125,2.371094 1.28125,3.6875 0,1.523438 -0.5625,2.925782 -1.671874,4.167969 -1.03125,1.15625 -2.597657,1.925781 -4.65625,2.277344 -1.035157,0.175781 -2.449219,0.269531 -4.210938,0.269531 h -6.242188 v 4.179688 c 0.0078,0.882812 0.0625,1.523437 0.15625,1.894531 0.09766,0.378906 0.335938,0.902343 1.316407,1.082031 0.371093,0.0625 0.945312,0.09375 1.695312,0.09375 h 1.519531 v 1.73828 z m 0,0"
       style="fill:#ffffff;fill-opacity:1;fill-rule:nonzero;stroke:none" />
    <path
       id="path47"
       d="m 86.351562,79.148438 c -1.074218,1.640624 -1.332031,3.171874 1.191407,6.683593 2.519531,3.511719 8.597656,12.128907 8.597656,12.128907 H 92.378906 L 85.152344,87.703125 c -2.992188,-3.847656 -3.347656,-6.804687 1.199218,-8.554687"
       style="fill:#211e1e;fill-opacity:1;fill-rule:nonzero;stroke:none" />
    <path
       id="path49"
       d="m 52.890625,98.625 c -0.171875,0.375 -0.4375,0.714844 -0.792969,1.023438 h 6.003906 c -0.25,-0.316407 -0.429687,-0.65625 -0.535156,-1.023438 l -0.08594,-0.535156 c -0.01172,-0.179688 -0.01563,-0.519532 -0.01563,-1.007813 V 82.304688 c 0,-0.492188 0.0039,-0.832032 0.01563,-1.023438 l 0.08594,-0.535156 c 0.09766,-0.335938 0.273438,-0.671875 0.535156,-1.011719 h -6.003906 c 0.347656,0.289063 0.609375,0.628906 0.792969,1.011719 l 0.175781,0.535156 c 0.08594,0.480469 0.132813,0.945312 0.140625,1.398438 v 14.027343 c -0.0078,0.480469 -0.05469,0.941407 -0.140625,1.382813 z m 0,0"
       style="fill:#211e1e;fill-opacity:1;fill-rule:nonzero;stroke:none" />
    <path
       id="path51"
       d="m 69.007812,88.984375 c -0.429687,0.742187 -0.984374,1.316406 -1.65625,1.71875 0.738282,0 1.375,-0.04297 1.902344,-0.128906 1.195313,-0.222657 2.222656,-0.75 3.089844,-1.589844 l 0.488281,-0.53125 c 0.300781,-0.367187 0.554688,-0.828125 0.765625,-1.386719 l 0.160156,-0.535156 c 0.08594,-0.449219 0.132813,-0.917969 0.144532,-1.398438 l -0.03125,-0.535156 c -0.06641,-0.507812 -0.171875,-0.96875 -0.316406,-1.382812 L 73.296875,82.679688 C 73.007812,82.171875 72.632812,81.703125 72.167969,81.28125 l -0.691407,-0.535156 c -1.066406,-0.699219 -2.441406,-1.039063 -4.125,-1.011719 0.363282,0.15625 0.773438,0.492187 1.226563,1.011719 l 0.386719,0.535156 c 0.261718,0.441406 0.449218,0.910156 0.566406,1.398438 l 0.113281,0.535156 c 0.06641,0.441406 0.113281,0.902344 0.144531,1.382812 l 0.02734,0.535156 v 0.261719 c 0,0.304688 -0.01953,0.6875 -0.05859,1.136719 l -0.08594,0.535156 c -0.113281,0.566406 -0.246094,1.03125 -0.386719,1.386719 z m 0,0"
       style="fill:#211e1e;fill-opacity:1;fill-rule:nonzero;stroke:none" />
    <path
       id="path53"
       d="m 97.117188,88.785156 c 0.191406,0.480469 0.285156,0.9375 0.285156,1.371094 v 0.242188 l 0.96875,-1.613282 0.289062,-0.492187 0.460938,-0.777344 h -3.042969 c 0.265625,0.21875 0.5625,0.550781 0.804687,0.847656 z m 0,0"
       style="fill:#211e1e;fill-opacity:1;fill-rule:nonzero;stroke:none" />
    <path
       id="path55"
       d="m 129.79687,96.171875 c 0.0977,-0.460937 0.14454,-0.929687 0.14454,-1.398437 l -0.043,-0.535157 c -0.0859,-0.507812 -0.21485,-0.972656 -0.38672,-1.386719 L 129.25,92.304688 c -0.31641,-0.519532 -0.73047,-0.980469 -1.24219,-1.386719 l -0.80468,-0.53125 c -0.94532,-0.570313 -2.21485,-1.035157 -3.8125,-1.402344 l -3.1875,-0.53125 -5.09375,-0.75 c -1.375,-0.203125 -2.45704,-0.414063 -3.2461,-0.636719 l -1.51953,-0.535156 c -0.61719,-0.316406 -1.14062,-0.78125 -1.52734,-1.398438 l -0.27344,-0.535156 c -0.15234,-0.410156 -0.23047,-0.761718 -0.23047,-1.050781 0,-0.07813 0.004,-0.1875 0.0156,-0.332031 l 0.0859,-0.535156 c 0.16407,-0.691407 0.44141,-1.3125 0.83594,-1.859376 -0.76953,0.460938 -1.39453,1.082032 -1.875,1.859376 l -0.28906,0.535156 c -0.21094,0.441406 -0.36328,0.902344 -0.46094,1.382812 l -0.0859,0.535156 c -0.0312,0.300782 -0.043,0.523438 -0.043,0.679688 0,0.171875 0.0195,0.414062 0.0547,0.71875 l 0.0898,0.535156 c 0.125,0.480469 0.29687,0.941406 0.51953,1.386719 l 0.34375,0.53125 c 0.41406,0.550781 0.90625,1.015625 1.47265,1.402344 l 0.95313,0.53125 c 1.15234,0.558593 2.89453,1.023437 5.22265,1.386719 l 3.69532,0.546874 1.61328,0.234376 c 2.21484,0.316406 3.96094,0.699218 5.23828,1.152343 l 1.21484,0.535157 c 0.55469,0.335937 1.00782,0.800781 1.35547,1.398437 l 0.20313,0.535156 c 0.0352,0.257813 0.0547,0.441407 0.0547,0.546875 0,0.5 -0.17578,1.09375 -0.53125,1.773438 0.75,-0.46875 1.30078,-1.246094 1.66016,-2.320313 z m 0,0"
       style="fill:#211e1e;fill-opacity:1;fill-rule:nonzero;stroke:none" />
    <path
       id="path57"
       d="m 109.74219,97.339844 c -0.90625,-0.644532 -1.78125,-1.542969 -2.625,-2.695313 v 5.222657 L 109.66797,97.875 Z m 0,0"
       style="fill:#211e1e;fill-opacity:1;fill-rule:nonzero;stroke:none" />
    <path
       id="path59"
       d="m 125.90234,82.246094 c 0.47266,0.445312 1,0.988281 1.58594,1.632812 v -3.449218 l -1.58594,1.285156 z m 0,0"
       style="fill:#211e1e;fill-opacity:1;fill-rule:nonzero;stroke:none" />
    <path
       id="path61"
       d="m 81.386719,89.359375 c -2.207031,0.851563 -3.210938,2.433594 -3.21875,4.15625 -0.0039,1.722656 0.996093,3.125 2.464843,4.03125 1.472657,0.910156 2.9375,1.273437 4.695313,0.992187 -1.988281,-1.28125 -4.949219,-4.808593 -3.941406,-9.179687"
       style="fill:#211e1e;fill-opacity:1;fill-rule:nonzero;stroke:none" />
    <path
       id="path63"
       d="m 86.601562,82.207031 h -3.6875 v -1.132812 h 3.6875 z m 0,0"
       style="fill:#ffffff;fill-opacity:1;fill-rule:nonzero;stroke:none" />
    <path
       id="path65"
       d="m 73.582031,82.207031 h -4.945312 v -1.132812 h 4.945312 z m 0,0"
       style="fill:#ffffff;fill-opacity:1;fill-rule:nonzero;stroke:none" />
    <path
       id="path67"
       d="m 57.703125,82.929688 h -5.152344 v -1.132813 h 5.152344 z m 0,0"
       style="fill:#ffffff;fill-opacity:1;fill-rule:nonzero;stroke:none" />
    <path
       id="path69"
       d="m 57.546875,86.59375 h -5.152344 v -1.132812 h 5.152344 z m 0,0"
       style="fill:#ffffff;fill-opacity:1;fill-rule:nonzero;stroke:none" />
    <path
       id="path71"
       d="M 57.546875,90.261719 H 52.394531 V 89.125 h 5.152344 z m 0,0"
       style="fill:#ffffff;fill-opacity:1;fill-rule:nonzero;stroke:none" />
    <path
       id="path73"
       d="m 57.703125,93.925781 h -5.152344 v -1.136719 h 5.152344 z m 0,0"
       style="fill:#ffffff;fill-opacity:1;fill-rule:nonzero;stroke:none" />
    <path
       id="path75"
       d="m 57.703125,97.589844 h -5.152344 v -1.132813 h 5.152344 z m 0,0"
       style="fill:#ffffff;fill-opacity:1;fill-rule:nonzero;stroke:none" />
    <path
       id="path77"
       d="m 74.453125,85.871094 h -4.945313 v -1.132813 h 4.945313 z m 0,0"
       style="fill:#ffffff;fill-opacity:1;fill-rule:nonzero;stroke:none" />
    <path
       id="path79"
       d="M 73.21875,89.539062 H 68.273438 V 88.40625 h 4.945312 z m 0,0"
       style="fill:#ffffff;fill-opacity:1;fill-rule:nonzero;stroke:none" />
    <path
       id="path81"
       d="M 88.148438,85.871094 H 83.0625 v -1.132813 h 5.085938 z m 0,0"
       style="fill:#ffffff;fill-opacity:1;fill-rule:nonzero;stroke:none" />
    <path
       id="path83"
       d="M 111.08594,86.628906 H 106 v -1.132812 h 5.08594 z m 0,0"
       style="fill:#ffffff;fill-opacity:1;fill-rule:nonzero;stroke:none" />
    <path
       id="path85"
       d="M 90.546875,89.539062 H 85.324219 V 88.40625 h 5.222656 z m 0,0"
       style="fill:#ffffff;fill-opacity:1;fill-rule:nonzero;stroke:none" />
    <path
       id="path87"
       d="M 127.20313,89.914062 H 107.11719 V 88.78125 h 20.08594 z m 0,0"
       style="fill:#ffffff;fill-opacity:1;fill-rule:nonzero;stroke:none" />
    <path
       id="path89"
       d="m 130.14844,93.035156 h -14.95703 l -2.94922,-1.132812 h 17.90625 z m 0,0"
       style="fill:#ffffff;fill-opacity:1;fill-rule:nonzero;stroke:none" />
    <path
       id="path91"
       d="m 130.67969,95.921875 h -3.66797 l -0.65234,-1.132813 h 4.32031 z m 0,0"
       style="fill:#ffffff;fill-opacity:1;fill-rule:nonzero;stroke:none" />
    <path
       id="path93"
       d="M 82.71875,93.222656 H 77.5 v -1.132812 h 5.21875 z m 0,0"
       style="fill:#ffffff;fill-opacity:1;fill-rule:nonzero;stroke:none" />
    <path
       id="path95"
       d="M 83.75,96.90625 H 78.53125 V 95.773438 H 83.75 Z m 0,0"
       style="fill:#ffffff;fill-opacity:1;fill-rule:nonzero;stroke:none" />
    <path
       id="path97"
       d="m 95.445312,96.488281 h -5.148437 v -1.132812 h 5.148437 z m 0,0"
       style="fill:#ffffff;fill-opacity:1;fill-rule:nonzero;stroke:none" />
    <path
       id="path99"
       d="m 106.72266,97.636719 h 3.50781 v -0.847657 h -3.50781 z m 0,0"
       style="fill:#ffffff;fill-opacity:1;fill-rule:nonzero;stroke:none" />
    <path
       id="path101"
       d="m 93.121094,93.222656 h -5.148438 v -1.132812 h 5.148438 z m 0,0"
       style="fill:#ffffff;fill-opacity:1;fill-rule:nonzero;stroke:none" />
  </g>
  <circle
     r="56.334156"
     cy="91.501007"
     cx="87.884987"
     id="path139"
     style="opacity:1;fill:none;fill-opacity:1;stroke:#000000;stroke-width:0.7175138;stroke-miterlimit:4;stroke-dasharray:none;stroke-opacity:1" />
  <text
     id="text143"
     y="157.22833"
     x="64.044746"
     style="font-style:normal;font-weight:normal;font-size:10px;line-height:1.25;font-family:sans-serif;letter-spacing:0px;word-spacing:0px;fill:#000000;fill-opacity:1;stroke:none;stroke-width:0.75"
     xml:space="preserve"><tspan
       style="stroke-width:0.75"
       y="157.22833"
       x="64.044746"
       id="tspan141">40.00mm</tspan></text>
</svg>
