<?xml version="1.0" encoding="UTF-8" standalone="no"?>
<svg
   xmlns:dc="http://purl.org/dc/elements/1.1/"
   xmlns:cc="http://creativecommons.org/ns#"
   xmlns:rdf="http://www.w3.org/1999/02/22-rdf-syntax-ns#"
   xmlns:svg="http://www.w3.org/2000/svg"
   xmlns="http://www.w3.org/2000/svg"
   id="svg428"
   version="1.1"
   viewBox="0 0 210 297"
   height="297mm"
   width="210mm">
  <defs
     id="defs422" />
  <metadata
     id="metadata425">
    <rdf:RDF>
      <cc:Work
         rdf:about="">
        <dc:format>image/svg+xml</dc:format>
        <dc:type
           rdf:resource="http://purl.org/dc/dcmitype/StillImage" />
        <dc:title></dc:title>
      </cc:Work>
    </rdf:RDF>
  </metadata>
  <g
     id="layer1">
    <path
       id="path219"
       style="fill:#1b1918;fill-rule:evenodd;stroke-width:0.51172113"
       d="m 82.065412,142.40485 c -0.50042,-0.87049 -1.38938,-1.8645 -1.25966,-2.73618 l 12.56556,-22.19252 25.529408,0.0369 12.72686,22.36581 -12.71405,22.10057 -25.559298,-0.0342 z m 10.5942,21.65869 h 27.217638 c 0.48992,-0.14041 14.03015,-23.65768 14.02305,-24.18684 -0.0116,-0.79102 -13.00325,-22.5798 -13.65846,-24.48597 H 92.659612 c -0.89613,0.17464 -3.24948,4.98975 -3.72338,5.75778 l -10.51607,18.5612 c -0.11024,0.62712 1.11375,2.32676 1.45809,2.9401 0.6376,1.13582 1.17593,2.04756 1.80514,3.19073 l 7.1249,12.31914 c 0.61294,0.99482 2.75287,5.47367 3.85132,5.90386 z" />
    <path
       id="path221"
       style="fill:#1b1918;fill-rule:evenodd;stroke-width:0.51172113"
       d="m 97.680522,124.84658 c 0.0443,-0.0439 0.11566,-0.17407 0.13538,-0.129 l 6.018618,-3.66658 c 2.76062,-1.66018 2.27351,-1.41421 6.74207,1.17695 l 7.07266,4.30301 c 1.25525,1.01909 4.12615,2.23846 5.70794,3.46727 l 0.06,19.75304 c -0.74369,0.62575 -3.19177,1.96174 -4.20266,2.49742 -1.48544,0.78738 -2.6624,1.55743 -4.2341,2.4428 -1.03296,0.58198 -8.08084,4.82236 -8.72172,4.8528 -1.20403,0.0573 -15.102428,-8.74009 -17.294998,-9.62885 l -0.0155,-20.05492 c 2.47152,-1.15208 7.76353,-4.85121 8.73191,-5.01388 z m -10.2641,4.22148 -0.0277,21.63941 9.30308,5.3961 c 1.00144,0.55189 9.033938,5.23339 9.368048,5.26545 0.70853,0.0681 8.67161,-4.76805 9.34909,-5.14851 1.71401,-0.96267 3.19113,-1.83284 4.72862,-2.76208 1.34781,-0.81465 3.5085,-1.88297 4.70122,-2.7203 l 0.004,-21.69641 c -2.61934,-1.71714 -17.6335,-10.85857 -18.61943,-10.91547 -0.56801,-0.0327 -8.159598,4.52944 -9.487978,5.25793 -4.26463,2.33886 -5.59745,3.73699 -9.31859,5.68388 z" />
    <path
       id="path223"
       style="fill:#1b1918;fill-rule:evenodd;stroke-width:0.51172113"
       d="m 98.769762,125.97948 h 14.997428 l 8.05505,13.88652 c -1.42192,3.14591 -7.00603,11.54959 -7.74372,13.64239 H 98.769762 c -1.15755,-0.25694 -8.15221,-13.28679 -8.15569,-13.64378 -10e-4,-0.15067 7.13078,-13.34947 8.15569,-13.88513 z m -1.08924,-1.1329 c -1.18243,2.71339 -2.56362,4.84292 -4.00493,7.43172 -5.20851,9.35472 -5.53208,5.52438 -0.2181,14.84079 0.94299,1.65331 3.3074,6.23101 4.30819,7.35076 l 16.801478,0.0135 8.30253,-14.60932 c -0.006,-0.54462 -3.57581,-6.59526 -4.13056,-7.48503 -1.65179,-2.64959 -2.74544,-4.9719 -4.18055,-7.43506 z" />
    <path
       id="path225"
       style="fill:#1b1918;fill-rule:evenodd;stroke-width:0.51172113"
       d="m 113.48948,144.32856 c -0.4298,0.84583 -0.60408,1.1723 -1.05445,1.98687 -0.43619,0.78908 -0.85652,1.34112 -1.10686,2.24897 l -5.13901,-0.006 1.75915,-1.17564 c 0.78718,-0.40814 1.04482,-0.51407 1.81058,-0.97333 1.0523,-0.63117 2.67906,-1.69047 3.73059,-2.08142 z m -14.764028,-0.0965 c 1.410248,0.6701 2.398958,1.34364 3.649488,2.03139 0.62404,0.3432 1.18786,0.64917 1.77792,1.00829 l 1.91707,1.27373 c -6.152718,0.0294 -4.23562,0.97253 -7.344478,-4.31341 z m 11.100098,-10.31987 c 0.7311,0.69808 2.39787,1.69952 3.33986,1.80713 l -0.0721,8.03489 -5.09901,3.10151 c -2.69713,1.56651 -1.68913,0.86849 -5.37807,-0.98032 -1.37618,-0.89775 -3.177278,-1.58647 -3.379678,-2.39899 l 9.9e-4,-7.22101 c 0.14467,-0.56739 4.254398,-2.88369 5.068228,-3.34562 1.00222,-0.56885 1.56234,-1.13951 2.59101,-0.65062 1.03204,0.49054 2.02309,1.15789 2.92887,1.65303 z m -11.073948,1.69963 -0.0261,8.62024 c -0.36859,-0.60215 -2.32486,-3.80229 -2.36799,-4.15042 -0.0903,-0.73028 1.95267,-3.84094 2.39414,-4.46984 z m 14.737878,8.7167 0.006,-7.79049 c -0.25945,-1.43384 0.036,-0.40134 -0.32997,-0.81871 -0.26593,-0.52593 0.68894,0.0389 -1.5527,-1.2009 l -5.50812,-3.351 5.21443,0.002 c 0.35258,1.39085 2.73295,5.08441 3.53385,6.49405 0.74977,1.31957 1.52359,1.7899 0.62385,3.33355 -0.45457,0.77992 -1.51931,2.85623 -1.98723,3.33075 z m -14.737878,-8.7167 c 0.31947,-0.73018 2.119138,-4.25946 2.795438,-4.4444 l 4.23489,0.33061 -3.36353,2.0064 c -1.07929,0.57159 -2.555228,1.66478 -3.666798,2.10737 z m 1.993248,13.42463 10.89159,0.036 c 0.48332,-1.34915 1.71304,-3.03666 2.47314,-4.42122 l 2.49435,-4.28873 c 0.0458,-0.054 0.1259,-0.13248 0.16458,-0.17638 0.0396,-0.0447 0.11102,-0.12107 0.1704,-0.17774 l -0.0567,6.3851 c 0.94479,-0.88288 0.47881,-8.35145 0.4961,-9.86015 0.004,-0.40206 0.0623,-1.36042 0.0364,-1.68695 -0.14176,-1.77551 -0.31577,-1.34392 -0.57022,-1.49263 l 0.11392,6.38351 c -1.06934,-0.91373 -5.05785,-8.28865 -5.36892,-9.04452 l -10.80504,0.0155 c -0.967458,1.4847 -1.556608,2.84183 -2.547358,4.45755 -3.33641,5.44103 -3.42228,3.93932 -0.13267,9.2533 0.84573,1.3663 2.008618,3.19503 2.640318,4.61727 z" />
    <path
       id="path227"
       style="fill:#1b1918;fill-rule:evenodd;stroke-width:0.51172113"
       d="m 100.78458,130.70838 c 0.29908,-0.40712 4.71213,-3.00911 5.23949,-3.04826 0.72609,-0.054 2.06046,0.84571 2.82998,1.29399 0.45186,0.26307 0.96065,0.5942 1.37274,0.83425 0.16111,0.0938 0.64451,0.3645 0.70955,0.40693 0.0515,0.0335 0.12224,0.0795 0.17059,0.11314 l 0.3255,0.25145 c 0.0344,0.0263 0.1085,0.0843 0.15705,0.13287 1.71002,0.60107 3.84815,2.47116 5.25508,2.661 0.25443,0.14873 0.42842,-0.28287 0.5702,1.49266 0.0261,0.32653 -0.0317,1.28487 -0.0364,1.68693 -0.0174,1.5087 0.44869,8.97728 -0.4961,9.86015 -1.65982,0.17193 -3.35096,2.00688 -5.24602,2.67887 l -2.60226,1.61713 c -0.40053,0.24276 -2.44669,1.45488 -2.81087,1.48062 -0.66478,0.047 -5.04389,-2.66398 -5.47845,-3.13363 l -4.233938,-2.19135 c -0.78109,-0.44764 -0.83482,-0.34171 -1.14232,-1.14686 l 0.006,-11.66463 c 0.20904,-1.01761 4.53685,-3.0324 5.409248,-3.32528 z m -6.152128,2.46845 0.004,13.42515 c 1.03813,0.62416 10.944228,6.30963 11.380208,6.34479 0.77256,0.0621 10.83053,-5.78794 11.60452,-6.35344 l -4.6e-4,-13.40759 -8.56586,-4.98785 c -0.89209,-0.53025 -2.32418,-0.92044 -2.84205,-1.81636 -1.01449,1.18115 -9.526718,5.4376 -11.580958,6.7953 z" />
    <path
       id="path229"
       style="fill:none;stroke:#1b1918;stroke-width:0.29009476;stroke-linecap:butt;stroke-linejoin:miter;stroke-dasharray:none"
       d="m 102.87443,134.24418 3.29764,0.01 3.29763,0.01 1.63997,2.86089 1.63996,2.86092 -1.65761,2.85074 -1.65767,2.85075 -3.29764,-0.01 -3.29764,-0.01 -1.63997,-2.86093 -1.639948,-2.86092 1.657608,-2.8507 z" />
    <path
       id="path231"
       style="fill:none;stroke:#1b1918;stroke-width:0.29009476;stroke-linecap:butt;stroke-linejoin:miter;stroke-dasharray:none"
       d="m 106.09511,135.46453 a 4.4847755,4.4847755 0 0 1 4.48477,4.48477 4.4847755,4.4847755 0 1 1 -4.48477,-4.48477 z" />
    <path
       id="path233"
       style="fill:none;stroke:#1b1918;stroke-width:0.29009476;stroke-linecap:butt;stroke-linejoin:miter;stroke-dasharray:none"
       d="m 120.34516,114.19197 7.31873,12.65553 7.31875,12.65548 -7.09343,12.78807 -7.09347,12.78811 -14.41222,0.13248 -14.412218,0.13268 -7.31879,-12.65553 -7.31873,-12.65547 7.09347,-12.78808 7.09347,-12.78805 14.412218,-0.13267 z" />
    <g
       id="Layer1001"
       transform="matrix(0.51172117,0,0,0.51172117,49.139213,-40.804072)">
      <path
         id="path235"
         style="fill:none;stroke:#006fa6;stroke-width:0.21600001;stroke-linecap:butt;stroke-linejoin:miter;stroke-dasharray:none"
         d="m 167.8192,359.4404 0.6772,73.6592" />
      <path
         id="path237"
         style="fill:none;stroke:#006fa6;stroke-width:0.21600001;stroke-linecap:butt;stroke-linejoin:miter;stroke-dasharray:none"
         d="m 55.1625,360.4762 0.6772,73.6591" />
      <path
         id="path239"
         style="fill:none;stroke:#006fa6;stroke-width:0.21600001;stroke-linecap:butt;stroke-linejoin:miter;stroke-dasharray:none"
         d="m 142.314,426.2536 26.1175,-0.2401" />
      <path
         id="path241"
         style="fill:none;stroke:#006fa6;stroke-width:0.21600001;stroke-linecap:butt;stroke-linejoin:miter;stroke-dasharray:none"
         d="m 55.7748,427.0493 27.1255,-0.2495" />
    </g>
    <text
       style="font-size:6.14065409px;stroke-width:0.51172113"
       id="text246"
       y="179.66376"
       x="94.047943">
      <tspan
         style="font-size:6.14065409px;font-family:Arial;fill:#006fa6;stroke-width:0.51172113"
         id="tspan244"
         font-size="12.0000">40.00mm</tspan>
    </text>
  </g>
</svg>
