<?xml version="1.0" encoding="UTF-8" standalone="no"?>
<!-- Created with Inkscape (http://www.inkscape.org/) -->

<svg
   xmlns:dc="http://purl.org/dc/elements/1.1/"
   xmlns:cc="http://creativecommons.org/ns#"
   xmlns:rdf="http://www.w3.org/1999/02/22-rdf-syntax-ns#"
   xmlns:svg="http://www.w3.org/2000/svg"
   xmlns="http://www.w3.org/2000/svg"
   xmlns:sodipodi="http://sodipodi.sourceforge.net/DTD/sodipodi-0.dtd"
   xmlns:inkscape="http://www.inkscape.org/namespaces/inkscape"
   version="1.1"
   id="svg1855"
   width="70mm"
   height="40mm"
   viewBox="0 0 264.56694 151.18109"
   sodipodi:docname="hs_50x10.svg"
   inkscape:version="0.92.2 5c3e80d, 2017-08-06">
  <metadata
     id="metadata1861">
    <rdf:RDF>
      <cc:Work
         rdf:about="">
        <dc:format>image/svg+xml</dc:format>
        <dc:type
           rdf:resource="http://purl.org/dc/dcmitype/StillImage" />
        <dc:title></dc:title>
      </cc:Work>
    </rdf:RDF>
  </metadata>
  <defs
     id="defs1859" />
  <sodipodi:namedview
     pagecolor="#ffffff"
     bordercolor="#666666"
     borderopacity="1"
     objecttolerance="10"
     gridtolerance="10"
     guidetolerance="10"
     inkscape:pageopacity="0"
     inkscape:pageshadow="2"
     inkscape:window-width="1440"
     inkscape:window-height="805"
     id="namedview1857"
     showgrid="false"
     units="mm"
     inkscape:zoom="1.569378"
     inkscape:cx="258.98879"
     inkscape:cy="86.765975"
     inkscape:window-x="0"
     inkscape:window-y="1"
     inkscape:window-maximized="1"
     inkscape:current-layer="svg1855" />
  <path
     style="fill:#000000;stroke-width:0.15897802"
     d="m 37.277107,57.3258 c 0.21751,-0.82048 1.19422,-1.78805 2.03359,-2.01576 1.36237,-0.3691 2.90429,0.36042 3.48475,1.64754 0.2795,0.62201 0.3005,1.12804 0.3045,7.3283 l 0.004,6.66016 h 6.3309 6.3307 l 0.04,-6.73993 c 0.04,-6.47783 0.0565,-6.76473 0.378,-7.37801 0.18901,-0.35096 0.63111,-0.85226 0.99957,-1.11402 0.55936,-0.39775 0.82201,-0.47592 1.60052,-0.47592 0.77661,0 1.04492,0.0793 1.61368,0.47806 0.3985,0.27858 0.83146,0.77416 1.03931,1.18769 l 0.35701,0.70966 -0.003,16.2776 c -0.003,15.55321 -0.015,16.30684 -0.30051,16.93424 -0.5064,1.12235 -2.05773,1.97403 -3.13689,1.72192 -0.86732,-0.20256 -1.77998,-0.8621 -2.14509,-1.54792 -0.3515,-0.66087 -0.357,-0.77375 -0.4045,-7.41102 l -0.0565,-6.73993 h -6.32935 -6.3294 l -0.004,6.66016 c -0.003,6.15987 -0.02,6.7095 -0.3005,7.31679 -0.54796,1.2171 -2.09253,1.99611 -3.3013,1.66611 -0.87677,-0.23917 -1.69688,-0.86596 -2.03698,-1.55525 -0.28701,-0.58343 -0.30051,-1.26124 -0.32501,-16.79972 -0.015,-10.74518 0.04,-16.39999 0.132,-16.81075 z m 36.87182,31.48702 c 0.0945,-0.287 10.3714,-25.88065 12.917988,-32.15393 0.30251,-0.74402 1.40587,-1.61496 2.18949,-1.72643 1.33217,-0.18968 2.56323,0.39801 3.11499,1.48719 0.34601,0.68414 7.634725,18.65739 10.952495,27.01019 1.69689,4.2729 2.20235,5.71034 2.20235,6.26772 0,2.20435 -2.2322,3.58317 -4.22704,2.61089 -0.37602,-0.18315 -0.81822,-0.50614 -0.98453,-0.71779 -0.17,-0.21163 -0.818165,-1.69492 -1.451175,-3.2962 -0.63301,-1.60128 -1.22072,-3.00183 -1.30572,-3.11233 -0.1135,-0.15767 -1.81023,-0.19201 -7.84767,-0.15953 l -7.693458,0.0414 -1.23392,3.09692 c -0.67836,1.70331 -1.39642,3.27413 -1.59293,3.49072 -0.48751,0.53406 -1.49847,0.98204 -2.22633,0.98629 -1.88958,0.011 -3.3771,-2.01052 -2.81474,-3.8251 z m 15.690228,-9.73101 h 5.38439 l -0.32701,-0.8375 c -0.94856,-2.42408 -4.47057,-11.19903 -4.76347,-11.8658 -0.29451,-0.67333 -0.35701,-0.73236 -0.47601,-0.45596 -0.47451,1.10403 -5.192778,12.94236 -5.196778,13.03962 -0.003,0.0658 2.418138,0.11964 5.379678,0.11964 z m 29.302145,9.48566 c 0.0565,-0.26655 3.48915,-6.29659 7.61302,-13.40008 4.12401,-7.10349 7.67211,-13.22054 7.88452,-13.59342 l 0.3855,-0.67799 -6.7088,-0.004 c -6.20014,-0.003 -6.7568,-0.026 -7.34261,-0.29986 -0.34751,-0.163 -0.80116,-0.45873 -1.00712,-0.65718 -0.77476,-0.74735 -1.03931,-2.17592 -0.60091,-3.2346 0.28901,-0.69841 1.22822,-1.4967 2.00563,-1.70769 0.98637,-0.26755 19.09224,-0.14802 19.7232,0.13022 1.12242,0.49472 1.82343,1.56228 1.82153,2.7764 -7.5e-4,0.59091 -0.48351,1.56502 -3.5804,7.21779 -1.96873,3.59407 -5.53329,9.82974 -7.92097,13.85704 -2.38769,4.02729 -4.34117,7.3465 -4.34117,7.376 0,0.0295 3.08345,0.0751 6.85226,0.10139 6.03119,0.042 6.9091,0.0795 7.32746,0.31265 2.30453,1.28457 2.21613,4.30785 -0.15101,5.41483 -0.59335,0.27682 -1.21691,0.2956 -9.90205,0.29804 -5.89759,0.002 -9.48254,-0.0573 -9.85745,-0.16215 -1.47952,-0.41365 -2.55039,-2.24369 -2.19363,-3.74788 z m 42.07294,-31.42032 c 0.278,-0.79582 1.14697,-1.57787 2.02508,-1.82139 0.48401,-0.13425 3.32775,-0.17284 10.26636,-0.1393 l 9.59704,0.0464 0.67456,0.44925 c 1.68743,1.12505 1.68743,3.71929 0,4.8444 l -0.67456,0.44924 -8.05212,0.0442 -8.05232,0.0441 v 4.94105 4.94103 h 7.96992 7.96977 l 0.75391,0.4816 c 1.90473,1.21629 1.75923,4.09994 -0.257,5.08244 -0.67836,0.3309 -0.86921,0.33838 -8.56593,0.33838 h -7.87167 v 4.86551 4.86552 l 7.64436,8e-4 c 4.90048,8e-4 7.86182,0.0616 8.24978,0.17012 0.78606,0.21989 1.78378,1.1345 2.01848,1.85217 0.0945,0.31151 0.151,0.91979 0.1135,1.35171 -0.0945,0.89479 -0.67836,1.76366 -1.56267,2.28823 -0.52156,0.3099 -0.82201,0.31906 -10.46571,0.31906 h -9.9281 l -0.68596,-0.48072 c -0.40251,-0.28103 -0.83516,-0.77548 -1.04302,-1.19035 l -0.357,-0.70965 0.005,-16.19785 c 0.005,-13.48566 0.04,-16.30477 0.2285,-16.83602 z m 41.04572,-0.47858 c 0.59711,-1.15181 1.48523,-1.72059 2.68705,-1.72059 0.88431,0 1.35102,0.18916 2.03018,0.82282 0.94666,0.88298 0.89751,-0.0231 0.89751,16.03915 v 14.75842 l 8.06672,0.0454 8.06668,0.0454 0.68591,0.48072 c 0.79171,0.55423 1.40017,1.62714 1.40017,2.4705 0,0.84352 -0.60846,1.91629 -1.40017,2.4705 l -0.68591,0.48072 h -9.92816 c -9.64314,0 -9.9434,-0.009 -10.4657,-0.31906 -0.29651,-0.17547 -0.75962,-0.59489 -1.02982,-0.93204 l -0.49151,-0.61299 -0.04,-16.77521 c -0.04,-14.97462 -0.015,-16.8266 0.208,-17.2538 z"
     id="path1865"
     inkscape:connector-curvature="0" />
</svg>
