<?xml version="1.0" encoding="UTF-8" standalone="no"?>
<svg
   xmlns:dc="http://purl.org/dc/elements/1.1/"
   xmlns:cc="http://creativecommons.org/ns#"
   xmlns:rdf="http://www.w3.org/1999/02/22-rdf-syntax-ns#"
   xmlns:svg="http://www.w3.org/2000/svg"
   xmlns="http://www.w3.org/2000/svg"
   viewBox="0 0 226.77165 226.77165"
   height="60mm"
   width="60mm"
   id="svg937"
   version="1.1">
  <metadata
     id="metadata943">
    <rdf:RDF>
      <cc:Work
         rdf:about="">
        <dc:format>image/svg+xml</dc:format>
        <dc:type
           rdf:resource="http://purl.org/dc/dcmitype/StillImage" />
        <dc:title></dc:title>
      </cc:Work>
    </rdf:RDF>
  </metadata>
  <defs
     id="defs941" />
  <path
     id="path1490"
     d="m 70.339964,130.3711 v -10.14831 l 1.294981,10e-4 c 1.511206,0.001 2.365603,0.12173 3.462061,0.48924 3.643003,1.22128 6.262794,4.31132 6.875531,8.10967 0.194434,1.20531 0.07963,3.06067 -0.261293,4.22144 -0.537886,1.83157 -1.197479,2.98572 -2.469031,4.32024 -1.218107,1.27846 -2.56702,2.13466 -4.198069,2.66467 -1.136916,0.36942 -1.980991,0.48883 -3.462061,0.48978 l -1.242119,3.8e-4 z m 3.277076,8.33215 c 1.37127,-0.25632 3.059178,-1.13288 4.10625,-2.13246 1.695962,-1.61908 2.659299,-3.86493 2.659299,-6.19969 0,-4.36793 -3.318619,-8.06107 -7.584818,-8.44082 l -0.872131,-0.0777 v 8.53559 8.53558 l 0.55499,-0.0558 c 0.305242,-0.0308 0.816634,-0.1049 1.13641,-0.16462 z m 60.74828,1.70545 c -1.37152,-0.23019 -2.74277,-0.78223 -3.94348,-1.58754 -1.95425,-1.31068 -3.39453,-3.28944 -4.12786,-5.67106 -0.26463,-0.85949 -0.28606,-1.06749 -0.28606,-2.779 0,-1.71925 0.0206,-1.91717 0.29166,-2.80134 1.08719,-3.5463 3.67462,-6.10129 7.12481,-7.03552 1.12927,-0.30578 3.25817,-0.38931 4.46538,-0.17522 3.11518,0.55247 5.84626,2.57194 7.23186,5.34753 0.91471,1.83232 1.16925,3.0132 1.09075,5.06009 -0.0662,1.73065 -0.27302,2.55625 -1.0255,4.09722 -1.4139,2.89541 -4.12408,4.94995 -7.24828,5.49476 -0.97345,0.16975 -2.71483,0.19416 -3.57328,0.05 z m 3.75526,-1.78352 c 3.092,-0.79079 5.41436,-3.11374 6.23408,-6.23567 0.2934,-1.1175 0.28859,-2.92527 -0.0107,-4.07408 -0.5979,-2.29366 -2.03837,-4.18548 -4.12834,-5.42189 -0.7129,-0.42175 -2.2127,-0.87337 -3.18321,-0.9585 -4.42208,-0.38796 -8.08681,2.15366 -9.19163,6.3747 -0.30147,1.15176 -0.30598,2.95524 -0.0107,4.07977 0.81489,3.09839 3.11601,5.42558 6.15028,6.21993 1.09672,0.28711 3.04991,0.29453 4.13997,0.0158 z m 19.51716,-0.88066 c -0.83389,-1.46809 -2.60947,-4.59847 -3.94579,-6.95644 l -2.42963,-4.28721 -0.0273,6.85515 -0.0273,6.85516 -0.8185,-0.0309 -0.8185,-0.0308 -0.0269,-9.91049 c -0.0153,-5.45076 0.0107,-9.91047 0.0559,-9.91047 0.0456,0 1.86543,3.14912 4.04403,6.99804 l 3.96109,6.99802 0.0273,-6.83948 0.0273,-6.83944 h 0.84495 0.84491 v 9.88405 c 0,5.9772 -0.0386,9.88403 -0.0978,9.88403 -0.0538,0 -0.77994,-1.20114 -1.61382,-2.6692 z m -50.64962,2.38874 c -0.0395,-0.0395 -0.0717,-4.44045 -0.0717,-9.77976 v -9.70787 h 0.84568 0.84571 v 8.93264 8.93265 h 2.70009 2.7001 l -0.0309,0.81928 -0.0309,0.81925 -3.44302,0.0279 c -1.89366,0.0153 -3.47538,-0.004 -3.51494,-0.0442 z m 12.36686,-0.001 c -0.0388,-0.0388 -0.0703,-2.02969 -0.0703,-4.42436 v -4.35408 l -2.26314,-5.32751 -2.26311,-5.3275 0.85262,-0.0309 c 0.46894,-0.017 0.88914,0.005 0.93379,0.0528 0.0446,0.0461 0.82739,1.84396 1.73948,3.99518 0.91209,2.15123 1.71413,4.01904 1.78234,4.15066 0.11115,0.21452 0.30864,-0.1991 1.90514,-3.99062 l 1.78114,-4.22994 h 0.8915 c 0.80096,0 0.88552,0.0188 0.83265,0.18498 -0.0323,0.10165 -1.05834,2.53754 -2.27993,5.41285 l -2.22108,5.22785 v 4.36549 4.3655 h -0.77523 c -0.42638,0 -0.80692,-0.0316 -0.8457,-0.0704 z m -33.263957,-3.62944 v -3.5942 H 85.35103 84.611055 v -0.8457 -0.84569 h 0.739975 0.739993 v -5.49811 -5.49814 l 4.572042,0.0276 4.57202,0.0275 0.0309,0.81926 0.0309,0.81927 h -3.75725 -3.757208 v 4.65133 4.65131 h 0.977838 c 0.53781,0 2.01249,0.0315 3.27706,0.0697 l 2.29924,0.0693 v 0.77601 0.776 h -3.27707 -3.277068 v 2.7485 2.74852 h 3.752768 3.75278 v 0.84569 0.84569 h -4.59841 -4.598454 v -3.5942 z m 31.068087,-19.18557 c -3.00773,-0.57101 -5.6296,-2.47844 -7.05995,-5.13614 -3.12569,-5.80786 -0.0285,-12.98568 6.32441,-14.65692 1.25711,-0.33071 3.50409,-0.3841 4.71265,-0.11197 3.08194,0.69395 5.70549,2.78509 7.0239,5.59843 0.75967,1.62114 0.90359,2.32247 0.89644,4.36859 -0.005,1.64172 -0.0309,1.87742 -0.29143,2.72612 -1.08006,3.51913 -3.74147,6.12345 -7.20782,7.05329 -1.10922,0.29754 -3.25813,0.37505 -4.3982,0.1586 z m 3.45381,-1.64924 c 1.63453,-0.30047 3.31486,-1.24189 4.55287,-2.55081 2.76215,-2.92029 3.07878,-7.25853 0.77754,-10.65357 -0.52986,-0.78172 -1.80907,-1.97106 -2.64625,-2.46035 -3.24197,-1.8948 -7.62471,-1.34424 -10.25751,1.28857 -3.88513,3.8851 -3.15727,10.28818 1.50738,13.2605 1.64745,1.04975 4.03539,1.48893 6.06597,1.11566 z m 16.84941,-5.16999 -3.95961,-6.97666 -0.0528,6.79168 -0.0529,6.79168 h -0.79284 -0.79284 l -0.0269,-9.91706 c -0.0153,-5.62 0.0121,-9.89236 0.0652,-9.86009 0.0507,0.0313 1.84671,3.1559 3.99115,6.9435 l 3.89901,6.88659 0.0273,-6.7784 0.0273,-6.77838 h 0.84493 0.84492 v 9.93693 c 0,5.46528 -0.0138,9.93689 -0.0311,9.93689 -0.017,0 -1.81283,-3.13949 -3.99062,-6.97668 z m -49.29231,6.58907 c -0.03878,-0.0388 -0.07042,-4.43901 -0.07042,-9.77834 v -9.70787 h 0.845675 0.8457 v 8.93265 8.93264 h 2.6428 2.6428 v 0.84571 0.84569 h -3.418 c -1.87991,0 -3.449742,-0.0317 -3.488504,-0.0704 z m 10.572315,10e-4 c -0.0394,-0.0393 -0.0716,-1.56219 -0.0716,-3.38395 v -3.31224 h -0.84569 -0.84569 v -0.79284 -0.79284 h 0.84569 0.84569 v -5.60272 -5.60272 h 4.492745 4.49275 v 0.84568 0.84569 h -3.64707 -3.64703 v 4.75705 4.75702 h 2.95991 2.95994 v 0.79284 0.79284 h -2.95994 -2.95991 v 2.53707 2.53709 h 3.65149 3.65151 l -0.0309,0.81925 -0.0309,0.81927 -4.39469,0.0276 c -2.41709,0.0153 -4.426925,-0.004 -4.466315,-0.0442 z m -0.0716,-21.86588 v -0.79284 h 4.439895 4.4399 v 0.79284 0.79284 h -4.4399 -4.439895 z M 112.51897,84.21907 c -0.20348,-0.0234 -0.82191,-0.0944 -1.37425,-0.15758 C 104.63137,83.31653 98.244895,80.24157 93.600575,75.61433 89.328945,71.35846 86.645768,66.04513 85.699,59.96739 85.524916,58.84986 85.509619,57.7447 85.509619,46.27773 c 0,-13.65756 -0.02067,-13.13812 0.639688,-16.08237 0.877055,-3.91057 2.818678,-7.92016 5.396908,-11.14502 0.8738,-1.09296 3.18066,-3.40521 4.31795,-4.3281 3.5831,-2.90753 8.249455,-5.0824604 12.916705,-6.0203004 3.23017,-0.64909 7.43316,-0.73179 10.8165,-0.2128 4.97908,0.76374 10.00689,2.9775104 14.06395,6.1924504 1.13252,0.89742 3.4353,3.19798 4.37821,4.37397 2.50491,3.12412 4.26172,6.64876 5.24,10.51283 0.82582,3.26175 0.7944,2.60336 0.7944,16.65647 0,11.50541 -0.0154,12.62597 -0.18892,13.74253 -1.18484,7.62445 -5.10096,14.03107 -11.37428,18.60777 -3.96091,2.88971 -8.68228,4.78023 -13.5962,5.44425 -1.19608,0.16162 -5.54859,0.2975 -6.39556,0.19966 z m 5.91987,-7.64238 c 3.90365,-0.68223 7.6828,-2.46964 10.5921,-5.00968 l 0.39093,-0.34131 -1.28083,-2.98636 c -0.70445,-1.6425 -1.31061,-2.98636 -1.34703,-2.98636 -0.0364,0 -0.55726,0.54922 -1.15743,1.22047 -1.24605,1.39368 -3.48892,3.46841 -5.15899,4.77224 -1.1651,0.90957 -3.66509,2.63052 -4.88646,3.36369 l -0.68059,0.40857 -0.5351,-0.29839 c -0.97736,-0.545 -2.9487,-1.86668 -4.3409,-2.91032 -2.37494,-1.78036 -4.55369,-3.78307 -6.28969,-5.78157 l -0.93405,-1.07522 -1.28892,3.00336 c -0.70894,1.65186 -1.26223,3.073 -1.22958,3.1581 0.0827,0.21554 1.95811,1.69261 2.9769,2.34461 1.14211,0.73091 3.17533,1.73905 4.33496,2.14939 1.24707,0.44128 3.146,0.90149 4.33339,1.05022 0.52326,0.0655 1.09412,0.13889 1.26855,0.16287 0.80276,0.11057 4.07646,-0.0423 5.23274,-0.24431 z M 114.16883,72.697 c -0.0354,-0.0919 -0.0643,-3.22795 -0.0643,-6.96887 v -6.80166 l -1.43764,-0.82736 -1.43766,-0.82736 -0.55276,-1.298 c -0.30401,-0.71391 -0.60432,-1.34958 -0.66736,-1.41261 -0.19035,-0.19035 -0.34624,-0.001 -0.78842,0.95282 -1.68398,3.63612 -2.41027,6.74589 -2.41027,10.32013 v 1.29868 l 0.90386,0.85558 c 0.49712,0.47058 1.51538,1.33833 2.26278,1.92831 1.35841,1.07234 3.99423,2.93481 4.16521,2.94315 0.0498,0.003 0.0618,-0.071 0.0264,-0.16281 z m 2.99565,-0.83674 c 1.68441,-1.16697 3.84912,-2.88037 4.95566,-3.92246 l 0.77426,-0.72916 0.0581,-1.16283 c 0.16067,-3.21616 -0.75433,-7.46297 -2.26944,-10.53289 l -0.6057,-1.22728 -0.31712,0.13628 c -0.25862,0.11116 -0.46345,0.41932 -1.10998,1.67004 l -0.79284,1.53374 -1.03689,0.55587 c -0.57029,0.30574 -1.10759,0.60758 -1.19402,0.67078 -0.13767,0.10062 -0.14793,0.97858 -0.0826,7.06339 0.041,3.82166 0.0963,6.94847 0.12296,6.94847 0.0266,0 0.70052,-0.45178 1.49755,-1.00396 z m 13.7726,-2.19381 c 2.97849,-3.36918 4.85707,-7.5637 5.36211,-11.97263 0.0599,-0.52286 0.1093,-2.53235 0.10976,-4.46555 l 7.1e-4,-3.51491 h -2.83374 -2.83373 l 0.23744,0.94178 c 1.02203,4.05398 0.12419,8.20675 -2.68772,12.43075 -0.46444,0.69768 -0.80982,1.3161 -0.76746,1.37425 0.0422,0.0582 0.63989,1.42579 1.32787,3.0392 0.688,1.61343 1.28604,2.93353 1.32898,2.93353 0.043,0 0.38296,-0.3449 0.75563,-0.76642 z m -30.11344,-2.47757 1.31994,-3.08051 -0.68863,-1.03979 c -2.759625,-4.16697 -3.683205,-8.4584 -2.673435,-12.42195 0.11359,-0.44602 0.23544,-0.88603 0.27066,-0.97782 0.0575,-0.14946 -0.23437,-0.16689 -2.8015,-0.16689 h -2.86554 l 10e-4,3.83207 c 0.001,3.99523 0.0811,5.04688 0.51787,6.88588 0.82654,3.48015 2.60471,6.89033 4.92819,9.45118 0.33199,0.36589 0.61869,0.65022 0.63709,0.63181 0.0184,-0.0184 0.627455,-1.41971 1.353395,-3.11398 z m 25.28232,-3.54154 c 0.91806,-1.18698 1.64329,-2.32821 2.2638,-3.56235 l 0.43919,-0.87351 -0.16965,-0.59988 c -0.5888,-2.08223 -1.48058,-3.81752 -3.03586,-5.90748 -0.70435,-0.9465 -2.25161,-2.67364 -2.39514,-2.67364 -0.0393,0 -0.15591,0.3284 -0.25931,0.72976 -0.20652,0.80173 -0.7341,1.76203 -1.28328,2.33589 l -0.35408,0.36998 0.61332,1.2522 c 0.33733,0.68868 0.83108,1.90173 1.09724,2.69563 0.89059,2.65647 1.21704,4.32356 1.30621,6.6708 l 0.062,1.6331 0.46165,-0.52315 c 0.25392,-0.28772 0.81816,-0.98403 1.25386,-1.54735 z m -20.67577,0.57858 c 0.009,-0.89058 0.30934,-2.83732 0.65363,-4.24866 0.42852,-1.75655 0.93092,-3.15738 1.74387,-4.86235 l 0.67556,-1.41686 -0.56016,-0.59167 c -0.75776,-0.80038 -1.04987,-1.32563 -1.41221,-2.53925 -0.0951,-0.31857 -1.84099,1.64047 -3.05464,3.42755 -0.84653,1.24653 -1.83061,3.24389 -2.1979,4.46103 l -0.26159,0.86686 0.29049,0.61422 c 0.65254,1.37978 1.81178,3.10311 3.21856,4.78471 l 0.74927,0.89566 0.0745,-0.41994 c 0.0409,-0.23097 0.077,-0.66805 0.0806,-0.9713 z m 10.4263,-7.14799 c 0.9566,-0.50963 0.95999,-0.51292 1.34783,-1.2967 0.21385,-0.43217 0.38882,-0.80221 0.38882,-0.8223 0,-0.0201 -0.31037,-0.0683 -0.68974,-0.10719 -0.37933,-0.0389 -1.01031,-0.18633 -1.40218,-0.32768 l -0.71245,-0.25698 -0.68563,0.24776 c -0.37709,0.1363 -0.97414,0.28079 -1.32676,0.32117 -0.94763,0.10859 -0.9736,0.14119 -0.67058,0.84281 0.24743,0.57292 0.29534,0.61582 1.41817,1.26927 0.63915,0.37198 1.20966,0.66833 1.2678,0.65854 0.0582,-0.009 0.53727,-0.2477 1.06472,-0.52872 z m -14.75681,-1.76035 c 0.96576,-1.90405 2.565,-4.0414 4.17249,-5.57645 0.67168,-0.64142 1.22124,-1.22443 1.22124,-1.29555 0,-0.0711 -0.23631,-0.48267 -0.52517,-0.91452 -0.77191,-1.15412 -1.08924,-2.21704 -1.10005,-3.68472 -0.0121,-1.76219 0.48317,-3.15678 1.58554,-4.45675 0.2544,-0.29998 0.46251,-0.57881 0.46251,-0.61959 0,-0.0407 -0.67786,-0.053 -1.50638,-0.0269 -1.60655,0.0504 -2.24206,0.21987 -2.81142,0.74981 -0.88023,0.8193 -0.7845,2.27848 0.29167,4.44542 l 0.51814,1.04333 -0.67334,0.89274 c -1.93235,2.562 -2.901345,5.23082 -2.901345,7.99094 0,1.08974 0.221755,2.90233 0.387985,3.1713 0.0354,0.0573 0.16928,-0.15176 0.29742,-0.46456 0.12817,-0.31286 0.38945,-0.87737 0.58071,-1.25444 z m 28.82376,-0.90006 c 0.13461,-2.93902 -0.75921,-5.63955 -2.77142,-8.37342 l -0.79249,-1.07672 0.46724,-0.9305 c 1.82672,-3.63805 0.95122,-5.38682 -2.65079,-5.29478 l -1.17775,0.0302 0.5326,0.63427 c 1.03869,1.23699 1.56784,2.71761 1.56784,4.38705 0,1.55047 -0.44298,2.9213 -1.30823,4.04837 l -0.38924,0.50703 1.25997,1.2372 c 1.74374,1.71219 3.47119,4.11913 4.29784,5.98835 0.14121,0.31917 0.33619,0.76027 0.43343,0.98023 l 0.17677,0.39993 0.14562,-0.58142 c 0.0802,-0.31979 0.17399,-1.19983 0.20858,-1.95566 z m -16.93383,-1.23471 0.78331,-0.23045 0.0575,-0.4831 c 0.067,-0.56526 0.097,-1.27517 0.077,-1.82492 l -0.0138,-0.39042 -1.52706,-0.8036 -1.52706,-0.80361 -0.0544,-0.44452 c -0.0299,-0.24448 -0.0824,-1.18184 -0.11653,-2.08304 -0.0726,-1.92076 -0.0421,-1.86787 -1.23963,-2.15017 l -0.79909,-0.18838 0.15144,-0.6492 c 0.0833,-0.35707 0.17146,-0.66922 0.19591,-0.69365 0.0245,-0.0245 0.48656,0.0642 1.02694,0.19678 0.8371,0.20557 1.06458,0.31106 1.53743,0.71296 l 0.55501,0.47168 v 1.34592 c 0,0.74024 0.0294,1.62703 0.0652,1.97064 l 0.0653,0.62475 1.20576,0.62778 1.20577,0.62779 1.169,-0.57632 c 0.64294,-0.31698 1.21138,-0.62727 1.26322,-0.68952 0.0518,-0.0624 0.12679,-0.9809 0.16664,-2.04141 l 0.0725,-1.9282 0.52502,-0.45928 c 0.45391,-0.39708 0.65565,-0.48935 1.48964,-0.68141 0.53055,-0.12219 0.99412,-0.22179 1.03017,-0.22139 0.036,3.3e-4 0.12297,0.29292 0.19327,0.65006 0.14962,0.76051 0.15606,0.7527 -0.7667,0.93425 -1.118,0.21993 -1.13064,0.23942 -1.13064,1.74254 0,0.71131 -0.0311,1.66057 -0.0691,2.10946 l -0.0691,0.81615 -1.45542,0.72911 c -0.80048,0.40101 -1.49489,0.79014 -1.54312,0.86476 -0.11045,0.17084 -0.0646,2.42089 0.0515,2.53718 0.14104,0.14103 1.94428,0.6085 2.35251,0.60992 0.86373,0.003 2.22746,-0.69691 2.82302,-1.44887 0.815,-1.02901 1.11288,-2.11136 0.87996,-3.19736 l -0.12067,-0.56275 0.61785,-0.64548 c 1.12735,-1.17778 1.54503,-2.19194 1.55024,-3.764 0.003,-0.77972 -0.051,-1.16149 -0.23976,-1.70754 -1.14065,-3.30058 -5.0095,-4.68334 -7.96657,-2.84732 l -0.49266,0.3059 -0.40588,-0.27634 c -1.99306,-1.35693 -4.95425,-1.03674 -6.70104,0.72458 -0.71447,0.72043 -1.0638,1.30023 -1.35716,2.25261 -0.53812,1.74707 -0.13169,3.58687 1.12813,5.10731 l 0.51075,0.61641 -0.14501,0.4757 c -0.21429,0.70306 -0.12067,1.83501 0.21189,2.56138 0.63879,1.39528 2.07129,2.38011 3.49098,2.40001 0.2774,0.004 0.85684,-0.0967 1.28766,-0.22338 z m 23.39006,-11.52998 c -0.0362,-6.21288 -0.0669,-7.33962 -0.21981,-8.11338 -0.24854,-1.25721 -0.55438,-2.42954 -0.92388,-3.54134 -0.31752,-0.9554 -1.72696,-3.91581 -2.07614,-4.36076 -0.1843,-0.23485 -0.22145,-0.15698 -2.79908,5.867 -1.43676,3.35775 -2.64275,6.1883 -2.67999,6.29009 -0.0492,0.13415 0.0766,0.31493 0.45784,0.65758 1.30218,1.17077 1.40264,3.01447 0.30258,5.55298 l -0.36906,0.85162 0.56882,0.79283 c 0.31286,0.43606 0.84499,1.33833 1.1825,2.00504 l 0.61367,1.21223 2.99237,3.7e-4 2.99236,3.4e-4 -0.042,-7.21481 z m -36.470135,6.02354 c 0.245295,-0.4803 0.750325,-1.31958 1.122325,-1.86509 l 0.67633,-0.99186 -0.35202,-0.76188 c -1.09788,-2.37625 -1.03592,-4.34091 0.17396,-5.51461 0.22962,-0.22274 0.41752,-0.44437 0.41757,-0.49251 5e-5,-0.0481 -1.12486,-2.71207 -2.499765,-5.91985 -1.37494,-3.20779 -2.56828,-5.99517 -2.65188,-6.1942 l -0.15205,-0.3619 -0.42891,0.73188 c -1.27925,2.18292 -2.26599,5.06194 -2.66486,7.77527 -0.13613,0.92604 -0.16516,2.29645 -0.16516,7.79625 v 6.67269 l 3.03923,-3.5e-4 3.0392,-3.8e-4 0.44598,-0.87324 z M 115.99246,37.40838 c 1.34336,-0.48078 3.17462,-0.53053 4.3439,-0.11807 l 0.46086,0.16262 -0.0688,-1.34892 c -0.0379,-0.74189 -0.0691,-1.59187 -0.0692,-1.88884 l -3.7e-4,-0.53992 -0.60951,-0.0636 c -0.87209,-0.0911 -1.87605,-0.42743 -2.65296,-0.88859 -0.80433,-0.47747 -1.49455,-1.05031 -1.49455,-1.24044 0,-0.0756 0.21406,-0.313 0.4757,-0.52738 l 0.47571,-0.3898 0.44928,0.36477 c 1.0081,0.81844 2.47498,1.33765 3.77919,1.33765 2.06665,0 4.06489,-1.16075 4.89162,-2.84145 0.31887,-0.64824 0.34108,-0.766 0.34076,-1.8051 -3.2e-4,-1.02339 -0.0254,-1.16181 -0.31713,-1.7438 -0.4458,-0.88963 -1.34246,-1.75323 -2.29123,-2.20674 -0.72829,-0.34811 -2.02546,-0.70195 -2.14289,-0.58451 -0.0293,0.0293 0.0352,0.28828 0.14318,0.57551 0.10813,0.28725 0.22865,0.67232 0.26796,0.85574 0.0707,0.33012 0.0659,0.33464 -0.4685,0.44928 -0.29697,0.0637 -0.55608,0.11579 -0.57583,0.11579 -0.0198,0 -0.0654,-0.15461 -0.10144,-0.34355 -0.14732,-0.77144 -1.24777,-2.61638 -1.56068,-2.61638 -0.0637,0 -0.29887,-0.16529 -0.52249,-0.36734 -0.5151,-0.46535 -1.66846,-1.04897 -2.49767,-1.26382 -0.81543,-0.2113 -2.3398,-0.21317 -3.14342,-0.003 -1.43047,0.37258 -2.62651,1.17241 -3.50527,2.34408 -0.46431,0.61908 -0.99099,1.75972 -0.99099,2.14624 0,0.24414 -0.075,0.25185 -0.87935,0.0903 -0.57035,-0.11452 -0.59454,-0.13245 -0.53283,-0.39641 0.0635,-0.27191 0.35711,-1.13977 0.51927,-1.53534 0.0763,-0.18607 0.0453,-0.19669 -0.39594,-0.13615 -0.68337,0.0938 -1.55052,0.43985 -2.27527,0.90826 -1.46651,0.94786 -2.25732,2.61753 -2.0307,4.2875 0.30729,2.2645 2.65205,4.07487 5.27767,4.07487 1.35742,0 2.54055,-0.41057 3.68995,-1.28053 l 0.54956,-0.41595 0.47018,0.38527 c 0.25862,0.21191 0.4702,0.45022 0.4702,0.52957 0,0.21746 -1.11899,1.05926 -1.95567,1.47123 -0.73707,0.36295 -1.7876,0.68468 -2.23564,0.68468 -0.28411,0 -0.31571,0.18463 -0.41419,2.42032 -0.064,1.45359 -0.0583,1.51809 0.12862,1.43916 1.6326,-0.68978 3.86455,-0.65113 5.48124,0.0949 0.29071,0.13415 0.57612,0.20864 0.63427,0.16554 0.0582,-0.0432 0.45573,-0.20364 0.88356,-0.35676 z m -12.47526,0.0689 c 0.46233,-0.14303 0.96264,-0.18398 2.20911,-0.18046 l 1.61142,0.004 0.0494,-0.3217 c 0.027,-0.17691 0.0789,-0.98921 0.11497,-1.80509 l 0.0657,-1.48344 -0.67308,-0.11533 c -1.99133,-0.34111 -3.93359,-1.75458 -4.77655,-3.47614 -1.43121,-2.9229 -0.18088,-6.29374 2.89523,-7.80538 1.05676,-0.51932 2.20024,-0.80596 3.21508,-0.80596 0.45957,0 0.59724,-0.0466 0.80996,-0.27417 0.80452,-0.86069 2.24201,-1.69887 3.55457,-2.0726 1.06677,-0.30378 3.00926,-0.32577 4.04867,-0.046 1.43583,0.38662 3.3422,1.57125 3.59389,2.23328 0.0793,0.2087 0.18745,0.23873 1.07496,0.29853 2.0273,0.1366 3.57798,0.79426 4.80576,2.03809 2.31555,2.34583 2.29594,5.70454 -0.0471,8.04749 -0.89297,0.89294 -2.31271,1.62135 -3.64167,1.86836 l -0.39819,0.074 0.0582,1.02558 c 0.15298,2.69513 0.16519,2.78919 0.35185,2.71722 0.0961,-0.0369 0.6506,-0.0941 1.232,-0.12648 0.92746,-0.0518 1.77607,0.0217 2.80422,0.24292 0.262,0.0563 0.32066,-0.0677 3.03922,-6.43035 1.52463,-3.56832 2.77207,-6.55006 2.77207,-6.6261 0,-0.36192 -2.10924,-2.6869 -3.46179,-3.81586 -2.60774,-2.17665 -5.15285,-3.51532 -8.34867,-4.39119 -1.89457,-0.51925 -3.43697,-0.7113 -5.68483,-0.70786 -2.19085,0.003 -3.43788,0.16485 -5.53717,0.71712 -3.40162,0.89488 -6.52607,2.65016 -9.16669,5.14975 -0.839185,0.79436 -2.255185,2.39398 -2.642675,2.98535 -0.16405,0.25037 -0.0854,0.45394 2.608735,6.76241 1.52784,3.57737 2.79762,6.50429 2.82173,6.50429 0.0241,0 0.31278,-0.0833 0.64149,-0.185 z"
     style="fill:#000000;stroke-width:0.10571175" />
  <circle
     r="75.145653"
     cy="82.073036"
     cx="115.69525"
     id="path1492"
     style="opacity:1;fill:none;fill-opacity:1;stroke:#000000;stroke-width:0.88979429;stroke-miterlimit:4;stroke-dasharray:none;stroke-opacity:1" />
  <text
     id="text1496"
     y="174.91611"
     x="86.635498"
     style="font-style:normal;font-weight:normal;font-size:13.33333302px;line-height:1.25;font-family:sans-serif;letter-spacing:0px;word-spacing:0px;fill:#000000;fill-opacity:1;stroke:none"
     xml:space="preserve"><tspan
       y="174.91611"
       x="86.635498"
       id="tspan1494">40.00mm</tspan></text>
</svg>
