<?xml version="1.0" encoding="UTF-8" standalone="no"?>
<!-- Created with Inkscape (http://www.inkscape.org/) -->

<svg
   xmlns:dc="http://purl.org/dc/elements/1.1/"
   xmlns:cc="http://creativecommons.org/ns#"
   xmlns:rdf="http://www.w3.org/1999/02/22-rdf-syntax-ns#"
   xmlns:svg="http://www.w3.org/2000/svg"
   xmlns="http://www.w3.org/2000/svg"
   xmlns:sodipodi="http://sodipodi.sourceforge.net/DTD/sodipodi-0.dtd"
   xmlns:inkscape="http://www.inkscape.org/namespaces/inkscape"
   version="1.1"
   id="svg1233"
   width="70mm"
   height="70mm"
   viewBox="0 0 264.56692 264.56693"
   sodipodi:docname="Pier_cir40.svg"
   inkscape:version="0.92.2 5c3e80d, 2017-08-06">
  <metadata
     id="metadata1239">
    <rdf:RDF>
      <cc:Work
         rdf:about="">
        <dc:format>image/svg+xml</dc:format>
        <dc:type
           rdf:resource="http://purl.org/dc/dcmitype/StillImage" />
        <dc:title></dc:title>
      </cc:Work>
    </rdf:RDF>
  </metadata>
  <defs
     id="defs1237" />
  <sodipodi:namedview
     pagecolor="#ffffff"
     bordercolor="#666666"
     borderopacity="1"
     objecttolerance="10"
     gridtolerance="10"
     guidetolerance="10"
     inkscape:pageopacity="0"
     inkscape:pageshadow="2"
     inkscape:window-width="1440"
     inkscape:window-height="805"
     id="namedview1235"
     showgrid="false"
     units="mm"
     inkscape:zoom="2.8284271"
     inkscape:cx="136.38076"
     inkscape:cy="93.826267"
     inkscape:window-x="0"
     inkscape:window-y="1"
     inkscape:window-maximized="1"
     inkscape:current-layer="svg1233" />
  <path
     style="fill:#000000;stroke-width:0.0872836"
     d="m 59.391233,145.30826 c 0,-0.21122 0.04289,-0.25957 0.27271,-0.30549 0.150062,-0.0301 0.364633,-0.0546 0.476782,-0.0546 0.112217,0 0.429361,-0.0843 0.704824,-0.18735 0.674415,-0.25233 1.276213,-0.8252 1.532372,-1.45857 l 0.19917,-0.49253 v -6.28442 c 0,-5.94492 -0.0091,-6.31012 -0.165538,-6.76008 -0.342575,-0.98427 -1.272999,-1.64659 -2.431162,-1.73072 -0.583409,-0.0424 -0.589158,-0.0453 -0.589158,-0.29819 v -0.25538 l 6.873535,0.0342 c 5.949859,0.0296 7.000162,0.0543 7.815532,0.1837 2.915514,0.46267 4.542033,1.45165 5.222961,3.17566 0.177566,0.44956 0.20147,0.68493 0.232717,2.29036 0.03676,1.89133 -0.02677,2.44891 -0.35268,3.09857 -0.760974,1.51644 -2.264617,2.45053 -4.79674,2.97974 -0.59092,0.1235 -1.384149,0.16048 -4.303113,0.20058 l -3.5786,0.0492 -0.02451,1.17833 c -0.02761,1.29632 0.07822,2.19989 0.321123,2.74902 0.381099,0.86152 1.135107,1.36527 2.300396,1.5368 0.664,0.0978 0.676405,0.1042 0.676405,0.35082 v 0.25125 H 64.584867 59.39155 Z m 12.917691,-6.63789 c 1.635935,-0.48424 2.499868,-1.39936 2.83003,-2.99751 0.182929,-0.88579 0.188141,-3.60941 0.0084,-4.45738 -0.261673,-1.23516 -0.841179,-2.07702 -1.768774,-2.56948 -0.981135,-0.52088 -1.289995,-0.5652 -4.233475,-0.60744 l -2.683947,-0.0385 v 5.47144 5.47143 l 2.596692,-0.0394 c 2.358922,-0.0358 2.656602,-0.0572 3.251047,-0.23312 z m 8.438313,6.83128 c -0.03215,-0.0323 -0.059,-0.22903 -0.059,-0.43705 v -0.37823 h 1.093813 c 0.736542,0 1.185668,-0.0394 1.374724,-0.12053 0.439323,-0.18849 0.841489,-0.67755 1.09451,-1.3311 l 0.232188,-0.59953 0.02753,-5.67344 c 0.02913,-5.92939 -0.0076,-6.70298 -0.340191,-7.59681 -0.140955,-0.37669 -0.437947,-0.75239 -0.801731,-1.01414 -0.01074,-0.008 -0.608001,-0.0369 -1.328075,-0.0655 l -1.309223,-0.052 v -0.39279 -0.39277 h 5.673388 5.673473 v 0.39277 0.39279 l -1.222052,0.0436 c -1.441978,0.0514 -1.600089,0.12435 -2.027536,0.93392 -0.471645,0.89334 -0.474557,0.94423 -0.443687,7.66352 0.02602,5.61918 0.04213,6.23226 0.178791,6.57386 0.416569,1.04372 0.785952,1.23343 2.406419,1.2361 l 1.161227,0.002 -0.02677,0.41459 -0.02686,0.41461 -5.636467,0.0224 c -3.09998,0.0123 -5.662897,-0.004 -5.695228,-0.0364 z m 13.528285,-5.9e-4 c -0.03215,-0.0321 -0.05825,-0.22842 -0.05825,-0.43644 v -0.37823 l 1.112815,-0.002 c 1.376789,-0.003 1.717064,-0.12396 2.118618,-0.75707 0.573605,-0.90431 0.557138,-0.70716 0.588696,-7.04786 0.01838,-3.78611 0,-5.96103 -0.06437,-6.35574 -0.111151,-0.71622 -0.478461,-1.4776 -0.915484,-1.89759 l -0.317899,-0.30552 -1.239292,-0.0436 -1.239292,-0.0436 v -0.39277 -0.39278 l 9.579316,-0.0222 9.5794,-0.0222 v 3.22987 3.22988 h -0.28834 c -0.28121,0 -0.29324,-0.0155 -0.48926,-0.63281 -0.45939,-1.44672 -1.3355,-2.98708 -2.15294,-3.78512 -0.2793,-0.2727 -0.74251,-0.59341 -1.14323,-0.79153 l -0.67364,-0.33305 -3.38702,-0.0257 -3.38702,-0.0257 v 3.66975 3.66975 l 0.85099,-7.7e-4 c 0.96382,-0.002 1.54739,-0.13008 2.20212,-0.48646 0.56334,-0.30658 1.33956,-1.13438 1.64199,-1.75099 l 0.22919,-0.4673 h 0.41819 0.41825 v 3.27314 3.27313 l -0.41458,-6e-5 -0.41458,-7e-5 -0.30013,-0.66745 c -0.67771,-1.50726 -2.04608,-2.29382 -3.99861,-2.29851 l -0.63283,-0.002 v 4.10233 4.10233 l 2.9022,-0.002 c 3.21305,-0.002 3.57201,-0.0441 4.59957,-0.54593 0.67319,-0.32879 1.86721,-1.46062 2.43774,-2.31075 0.36103,-0.53801 0.95333,-1.69073 1.13189,-2.20286 0.0858,-0.24622 0.12073,-0.26347 0.53278,-0.26347 h 0.441 v 3.09857 3.09857 h -9.80491 c -5.392644,0 -9.831038,-0.0262 -9.863058,-0.0583 z m 22.373748,-0.20301 c 0,-0.14438 0.0291,-0.26331 0.0651,-0.26425 0.4453,-0.0118 1.35557,-0.22059 1.72648,-0.39607 0.54442,-0.25754 0.85168,-0.58921 1.16783,-1.2606 l 0.22612,-0.48006 0.0238,-6.23249 c 0.0268,-6.88569 0.0375,-6.72778 -0.52518,-7.56844 -0.39244,-0.58628 -1.19425,-0.99776 -2.06569,-1.0601 -0.61604,-0.0441 -0.61903,-0.0455 -0.61903,-0.29967 v -0.2554 l 6.87354,0.0341 c 7.3438,0.0364 7.58817,0.0495 9.38052,0.50367 1.9229,0.48723 3.22753,1.54837 3.72714,3.03154 0.16063,0.4767 0.18132,0.74648 0.18132,2.36599 0,2.04381 -0.0848,2.50733 -0.60792,3.32253 -0.83222,1.29679 -2.68227,2.25228 -4.95624,2.55967 l -0.79345,0.10725 2.27589,2.44394 c 1.25169,1.34417 2.39844,2.52779 2.54835,2.63027 0.36977,0.25284 0.94375,0.43616 1.59879,0.51068 0.52963,0.0602 0.54557,0.0694 0.54557,0.31533 v 0.25328 h -4.27692 -4.27691 v -0.26186 c 0,-0.24171 0.0238,-0.26185 0.30948,-0.26185 0.35429,0 0.73791,-0.3162 0.73791,-0.60818 0,-0.11594 -0.81291,-1.03056 -2.29119,-2.57782 l -2.29121,-2.39812 -0.77025,-7.6e-4 -0.77032,-7.7e-4 0.0284,1.72616 0.0284,1.72615 0.28933,0.58715 c 0.45694,0.92748 1.16643,1.35649 2.48708,1.50393 0.48628,0.0543 0.50588,0.0661 0.48007,0.28972 l -0.0269,0.23311 -5.21522,0.0225 -5.21515,0.0225 z m 12.13243,-6.46321 c 1.85464,-0.29261 2.97206,-1.11258 3.50414,-2.57132 0.16983,-0.4657 0.19511,-0.74144 0.22804,-2.4899 0.0391,-2.07158 -0.01,-2.5736 -0.33505,-3.44538 -0.2731,-0.7322 -1.13649,-1.59591 -1.86966,-1.87045 -0.994,-0.37221 -1.6544,-0.44257 -4.15366,-0.44257 h -2.34897 v 5.4552 5.45523 l 2.20388,-7e-4 c 1.21217,-3.3e-4 2.4592,-0.0409 2.77128,-0.0902 z m 24.78851,6.33159 c 0,-0.37677 0.0107,-0.39278 0.25754,-0.39278 0.52627,0 1.1551,-0.19407 1.44038,-0.44449 0.45479,-0.3993 0.67195,-1.0166 0.72527,-2.06149 l 0.046,-0.89808 h -4.72581 c -2.59923,0 -4.72589,-0.0189 -4.72589,-0.042 0,-0.0232 2.5371,-3.15554 5.63808,-6.96088 l 5.638,-6.91879 h 0.66821 0.66821 l 0.0222,5.96661 0.0222,5.96662 0.64853,-0.0327 c 0.80517,-0.0407 1.03781,-0.21892 1.19355,-0.91457 0.0902,-0.40293 0.13321,-0.46824 0.30909,-0.46824 h 0.20431 v 2.44394 2.44394 h -0.21825 c -0.18477,0 -0.21816,-0.0405 -0.21816,-0.26465 0,-0.42751 -0.22162,-0.84475 -0.5347,-1.00665 -0.15765,-0.0815 -0.53392,-0.16805 -0.83612,-0.19231 l -0.54939,-0.0442 v 0.86896 c 0,1.61652 0.39266,2.23908 1.53045,2.42648 0.88117,0.14515 0.82617,0.1097 0.82617,0.53224 v 0.38585 h -4.01501 -4.01509 z m 2.44395,-9.79516 c 0,-3.98905 0,-4.07433 -0.16347,-3.90594 -0.0899,0.0947 -1.43218,1.7236 -2.98286,3.61984 -1.5506,1.89624 -2.99396,3.65391 -3.20753,3.90594 l -0.38822,0.45824 h 3.37108 3.371 z m 7.64792,10.11778 c -0.0681,-0.11054 0.1067,-0.7825 0.30771,-1.1814 0.57652,-1.14408 1.71485,-2.30945 3.83147,-3.9225 2.62397,-1.99965 3.06697,-2.36768 3.88402,-3.22698 1.38774,-1.45951 1.85203,-2.68035 1.75092,-4.60422 -0.0291,-0.55207 -0.10571,-1.20015 -0.17044,-1.44018 -0.6139,-2.27541 -3.01189,-3.54671 -5.16827,-2.73991 -0.89987,0.33668 -1.67172,1.35721 -1.95691,2.58716 l -0.10625,0.45824 h -1.13289 -1.13288 l 0.0613,-0.28367 c 0.2799,-1.29266 1.23622,-2.5363 2.44578,-3.18059 2.02493,-1.07863 5.68948,-1.15572 7.92576,-0.16673 1.52747,0.67554 2.64274,1.95046 3.06161,3.50007 0.20008,0.74017 0.27492,2.33964 0.13711,2.93107 -0.18836,0.80863 -0.65679,1.58851 -1.34461,2.23883 -0.81545,0.77086 -1.48887,1.20715 -3.5046,2.2705 -2.47031,1.30319 -3.87329,2.12998 -4.8139,2.83698 l -0.84226,0.63306 5.68833,0.0224 5.68833,0.0225 v 1.65775 1.65776 h -7.28305 c -4.00567,0 -7.30252,-0.0316 -7.32634,-0.0702 z"
     id="path1243"
     inkscape:connector-curvature="0" />
  <circle
     style="opacity:1;fill:none;fill-opacity:1;stroke:#000000;stroke-width:0.24773295;stroke-miterlimit:4;stroke-dasharray:none;stroke-opacity:1"
     id="path1245"
     cx="130.19173"
     cy="137.6218"
     r="75.466682" />
  <text
     xml:space="preserve"
     style="font-style:normal;font-weight:normal;font-size:13.33333302px;line-height:1.25;font-family:sans-serif;letter-spacing:0px;word-spacing:0px;fill:#000000;fill-opacity:1;stroke:none"
     x="99.212975"
     y="228.49583"
     id="text1249"><tspan
       sodipodi:role="line"
       id="tspan1247"
       x="99.212975"
       y="228.49583">40.00mm</tspan></text>
</svg>
