<?xml version="1.0" encoding="UTF-8" standalone="no"?>
<!-- Created with Inkscape (http://www.inkscape.org/) -->

<svg
   xmlns:dc="http://purl.org/dc/elements/1.1/"
   xmlns:cc="http://creativecommons.org/ns#"
   xmlns:rdf="http://www.w3.org/1999/02/22-rdf-syntax-ns#"
   xmlns:svg="http://www.w3.org/2000/svg"
   xmlns="http://www.w3.org/2000/svg"
   xmlns:sodipodi="http://sodipodi.sourceforge.net/DTD/sodipodi-0.dtd"
   xmlns:inkscape="http://www.inkscape.org/namespaces/inkscape"
   width="100mm"
   height="100mm"
   viewBox="0 0 100 100"
   version="1.1"
   id="svg122"
   inkscape:version="0.92.2 5c3e80d, 2017-08-06"
   sodipodi:docname="50mm_sq.svg">
  <defs
     id="defs116" />
  <sodipodi:namedview
     id="base"
     pagecolor="#ffffff"
     bordercolor="#666666"
     borderopacity="1.0"
     inkscape:pageopacity="0.0"
     inkscape:pageshadow="2"
     inkscape:zoom="1.979899"
     inkscape:cx="200.83895"
     inkscape:cy="156.02309"
     inkscape:document-units="mm"
     inkscape:current-layer="layer1"
     showgrid="false"
     inkscape:window-width="1440"
     inkscape:window-height="805"
     inkscape:window-x="0"
     inkscape:window-y="1"
     inkscape:window-maximized="1" />
  <metadata
     id="metadata119">
    <rdf:RDF>
      <cc:Work
         rdf:about="">
        <dc:format>image/svg+xml</dc:format>
        <dc:type
           rdf:resource="http://purl.org/dc/dcmitype/StillImage" />
        <dc:title></dc:title>
      </cc:Work>
    </rdf:RDF>
  </metadata>
  <g
     inkscape:label="Layer 1"
     inkscape:groupmode="layer"
     id="layer1"
     transform="translate(0,-197)">
    <path
       style="fill:#000000;stroke-width:0.03464926"
       d="m 47.465108,267.30529 c -0.162006,-0.0154 -0.559589,-0.0535 -0.88355,-0.0843 -4.102305,-0.39095 -7.46398,-1.21368 -9.418282,-2.30502 -0.779271,-0.43516 -1.075503,-0.66187 -2.414453,-1.84776 -0.655831,-0.58084 -2.242713,-2.1773 -2.640295,-2.65619 -0.874198,-1.05304 -3.000301,-4.26918 -3.971577,-6.00768 -1.00566,-1.80009 -1.657436,-3.50914 -2.010408,-5.27142 -0.298437,-1.49012 -0.432624,-3.03765 -0.433917,-5.00406 0,-2.13032 0.197263,-3.78582 0.690138,-5.75178 0.614009,-2.44899 1.627108,-4.53147 3.531463,-7.25919 1.877171,-2.68875 3.906828,-4.86156 6.047089,-6.4736 1.30326,-0.98164 2.793607,-1.87473 4.747161,-2.84479 3.540436,-1.75802 6.352763,-2.57991 9.32067,-2.72394 0.782909,-0.038 1.126946,-0.0275 1.923061,0.0584 2.429788,0.26244 5.502303,1.50656 8.80089,3.56368 3.019995,1.88339 5.272226,3.54129 6.566932,4.83398 0.501442,0.50068 0.757714,0.81996 1.238295,1.54263 1.109977,1.66918 2.035248,3.63427 3.230086,6.86003 0.488541,1.31897 0.590221,1.68495 1.174092,4.22721 0.617012,2.68666 0.833933,4.22772 0.838394,5.95714 0.0038,0.97942 -0.08973,1.65782 -0.385252,2.83342 -0.691621,2.75098 -2.736044,7.79244 -3.668716,9.04686 -0.06805,0.0915 -0.240583,0.26432 -0.383502,0.38411 -0.36908,0.30938 -1.200402,1.08801 -2.145103,2.0092 -1.403457,1.36853 -2.047908,1.91488 -3.27173,2.77378 -0.804885,0.56486 -2.220903,1.3105 -3.314796,1.74544 -3.182078,1.26529 -6.874508,2.0446 -11.018445,2.32552 -1.280879,0.0868 -1.786579,0.10295 -2.148245,0.0683 z m 3.332221,-1.62653 c 1.506101,-0.10368 4.075857,-0.53541 5.971099,-1.00312 2.083914,-0.51428 3.580661,-1.10189 5.073949,-1.99195 2.126484,-1.26744 4.898458,-3.48288 6.533551,-5.22174 0.705943,-0.75075 1.16228,-1.57672 1.952438,-3.53412 1.735606,-4.2993 2.341821,-7.35345 1.997214,-10.06222 -0.266614,-2.09599 -1.083298,-5.27812 -2.217822,-8.64163 -0.66559,-1.97328 -1.060397,-2.85104 -1.753312,-3.89804 -0.862145,-1.30279 -1.683049,-2.32152 -2.732902,-3.3915 -1.129758,-1.15145 -2.026679,-1.90567 -3.333755,-2.80342 -1.817908,-1.24859 -4.317679,-2.42417 -7.823529,-3.67917 -1.099507,-0.39361 -1.163775,-0.40814 -2.541886,-0.57468 l -1.242566,-0.15016 -0.81908,0.0932 c -0.89725,0.102 -2.79684,0.34421 -3.164626,0.40353 -0.874413,0.14103 -2.422438,0.7486 -4.871844,1.91208 -3.078522,1.46232 -4.480193,2.29142 -5.637504,3.33465 -2.915693,2.62835 -5.382564,5.43029 -6.745795,7.66216 -0.683093,1.11834 -1.267877,2.37465 -1.653216,3.55155 -0.410332,1.25321 -0.760528,3.06706 -0.909733,4.71232 -0.05754,0.6338 -0.05792,2.6194 0,3.27434 0.190052,2.17545 0.557915,3.83388 1.155042,5.20719 0.727996,1.67443 2.616876,4.89469 3.925978,6.69318 1.335084,1.83421 2.966615,3.54532 4.689484,4.91826 1.226092,0.97709 2.447011,1.71567 3.410671,2.06327 1.094502,0.3948 3.008704,0.72724 5.726423,0.99455 0.995938,0.0979 1.273769,0.11127 2.73697,0.1317 0.895678,0.0127 1.654583,0.0257 1.686407,0.0295 0.03181,0.004 0.296903,-0.0105 0.589042,-0.0298 z m 3.632256,-7.69258 c -0.766396,-0.0712 -1.47396,-0.31991 -2.115433,-0.74353 -0.382931,-0.25286 -0.972683,-0.86097 -1.271741,-1.31132 -0.69261,-1.04295 -1.356147,-2.72781 -1.6905,-4.29225 l -0.05729,-0.26853 -4.596206,-6.7e-4 c -2.999401,0 -4.640159,-0.0127 -4.722715,-0.0354 -0.153933,-0.0427 -0.703661,-0.60109 -0.858177,-0.87163 -0.164085,-0.28729 -0.164085,-0.35933 0,-0.75492 0.160802,-0.38752 0.126913,-0.36724 0.522962,-0.31257 0.742354,0.10253 1.75373,0.11356 11.601366,0.12712 6.470436,0.008 10.073986,0.001 10.152245,-0.0201 0.06667,-0.0187 0.256628,-0.0758 0.422119,-0.12694 0.532226,-0.16467 0.83591,-0.0879 1.004164,0.25367 0.0692,0.14059 0.08098,0.21691 0.08098,0.52816 0,0.30627 -0.01268,0.39121 -0.07959,0.53706 -0.159357,0.34648 -0.470823,0.5733 -0.878012,0.63938 -0.121158,0.0196 -0.721835,0.0359 -1.334703,0.036 l -1.114336,6.7e-4 0.04803,0.18191 c 0.183856,0.69639 0.197797,1.56208 0.03523,2.18182 -0.115836,0.44142 -0.289324,0.87858 -0.564328,1.42221 -0.894969,1.76921 -2.041165,2.66719 -3.613688,2.83118 -0.368827,0.0385 -0.543037,0.0381 -0.970199,-0.001 z m 0.796572,-1.74941 c 0.711988,-0.13507 1.250626,-0.44326 1.626779,-0.93079 0.213269,-0.27643 0.773632,-1.21856 0.99092,-1.66591 0.264129,-0.5439 0.344493,-0.85933 0.308867,-1.21269 -0.03688,-0.36519 -0.03891,-0.61434 -0.0063,-0.8576 l 0.02649,-0.19923 h -1.576831 c -0.954966,0 -1.57687,0.0128 -1.57687,0.0324 0,0.0177 0.0161,0.075 0.03599,0.12724 0.0199,0.0523 0.04296,0.27538 0.05133,0.496 0.0089,0.22064 0.03308,0.58972 0.05462,0.8202 0.03016,0.31978 0.02978,0.43712 0,0.49541 -0.137089,0.2562 -0.695803,0.109 -1.096656,-0.28907 -0.247996,-0.24623 -0.386365,-0.51507 -0.600954,-1.16743 -0.138674,-0.4216 -0.148268,-0.43906 -0.255069,-0.46447 -0.06108,-0.0146 -0.57287,-0.0322 -1.137502,-0.0392 l -1.026521,-0.0129 0.02813,0.15048 c 0.139916,0.74906 0.683028,2.47366 0.987662,3.1365 0.412728,0.89793 1.153714,1.49235 2.00743,1.61042 0.26413,0.0365 0.897947,0.0207 1.160378,-0.0292 z m -0.849864,-15.49934 c -0.32765,-0.14883 -0.616772,-0.68695 -0.532848,-0.99172 0.02446,-0.0878 0.396328,-0.63959 1.016573,-1.50724 0.538157,-0.75276 0.990641,-1.38947 1.005545,-1.41493 0.01914,-0.0323 -0.276638,-0.35246 -0.975293,-1.0568 -0.629471,-0.63458 -1.025609,-1.06079 -1.064795,-1.14563 -0.258998,-0.56094 0.282291,-1.33749 0.932343,-1.33749 0.08377,0 0.196263,0.0165 0.249885,0.0367 0.05361,0.0202 0.522353,0.46021 1.041538,0.97781 0.813909,0.8114 0.950467,0.93405 0.990933,0.89013 0.0256,-0.028 0.33969,-0.45634 0.697591,-0.95181 0.357889,-0.49548 0.69754,-0.95052 0.754812,-1.01118 0.248402,-0.26327 0.697756,-0.34054 1.017903,-0.17506 0.465981,0.24085 0.647517,0.76818 0.432054,1.2552 -0.03764,0.0855 -0.399103,0.61948 -0.80282,1.18636 -0.403665,0.5669 -0.742112,1.05193 -0.752035,1.07788 -0.01141,0.0292 0.434943,0.50085 1.163572,1.23046 0.878455,0.87966 1.199603,1.22329 1.251615,1.3392 0.186302,0.41517 0,0.91053 -0.444335,1.17075 -0.130094,0.0764 -0.201725,0.0938 -0.385048,0.0933 -0.1944,-6.6e-4 -0.259909,-0.0191 -0.478719,-0.13544 -0.224778,-0.11951 -0.363984,-0.24808 -1.22808,-1.13472 -0.536003,-0.55001 -0.98613,-0.9958 -1.000325,-0.99067 -0.01406,0.005 -0.40999,0.53165 -0.87957,1.17006 -0.925841,1.2587 -1.017421,1.37013 -1.18513,1.44208 -0.166936,0.0716 -0.652068,0.0615 -0.825366,-0.0172 z m -13.979864,-0.13889 c -0.269668,-0.0872 -0.47574,-0.27517 -0.58676,-0.53539 -0.112288,-0.26327 -0.123441,-0.40692 -0.04512,-0.58131 0.03764,-0.0835 0.506372,-0.76001 1.041869,-1.50324 0.535457,-0.74323 0.974165,-1.36862 0.974875,-1.38977 0,-0.0212 -0.447402,-0.48111 -0.995813,-1.02215 -0.635769,-0.62722 -1.021299,-1.03393 -1.063843,-1.1223 -0.136304,-0.28321 -0.05145,-0.71051 0.199912,-1.00771 0.106839,-0.12636 0.439038,-0.30843 0.621854,-0.3409 0.303899,-0.054 0.347433,-0.0221 1.385449,1.01181 0.528259,0.52621 0.966852,0.9498 0.974672,0.9413 0.0076,-0.008 0.336915,-0.45984 0.731354,-1.00298 0.394388,-0.54312 0.758779,-1.02217 0.809727,-1.06455 0.120905,-0.10064 0.428733,-0.21747 0.572857,-0.21747 0.351653,0 0.766535,0.31714 0.869812,0.66488 0.06742,0.22715 0.06679,0.30443 -0.005,0.55953 -0.0493,0.17596 -0.178596,0.36989 -0.866872,1.30078 l -0.808852,1.09399 1.211935,1.21355 c 0.902586,0.9038 1.229817,1.25338 1.281918,1.36949 0.09264,0.20659 0.09239,0.47592 0,0.67396 -0.08415,0.17901 -0.362413,0.45188 -0.533849,0.52351 -0.170282,0.0712 -0.433448,0.0617 -0.666084,-0.0239 -0.184527,-0.0679 -0.286942,-0.15974 -1.283084,-1.1506 -0.799043,-0.79485 -1.09269,-1.06666 -1.121357,-1.03801 -0.02154,0.0214 -0.424438,0.582 -0.895793,1.24589 -1.001819,1.41108 -1.001858,1.41111 -1.433658,1.42232 -0.155593,0.004 -0.321985,-0.005 -0.369726,-0.0208 z"
       id="path74"
       inkscape:connector-curvature="0" />
    <rect
       style="fill:none;fill-opacity:1;stroke:#000000;stroke-width:0.15127511;stroke-miterlimit:4;stroke-dasharray:none;stroke-opacity:1"
       id="rect76"
       width="49.848724"
       height="49.848724"
       x="24.903616"
       y="218.216" />
    <text
       xml:space="preserve"
       style="font-style:normal;font-weight:normal;font-size:3.52777767px;line-height:1.25;font-family:sans-serif;letter-spacing:0px;word-spacing:0px;fill:#000000;fill-opacity:1;stroke:none;stroke-width:0.26458332"
       x="43.585297"
       y="272.07159"
       id="text80"><tspan
         sodipodi:role="line"
         id="tspan78"
         x="43.585297"
         y="272.07159"
         style="stroke-width:0.26458332">50.00mm</tspan><tspan
         sodipodi:role="line"
         x="43.585297"
         y="276.48132"
         id="tspan82"
         style="stroke-width:0.26458332" /></text>
  </g>
</svg>
