<?xml version="1.0" encoding="UTF-8" standalone="no"?>
<svg
   xmlns:dc="http://purl.org/dc/elements/1.1/"
   xmlns:cc="http://creativecommons.org/ns#"
   xmlns:rdf="http://www.w3.org/1999/02/22-rdf-syntax-ns#"
   xmlns:svg="http://www.w3.org/2000/svg"
   xmlns="http://www.w3.org/2000/svg"
   xmlns:sodipodi="http://sodipodi.sourceforge.net/DTD/sodipodi-0.dtd"
   xmlns:inkscape="http://www.inkscape.org/namespaces/inkscape"
   version="1.1"
   width="841.88977"
   height="595.27557"
   id="svg63"
   viewBox="0 0 841.88977 595.27557"
   sodipodi:docname="logo-edit_peter.svg"
   inkscape:version="0.92.2 5c3e80d, 2017-08-06">
  <sodipodi:namedview
     pagecolor="#ffffff"
     bordercolor="#666666"
     borderopacity="1"
     objecttolerance="10"
     gridtolerance="10"
     guidetolerance="10"
     inkscape:pageopacity="0"
     inkscape:pageshadow="2"
     inkscape:window-width="640"
     inkscape:window-height="480"
     id="namedview6193"
     showgrid="false"
     inkscape:zoom="0.38484848"
     inkscape:cx="420.94489"
     inkscape:cy="297.63779"
     inkscape:window-x="0"
     inkscape:window-y="0"
     inkscape:window-maximized="0"
     inkscape:current-layer="svg63" />
  <metadata
     id="metadata69">
    <rdf:RDF>
      <cc:Work
         rdf:about="">
        <dc:format>image/svg+xml</dc:format>
        <dc:type
           rdf:resource="http://purl.org/dc/dcmitype/StillImage" />
        <dc:title />
      </cc:Work>
    </rdf:RDF>
  </metadata>
  <defs
     id="defs67">
    <marker
       orient="auto"
       refY="0.0"
       refX="0.0"
       id="marker5581"
       style="overflow:visible;">
      <path
         id="path5579"
         d="M 0.0,0.0 L 5.0,-5.0 L -12.5,0.0 L 5.0,5.0 L 0.0,0.0 z "
         style="fill-rule:evenodd;stroke:#000000;stroke-width:1pt;stroke-opacity:1;fill:#000000;fill-opacity:1"
         transform="scale(0.8) rotate(180) translate(12.5,0)" />
    </marker>
    <marker
       style="overflow:visible"
       id="marker5547"
       refX="0.0"
       refY="0.0"
       orient="auto">
      <path
         transform="scale(0.8) translate(12.5,0)"
         style="fill-rule:evenodd;stroke:#000000;stroke-width:1pt;stroke-opacity:1;fill:#000000;fill-opacity:1"
         d="M 0.0,0.0 L 5.0,-5.0 L -12.5,0.0 L 5.0,5.0 L 0.0,0.0 z "
         id="path5545" />
    </marker>
    <marker
       orient="auto"
       refY="0.0"
       refX="0.0"
       id="Arrow1Lend"
       style="overflow:visible;">
      <path
         id="path4598"
         d="M 0.0,0.0 L 5.0,-5.0 L -12.5,0.0 L 5.0,5.0 L 0.0,0.0 z "
         style="fill-rule:evenodd;stroke:#000000;stroke-width:1pt;stroke-opacity:1;fill:#000000;fill-opacity:1"
         transform="scale(0.8) rotate(180) translate(12.5,0)" />
    </marker>
    <marker
       orient="auto"
       refY="0.0"
       refX="0.0"
       id="Arrow1Lstart"
       style="overflow:visible">
      <path
         id="path4595"
         d="M 0.0,0.0 L 5.0,-5.0 L -12.5,0.0 L 5.0,5.0 L 0.0,0.0 z "
         style="fill-rule:evenodd;stroke:#000000;stroke-width:1pt;stroke-opacity:1;fill:#000000;fill-opacity:1"
         transform="scale(0.8) translate(12.5,0)" />
    </marker>
  </defs>
  <path
     style="fill:#000000;stroke-width:0.15461077"
     d="m 250.71329,519.05787 c -21.15066,-0.0325 -25.56839,-0.0756 -25.69355,-0.25124 -0.10486,-0.14716 -0.72547,-0.24215 -2.02657,-0.31021 -1.03148,-0.0539 -1.93674,-0.16224 -2.01168,-0.24067 -0.0809,-0.0846 0.20345,-1.6896 0.70022,-3.95179 1.05574,-4.80769 1.64746,-8.34834 2.13296,-12.76303 0.50175,-4.56249 0.84737,-6.67218 1.66036,-10.13525 2.48984,-10.60584 8.20308,-22.6972 19.79612,-41.89592 1.30362,-2.15885 2.44666,-4.1106 2.5401,-4.33724 0.0935,-0.22662 0.39355,-0.6468 0.66692,-0.93368 0.27336,-0.28691 0.49702,-0.64775 0.49702,-0.80185 0,-0.15409 0.16566,-0.43092 0.36812,-0.61515 0.20247,-0.1842 0.8392,-1.06891 1.41495,-1.96601 2.51358,-3.91639 10.6801,-15.00312 19.66723,-26.69986 2.70693,-3.52308 5.24513,-6.82651 5.64045,-7.34096 0.3953,-0.51445 0.71787,-1.01265 0.7168,-1.10714 -9.8e-4,-0.0944 -0.17879,-0.74116 -0.39494,-1.43709 -0.3376,-1.08691 -0.40392,-1.63325 -0.4704,-3.87504 -0.0894,-3.01701 0.14182,-6.37885 0.58728,-8.53661 0.1711,-0.82864 0.87519,-3.3216 1.56466,-5.53978 1.82141,-5.8599 1.96162,-6.66396 2.80023,-16.05358 1.11862,-12.5251 2.08812,-17.91934 4.01657,-22.34765 1.25854,-2.89005 3.98856,-6.33702 6.20996,-7.84072 2.20099,-1.48986 3.89199,-1.97786 7.30137,-2.10675 3.87353,-0.14645 6.86966,0.47089 10.06869,2.07479 3.34294,1.67599 5.53067,3.448 10.14484,8.21706 1.84887,1.91098 3.38584,3.44426 3.41549,3.4073 0.10995,-0.13705 0.71873,-4.23288 0.85633,-5.76106 0.18987,-2.10856 0.18582,-10.1795 -0.007,-13.04847 -0.20858,-3.11099 -0.5263,-5.792 -1.1434,-9.64798 -0.72247,-4.51435 -1.4934,-8.0426 -4.59839,-21.04505 -5.12403,-21.45722 -6.17255,-26.93749 -6.9431,-36.28893 -1.27397,-15.4606 1.28935,-28.40444 16.2402,-82.00737 2.79831,-10.03282 3.70057,-13.49544 4.34793,-16.68624 0.44067,-2.17215 0.48161,-2.61946 0.48475,-5.29844 0.003,-2.90172 -6.3e-4,-2.93845 -0.49152,-4.41346 -0.7942,-2.38674 -1.70187,-4.04527 -5.24514,-9.58393 -7.59515,-11.8725 -15.46969,-22.88156 -42.19804,-58.994772 -1.69568,-2.291067 -2.31235,-3.430991 -2.07203,-3.830242 0.25811,-0.428711 0.69195,-0.486639 3.76415,-0.502507 11.96083,-0.06237 28.19935,4.075989 43.07447,10.976521 8.87569,4.117256 28.49474,15.09662 51.46592,28.80177 l 7.7869,4.64584 2.86837,-0.38621 c 4.1567,-0.55964 7.57172,-0.71789 15.48842,-0.71777 9.6932,2.2e-4 14.77072,0.26729 19.8747,1.04515 24.5388,3.74001 43.69152,12.95824 58.62136,28.21469 4.50105,4.59948 8.63586,9.7169 13.41853,16.60711 14.09005,20.29916 22.75729,40.9605 26.34014,62.79067 1.48329,9.03755 2.09844,17.21946 2.10476,27.99478 0.005,8.38165 -0.32513,13.71399 -1.35091,21.82653 -0.73602,5.82046 -2.66647,17.25178 -4.14884,24.56742 -1.26326,6.23433 -3.23954,17.69058 -3.98806,23.11859 -1.20159,8.71335 -1.49124,13.93459 -0.97834,17.63515 0.27582,1.99011 0.29338,2.007 3.13155,3.02653 3.02069,1.08518 5.29801,2.53841 6.73407,4.2975 0.65958,0.8079 1.23709,1.96358 2.13699,4.2763 0.7824,2.01085 2.53614,4.78936 4.83437,7.65934 3.64172,4.54779 11.36057,12.4478 15.45378,15.81666 3.18075,2.61789 4.79297,4.23516 5.89909,5.9175 1.55495,2.36509 3.54132,7.20818 4.80462,11.71457 0.29332,1.04631 0.66052,2.15926 0.81599,2.47322 0.34679,0.70028 1.50014,1.87199 3.78248,3.84266 2.58707,2.23374 5.55791,5.1489 11.08608,10.87834 5.0211,5.20391 9.82868,10.44819 11.96677,13.05383 3.42965,4.17966 8.35297,11.65821 11.81789,17.95149 10.10095,18.34623 16.7898,41.47982 18.2456,63.10296 0.1199,1.78109 0.20496,3.25026 0.189,3.26481 -0.052,0.0475 -339.52113,0.14081 -365.78413,0.10055 z m 84.48217,-10.91803 c 13.91821,-25.59297 19.54271,-36.16853 28.19802,-53.0197 3.1396,-6.11256 7.3428,-14.73708 12.45277,-25.55171 l 4.26374,-9.02372 1.52439,-0.26185 c 2.96282,-0.50896 4.83263,-1.45489 6.61491,-3.34645 2.81362,-2.98615 3.07119,-5.21296 2.49857,-21.60185 -0.12821,-3.67007 0.026,-7.99012 0.2955,-8.28134 0.0692,-0.0748 1.50923,-0.26934 3.20003,-0.43245 8.6085,-0.83001 21.01742,-3.46682 41.23667,-8.76231 7.49003,-1.96166 8.71888,-2.41736 15.03829,-5.57629 17.97944,-8.98755 40.14627,-15.68075 62.50751,-18.87403 l 1.29645,-0.18523 -0.008,-5.79234 c -0.008,-6.37546 0.0881,-7.72317 1.05331,-14.72843 0.6662,-4.83539 1.788,-11.26265 3.46443,-19.84947 0.71329,-3.65352 1.6643,-8.52891 2.11333,-10.83415 1.86733,-9.58619 3.02223,-18.31257 3.73642,-28.23204 0.29942,-4.15875 0.25181,-17.65487 -0.0768,-21.74742 -1.16411,-14.50126 -3.75412,-26.77539 -8.496,-40.26221 -1.34,-3.8112 -3.00038,-7.8142 -3.16803,-7.63758 -0.11109,0.11698 -0.38584,4.50358 -0.53842,8.59624 -0.27487,7.37278 -0.41556,29.78979 -0.27941,44.52288 0.14314,15.4928 0.0691,18.51491 -0.54956,22.45658 -1.88073,11.9811 -4.6881,18.26485 -11.73093,26.25757 -0.95815,1.08744 -2.44904,2.67989 -3.31308,3.53891 -9.57845,9.52283 -23.31928,17.13683 -38.00149,21.05708 -6.47314,1.72835 -8.72422,1.97219 -18.21219,1.97343 -10.25593,0 -12.06297,-0.20246 -17.00307,-1.91801 -7.08373,-2.45986 -12.60922,-6.23556 -18.74894,-12.81167 -6.75763,-7.23787 -10.49236,-13.2048 -22.3588,-35.72224 -8.27172,-15.69628 -12.86297,-23.77459 -17.12166,-30.12545 -6.62063,-9.87311 -11.38669,-13.96577 -17.233,-14.79781 -9.37263,-1.33411 -18.57388,6.97943 -31.16456,28.15801 -2.90094,4.87959 -4.23304,7.42345 -4.23304,8.08376 0,1.52341 1.41262,8.08171 5.14043,23.86504 3.17688,13.45079 4.33971,18.74017 5.19836,23.64548 1.1603,6.6287 1.42094,9.38068 1.5504,16.36974 0.1129,6.09875 -0.0903,9.95676 -0.71157,13.5044 -0.24194,1.3816 -0.39314,2.59147 -0.33601,2.68873 0.0572,0.0975 0.812,1.17313 1.6775,2.39105 1.7398,2.44807 7.28964,11.11323 7.88457,12.3104 l 0.37785,0.76028 -0.45343,0.38565 c -0.24937,0.21209 -1.47218,1.11453 -2.71734,2.00541 -5.758,4.11975 -8.88692,8.76072 -10.58728,15.70342 -1.93059,7.88266 -1.57848,16.78283 0.7808,19.73583 0.76019,0.95154 0.49368,1.10528 -3.31516,1.91251 -12.98554,2.75213 -28.7281,4.03392 -33.12289,2.69694 -0.4358,-0.13259 -0.90805,-0.19461 -1.04945,-0.13783 -0.551,0.22128 -1.12191,1.66884 -4.53848,11.5074 -5.18492,14.93086 -5.81705,17.58473 -7.48339,31.41816 -1.86705,15.49954 -6.65923,61.56099 -6.65923,64.00711 0,0.35714 0.007,0.35814 2.75827,0.40492 1.51706,0.0259 16.22472,0.061 32.6837,0.0784 l 29.92541,0.0314 z M 297.41507,488.594 c -0.89862,-0.43987 -1.92833,-1.56229 -2.3828,-2.59737 -0.26867,-0.61194 -0.32864,-1.04578 -0.33271,-2.40718 -0.005,-1.49852 0.0357,-1.7474 0.41174,-2.54829 0.4999,-1.06472 1.79848,-2.39866 2.79486,-2.87095 0.9901,-0.46934 2.30996,-0.46083 3.18905,0.0205 0.96237,0.52699 1.91929,1.51622 2.35813,2.4378 0.34523,0.72499 0.38511,0.99609 0.38511,2.61774 0,0.99495 -0.0822,2.09616 -0.18268,2.44713 -0.24387,0.85177 -1.5952,2.35698 -2.57447,2.86766 -1.06001,0.55278 -2.57635,0.5664 -3.66623,0.0329 z m 20.37713,-51.76342 c -0.9078,-0.33663 -1.92878,-1.34701 -2.42096,-2.39587 -0.37435,-0.79777 -0.4241,-1.08007 -0.4241,-2.40634 0,-1.3206 0.0505,-1.61029 0.41746,-2.39214 0.51514,-1.09772 1.65549,-2.23791 2.79905,-2.79862 1.15877,-0.5682 2.95339,-0.6013 3.90637,-0.072 1.52116,0.84483 2.39058,2.57198 2.37047,4.70922 -0.024,2.55577 -1.46775,4.88504 -3.3844,5.46027 -0.74675,0.22411 -2.53182,0.16696 -3.26389,-0.10452 z m 55.8527,-17.2979 c -3.21358,-0.38738 -5.96652,-1.5668 -9.42662,-4.03859 -7.22723,-5.16289 -7.68556,-5.36242 -12.73124,-5.5427 -4.84268,-0.17303 -7.12942,-0.96604 -7.84666,-2.72109 -1.53819,-3.76397 1.30192,-18.44973 5.85521,-30.27621 2.45039,-6.36447 5.52949,-11.23963 10.40808,-16.47913 3.93815,-4.22949 6.70475,-6.43179 10.9911,-8.74973 l 2.51354,-1.35915 7.26935,0.10315 c 3.99814,0.0567 7.74545,0.17605 8.32732,0.26515 1.4359,0.21968 2.76415,0.69057 4.36415,1.54698 1.70659,0.91356 2.80371,2.01131 3.46062,3.46274 0.45217,0.99902 0.48709,1.19354 0.47724,2.65948 -0.009,1.37196 -0.11268,1.99044 -0.78111,4.6658 -0.42376,1.69628 -1.31284,4.93467 -1.97572,7.19639 -2.25454,7.69255 -3.06657,11.02005 -3.68598,15.10455 -0.3384,2.23155 -0.348,2.59612 -0.35627,13.52288 -0.009,11.72224 -0.0646,12.93781 -0.67762,14.76429 -0.41604,1.23967 -1.08293,2.23703 -2.30867,3.45263 -1.21732,1.2073 -2.49016,1.97917 -3.73091,2.26249 -1.02984,0.23518 -8.53988,0.35366 -10.14581,0.16007 z m -36.2537,-9.82503 c -0.87282,-0.0736 -2.57314,-0.27538 -3.77847,-0.44828 -1.20532,-0.1729 -4.09585,-0.56223 -6.42337,-0.8652 -2.32754,-0.30296 -4.58947,-0.66363 -5.02653,-0.8015 -1.83737,-0.57963 -2.89729,-2.79891 -3.37181,-7.05998 -0.22238,-1.99703 -0.10281,-6.77913 0.22814,-9.12109 1.0076,-7.13122 2.90026,-11.38632 7.10203,-15.96687 2.02019,-2.20243 4.02012,-3.8036 6.21133,-4.97311 2.74611,-1.46571 3.22458,-1.5768 7.17462,-1.66681 3.72531,-0.085 8.34294,0.14045 10.85777,0.52995 0.88613,0.13716 1.62429,0.26231 1.64034,0.27807 0.0161,0.0159 -0.45005,1.12995 -1.03579,2.47607 -2.52321,5.79823 -4.33184,11.1953 -5.93488,17.70996 -1.46901,5.97008 -2.09115,10.14051 -2.09991,14.07653 -0.007,3.08568 0.0574,3.30776 1.42375,4.92056 l 0.92311,1.08962 -3.1517,-0.022 c -1.73342,-0.0122 -3.86581,-0.0823 -4.73863,-0.15591 z m 111.76689,-77.79857 c 2.68239,-0.22988 5.17979,-0.70893 9.06831,-1.73969 13.19526,-3.49742 25.38491,-9.81597 34.89578,-18.08846 1.79375,-1.56015 6.34702,-6.1008 6.23516,-6.21789 -0.0326,-0.034 -0.4736,0.19237 -0.98023,0.50308 -1.39808,0.85754 -3.69642,1.76237 -5.46442,2.15141 -2.15755,0.47474 -5.6589,0.47973 -8.16148,0.0114 -9.5698,-1.78981 -21.51125,-9.02643 -35.29084,-21.38626 -15.57966,-13.9746 -32.90259,-33.64713 -50.20052,-57.00944 -9.58971,-12.95166 -17.20151,-22.02854 -27.39217,-32.66397 -11.32729,-11.82173 -19.08782,-18.20602 -24.35021,-20.03209 -0.57022,-0.19793 -1.28214,-0.2885 -2.26707,-0.2885 -1.37118,0 -1.48378,0.0272 -2.50129,0.59603 -1.27188,0.71155 -3.34736,2.60281 -4.59451,4.18686 -4.2452,5.39175 -8.71899,15.59494 -11.50248,26.2332 -1.97373,7.54349 -6.18514,18.53159 -12.0762,31.50841 -2.28857,5.04124 -2.61832,6.25927 -3.11246,11.4957 -0.53771,5.69838 -0.45048,12.08812 0.2429,17.79329 0.47983,3.94802 0.33798,3.75156 1.34483,1.86167 3.21883,-6.04218 9.11233,-15.33297 12.73965,-20.08356 5.25076,-6.87649 9.86132,-11.04601 14.25664,-12.89283 2.35423,-0.98928 3.37523,-1.19717 5.88304,-1.19774 1.97288,-4.5e-4 2.46321,0.0544 3.77846,0.41863 3.10989,0.86265 5.92073,2.7224 8.99274,5.94958 5.72885,6.01837 11.93188,16.1149 23.95611,38.99272 11.88026,22.60384 15.64281,28.55238 22.81602,36.07173 6.15247,6.44925 11.33489,9.89407 18.53515,12.32027 2.58136,0.8699 4.61879,1.31948 6.76259,1.49224 2.32084,0.18703 16.24319,0.19757 18.3865,0.0136 z M 473.02571,201.9832 c 2.06235,-0.34154 3.47641,-0.69159 3.80234,-0.94097 0.25212,-0.19294 0.25887,-0.2961 0.0841,-1.28866 -0.42057,-2.38855 -4.52816,-15.91608 -6.28756,-20.70668 -1.81968,-4.95474 -3.58997,-8.20119 -5.61891,-10.30443 -1.12923,-1.17053 -3.66184,-3.03128 -4.58777,-3.37068 -1.42437,-0.52223 -8.44299,-0.32737 -11.33538,0.31456 -4.21689,0.93589 -12.47126,3.85427 -13.73294,4.85533 -0.46653,0.37012 -0.50156,0.45672 -0.42631,1.05378 0.19404,1.53928 3.68861,7.62227 6.60503,11.49729 3.53869,4.70185 14.99198,15.17041 18.78984,17.17434 1.42929,0.75417 3.9232,1.60334 5.50281,1.8737 1.61562,0.27647 5.03696,0.20165 7.20475,-0.15758 z m -8.14921,-4.1117 c -2.86138,-0.65929 -7.80896,-3.69773 -12.01551,-7.37924 -2.44339,-2.13848 -7.74818,-7.62783 -9.05674,-9.37194 -0.51498,-0.68627 -1.21206,-1.82177 -1.54907,-2.52323 l -0.61276,-1.27527 0.4328,-0.36977 c 1.02592,-0.87648 2.69154,-1.93014 4.85165,-3.06927 5.20507,-2.74484 7.71583,-3.38293 10.73883,-2.72954 5.58722,1.20771 10.13957,7.00879 11.65571,14.8529 0.41913,2.16842 0.63133,5.78725 0.47035,8.02106 -0.19361,2.68647 -0.55202,3.3631 -2.03327,3.83897 -0.88933,0.28555 -1.65905,0.28703 -2.88199,0.0114 z m -68.53512,-25.64216 c 1.02792,-0.31944 1.88875,-1.17257 2.0412,-2.02309 0.16669,-0.92975 -0.13833,-1.68063 -1.15392,-2.84051 -1.58546,-1.81066 -4.59047,-4.0268 -10.64189,-7.84842 -11.22198,-7.08689 -14.00065,-9.14682 -19.4213,-14.39823 -3.38904,-3.28328 -7.99383,-7.52331 -11.34515,-10.44657 -16.15232,-14.0891 -36.23125,-28.60963 -53.56882,-38.73937 -3.35026,-1.957462 -11.76728,-6.510803 -11.48652,-6.213924 0.18814,0.198939 2.68403,2.005073 6.72565,4.867009 32.65874,23.125725 57.36387,44.507225 67.31136,58.255565 4.6096,6.37093 8.73707,10.34864 14.78703,14.25041 2.53446,1.6345 4.14202,2.50168 6.17442,3.33044 1.63327,0.66609 4.15215,1.46798 5.43305,1.72949 0.45719,0.093 0.96729,0.19782 1.13354,0.23205 0.83989,0.1731 3.25633,0.0793 4.01135,-0.15485 z"
     id="path3762"
     inkscape:connector-curvature="0" />
  <rect
     style="fill:none;fill-opacity:1;stroke:#000000;stroke-width:0.1;stroke-miterlimit:4;stroke-dasharray:none;stroke-opacity:1"
     id="rect4573"
     width="519.05463"
     height="112.37264"
     x="-1696.2919"
     y="-1523.7515" />
  <path
     style="fill:none;fill-opacity:1;stroke:#000000;stroke-width:0.1;stroke-miterlimit:4;stroke-dasharray:none;stroke-opacity:1"
     id="path4575"
     d="m -792.78586,-1619.6346 c 27.98943,12.0635 55.5587,25.0918 83.49709,37.2772 35.83782,14.7979 71.04377,30.7844 107.736,43.3776 24.57053,8.2178 49.90207,14.7591 75.2771,20.1407 3.27092,0.8123 6.50476,1.792 9.81276,2.4368 8.21992,1.6023 16.65911,2.2421 24.8577,4.0541 14.27524,3.155 0.19848,1.0642 13.32607,2.7365 9.37753,1.4348 17.92493,4.88 26.65059,8.352 4.14378,1.4313 8.36321,2.1125 12.7111,2.3601 0,0 -65.09682,46.0068 -65.09682,46.0068 v 0 c -4.6672,-0.9385 -9.18835,-2.42 -13.59016,-4.235 -8.06844,-3.3824 -16.4553,-5.8253 -25.0813,-7.3484 -15.80858,-3.4089 -31.70803,-6.3781 -47.43585,-10.1386 -25.05608,-6.1734 -50.15013,-12.8485 -74.34005,-21.8332 -36.46698,-13.1397 -71.34753,-29.8442 -107.29627,-44.2899 -28.58868,-12.1213 -56.88471,-25.2309 -86.60955,-34.4002 0,0 65.58159,-44.4965 65.58159,-44.4965 z" />
  <path
     style="fill:none;fill-opacity:1;stroke:#000000;stroke-width:0.1;stroke-miterlimit:4;stroke-dasharray:none;stroke-opacity:1"
     id="path4577"
     d="m -1056.2755,-1536.4033 c 39.6249,1.3885 79.30865,-2.5821 118.8528,-5.1094 85.43668,-8.0128 171.0218,-14.2776 256.52401,-21.5184 85.97079,-6.7428 172.14762,-10.9455 258.35757,-12.8702 58.08385,-1.1756 116.17982,-1.8438 174.2755,-1.9079 40.34317,-0.634 80.69189,-0.3484 120.67608,5.4063 25.05374,1.8179 49.671852,6.3657 74.264219,11.2073 6.716527,2.4084 14.500407,1.3314 21.275326,3.2168 7.294855,2.0302 0.50364,1.5044 4.831534,1.7035 0,0 -65.806366,45.1985 -65.806366,45.1985 v 0 c -7.417033,-3.5028 -16.804603,-2.488 -24.442033,-5.534 -23.83212,-5.424 -47.85299,-9.6101 -72.20729,-11.9748 -39.34113,-5.207 -78.94592,-6.1289 -118.60575,-5.6247 -57.1961,-0.1142 -114.39579,-0.7277 -171.58993,0.1474 -85.5222,1.7315 -171.06742,4.0615 -256.29701,11.9047 -86.45178,7.3298 -172.96823,13.9533 -259.22269,23.4312 -41.67267,3.6078 -83.35097,7.7975 -125.17407,9.0317 0,0 64.2881,-46.708 64.2881,-46.708 z" />
  <path
     style="fill:none;fill-opacity:1;stroke:#000000;stroke-width:0.1;stroke-miterlimit:4;stroke-dasharray:none;stroke-opacity:1"
     id="path4579"
     d="m -89.430432,-1511.1467 c -19.096178,-0.5645 -38.205628,-0.4711 -57.308358,-0.6276 -38.7755,0.5905 -77.41957,-3.1976 -115.81617,-8.2302 -58.43635,-7.1719 -116.58165,-16.5149 -175.0904,-23.054 -67.08214,-6.4155 -134.35391,-9.7678 -201.69944,-11.5547 -51.24103,-1.122 -102.50115,-1.0735 -153.75,-0.6123 -27.02821,-0.022 -54.25115,1.4878 -80.45812,8.4413 -12.11962,1.7904 -24.10925,4.0138 -35.77203,7.8349 -2.80485,0.1091 -5.51623,0.7955 -8.24968,1.3514 0,0 63.68567,-48.0926 63.68567,-48.0926 v 0 c 2.54103,-0.4288 5.10243,-0.7495 7.53279,-1.6714 11.49627,-2.607 23.10013,-4.4495 34.69238,-6.5576 26.19634,-5.0869 52.90434,-6.4197 79.55937,-5.6056 50.4479,0.6033 100.89738,1.0979 151.32811,2.6332 67.38818,2.3488 134.73772,5.8521 201.88892,12.1217 59.00008,6.4232 117.69151,15.3112 176.66351,22.0141 39.16964,4.185 78.49296,7.0238 117.915717,5.6232 19.678717,-0.1577 39.3633,-0.075 59.036054,-0.6276 0,0 -64.158323,46.6138 -64.158323,46.6138 z" />
  <circle
     r="1.5"
     id="path4581"
     style="fill:#000000;stroke:none"
     cx="277.05371"
     cy="34.693039" />
  <ellipse
     r="1.5"
     id="path4583"
     style="fill:#000000;stroke:none"
     cx="615.37402"
     cy="-1352.5168" />
  <ellipse
     r="1.5"
     id="path4585"
     style="fill:#000000;stroke:none"
     cx="593.96967"
     cy="-1363.2191" />
  <path
     style="fill:none;stroke:#000000;stroke-width:1.2727133;stroke-linecap:butt;stroke-linejoin:miter;stroke-miterlimit:4;stroke-dasharray:none;stroke-opacity:1;marker-start:url(#Arrow1Lstart);marker-end:url(#Arrow1Lend)"
     d="M 200.23182,558.86263 H 647.51287"
     id="path4593" />
  <text
     transform="scale(0.97754157,1.0229744)"
     xml:space="preserve"
     style="font-style:normal;font-weight:normal;font-size:22.73203468px;line-height:1.25;font-family:sans-serif;letter-spacing:0px;word-spacing:0px;fill:#000000;fill-opacity:1;stroke:none;stroke-width:0.5683009"
     x="382.84503"
     y="566.63281"
     id="text5535"><tspan
       style="stroke-width:0.5683009"
       id="tspan5533"
       x="382.84503"
       y="566.63281">40mm</tspan></text>
  <path
     style="fill:none;stroke:#000000;stroke-width:1.23762405;stroke-linecap:butt;stroke-linejoin:miter;stroke-miterlimit:4;stroke-dasharray:none;stroke-opacity:1;marker-start:url(#marker5547);marker-end:url(#marker5581)"
     d="M 161.15927,80.44207 V 530.45919"
     id="path5537" />
  <text
     xml:space="preserve"
     style="font-style:normal;font-weight:normal;font-size:22.73203468px;line-height:1.25;font-family:sans-serif;letter-spacing:0px;word-spacing:0px;fill:#000000;fill-opacity:1;stroke:none;stroke-width:0.5683009"
     x="-331.22134"
     y="158.38455"
     id="text5627"
     transform="matrix(0,-1.0229744,0.97754157,0,0,0)"><tspan
       style="stroke-width:0.5683009"
       id="tspan5625"
       x="-331.22134"
       y="158.38455">40mm</tspan></text>
  <rect
     y="78.057579"
     x="197.51665"
     height="450.15421"
     width="450.15421"
     id="rect5959"
     style="fill:none;fill-opacity:1;stroke:#000000;stroke-width:2;stroke-miterlimit:4;stroke-dasharray:none;stroke-opacity:1" />
</svg>
