<?xml version="1.0" encoding="UTF-8" standalone="no"?>
<!-- Created with Inkscape (http://www.inkscape.org/) -->

<svg
   xmlns:dc="http://purl.org/dc/elements/1.1/"
   xmlns:cc="http://creativecommons.org/ns#"
   xmlns:rdf="http://www.w3.org/1999/02/22-rdf-syntax-ns#"
   xmlns:svg="http://www.w3.org/2000/svg"
   xmlns="http://www.w3.org/2000/svg"
   xmlns:sodipodi="http://sodipodi.sourceforge.net/DTD/sodipodi-0.dtd"
   xmlns:inkscape="http://www.inkscape.org/namespaces/inkscape"
   version="1.1"
   id="svg565"
   width="70mm"
   height="40mm"
   viewBox="0 0 264.56693 151.18111"
   sodipodi:docname="belekker_iron.svg"
   inkscape:version="0.92.2 5c3e80d, 2017-08-06">
  <metadata
     id="metadata571">
    <rdf:RDF>
      <cc:Work
         rdf:about="">
        <dc:format>image/svg+xml</dc:format>
        <dc:type
           rdf:resource="http://purl.org/dc/dcmitype/StillImage" />
        <dc:title></dc:title>
      </cc:Work>
    </rdf:RDF>
  </metadata>
  <defs
     id="defs569" />
  <sodipodi:namedview
     pagecolor="#ffffff"
     bordercolor="#666666"
     borderopacity="1"
     objecttolerance="10"
     gridtolerance="10"
     guidetolerance="10"
     inkscape:pageopacity="0"
     inkscape:pageshadow="2"
     inkscape:window-width="1440"
     inkscape:window-height="805"
     id="namedview567"
     showgrid="false"
     units="mm"
     inkscape:zoom="2.2951595"
     inkscape:cx="115.75462"
     inkscape:cy="77.9209"
     inkscape:window-x="0"
     inkscape:window-y="1"
     inkscape:window-maximized="1"
     inkscape:current-layer="svg565" />
  <path
     style="fill:#000000;stroke-width:0.11369693"
     d="m 49.514481,86.34015 c -0.437735,-0.151089 -1.077281,-0.311212 -1.421213,-0.355833 -0.667749,-0.08663 -1.40079,-0.431845 -2.046546,-0.963781 l -0.39794,-0.327802 -0.0756,-1.287351 c -0.06249,-1.063471 -0.03961,-1.415869 0.131445,-2.026377 0.113886,-0.406468 0.297562,-1.411719 0.408174,-2.233894 0.188774,-1.403227 0.189429,-1.525431 0.01066,-1.993497 -0.246941,-0.646606 -0.240422,-0.859633 0.05619,-1.836187 0.229074,-0.754173 0.236342,-0.876826 0.10216,-1.723104 -0.199499,-1.258136 -0.338393,-4.976128 -0.215794,-5.776369 0.07315,-0.477551 0.04948,-1.008565 -0.0861,-1.932849 -0.106186,-0.7237 -0.161676,-1.590163 -0.128415,-2.005116 0.0322,-0.401894 0.0071,-1.041439 -0.055,-1.421213 -0.128011,-0.778223 -0.15945,-1.306581 -0.203428,-3.419221 -0.02652,-1.27445 0.0016,-1.562477 0.206561,-2.090869 0.250649,-0.647171 0.640556,-1.149493 0.892255,-1.149493 0.08289,0 0.150731,-0.04924 0.150731,-0.109426 0,-0.208346 1.652758,-0.89502 2.615023,-1.086471 0.531538,-0.105754 1.124896,-0.25779 1.318579,-0.337861 0.984567,-0.407035 3.231771,-0.211293 4.252575,0.370419 1.040562,0.592975 1.233425,0.800579 1.467013,1.579196 0.128217,0.427389 0.413936,0.989737 0.685828,1.34986 0.256331,0.339504 0.516348,0.749562 0.57782,0.911243 0.184789,0.486045 0.123672,2.085917 -0.1236,3.235279 -0.127806,0.594067 -0.273416,1.361522 -0.323581,1.705455 -0.132691,0.909825 -1.521486,3.730603 -2.28715,4.645428 -0.502222,0.600064 -0.58261,0.754603 -0.47315,0.909576 0.07252,0.10268 0.335661,0.525235 0.584757,0.93901 0.249094,0.413775 0.633374,0.899829 0.853958,1.080121 0.220583,0.180292 0.573409,0.467386 0.78405,0.63799 0.529361,0.428742 1.151695,1.762314 1.511007,3.237872 0.672524,2.761813 0.21521,5.46805 -1.331465,7.879184 -0.588647,0.917648 -2.380797,2.728025 -2.700557,2.728025 -0.0864,0 -0.46788,0.191864 -0.847756,0.426363 -0.541757,0.334437 -0.851876,0.442313 -1.438352,0.500331 -0.411213,0.04068 -0.952324,0.10594 -1.20246,0.145018 -0.33013,0.05161 -0.672934,-0.0039 -1.250667,-0.203656 z m 1.989698,-4.389168 c 2.158602,-0.247937 3.237674,-0.469559 3.509361,-0.720765 0.403456,-0.373041 1.054744,-1.866301 1.075655,-2.466242 0.0098,-0.2814 -0.09587,-0.920945 -0.234843,-1.421212 -0.138973,-0.500265 -0.309021,-1.13526 -0.377888,-1.411098 C 55.376048,75.529481 55.174356,75.259233 54.458186,74.567302 53.967012,74.092739 53.42119,73.614867 53.245262,73.505365 53.069335,73.395861 52.751381,73.178307 52.538705,73.02191 51.998336,72.624545 51.45006,72.503251 50.3501,72.537733 l -0.949316,0.02976 -0.02794,0.852726 c -0.01538,0.469001 -0.130458,2.131818 -0.255723,3.695152 -0.125273,1.563331 -0.258185,3.232957 -0.295361,3.710278 -0.07615,0.978112 -0.07236,0.983968 0.726885,1.118712 0.715878,0.120684 0.95544,0.121494 1.955561,0.0066 z M 50.461327,69.177575 c 0.395699,-0.311456 0.921737,-0.84011 1.168977,-1.174789 0.247241,-0.334676 0.49325,-0.608504 0.546698,-0.608504 0.201763,0 1.464078,-1.327308 1.697367,-1.784762 0.137441,-0.269515 0.45919,-0.625731 0.739188,-0.818379 0.736347,-0.506619 0.983714,-1.163858 0.983714,-2.613714 0,-1.049038 -0.02178,-1.161952 -0.277188,-1.437543 -0.15245,-0.164496 -0.310275,-0.449757 -0.350718,-0.633916 -0.169133,-0.770043 -0.795958,-1.167746 -2.669307,-1.693597 -0.469001,-0.13165 -0.992742,-0.29379 -1.163871,-0.360311 -0.344375,-0.133867 -1.723353,0.06269 -2.003532,0.285587 -0.117548,0.09351 -0.136084,0.309048 -0.07765,0.902385 0.04222,0.428742 0.01554,1.658595 -0.05926,2.733011 -0.115622,1.660146 -0.110462,2.107137 0.03433,2.976752 0.09463,0.568282 0.146138,1.359596 0.115851,1.779659 -0.0333,0.462389 0.01665,1.107591 0.128557,1.65995 0.100699,0.496963 0.183084,1.042181 0.183084,1.211599 0,0.36251 0.01112,0.357805 1.003694,-0.423428 z m 21.110358,17.319892 c -1.803369,-0.05233 -2.36094,-0.10623 -2.694377,-0.260488 -0.281339,-0.130149 -0.823696,-0.211707 -1.639201,-0.2465 -1.166775,-0.04978 -1.243406,-0.06888 -1.796646,-0.447931 -0.317843,-0.217765 -0.714378,-0.429517 -0.881183,-0.47056 -0.290114,-0.07139 -0.307159,-0.117424 -0.392321,-1.059502 -0.04893,-0.541681 -0.09156,-1.777912 -0.09465,-2.747177 -0.0055,-1.687881 0.0098,-1.808575 0.359344,-2.857995 0.200729,-0.60263 0.423941,-1.421248 0.496027,-1.81915 0.147519,-0.814266 0.385511,-11.135594 0.347523,-15.071701 -0.02217,-2.293787 0.100116,-4.497707 0.274725,-4.952739 0.08096,-0.210967 0.421085,-0.354157 1.416037,-0.596139 0.406462,-0.09886 0.978743,-0.279962 1.271737,-0.40246 0.292993,-0.122496 0.753471,-0.223035 1.023272,-0.223421 0.26981,-3.41e-4 0.630558,-0.07372 0.801656,-0.162987 0.390491,-0.203705 2.472957,-0.518494 3.430055,-0.518494 0.396708,0 0.945165,-0.08023 1.218794,-0.17829 0.289387,-0.103706 0.663977,-0.152192 0.895451,-0.115905 0.218863,0.03431 0.843802,-0.02294 1.388756,-0.127226 0.961659,-0.184028 0.998092,-0.183126 1.238293,0.03063 0.381708,0.339687 0.664908,1.068396 0.667663,1.718001 0.0032,0.753969 -0.284685,1.112852 -1.330314,1.658416 -1.133553,0.591436 -1.805248,0.696395 -4.352035,0.680043 -2.405014,-0.01543 -3.277139,0.08274 -4.04397,0.455303 -0.443124,0.21529 -0.502144,0.290543 -0.551701,0.703505 -0.374881,3.124 -0.458354,4.247565 -0.460927,6.204122 -0.0016,1.219399 0.03535,2.353531 0.08215,2.52029 0.10916,0.389097 0.632128,0.509003 2.909296,0.66705 1.877216,0.130287 2.810292,0.273311 3.448173,0.528541 0.37889,0.151602 0.436132,0.222408 0.436132,0.539463 0,1.029654 -0.763185,2.371161 -1.58849,2.792196 -0.56985,0.290719 -2.031128,0.454353 -4.067936,0.455526 l -1.620182,9.87e-4 0.0016,1.222242 c 5.13e-4,0.672232 -0.05745,2.234384 -0.128959,3.471449 -0.07149,1.237063 -0.100455,2.2788 -0.06431,2.314967 0.142627,0.142633 3.371842,0.608003 4.228389,0.609365 l 0.909576,0.0014 0.8074,0.718424 c 1.151253,1.024389 1.525969,1.238128 1.934033,1.103179 0.334431,-0.110598 1.915955,-0.363131 2.431773,-0.388297 0.221759,-0.01083 0.329973,0.07971 0.492255,0.411817 0.338574,0.692887 0.140472,1.067632 -1.38275,2.615707 l -1.314539,1.335938 -0.915621,-0.0228 c -0.503595,-0.01255 -1.938902,-0.05248 -3.189569,-0.08878 z m 27.758849,0.03365 c -0.04956,-0.04954 -0.687532,-0.09063 -1.417787,-0.09133 -1.199501,-0.0012 -1.407348,-0.03321 -2.152037,-0.331899 -0.453367,-0.181846 -0.824303,-0.39445 -0.824303,-0.472453 0,-0.07801 0.170869,-0.346345 0.37971,-0.59631 l 0.379703,-0.45448 0.07513,-1.734596 c 0.151164,-3.492366 0.09215,-6.579681 -0.159008,-8.319723 -0.14415,-0.998601 -0.207169,-1.846032 -0.16402,-2.205456 0.04585,-0.381671 0.0063,-0.828956 -0.113516,-1.292238 -0.100984,-0.389689 -0.256355,-1.482855 -0.345281,-2.429256 -0.183155,-1.949305 -0.336001,-2.641876 -1.358351,-6.154913 -0.400362,-1.375734 -0.879953,-3.115297 -1.065767,-3.865696 -0.185807,-0.7504 -0.444537,-1.747063 -0.574949,-2.214806 -0.231765,-0.83122 -0.307908,-1.845767 -0.166244,-2.21494 0.145135,-0.378216 1.394966,-0.01613 2.311353,0.669616 0.333689,0.249708 0.465859,0.502418 0.881743,1.685844 0.583833,1.661311 0.942191,2.994778 0.944488,3.514441 7.88e-4,0.208448 0.07631,0.506905 0.167506,0.663237 0.397419,0.681211 0.552238,1.152256 0.753725,2.293305 0.11795,0.667958 0.389361,1.822136 0.603135,2.564843 0.569077,1.977146 0.66561,2.642732 0.581577,4.010214 -0.06984,1.137058 -0.05279,1.272203 0.35902,2.842425 l 0.432377,1.648606 1.11e-4,3.540239 c 1.18e-4,4.357143 -0.100038,4.099352 1.535041,3.949232 1.46592,-0.134591 5.38232,-0.09791 6.70811,0.06283 0.59408,0.07203 1.56618,0.253385 2.16025,0.403025 0.98515,0.248151 3.98551,1.165505 4.06194,1.241929 0.0177,0.01767 -0.0468,0.190375 -0.14329,0.383779 -0.0965,0.193403 -0.26298,0.853673 -0.37,1.467266 l -0.19459,1.115625 -0.73903,0.137639 c -0.93708,0.17452 -1.84596,0.183414 -2.3804,0.02329 -0.29015,-0.08693 -0.64024,-0.09092 -1.15017,-0.0131 -0.50095,0.07644 -0.94345,0.07303 -1.39751,-0.0108 -0.53949,-0.09958 -0.89732,-0.08392 -1.9026,0.08329 -0.77128,0.128279 -1.4639,0.17939 -1.83688,0.135539 -0.84814,-0.09971 -3.15884,-0.114026 -3.501435,-0.0217 -0.158219,0.04261 -0.328189,0.03701 -0.377722,-0.01255 z m 24.996526,-0.03365 c -1.80336,-0.05233 -2.36094,-0.10623 -2.69438,-0.260488 -0.27948,-0.129291 -0.82091,-0.21159 -1.61487,-0.245462 -1.21927,-0.05201 -1.47734,-0.126752 -2.03269,-0.588639 -0.17382,-0.144555 -0.48808,-0.295105 -0.69838,-0.334558 l -0.38236,-0.07173 -0.0828,-2.42854 c -0.0914,-2.68074 -0.0762,-2.843942 0.40117,-4.315712 0.18254,-0.562799 0.38851,-1.355835 0.4577,-1.762301 0.14363,-0.843732 0.38168,-11.507721 0.34263,-15.349088 -0.0264,-2.600795 0.12114,-4.4916 0.37029,-4.74395 0.0756,-0.07658 0.57183,-0.244839 1.10271,-0.373923 0.5309,-0.129086 1.20499,-0.335044 1.49799,-0.457686 0.29298,-0.122641 0.74321,-0.222986 1.00048,-0.222986 0.25728,0 0.60623,-0.07158 0.77544,-0.159091 0.38929,-0.20131 2.52942,-0.52309 3.47904,-0.52309 0.3967,0 0.94517,-0.08023 1.2188,-0.17829 0.28938,-0.103706 0.66398,-0.152192 0.89544,-0.115905 0.21887,0.03431 0.84382,-0.02294 1.38876,-0.127226 0.96166,-0.184028 0.99809,-0.183126 1.2383,0.03063 0.38171,0.339687 0.6649,1.068396 0.66765,1.718001 0.003,0.734174 -0.27706,1.102136 -1.22316,1.606405 -1.19524,0.637055 -1.72488,0.719494 -4.80028,0.747161 l -2.78556,0.02506 -0.71256,0.323725 c -0.49274,0.223858 -0.72647,0.397578 -0.75768,0.563139 -0.38323,2.033163 -0.63248,8.869979 -0.33423,9.168027 0.20603,0.205879 0.89106,0.317245 2.77089,0.450465 1.99996,0.141734 2.90864,0.279364 3.55683,0.538717 l 0.44969,0.179932 -0.0723,0.615949 c -0.0399,0.338771 -0.15066,0.804038 -0.24634,1.033924 -0.19622,0.471525 -0.97592,1.32181 -1.432,1.561673 -0.43354,0.228004 -2.05788,0.389198 -3.9328,0.390278 l -1.62019,9.87e-4 7.9e-4,0.937999 c 5.2e-4,0.5159 -0.0589,2.076628 -0.13211,3.468287 -0.0731,1.391657 -0.10207,2.561301 -0.0641,2.59921 0.14487,0.144868 3.36425,0.611165 4.23155,0.612898 l 0.90956,0.0018 0.79589,0.715498 c 1.07701,0.968235 1.54907,1.246902 1.89232,1.117052 0.14736,-0.05575 0.54933,-0.135641 0.89325,-0.177541 0.34393,-0.0419 0.87736,-0.132264 1.18539,-0.20081 0.52133,-0.116009 0.5744,-0.106915 0.76746,0.131499 0.23424,0.28927 0.27652,1.019283 0.0813,1.403804 -0.0694,0.136588 -0.69526,0.823933 -1.39093,1.527433 l -1.26482,1.279088 -0.91143,-0.02281 c -0.50129,-0.01255 -1.9347,-0.05248 -3.18537,-0.08878 z m 12.97627,-0.144221 c -0.0377,-0.1407 -0.0693,-0.518164 -0.0702,-0.838806 -7.9e-4,-0.365405 -0.0623,-0.633388 -0.16428,-0.718031 -0.21117,-0.175263 -0.40585,-1.095613 -0.4054,-1.916516 5.1e-4,-0.995161 0.31004,-2.541929 0.6848,-3.422618 0.25276,-0.593964 0.33811,-0.971804 0.33811,-1.496778 0,-0.386237 0.0808,-1.246031 0.17958,-1.910656 0.10466,-0.704212 0.14773,-1.421885 0.10325,-1.720046 -0.10474,-0.701962 -0.13292,-4.301371 -0.066,-8.435112 0.006,-0.355778 -0.0881,-1.059698 -0.20866,-1.564267 -0.16116,-0.674801 -0.1912,-1.014663 -0.11361,-1.285227 0.1519,-0.529639 0.14119,-0.577394 -0.23605,-1.052096 -0.24582,-0.309313 -0.30884,-0.469225 -0.22481,-0.570473 0.0699,-0.08424 0.0871,-0.393107 0.0427,-0.769941 -0.0441,-0.375109 -0.022,-0.778354 0.0548,-0.998415 0.0708,-0.203039 0.16155,-1.018531 0.20172,-1.812206 0.0701,-1.383842 0.0629,-1.453288 -0.17661,-1.69269 l -0.2496,-0.249646 0.40379,-0.550091 c 0.2221,-0.302551 0.43603,-0.71116 0.4754,-0.908024 0.0664,-0.332431 0.0857,-0.345117 0.27032,-0.178072 0.10931,0.09892 0.3909,0.724778 0.62576,1.390798 0.37539,1.064518 0.43044,1.356023 0.4552,2.41078 0.0185,0.786174 0.11959,1.572226 0.2933,2.279957 0.2326,0.947731 0.26189,1.317029 0.23893,3.01297 -0.029,2.144805 0.0439,3.126664 0.2322,3.126664 0.0687,0 0.75113,-0.613963 1.51648,-1.364363 0.76534,-0.750399 1.44175,-1.364363 1.50315,-1.364363 0.0614,0 0.14119,-0.117799 0.17732,-0.261775 0.0361,-0.143976 0.66114,-1.000967 1.38891,-1.904425 1.45682,-1.808536 2.24929,-2.929488 2.69898,-3.817742 0.20104,-0.397107 0.38484,-0.605809 0.57575,-0.653724 0.15425,-0.03871 0.44109,-0.205559 0.63744,-0.370771 l 0.35698,-0.300385 0.44765,0.437123 c 0.24621,0.240417 0.44765,0.508539 0.44765,0.595826 0,0.08728 0.15079,0.299556 0.33509,0.471708 l 0.33507,0.313004 -1.0977,1.46649 c -1.10716,1.479127 -2.48107,2.938308 -3.25623,3.458327 -0.24881,0.166921 -0.44637,0.405441 -0.48385,0.58418 -0.0395,0.188303 -0.2622,0.444029 -0.59131,0.678956 -0.70931,0.506328 -3.5341,3.363513 -3.66452,3.706551 -0.19104,0.502461 -0.12235,0.909329 0.19577,1.159556 0.16477,0.129606 0.37767,0.235646 0.47312,0.235646 0.0954,0 0.98504,0.823383 1.97688,1.82974 1.34117,1.360803 1.9728,2.099341 2.46452,2.881696 0.90687,1.442905 1.97164,2.820015 2.52821,3.269873 0.25546,0.206479 0.89013,0.795587 1.41036,1.309128 0.99109,0.978332 1.27233,1.487388 1.15257,2.086221 -0.077,0.384659 0.4917,1.891854 0.80744,2.140149 0.18616,0.146403 0.18426,0.151154 -0.0272,0.06791 -0.25696,-0.101144 -0.37156,-0.107148 -1.46289,-0.07663 -0.72284,0.02022 -0.77627,0.03889 -0.72057,0.251854 0.0434,0.166028 -0.12713,0.06777 -0.61308,-0.353216 -0.97707,-0.846443 -1.52169,-1.505117 -1.6792,-2.030844 -0.0875,-0.292178 -0.38775,-0.723098 -0.81659,-1.17212 -0.40917,-0.428417 -0.72316,-0.873398 -0.79161,-1.121814 -0.0738,-0.267774 -0.39532,-0.698701 -0.91965,-1.232474 -0.50821,-0.517368 -0.90589,-1.046096 -1.07585,-1.430425 -0.2417,-0.546515 -0.31951,-0.623119 -0.75096,-0.739299 -0.39014,-0.105053 -0.7786,-0.422196 -2.05033,-1.673885 l -1.56898,-1.544276 -0.29537,0.275684 c -0.38572,0.360036 -0.72838,1.037564 -0.72654,1.436549 7.9e-4,0.174458 0.0995,0.629954 0.21939,1.012215 0.32071,1.022826 0.4227,2.714316 0.19634,3.25595 -0.098,0.234499 -0.23197,0.426363 -0.2977,0.426363 -0.2102,0 -0.12786,0.198689 0.10789,0.260337 0.18875,0.04936 0.2274,0.155085 0.2274,0.622084 0,1.020652 -0.23231,3.446832 -0.40924,4.273871 -0.0956,0.447039 -0.1969,1.222106 -0.22504,1.722373 -0.073,1.297522 -0.0786,1.307513 -0.72448,1.307513 -0.47174,0 -0.55706,-0.03543 -0.61612,-0.255816 z m 21.00442,0.118355 c -0.0467,-0.07561 -0.0969,-0.429417 -0.11147,-0.786247 -0.0146,-0.35683 -0.10541,-0.769199 -0.20185,-0.916374 -0.0964,-0.147174 -0.23842,-0.635502 -0.31553,-1.085171 -0.12111,-0.706215 -0.11185,-0.992437 0.068,-2.101252 0.12504,-0.770973 0.34344,-1.598118 0.54681,-2.070966 0.28592,-0.664729 0.35318,-1.009872 0.43206,-2.21709 0.0514,-0.786388 0.15215,-1.732714 0.22392,-2.102945 0.0973,-0.501624 0.0979,-0.791335 0.002,-1.136971 -0.0889,-0.321678 -0.11194,-1.700767 -0.0751,-4.500062 0.0495,-3.770626 0.038,-4.096099 -0.17599,-4.945818 -0.16933,-0.672506 -0.20955,-1.08377 -0.15427,-1.57792 0.0679,-0.606911 0.049,-0.695744 -0.20411,-0.966423 -0.30763,-0.328865 -0.30881,-0.185316 0.031,-3.765838 0.13676,-1.441102 0.0684,-2.097085 -0.23259,-2.233066 -0.20131,-0.09093 -0.18475,-0.14417 0.23844,-0.766824 0.25013,-0.368006 0.45476,-0.799024 0.45476,-0.957818 v -0.288715 l 0.27718,0.260387 c 0.15244,0.143214 0.38786,0.599813 0.52312,1.014667 0.13529,0.414855 0.31467,0.933352 0.39861,1.15222 0.0869,0.226595 0.15539,0.864106 0.15905,1.48059 0.004,0.690635 0.10901,1.575758 0.28976,2.444485 0.24593,1.182069 0.28345,1.657016 0.28424,3.598047 0,1.22992 0.0325,2.318644 0.0711,2.419389 0.0536,0.139549 0.41824,-0.156083 1.53133,-1.241368 0.80359,-0.783498 1.51314,-1.42454 1.5768,-1.42454 0.0636,0 0.18609,-0.166281 0.27208,-0.369514 0.0859,-0.203233 0.73004,-1.081 1.43124,-1.950593 1.32858,-1.647628 2.19764,-2.870802 2.59678,-3.654889 0.16774,-0.329521 0.42708,-0.574988 0.9108,-0.8621 l 0.6763,-0.401401 0.34617,0.293614 c 0.1904,0.161487 0.45082,0.504746 0.57872,0.762801 0.12789,0.258056 0.31699,0.501603 0.42023,0.541219 0.22791,0.08746 0.1834,0.164939 -1.01608,1.768981 -0.99993,1.337166 -1.93418,2.341629 -2.87226,3.088076 -0.42232,0.336041 -0.72386,0.663876 -0.72386,0.786951 0,0.122199 -0.27506,0.424426 -0.65375,0.718311 -0.35958,0.279043 -1.32714,1.190188 -2.15016,2.024766 -1.22202,1.239186 -1.51095,1.595435 -1.57582,1.942922 -0.10767,0.576791 -0.033,0.716884 0.53693,1.006105 0.67686,0.343549 1.02146,0.645031 2.15565,1.885968 0.54159,0.59257 1.14618,1.196531 1.34354,1.342136 0.19736,0.145603 0.66514,0.762038 1.03951,1.369855 0.88679,1.439722 1.82295,2.699555 2.41306,3.247317 0.25987,0.241226 0.95855,0.887536 1.55262,1.436244 0.86921,0.80286 1.10961,1.095687 1.23119,1.499751 0.0992,0.329776 0.11527,0.582323 0.0468,0.735849 -0.11988,0.26866 0.26797,1.383377 0.67358,1.935948 0.22461,0.305988 0.22669,0.324321 0.027,0.238457 -0.24344,-0.1047 -0.35453,-0.110836 -1.45069,-0.08013 -0.64086,0.01795 -0.76796,0.05219 -0.71416,0.192382 0.13071,0.340623 -0.13696,0.152433 -1.09161,-0.767455 -0.7542,-0.726764 -1.00669,-1.050379 -1.12117,-1.437027 -0.0974,-0.328809 -0.38808,-0.760913 -0.8523,-1.266771 -0.41253,-0.44952 -0.73752,-0.917757 -0.78406,-1.129672 -0.0503,-0.229232 -0.40228,-0.704626 -0.95987,-1.29659 -0.54429,-0.577829 -0.95481,-1.129498 -1.07531,-1.445011 -0.17384,-0.455217 -0.25769,-0.532656 -0.77605,-0.716763 -0.38032,-0.135077 -0.78435,-0.408774 -1.16913,-0.791983 -0.32338,-0.322064 -1.00858,-0.993829 -1.5227,-1.492807 l -0.93473,-0.907233 -0.38895,0.452447 c -0.60164,0.699881 -0.68645,1.163407 -0.39085,2.136606 0.15744,0.518331 0.26792,1.264334 0.30811,2.080538 0.0621,1.261384 0.0601,1.275075 -0.2379,1.573048 -0.36258,0.362577 -0.36242,0.36126 -0.0554,0.441575 0.24228,0.06336 0.24437,0.08608 0.16886,1.837067 -0.042,0.975103 -0.17785,2.295249 -0.30181,2.933655 -0.12395,0.638406 -0.22552,1.509456 -0.22571,1.935668 0,1.040752 -0.10599,1.21477 -0.73666,1.21477 -0.27552,0 -0.53916,-0.06186 -0.58589,-0.137465 z m 27.52935,0.02779 c -1.84827,-0.05206 -2.36305,-0.102784 -2.75001,-0.270928 -0.29165,-0.126721 -0.82025,-0.219214 -1.36436,-0.238733 -0.48857,-0.01753 -1.02325,-0.03883 -1.1882,-0.04736 -0.16495,-0.0085 -0.56234,-0.196016 -0.88311,-0.416663 -0.32075,-0.220647 -0.72803,-0.430141 -0.90505,-0.465544 l -0.32184,-0.06437 -0.0741,-1.712775 c -0.13571,-3.135417 -0.11461,-3.4618 0.31185,-4.822439 0.56995,-1.818495 0.63725,-2.516295 0.70003,-7.257452 0.094,-7.103012 0.25899,-14.077725 0.34067,-14.407616 0.10762,-0.434639 0.22581,-0.505146 1.36863,-0.816403 0.55745,-0.151826 1.21819,-0.35495 1.46832,-0.451388 0.25014,-0.09643 0.67477,-0.177582 0.94365,-0.180327 0.26888,-0.0028 0.62731,-0.07659 0.79652,-0.164082 0.38927,-0.20131 2.52943,-0.52309 3.47903,-0.52309 0.39671,0 0.94518,-0.08017 1.21882,-0.178147 0.30543,-0.109369 0.66322,-0.152565 0.92676,-0.111888 0.23611,0.03644 0.76371,-0.01131 1.17246,-0.106096 1.07447,-0.249184 1.24465,-0.227704 1.56193,0.197161 0.59878,0.801776 0.69044,1.997487 0.19368,2.526267 -0.13774,0.146626 -0.54436,0.423243 -0.90358,0.614706 -1.17529,0.626422 -1.71863,0.710784 -4.78454,0.742859 -2.88393,0.03017 -3.27704,0.08859 -4.03625,0.599805 -0.24039,0.161869 -0.20839,-0.05088 -0.62368,4.14839 -0.16465,1.664857 -0.11692,5.140778 0.0731,5.330888 0.20856,0.208567 0.92025,0.32275 2.82443,0.453153 2.00531,0.137326 3.23867,0.348048 3.66248,0.625741 0.24545,0.160831 0.26865,0.236147 0.20228,0.656626 -0.0412,0.261226 -0.13151,0.67203 -0.20061,0.912898 -0.14153,0.493335 -0.97004,1.475619 -1.45703,1.727456 -0.43543,0.225175 -2.10544,0.388428 -3.99785,0.390812 l -1.56334,0.002 -0.01,1.108546 c -0.006,0.6097 -0.072,2.182981 -0.14856,3.496181 -0.0765,1.3132 -0.1308,2.401555 -0.12069,2.418562 0.0685,0.11501 3.46997,0.590494 4.23679,0.592246 l 0.94511,0.0022 0.89619,0.789714 c 0.93823,0.826755 1.52292,1.198585 1.70641,1.085179 0.0598,-0.03699 0.70943,-0.168357 1.44351,-0.291935 l 1.33471,-0.224687 0.19923,0.258864 c 0.11387,0.147957 0.20031,0.458582 0.20175,0.725018 0.003,0.590744 -0.29852,1.010181 -1.72982,2.404694 l -1.07945,1.051694 -0.89646,-0.02281 c -0.49306,-0.01254 -1.91974,-0.05161 -3.17041,-0.08684 z m 25.76973,-0.316688 c -0.11807,-0.234499 -0.32408,-0.975269 -0.4578,-1.646155 -0.13372,-0.670887 -0.34922,-1.489504 -0.47889,-1.819151 -0.35735,-0.908504 -1.31909,-2.26316 -2.72601,-3.839721 -0.69757,-0.781666 -1.65669,-1.95843 -2.1314,-2.615029 -0.91225,-1.26176 -2.16141,-2.816793 -2.46547,-3.069129 -0.16406,-0.136166 -0.17418,-0.07999 -0.10579,0.587502 0.0642,0.626552 0.0369,0.822541 -0.18034,1.297178 -0.20744,0.453151 -0.27169,0.860789 -0.33904,2.150872 -0.0728,1.395278 -0.14269,1.795254 -0.56596,3.240363 -0.27365,0.934265 -0.50848,2.002921 -0.54196,2.46632 -0.0412,0.569342 -0.10937,0.837001 -0.22457,0.881215 -0.66218,0.2541 -3.87392,0.127421 -4.17035,-0.164491 -0.16574,-0.163214 0.22196,-2.445811 0.66021,-3.887039 0.22233,-0.73113 0.71195,-2.045723 1.08802,-2.921315 0.3761,-0.875594 0.68381,-1.688172 0.68381,-1.805726 0,-0.117557 0.12791,-0.64108 0.28424,-1.163385 0.22727,-0.759354 0.28494,-1.201946 0.28775,-2.208704 0.005,-1.622242 0.15923,-2.789966 0.4434,-3.347006 0.17524,-0.343507 0.25459,-0.850435 0.3518,-2.247614 0.1572,-2.259292 0.38859,-3.882741 0.63316,-4.44205 0.13279,-0.303731 0.18242,-0.703703 0.16726,-1.348273 -0.0118,-0.504039 0.0393,-1.265827 0.11366,-1.69286 0.11983,-0.688094 0.11417,-0.788202 -0.0498,-0.879941 -0.27447,-0.153607 -0.52606,-0.7091 -0.52606,-1.161539 0,-0.372231 0.028,-0.403016 0.42636,-0.468098 0.92836,-0.151681 1.10973,-0.205278 1.77891,-0.52568 0.51787,-0.247953 0.79004,-0.31514 1.07244,-0.264735 0.25833,0.04611 0.51095,-9.86e-4 0.79588,-0.14866 0.22959,-0.118916 0.75,-0.247501 1.15647,-0.285744 0.40647,-0.03824 1.1995,-0.230521 1.7623,-0.427288 1.31849,-0.460974 2.12126,-0.474005 3.12684,-0.05075 0.45494,0.191478 1.09105,0.340291 1.74295,0.407733 0.75439,0.07806 1.15569,0.181892 1.51369,0.391709 0.63085,0.369688 1.47816,1.556726 1.74846,2.449449 0.11467,0.378748 0.28105,0.800363 0.36974,0.936923 0.4662,0.717922 0.83678,2.904483 0.70517,4.161036 -0.10639,1.01618 -0.30097,1.595879 -0.81325,2.423028 -0.243,0.392389 -0.65597,1.152644 -0.91772,1.689455 -0.3909,0.801753 -0.58214,1.05551 -1.07105,1.421212 -0.32733,0.244856 -0.85348,0.810209 -1.16921,1.25634 -0.31572,0.44613 -0.81943,1.073213 -1.11935,1.393517 -0.35763,0.381953 -0.51414,0.632658 -0.45479,0.728484 0.91593,1.47853 2.09556,3.073443 2.92018,3.948186 0.67977,0.721071 1.18913,1.388528 1.48122,1.94095 0.24485,0.463075 0.61579,1.033967 0.82432,1.268647 0.2085,0.23468 0.3791,0.48417 0.3791,0.55442 0,0.07025 0.14982,0.422545 0.33292,0.782876 0.25902,0.509746 0.69035,1.690326 0.69035,1.889598 0,0.01696 -0.45896,0.267895 -1.01988,0.557604 -0.86833,0.448479 -1.15845,0.678538 -1.95252,1.548337 -1.1018,1.206878 -1.69568,1.642654 -2.46292,1.807193 -0.31039,0.06657 -0.73369,0.245969 -0.94065,0.398668 -0.20697,0.152704 -0.39093,0.277642 -0.40879,0.277642 -0.0179,0 -0.12902,-0.191865 -0.24708,-0.426366 z m -4.02606,-18.402448 c 0.17908,-0.04983 0.29267,-0.210846 0.38173,-0.541122 0.33976,-1.26008 0.68002,-2.940785 0.74521,-3.681032 0.0681,-0.772846 0.0553,-0.84047 -0.20948,-1.105211 -0.27528,-0.275278 -0.36774,-0.577774 -0.67168,-2.197718 -0.14119,-0.752523 -0.45074,-1.274461 -0.75584,-1.274461 -0.1,0 -0.27482,-0.0842 -0.38854,-0.187123 -0.11372,-0.102919 -0.469,-0.212322 -0.78953,-0.24312 l -0.58275,-0.05599 0.0778,0.783181 c 0.0885,0.891052 -0.17174,3.304718 -0.45268,4.198756 -0.0974,0.3101 -0.22318,1.210749 -0.27942,2.001443 -0.0586,0.824078 -0.17892,1.621166 -0.28192,1.867684 -0.14369,0.343907 -0.15071,0.450336 -0.0349,0.531295 0.15112,0.105706 2.79856,0.02684 3.2421,-0.09658 z m 4.59938,-2.283241 c 0.24651,-0.236165 0.31907,-0.410367 0.31969,-0.767454 0,-0.254067 0.10277,-0.887281 0.22738,-1.407143 0.12465,-0.519862 0.22596,-1.05708 0.22518,-1.193818 -0.002,-0.333276 -1.3423,-1.54406 -1.903,-1.719022 -0.23706,-0.07397 -0.25581,-0.04518 -0.25581,0.39263 0,0.300998 0.15218,0.809227 0.41933,1.400449 0.41151,0.910664 0.41905,0.952944 0.40395,2.263933 -0.0169,1.463589 0.0271,1.544069 0.56328,1.030425 z m 12.76126,20.897121 c -0.63366,-0.287808 -1.26753,-0.867291 -1.5462,-1.413538 -0.18252,-0.357763 -0.22286,-0.611011 -0.18704,-1.17382 0.0559,-0.879174 0.40727,-1.435484 1.38658,-2.195947 0.66389,-0.515525 0.66555,-0.516062 1.58947,-0.516062 0.79814,0 1.05421,0.05403 1.86895,0.394369 1.13428,0.473812 1.40297,0.806247 1.40288,1.735584 -1e-4,1.044892 -0.41985,1.757251 -1.43106,2.428657 -0.6113,0.405888 -1.98375,0.950974 -2.39396,0.950792 -0.12506,-4.7e-5 -0.43538,-0.09457 -0.68962,-0.210035 z m 0.279,-7.274998 -0.61266,-0.327024 -0.0737,-1.924353 c -0.0406,-1.058394 -0.12069,-2.100788 -0.17807,-2.316429 -0.0573,-0.215643 -0.0706,-0.826969 -0.0292,-1.358501 0.0413,-0.531533 0.0301,-1.130637 -0.0251,-1.331342 -0.0645,-0.23526 -0.041,-0.844839 0.0666,-1.715662 0.11224,-0.909212 0.13304,-1.496073 0.0636,-1.795325 -0.14809,-0.638418 -0.13453,-3.83177 0.0179,-4.217601 0.11749,-0.297364 0.16108,-0.687014 0.25843,-2.309764 0.0206,-0.343935 0.0751,-0.811967 0.12103,-1.040077 0.0468,-0.23233 0.0257,-0.693476 -0.0481,-1.048489 -0.10827,-0.521533 -0.10007,-0.756735 0.0464,-1.32832 0.21,-0.819703 0.22122,-1.199478 0.055,-1.85967 -0.10667,-0.423642 -0.0916,-0.546733 0.1137,-0.929814 0.13016,-0.242844 0.23665,-0.605672 0.23665,-0.806285 0,-0.248035 0.0808,-0.421388 0.25268,-0.541745 0.43103,-0.301906 1.00917,-0.214945 2.0358,0.30622 l 0.95188,0.483211 -0.0114,1.648606 c -0.0164,2.36563 -0.1414,4.363526 -0.33355,5.327495 -0.0917,0.460055 -0.1667,1.032937 -0.1667,1.273073 0,0.247362 -0.1232,0.668325 -0.28425,0.971196 -0.26024,0.489435 -0.28424,0.656618 -0.28424,1.979433 0,2.092824 -0.20463,4.368749 -0.47343,5.265331 -0.2548,0.849923 -0.22521,1.483585 0.0967,2.070491 0.13374,0.243871 0.20538,0.781582 0.25712,1.929826 0.0601,1.332741 0.11264,1.669649 0.32309,2.07044 0.51406,0.979049 0.25636,1.521547 -0.81933,1.724919 -0.89479,0.169169 -0.85659,0.174074 -1.55704,-0.19984 z"
     id="path575"
     inkscape:connector-curvature="0" />
  <rect
     style="opacity:1;fill:none;fill-opacity:1;stroke:#000000;stroke-width:0.87482524;stroke-miterlimit:4;stroke-dasharray:none;stroke-opacity:1"
     id="rect577"
     width="188.10156"
     height="93.613365"
     x="43.507366"
     y="25.388559" />
  <text
     xml:space="preserve"
     style="font-style:normal;font-weight:normal;font-size:13.33333302px;line-height:1.25;font-family:sans-serif;letter-spacing:0px;word-spacing:0px;fill:#000000;fill-opacity:1;stroke:none"
     x="105.43929"
     y="131.57463"
     id="text581"><tspan
       sodipodi:role="line"
       id="tspan579"
       x="105.43929"
       y="131.57463">50.00mm</tspan></text>
  <text
     xml:space="preserve"
     style="font-style:normal;font-weight:normal;font-size:13.33333302px;line-height:1.25;font-family:sans-serif;letter-spacing:0px;word-spacing:0px;fill:#000000;fill-opacity:1;stroke:none"
     x="-103.83794"
     y="37.739887"
     id="text585"
     transform="rotate(-90)"><tspan
       sodipodi:role="line"
       id="tspan583"
       x="-103.83794"
       y="37.739887">25.00mm</tspan></text>
</svg>
