<?xml version="1.0" encoding="UTF-8" standalone="no"?>
<svg
   xmlns:dc="http://purl.org/dc/elements/1.1/"
   xmlns:cc="http://creativecommons.org/ns#"
   xmlns:rdf="http://www.w3.org/1999/02/22-rdf-syntax-ns#"
   xmlns:svg="http://www.w3.org/2000/svg"
   xmlns="http://www.w3.org/2000/svg"
   viewBox="0 0 226.77166 226.77164"
   height="60mm"
   width="60mm"
   id="svg1036"
   version="1.1">
  <metadata
     id="metadata1042">
    <rdf:RDF>
      <cc:Work
         rdf:about="">
        <dc:format>image/svg+xml</dc:format>
        <dc:type
           rdf:resource="http://purl.org/dc/dcmitype/StillImage" />
        <dc:title></dc:title>
      </cc:Work>
    </rdf:RDF>
  </metadata>
  <defs
     id="defs1040" />
  <path
     id="path1046"
     d="m 39.286159,151.77804 c 0.019,-0.0492 11.1921,-27.85368 24.8283,-61.787666 l 24.793,-61.69818 h 24.716201 24.7163 l 19.6706,49.20461 c 10.8188,27.062526 21.9345,54.866986 24.7015,61.787666 l 5.0309,12.58306 h -20.5669 -20.567 l -1.1556,-3.31133 c -0.6356,-1.82123 -2.5542,-7.32252 -4.2637,-12.22508 l -3.1081,-8.91375 -24.5817,-0.0169 -24.581601,-0.0169 -4.26,12.24073 -4.26,12.24072 -20.5737,0.001 c -16.4305,0.001 -20.5666,-0.0168 -20.5385,-0.0882 z M 121.74716,83.607874 c 2.0089,-12.75436 3.6384,-23.20393 3.621,-23.22126 -0.017,-0.0173 -7.9435,7.12927 -17.6138,15.88135 -9.670301,8.75207 -17.566601,15.92853 -17.547501,15.94767 0.019,0.0191 6.2774,3.41097 13.907201,7.5374 l 13.8724,7.502596 0.054,-0.22901 c 0.03,-0.12594 1.6977,-10.664386 3.7066,-23.418746 z"
     style="fill:#000000;stroke-width:0.07159638" />
  <rect
     y="13.371606"
     x="34.653862"
     height="159.52228"
     width="159.52226"
     id="rect1048"
     style="opacity:1;fill:none;fill-opacity:1;stroke:#000000;stroke-width:0.41298801;stroke-miterlimit:4;stroke-dasharray:none;stroke-opacity:1" />
  <text
     id="text1052"
     y="194.3812"
     x="81.171135"
     style="font-style:normal;font-weight:normal;font-size:13.33333302px;line-height:1.25;font-family:sans-serif;letter-spacing:0px;word-spacing:0px;fill:#000000;fill-opacity:1;stroke:none"
     xml:space="preserve"><tspan
       y="194.3812"
       x="81.171135"
       id="tspan1050">40.00mm</tspan></text>
</svg>
