<?xml version="1.0" encoding="UTF-8" standalone="no"?>
<svg
   xmlns:dc="http://purl.org/dc/elements/1.1/"
   xmlns:cc="http://creativecommons.org/ns#"
   xmlns:rdf="http://www.w3.org/1999/02/22-rdf-syntax-ns#"
   xmlns:svg="http://www.w3.org/2000/svg"
   xmlns="http://www.w3.org/2000/svg"
   xmlns:sodipodi="http://sodipodi.sourceforge.net/DTD/sodipodi-0.dtd"
   xmlns:inkscape="http://www.inkscape.org/namespaces/inkscape"
   viewBox="0 0 620 882"
   height="882"
   width="620"
   id="svg2674"
   version="1.1"
   sodipodi:docname="35mm_20mm_heatstamp1.svg"
   inkscape:version="0.92.2 5c3e80d, 2017-08-06">
  <sodipodi:namedview
     pagecolor="#ffffff"
     bordercolor="#666666"
     borderopacity="1"
     objecttolerance="10"
     gridtolerance="10"
     guidetolerance="10"
     inkscape:pageopacity="0"
     inkscape:pageshadow="2"
     inkscape:window-width="1440"
     inkscape:window-height="804"
     id="namedview151"
     showgrid="false"
     inkscape:zoom="1.5136254"
     inkscape:cx="223.57717"
     inkscape:cy="422.97692"
     inkscape:window-x="0"
     inkscape:window-y="1"
     inkscape:window-maximized="1"
     inkscape:current-layer="svg2674" />
  <metadata
     id="metadata2680">
    <rdf:RDF>
      <cc:Work
         rdf:about="">
        <dc:format>image/svg+xml</dc:format>
        <dc:type
           rdf:resource="http://purl.org/dc/dcmitype/StillImage" />
        <dc:title></dc:title>
      </cc:Work>
    </rdf:RDF>
  </metadata>
  <defs
     id="defs2678" />
  <rect
     y="281.08154"
     x="216.65822"
     height="336.69232"
     width="241.88365"
     id="rect2686"
     style="fill:none;fill-opacity:1;stroke:#000000;stroke-width:0.91990262;stroke-miterlimit:4;stroke-dasharray:none;stroke-opacity:1" />
  <path
     id="path2688"
     d="m 218.0196,660.01641 h 240.48222 l 6.60665,-1.32133"
     style="fill:none;stroke:#000000;stroke-width:1px;stroke-linecap:butt;stroke-linejoin:miter;stroke-opacity:1" />
  <path
     id="path2690"
     d="m 159.88104,284.75844 v 334.29671 l -2.64266,3.96399"
     style="fill:none;stroke:#000000;stroke-width:1px;stroke-linecap:butt;stroke-linejoin:miter;stroke-opacity:1" />
  <text
     id="text2694"
     y="700.97766"
     x="241.80354"
     style="font-style:normal;font-weight:normal;font-size:40px;line-height:1.25;font-family:sans-serif;letter-spacing:0px;word-spacing:0px;fill:#000000;fill-opacity:1;stroke:none"
     xml:space="preserve"><tspan
       y="700.97766"
       x="241.80354"
       id="tspan2692">20.00mm</tspan></text>
  <text
     transform="rotate(-90)"
     id="text2698"
     y="139.73334"
     x="-553.93036"
     style="font-style:normal;font-weight:normal;font-size:40px;line-height:1.25;font-family:sans-serif;letter-spacing:0px;word-spacing:0px;fill:#000000;fill-opacity:1;stroke:none"
     xml:space="preserve"><tspan
       y="139.73334"
       x="-553.93036"
       id="tspan2696">35.00mm</tspan></text>
  <path
     style="fill:#000000;stroke-width:0.45160818"
     d="m 431.76826,603.07521 c -0.17712,-0.17713 -14.89391,-0.4804 -32.70397,-0.67391 -17.81005,-0.19353 -35.8367,-0.47568 -40.05925,-0.62704 -5.48473,-0.19656 -10.12788,-0.0602 -16.25788,0.47768 -7.63925,0.67025 -13.68342,0.71809 -55.0962,0.43597 -25.58361,-0.17428 -47.40836,-0.44162 -48.49945,-0.59408 -3.50035,-0.48911 -4.71252,-3.56196 -2.08439,-5.28399 0.80496,-0.52742 2.9881,-0.75595 9.16091,-0.959 l 8.10409,-0.26656 0.38921,-4.10956 c 0.21403,-2.26024 0.35581,-6.95469 0.315,-10.43207 -0.0408,-3.47738 -0.25983,-61.59935 -0.48674,-129.15996 -0.35351,-105.25143 -0.26877,-131.99003 0.46731,-147.45006 l 0.11829,-2.48384 -10.35117,-0.1216 c -6.70884,-0.0789 -10.56242,-0.29689 -10.95151,-0.61982 -0.75735,-0.62854 -0.7773,-2.68395 -0.0359,-3.69242 1.09197,-1.48517 7.29325,-1.81067 26.53197,-1.39267 9.81119,0.21318 26.92551,0.39404 38.03185,0.40189 19.62231,0.014 20.21253,0.0396 20.87253,0.91301 0.8434,1.11601 0.90286,3.39494 0.1167,4.47016 -0.95155,1.30134 -4.07543,1.62636 -12.68855,1.3202 l -8.08635,-0.28742 0.30446,2.66558 c 1.13391,9.92789 0.7998,37.83332 -1.11606,93.21304 -0.85815,24.8061 -0.89904,29.63053 -0.44389,52.38654 0.63508,31.7522 0.63437,69.19604 -0.002,92.64098 -0.54434,20.06274 0.14631,51.82255 1.13281,52.09328 0.26993,0.074 3.95856,0.37262 8.19692,0.66342 12.92213,0.88661 29.12055,0.51993 48.51908,-1.09841 5.36756,-0.4478 8.46404,-0.94284 11.07182,-1.77009 9.38953,-2.9786 19.4227,-11.56939 23.68121,-20.27683 2.19925,-4.49683 3.13051,-9.12531 3.86499,-19.2096 0.38788,-5.32527 1.14201,-11.54231 1.78576,-14.72174 4.06037,-20.05339 14.86137,-36.45869 29.49401,-44.79745 4.06207,-2.3149 5.91376,-2.52688 7.57355,-0.8671 1.31105,1.31106 1.46216,3.40778 0.31817,4.41513 -0.43466,0.38275 -1.90803,1.25218 -3.27415,1.93202 -4.80922,2.39333 -9.7509,6.00256 -13.6619,9.97816 -8.67447,8.8177 -11.89047,14.89434 -13.95726,26.3722 -1.3123,7.28781 -1.66086,21.65413 -0.66438,27.38356 2.30854,13.27352 7.60275,22.12868 16.68996,27.91581 4.33592,2.76129 6.96895,3.48066 14.02883,3.83278 6.10615,0.30454 6.30237,0.346 7.33862,1.55072 1.31386,1.52746 1.3623,3.39697 0.12878,4.96522 -0.85765,1.09029 -1.21053,1.18992 -4.21501,1.18992 -1.80345,0 -3.42395,-0.14492 -3.60108,-0.32205 z m -143.89151,-6.84633 3.83867,-0.28316 0.28994,-125.77288 c 0.15948,-69.17509 0.50694,-133.90185 0.77215,-143.83723 0.26519,-9.93537 0.49037,-19.39401 0.50036,-21.01919 l 0.0181,-2.95485 -17.1444,0.008 c -16.97981,0.008 -17.14256,0.0163 -16.95235,0.92261 1.42056,6.76954 1.90528,90.72996 0.73141,126.68815 -0.79742,24.42687 -1.26824,70.01393 -0.86521,83.77331 0.2967,10.12892 1.33966,27.70607 2.00975,33.87063 0.16199,1.49031 0.41593,12.97245 0.56429,25.51586 l 0.26973,22.80622 6.77413,0.52264 c 6.36122,0.49079 9.88947,0.44678 19.19335,-0.23949 z m -20.06095,-5.0821 c -0.60365,-1.8294 -1.23583,-39.96717 -1.47,-88.68395 -0.24123,-50.18447 0.31314,-144.67717 1.05782,-180.3046 l 0.29498,-14.11274 h 8.91377 8.91382 l 0.28252,5.9838 c 1.85195,39.22207 1.98529,154.34117 0.26061,225.0138 -0.69306,28.39998 -1.43379,51.91935 -1.64209,52.13816 -0.10641,0.11192 -3.84143,0.28931 -8.30007,0.39456 -6.59979,0.15578 -8.1447,0.076 -8.31136,-0.42903 z m 9.62787,-33.58775 c 1.00819,-6.36616 1.36031,-23.38513 1.69589,-81.9669 0.42794,-74.70679 0.42796,-74.89453 0.006,-107.70856 -0.328,-25.52476 -0.68835,-32.36931 -1.7383,-33.01822 -0.23621,-0.14596 -0.51092,-0.18399 -0.61044,-0.0843 -0.25174,0.25173 -1.03495,14.49716 -1.59647,29.03818 -0.47258,12.2376 -1.44799,92.53199 -1.51415,124.64388 -0.0195,9.43862 0.22266,23.9691 0.53803,32.29 0.31535,8.32088 0.78325,20.80499 1.0398,27.74247 0.25655,6.93749 0.5855,12.80627 0.73104,13.04174 0.43444,0.70297 0.9168,-0.6219 1.44832,-3.97815 z m 130.94387,35.11255 c -4.88632,-5.05008 -8.33282,-10.4705 -10.55268,-16.59662 -0.45001,-1.24191 -0.97225,-2.43552 -1.16054,-2.65244 -0.1883,-0.21693 -0.94894,0.80721 -1.6903,2.27589 -2.73112,5.41031 -9.15016,13.04458 -15.43079,18.3521 l -2.48384,2.09899 17.35232,0.011 17.35235,0.0111 -3.38652,-3.49995 z m -17.90218,-2.25804 c 1.40198,-1.42823 3.24711,-3.66679 4.10021,-4.9746 l 1.55111,-2.37784 0.95687,2.62432 c 0.52627,1.44335 1.70446,3.49768 2.61817,4.56515 1.32949,1.5532 1.53432,2.02125 1.02549,2.34337 -0.34969,0.22138 -3.37297,0.40562 -6.71839,0.40942 l -6.08258,0.006 z"
     id="path87"
     inkscape:connector-curvature="0" />
</svg>
