<?xml version="1.0" encoding="UTF-8" standalone="no"?>
<svg
   xmlns:dc="http://purl.org/dc/elements/1.1/"
   xmlns:cc="http://creativecommons.org/ns#"
   xmlns:rdf="http://www.w3.org/1999/02/22-rdf-syntax-ns#"
   xmlns:svg="http://www.w3.org/2000/svg"
   xmlns="http://www.w3.org/2000/svg"
   id="svg1150"
   version="1.2"
   viewBox="0 0 255.11813 255.11813"
   height="90mm"
   width="90mm">
  <metadata
     id="metadata1156">
    <rdf:RDF>
      <cc:Work
         rdf:about="">
        <dc:format>image/svg+xml</dc:format>
        <dc:type
           rdf:resource="http://purl.org/dc/dcmitype/StillImage" />
        <dc:title></dc:title>
      </cc:Work>
    </rdf:RDF>
  </metadata>
  <defs
     id="defs1154" />
  <g
     transform="matrix(1.4025491,0,0,1.4025491,28.829229,18.239195)"
     id="surface125358">
    <path
       id="path1147"
       d="m 134.8125,86.394531 c -0.0234,0.08594 -0.0859,0.1875 -0.20313,0.296875 -0.23828,0.222656 -0.6914,0.414063 -1.18359,0.515625 -1.00781,0.203125 -2.17969,0.109375 -3.27734,-0.179687 -1.10547,-0.292969 -2.17188,-0.792969 -3.10938,-1.472656 -0.82422,-0.605469 -1.57422,-1.316407 -2.11328,-2.136719 0.8086,-0.25 1.61328,-0.460938 2.41797,-0.617188 1.125,-0.214843 2.25391,-0.316406 3.25781,-0.1875 0.50391,0.06641 0.96875,0.1875 1.37891,0.375 0.42969,0.195313 0.71875,0.417969 1.18359,0.832031 0.41797,0.375 0.80469,0.773438 1.10547,1.171876 0.30469,0.394531 0.50781,0.8125 0.55078,1.085937 0.0195,0.140625 0.0156,0.230469 -0.008,0.316406 M 96.726562,115.37109 c -0.07031,0.32422 -0.226562,0.67579 -0.445312,1.03125 -0.222656,0.35547 -0.507812,0.71094 -0.832031,1.05469 -0.136719,0.14453 -0.296875,0.28906 -0.464844,0.4336 -0.167969,0.13671 -0.339844,0.26171 -0.515625,0.3789 -0.707031,0.45313 -1.488281,0.6875 -2.28125,0.64063 -0.792969,-0.0391 -1.601562,-0.36719 -2.21875,-0.91016 -0.621094,-0.53125 -1.003906,-1.28906 -0.933594,-1.87109 0.02734,-0.29297 0.152344,-0.56641 0.402344,-0.83203 0.246094,-0.26172 0.613281,-0.4961 1.035156,-0.67188 0.421875,-0.17969 0.898438,-0.30859 1.390625,-0.40234 0.265625,-0.0508 0.457031,-0.0703 0.710938,-0.0859 0.242187,-0.0195 0.488281,-0.0195 0.734375,-0.0117 0.996094,0.043 2.023437,0.26953 3.035156,0.58594 0.148438,0.0469 0.296875,0.0977 0.441406,0.14844 0,0.16406 -0.01563,0.33593 -0.05859,0.51171 M 39.3125,112.19141 c 0.175781,0.46484 0.25,0.94531 0.1875,1.3789 -0.05859,0.4336 -0.257812,0.82813 -0.558594,1.17188 -0.296875,0.33984 -0.699218,0.6289 -1.144531,0.86719 -0.445313,0.23437 -0.949219,0.44531 -1.40625,0.55078 -0.933594,0.22656 -1.804687,0.0508 -2.5,-0.48828 -0.703125,-0.53516 -1.222656,-1.39844 -1.539063,-2.33204 -0.316406,-0.9414 -0.441406,-1.96484 -0.367187,-2.94531 0.07031,-0.98047 0.351563,-1.92187 0.832031,-2.6289 0.144532,-0.21485 0.308594,-0.40235 0.484375,-0.56641 1.523438,0.57422 2.945313,1.39453 4.132813,2.45312 0.8125,0.73047 1.523437,1.59766 1.878906,2.53907 M 15.765625,87.0625 c -0.203125,0.179688 -0.417969,0.34375 -0.648437,0.515625 -0.460938,0.34375 -0.941407,0.664063 -1.4375,0.960937 -0.984376,0.589844 -2.027344,1.097657 -3.09375,1.480469 -0.53125,0.191407 -1.070313,0.351563 -1.597657,0.460938 C 8.460938,90.59375 7.929688,90.652344 7.492188,90.621094 7.273438,90.605469 7.082031,90.5625 6.976562,90.511719 6.863281,90.457031 6.871094,90.425781 6.894531,90.4375 c 0.023438,0.01563 0.00391,-0.02344 0.019531,-0.160156 0.015626,-0.132813 0.0625,-0.328125 0.140626,-0.53125 0.320312,-0.851563 0.988281,-1.816406 1.671874,-2.679688 0.554688,-0.699218 1.269532,-1.113281 2.167969,-1.292968 0.898438,-0.179688 1.945313,-0.121094 3,0.07031 0.808594,0.144531 1.632813,0.367188 2.453125,0.636719 -0.0039,0.0039 -0.0078,0.0078 -0.01172,0.01172 -0.171876,0.199218 -0.363282,0.390624 -0.570313,0.570312 M 37.453125,70.5 c 1.054687,-0.683594 2.207031,-1.25 3.355469,-1.574219 1.148437,-0.328125 2.308594,-0.367187 3.085937,0.07031 0.394531,0.210937 0.722657,0.546875 0.980469,0.996094 0.128906,0.226562 0.238281,0.476562 0.332031,0.742187 0.04687,0.136719 0.08984,0.269531 0.125,0.417969 l 0.04297,0.195312 c 0.01563,0.0625 0.02734,0.128906 0.03906,0.195313 0.08203,0.523437 0.03125,0.972656 -0.148437,1.28125 -0.171875,0.3125 -0.507813,0.566406 -1,0.71875 -0.480469,0.152343 -1.066406,0.195312 -1.65625,0.152343 -0.59375,-0.04297 -1.199219,-0.167968 -1.792969,-0.351562 C 39.332031,72.875 37.921875,72.046875 36.800781,70.953125 37.015625,70.796875 37.230469,70.644531 37.453125,70.5 m 64.347655,1.125 c -0.19922,0.08594 -0.38281,0.125 -0.52734,0.121094 -0.14844,-0.0039 -0.25781,-0.03516 -0.38281,-0.109375 -0.25,-0.140625 -0.54297,-0.503907 -0.76954,-0.96875 -0.11718,-0.230469 -0.191402,-0.445313 -0.218746,-0.601563 -0.01172,-0.07813 -0.01172,-0.136718 -0.0078,-0.164062 0.01172,-0.02344 0.01563,-0.01563 0.01563,0 -0.0039,0.01953 -0.01563,0.03125 0,0.02734 0.01563,-0.0078 0.05469,-0.03125 0.117186,-0.05469 0.125,-0.04687 0.33594,-0.09375 0.56641,-0.109375 0.47266,-0.04297 1.03125,0.0039 1.58203,0.09766 0.4375,0.07422 0.87891,0.183594 1.3125,0.316407 -0.14844,0.1875 -0.30469,0.367187 -0.46484,0.535156 -0.38672,0.402344 -0.82031,0.738281 -1.22266,0.910156 m 35.53906,14.25 c -0.0703,-0.992188 -0.45703,-1.738281 -0.85156,-2.382812 -0.41016,-0.644532 -0.87109,-1.1875 -1.35156,-1.695313 -0.25,-0.253906 -0.46485,-0.484375 -0.80469,-0.761719 -0.32031,-0.257812 -0.66406,-0.484375 -1.02344,-0.675781 -0.71484,-0.378906 -1.47265,-0.617187 -2.21093,-0.753906 -1.49219,-0.273438 -2.91407,-0.199219 -4.26953,-0.01953 -0.90235,0.128906 -1.77735,0.304687 -2.64063,0.515624 0.0195,-0.101562 0.0312,-0.195312 0.0547,-0.292968 0.2539,-1.121094 0.88672,-2.175782 1.67187,-3.101563 0.78516,-0.933593 1.72657,-1.75 2.74219,-2.46875 2.02734,-1.441406 4.33594,-2.523437 6.75781,-3.226562 -2.46875,0.527343 -4.87109,1.449219 -7.05859,2.769531 -1.08984,0.667969 -2.13281,1.441406 -3.04688,2.375 -0.90234,0.933594 -1.70312,2.042969 -2.11328,3.367188 -0.0898,0.289062 -0.14843,0.582031 -0.19531,0.882812 -1.30469,0.367188 -2.57422,0.800781 -3.82422,1.253906 -2.43359,0.894532 -4.78515,1.90625 -7.10937,2.925782 -2.32032,1.015624 -4.61328,2.066406 -6.875,2.96875 -0.5625,0.222656 -1.125,0.4375 -1.67578,0.625 l -0.41016,0.136718 -0.19141,0.05859 -0.11328,0.03516 -0.0547,0.01953 c -0.0742,0.02344 0.0703,-0.02344 0.0469,-0.01563 l -0.0273,0.0039 c -0.28125,0.07813 -0.5625,0.148437 -0.84375,0.214843 -1.12891,0.265626 -2.25782,0.453126 -3.375007,0.535157 -2.234375,0.179687 -4.40625,-0.05859 -6.355469,-0.792969 -1.949218,-0.726562 -3.671875,-1.945312 -5.125,-3.523438 C 85.875,83.5625 84.867188,82.042969 84.011719,80.40625 c 0.589843,0.5 1.207031,0.953125 1.828125,1.363281 1.214844,0.800781 2.472656,1.449219 3.738281,2.007813 l 0.238281,0.101562 0.113282,0.05078 0.02734,0.01172 0.05859,0.01953 0.140625,0.05469 c 0.222656,0.08203 0.394531,0.136719 0.59375,0.199219 0.386719,0.117187 0.761719,0.207031 1.136719,0.285156 0.746093,0.152344 1.476562,0.238281 2.199219,0.289062 1.441406,0.09375 2.851562,0.03906 4.242187,-0.125 1.394531,-0.167968 2.765622,-0.441406 4.121092,-0.855468 1.35156,-0.414063 2.6875,-0.953125 3.96094,-1.722656 1.26172,-0.765626 2.5039,-1.777344 3.38672,-3.207032 0.4375,-0.714844 0.76562,-1.527344 0.91406,-2.371094 0.15625,-0.84375 0.14062,-1.699218 0.004,-2.492187 -0.14062,-0.796875 -0.39453,-1.535156 -0.70312,-2.21875 -0.15625,-0.339844 -0.32813,-0.667969 -0.50781,-0.980469 l -0.2461,-0.410156 c 0.0469,0.07422 -0.082,-0.132812 -0.0742,-0.117188 l -0.0195,-0.02734 c -0.16015,-0.222657 -0.32031,-0.398438 -0.48828,-0.558594 -0.66015,-0.632813 -1.33203,-1 -2.0039,-1.324219 -0.043,-0.01953 -0.0898,-0.03906 -0.13672,-0.05859 0.21484,-0.640624 0.36718,-1.308593 0.4414,-2.007812 0.0352,-0.363281 0.043,-0.734375 0.004,-1.121094 -0.008,-0.09766 -0.0195,-0.195312 -0.0391,-0.292968 l -0.0195,-0.109376 -0.0156,-0.05469 -0.0273,-0.117187 c -0.043,-0.175782 -0.0977,-0.355469 -0.15235,-0.519532 -0.21875,-0.675781 -0.53515,-1.3125 -0.90234,-1.894531 -0.73828,-1.171875 -1.66406,-2.125 -2.53516,-3.058594 -0.875,-0.933593 -1.71875,-1.855469 -2.33593,-2.914062 -0.3125,-0.527344 -0.5625,-1.082031 -0.7461,-1.667969 -0.043,-0.144531 -0.0859,-0.289062 -0.12109,-0.441406 l -0.109375,-0.460938 c -0.0625,-0.296875 -0.117187,-0.605468 -0.152343,-0.914062 -0.15625,-1.234375 -0.113281,-2.511719 0.171875,-3.730469 0.292963,-1.210937 0.843743,-2.394531 1.777343,-3.246094 0.46484,-0.421875 1.01562,-0.75 1.62109,-0.949219 0.60156,-0.199218 1.2461,-0.277343 1.88672,-0.257812 -0.63672,-0.05859 -1.29297,-0.01953 -1.92187,0.148438 -0.62891,0.167968 -1.22657,0.46875 -1.73829,0.882812 -1.03125,0.835938 -1.687493,2.046875 -2.070306,3.300781 -0.378906,1.265625 -0.503906,2.597657 -0.417969,3.917969 0.01953,0.328125 0.05859,0.65625 0.109376,0.988281 l 0.08203,0.484375 c 0.02734,0.164063 0.06641,0.332032 0.105469,0.496094 0.160156,0.65625 0.402343,1.292969 0.71094,1.890625 1.23828,2.421875 3.34765,4.132813 4.49218,6.234375 0.28516,0.523438 0.51172,1.0625 0.65625,1.621094 0.0391,0.140625 0.0664,0.273437 0.0937,0.410156 l 0.0234,0.117188 0.008,0.0625 c -0.0117,-0.0625 0,-0.0078 -0.004,-0.01563 l 0.004,0.02344 c 0.008,0.0625 0.0117,0.125 0.0156,0.1875 0.008,0.253906 -0.0117,0.527344 -0.0547,0.800781 -0.0898,0.539063 -0.25,1.078125 -0.46094,1.605469 -0.0937,-0.02734 -0.18359,-0.05469 -0.27734,-0.07813 -0.68359,-0.191406 -1.38281,-0.328125 -2.10156,-0.40625 -0.71875,-0.07813 -1.45313,-0.109375 -2.25782,0.0078 -0.406244,0.06641 -0.828119,0.160156 -1.289057,0.378906 -0.230469,0.109375 -0.46875,0.257812 -0.695312,0.460937 -0.226563,0.203125 -0.4375,0.476563 -0.578125,0.785157 -0.140625,0.308593 -0.203125,0.636718 -0.210938,0.929687 -0.0078,0.296875 0.03125,0.558594 0.08984,0.796875 0.121094,0.46875 0.308594,0.847656 0.5,1.175781 0.191406,0.335938 0.417969,0.667969 0.707031,0.984375 0.289063,0.316406 0.648438,0.621094 1.097657,0.839844 0.445314,0.21875 0.984374,0.324219 1.480474,0.285156 0.5,-0.03516 0.9414,-0.1875 1.32031,-0.378906 0.75781,-0.394531 1.30469,-0.921875 1.77734,-1.46875 0.3086,-0.355469 0.57422,-0.730469 0.82032,-1.113281 0.0273,0.01563 0.0547,0.02734 0.082,0.04297 0.47265,0.257812 0.91406,0.566406 1.16015,0.847656 0.0391,0.04687 0.0742,0.08984 0.0977,0.128906 0.004,0 0.004,0.0039 0.004,0.0039 l 0.0273,0.04687 0.0469,0.09375 0.0977,0.1875 c 0.12109,0.25 0.23438,0.5 0.32813,0.75 0.1914,0.5 0.32421,0.996094 0.375,1.472657 0.10546,0.957031 -0.10938,1.777343 -0.62891,2.511718 -0.51953,0.734375 -1.34766,1.375 -2.30469,1.875 -0.96094,0.5 -2.05078,0.875 -3.17187,1.144532 -1.125,0.269531 -2.292974,0.433593 -3.457037,0.503906 -1.167969,0.06641 -2.335937,0.03516 -3.453125,-0.105469 -0.558594,-0.07422 -1.101562,-0.175781 -1.605469,-0.3125 -0.253906,-0.06641 -0.496093,-0.140625 -0.722656,-0.226563 -0.105469,-0.03906 -0.234375,-0.09375 -0.308594,-0.128906 l -0.08203,-0.03516 -0.05859,-0.02344 -0.02344,-0.01172 c -0.03125,-0.01563 0.144531,0.0625 0.05859,0.02344 L 91.558594,79.605469 C 89.457031,78.523438 87.542969,77.1875 86.320312,75.589844 85.089844,73.996094 84.625,72.222656 84.789062,70.179688 c 0.160157,-2.042969 0.914063,-4.257813 1.859376,-6.476563 0.949218,-2.230469 2.101562,-4.484375 3.230468,-6.847656 0.105469,-0.21875 0.210938,-0.441407 0.316406,-0.664063 2.515626,-4.222656 3.988282,-9.308594 3.988282,-14.785156 0,-14.636719 -10.511719,-24.136719 -23.476563,-24.136719 -12.96875,0 -23.480469,9.5 -23.480469,24.136719 0,3.167969 0.496094,6.207031 1.398438,9.027344 0.01953,0.07031 0.03906,0.140625 0.0625,0.214844 0.882812,2.933593 2.066406,5.558593 3.230469,8.09375 1.167969,2.53125 2.351562,4.960937 3.300781,7.367187 0.472656,1.199219 0.886719,2.386719 1.179688,3.550781 0.296874,1.160156 0.46875,2.296875 0.449218,3.335938 -0.01953,1.042968 -0.226562,1.976562 -0.652344,2.828125 -0.425781,0.847656 -1.089843,1.632812 -1.949218,2.328125 -0.859375,0.699218 -1.898438,1.300781 -3.019532,1.820312 -1.136718,0.519532 -2.285156,0.945313 -3.484374,1.253906 -2.390626,0.617188 -4.945313,0.8125 -7.375,0.488282 -1.207032,-0.167969 -2.386719,-0.46875 -3.429688,-0.941406 -1.042969,-0.46875 -1.933594,-1.117188 -2.492188,-1.910157 -0.566406,-0.789062 -0.804687,-1.738281 -0.703124,-2.816406 0.05078,-0.53125 0.183593,-1.089844 0.375,-1.644531 0.09766,-0.277344 0.210937,-0.554688 0.335937,-0.832032 0.0625,-0.136718 0.128906,-0.277343 0.199219,-0.414062 l 0.105468,-0.207031 0.05469,-0.101563 0.02344,-0.04297 c 0.105468,-0.164063 0.28125,-0.375 0.46875,-0.570313 0.03516,-0.03906 0.07812,-0.07813 0.113281,-0.117187 0.292969,0.3125 0.59375,0.605468 0.917969,0.878906 1.132812,0.972656 2.4375,1.726562 3.859374,2.222656 0.710938,0.246094 1.453126,0.429688 2.230469,0.511719 0.773438,0.07813 1.589844,0.06641 2.429688,-0.160157 0.417969,-0.113281 0.84375,-0.289062 1.246093,-0.558593 0.398438,-0.265625 0.765626,-0.628907 1.03125,-1.0625 0.265626,-0.429688 0.425782,-0.914063 0.496094,-1.375 0.07031,-0.464844 0.05859,-0.910157 0.01172,-1.332031 -0.01563,-0.105469 -0.02734,-0.210938 -0.04687,-0.3125 -0.01563,-0.09766 -0.04297,-0.230469 -0.0625,-0.308594 -0.03906,-0.1875 -0.09375,-0.386719 -0.148438,-0.578125 -0.117187,-0.386719 -0.265624,-0.773438 -0.464843,-1.15625 -0.386719,-0.757813 -1.007813,-1.492188 -1.808594,-1.96875 -0.796875,-0.484375 -1.699219,-0.695313 -2.535156,-0.734375 -0.84375,-0.03906 -1.644531,0.07031 -2.398438,0.25 -1.515625,0.363281 -2.878906,0.988281 -4.160156,1.742187 -0.292969,0.171875 -0.582031,0.355469 -0.867187,0.546875 0,0 -0.0039,-0.0039 -0.0039,-0.0078 -0.566406,-1.101563 -0.839843,-2.351563 -0.84375,-3.597656 0,-0.609376 0.08594,-1.191407 0.324219,-1.679688 0.230469,-0.488281 0.621094,-0.882812 1.140625,-1.207031 C 36.804688,61.570312 38.214844,61.25 39.46875,60.414062 40.097656,60 40.65625,59.410156 40.992188,58.722656 c 0.171874,-0.34375 0.289062,-0.691406 0.378906,-1.070312 0.08203,-0.367188 0.09375,-0.765625 0.05078,-1.140625 -0.08203,-0.75 -0.367187,-1.445313 -0.769531,-2.050781 -0.398438,-0.601563 -0.925782,-1.117188 -1.539063,-1.488282 -0.609375,-0.371094 -1.3125,-0.589844 -2.015625,-0.617187 -0.703125,-0.02734 -1.394531,0.128906 -2.023437,0.40625 0.648437,-0.222657 1.34375,-0.316407 2.011719,-0.230469 0.667968,0.08203 1.300781,0.34375 1.832031,0.734375 1.0625,0.777344 1.765625,2.046875 1.804687,3.296875 0.02344,0.617188 -0.183594,1.214844 -0.488281,1.753906 -0.308594,0.527344 -0.757813,0.941406 -1.296875,1.253906 -0.539062,0.3125 -1.15625,0.53125 -1.804688,0.75 -0.644531,0.222657 -1.328124,0.441407 -2.003906,0.800782 -0.675781,0.351562 -1.34375,0.914062 -1.753906,1.648437 -0.417969,0.730469 -0.578125,1.539063 -0.628906,2.296875 -0.08203,1.503906 0.222656,3.019532 0.859375,4.390625 0.05078,0.109375 0.105469,0.210938 0.160156,0.316407 -0.164063,0.140624 -0.324219,0.285156 -0.484375,0.441406 -0.289062,0.28125 -0.570312,0.574218 -0.855469,0.976562 l -0.01953,0.02344 c 0.04297,-0.0625 -0.07422,0.117187 -0.07031,0.113281 l -0.03516,0.05859 -0.07813,0.121093 -0.144525,0.24219 c -0.09375,0.164062 -0.1875,0.332031 -0.277344,0.5 -0.179687,0.339844 -0.347656,0.6875 -0.503906,1.050781 -0.304687,0.722657 -0.550781,1.5 -0.683594,2.328125 -0.136719,0.824219 -0.152343,1.710938 0.0078,2.589844 0.152344,0.875 0.480468,1.738281 0.949218,2.496094 0.933594,1.527344 2.3125,2.601562 3.722657,3.351562 1.417969,0.753906 2.910156,1.226563 4.40625,1.53125 2.996093,0.59375 6.035156,0.546875 9.007812,-0.01563 0.746094,-0.140625 1.484375,-0.320312 2.214844,-0.535156 l 0.539063,-0.164063 0.542968,-0.179687 c 0.351563,-0.121094 0.707032,-0.25 1.058594,-0.386719 1.410156,-0.554687 2.820312,-1.246094 4.164062,-2.199218 0.519532,-0.371094 1.03125,-0.792969 1.519532,-1.257813 -0.1875,0.5 -0.382813,0.992187 -0.59375,1.476563 -0.863282,2.011718 -1.929688,3.902343 -3.234375,5.515624 -1.304688,1.617188 -2.855469,2.941407 -4.625,3.832032 -1.769531,0.894531 -3.769531,1.34375 -5.867188,1.382812 -1.050781,0.01563 -2.121093,-0.0625 -3.199219,-0.226562 -0.539062,-0.08203 -1.078124,-0.183594 -1.617187,-0.304688 -0.269531,-0.05859 -0.539063,-0.125 -0.808594,-0.191406 l -0.203125,-0.05469 -0.09766,-0.02344 -0.02734,-0.0078 c -0.07813,-0.02344 0.07813,0.02344 0.05078,0.01563 l -0.05469,-0.01563 -0.375,-0.121093 c -1.011719,-0.339844 -2.078125,-0.796875 -3.140625,-1.277344 -1.066406,-0.488281 -2.140625,-1.003906 -3.21875,-1.53125 -2.160156,-1.050781 -4.34375,-2.132813 -6.578125,-3.152344 -2.214844,-1 -4.476562,-1.953125 -6.878906,-2.691406 -0.0078,-0.01953 -0.01172,-0.04297 -0.01953,-0.06641 -0.1875,-0.652344 -0.496093,-1.234375 -0.851562,-1.761719 -0.355469,-0.53125 -0.753906,-1.007812 -1.167969,-1.464844 -0.820312,-0.910156 -1.734375,-1.710937 -2.480469,-2.621094 -0.183593,-0.230468 -0.351562,-0.472656 -0.457031,-0.730468 -0.105469,-0.257813 -0.128906,-0.539063 0.01953,-0.773438 0.144532,-0.234375 0.402344,-0.402344 0.664063,-0.535156 0.269531,-0.132812 0.554687,-0.230469 0.84375,-0.316406 -0.296875,0.05859 -0.589844,0.125 -0.878906,0.234375 -0.28125,0.109375 -0.574219,0.25 -0.777344,0.515625 -0.214844,0.269531 -0.222656,0.65625 -0.125,0.964844 0.08984,0.308593 0.25,0.585937 0.414063,0.847656 0.6875,1.035156 1.519531,1.917968 2.222656,2.875 0.582031,0.789062 1.113281,1.628906 1.386718,2.496094 -0.871093,-0.226563 -1.765624,-0.414063 -2.691406,-0.535157 -1.324218,-0.160156 -2.738281,-0.199219 -4.195312,0.175781 -0.726563,0.1875 -1.457032,0.492188 -2.109375,0.933594 -0.660157,0.4375 -1.226563,1.011719 -1.664063,1.636719 -0.367187,0.539063 -0.703125,1.082031 -1.023437,1.671875 -0.3125,0.589844 -0.605469,1.207031 -0.816407,1.941406 -0.101562,0.371094 -0.183593,0.769532 -0.183593,1.242188 -0.00391,0.460937 0.09375,1.046875 0.449219,1.566406 0.171874,0.257812 0.398437,0.476562 0.632812,0.636719 0.238281,0.164062 0.484375,0.273437 0.710938,0.347656 0.464843,0.148437 0.878906,0.179687 1.265624,0.175781 0.769532,-0.01172 1.4375,-0.160156 2.078126,-0.34375 0.640624,-0.1875 1.246093,-0.421875 1.832031,-0.683594 1.171875,-0.527343 2.265625,-1.171874 3.296875,-1.902343 0.511718,-0.363281 1.011718,-0.757813 1.484375,-1.171875 0.476562,-0.421875 0.953125,-0.910156 1.339843,-1.460938 0.09375,-0.128906 0.179688,-0.261718 0.261719,-0.398437 1.929688,0.746093 3.839844,1.671875 5.734375,2.652343 2.101563,1.09375 4.1875,2.273438 6.308594,3.449219 1.058594,0.589844 2.128906,1.179688 3.230469,1.75 1.109375,0.574219 2.230469,1.136719 3.484375,1.636719 l 0.476562,0.183594 0.05469,0.01953 0.132812,0.04297 0.117188,0.03516 0.230468,0.07422 c 0.3125,0.09766 0.621094,0.195312 0.9375,0.28125 0.628907,0.179687 1.269532,0.335937 1.917969,0.472656 1.296875,0.269531 2.632813,0.449219 3.996094,0.5 1.363281,0.05078 2.757813,-0.03125 4.140625,-0.269531 1.382812,-0.242188 2.753906,-0.648438 4.058594,-1.214844 2.621094,-1.132812 4.914062,-2.910156 6.753906,-4.949219 1.847656,-2.042969 3.289062,-4.335937 4.460938,-6.691406 1.097656,-2.210937 1.960937,-4.484375 2.667968,-6.785156 -0.0078,0.226562 -0.01953,0.453125 -0.02734,0.683593 -0.07812,2.316407 -0.136718,4.597657 -0.261718,6.835938 -0.128906,2.238281 -0.320313,4.4375 -0.683594,6.550781 -0.359375,2.109375 -0.894531,4.140625 -1.734375,5.921875 -0.839844,1.777344 -1.996094,3.27343 -3.523437,4.3164 -0.382813,0.26563 -0.789063,0.5 -1.210938,0.71094 -0.07422,0.0391 -0.335938,0.14063 -0.539062,0.20703 -0.210938,0.0742 -0.433594,0.14063 -0.65625,0.19922 -0.90625,0.22656 -1.902344,0.32813 -2.941407,0.34766 -2.082031,0.0312 -4.304687,-0.26563 -6.566406,-0.58985 -2.269531,-0.32031 -4.601563,-0.69531 -7.035156,-0.82031 -1.214844,-0.0586 -2.460938,-0.0547 -3.722657,0.0937 -1.261718,0.14453 -2.546874,0.44141 -3.769531,0.96875 -0.304687,0.12891 -0.601562,0.27344 -0.894531,0.43359 l -0.21875,0.1211 -0.08594,0.0508 -0.04687,0.0273 -0.105469,0.0703 c -0.191407,0.11718 -0.324219,0.22265 -0.480469,0.34375 -0.5,0.40234 -0.917969,0.88281 -1.253906,1.39843 -2.03125,-0.18359 -4.105469,0.0898 -5.933594,0.94532 1.824219,-0.69922 3.800781,-0.82813 5.691406,-0.54297 -0.679687,1.24609 -0.929687,2.58593 -0.933594,3.87109 0,1.32031 0.253907,2.61328 0.761719,3.82813 0.511719,1.20312 1.289063,2.37109 2.492188,3.16406 0.59375,0.39062 1.296875,0.65625 2.019531,0.74219 0.71875,0.0859 1.433594,-0.008 2.078125,-0.21094 0.320313,-0.0977 0.640625,-0.23438 0.914063,-0.36719 0.289062,-0.14062 0.570312,-0.29297 0.84375,-0.46484 0.542968,-0.34766 1.070312,-0.77344 1.492187,-1.33203 0.421875,-0.55469 0.710937,-1.25782 0.75,-1.97657 0.05078,-0.71484 -0.128906,-1.39843 -0.402344,-1.98828 -0.558593,-1.1875 -1.441406,-2.07812 -2.386719,-2.82031 -1.253906,-0.95703 -2.652343,-1.66797 -4.117187,-2.15234 0.261719,-0.13672 0.605469,-0.28516 0.917969,-0.39844 1.84375,-0.66406 3.972656,-0.67969 6.128906,-0.44141 2.167969,0.23828 4.375,0.72266 6.644531,1.1875 2.273438,0.46094 4.617188,0.9375 7.148438,1.0586 1.261719,0.0547 2.582031,0.0156 3.933593,-0.23829 0.335938,-0.0625 0.675782,-0.14062 1.015626,-0.23437 0.347656,-0.0977 0.632812,-0.17578 1.09375,-0.35938 0.625,-0.26171 1.246093,-0.5625 1.835937,-0.91406 1.191406,-0.70312 2.28125,-1.58984 3.210937,-2.60156 0.9375,-1.00781 1.714844,-2.125 2.359376,-3.27734 1.289062,-2.316407 2.078124,-4.750001 2.660156,-7.144532 0.574218,-2.402344 0.9375,-4.785156 1.230468,-7.136719 0.05859,-0.46875 0.113282,-0.933594 0.164063,-1.402344 l 0.02344,0.195313 0.07813,0.609375 0.08203,0.417969 0.105469,0.503906 c 0.07422,0.3125 0.152343,0.625 0.234374,0.933594 0.339844,1.234374 0.78125,2.417968 1.296876,3.550781 1.027343,2.261719 2.335937,4.308593 3.785156,6.1875 1.449218,1.882812 3.046875,3.597657 4.734375,5.187497 1.691406,1.59375 3.46875,3.05859 5.328125,4.41406 0.941406,0.69922 1.914062,1.31641 2.824218,1.91406 0.914063,0.60157 1.800782,1.1875 2.625,1.80079 0.820313,0.61328 1.585938,1.2539 2.195313,1.92578 0.15625,0.17187 0.300781,0.34765 0.433594,0.52343 -0.824219,-0.28515 -1.683594,-0.51171 -2.589844,-0.61718 -0.300781,-0.0352 -0.609375,-0.0547 -0.917969,-0.0625 -0.292968,-0.004 -0.65625,0.0117 -0.9375,0.0469 -0.597656,0.0664 -1.207031,0.17578 -1.820312,0.38281 -0.609375,0.20313 -1.234375,0.50391 -1.796875,0.9961 -0.558594,0.48047 -1.023438,1.20703 -1.171875,2.01172 -0.15625,0.79687 -0.02344,1.59765 0.246094,2.27343 0.277343,0.6836 0.683593,1.27344 1.167968,1.77344 0.96875,0.99219 2.265625,1.65625 3.667969,1.85156 1.40625,0.20313 2.875,-0.125 4.074219,-0.77734 0.300781,-0.16016 0.589844,-0.33984 0.863281,-0.53125 0.269531,-0.19141 0.535156,-0.40234 0.800781,-0.63672 0.464844,-0.42578 0.917969,-0.89453 1.328125,-1.44922 0.40625,-0.55078 0.773438,-1.1875 1.011719,-1.92187 0.02344,-0.0703 0.04688,-0.14063 0.06641,-0.21094 0.80078,0.33594 1.60547,0.67578 2.42578,0.99219 1.04297,0.40234 2.11328,0.76953 3.22265,1.00781 1.10938,0.23828 2.27344,0.33594 3.40625,0.14063 1.13282,-0.1836 2.19922,-0.69141 3.07032,-1.39844 0.875,-0.70313 1.57812,-1.58203 2.16797,-2.51172 -0.66016,0.88281 -1.42188,1.69531 -2.32032,2.3125 -0.89062,0.61719 -1.92187,1.01172 -2.98437,1.10156 -1.0586,0.10156 -2.12891,-0.0703 -3.15235,-0.375 -1.03125,-0.30078 -2.02734,-0.73047 -3.01171,-1.19922 -0.875,-0.41406 -1.73829,-0.86328 -2.61329,-1.30859 0.0156,-0.30078 0.0117,-0.59766 -0.0195,-0.89063 -0.082,-0.79296 -0.320406,-1.53125 -0.629,-2.17578 -0.3125,-0.64843 -0.6875,-1.21875 -1.085937,-1.73828 -0.800781,-1.03125 -1.683594,-1.875 -2.574219,-2.65234 -1.777344,-1.54297 -3.640625,-2.82031 -5.203125,-4.14844 -1.62109,-1.35937 -3.160152,-2.81641 -4.582027,-4.355465 -1.4257,-1.535156 -2.734293,-3.160156 -3.871012,-4.859375 -1.132812,-1.695312 -2.089844,-3.472656 -2.765625,-5.28125 -0.339844,-0.90625 -0.605469,-1.820312 -0.789063,-2.730468 -0.04687,-0.226563 -0.08594,-0.453126 -0.121093,-0.679688 l -0.04297,-0.308594 -0.05078,-0.402344 c -0.0039,-0.04297 0.03906,0.277344 0.01953,0.128907 l -0.0039,-0.02344 v -0.04297 l -0.0078,-0.08984 -0.01172,-0.1875 -0.01953,-0.375 -0.03516,-0.769531 c -0.0039,-0.128907 -0.0039,-0.261719 -0.0078,-0.390626 1.21875,2.128907 2.695313,4.175782 4.535157,5.960938 1.042969,1.007812 2.203125,1.929688 3.464843,2.703125 1.265626,0.773437 2.628907,1.402344 4.046876,1.835937 2.839843,0.894532 5.8125,1.007813 8.585937,0.632813 1.390628,-0.183594 2.742188,-0.488281 4.050788,-0.875 0.32812,-0.09375 0.65234,-0.195313 0.97657,-0.300781 l 0.13281,-0.04297 0.0547,-0.02344 0.10937,-0.03906 0.25391,-0.09766 0.48047,-0.1875 c 0.62891,-0.253907 1.23437,-0.523438 1.82812,-0.796875 2.3711,-1.101563 4.60156,-2.277344 6.84375,-3.410156 2.23829,-1.128907 4.46875,-2.230469 6.72266,-3.203126 1.01563,-0.433593 2.03906,-0.847656 3.0625,-1.210937 0.59375,1.183594 1.47656,2.152344 2.43359,2.972656 1.03906,0.890625 2.24609,1.578125 3.54687,2.035157 1.30469,0.449218 2.69922,0.707031 4.1914,0.539062 0.7461,-0.09766 1.53907,-0.289062 2.30469,-0.839844 0.37891,-0.277344 0.74219,-0.667968 0.97656,-1.160156 0.23829,-0.488281 0.32032,-1.042969 0.29297,-1.53125"
       style="fill:#0f0f0c;fill-opacity:1;fill-rule:nonzero;stroke:none" />
  </g>
  <circle
     r="98.373962"
     cy="126.23921"
     cx="127.94091"
     id="path1701"
     style="opacity:1;fill:none;fill-opacity:1;stroke:#000000;stroke-width:1.6772846;stroke-miterlimit:4;stroke-dasharray:none;stroke-opacity:1" />
  <text
     id="text1705"
     y="240.70766"
     x="105.94627"
     style="font-style:normal;font-weight:normal;font-size:10px;line-height:1.25;font-family:sans-serif;letter-spacing:0px;word-spacing:0px;fill:#000000;fill-opacity:1;stroke:none;stroke-width:0.75"
     xml:space="preserve"><tspan
       style="stroke-width:0.75"
       y="240.70766"
       x="105.94627"
       id="tspan1703">70.00mm</tspan></text>
</svg>
