<?xml version="1.0" encoding="UTF-8" standalone="no"?>
<!-- Created with Inkscape (http://www.inkscape.org/) -->

<svg
   xmlns:dc="http://purl.org/dc/elements/1.1/"
   xmlns:cc="http://creativecommons.org/ns#"
   xmlns:rdf="http://www.w3.org/1999/02/22-rdf-syntax-ns#"
   xmlns:svg="http://www.w3.org/2000/svg"
   xmlns="http://www.w3.org/2000/svg"
   xmlns:sodipodi="http://sodipodi.sourceforge.net/DTD/sodipodi-0.dtd"
   xmlns:inkscape="http://www.inkscape.org/namespaces/inkscape"
   version="1.1"
   id="svg1727"
   width="60mm"
   height="60mm"
   viewBox="0 0 226.77166 226.77165"
   sodipodi:docname="45mm_cir.svg"
   inkscape:version="0.92.2 5c3e80d, 2017-08-06">
  <metadata
     id="metadata1733">
    <rdf:RDF>
      <cc:Work
         rdf:about="">
        <dc:format>image/svg+xml</dc:format>
        <dc:type
           rdf:resource="http://purl.org/dc/dcmitype/StillImage" />
        <dc:title></dc:title>
      </cc:Work>
    </rdf:RDF>
  </metadata>
  <defs
     id="defs1731" />
  <sodipodi:namedview
     pagecolor="#ffffff"
     bordercolor="#666666"
     borderopacity="1"
     objecttolerance="10"
     gridtolerance="10"
     guidetolerance="10"
     inkscape:pageopacity="0"
     inkscape:pageshadow="2"
     inkscape:window-width="1440"
     inkscape:window-height="805"
     id="namedview1729"
     showgrid="false"
     units="mm"
     inkscape:zoom="1.8645497"
     inkscape:cx="255.61804"
     inkscape:cy="156.95462"
     inkscape:window-x="0"
     inkscape:window-y="1"
     inkscape:window-maximized="1"
     inkscape:current-layer="svg1727" />
  <path
     style="fill:#000000;stroke-width:0.16004947"
     d="m 112.0211,181.51803 c -0.99657,-0.54158 -0.94132,0.79448 -0.94132,-22.76252 v -21.43424 l 1.90005,-1.38864 c 1.04502,-0.76374 1.94529,-1.38862 2.00061,-1.38862 0.0553,0 0.10056,10.22946 0.10056,22.73216 0,24.69316 0.0471,23.40424 -0.88246,24.13545 -0.51653,0.4063 -1.53411,0.45604 -2.17746,0.10641 z m -13.089645,-9.72487 c -0.21159,-0.10874 -0.53569,-0.40104 -0.72023,-0.64957 l -0.33553,-0.45185 -0.08,-30.34925 -0.0801,-30.34926 -8.88275,-6.44339 c -4.8855,-3.54388 -8.97004,-6.413854 -9.07675,-6.377734 -0.10671,0.0361 -2.35831,1.66857 -5.00357,3.627664 -4.52843,3.35378 -4.79306,3.57742 -4.52744,3.82607 0.15515,0.14526 4.36936,3.27098 9.36491,6.94606 l 9.08281,6.68197 v 21.32548 21.32547 l -0.36596,0.54384 c -0.74125,1.1015 -2.43475,1.15448 -3.1871,0.0997 l -0.36816,-0.51616 -0.0419,-19.4187 c -0.023,-10.68029 -0.0995,-19.39498 -0.1699,-19.36598 -0.0704,0.029 -2.26622,1.63466 -4.8796,3.56817 l -4.75164,3.51545 v 10.74529 10.7453 l -0.36266,0.53814 c -0.76005,1.12785 -2.50514,1.18367 -3.16513,0.10127 -0.30122,-0.49404 -0.31222,-0.88342 -0.3128,-11.08117 l -3.7e-4,-10.56913 -3.7506,-2.77113 c -4.03232,-2.9793 -4.3829,-3.35068 -4.18066,-4.42869 0.0555,-0.29611 0.31987,-0.75725 0.58738,-1.02477 0.40734,-0.40734 0.6118,-0.48637 1.25833,-0.48637 0.74554,0 0.88613,0.0848 4.10896,2.47652 1.83535,1.36208 3.40903,2.47673 3.49705,2.477 0.22628,7.6e-4 9.92307,-7.17151 9.92307,-7.33955 0,-0.0761 -5.32965,-4.07945 -11.84366,-8.89641 -6.51401,-4.81696 -11.99882,-8.94097 -12.18846,-9.16448 -0.46136,-0.54376 -0.57825,-1.229164 -0.31548,-1.849914 0.32332,-0.7638 0.80416,-1.10813 1.66262,-1.19062 l 0.76552,-0.0736 2.87723,2.12778 c 1.58248,1.170294 2.98527,2.128134 3.11731,2.128564 0.1668,3.9e-4 9.2031,-6.559814 9.88598,-7.177234 0.0236,-0.0214 -4.7188,-3.55963 -10.53871,-7.86282 -6.52646,-4.8256 -10.66774,-7.99045 -10.80627,-8.25834 -0.48627,-0.94035 -0.1303,-2.1631 0.76444,-2.62579 1.11587,-0.57703 0.70237,-0.842 15.77487,10.10834 7.72507,5.61236 14.12262,10.26276 14.21675,10.33421 0.10381,0.0788 2.07954,-1.29125 5.02097,-3.48171 3.99241,-2.97312 4.811,-3.64708 4.63031,-3.81228 -0.1207,-0.11038 -7.20562,-5.33374 -15.74426,-11.60747 -8.53864,-6.27374 -15.79488,-11.68364 -16.12499,-12.02203 -0.51887,-0.53187 -0.60018,-0.71581 -0.60018,-1.35766 0,-0.63092 0.0817,-0.82414 0.54416,-1.28659 0.4562,-0.45619 0.65959,-0.54416 1.25807,-0.54416 0.84384,0 0.49422,-0.2237 6.04019,3.86471 2.33272,1.71966 4.39427,3.22175 4.58123,3.33799 0.31467,0.19565 0.7031,-0.055 5.23028,-3.37564 4.52232,-3.31704 4.87013,-3.60617 4.62161,-3.84181 -0.14781,-0.14015 -2.45594,-1.86229 -5.12918,-3.82697 -5.33268,-3.91922 -5.51399,-4.10481 -5.161,-5.28299 0.27883,-0.93065 0.85611,-1.35863 1.8318,-1.35804 l 0.82736,3.8e-4 23.232965,17.08478 c 12.77812,9.39665 23.27536,17.08481 23.32721,17.08481 0.0519,0 0.0946,-3.72715 0.095,-8.28256 l 7.6e-4,-8.28257 11.22075,-8.24254 c 13.42333,-9.86047 12.82508,-9.44292 13.52942,-9.44292 1.61941,0 2.5877,1.81869 1.59116,2.98865 -0.21194,0.24883 -2.587,2.07292 -5.2779,4.05353 -2.69091,1.98061 -4.89421,3.6448 -4.89628,3.69819 -0.004,0.10517 9.3626,7.00578 9.66897,7.12334 0.10226,0.0392 2.44003,-1.5873 5.19503,-3.61454 4.56434,-3.35862 5.06596,-3.6859 5.64928,-3.6859 0.81023,0 1.49591,0.40119 1.80733,1.05747 0.31649,0.66696 0.30554,1.15854 -0.0383,1.71618 -0.15728,0.25513 -7.26366,5.60239 -16.27168,12.24379 -8.79584,6.48497 -16.01295,11.86287 -16.03802,11.95089 -0.0526,0.18464 9.33113,7.22204 9.55147,7.16322 0.0804,-0.0215 6.45769,-4.62227 14.17183,-10.22401 7.71413,-5.60173 14.23346,-10.2634 14.48744,-10.35926 0.6174,-0.23305 1.6755,0.13705 2.12415,0.743 0.40376,0.54531 0.43358,1.50222 0.0644,2.0657 -0.14664,0.22379 -4.9851,3.89125 -10.75216,8.14993 -5.76706,4.25868 -10.46736,7.80781 -10.44513,7.88697 0.0712,0.25322 9.62026,7.286434 9.80785,7.223754 0.0992,-0.0331 1.28481,-0.86847 2.63468,-1.856314 3.07194,-2.24808 3.30569,-2.38906 3.96237,-2.38979 1.59086,-0.002 2.5415,1.9785 1.48633,3.096084 -0.17883,0.18942 -5.69044,4.30562 -12.24804,9.14711 -6.55758,4.84149 -11.90888,8.84997 -11.89173,8.90774 0.0773,0.2606 9.92874,7.35059 10.11451,7.2793 0.11495,-0.0441 1.65911,-1.16545 3.43145,-2.49188 3.09513,-2.31638 3.25245,-2.41167 3.98106,-2.41167 0.85827,0 1.35908,0.2816 1.71095,0.96206 0.30154,0.58308 0.30419,1.1688 0.008,1.74178 -0.13426,0.25965 -1.77767,1.60567 -3.91792,3.20894 l -3.68662,2.76166 -0.0433,10.71978 -0.0433,10.71978 -0.59784,0.54782 c -0.67012,0.61405 -1.40532,0.72025 -2.1872,0.31593 -1.0218,-0.52839 -0.97611,0.006 -0.97611,-11.42609 0,-5.71386 -0.045,-10.61398 -0.10005,-10.88916 -0.0867,-0.43361 -0.73544,-0.96978 -4.86529,-4.02125 -2.62086,-1.93649 -4.80767,-3.52091 -4.85958,-3.52091 -0.0519,0 -0.11322,8.782 -0.13627,19.51555 l -0.0419,19.51555 -0.45348,0.47329 c -0.83759,0.87422 -2.33251,0.78697 -3.01956,-0.17623 l -0.36814,-0.51617 -0.0423,-21.376 -0.0423,-21.37601 9.32515,-6.88076 c 5.12885,-3.78443 9.31665,-6.94918 9.30626,-7.03278 -0.0332,-0.26692 -9.66388,-7.309144 -9.86811,-7.215794 -0.10786,0.0493 -10.09917,7.277924 -22.20291,16.063614 l -22.00681,15.97399 -0.08,20.72335 c -0.0645,16.70725 -0.12078,20.79481 -0.2903,21.09203 -0.47574,0.8341 -1.736255,1.22046 -2.575175,0.78933 z m 7.586915,-50.83416 4.48139,-3.3281 0.041,-10.98946 c 0.0262,-6.999334 0.0978,-10.989454 0.19708,-10.989454 0.16194,0 2.85105,1.89734 3.48296,2.45745 l 0.36012,0.31919 v 8.053324 8.05332 l 4.63658,-3.31975 4.6366,-3.31975 -0.003,-8.562644 -0.003,-8.56265 -10.0208,-7.36228 c -5.51142,-4.04925 -10.58561,-7.77826 -11.27596,-8.28667 l -1.25519,-0.9244 v 25.05185 c 0,13.778524 0.054,25.048764 0.12003,25.044984 0.066,-0.004 2.13666,-1.50451 4.60143,-3.33496 z M 97.795675,98.679076 v -6.09573 l -0.61418,0.45398 c -3.81317,2.81864 -7.69637,5.75169 -7.69959,5.81565 -0.005,0.10045 8.03014,5.897744 8.19372,5.911634 0.066,0.005 0.12005,-2.73288 0.12005,-6.085534 z m 34.778485,3.130484 c 2.18036,-1.56429 3.94385,-2.901314 3.91888,-2.971164 -0.0683,-0.19091 -7.93841,-6.06731 -8.12581,-6.06731 -0.10663,0 -0.16216,2.06104 -0.16216,6.01899 0,4.786534 0.0415,6.003064 0.20241,5.941304 0.11132,-0.0427 1.98632,-1.35754 4.16668,-2.92182 z m -34.816855,-23.392304 -0.0417,-7.1516 -4.08126,-3.02176 c -2.24469,-1.66198 -4.23815,-3.0984 -4.4299,-3.19206 -0.31046,-0.15164 -0.87645,0.21971 -5.16838,3.39093 -2.65086,1.95865 -4.79868,3.61924 -4.77295,3.69018 0.0552,0.15223 18.23586,13.40566 18.41412,13.42364 0.0669,0.007 0.10294,-3.20595 0.08,-7.13933 z m 39.896335,0.43886 c 5.02492,-3.64799 9.16505,-6.67938 9.20029,-6.73641 0.0543,-0.0878 -8.37968,-6.35819 -9.44513,-7.02212 -0.34277,-0.21362 -0.58523,-0.0598 -4.78241,3.03434 l -4.42132,3.25936 v 7.10212 c 0,4.54725 0.0562,7.08294 0.15619,7.04878 0.0859,-0.0293 4.26746,-3.03807 9.29238,-6.68607 z M 125.56426,171.8429 c -0.17606,-0.0729 -0.50016,-0.32614 -0.72023,-0.56291 l -0.40011,-0.43052 -0.0418,-21.56358 -0.0417,-21.56359 1.88228,-1.3779 1.88229,-1.3779 0.0405,22.80121 c 0.0446,25.06664 0.10604,23.45677 -0.91559,23.98508 -0.5097,0.26358 -1.17977,0.29938 -1.68576,0.0901 z m -12.68392,-108.775424 -1.80056,-1.35076 v -22.72977 c 0,-24.74309 -0.0502,-23.39813 0.90089,-24.14881 0.37332,-0.29467 0.60247,-0.34913 1.22139,-0.29029 0.85627,0.0814 1.33591,0.42629 1.66098,1.1943 0.3095,0.73125 0.32715,48.70676 0.0179,48.68815 -0.11004,-0.006 -1.01032,-0.61989 -2.00063,-1.36282 z m -13.209785,-9.76065 -1.87488,-1.37249 10e-4,-12.91193 c 7.6e-4,-8.3134 0.0593,-13.122 0.16473,-13.50181 0.48318,-1.73968 2.753375,-1.91895 3.598735,-0.2842 0.20396,0.39453 0.23681,2.46833 0.23681,14.9505 0,7.97083 -0.0565,14.49242 -0.12574,14.49242 -0.0692,0 -0.96943,-0.61762 -2.000615,-1.37249 z m 24.693335,-13.12782 c 0,-13.08915 0.0255,-14.55395 0.26165,-15.05169 0.31815,-0.67043 0.94129,-1.01744 1.82704,-1.01744 0.54191,0 0.76432,0.10014 1.20832,0.54417 l 0.54417,0.54416 -0.003,13.42015 -0.003,13.42014 -1.81659,1.32042 c -0.99912,0.72622 -1.86185,1.3204 -1.91718,1.3204 -0.0553,0 -0.10056,-6.52514 -0.10056,-14.50031 z m -37.822565,3.43386 -1.89146,-1.44417 0.0508,-3.54772 c 0.0488,-3.40437 0.0657,-3.56858 0.41903,-4.06387 0.74649,-1.04656 2.35111,-1.04271 3.13575,0.007 0.32374,0.43335 0.33916,0.65347 0.38376,5.48159 0.0256,2.76657 -0.0104,5.02578 -0.08,5.02046 -0.0696,-0.005 -0.97766,-0.65952 -2.01795,-1.45382 z m 50.946605,-3.41521 c 0,-5.06348 0.0192,-5.23016 0.6858,-5.9622 0.70244,-0.77138 2.28635,-0.58548 2.8471,0.33414 0.27874,0.45713 0.30711,0.83636 0.30736,4.10477 l 2.4e-4,3.60111 -1.78906,1.36043 c -0.98399,0.74822 -1.84808,1.38442 -1.92026,1.41376 -0.0722,0.0294 -0.13125,-2.15405 -0.13125,-4.85201 z"
     id="path1737"
     inkscape:connector-curvature="0" />
  <circle
     style="opacity:1;fill:none;fill-opacity:1;stroke:#000000;stroke-width:0.85810214;stroke-miterlimit:4;stroke-dasharray:none;stroke-opacity:1"
     id="path1739"
     cx="114.25768"
     cy="98.143791"
     r="84.610321" />
  <text
     xml:space="preserve"
     style="font-style:normal;font-weight:normal;font-size:13.33333302px;line-height:1.25;font-family:sans-serif;letter-spacing:0px;word-spacing:0px;fill:#000000;fill-opacity:1;stroke:none"
     x="86.884247"
     y="202.63715"
     id="text1743"><tspan
       sodipodi:role="line"
       id="tspan1741"
       x="86.884247"
       y="202.63715">45.00mm</tspan></text>
</svg>
