<?xml version="1.0" encoding="UTF-8" standalone="no"?>
<svg
   xmlns:dc="http://purl.org/dc/elements/1.1/"
   xmlns:cc="http://creativecommons.org/ns#"
   xmlns:rdf="http://www.w3.org/1999/02/22-rdf-syntax-ns#"
   xmlns:svg="http://www.w3.org/2000/svg"
   xmlns="http://www.w3.org/2000/svg"
   viewBox="0 0 226.77166 226.77165"
   height="60mm"
   width="60mm"
   id="svg3955"
   version="1.1">
  <metadata
     id="metadata3961">
    <rdf:RDF>
      <cc:Work
         rdf:about="">
        <dc:format>image/svg+xml</dc:format>
        <dc:type
           rdf:resource="http://purl.org/dc/dcmitype/StillImage" />
        <dc:title></dc:title>
      </cc:Work>
    </rdf:RDF>
  </metadata>
  <defs
     id="defs3959" />
  <path
     id="path4508"
     d="m 119.48784,162.48376 c 15.54069,-0.58516 29.80139,-5.75629 41.97676,-15.22137 3.91053,-3.04004 6.92486,-5.89935 10.37928,-9.84545 3.34472,-3.82082 6.13438,-7.79854 8.71421,-12.42534 8.48762,-15.22212 11.1354,-33.485898 7.36989,-50.835828 -2.34011,-10.78228 -7.39194,-21.32817 -14.31106,-29.87483 -5.52793,-6.82824 -12.12615,-12.56925 -19.54109,-17.0024 -6.8229,-4.07919 -14.15747,-6.95167 -22.10581,-8.65741 -8.40512,-1.80377 -17.82519,-2.03385 -26.74563,-0.65325 -5.977144,0.92506 -12.598173,2.90954 -18.345836,5.49866 -7.86357,3.54226 -15.916933,9.15734 -21.73731,15.15597 -4.602184,4.74313 -7.626641,8.65005 -10.865405,14.03567 -9.442826,15.70212 -12.485555,34.94731 -8.412546,53.209198 2.580204,11.56872 8.225544,22.70576 15.999819,31.56422 4.573394,5.2112 9.238267,9.31793 14.807948,13.03619 10.955252,7.31361 23.95016,11.52062 37.09107,12.00793 1.21822,0.0452 2.38512,0.0888 2.59312,0.097 0.20798,0.007 1.61765,-0.0319 3.13259,-0.0889 z m -5.99582,-1.73445 C 99.426092,160.1732 85.785025,155.28023 74.32519,146.70039 64.556402,139.38662 56.7149,129.57094 51.859683,118.57894 42.60272,97.621612 44.058236,73.107852 55.719441,53.572932 c 4.085534,-6.84411 9.429847,-13.13679 15.418378,-18.15444 12.985568,-10.8803 28.798953,-16.63649 45.703631,-16.63649 7.60277,0 14.90996,1.14153 21.93342,3.42647 9.20327,2.99408 17.17414,7.51539 24.79665,14.06541 3.6385,3.12656 8.26114,8.22278 11.15323,12.29587 7.41791,10.44709 11.62994,21.86724 12.90371,34.98605 0.23797,2.4508 0.27213,9.4478 0.0578,11.83109 -0.86801,9.650868 -3.13919,17.868238 -7.16704,25.931138 -5.08961,10.18834 -12.12826,18.62724 -21.2016,25.41934 -11.52417,8.62676 -24.99251,13.41405 -39.43411,14.01676 -2.74041,0.11439 -3.49527,0.11376 -6.39147,-0.005 z m 6.94545,-6.16308 0.0305,-1.14458 -1.47918,-0.0709 c -0.81356,-0.039 -2.05709,-0.0709 -2.7634,-0.0709 h -1.28426 l 0.0316,-0.78335 0.0316,-0.78333 2.45806,0.042 2.45805,0.042 v -1.14951 -1.1495 h -1.92965 c -1.06137,0 -2.15534,-0.0309 -2.43104,-0.0687 l -0.50129,-0.0687 v -0.72475 -0.72474 l 2.70116,0.052 2.70116,0.052 v -1.18787 -1.18787 l -0.94541,-0.0681 c -0.51997,-0.0374 -2.35541,-0.073 -4.07876,-0.0793 l -3.13334,-0.0115 -0.067,2.84594 c -0.0368,1.56526 -0.0734,3.85354 -0.081,5.08509 l -0.014,2.23914 1.6477,0.0338 c 0.90625,0.0186 2.76599,0.032 4.13277,0.0298 l 2.48507,-0.004 z m 6.06407,0.53704 c 0.68892,-0.12611 1.29264,-0.26586 1.34159,-0.31047 0.0488,-0.0446 -0.0349,-0.72868 -0.18633,-1.52014 -0.15141,-0.79148 -0.2604,-1.45394 -0.24217,-1.47217 0.0182,-0.0183 0.27224,-0.079 0.5645,-0.13492 l 0.53133,-0.10174 1.32007,1.31207 1.32007,1.31206 1.52733,-0.28517 c 0.84002,-0.15685 1.55875,-0.31826 1.59718,-0.35866 0.0385,-0.0405 -0.6079,-0.72367 -1.43629,-1.51835 l -1.50616,-1.44487 0.51588,-0.49429 c 0.84939,-0.81388 1.16899,-1.85733 0.92919,-3.03361 -0.3671,-1.8007 -1.57636,-2.74107 -3.52487,-2.74107 -0.69147,0 -5.82913,0.89093 -5.97421,1.03602 -0.0598,0.0598 1.84907,9.98472 1.92025,9.98472 0.0275,0 0.6137,-0.10315 1.30264,-0.22938 z m 0.44225,-5.5288 c 0,-0.0255 -0.10163,-0.54456 -0.22585,-1.15362 -0.12419,-0.60905 -0.185,-1.14298 -0.13505,-1.18651 0.05,-0.0435 0.58064,-0.16634 1.17936,-0.2729 0.88807,-0.15802 1.16007,-0.1701 1.47678,-0.0656 0.92571,0.30551 1.05827,1.58878 0.21509,2.08238 -0.16246,0.0951 -0.70865,0.2542 -1.21378,0.35351 -0.50511,0.0994 -1.00348,0.20499 -1.10747,0.2348 -0.1039,0.0298 -0.18908,0.0334 -0.18908,0.007 z m -21.51918,1.30868 c 0.42759,-2.03124 0.80241,-3.71813 0.83294,-3.74866 0.0306,-0.0306 0.69393,0.0759 1.47424,0.23648 0.78031,0.16061 1.4396,0.27114 1.4651,0.24563 0.0255,-0.0255 0.15818,-0.56429 0.29487,-1.19734 0.17646,-0.81715 0.21286,-1.1639 0.12548,-1.19558 -0.2195,-0.0796 -8.34885,-1.77614 -8.51089,-1.77614 -0.20182,0 -0.70035,2.26923 -0.52265,2.37906 0.0628,0.0387 0.70141,0.18734 1.41927,0.33013 0.71784,0.14281 1.32619,0.3144 1.35187,0.38131 0.0257,0.0668 -0.30059,1.76088 -0.72505,3.76437 -0.42445,2.00351 -0.75304,3.66141 -0.7302,3.68426 0.0502,0.0502 2.33795,0.56404 2.57799,0.57905 0.13697,0.008 0.31902,-0.69945 0.94699,-3.68257 z m 37.56408,-0.60613 c 1.04496,-0.54259 2.11267,-1.61669 2.56295,-2.57833 0.29184,-0.62327 0.35319,-0.89582 0.38991,-1.73227 0.0531,-1.21019 -0.19453,-2.14732 -0.82391,-3.11762 -1.02761,-1.58424 -2.47667,-2.30148 -4.39434,-2.17509 -1.20628,0.0795 -1.47898,0.16471 -4.03617,1.26138 l -2.0551,0.88135 0.32936,0.77475 c 0.78502,1.84652 3.55153,8.20537 3.6496,8.38862 0.10052,0.1877 0.22588,0.15042 1.86453,-0.55442 0.96626,-0.41563 2.09718,-0.93238 2.51317,-1.14837 z m -3.64106,-3.72315 c -0.51669,-1.20336 -0.97004,-2.26911 -1.00744,-2.36832 -0.0521,-0.13808 0.0544,-0.23492 0.45347,-0.4128 1.60148,-0.71373 2.63475,-0.65474 3.48491,0.19901 0.50235,0.50449 0.87218,1.3244 0.87218,1.93371 0,0.99165 -0.63359,1.80178 -1.88155,2.40583 -0.48917,0.23678 -0.91027,0.43051 -0.93576,0.43051 -0.0255,0 -0.46911,-0.98457 -0.98581,-2.18794 z m -44.331549,4.37738 c 0.976546,-0.51132 1.71542,-1.66378 1.71542,-2.67565 0,-1.06633 -0.663361,-2.02099 -2.19075,-3.15275 -1.215633,-0.90075 -1.523531,-1.21722 -1.523531,-1.56597 0,-0.4491 0.400379,-0.67583 0.936472,-0.5303 0.591924,0.16068 1.459723,0.77963 1.937475,1.3819 0.225862,0.28472 0.44658,0.5609 0.490489,0.61372 0.05884,0.0708 1.826333,-0.9111 2.131238,-1.18396 0.09261,-0.0829 -0.456237,-0.79853 -1.086822,-1.41691 -1.520065,-1.49057 -3.714116,-2.19986 -5.314788,-1.71813 -1.177418,0.35435 -2.068388,1.57334 -2.059968,2.81837 0.0076,1.13178 0.573416,1.9199 2.337471,3.25619 1.116337,0.84566 1.38476,1.13809 1.38476,1.50865 0,0.33459 -0.284027,0.52292 -0.760009,0.50394 -0.798387,-0.0317 -1.921182,-0.7871 -2.655216,-1.78609 -0.272179,-0.37043 -0.511443,-0.69062 -0.53171,-0.71154 -0.06662,-0.0688 -2.021334,1.00577 -2.072547,1.13923 -0.08342,0.21741 0.703872,1.29118 1.44386,1.96924 0.755791,0.69253 2.047011,1.42377 2.969623,1.68172 0.828604,0.23165 2.283028,0.16442 2.848533,-0.13166 z m 56.687239,-5.01601 c 0.59601,-0.42552 1.10913,-0.8401 1.14029,-0.92124 0.0312,-0.0812 -0.0407,-0.53459 -0.15939,-1.00764 l -0.216,-0.8601 1.47291,-1.04483 c 0.81008,-0.57466 1.52488,-1.08449 1.58845,-1.13299 0.0679,-0.0517 0.43601,0.11134 0.89213,0.39513 0.42711,0.26581 0.82357,0.48327 0.88101,0.48327 0.0574,0 0.64088,-0.38398 1.29646,-0.8533 l 1.19201,-0.85329 -4.70037,-2.8743 c -2.58521,-1.58088 -4.75554,-2.87431 -4.82299,-2.87431 -0.0674,0 -0.59824,0.33959 -1.17961,0.75466 l -1.05701,0.75465 0.14488,0.62294 c 0.0798,0.34262 0.58867,2.59208 1.13111,4.99881 1.09465,4.85695 1.17439,5.18623 1.25575,5.18623 0.0312,0 0.54435,-0.34815 1.14037,-0.77369 z m -0.20095,-6.54305 c -0.18723,-0.75831 -0.32596,-1.39322 -0.30827,-1.41091 0.0667,-0.0667 2.42713,1.52538 2.37837,1.60431 -0.0674,0.10891 -1.40019,1.05891 -1.58549,1.13003 -0.10596,0.0407 -0.23444,-0.31032 -0.48461,-1.32343 z m -65.399908,3.09273 c 1.616924,-2.26378 2.89826,-4.15275 2.847421,-4.1977 -0.279115,-0.24681 -2.293762,-1.6266 -2.375011,-1.6266 -0.05288,0 -1.0148,0.38967 -2.13761,0.86592 -1.122809,0.47629 -2.05029,0.85309 -2.061066,0.83738 -0.01084,-0.0157 0.04194,-0.85514 0.117155,-1.86539 0.222262,-2.98542 0.32553,-2.5916 -0.915401,-3.49096 -0.58675,-0.42524 -1.141516,-0.80182 -1.232812,-0.83686 -0.123002,-0.0471 -0.928042,1.0032 -3.108506,4.05595 -1.618382,2.26582 -2.899056,4.15765 -2.845941,4.20406 0.125231,0.10942 1.895076,1.35833 2.057708,1.45204 0.07718,0.0445 0.729501,-0.77902 1.719083,-2.17007 1.854414,-2.60676 1.657017,-2.34311 1.712029,-2.28675 0.02417,0.0247 -0.0021,1.03565 -0.05856,2.24643 -0.05638,1.21078 -0.07824,2.22566 -0.04859,2.25536 0.02967,0.0297 0.943348,-0.29048 2.030409,-0.7114 1.087064,-0.42092 2.064892,-0.79808 2.172956,-0.83812 0.108061,-0.04 -0.560823,0.98677 -1.486414,2.28181 -0.925592,1.29504 -1.670389,2.36538 -1.655107,2.37853 0.258755,0.2225 2.183349,1.56232 2.244215,1.56232 0.04629,0 1.407113,-1.85217 3.02404,-4.11595 z m 34.034408,-2.47888 c 4.62372,-0.32439 8.39168,-1.06268 12.64142,-2.47689 7.46992,-2.48584 14.02815,-6.54163 19.55862,-12.09557 2.71835,-2.7299 4.68557,-5.12204 6.53884,-7.9512 4.79648,-7.32232 7.4337,-15.07058 8.16407,-23.986308 0.16506,-2.01496 0.067,-7.41296 -0.16985,-9.34601 -1.78924,-14.60536 -9.11902,-26.96508 -21.03798,-35.47497 -6.78397,-4.84363 -14.5644,-7.79858 -23.42615,-8.89712 -2.25345,-0.27935 -8.87533,-0.27935 -11.12878,0 -7.60495,0.94273 -14.173306,3.16367 -20.366746,6.88654 -6.203559,3.72896 -11.879339,9.14394 -15.904806,15.17396 -7.297712,10.93178 -10.005242,24.08206 -7.641439,37.11395 1.370688,7.556738 4.591922,14.903338 9.234878,21.061808 4.819059,6.39206 11.253543,11.68124 18.417134,15.13897 7.733919,3.73301 16.618569,5.44936 25.120789,4.85284 z m -7.02302,-1.73029 c -9.39955,-0.80674 -17.738929,-3.90685 -25.066767,-9.31841 -4.332879,-3.1998 -8.479997,-7.50732 -11.411738,-11.85312 -4.441014,-6.58306 -7.106229,-13.75553 -8.110072,-21.825378 -0.280027,-2.25113 -0.279886,-8.66403 1.62e-4,-10.91161 0.690277,-5.53818 2.221247,-10.8823 4.442085,-15.50573 5.669729,-11.8035 15.867108,-20.88107 28.15969,-25.06739 5.72822,-1.95078 11.43858,-2.75753 17.84417,-2.52096 14.59484,0.53901 28.18611,7.78409 37.05901,19.75498 3.16467,4.26963 5.79093,9.51014 7.30984,14.58626 1.07202,3.58263 1.66967,6.69045 1.96616,10.22414 0.19554,2.33039 0.076,7.95732 -0.21424,10.0886 -0.61324,4.502548 -1.86419,9.071668 -3.58836,13.106688 -4.48075,10.48605 -12.95277,19.38164 -23.2692,24.4326 -5.17704,2.5347 -10.43369,4.03257 -16.5311,4.71051 -1.41496,0.15732 -7.14066,0.2232 -8.58968,0.0988 z m 13.37826,-6.89508 c 0.12974,-0.0823 8.37921,-29.18273 8.2963,-29.26564 -0.0351,-0.0351 -7.84142,8.7708 -7.98268,9.00494 -0.12204,0.20216 -5.04817,17.20353 -5.04817,17.42234 0,0.11248 0.0742,0.26603 0.16486,0.34129 0.29373,0.24377 4.2076,2.58932 4.31907,2.5884 0.0594,0 0.1722,-0.0416 0.25062,-0.0914 z m -21.4838,-2.98513 c 2.49634,-0.56158 5.30879,-1.8892 6.89868,-3.25656 l 0.35981,-0.30946 -1.36789,-0.86436 c -2.50238,-1.58127 -3.78332,-2.80295 -5.17009,-4.93098 -1.39733,-2.14422 -2.55524,-5.48857 -2.55524,-7.38025 0,-0.31036 -0.0277,-0.59196 -0.0613,-0.62574 -0.0338,-0.0338 -0.36199,0.0612 -0.72932,0.21093 -2.02525,0.82596 -3.706976,1.13164 -6.232261,1.13279 -1.506779,6.5e-4 -2.114385,-0.0455 -2.991635,-0.22721 -1.95373,-0.40481 -3.431401,-1.01006 -5.44079,-2.22848 -0.547588,-0.33205 -1.055671,-0.58067 -1.129074,-0.55251 -0.428521,0.16445 -0.581572,4.36712 -0.228773,6.28187 0.246108,1.33571 0.886144,3.32239 1.397446,4.3377 1.096882,2.17812 3.019989,4.45135 4.900677,5.79289 1.829351,1.30493 4.123983,2.27976 6.301358,2.67699 1.443982,0.26344 4.761802,0.23183 6.048542,-0.0576 z m -8.871905,-2.3114 c -1.189021,-0.52105 -1.789328,-0.8678 -2.786523,-1.60954 -3.143336,-2.33813 -5.174149,-6.00696 -5.49827,-9.9331 -0.0918,-1.11213 -0.05734,-2.62352 0.05984,-2.62352 0.03042,0 0.304319,0.13972 0.608679,0.31048 0.304365,0.17077 0.958007,0.47349 1.452547,0.67271 l 0.899149,0.36223 -0.07872,0.65088 c -0.220678,1.82537 0.07872,4.26993 0.719182,5.87224 0.870307,2.17731 2.422664,4.13004 4.636459,5.83225 1.406619,1.08155 1.406465,1.08714 -0.01274,0.46537 z m 24.205045,1.46042 c 0.0677,-0.0815 0.99763,-3.13247 2.06661,-6.7799 1.06901,-3.64746 1.96885,-6.69938 1.99964,-6.78206 0.0461,-0.1237 0.0264,-0.12586 -0.1107,-0.0115 -0.28554,0.23698 -9.34375,10.5296 -9.35095,10.62526 -0.009,0.12291 4.87542,3.08672 5.09661,3.09237 0.0966,0.002 0.23119,-0.0622 0.29884,-0.1437 z m 8.98243,-21.89326 c 8.45438,-9.597228 15.46875,-17.557468 15.58752,-17.689428 0.32252,-0.35842 0.0863,-0.59944 -0.50775,-0.51795 -0.24341,0.0334 -6.27706,0.52047 -13.40812,1.08243 -7.13106,0.56194 -13.17104,1.0773 -13.42216,1.14523 -0.25112,0.0678 -0.62713,0.27555 -0.83552,0.46136 -0.24158,0.21539 -2.12633,3.23585 -5.19986,8.33328 -2.6515,4.397478 -4.95549,8.262838 -5.11996,8.589678 -0.69293,1.37693 -1.19156,3.33789 -1.19156,4.68595 0,2.66086 1.48195,6.17147 3.54652,8.40139 0.86858,0.93816 1.60028,1.50378 3.34695,2.58722 l 1.37208,0.8511 0.23014,-0.24038 c 0.12661,-0.13221 7.14733,-8.09266 15.60172,-17.68988 z m -16.04035,15.69076 c -0.0771,-0.24276 0.0758,-1.32829 0.33817,-2.40106 0.28713,-1.17428 1.01591,-2.9025 1.64827,-3.9088 0.32949,-0.52433 3.83235,-5.06214 7.78415,-10.08404 3.95179,-5.021898 7.38805,-9.420978 7.63611,-9.775728 1.09937,-1.57218 0.77705,-3.24959 -0.86759,-4.51512 l -0.66222,-0.50956 6.04976,-0.44523 c 3.32737,-0.24488 6.06624,-0.43123 6.0864,-0.41411 0.0201,0.0171 -0.65414,0.82497 -1.49844,1.79526 -0.84429,0.97027 -1.6551,1.90219 -1.80183,2.07091 -0.14671,0.16874 -5.64186,6.51376 -12.21142,14.100058 -6.56957,7.5863 -12.05433,13.90857 -12.18837,14.04949 -0.2381,0.25034 -0.24527,0.2512 -0.31299,0.0379 z m -14.161694,-11.1536 c 0.786363,-0.15216 2.183394,-0.7904 3.179334,-1.4525 0.40435,-0.26881 1.19148,-0.96875 1.74919,-1.55542 0.97767,-1.02841 1.18389,-1.34616 5.75,-8.859388 2.60477,-4.28601 4.83298,-7.99355 4.95157,-8.239 0.29291,-0.60625 0.41151,-1.4406 0.30167,-2.12219 -0.0551,-0.3421 -0.81768,-2.21662 -1.92775,-4.7389 -1.01008,-2.29511 -1.86359,-4.20001 -1.89668,-4.23309 -0.0331,-0.0331 -0.077,-0.0399 -0.0976,-0.0152 -0.0207,0.0247 -2.99604,6.81547 -6.61218,15.09047 -3.61613,8.274998 -6.621125,15.045458 -6.67776,15.045458 -0.186959,0 0.01478,-1.97352 0.288257,-2.81954 0.14221,-0.44 2.946723,-7.217958 6.232233,-15.062128 3.28552,-7.84418 5.99483,-14.3845 6.02069,-14.53409 0.0651,-0.37662 -0.75447,-2.22829 -1.18109,-2.66844 -0.90343,-0.9321 -2.62961,-0.86354 -3.39101,0.13468 -0.21889,0.28698 -13.749021,34.692078 -13.940299,35.448108 -0.0358,0.14145 0.0011,0.2511 0.0972,0.28792 0.179827,0.0691 2.089341,0.38065 2.724346,0.44463 0.781102,0.0788 3.768152,-0.0235 4.429896,-0.15146 z M 96.305073,89.390322 c 4.142877,-10.39948 7.974357,-19.97551 8.514377,-21.2801 l 0.98185,-2.37198 -0.42246,-1.22295 c -0.27551,-0.79747 -0.47183,-1.21271 -0.56433,-1.19355 -0.10725,0.0222 -17.110315,43.003358 -17.45061,44.112318 -0.05448,0.17755 0.05353,0.28683 0.605565,0.61265 0.36953,0.21811 0.701398,0.36397 0.737484,0.32414 0.03609,-0.0399 3.455249,-8.581068 7.598124,-18.980528 z m -6.745151,7.40116 c 2.091507,-5.43743 3.830009,-9.95364 3.863333,-10.03603 0.03338,-0.0824 0.01146,-0.13102 -0.04891,-0.10802 -0.193165,0.0737 -15.641859,14.820968 -15.745567,15.030688 -0.07378,0.14923 -0.04556,0.25616 0.108051,0.40956 0.114352,0.11414 1.932417,1.25372 4.040152,2.5323 2.646816,1.60561 3.855123,2.28343 3.906211,2.19124 0.04068,-0.0735 1.785204,-4.58225 3.876715,-10.019688 z m -4.084551,-4.70001 9.24848,-8.75176 0.271058,-0.7023 c 0.149079,-0.38626 0.538488,-1.39503 0.865354,-2.24169 0.326865,-0.84667 0.531914,-1.50305 0.455676,-1.45864 -0.201712,0.11758 -21.684479,20.30508 -21.914637,20.59337 -0.253127,0.31707 -0.172626,0.494348 0.384383,0.846458 0.766398,0.48448 1.070992,0.61471 1.260228,0.53886 0.09954,-0.0399 4.342792,-4.010838 9.429458,-8.824298 z m 41.629069,-4.6999 c 9.59158,-0.79035 9.68572,-0.80286 9.39963,-1.25101 -0.0585,-0.0915 -0.90846,-0.47102 -1.88898,-0.84336 -0.98053,-0.37234 -2.11195,-0.81613 -2.51429,-0.98618 l -0.73155,-0.30919 -5.68584,1.21099 c -3.1272,0.66604 -5.70034,1.19649 -5.71803,1.17878 -0.0177,-0.0177 1.33422,-0.95474 3.00428,-2.08228 1.67008,-1.12753 3.08445,-2.12762 3.14306,-2.22242 0.23935,-0.38713 0.001,-0.68817 -0.97547,-1.23265 -5.15509,-2.87423 -10.10964,-6.33371 -14.08129,-9.83217 -1.33191,-1.17322 -1.62293,-1.33662 -1.75725,-0.98656 -0.0277,0.072 1.59222,4.0653 3.59962,8.87408 2.75841,6.60775 3.72012,8.80366 3.93756,8.99069 0.18832,0.16199 0.42653,0.24749 0.68944,0.24749 0.22094,0 4.53154,-0.3403 9.57911,-0.75621 z m 15.67566,-2.36933 c 1.2394,-0.54825 1.14035,-1.87395 -0.29743,-3.98059 -0.66707,-0.97744 -3.64659,-4.00743 -5.22044,-5.30893 -8.95241,-7.40314 -22.33794,-14.02947 -27.69402,-13.70951 -3.2187,0.19225 -2.64556,2.79188 1.53314,6.95388 8.79985,8.76468 27.13893,18.05334 31.67875,16.04515 z m -29.07199,-15.20978 c -2.24138,-1.90549 -4.26846,-4.26622 -4.43766,-5.16809 -0.18706,-0.99713 0.17682,-1.35954 1.43469,-1.42887 1.61992,-0.0893 4.55208,0.72028 8.13518,2.24606 2.02995,0.86442 5.9842,2.82503 5.3483,2.6518 -0.80731,-0.2199 -2.45676,-0.50368 -3.49461,-0.60123 -1.35155,-0.127 -2.90977,-0.0195 -3.86886,0.2668 -1.32392,0.39532 -2.13513,1.31745 -2.06926,2.35218 0.0179,0.28229 0.009,0.51209 -0.0214,0.51066 -0.0297,-0.001 -0.49161,-0.37463 -1.02644,-0.82931 z m 32.63001,15.00116 c 0.33207,-0.22426 0.4755,-0.42167 0.61916,-0.85217 0.25081,-0.75153 0.1256,-1.41015 -0.50845,-2.67461 -0.72618,-1.44816 -1.72843,-2.71491 -3.72213,-4.70441 -2.79399,-2.78813 -5.56814,-5.00088 -9.67829,-7.7197 -3.22182,-2.13122 -7.19316,-4.40413 -7.69508,-4.40413 -0.53244,0 -0.86205,0.6188 -0.54346,1.02027 0.0743,0.0936 0.6942,0.4759 1.3776,0.84952 11.54374,6.31119 20.81226,15.14704 19.40976,18.50369 -0.17062,0.40836 -0.17015,0.41073 0.0685,0.34231 0.13212,-0.0379 0.43473,-0.20025 0.67242,-0.36077 z m -2.83492,-11.00438 c 0.35793,-0.31861 0.50465,-0.81916 0.64159,-2.18866 0.15859,-1.58629 0.0192,-3.27294 -0.41083,-4.97403 -0.26968,-1.06661 -0.27909,-1.18621 -0.15722,-1.99886 0.0713,-0.47541 0.22118,-1.21752 0.33307,-1.64914 0.5985,-2.30872 0.49259,-3.92678 -0.39241,-5.99485 -0.53133,-1.24162 -1.70466,-2.88845 -2.27618,-3.19472 -0.50057,-0.26826 -1.11577,0.0453 -1.11577,0.56872 0,0.0938 0.22692,0.44929 0.50426,0.78979 1.48753,1.82629 1.46987,3.79347 -0.0372,4.13729 -0.60078,0.13706 -1.10847,-0.0393 -1.60438,-0.55722 -0.57537,-0.60098 -2.28073,-1.8717 -3.34665,-2.49372 -1.09785,-0.64066 -2.54755,-1.27581 -3.74349,-1.64014 -0.74208,-0.22605 -1.00216,-0.36191 -1.26421,-0.66038 -0.644,-0.73347 -0.55627,-1.78378 0.19025,-2.27782 0.79517,-0.52622 2.41817,-0.57256 3.93766,-0.11248 0.61088,0.18498 0.98486,0.0922 1.15766,-0.287 0.1561,-0.3426 -0.0288,-0.7864 -0.40829,-0.98019 -0.41251,-0.21061 -1.64627,-0.47017 -2.62477,-0.55217 -1.5568,-0.13047 -3.52935,0.30862 -4.78607,1.06536 -0.32931,0.19831 -1.11678,0.82833 -1.74995,1.40007 -1.45764,1.31619 -2.27242,1.79634 -3.78241,2.22904 -2.38596,0.68368 -5.01875,2.19427 -5.52957,3.17264 -0.21613,0.41394 -0.10891,0.93198 0.26366,1.27398 0.16268,0.14934 1.12235,0.60231 2.13256,1.00661 7.84898,3.14114 16.05867,8.10289 21.5386,13.01742 0.6033,0.54106 1.20636,1.02999 1.34012,1.08652 0.33324,0.14083 0.92696,0.048 1.18991,-0.18609 z m -4.24389,-4.79156 c -0.71763,-0.59748 -1.35928,-1.20596 -1.42589,-1.35216 -0.0932,-0.2047 -0.0796,-0.48281 0.0593,-1.20963 0.36791,-1.92407 0.33495,-4.0063 -0.0822,-5.18853 -0.16676,-0.47268 -0.0642,-0.77946 0.26058,-0.77946 0.22091,0 1.1393,1.0234 1.82426,2.0329 1.22064,1.79897 2.06679,4.38196 2.06679,6.30913 0,0.566 -0.0375,0.68002 -0.31582,0.95828 -0.23035,0.23035 -0.41954,0.31583 -0.69908,0.31583 -0.32705,0 -0.5746,-0.15932 -1.68802,-1.08636 z m -5.94948,-4.2421 c -0.26263,-0.13766 -1.377,-0.79636 -2.47638,-1.4638 -2.329,-1.41399 -5.85173,-3.20347 -7.77933,-3.95176 -0.74282,-0.28837 -1.50537,-0.58632 -1.69454,-0.66212 -0.71986,-0.2884 -0.85297,-1.19781 -0.24965,-1.70545 0.44501,-0.37448 1.81205,-0.9159 2.89801,-1.1478 3.44019,-0.73459 6.42397,-0.0669 8.56693,1.91714 1.55489,1.43954 2.24425,2.93583 2.33815,5.07503 0.0629,1.43448 -0.046,1.81581 -0.5832,2.04025 -0.46031,0.19233 -0.45917,0.19244 -1.01999,-0.10153 z m -13.47008,-1.82599 c 0.29517,-0.33823 0.24488,-0.88946 -0.10639,-1.16574 -0.71812,-0.56485 -1.64808,0.27604 -1.21017,1.09427 0.23876,0.4461 0.95561,0.48502 1.31652,0.0714 z m -2.23706,-1.10619 c 0.70897,-0.70898 0.0474,-1.13446 -3.2463,-2.08823 -1.96564,-0.56919 -2.98544,-0.76962 -4.33618,-0.85227 -1.79099,-0.10955 -3.0369,0.24598 -3.50268,0.99962 -0.23011,0.37234 -0.38695,1.22396 -0.27779,1.50844 0.0577,0.15051 0.11821,0.1256 0.38298,-0.15778 0.65753,-0.70391 1.92276,-0.95395 3.86644,-0.76412 1.33881,0.13074 3.83225,0.71847 5.43391,1.28082 1.13536,0.39864 1.34532,0.40782 1.67962,0.0736 z M 73.251473,132.58186 c 1.256438,-2.54044 2.35081,-4.77171 2.431939,-4.95839 0.14721,-0.33872 0.145759,-0.3414 -0.729603,-1.35058 -0.548087,-0.63185 -0.941957,-0.99786 -1.049991,-0.97568 -0.413156,0.0848 -10.230443,3.29468 -10.315452,3.3727 -0.07513,0.0689 1.696106,2.26424 1.826876,2.26424 0.01946,0 0.435682,-0.14758 0.924915,-0.32796 0.489236,-0.1804 0.921112,-0.28979 0.95973,-0.24312 0.03862,0.0466 0.550382,0.64402 1.137251,1.32741 0.586871,0.68338 1.135617,1.32468 1.219434,1.42512 0.134298,0.16089 0.09767,0.2839 -0.308376,1.03569 l -0.460774,0.85309 0.954338,1.09823 c 0.524885,0.60404 0.9928,1.09823 1.03981,1.09823 0.04701,0 1.113464,-2.07854 2.369903,-4.61898 z m -3.062032,-2.26639 -0.716537,-0.83478 1.349529,-0.47592 c 0.742242,-0.26177 1.373513,-0.45197 1.402825,-0.42266 0.04613,0.0462 -1.224076,2.56815 -1.29343,2.56815 -0.01422,0 -0.348292,-0.37565 -0.742387,-0.83479 z m 93.857909,5.67438 c 0.4514,-0.51748 0.82072,-0.98163 0.82072,-1.03143 0,-0.0498 -0.95013,-0.90878 -2.1114,-1.90884 -1.16129,-1.00007 -2.09708,-1.83262 -2.07953,-1.85015 0.0303,-0.0305 3.59649,0.42556 4.21795,0.53931 0.21731,0.0398 0.29712,0.0102 0.29712,-0.1093 0,-0.09 -0.26673,-1.09431 -0.59275,-2.23175 -0.326,-1.13748 -0.57924,-2.08161 -0.56272,-2.09814 0.0166,-0.0165 0.9761,0.79217 2.1324,1.79707 1.15632,1.00488 2.13185,1.82943 2.16787,1.8323 0.0737,0.006 1.82534,-1.99247 1.82534,-2.0824 0,-0.0785 -7.57487,-6.61012 -7.6659,-6.61012 -0.0586,0 -1.10131,1.15708 -1.82079,2.0204 -0.13451,0.16141 -0.0721,0.43977 0.51692,2.30411 0.36848,1.1663 0.6418,2.14866 0.60741,2.18306 -0.0344,0.0344 -1.02341,-0.0911 -2.19781,-0.27894 -1.1744,-0.18783 -2.1667,-0.34117 -2.20506,-0.34079 -0.0383,0 -0.49615,0.49308 -1.01725,1.09488 -0.6757,0.78032 -0.91909,1.1347 -0.84861,1.23551 0.1824,0.26077 7.52584,6.53958 7.61112,6.50763 0.0464,-0.0173 0.45353,-0.45494 0.90497,-0.97241 z M 58.86378,114.1396 c 0.05899,-0.0364 -0.100423,-0.66933 -0.374283,-1.48584 -0.26238,-0.7823 -0.465406,-1.43137 -0.451172,-1.44243 0.01422,-0.0115 1.606058,-0.54336 3.537388,-1.18287 1.931329,-0.63953 3.560123,-1.20774 3.619544,-1.26271 0.09386,-0.0869 -0.163535,-0.96685 -0.71152,-2.43251 -0.08693,-0.23252 -0.147115,-0.21684 -3.630288,0.94542 -1.948039,0.65001 -3.596279,1.18184 -3.662765,1.18184 -0.06648,0 -0.330075,-0.61992 -0.585761,-1.3776 -0.255688,-0.75768 -0.47298,-1.38913 -0.482872,-1.40323 -0.03862,-0.0551 -2.325678,0.75145 -2.325678,0.82017 0,0.0758 2.619712,7.92786 2.750678,8.24459 0.06648,0.16077 0.184753,0.14205 1.144052,-0.18102 0.58845,-0.19816 1.116155,-0.38888 1.172677,-0.42381 z M 177.963,112.8088 c 0.2197,-0.69793 0.36556,-1.30009 0.32413,-1.33809 -0.0414,-0.038 -1.12068,-0.39515 -2.39833,-0.79362 -1.27764,-0.39846 -2.36102,-0.76032 -2.4075,-0.80413 -0.0465,-0.0438 1.3201,-0.60249 3.03691,-1.24151 l 3.12143,-1.16185 0.39262,-1.25225 c 0.21592,-0.68873 0.38088,-1.26136 0.36654,-1.27249 -0.0415,-0.0323 -9.52346,-2.99342 -9.63186,-3.00801 -0.0689,-0.008 -0.90534,2.33822 -0.92696,2.60148 -0.001,0.0115 0.86125,0.29429 1.91605,0.62769 3.27675,1.03565 3.3101,1.04769 3.14893,1.13659 -0.0828,0.0458 -1.48773,0.57915 -3.12191,1.18547 -1.6342,0.60631 -3.03699,1.13862 -3.1173,1.1829 -0.1764,0.0972 -0.90664,2.29434 -0.79621,2.39549 0.10113,0.0927 9.31892,2.99994 9.53193,3.00639 0.1135,0.004 0.28191,-0.3758 0.56153,-1.26406 z M 58.031271,101.02577 c 2.596611,-0.28206 4.741488,-0.53577 4.766396,-0.56379 0.03987,-0.0449 -0.235662,-2.720208 -0.285251,-2.769798 -0.0107,-0.0102 -0.866039,0.0741 -1.900809,0.18808 -1.034769,0.11414 -1.892892,0.1954 -1.906942,0.18063 -0.0649,-0.0684 -0.384408,-3.45229 -0.330995,-3.50569 0.03331,-0.0334 0.869648,-0.14844 1.858535,-0.25584 0.988889,-0.10736 1.822152,-0.21948 1.851698,-0.24902 0.104818,-0.10487 -0.220132,-2.76923 -0.337719,-2.76902 -0.415987,8.1e-4 -9.924312,1.07392 -9.976439,1.12604 -0.06078,0.0607 0.168717,2.67027 0.24123,2.7428 0.01844,0.0185 0.765803,-0.046 1.660841,-0.14317 0.895036,-0.0972 1.738605,-0.16083 1.874595,-0.14148 0.236093,0.0337 0.255592,0.11082 0.431807,1.7098 0.101502,0.92104 0.150475,1.7053 0.108824,1.7428 -0.04165,0.0374 -0.877968,0.15131 -1.85849,0.25294 -0.980521,0.10164 -1.799455,0.20114 -1.819854,0.22112 -0.04138,0.0406 0.191938,2.405918 0.258253,2.618308 0.05925,0.18972 0.10955,0.18613 5.364315,-0.38471 z M 177.61755,99.273452 c 3.48107,-0.54282 5.46542,-4.57457 3.89189,-7.90738 -1.53334,-3.24772 -5.96889,-4.0017 -8.48386,-1.44213 -2.99086,3.04385 -1.50852,8.41152 2.56748,9.29707 0.83923,0.18234 1.14138,0.19016 2.02449,0.0524 z m -1.58483,-2.90341 c -0.68326,-0.1754 -1.32169,-0.64834 -1.66199,-1.23118 -0.299,-0.51212 -0.32547,-0.63498 -0.2965,-1.37619 0.0287,-0.73455 0.0691,-0.86577 0.41439,-1.34645 0.55208,-0.76851 1.21003,-1.08187 2.2644,-1.07837 1.09778,0.004 1.83425,0.39384 2.35017,1.24511 0.77625,1.28084 0.28955,2.86605 -1.09966,3.5817 -0.46771,0.24095 -1.43825,0.34209 -1.97081,0.20538 z M 61.946634,87.688582 c 0.105467,-0.5038 0.845867,-7.86812 0.796051,-7.91794 -0.06477,-0.0649 -1.532653,-0.25872 -1.992307,-0.26324 -0.408021,-0.004 -0.365256,-0.19064 -0.698892,3.05006 l -0.24205,2.35111 -0.710547,-0.0687 c -0.390797,-0.0378 -0.74505,-0.0995 -0.787222,-0.13719 -0.04218,-0.0377 0.0371,-1.11339 0.176171,-2.39046 0.139065,-1.27709 0.222193,-2.35397 0.184724,-2.39308 -0.0629,-0.0657 -2.091171,-0.31543 -2.144883,-0.2641 -0.01313,0.0127 -0.122491,0.94398 -0.243021,2.06982 -0.12053,1.12588 -0.246528,2.20947 -0.279992,2.408 l -0.06084,0.36098 -0.668549,-0.0748 c -0.367704,-0.0412 -0.69683,-0.10639 -0.731395,-0.1449 -0.03455,-0.0386 0.06394,-1.24467 0.218894,-2.68027 l 0.281736,-2.61019 -0.380962,-0.059 c -0.20953,-0.0326 -0.757775,-0.0923 -1.218323,-0.13289 -0.677301,-0.0599 -0.83775,-0.0452 -0.839406,0.076 -0.0011,0.0825 -0.19123,1.90032 -0.422453,4.03963 -0.231225,2.13933 -0.401459,3.90895 -0.378302,3.93252 0.04623,0.047 9.178684,1.05853 9.741582,1.07897 0.280076,0.0102 0.359155,-0.0355 0.399991,-0.23044 z M 177.2394,84.452222 c 1.7625,-0.37795 3.31294,-1.88666 3.7935,-3.6914 0.19692,-0.73962 0.18934,-2.24952 -0.0153,-3.03503 -0.74167,-2.84745 -3.67915,-4.61901 -6.45854,-3.89507 -0.91447,0.2382 -1.66199,0.65586 -2.35228,1.31427 -2.67613,2.55261 -1.91912,7.28806 1.42966,8.94311 1.15031,0.56853 2.16944,0.67152 3.60291,0.36412 z m -2.15129,-2.79999 c -1.08928,-0.25552 -1.90047,-1.27383 -1.90047,-2.38577 0,-0.9938 0.56685,-1.9281 1.44005,-2.37359 0.54389,-0.27747 1.58639,-0.3737 2.21265,-0.20425 0.25591,0.0693 0.66057,0.3023 0.8992,0.5179 0.61013,0.55121 0.86112,1.09508 0.86483,1.87401 0.006,1.21384 -0.73982,2.17964 -1.94349,2.51738 -0.68761,0.19292 -0.94407,0.20179 -1.57277,0.0543 z m -4.65542,-9.17127 c 0.58433,-0.23777 1.07825,-0.44811 1.09759,-0.46746 0.0193,-0.0193 -0.34788,-0.96022 -0.81609,-2.09082 -0.4682,-1.13059 -0.88209,-2.15272 -0.91975,-2.27139 -0.0619,-0.19521 0.26651,-0.35273 3.44512,-1.65217 1.95793,-0.8004 3.51362,-1.49585 3.51362,-1.57068 0,-0.0739 -0.22439,-0.67298 -0.49865,-1.33137 l -0.49865,-1.19707 -0.33871,0.13776 c -6.30276,2.56348 -9.03405,3.71149 -9.03698,3.79843 -0.005,0.16996 2.84625,7.07704 2.92219,7.07704 0.0373,0 0.54599,-0.19453 1.13031,-0.43227 z M 64.460833,71.008322 c 1.489621,-0.70728 2.588399,-2.87066 2.294296,-4.51719 -0.186341,-1.04322 -0.687476,-1.75029 -1.667909,-2.3533 -0.423831,-0.26068 -6.462703,-2.89362 -6.636764,-2.89362 -0.118963,0 -1.121754,2.33146 -1.069811,2.48729 0.02247,0.0675 1.279457,0.6513 2.793266,1.2974 1.51381,0.64611 2.962116,1.28281 3.218454,1.41486 1.117375,0.57563 0.986074,1.73816 -0.267032,2.3643 l -0.552185,0.27591 0.258041,0.69911 c 0.639955,1.73384 0.584597,1.63049 0.834867,1.5588 0.127961,-0.0366 0.48561,-0.18675 0.794777,-0.33356 z M 168.22345,58.921232 c 1.5528,-2.43644 2.87551,-4.53996 2.93932,-4.67445 0.10153,-0.21398 0.0237,-0.37937 -0.62324,-1.32356 -0.4066,-0.59347 -0.79151,-1.07994 -0.85536,-1.08105 -0.33977,-0.006 -10.75866,2.21427 -10.75866,2.29256 0,0.21072 1.57073,2.35536 1.72418,2.35417 0.0917,-8.1e-4 0.43405,-0.073 0.7609,-0.16079 1.02458,-0.275 0.95438,-0.32078 2.15256,1.40312 l 1.08786,1.56517 -0.53138,0.83297 -0.53138,0.83297 0.82901,1.21778 c 0.45592,0.66978 0.8636,1.20726 0.90593,1.1944 0.0423,-0.0129 1.34745,-2.01685 2.90026,-4.45329 z m -2.84589,-2.48312 c -0.52371,-0.76783 -0.58896,-0.91433 -0.42855,-0.96232 0.47305,-0.14154 2.65043,-0.61214 2.68273,-0.57981 0.0281,0.0281 -1.46484,2.27622 -1.60413,2.41552 -0.0178,0.0177 -0.3103,-0.37524 -0.65005,-0.87339 z m -95.346355,4.94118 c 0.282477,-0.46056 0.612019,-0.99014 0.732316,-1.17689 l 0.21872,-0.33951 -4.202298,-2.60248 c -2.311263,-1.43136 -4.276417,-2.63092 -4.367007,-2.66567 -0.222736,-0.0856 -1.66029,2.19606 -1.490612,2.36574 0.180514,0.1805 8.366734,5.24554 8.486995,5.25115 0.05956,0.002 0.339409,-0.37181 0.621886,-0.83234 z m 5.460364,-7.46096 0.869182,-1.00519 -0.450536,-0.40536 c -0.247797,-0.22297 -1.557389,-1.3662 -2.910202,-2.54052 l -2.459665,-2.13511 0.974026,-1.11254 c 0.535715,-0.61191 0.974025,-1.13865 0.974025,-1.17056 0,-0.0748 -1.74288,-1.59225 -1.828764,-1.59225 -0.09366,0 -5.788507,6.58872 -5.788507,6.69709 0,0.1665 1.798538,1.65007 1.88453,1.55453 0.04657,-0.0517 0.439601,-0.50739 0.8734,-1.01251 0.433799,-0.50511 0.846305,-0.98214 0.916681,-1.06006 0.102655,-0.11363 0.692069,0.35012 2.980715,2.34542 1.569018,1.36791 2.907471,2.47701 2.974344,2.46467 0.06688,-0.0127 0.512719,-0.47477 0.990771,-1.02761 z m 83.208711,-2.74985 c 0.90423,-0.42693 1.6073,-1.37375 1.71241,-2.30618 0.0842,-0.74706 -0.40922,-2.00262 -1.30392,-3.31801 -0.2503,-0.36799 -0.54644,-0.87411 -0.6581,-1.1247 -0.19047,-0.42744 -0.19192,-0.47249 -0.0237,-0.7293 0.54216,-0.82745 1.9162,0.40303 2.45176,2.19557 0.0773,0.25876 0.19358,0.4908 0.2584,0.51567 0.12126,0.0465 2.21926,-0.35685 2.30571,-0.44331 0.0267,-0.0264 -0.0102,-0.28112 -0.0815,-0.56567 -0.43191,-1.72136 -1.94686,-3.56134 -3.49668,-4.2469 -0.62294,-0.27556 -1.62546,-0.3798 -2.1881,-0.22755 -1.04616,0.28308 -1.95344,1.21888 -2.20716,2.27653 -0.1159,0.483 -0.10021,0.6036 0.18649,1.43535 0.17828,0.51725 0.57542,1.31065 0.92279,1.84355 0.81447,1.24951 0.9613,1.55073 0.92167,1.89084 -0.0444,0.38081 -0.43708,0.58013 -0.8556,0.43424 -0.4234,-0.1476 -1.32106,-1.15587 -1.64153,-1.84378 -0.14526,-0.31184 -0.32372,-0.82205 -0.39657,-1.1338 l -0.13243,-0.5668 -0.3945,0.0536 c -0.21697,0.0295 -0.75178,0.099 -1.18845,0.15424 -0.43666,0.0553 -0.81588,0.12255 -0.84266,0.14934 -0.10174,0.10174 0.29901,1.517 0.60359,2.13088 0.46261,0.93238 0.86734,1.47929 1.64219,2.2191 1.52282,1.45398 3.01626,1.86313 4.40585,1.20707 z m -75.188764,-4.7984 c 0.592944,-0.45545 1.07808,-0.86329 1.07808,-0.90633 0,-0.0658 -1.005767,-1.39642 -4.165811,-5.51131 l -0.461457,-0.60089 1.184273,-0.9015 c 0.756384,-0.57579 1.163823,-0.95481 1.127671,-1.04902 -0.139294,-0.36299 -1.398703,-1.85968 -1.508471,-1.79267 -0.06596,0.0402 -1.664048,1.25837 -3.551344,2.70692 -2.180404,1.6735 -3.404064,2.67975 -3.356338,2.76002 0.353767,0.59496 1.397801,1.79869 1.519536,1.75198 0.08103,-0.0311 0.62154,-0.42174 1.201121,-0.86813 0.579583,-0.44635 1.079949,-0.81156 1.111927,-0.81156 0.03196,0 1.098944,1.36055 2.371041,3.02343 1.272095,1.66288 2.326129,3.02426 2.342295,3.02529 0.01618,10e-4 0.514532,-0.37076 1.107477,-0.82623 z m 9.738676,-5.98828 c 1.981473,-0.95602 3.616311,-1.75165 3.632972,-1.76806 0.07312,-0.072 -0.948535,-2.11214 -1.057689,-2.11214 -0.06688,0 -1.02992,0.44259 -2.14018,0.98352 -1.11026,0.54093 -2.17679,1.05216 -2.370055,1.13603 l -0.351388,0.15253 -0.345374,-0.70039 c -0.189955,-0.3852 -0.323554,-0.71583 -0.296893,-0.73475 0.02662,-0.0188 0.996596,-0.49041 2.155403,-1.0478 1.158793,-0.5574 2.120944,-1.02349 2.138117,-1.03577 0.06038,-0.0431 -0.873315,-1.99477 -0.954306,-1.99477 -0.0451,0 -1.040964,0.46191 -2.213069,1.02645 -1.172103,0.56453 -2.140397,1.02644 -2.151759,1.02644 -0.01145,0 -0.160337,-0.29226 -0.331057,-0.64947 -0.186896,-0.39102 -0.270039,-0.68449 -0.208946,-0.73751 0.0558,-0.0484 1.098197,-0.56539 2.316416,-1.1488 1.218217,-0.58342 2.254429,-1.0957 2.302682,-1.13838 0.04827,-0.0427 -0.144963,-0.54608 -0.429358,-1.1186 -0.417003,-0.83944 -0.554181,-1.02919 -0.708672,-0.98015 -0.190974,0.0606 -6.832184,3.27994 -7.071983,3.42815 -0.12658,0.0781 0.02802,0.41454 3.076825,6.69362 0.656429,1.35194 1.241245,2.45807 1.299574,2.45807 0.05834,0 1.727266,-0.78221 3.70874,-1.73822 z m 51.284668,0.51659 c 0.32992,-0.11898 0.42844,-0.28329 1.26954,-2.11776 0.50154,-1.09385 0.91187,-2.02299 0.91187,-2.06476 0,-0.0828 -3.99567,-1.94302 -4.17362,-1.94302 -0.085,0 -0.52051,0.85916 -0.88656,1.74926 -0.0199,0.0481 0.357,0.26474 0.83736,0.48122 0.48037,0.2165 0.8734,0.43123 0.8734,0.47722 0,0.046 -0.0984,0.31311 -0.21864,0.59363 l -0.21861,0.51001 -0.59115,-0.0609 c -1.1498,-0.11871 -2.28836,-0.99217 -2.54904,-1.95564 -0.42366,-1.56575 0.60637,-3.31749 2.13762,-3.63537 1.02803,-0.21342 2.20055,0.26228 2.84441,1.15403 0.14857,0.20576 0.34927,0.47887 0.446,0.60692 l 0.17589,0.2328 1.12068,-0.52356 c 0.61637,-0.28796 1.13873,-0.53899 1.16079,-0.55787 0.10052,-0.0859 -0.62525,-1.13418 -1.20343,-1.73818 -0.73406,-0.76686 -2.22068,-1.58692 -3.20032,-1.76537 -2.55773,-0.46594 -4.84703,0.64772 -5.89791,2.86908 -1.6205,3.42548 0.41047,6.90046 4.53508,7.75946 0.47571,0.0992 2.29097,0.0499 2.62664,-0.071 z m -43.43275,-3.63325 c 0.67317,-0.1717 1.24986,-0.33809 1.28152,-0.36975 0.0468,-0.0467 -0.29809,-1.69122 -0.57313,-2.73383 -0.0549,-0.20812 0.003,-0.24749 0.53841,-0.36736 l 0.5999,-0.13425 1.34514,1.25119 c 0.93217,0.86709 1.40619,1.23739 1.544,1.2062 0.67598,-0.15302 2.90349,-0.71767 2.92807,-0.74226 0.0163,-0.0163 -0.42093,-0.43294 -0.97162,-0.92588 -0.5507,-0.49294 -1.25583,-1.13437 -1.56697,-1.42544 l -0.56569,-0.52919 0.37229,-0.32686 c 0.48513,-0.42596 0.91868,-1.32513 0.99486,-2.06334 0.11491,-1.11326 -0.4753,-2.4998 -1.31622,-3.09212 -0.71745,-0.50534 -1.10707,-0.61305 -2.21495,-0.61228 -0.8842,6.5e-4 -1.38204,0.088 -3.592539,0.63045 -1.411357,0.34637 -2.566112,0.67375 -2.566112,0.7275 0,0.0984 2.24108,9.43699 2.325191,9.68908 0.05847,0.17542 0.01618,0.18077 1.43785,-0.18186 z m 0.0295,-5.92181 c -0.30063,-1.15259 -0.44316,-1.74442 -0.44316,-1.84006 0,-0.1453 1.71649,-0.56491 2.31081,-0.56491 1.19628,0 1.66944,1.37015 0.7145,2.06907 -0.14856,0.10879 -0.63477,0.28872 -1.08046,0.39998 -1.54245,0.38502 -1.38279,0.39182 -1.50169,-0.0641 z m 28.82181,5.04522 c 0.92171,-0.14958 1.84979,-0.63392 2.32435,-1.21308 0.72033,-0.87904 0.9821,-1.65714 1.6364,-4.86379 0.33697,-1.65141 0.58986,-3.06197 0.562,-3.13458 -0.0516,-0.13454 -2.6236,-0.69851 -2.72466,-0.59746 -0.0305,0.0305 -0.32195,1.3829 -0.64764,3.00531 -0.76774,3.82433 -0.98316,4.21549 -2.32145,4.21549 -1.00495,0 -1.60647,-0.43419 -1.84891,-1.33459 -0.10488,-0.38907 -0.0448,-0.81466 0.50166,-3.55362 0.34137,-1.71139 0.6014,-3.12624 0.57784,-3.14411 -0.14322,-0.10879 -2.70635,-0.56426 -2.75272,-0.48924 -0.0312,0.0504 -0.32818,1.39282 -0.66003,2.98305 -0.70353,3.37136 -0.77471,4.40672 -0.37391,5.43903 0.63288,1.63005 2.29789,2.58099 4.87832,2.78613 0.0892,0.007 0.47107,-0.0372 0.84875,-0.0986 z m -13.05801,-1.39314 c 2.45701,-0.19617 3.55744,-1.07542 3.56317,-2.84698 0.004,-1.13778 -0.3723,-1.72484 -1.45101,-2.26557 l -0.53498,-0.26817 0.33304,-0.17223 c 0.7736,-0.40002 1.16502,-1.21179 1.09487,-2.27054 -0.0629,-0.94677 -0.43685,-1.47528 -1.36936,-1.9346 -0.67835,-0.33412 -0.78113,-0.35253 -2.17331,-0.38936 -0.8037,-0.0213 -2.29609,-0.004 -3.31645,0.0382 l -1.85518,0.077 0.0431,0.3399 c 0.0238,0.18695 0.0743,2.46706 0.11209,5.06694 l 0.0689,4.72702 2.17521,-0.005 c 1.19636,-0.002 2.68573,-0.0463 3.30968,-0.096 z m -2.74352,-3.04811 c -0.0394,-0.47244 -0.0431,-0.90515 -0.009,-0.96155 0.0349,-0.0565 0.63181,-0.10238 1.32655,-0.10238 1.44296,1.5e-4 1.94174,0.16053 2.12281,0.68247 0.12957,0.37342 -0.0875,0.82343 -0.4854,1.00648 -0.1464,0.0674 -0.85522,0.14755 -1.57513,0.17822 l -1.30894,0.0557 -0.0716,-0.859 z m -0.0657,-3.84542 c 0,-1.00981 -0.0162,-0.99678 1.24254,-0.99823 1.3676,-0.001 1.83509,0.26148 1.76221,0.99165 -0.0584,0.58426 -0.42789,0.75152 -1.80465,0.81676 l -1.2001,0.0568 z"
     style="fill:#000000;stroke-width:0.1080464" />
  <circle
     r="75.27887"
     cy="89.784019"
     cx="116.89124"
     id="path4516"
     style="opacity:1;fill:none;fill-opacity:1;stroke:#000000;stroke-width:0.62335807;stroke-miterlimit:4;stroke-dasharray:none;stroke-opacity:1" />
  <text
     id="text4520"
     y="179.60712"
     x="90.853813"
     style="font-style:normal;font-weight:normal;font-size:13.33333302px;line-height:1.25;font-family:sans-serif;letter-spacing:0px;word-spacing:0px;fill:#000000;fill-opacity:1;stroke:none"
     xml:space="preserve"><tspan
       y="179.60712"
       x="90.853813"
       id="tspan4518">40.00mm</tspan></text>
</svg>
