<?xml version="1.0" encoding="UTF-8" standalone="no"?>
<svg
   xmlns:dc="http://purl.org/dc/elements/1.1/"
   xmlns:cc="http://creativecommons.org/ns#"
   xmlns:rdf="http://www.w3.org/1999/02/22-rdf-syntax-ns#"
   xmlns:svg="http://www.w3.org/2000/svg"
   xmlns="http://www.w3.org/2000/svg"
   viewBox="0 0 888 666"
   height="666"
   width="888"
   id="svg2557"
   version="1.1">
  <metadata
     id="metadata2563">
    <rdf:RDF>
      <cc:Work
         rdf:about="">
        <dc:format>image/svg+xml</dc:format>
        <dc:type
           rdf:resource="http://purl.org/dc/dcmitype/StillImage" />
        <dc:title></dc:title>
      </cc:Work>
    </rdf:RDF>
  </metadata>
  <defs
     id="defs2561">
    <marker
       id="Arrow1Lstart"
       orient="auto"
       refX="0.0"
       refY="0.0"
       style="overflow:visible">
      <path
         d="M 0.0,0.0 L 5.0,-5.0 L -12.5,0.0 L 5.0,5.0 L 0.0,0.0 z "
         transform="scale(0.8) translate(12.5,0)"
         style="fill-rule:evenodd;stroke:#000000;stroke-width:1.0pt;marker-start:none"
         id="path2572" />
    </marker>
    <marker
       id="Arrow1Lend"
       orient="auto"
       refX="0.0"
       refY="0.0"
       style="overflow:visible">
      <path
         d="M 0.0,0.0 L 5.0,-5.0 L -12.5,0.0 L 5.0,5.0 L 0.0,0.0 z "
         transform="scale(0.8) rotate(180) translate(12.5,0)"
         style="fill-rule:evenodd;stroke:#000000;stroke-width:1.0pt;marker-start:none"
         id="path2575" />
    </marker>
  </defs>
  <path
     style="fill:#000000;stroke-width:0.44463077"
     d="m 343.69685,402.62239 c -0.62742,-1.01516 0.17112,-2.67424 1.4327,-2.97665 1.58467,-0.37987 3.79644,-1.4927 4.21041,-2.11841 0.17967,-0.27156 0.32973,-6.90821 0.33348,-14.74811 0.007,-15.43771 -0.0916,-16.12442 -2.258,-15.6582 -0.58846,0.12665 -1.42007,0.37744 -1.84803,0.55732 -1.76488,0.74184 -0.61897,-0.75224 1.77852,-2.3189 1.40615,-0.91886 2.65666,-1.79098 2.77894,-1.93805 0.42316,-0.509 6.13256,-3.06985 6.84419,-3.06985 0.62102,0 0.71622,0.8001 0.72743,6.11368 l 0.0129,6.11367 1.64149,-3.11242 c 1.97259,-3.74019 6.16355,-8.11728 9.28819,-9.70065 4.2451,-2.15116 11.22819,-2.64508 13.77777,-0.97453 1.50064,0.98325 1.48142,3.84238 -0.036,5.35982 -1.73192,1.73193 -4.05153,1.50314 -6.96653,-0.68715 -2.68328,-2.01618 -3.8422,-2.17309 -6.77271,-0.91692 -2.61178,1.11954 -5.20057,3.74125 -6.65956,6.74424 -1.9915,4.09899 -2.5199,7.92019 -2.5199,18.22282 v 9.31917 l 1.14052,0.43364 c 0.62729,0.23849 1.73204,0.43362 2.45501,0.43362 0.97574,0 1.44692,0.29069 1.82843,1.12799 0.83955,1.84263 -0.11503,2.25762 -6.98017,3.0348 -10.25681,1.1611 -13.84222,1.35263 -14.20906,0.75907 z m -54.26407,-0.92894 c -11.69181,-1.72657 -24.48296,-4.62443 -24.87055,-5.63448 -0.13766,-0.35874 -0.13111,-1.12716 0.0146,-1.7076 0.2342,-0.93319 0.5558,-1.07063 2.77853,-1.1874 l 2.51368,-0.13206 0.3707,-49.13171 c 0.20388,-27.02243 0.40628,-49.16736 0.44976,-49.21094 0.0435,-0.0436 1.67743,0.28982 3.63098,0.7409 1.95356,0.45108 4.55234,0.9642 5.77507,1.14026 1.22273,0.17607 2.67334,0.48799 3.22358,0.69315 l 1.00041,0.37302 v 49.77432 49.77433 l 1.44505,0.33721 c 2.85366,0.66591 10.62098,0.31486 13.52754,-0.61138 12.92858,-4.12001 23.42738,-18.49436 27.24065,-37.29632 0.64447,-3.17761 0.91594,-6.21838 0.91594,-10.25931 0,-18.41628 -7.64731,-34.40185 -21.30016,-44.52483 -6.8869,-5.10632 -15.11282,-8.46995 -25.67058,-10.49686 -3.1449,-0.60376 -7.71884,-1.51805 -10.1643,-2.03174 -6.86804,-1.44265 -11.15849,-0.94697 -13.8432,1.59934 -1.07579,1.02033 -2.38537,4.24545 -2.37606,5.85153 0.0137,2.3677 1.35568,5.05322 3.37869,6.7614 1.6074,1.35722 1.63093,1.40959 0.34574,0.76935 -1.56244,-0.77836 -3.82227,-3.19946 -4.86076,-5.2077 -0.99922,-1.93228 -0.93772,-6.29138 0.11417,-8.09248 1.62295,-2.77885 5.35498,-4.32821 10.42569,-4.32821 1.2405,0 7.08311,0.88916 12.98356,1.97591 5.90046,1.08675 13.32921,2.30173 16.50831,2.69995 12.02458,1.50622 17.4937,3.36237 25.32736,8.59572 3.86734,2.58363 10.12604,8.70745 12.79267,12.51701 9.12141,13.03089 12.56222,30.80767 8.95035,46.2416 -3.93383,16.80973 -14.78297,31.7275 -27.4734,37.77645 -6.86409,3.27179 -12.45859,3.81098 -23.15402,2.23157 z m 102.21763,-5.68036 c -1.42804,-0.47779 -3.85185,-2.2712 -4.82882,-3.57289 -0.58481,-0.77918 -0.93345,-2.08982 -1.05226,-3.95568 -0.14913,-2.3421 0.0122,-3.17833 1.00373,-5.2051 2.32539,-4.75293 6.48735,-7.93941 18.68694,-14.30714 l 5.68293,-2.96627 -0.27669,-2.04913 c -0.35154,-2.60342 -1.37058,-4.00593 -3.85465,-5.30515 -1.61796,-0.84621 -2.4569,-0.99622 -4.64261,-0.83012 -4.875,0.37048 -10.97881,3.23698 -12.86336,6.04096 -1.13635,1.69077 -1.07074,2.01288 0.4137,2.03077 1.07082,0.0129 1.36415,0.23041 1.48728,1.10275 0.27601,1.95545 -2.62654,3.04611 -4.12329,1.54936 -0.98976,-0.98975 -0.86803,-2.56062 0.3863,-4.98511 3.32011,-6.41743 11.38725,-10.76752 19.96809,-10.76752 5.95805,0 10.53973,2.17136 12.66562,6.00251 0.63634,1.14679 0.75991,3.26588 0.88095,15.1076 0.0819,8.02197 0.32091,13.99073 0.57213,14.29344 0.64452,0.77658 1.90253,0.27031 3.54878,-1.4282 2.61677,-2.69982 3.10488,-1.6483 0.54841,1.1814 -2.31093,2.55792 -4.64616,3.63151 -8.36716,3.84669 -2.57329,0.14881 -3.36272,0.0223 -4.55747,-0.73071 -1.34551,-0.84796 -1.44504,-1.07954 -1.44504,-3.36268 0,-1.3486 -0.0834,-2.452 -0.18536,-2.452 -0.10192,0 -1.45252,1.32296 -3.00126,2.93994 -3.04096,3.17492 -5.32773,4.90809 -8.73129,6.6176 -2.25445,1.13235 -6.29423,1.74717 -7.9156,1.20468 z m 11.09953,-7.56133 c 1.18771,-0.64392 3.63874,-2.66448 5.44673,-4.49013 l 3.28725,-3.31938 v -5.22817 c 0,-2.8755 -0.15307,-5.32278 -0.34016,-5.43841 -0.43038,-0.26599 -7.08905,3.03577 -10.42203,5.16786 -5.05623,3.23442 -7.9123,6.65687 -7.9123,9.48136 0,1.68734 1.67132,4.17469 3.2905,4.89707 1.74954,0.78056 3.86385,0.44029 6.65001,-1.0702 z m 133.01892,6.07684 c -1.40684,-0.38484 -2.88097,-1.94695 -2.88097,-3.05291 0,-0.45773 0.2479,-0.34473 0.79029,0.36021 1.10459,1.43564 3.88277,2.01325 5.27998,1.09776 2.39561,-1.56966 3.07398,-5.39124 1.4344,-8.08063 -1.29988,-2.13221 -1.8434,-2.59542 -4.47704,-3.81561 -5.30525,-2.45796 -10.27162,-1.92631 -20.61031,2.20636 -3.91276,1.56403 -8.01448,3.07497 -9.11493,3.35763 -2.91967,0.74993 -8.87258,1.71173 -10.67115,1.72411 -2.11847,0.0146 -0.8917,-0.6441 1.97009,-1.0578 2.40767,-0.34806 7.27534,-1.73515 9.368,-2.66953 5.12297,-2.28739 11.79417,-4.8041 14.3335,-5.4073 4.1898,-0.99525 10.38369,-1.02333 13.49467,-0.0611 2.65523,0.8212 6.21627,3.576 7.25998,5.61627 0.32971,0.6445 0.7374,2.00227 0.90597,3.01726 0.68565,4.12829 -3.18979,7.8302 -7.08248,6.76535 z m 11.97768,-10e-4 c -3.2581,-0.86819 -4.99869,-4.86389 -3.75731,-8.62531 0.7997,-2.4231 3.82453,-5.23949 6.92785,-6.45043 2.14547,-0.83719 3.4405,-1.01963 7.07267,-0.9964 2.44547,0.0157 5.4169,0.25598 6.60316,0.5341 2.2749,0.53334 13.06877,4.59115 14.96143,5.62453 1.57472,0.85979 6.69906,2.3303 9.34241,2.68096 2.42691,0.32194 3.49651,1.08409 1.46613,1.04468 -1.55033,-0.0301 -7.74392,-1.06218 -10.16605,-1.69406 -1.61975,-0.42258 -10.63561,-3.88385 -12.86984,-4.94085 -2.4471,-1.15773 -6.555,-1.95352 -10.22649,-1.98109 -3.594,-0.0269 -4.27151,0.10583 -6.65016,1.30384 -3.16491,1.59399 -5.11075,3.87513 -5.44756,6.38625 -0.30121,2.24559 0.41846,4.08773 2.07558,5.31289 1.63574,1.20936 4.12017,0.88358 5.36897,-0.70402 0.59335,-0.75433 0.8738,-0.89336 0.8738,-0.43321 0,1.9626 -3.10132,3.59716 -5.57459,2.93812 z m -118.62173,-5.45372 c -0.40724,-1.06128 0.19388,-2.44492 1.19276,-2.7454 2.02067,-0.60784 3.78593,-1.62126 4.06542,-2.33392 0.16042,-0.40907 0.27891,-18.55123 0.26332,-40.3159 -0.0309,-43.06325 0.26443,-53.30354 1.67949,-58.24663 2.48552,-8.68238 6.89132,-14.38553 13.35347,-17.28557 3.23892,-1.45354 5.1379,-1.4549 2.67528,-10e-4 -2.00359,1.18216 -4.49448,4.26943 -5.46924,6.77871 -1.84285,4.74394 -2.03515,7.28111 -2.06353,27.22479 -0.0151,10.55352 0.0642,19.27969 0.17593,19.39147 0.11184,0.11184 3.60178,-0.45206 7.75553,-1.25296 l 7.55229,-1.45619 0.19275,-16.47685 c 0.21627,-18.48769 0.576,-21.18058 3.69578,-27.66687 0.84414,-1.75505 1.52723,-3.3567 1.51797,-3.55922 -0.0372,-0.81423 -4.11963,-3.52442 -6.31455,-4.19204 l -2.33891,-0.71141 2.04628,-0.32963 c 1.63309,-0.26308 2.50563,-0.13203 4.32116,0.64898 1.25118,0.53824 2.50575,1.25682 2.78794,1.59684 0.79324,0.9558 1.38926,0.76031 3.53271,-1.15867 2.23018,-1.99664 5.65437,-3.83732 7.98724,-4.29357 1.41623,-0.27698 1.50131,-0.23762 0.94598,0.43758 -0.33563,0.40807 -0.86513,0.74193 -1.17668,0.74193 -0.88687,0 -3.35152,3.05995 -4.51945,5.61106 -2.26887,4.95585 -2.46993,7.00756 -2.68713,27.4212 -0.11135,10.4645 -0.10584,19.27827 0.0124,19.58614 0.16817,0.43824 1.50405,0.35077 6.15417,-0.40296 3.26667,-0.52949 6.88978,-1.08597 8.05138,-1.23661 l 2.11199,-0.27391 v 1.94628 1.94629 l -3.89052,0.56425 c -2.13977,0.31036 -5.79131,0.89303 -8.1145,1.29486 l -4.224,0.73058 -0.11454,27.71372 c -0.083,20.10023 0.0235,27.88005 0.38791,28.31915 0.29289,0.35292 1.36991,0.60544 2.58225,0.60544 1.14389,0 2.31989,0.2401 2.61335,0.53356 0.71476,0.71475 0.67494,1.90799 -0.0847,2.53843 -0.34004,0.28222 -4.49178,1.20401 -9.22608,2.04843 -4.73432,0.84444 -9.14416,1.6513 -9.79967,1.79303 -0.91083,0.19696 -1.30761,0.0413 -1.683,-0.66008 -0.67972,-1.27006 0.084,-2.54983 1.73867,-2.91325 0.72419,-0.15905 1.82631,-0.69005 2.44917,-1.17998 l 1.13244,-0.89094 v -27.97946 c 0,-22.0881 -0.11699,-27.9791 -0.55579,-27.97771 -0.30567,8.9e-4 -3.73248,0.60122 -7.61512,1.3339 -3.88263,0.73266 -7.13399,1.33212 -7.22524,1.33212 -0.0913,0 -0.16593,12.69627 -0.16593,28.21391 v 28.2139 l 1.44506,0.23622 c 0.79477,0.12992 2.04529,0.28905 2.77894,0.35361 1.06616,0.0938 1.36072,0.34817 1.46753,1.26706 0.0735,0.63229 -0.12658,1.35103 -0.44463,1.59719 -0.31805,0.24616 -3.57953,1.00585 -7.24774,1.6882 -3.66819,0.68234 -7.76193,1.51424 -9.09718,1.84868 -3.08597,0.77293 -4.30727,0.76869 -4.60839,-0.0161 z m 158.87752,-8.90148 c -6.02496,-1.39408 -9.7038,-3.18026 -15.45092,-7.5018 -2.31129,-1.73798 -2.33431,-1.77898 -2.33431,-4.15716 v -2.40188 l 2.11199,2.18829 c 4.6428,4.81047 13.15715,8.94843 18.41249,8.94843 2.52955,0 2.81402,-0.10645 4.19344,-1.56905 3.36713,-3.5702 2.1492,-8.34727 -3.23325,-12.68181 -1.04734,-0.84345 -3.65874,-2.58026 -5.80311,-3.85959 -2.14436,-1.27933 -4.09893,-2.47983 -4.34348,-2.66778 -0.24454,-0.18795 -1.57284,-1.07931 -2.95176,-1.98078 -3.60043,-2.35379 -6.92288,-5.82873 -7.53894,-7.88498 -0.70363,-2.3485 -0.21326,-3.93219 1.81494,-5.86157 3.39901,-3.2334 8.10096,-3.82376 15.62579,-1.96192 5.48918,1.35817 8.31774,2.83135 11.541,6.01086 3.39719,3.35109 5.17288,7.96409 3.94719,10.25431 -0.61746,1.15373 -1.84094,1.08523 -3.01927,-0.16904 -1.28444,-1.36723 -1.22848,-2.44535 0.1448,-2.79002 1.30096,-0.32651 1.29808,-0.31539 0.48258,-1.87203 -1.44942,-2.76665 -5.11693,-5.27363 -9.85645,-6.73752 -3.50374,-1.08219 -5.98051,-1.15605 -7.91907,-0.23614 -1.55747,0.73906 -2.93776,2.70701 -2.93776,4.18852 0,2.92501 3.15944,6.58988 7.96581,9.24013 5.34809,2.94895 11.45989,7.17969 13.74899,9.51738 3.0126,3.07654 3.85517,4.87132 3.8359,8.17093 -0.0186,3.18488 -0.90512,4.77097 -3.36936,6.02813 -2.37947,1.21392 -9.32244,1.11535 -15.06724,-0.21391 z m -94.26171,-2.65412 c -8.11215,-1.80032 -13.33893,-8.87517 -13.33893,-18.05523 0,-10.57131 7.43181,-20.40108 17.3406,-22.93571 4.29393,-1.09837 9.87384,-0.69451 13.12394,0.9499 4.56902,2.3117 8.21833,7.64439 8.21833,12.0093 0,1.96165 -0.58672,2.19803 -6.44714,2.5975 -3.98658,0.27174 -16.01317,1.63603 -20.34186,2.30756 l -1.66736,0.25867 0.01,3.85145 c 0.0176,7.25823 2.92171,12.52046 8.15109,14.77008 2.9551,1.27125 8.2531,1.06847 11.73303,-0.44907 2.13272,-0.93004 5.45045,-3.89847 5.45045,-4.87661 0,-0.22384 0.11576,-0.70867 0.25726,-1.07739 0.18577,-0.48414 -0.0922,-0.71043 -1.00043,-0.81447 -2.3003,-0.26349 -1.82793,-3.92343 0.50638,-3.92343 1.30307,0 2.45994,1.33007 2.45994,2.82824 0,5.24163 -8.60136,11.5805 -16.98189,12.515 -1.29776,0.14471 -2.9598,0.33596 -3.69345,0.42501 -0.73363,0.0891 -2.43435,-0.0823 -3.77935,-0.3808 z m 12.44966,-28.93829 c 3.54592,-0.41557 6.52922,-0.83675 6.62953,-0.93592 0.47358,-0.46818 -0.99719,-3.75575 -2.42809,-5.42745 -4.18986,-4.8949 -12.38198,-3.69326 -16.58732,2.43308 -1.0894,1.58702 -2.38384,4.9596 -2.08758,5.43897 0.10633,0.17205 1.95575,0.073 4.10982,-0.22012 2.15407,-0.29313 6.81771,-0.87297 10.36364,-1.28856 z m 55.57884,27.76548 c -1.83411,-0.18694 -5.67155,-0.47931 -8.52765,-0.6497 -5.58276,-0.33306 -6.05379,-0.57289 -5.25444,-2.67534 0.28571,-0.75148 0.76083,-1.10772 1.47739,-1.10772 0.58093,0 1.66196,-0.21115 2.40229,-0.46923 1.0806,-0.3767 1.39962,-0.79321 1.61766,-2.11199 0.46985,-2.84181 0.30451,-20.55425 -0.22045,-23.61557 -0.98774,-5.76019 -3.08555,-8.03507 -7.41244,-8.03812 -2.78954,-10e-4 -4.34708,0.71629 -6.2479,2.8812 l -1.39989,1.59439 v 13.73633 c 0,15.4524 -0.15376,14.74633 3.40655,15.64283 1.39722,0.35183 2.15205,0.82783 2.49043,1.5705 0.98567,2.16332 0.19627,2.33522 -10.94519,2.38335 -5.58631,0.0241 -10.25628,-0.0555 -10.37771,-0.1769 -0.1214,-0.1214 -0.0887,-0.82231 0.0728,-1.5575 0.22974,-1.04599 0.60158,-1.40302 1.70967,-1.64155 0.77885,-0.16767 1.96632,-0.58601 2.63883,-0.92966 l 1.22273,-0.6248 v -15.09757 -15.09756 l -1.11482,-0.27979 c -0.6933,-0.17401 -1.52512,-0.011 -2.19996,0.43121 -1.07106,0.7018 -1.80433,0.43645 -1.21334,-0.43906 1.03011,-1.52607 10.94305,-6.39876 13.01755,-6.39876 1.28351,0 1.29245,0.0185 1.29245,2.67291 v 2.6729 l 2.46595,-2.00854 c 3.49584,-2.84741 5.14795,-3.45609 8.7277,-3.21557 2.1175,0.14229 3.52334,0.5249 4.90605,1.33522 2.88765,1.69227 5.93986,4.96726 7.4548,7.99893 l 1.34482,2.69121 v 11.65613 c 0,6.41087 0.12127,12.2623 0.26941,13.00317 0.22171,1.10854 0.63501,1.48106 2.33431,2.10392 2.2762,0.83433 3.62112,2.08928 3.62112,3.3789 0,0.9456 -1.35571,1.01407 -7.55873,0.38183 z M 261.18999,307.99972 c 3.14117,-0.27626 3.81188,-1.34881 2.46588,-3.94321 -0.83039,-1.6006 -0.25152,-2.30436 1.31015,-1.59281 1.55703,0.70942 1.57408,3.23341 0.0322,4.77522 -0.91165,0.91165 -1.47908,1.07858 -3.44588,1.01369 l -2.35452,-0.0777 z m 227.50628,-27.16039 c -0.96183,-1.0628 -0.92819,-1.54279 0.17827,-2.54412 0.7205,-0.65205 1.08212,-0.72238 1.70716,-0.33205 1.02753,0.64171 1.57967,0.26455 2.41008,-1.64629 l 0.67629,-1.5562 0.0363,1.91176 c 0.0759,4.0022 -2.90931,6.48601 -5.00808,4.1669 z m 5.78749,-6.24317 c -0.62288,-5.95935 -4.7474,-10.91002 -10.30271,-12.36634 -1.15584,-0.30301 -0.99587,-0.36831 1.19837,-0.48919 5.84293,-0.32188 10.27049,4.43854 10.27049,11.04263 0,4.15511 -0.79256,5.38722 -1.16615,1.8129 z"
     id="path2567" />
  <g
     style="fill:none;stroke:#000000"
     transform="matrix(1.1968041,0,0,1.1968041,-122.94259,-103.16304)"
     id="g2594">
    <path
       style="stroke-width:1;marker-start:url(#Arrow1Lstart);marker-end:url(#Arrow1Lend)"
       d="M 300.72748,150.22374 H 622.75397"
       id="path2581" />
    <path
       style="stroke-width:0.5"
       d="M 300.72748,100.22374 V 522.25023"
       id="path2583" />
    <path
       style="stroke-width:0.5"
       d="M 622.75397,100.22374 V 522.25023"
       id="path2585" />
    <path
       style="stroke-width:1;marker-start:url(#Arrow1Lstart);marker-end:url(#Arrow1Lend)"
       d="M 210.72748,200.22374 V 522.25023"
       id="path2587" />
    <path
       style="stroke-width:0.5"
       d="M 200.72748,200.22374 H 622.75397"
       id="path2589" />
    <path
       style="stroke-width:0.5"
       d="M 200.72748,522.25023 H 622.75397"
       id="path2591" />
    <rect
       style="fill:none;fill-opacity:1;stroke:#000000;stroke-width:1;stroke-miterlimit:4;stroke-dasharray:none;stroke-opacity:1"
       id="rect2569"
       width="321.02649"
       height="321.02649"
       x="301.22748"
       y="200.72374" />
  </g>
  <text
     id="text2614"
     y="104.55721"
     x="390.32297"
     style="font-style:normal;font-weight:normal;font-size:40px;line-height:1.25;font-family:sans-serif;letter-spacing:0px;word-spacing:0px;fill:#000000;fill-opacity:1;stroke:none"
     xml:space="preserve"><tspan
       style="font-size:20px"
       y="104.55721"
       x="390.32297"
       id="tspan2612">50mm</tspan></text>
  <text
     id="text2618"
     y="342.14508"
     x="145.05383"
     style="font-style:normal;font-weight:normal;font-size:40px;line-height:1.25;font-family:sans-serif;letter-spacing:0px;word-spacing:0px;fill:#000000;fill-opacity:1;stroke:none"
     xml:space="preserve"><tspan
       style="font-size:20px"
       y="342.14508"
       x="145.05383"
       id="tspan2616">50mm</tspan></text>
</svg>
