<?xml version="1.0" encoding="UTF-8" standalone="no"?>
<!-- Created with Inkscape (http://www.inkscape.org/) -->

<svg
   xmlns:dc="http://purl.org/dc/elements/1.1/"
   xmlns:cc="http://creativecommons.org/ns#"
   xmlns:rdf="http://www.w3.org/1999/02/22-rdf-syntax-ns#"
   xmlns:svg="http://www.w3.org/2000/svg"
   xmlns="http://www.w3.org/2000/svg"
   xmlns:sodipodi="http://sodipodi.sourceforge.net/DTD/sodipodi-0.dtd"
   xmlns:inkscape="http://www.inkscape.org/namespaces/inkscape"
   version="1.1"
   id="svg442"
   width="1080"
   height="1080"
   viewBox="0 0 1080 1080"
   sodipodi:docname="6072209_AVATAR-SEP-2017.svg"
   inkscape:version="0.92.2 5c3e80d, 2017-08-06">
  <metadata
     id="metadata448">
    <rdf:RDF>
      <cc:Work
         rdf:about="">
        <dc:format>image/svg+xml</dc:format>
        <dc:type
           rdf:resource="http://purl.org/dc/dcmitype/StillImage" />
        <dc:title></dc:title>
      </cc:Work>
    </rdf:RDF>
  </metadata>
  <defs
     id="defs446" />
  <sodipodi:namedview
     pagecolor="#ffffff"
     bordercolor="#666666"
     borderopacity="1"
     objecttolerance="10"
     gridtolerance="10"
     guidetolerance="10"
     inkscape:pageopacity="0"
     inkscape:pageshadow="2"
     inkscape:window-width="1440"
     inkscape:window-height="805"
     id="namedview444"
     showgrid="false"
     inkscape:zoom="0.54814815"
     inkscape:cx="1103.982"
     inkscape:cy="570.18597"
     inkscape:window-x="0"
     inkscape:window-y="1"
     inkscape:window-maximized="1"
     inkscape:current-layer="svg442" />
  <path
     style="fill:#000000"
     d="m 488.63072,899.12779 c -29.8928,-2.8484 -66.36687,-9.8141 -88.5,-16.9015 -11.78762,-3.77456 -17.24334,-5.60005 -21.29,-7.12364 -47.02565,-17.70544 -89.11493,-42.18758 -124.21,-72.24945 -14.0789,-12.05975 -35.55751,-33.53836 -47.61726,-47.61726 -36.81347,-42.97708 -67.39611,-100.58053 -82.02664,-154.5 -6.03862,-22.25474 -8.33702,-34.09334 -13.0077,-67 -1.85929,-13.0994 -1.85929,-73.9006 0,-87 4.67386,-32.92902 6.99422,-44.87589 13.01298,-67 2.17815,-8.00655 8.22719,-26.85798 9.94728,-31 0.571,-1.375 2.71153,-6.775 4.75672,-12 14.34215,-36.64093 39.54856,-78.63863 66.3205,-110.5 9.73839,-11.5897 38.02442,-39.87573 49.61412,-49.61412 31.90598,-26.80942 73.83323,-51.974 110.5,-66.32168 5.225,-2.04454 10.625,-4.18271 12,-4.75149 3.99023,-1.6506 29.39043,-9.792931 30.58159,-9.803301 0.59488,-0.005 3.96988,-0.85386 7.5,-1.88597 18.09502,-5.29047 42.58157,-9.54474 69.91841,-12.14757 12.2685,-1.16812 54.73147,-1.16812 66.99997,0 27.3369,2.60283 51.8234,6.8571 69.9184,12.14757 3.5302,1.03211 6.9052,1.87946 7.5,1.883 1.2202,0.007 26.728,8.174071 30.5816,9.791271 1.375,0.57703 6.775,2.72248 12,4.76767 36.641,14.34215 78.6387,39.54856 110.5,66.3205 11.5897,9.73839 39.8758,38.02442 49.6142,49.61412 26.7719,31.86137 51.9783,73.85907 66.3205,110.5 2.0451,5.225 4.1906,10.625 4.7676,12 1.6172,3.85362 9.784,29.36144 9.7913,30.58159 0,0.59488 0.8509,3.96988 1.883,7.5 3.95129,13.51455 7.55139,32.18128 10.78459,55.91841 1.4843,10.89749 1.8388,20.05447 1.8388,47.5 0,27.44553 -0.3545,36.60251 -1.8388,47.5 -3.2332,23.73713 -6.8333,42.40386 -10.78459,55.91841 -1.0321,3.53012 -1.8795,6.90512 -1.883,7.5 -0.01,1.22015 -8.1741,26.72797 -9.7913,30.58159 -0.577,1.375 -2.7219,6.775 -4.7665,12 -14.2957,36.53408 -39.7829,78.98079 -66.3498,110.5 -10.4377,12.38338 -35.324,37.29431 -48.586,48.63404 -35.3091,30.19135 -77.1057,54.49764 -124.21,72.23267 -4.0466,1.52359 -9.5023,3.34908 -21.29,7.12364 -11.8517,3.79511 -28.3811,7.7216 -46,10.9271 -28.8065,5.241 -35.9705,5.8766 -68.99997,6.1218 -17.325,0.1286 -33.3,0.062 -35.5,-0.1474 z m 55.99997,-29.39427 c 34.8355,-2.809 59.6273,-7.59735 91.5,-17.6725 6.325,-1.99937 13.525,-4.43056 16,-5.40264 2.475,-0.97209 7.6182,-2.9739 11.4294,-4.44847 3.8111,-1.47458 7.6361,-3.06263 8.5,-3.52902 0.8638,-0.46638 6.9706,-3.38969 13.5706,-6.49624 14.2051,-6.68614 29.2065,-15.16933 43,-24.31607 5.5,-3.64717 10.4405,-6.81585 10.9788,-7.04153 0.5384,-0.22567 8.1884,-6.06557 17,-12.97755 26.0748,-20.45341 52.7469,-48.30738 75.2778,-78.61356 1.1297,-1.5195 8.5712,-12.76823 9.7265,-14.70269 0.5593,-0.93649 3.035,-4.98649 5.5015,-9 9.8782,-16.07383 21.6405,-39.48549 27.5308,-54.79731 4.3806,-11.38748 5.7861,-15.20151 7.9224,-21.5 10.0101,-29.51253 15.3502,-55.37389 18.5842,-90 2.4635,-26.37677 2.4635,-38.62323 0,-65 -2.8393,-30.40008 -5.7724,-46.11982 -14.0873,-75.5 -2.0072,-7.09212 -6.031,-19.51431 -7.8752,-24.31222 -8.0427,-20.92388 -16.9755,-40.08155 -26.4324,-56.68778 -1.4094,-2.475 -3.3086,-5.85 -4.2204,-7.5 -0.9117,-1.65 -5.0887,-8.11516 -9.2822,-14.36703 -4.1935,-6.25187 -8.0745,-12.07851 -8.6245,-12.9481 -1.9662,-3.10869 -15.9769,-20.81157 -21.9109,-27.68487 -7.7136,-8.93468 -29.0034,-30.23793 -38.0891,-38.11318 -5.4939,-4.76197 -19.219,-15.61496 -28.0019,-22.14221 -5.0284,-3.73701 -20.8347,-13.9713 -28.4981,-18.45195 -48.8257,-28.54778 -99.0008,-45.12281 -156,-51.53361 -41.43924,-4.66076 -94.47732,-0.59275 -135.99997,10.43116 -16.91957,4.492 -48.84629,15.79459 -61.5,21.77201 -12.33886,5.8287 -26.89624,13.31871 -32.5,16.72179 -1.925,1.16903 -4.4,2.62615 -5.5,3.23806 -14.14275,7.86729 -38.46048,25.58384 -56.5,41.16276 -8.58734,7.41602 -31.73048,30.54071 -38,37.9697 -17.05011,20.20333 -34.22613,44.97101 -45.03872,64.94547 -24.83865,45.88527 -38.37557,88.28846 -45.65176,143 -2.44718,18.40095 -2.42911,67.79048 0.0313,85.5 7.28345,52.42522 18.08466,88.10703 39.80625,131.5 6.82528,13.6348 7.37137,14.59002 17.72234,31 9.96827,15.80327 20.86414,30.65702 32.64267,44.5 4.91123,5.77203 37.54694,38.13183 43.83306,43.46249 3.21481,2.72618 8.38981,6.88517 11.5,9.2422 3.11018,2.35704 6.10488,4.63855 6.65488,5.07002 0.55,0.43148 3.25,2.34618 6,4.25489 2.75,1.90872 5.225,3.71233 5.5,4.00802 1.13729,1.22286 20.08768,12.96238 20.92437,12.96238 0.49993,0 1.05896,0.35418 1.2423,0.78707 0.88472,2.08903 32.40195,18.0642 48.33333,24.49876 26.98339,10.89838 56.33516,19.71259 75.39709,22.64141 4.0684,0.6251 7.70449,1.32653 8.08021,1.55873 0.89739,0.55462 25.06644,3.50775 36.5227,4.46258 12.79071,1.06604 40.07458,1.09128 53.00005,0.049 z m -50.49997,-9.58728 c -1.925,-0.22246 -8.675,-0.89646 -15,-1.49778 -89.32253,-8.49198 -177.72696,-54.041 -238.30073,-122.78077 -52.14561,-59.17541 -82.87781,-129.17063 -91.82167,-209.13175 -1.6628,-14.86598 -1.6628,-59.13402 0,-74 1.96019,-17.52476 5.67165,-38.43359 9.57996,-53.96949 21.08576,-83.81789 71.21864,-157.81275 141.8526,-209.37084 50.57441,-36.91596 108.28274,-59.62276 173.68984,-68.34267 19.2889,-2.57155 68.68687,-2.56628 88.49997,0.009 59.919,7.78949 111.4421,26.76433 160.5,59.10861 94.028,61.99341 155.6221,165.4736 165.0602,277.30674 1.5346,18.1833 0.6715,64.46618 -1.4874,79.75822 -3.8171,27.03831 -9.1613,49.47605 -17.6254,74 -31.4443,91.10784 -97.7345,166.72817 -183.9474,209.83794 -41.2891,20.64617 -78.8209,31.87274 -126,37.68929 -8.6182,1.06251 -58.5762,2.12585 -64.99997,1.3835 z m 68.66167,-7.79499 c 43.3844,-5.81194 78.5974,-16.3338 115.8383,-34.61316 29.1586,-14.31222 50.1855,-27.96045 74.8992,-48.61583 14.3696,-12.00989 37.9045,-35.91774 49.1591,-49.93801 38.7486,-48.27068 64.4371,-104.57483 75.3413,-165.13312 7.4996,-41.65025 7.3285,-88.43756 -0.4801,-131.31519 -10.4664,-57.47115 -36.923,-115.16876 -74.054,-161.5 -11.7613,-14.67541 -36.0273,-39.37455 -50.9994,-51.90961 -57.5662,-48.19609 -127.9562,-77.02834 -204.2834,-83.67591 -17.10472,-1.48971 -58.38427,-0.65859 -74.87727,1.50757 -105.59725,13.86897 -197.7049,70.14216 -256.51481,156.71779 -57.9041,85.24214 -77.18969,188.31563 -54.04727,288.86016 23.15921,100.61746 89.90785,188.26154 181.16083,237.87262 43.42372,23.60798 91.81461,38.26757 142.19585,43.07698 13.81991,1.31925 63.27967,0.45841 76.66167,-1.33429 z m -6.9196,-28.27114 c -0.2708,-0.46429 -0.7936,-3.54417 -1.1619,-6.84417 -0.3683,-3.3 -1.0985,-8.25 -1.6227,-11 -0.5242,-2.75 -2.0833,-12.2 -3.4648,-21 -1.3815,-8.8 -3.1919,-19.6 -4.0232,-24 -0.8313,-4.4 -1.6145,-10.68662 -1.7404,-13.97028 l -0.2291,-5.97027 5,-1.18373 c 2.75,-0.65105 6.18,-1.22693 7.6222,-1.27972 2.9225,-0.10699 2.731,-0.73716 5.4395,17.904 0.7592,5.225 2.0096,13.325 2.7788,18 0.7691,4.675 2.2006,13.45 3.181,19.5 0.9803,6.05 2.0516,11.30341 2.3805,11.67424 0.3289,0.37083 6.448,-0.20619 13.598,-1.28227 7.15,-1.07607 15.0433,-2.2185 17.5407,-2.53873 l 4.5407,-0.58224 1.0834,6.3645 c 1.397,8.2063 0.4356,9.44972 -7.9887,10.3324 -3.3968,0.35592 -9.7761,1.27957 -14.1761,2.05257 -4.4,0.77299 -11.375,1.86327 -15.5,2.42284 -4.125,0.55957 -8.6847,1.29361 -10.1327,1.63121 -1.4481,0.3376 -2.8544,0.23394 -3.1252,-0.23035 z m -77.11036,-2.05628 c -2.08036,-0.5346 -2.07059,-0.81967 0.84952,-24.78789 0.8041,-6.6 1.94569,-16.95 2.53687,-23 0.59118,-6.05 1.42262,-13.35737 1.84764,-16.23859 l 0.77277,-5.2386 -3.06925,-0.45739 c -5.90835,-0.88047 -10.10205,-1.58519 -14.06926,-2.36422 -4.39294,-0.86264 -4.4274,-0.98886 -2.99046,-10.9512 l 0.61301,-4.25 4.68872,0.004 c 2.5788,0.002 8.87624,0.68316 13.99431,1.51322 5.11807,0.83005 13.66807,1.96022 19,2.51147 5.33193,0.55126 12.28192,1.53535 15.44442,2.18687 5.49293,1.13161 5.74893,1.32093 5.72614,4.2345 -0.0256,3.27858 -1.4839,10.39102 -2.29722,11.20433 -0.27278,0.27278 -4.92463,0.0598 -10.33744,-0.47323 -6.69175,-0.65902 -10.04729,-0.63956 -10.48453,0.0608 -0.35368,0.56649 -0.93648,4.9063 -1.29512,9.64402 -0.35865,4.73771 -1.27378,13.56403 -2.03363,19.61403 -0.75985,6.05 -1.65564,13.7 -1.99064,17 -0.335,3.3 -1.10474,9.2625 -1.71052,13.25 l -1.10144,7.25 -6.1128,-0.116 c -3.36204,-0.0638 -6.95353,-0.33205 -7.98109,-0.59611 z m 163.91576,-16.53789 c -0.2144,-0.6875 -0.6252,-3.275 -0.913,-5.75 -1.6644,-14.3146 -3.7196,-30.33885 -4.6172,-36 -0.5668,-3.575 -1.4768,-11 -2.0221,-16.5 -1.4885,-15.0105 -1.6473,-16.48978 -2.4798,-23.09658 l -0.7682,-6.09659 6.7387,-3.15341 c 3.7063,-1.73438 7.3767,-3.15342 8.1564,-3.15342 0.7798,0 9.1668,7.92834 18.6378,17.61853 9.4709,9.69019 23.1824,23.6939 30.4699,31.11935 7.2875,7.42546 13.25,13.85202 13.25,14.28125 0,0.42923 -3.2625,2.38313 -7.25,4.342 l -7.25,3.56157 -7.0668,-7.00434 -7.0668,-7.00434 -4.4332,1.90842 c -2.4382,1.04964 -7.9458,3.60216 -12.239,5.67226 l -7.8058,3.76383 0.5438,5.12074 c 1.4787,13.92368 1.3909,14.52212 -2.4322,16.58256 -3.9675,2.13827 -10.1176,5.03817 -10.685,5.03817 -0.2077,0 -0.5531,-0.5625 -0.7675,-1.25 z m 18.7025,-45.45468 c 3.7125,-1.74344 6.75,-3.48966 6.75,-3.8805 0,-0.69805 -16.8917,-18.65201 -18.0543,-19.18956 -0.6592,-0.30485 0.3899,9.60716 2.1249,20.07512 0.6199,3.74021 1.4202,6.65739 1.7783,6.48261 0.3581,-0.17478 3.6886,-1.74423 7.4011,-3.48767 z m -273.48092,37.62381 c -10.76772,-2.53962 -22.01073,-12.48563 -25.05083,-22.16096 -3.57865,-11.38926 -2.08323,-21.68256 5.47101,-37.65836 4.64264,-9.81831 13.12853,-19.01799 21.31077,-23.10334 4.28972,-2.14183 6.34953,-2.49384 14.5,-2.47793 7.87846,0.0154 10.35344,0.42132 14.5,2.37827 16.01512,7.55828 23.0486,21.34464 19.83419,38.87706 -4.04433,22.05909 -16.82754,39.67914 -31.95021,44.03938 -4.6919,1.35279 -13.12481,1.40076 -18.61493,0.10588 z M 402.784,780.66174 c 9.98582,-4.83405 20.04322,-23.62006 19.16267,-35.79354 -1.19614,-16.5364 -19.40761,-22.39863 -30.99581,-9.97748 -4.4523,4.77232 -10.3458,16.53501 -11.88834,23.72763 -2.41757,11.27275 2.23638,19.8875 12.5682,23.26452 3.69971,1.20927 6.84385,0.86503 11.15328,-1.22113 z m 337.23389,-33.82625 c -3.1278,-3.77556 -21.0229,-23.07225 -32.0567,-34.56747 -16.54,-17.23168 -20.7682,-22.04039 -20.7993,-23.65472 -0.04,-2.08935 8.3734,-9.87204 10.6965,-9.89447 1.6133,-0.0156 25.0187,7.18238 29.7723,9.15598 3.468,1.43982 22.8939,7.86113 23.7818,7.86113 0.4668,0 -1.5432,-2.41944 -4.4665,-5.37653 -4.8148,-4.87026 -9.8825,-10.34676 -23.2485,-25.12347 -2.4875,-2.75 -4.5326,-5.69381 -4.5447,-6.54179 -0.025,-1.7238 7.9454,-9.95821 9.6385,-9.95821 0.5967,0 2.4875,1.64203 4.2018,3.64895 1.7143,2.00693 6.159,6.86041 9.8772,10.78552 3.7183,3.92512 11.4854,12.23738 17.2604,18.47169 5.775,6.23432 13.7625,14.63951 17.75,18.6782 3.9875,4.0387 7.25,8.0512 7.25,8.91667 0,2.41157 -8.8323,10.49897 -11.466,10.49897 -1.2554,0 -4.2516,-0.71091 -6.6582,-1.57981 -2.4067,-0.86889 -8.4258,-2.87701 -13.3758,-4.46248 -4.95,-1.58548 -13.5,-4.46052 -19,-6.38898 -12.2002,-4.27776 -13.1822,-4.37783 -10.7966,-1.10015 0.9881,1.35771 2.3074,2.48271 2.9316,2.5 0.6243,0.0173 1.9217,1.26892 2.8833,2.78142 0.9616,1.5125 2.9258,3.91627 4.365,5.34171 1.4392,1.42544 4.1347,4.35044 5.9899,6.5 1.8553,2.14956 5.2338,5.93329 7.5078,8.40829 7.4946,8.15709 7.3574,7.29635 2.0659,12.95334 -2.5963,2.77566 -5.2687,5.04666 -5.9387,5.04666 -0.6699,0 -2.2994,-1.3052 -3.621,-2.90045 z m -443.38631,-7.64406 c -6.09005,-3.08959 -11.76832,-8.44289 -15.33297,-14.45549 -2.44044,-4.11636 -2.66613,-5.39516 -2.64719,-15 0.0193,-9.81343 0.22621,-10.89233 3.16376,-16.5 4.6855,-8.94446 14.2991,-19.71107 22.51602,-25.21651 8.26309,-5.53637 12.44875,-6.78349 22.76712,-6.78349 11.59344,0 15.11922,1.4523 23.0324,9.48725 6.2422,6.33826 9.01269,12.6611 9.00495,20.55114 -0.005,4.92862 -2.74868,14.60534 -4.69253,16.54919 -1.1744,1.1744 -15.31242,-5.78847 -15.31242,-7.54125 0,-0.63048 0.48214,-1.62847 1.07143,-2.21776 1.74426,-1.74426 1.29969,-11.83253 -0.65276,-14.81235 -2.10773,-3.21681 -8.31124,-6.51622 -12.25171,-6.51622 -5.27312,0 -12.32605,4.03078 -19.11268,10.92297 -3.60485,3.66092 -7.12245,7.5384 -7.81689,8.61663 -6.34798,9.85624 -6.87242,19.28871 -1.37771,24.77914 2.92192,2.91965 3.7116,3.17976 9.60299,3.16296 5.1214,-0.0146 7.05162,-0.48582 9.54691,-2.33066 1.7202,-1.2718 3.75489,-2.07166 4.52153,-1.77748 1.91457,0.73469 7.73216,12.49797 7.05441,14.26416 -0.30166,0.78612 -3.52375,2.76422 -7.16021,4.39579 -8.93441,4.0086 -18.54625,4.16505 -25.92445,0.42198 z m 225.35371,-40.90331 c -5.85499,-2.96729 -12.60499,-6.64446 -15,-8.1715 -2.39502,-1.52703 -6.60457,-3.89937 -9.35457,-5.27186 -2.75,-1.37249 -7.025,-3.87515 -9.5,-5.56147 -2.475,-1.68632 -5.625,-3.64127 -7,-4.34434 -2.64318,-1.35152 -17.56317,-12.70502 -24.78737,-18.86218 -10.26793,-8.75131 -31.05319,-30.49136 -33.62948,-35.17427 -0.50427,-0.91661 -2.35278,-3.46656 -4.1078,-5.66656 -4.7779,-5.98932 -14.2579,-22.23988 -19.54272,-33.5 -1.67789,-3.575 -3.70042,-7.85 -4.49452,-9.5 -2.93381,-6.09596 -8.37774,-20.66127 -9.03819,-24.1818 -0.37477,-1.99767 -1.29029,-4.799 -2.0345,-6.22517 -0.7442,-1.42616 -1.35587,-3.41022 -1.35926,-4.40901 -0.003,-0.9988 -0.91884,-5.9488 -2.03435,-11 -4.68035,-21.1935 -5.75516,-26.64782 -7.42593,-37.68402 -0.29142,-1.925 -1.20847,-11.6 -2.03788,-21.5 -0.82942,-9.9 -1.7036,-20.25 -1.94265,-23 -2.68839,-30.92825 -1.8937,-116.15268 1.10632,-118.64247 0.74714,-0.62008 5.73917,-1.51601 11.09339,-1.99096 5.35422,-0.47495 14.58054,-1.32934 20.50295,-1.89864 5.9224,-0.5693 24.3724,-1.96192 41,-3.09471 37.93894,-2.58468 141.62156,-3.70182 179.73196,-1.93655 40.6132,1.88121 53.2411,2.87076 54.5892,4.27773 3.1087,3.24429 9.6699,98.27919 7.9979,115.84386 -0.3373,3.54296 -1.0763,18.34731 -1.6422,32.89856 -0.566,14.55126 -1.4614,28.38571 -1.9897,30.74323 -0.5283,2.35751 -1.6368,8.67694 -2.4632,14.04317 -3.6129,23.45897 -9.9189,47.7229 -15.6603,60.25678 -3.1007,6.76913 -10.753,22.22846 -12.1245,24.49433 -5.6116,9.27088 -16.7955,25.93435 -20.1195,29.97738 -2.2482,2.73443 -4.6317,5.65943 -5.2967,6.5 -3.1407,3.97028 -20.3915,21.04988 -25.291,25.04004 -3.025,2.46359 -6.0016,4.93128 -6.6147,5.48375 -3.2997,2.97354 -28.916,20.5045 -29.9612,20.5045 -0.2307,0 -2.558,1.51244 -5.1718,3.36099 -7.6876,5.43697 -22.1721,13.64118 -24.03295,13.61263 -0.94563,-0.0145 -6.50977,-2.45415 -12.36475,-5.42144 z m 14.69543,-15.46005 c 0.5225,-0.49933 3.19997,-2.12317 5.94997,-3.60854 2.75,-1.48536 6.575,-3.70735 8.5,-4.93775 1.925,-1.23039 7.0162,-4.44405 11.3137,-7.14146 30.1238,-18.90756 53.3022,-41.13299 68.7866,-65.9583 2.4198,-3.87966 4.9523,-7.92966 5.6276,-9 2.241,-3.55175 13.2721,-26.26955 13.2721,-27.33299 0,-0.57488 0.6403,-2.523 1.4229,-4.32916 3.5722,-8.24438 8.8686,-30.0579 11.4808,-47.28393 1.0842,-7.15 2.5441,-16.6 3.2443,-21 0.8897,-5.59166 1.2848,-21.69746 1.3125,-53.5 0.039,-45.11889 -0.8902,-63.75825 -4.5727,-91.70322 l -1.081,-8.20321 -4.1534,-0.49141 c -16.0451,-1.89839 -87.4451,-3.84283 -121.06297,-3.29692 -38.68986,0.62828 -92.97986,2.97948 -107.5904,4.65956 -4.675,0.53758 -13.45,1.22471 -19.5,1.52694 -17.69548,0.88399 -21.95583,1.67996 -22.99554,4.29633 -2.79849,7.04219 -2.37131,108.64058 0.52329,124.45666 0.529,2.8904 1.38078,9.75527 1.89285,15.25527 0.51208,5.5 2.12998,15.625 3.59534,22.5 1.46536,6.875 3.25601,15.425 3.97922,19 1.8315,9.05354 4.54217,19.30765 5.41916,20.5 0.40453,0.55 1.28885,2.93413 1.96514,5.29808 1.6795,5.87055 14.52994,33.91256 16.13153,35.20192 0.34159,0.275 2.11724,3.14056 3.94589,6.36791 4.73607,8.3586 16.63017,23.91915 24.67019,32.27499 8.23813,8.56171 21.98899,20.40446 30.0326,25.86517 3.21218,2.18071 6.06533,4.196 6.34033,4.47843 0.77235,0.7932 4.16439,2.85244 7.75,4.70488 1.7875,0.92347 3.25,2.0457 3.25,2.49383 0,0.44814 0.46034,0.81479 1.02297,0.81479 0.56264,0 4.63343,2.1375 9.0462,4.75 13.39716,7.93154 25.31611,14.07514 27.48083,14.16495 1.1275,0.0468 2.4775,-0.32349 3,-0.82282 z m 27.77837,-54.55562 c -3.2136,-5.0714 -4.0357,-5.34116 -7.6392,-2.50662 -2.044,1.60774 -3.8917,1.99466 -8.8849,1.86051 -3.4673,-0.0932 -7.5418,0.17085 -9.0543,0.58669 -2.4232,0.66622 -2.74997,0.4822 -2.74997,-1.54863 0,-2.88955 3.87707,-8.66304 6.23077,-9.27856 2.8005,-0.73233 2.068,-2.62711 -1.6095,-4.16367 -1.8583,-0.77644 -3.64415,-2.10348 -3.9686,-2.94897 -0.32445,-0.84549 -1.72902,-1.53726 -3.12129,-1.53726 -5.54311,0 -1.64986,-5.76189 5.69669,-8.43094 4.5708,-1.66059 8.7719,-1.42193 8.7719,0.49833 0,0.51293 0.45,0.93261 1,0.93261 1.9469,0 0.9646,-4.74619 -1.542,-7.45086 -2.0048,-2.16325 -2.296,-3.03943 -1.3776,-4.14602 3.5498,-4.27724 17.03,2.24284 15.6385,7.564 -0.3772,1.44236 -0.051,2.02891 1.1248,2.01923 6.8805,-0.0567 10.2991,-6.81753 10.9599,-21.67459 0.3274,-7.36158 0.1009,-10.72191 -0.7954,-11.80188 -1.7673,-2.12954 -4.0082,-1.87568 -4.0082,0.45407 0,1.14367 -1.5393,3.00997 -3.6856,4.46839 -4.4067,2.99444 -6.3144,2.07155 -6.3144,-3.05478 0,-4.33564 -1.2778,-4.28204 -4.0287,0.169 -1.2056,1.9506 -2.7048,3.37776 -3.3316,3.17145 -0.6308,-0.20761 -1.3852,-3.46571 -1.6896,-7.29656 -0.4881,-6.14248 -2.2404,-11.97909 -4.0296,-13.42145 -0.7473,-0.60245 -5.5372,-11.59666 -6.4143,-14.72289 -0.3807,-1.35677 0.245,-4.08426 1.6058,-7 1.8875,-4.04423 2.2227,-6.43988 2.1846,-15.61557 -0.06,-14.44058 0.2489,-14.16154 -15.66936,-14.16154 h -12.28957 l -8.66882,-8.86122 c -4.76785,-4.87367 -8.65451,-9.37367 -8.63702,-10 0.0175,-0.62633 0.6925,-2.01229 1.5,-3.07991 0.80751,-1.06762 1.46596,-2.64262 1.46323,-3.5 -0.007,-2.05116 -4.58914,3.31363 -6.54934,7.66722 -1.50389,3.34011 -5.87005,6.27391 -9.33701,6.27391 -2.82998,0 -3.47636,-1.63698 -1.66661,-4.22075 3.25249,-4.64359 1.38556,-4.74124 -2.27595,-0.11905 -5.04596,6.36991 -6.59817,7.55824 -9.36108,7.16656 -1.86935,-0.265 -2.30321,-0.94106 -2.29537,-3.57676 0.0153,-5.16181 -2.6911,-3.49977 -3.95848,2.4309 -0.84946,3.97506 -2.12705,5.04303 -6.55119,5.47632 l -3.5,0.34278 -0.30226,-5.25 c -0.32872,-5.70967 -1.38744,-6.47225 -4.18653,-3.01552 -1.2496,1.54319 -1.64775,3.23039 -1.28697,5.45361 0.6905,4.25506 -4.00545,9.31191 -8.64732,9.31191 -3.43732,0 -3.78837,-0.98456 -1.56238,-4.38184 1.38384,-2.11201 1.34069,-2.53249 -0.5,-4.87255 -1.108,-1.40859 -2.01669,-3.61509 -2.01932,-4.90334 -0.004,-2.18405 -0.23795,-2.0884 -3.45656,1.41597 -3.65061,3.97471 -7.0775,5.74176 -11.13514,5.74176 -1.35646,0 -2.72531,0.675 -3.04189,1.5 -0.71964,1.87535 -3.96794,1.96833 -4.67194,0.13373 -0.28836,-0.75145 -0.27382,-4.12849 0.0323,-7.50453 0.51977,-5.73209 0.79553,-6.28594 4.1673,-8.36994 3.05975,-1.89114 3.30552,-2.28676 1.6107,-2.5927 -1.1,-0.19857 -3.19172,-1.48261 -4.64827,-2.85343 -2.18096,-2.05258 -3.00754,-2.30011 -4.68426,-1.40276 -2.92826,1.56716 -4.16747,1.34829 -4.16747,-0.73606 0,-2.31645 3.28942,-5.34078 8.84025,-8.12782 3.60631,-1.81071 4.85752,-1.9989 7.39922,-1.11285 1.68244,0.5865 3.41886,1.06636 3.85873,1.06636 1.20205,0 -1.99814,-7.18403 -4.32056,-9.69912 -1.2414,-1.34437 -1.77801,-2.85754 -1.38062,-3.89313 0.35753,-0.9317 0.89481,-1.44925 1.19396,-1.15011 0.29914,0.29915 2.00151,0.14144 3.78303,-0.35046 5.04603,-1.39328 13.54596,1.95396 15.84428,6.23943 0.97994,1.8272 1.78171,4.28661 1.78171,5.46534 0,4.31058 2.36104,4.84361 10.25257,2.31464 3.98609,-1.2774 8.37243,-2.90569 9.74743,-3.61841 1.375,-0.71272 2.99853,-1.29863 3.60785,-1.30202 0.60931,-0.003 4.12951,-1.58116 7.82266,-3.50616 3.69315,-1.925 7.35712,-3.5 8.14215,-3.5 0.78504,0 1.42734,-0.45 1.42734,-1 0,-0.55 0.50221,-1 1.11602,-1 0.61382,0 3.20132,-1.49634 5.75,-3.32521 9.72187,-6.97613 14.15593,-8.9434 21.31157,-9.45538 3.75232,-0.26848 6.87984,-0.0902 6.95003,0.39622 0.0702,0.4864 0.23444,1.91111 0.36499,3.16602 0.27372,2.63121 1.50739,4.29948 1.50739,2.03842 0,-2.88038 6.60068,-8.44973 11.64276,-9.82363 2.67148,-0.72794 7.26812,-2.37157 10.21482,-3.65252 2.9466,-1.28095 5.7591,-2.0808 6.25,-1.77744 1.6201,1.00127 0.9302,6.29098 -1.5525,11.90501 l -2.445,5.52851 h 3.0826 3.0827 l -0.6582,5.60008 c -0.867,7.37676 -1.9118,9.13222 -9.6172,16.15837 -10.95979,9.99373 -13.93798,10.73026 -14.11828,3.49155 -0.10562,-4.23995 -0.20029,-4.42786 -0.88169,-1.75 -0.41985,1.65 -0.81661,4.73628 -0.88169,6.85841 -0.11366,3.70688 -0.0127,3.8319 2.5707,3.18351 1.47895,-0.37119 3.91091,-1.54498 5.40437,-2.60841 1.49345,-1.06343 2.98801,-1.93351 3.32125,-1.93351 0.33323,0 2.73874,-1.4625 5.34564,-3.25 6.4659,-4.43363 12.6958,-7.75 14.5585,-7.75 1.998,0 2.7154,2.40692 3.0784,10.32836 0.3994,8.71416 2.5864,11.89303 15.2215,22.12431 2.6847,2.17397 6.9814,6.07116 9.5482,8.66042 4.1694,4.20592 4.7387,5.33022 5.3413,10.54733 0.897,7.76699 4.0119,18.42786 7.6009,26.01417 4.9009,10.35947 13.2792,14.7616 20.7459,10.90041 8.0016,-4.13779 6.5698,-17.1106 -3.6664,-33.21933 -2.7455,-4.32062 -6.2408,-9.88067 -7.7674,-12.35567 -3.7473,-6.07537 -8.1658,-13.00367 -14.0303,-22 -2.689,-4.125 -5.0661,-7.95 -5.2825,-8.5 -0.2165,-0.55 -1.1558,-2.125 -2.0874,-3.5 -4.6797,-6.90682 -6.3997,-23.52499 -3.3713,-32.57186 2.0254,-6.05015 3.7006,-8.56904 13.0628,-19.64151 9.4278,-11.14998 10.8848,-14.61125 11.688,-27.76792 0.5446,-8.92037 1.0245,-11.07978 3.2227,-14.5 5.5021,-8.56103 12.4951,-12.51871 22.1197,-12.51871 6.5906,0 8.4871,4.2515 3.2709,7.33278 -3.2925,1.94495 -7.8074,8.93295 -9.0103,13.94576 -0.4251,1.7718 -1.098,4.00896 -1.4952,4.97146 -0.4071,0.98642 -0.2828,1.75 0.285,1.75 0.554,0 1.5417,-2.22771 2.1949,-4.95047 0.6531,-2.72276 1.823,-5.47786 2.5997,-6.12245 0.7767,-0.64458 1.4121,-1.78622 1.4121,-2.53698 0,-0.75076 1.8674,-2.60816 4.1496,-4.12756 2.2823,-1.51939 4.6961,-3.17166 5.3641,-3.67169 0.668,-0.50003 1.9721,-0.6184 2.8982,-0.26305 1.8989,0.7287 1.744,2.40779 -1.5023,16.28439 -2.7419,11.72053 -6.0027,18.47163 -10.5613,21.86589 -2.1166,1.57592 -4.0358,3.01304 -4.2649,3.19361 -0.2292,0.18057 -0.1734,0.5716 0.1239,0.86895 0.2974,0.29734 2.1762,-0.42434 4.1751,-1.60376 3.4679,-2.04611 6.6176,-2.07375 6.6176,-0.0581 0,1.75525 -8.0369,11.12118 -9.5431,11.12118 -0.8231,0 -3.2879,1.13077 -5.4772,2.51282 -2.1893,1.38206 -6.3428,3.14672 -9.2301,3.92148 -11.5892,3.10982 -14.6494,5.56367 -18.888,15.14573 -2.8017,6.33377 -2.0076,8.53156 1.2569,3.47844 l 2.6185,-4.05319 2.6315,2.06994 c 3.4893,2.74469 3.4729,7.48555 -0.062,17.95792 -2.0869,6.18259 -2.4247,8.2485 -1.5,9.17328 0.9248,0.92477 1.1936,0.63313 1.1936,-1.29498 0,-1.36871 0.9,-4.25385 2,-6.41144 1.1,-2.15759 2,-4.50273 2,-5.21144 0,-2.44996 3.037,-1.27658 5.0766,1.96144 2.4273,3.85343 2.139,11.96508 -0.5723,16.10306 -0.9122,1.39222 -1.5113,3.54909 -1.3314,4.79304 0.2786,1.92657 0.6235,1.64045 2.3271,-1.93071 1.9261,-4.0375 3.747,-5.24278 4.9587,-3.28221 1.1927,1.92982 2.3376,10.58189 1.5938,12.04437 -0.4258,0.83735 -1.0509,3.31672 -1.389,5.50972 l -0.6147,3.98726 1.969,-2.98726 c 1.083,-1.643 1.972,-3.99977 1.9756,-5.23727 0,-1.58114 0.6012,-2.25 2.0066,-2.25 1.2629,0 2,0.66667 2,1.80887 0,0.99488 0.6607,2.68238 1.4682,3.75 1.9003,2.51242 1.9322,7.52948 0.064,10 -2.1268,2.81189 -1.881,5.06742 1.4407,13.21868 1.6311,4.00265 3.869,11.08146 4.9732,15.73068 1.892,7.96645 1.9181,8.84289 0.4528,15.22246 -1.4069,6.12578 -1.9788,7.08407 -6.0154,10.08024 -2.586,1.91946 -6.6508,3.76451 -9.6719,4.39018 -4.9014,1.01509 -5.5381,0.9031 -10.7112,-1.8841 -8.9965,-4.84721 -9.3542,-4.84901 -6.3668,-0.0319 1.4376,2.31821 3.4045,5.11493 4.3708,6.21493 2.3182,2.63907 3.2986,12.44665 1.3201,13.20588 -0.7692,0.29517 -2.2058,-0.19388 -3.1925,-1.08678 -3.1165,-2.82037 -3.1699,-0.53516 -0.092,3.93827 3.4716,5.04577 3.4409,4.745 1.2775,12.52649 -1.3808,4.96624 -2.0095,5.96831 -3.5,5.57852 -1.2532,-0.32771 -1.817,0.077 -1.817,1.30412 0,2.94435 -3.9948,11.0335 -5.4489,11.0335 -0.7455,0 -1.8378,-1.38375 -2.4274,-3.07501 -1.596,-4.5784 -3.1237,-2.59214 -3.1237,4.06145 0,5.14866 -0.3231,6.1226 -2.6348,7.94098 -3.3083,2.60229 -4.4121,2.60917 -5.0861,0.0317 -0.6716,-2.56823 -2.6746,-2.01182 -3.0975,0.86042 -0.1751,1.18958 -1.1162,2.72934 -2.0913,3.42167 -0.9751,0.69234 -2.3101,2.2713 -2.9667,3.5088 -1.7823,3.3589 -3.6496,2.75065 -6.7952,-2.21349 z m 33.6716,-31.53651 c 0,-0.55 -0.45,-1 -1,-1 -0.55,0 -1,0.45 -1,1 0,0.55 0.45,1 1,1 0.55,0 1,-0.45 1,-1 z m -7.7861,-48.25 c -2.727,-3.4375 -6.0269,-8.5 -7.333,-11.25 l -2.3748,-5 -0.3155,3.78588 c -0.2334,2.80036 0.4375,5.01304 2.5774,8.5 2.5627,4.17592 9.2827,10.09009 11.5681,10.1809 0.4599,0.0183 -1.3951,-2.77928 -4.1222,-6.21678 z m -69.87702,-84.76458 c 4.54303,-2.3184 4.91421,-2.36256 6.11025,-0.72688 1.81192,2.47795 2.5529,2.16325 2.5529,-1.08423 0,-3.03368 2.1886,-5.47042 8.06579,-8.98026 3.49358,-2.08632 9.00738,-7.39855 5.93418,-5.71718 -0.825,0.45137 -2.4,1.60139 -3.5,2.55561 -1.1,0.95422 -5.14997,3.42594 -8.99997,5.49271 -3.85,2.06676 -7.77074,4.42367 -8.71275,5.23756 -0.94202,0.8139 -2.46648,1.19058 -3.38769,0.83708 -1.37678,-0.52832 -1.57608,-1.57347 -1.11961,-5.87128 0.30543,-2.8757 0.86527,-6.12855 1.24408,-7.22855 0.37882,-1.1 -0.2566,-0.53076 -1.41204,1.26498 -2.17527,3.3807 -4.3148,17.90723 -2.51817,17.0973 0.4984,-0.22468 3.08276,-1.51927 5.74303,-2.87686 z m 104.34622,-66.17292 c -0.3192,-0.79773 -0.5561,-0.56078 -0.6041,0.60417 -0.043,1.05416 0.1929,1.64479 0.5252,1.3125 0.3323,-0.33229 0.3678,-1.1948 0.079,-1.91667 z M 473.13072,588.66922 c 0,-1.1367 -1.125,-3.54167 -2.5,-5.34439 -1.375,-1.80272 -2.50689,-3.6852 -2.51531,-4.18328 -0.008,-0.49809 -0.41639,-1.53916 -0.90659,-2.31349 -0.71273,-1.12584 -1.76139,-0.66106 -5.23469,2.32007 -3.99957,3.43282 -4.68795,3.67675 -8.69561,3.08128 -3.69869,-0.54957 -4.5706,-0.33485 -5.8067,1.42993 -0.79998,1.14213 -2.37626,2.0766 -3.50284,2.0766 -1.78742,0 -1.9859,-0.47766 -1.55822,-3.75 0.47998,-3.67247 2.44631,-9.51729 4.03707,-12 0.44051,-0.6875 1.84427,-1.25 3.11946,-1.25 1.2752,0 2.87874,-0.675 3.56343,-1.5 1.05976,-1.27693 0.79646,-1.5 -1.77057,-1.5 -1.6585,0 -3.25209,-0.61668 -3.54132,-1.3704 -0.28923,-0.75372 -2.81238,-2.19262 -5.60699,-3.19754 -2.79462,-1.00493 -5.08112,-2.38957 -5.08112,-3.07698 0,-1.80548 9.59245,-6.35508 13.39915,-6.35508 1.77915,0 5.87453,1.35 9.10085,3 3.22632,1.65 6.00868,3 6.18302,3 1.06744,0 0.0511,-2.88806 -1.18302,-3.36163 -0.88737,-0.34051 -1.5,-1.84285 -1.5,-3.67841 0,-1.70655 -0.69509,-3.79791 -1.54464,-4.64746 -2.00174,-2.00173 -1.38828,-3.72617 1.47468,-4.14538 5.78083,-0.84646 12.60507,3.83789 13.6418,9.36411 l 0.63984,3.41067 3.04544,-1.57486 c 7.45565,-3.85547 11.98502,-13.36704 6.36532,-13.36704 -3.3932,0 -5.35143,-2.60306 -3.81228,-5.06763 1.58738,-2.54179 1.55792,-2.62317 -1.19986,-3.31533 -5.85316,-1.46905 -3.60622,-6.5017 7.5943,-17.00956 8.75469,-8.21328 13.6883,-10.05652 26.99974,-10.08733 8.18477,-0.0189 8.73804,-0.15445 9.26905,-2.27015 0.50524,-2.01303 1.18172,-2.25 6.42322,-2.25 7.22636,0 8.34096,1.13561 8.91586,9.08414 0.5367,7.42033 -0.7041,7.66961 -7.04743,1.41586 -6.11324,-6.02689 -8.63638,-5.81303 -2.94951,0.25 2.45042,2.6125 5.06937,6.19805 5.81989,7.96788 1.58845,3.74569 1.82015,10.28212 0.36458,10.28212 -0.55,0 -1,0.63545 -1,1.4121 0,0.88173 -1.59431,1.68146 -4.24478,2.12926 -2.33464,0.39443 -5.81547,1.55898 -7.73519,2.58789 -1.91973,1.02891 -4.00448,1.87075 -4.63278,1.87075 -0.6283,0 -1.68301,0.65144 -2.3438,1.44764 -1.81928,2.19211 0.14969,4.78169 4.60976,6.06274 3.66763,1.05344 3.83579,1.28331 3.61065,4.93576 -0.54862,8.90011 -12.6441,21.60175 -15.76386,16.55386 -0.92524,-1.49707 -2.5,-1.20483 -2.5,0.46395 0,0.80517 -1.6835,2.60791 -3.7411,4.00609 l -3.7411,2.54215 -1.60514,-2.12798 c -1.44426,-1.91469 -1.67067,-1.95722 -2.2589,-0.42431 -0.35957,0.93702 -0.65376,2.77621 -0.65376,4.08709 0,2.90353 -5.70074,9.65859 -7.80515,9.24866 -0.83479,-0.16261 -2.06911,-1.87065 -2.74294,-3.79565 -0.76832,-2.19495 -1.4012,-2.94069 -1.69731,-2 -2.34581,7.45216 -3.17907,9.47289 -4.58173,11.11108 -2.19503,2.5636 -5.17287,2.46124 -5.17287,-0.1778 z m 79.42777,-128.26083 c -0.2801,-0.73015 -0.041,-2.55945 0.5314,-4.0651 0.5725,-1.50565 1.0408,-4.13136 1.0408,-5.8349 0,-3.31339 5.109,-12.21655 7.5473,-13.1522 0.799,-0.30661 1.4527,-1.01392 1.4527,-1.57178 0,-0.55787 -1.634,-0.0965 -3.6312,1.02524 -5.2804,2.96585 -6.7555,2.00566 -5.8915,-3.83523 0.7388,-4.99563 2.9858,-9.76509 8.1555,-17.31143 4.0325,-5.88628 6.3672,-10.42486 6.3672,-12.37739 0,-2.6622 -1.8097,-1.69253 -2.4724,1.32476 -0.3472,1.58093 -1.7928,3.94343 -3.2125,5.25 -1.4196,1.30657 -3.3088,3.54685 -4.1981,4.97839 -2.512,4.04358 -14.2411,13.02397 -16.5721,12.68852 -2.9844,-0.42947 -3.0349,-3.35012 -0.1125,-6.50177 1.4122,-1.52302 2.5676,-3.14746 2.5676,-3.60987 0,-0.46242 1.5385,-3.16702 3.419,-6.01022 3.3785,-5.10841 7.9301,-15.65369 7.1104,-16.47345 -0.5034,-0.50335 -7.5177,6.98054 -7.5246,8.0283 0,0.39838 -1.4319,1.46232 -3.1762,2.36432 -2.7189,1.406 -2.9329,1.77347 -1.5,2.57537 2.4221,1.35546 2.051,5.23151 -0.8286,8.65362 -1.375,1.6341 -2.5,3.38762 -2.5,3.89673 0,1.54381 -7.06254,9.28564 -8.4709,9.28564 -0.7233,0 -1.5472,0.60485 -1.83088,1.34412 -0.36693,0.9562 -3.7889,1.54287 -11.85699,2.03278 -12.28147,0.74575 -15.13483,1.87581 -21.34209,8.45242 -1.58464,1.67893 -3.2452,2.82761 -3.69014,2.55262 -1.6337,-1.00968 -0.81424,-10.7396 1.26649,-15.03783 1.69411,-3.49954 3.39695,-5.01681 9.26733,-8.25733 3.95553,-2.1835 9.20907,-4.41975 11.67454,-4.96946 15.87065,-3.53854 19.80657,-4.58341 22.48267,-5.96852 l 2.99997,-1.55275 -2.99997,-0.67971 c -6.72461,-1.5236 -10.24137,-1.04239 -12.2186,1.67191 -1.48214,2.03466 -2.94373,2.67981 -6.83341,3.0163 -2.72139,0.23542 -7.09625,0.69187 -9.72191,1.01434 -5.93436,0.72882 -8.30708,-0.72863 -6.46947,-3.9739 0.66803,-1.17974 1.67107,-4.39499 2.22899,-7.14499 0.81055,-3.9952 1.41632,-5 3.0144,-5 1.1,0 2.5891,-0.3805 3.30912,-0.84555 0.72001,-0.46506 4.36928,-0.53824 8.10948,-0.16262 5.54499,0.55686 6.90598,0.4077 7.37248,-0.808 0.86279,-2.24838 -0.29705,-5.55296 -2.14905,-6.12303 -1.61902,-0.49836 -12.0501,1.45775 -15.32444,2.87374 -2.2695,0.98145 -4.31432,-3.15768 -5.40188,-10.93454 -0.99635,-7.12458 -0.79417,-9.64067 0.85905,-10.69097 0.67388,-0.42812 4.41889,-0.7853 8.32223,-0.79372 5.74009,-0.0124 7.55585,-0.41328 9.49696,-2.09679 1.80911,-1.56903 3.38551,-1.98247 6.40301,-1.67929 2.20167,0.22121 5.5307,-0.22539 7.39784,-0.99244 5.53677,-2.27459 17.90937,0.25848 19.45057,3.98217 0.498,1.20306 0.9158,0.83972 5.5566,-4.83218 0.4965,-0.60676 4.3961,-1.41978 8.6659,-1.8067 6.9291,-0.6279 7.974,-0.49266 9.7254,1.25871 2.9741,2.9741 1.6939,9.97364 -2.3155,12.65993 -3.6806,2.46602 -3.6924,3.21905 -0.1107,7.03985 4.6446,4.95461 5.5198,8.72298 4.4099,18.98663 -0.6291,5.81742 -1.907,11.07129 -3.6398,14.9648 l -2.6703,6 2.5518,-3 c 2.4788,-2.91407 2.5938,-2.9444 4.0166,-1.05887 3.0704,4.06906 1.4017,16.61574 -3.0903,23.2351 -3.1261,4.60657 -10.2292,12.32377 -11.3431,12.32377 -0.4713,0 -1.3927,0.64554 -2.0475,1.43454 -1.3196,1.59 -8.5459,5.56546 -10.1165,5.56546 -0.5504,0 -1.2299,-0.5974 -1.5101,-1.32755 z m 16.9884,-29.57983 c 3.0099,-3.32583 0.4046,-2.36939 -2.9162,1.07061 -2.0435,2.1169 -2.3588,2.77521 -0.9888,2.06485 1.1062,-0.57356 2.8634,-1.98451 3.905,-3.13546 z m -0.7331,-33.28012 c -0.3192,-0.79773 -0.5561,-0.56078 -0.6041,0.60417 -0.043,1.05416 0.1929,1.64479 0.5252,1.3125 0.3323,-0.33229 0.3678,-1.1948 0.079,-1.91667 z m -30.4279,-17.6877 c 3.4915,-1.78002 3.587,-1.95766 1.8827,-3.5 -2.45345,-2.22037 -6.73174,-2.03892 -10.76984,0.45676 -4.34479,2.68523 -4.2518,3.70526 0.38197,4.18997 2.0625,0.21575 3.99235,0.46791 4.28856,0.56037 0.29621,0.0924 2.1937,-0.67574 4.21661,-1.7071 z m -67.90045,64.15961 c -1.72991,-0.21753 -3.88875,-1.21703 -4.79743,-2.2211 -1.52248,-1.68233 -1.52509,-1.95265 -0.0333,-3.44446 0.89038,-0.89037 2.26172,-1.61885 3.04744,-1.61885 0.78571,0 1.42857,-0.38704 1.42857,-0.8601 0,-0.47305 -2.45384,-1.11335 -5.45297,-1.42289 -2.99913,-0.30954 -6.71163,-1.16421 -8.25,-1.89927 -3.30529,-1.57933 -4.31221,-5.41583 -1.6055,-6.11715 0.99466,-0.25773 -0.48651,-0.52079 -3.29149,-0.58459 -3.96735,-0.0902 -6.02161,-0.78364 -9.25,-3.12227 -4.21222,-3.05132 -4.96441,-4.37239 -3.13373,-5.50381 1.46458,-0.90516 0.18915,-2.48992 -2.0039,-2.48992 -2.60153,0 -5.26459,-2.92767 -4.68368,-5.14908 0.38664,-1.47848 -0.0841,-1.85092 -2.33944,-1.85092 -4.61209,0 -11.62278,-3.49782 -12.33381,-6.15367 -1.19718,-4.4717 -0.85679,-5.13659 2.30583,-4.50407 3.46524,0.69305 6.27716,-1.47123 5.35442,-4.1212 -1.09743,-3.15164 -8.4883,-10.00557 -11.42215,-10.59234 -3.35587,-0.67118 -3.94679,-3.54054 -0.89358,-4.33897 1.1,-0.28766 2,-0.86873 2,-1.29128 0,-0.87342 9.01416,-3.99847 11.53353,-3.99847 0.91175,0 2.959,0.92659 4.54945,2.05909 l 2.89172,2.05908 -0.32949,-2.82986 c -0.18122,-1.55642 -0.86993,-3.83969 -1.53047,-5.07392 -1.65774,-3.09751 -0.0119,-3.56552 7.97896,-2.26895 3.52346,0.5717 6.69271,1.04285 7.04276,1.04701 0.35005,0.004 0.94442,2.0612 1.32082,4.57122 0.57089,3.80697 0.92133,4.367 2.11354,3.37755 0.78605,-0.65236 1.42918,-2.03101 1.42918,-3.06366 0,-2.54571 3.19365,-2.42604 5.57835,0.20901 2.91626,3.22243 2.61861,12.42371 -0.54564,16.8675 l -2.43396,3.41817 9.29381,8.7365 c 7.92277,7.44767 10.05455,8.91474 14.45062,9.94483 2.83625,0.66459 5.60682,1.53737 6.15682,1.9395 0.55,0.40214 2.35,1.05291 4,1.44616 4.29676,1.02406 9.5,3.62452 9.5,4.74788 0,0.52758 -1.77343,2.55127 -3.94095,4.49709 -4.09685,3.67782 -6.05905,9.1395 -6.05905,16.86502 v 3.45078 l -7.25,-0.16004 c -3.9875,-0.088 -8.66538,-0.33801 -10.39528,-0.55555 z M 436.793,379.48594 c -0.27741,-0.6875 -0.50439,-0.125 -0.50439,1.25 0,1.375 0.22698,1.9375 0.50439,1.25 0.27741,-0.6875 0.27741,-1.8125 0,-2.5 z m 48.70784,16.32001 c -8.54765,-2.09816 -10.85384,-10.77639 -4.78152,-17.99294 3.9647,-4.71177 6.05719,-4.11524 6.63434,1.89131 0.51281,5.33688 3.4071,8.92121 7.27706,9.01201 3.47334,0.0815 6.3428,1.16757 6.89641,2.61027 1.13451,2.95647 -9.79051,6.01002 -16.02629,4.47935 z M 808.63069,666.3839 c -3.3,-1.81383 -7.9343,-4.5211 -10.2986,-6.01615 -2.3642,-1.49505 -5.2892,-3.14775 -6.5,-3.67266 -1.2107,-0.5249 -2.8764,-1.381 -3.7014,-1.90242 -1.8946,-1.19748 -13.4563,-7.6842 -22.1511,-12.42797 -3.6581,-1.99582 -7.3331,-3.62876 -8.1666,-3.62876 -0.8336,0 -1.6656,-0.3375 -1.8489,-0.75 -0.1834,-0.4125 -2.9605,-2.1 -6.1716,-3.75 -3.211,-1.65 -6.0576,-3.34983 -6.3259,-3.77739 -0.4783,-0.76238 1.5807,-5.26903 6.0414,-13.22261 1.2339,-2.2 3.7912,-6.92022 5.6831,-10.48937 5.1096,-9.63993 11.0817,-15.22578 18.5059,-17.30889 3.3357,-0.93596 7.3945,-1.70174 9.0194,-1.70174 4.5625,0 17.1502,3.78358 22.2911,6.7002 2.5428,1.44261 5.901,3.27824 7.4626,4.07919 4.5265,2.32154 15.2837,12.90682 18.3205,18.02764 2.5002,4.21591 2.7798,5.60785 2.7504,13.69297 -0.035,9.6459 -0.6657,11.27715 -11.3902,29.46597 -1.661,2.81712 -3.0201,5.5201 -3.0201,6.00661 0,1.05275 -2.8527,4.039 -3.8214,4.00034 -0.3732,-0.0149 -3.3786,-1.51112 -6.6786,-3.32496 z m 4.2904,-21.39796 c 3.0773,-4.39239 6.3646,-14.26777 5.7226,-17.19083 -1.2622,-5.74696 -10.0551,-13.07586 -23.513,-19.59805 -4.3129,-2.09024 -6.9669,-2.66402 -12.297,-2.65858 -8.3366,0.009 -8.8596,0.45114 -16.3177,13.81002 -1.3112,2.34858 -2.0468,4.46155 -1.6347,4.69548 4.6519,2.64015 14.0135,7.62765 24.2494,12.91915 6.875,3.55404 14.075,7.39992 16,8.5464 4.6544,2.77204 5.5225,2.7137 7.7904,-0.52359 z m -574.04098,20.34767 c -2.61284,-0.70884 -5.76284,-2.14265 -7,-3.18624 -5.39084,-4.54735 -10.74939,-10.31795 -10.74939,-11.57596 0,-0.7508 -0.98687,-3.15842 -2.19304,-5.35028 -3.32214,-6.03697 -3.23654,-18.48097 0.16498,-23.98519 5.10948,-8.26799 10.82587,-13.27265 13.46927,-11.79227 1.21909,0.68272 5.69353,6.34252 7.86398,9.94728 0.3838,0.63744 -0.85717,3.01336 -2.76933,5.30207 -6.32951,7.57592 -5.64521,15.36114 1.89315,21.53826 2.39777,1.9648 5.39354,3.50466 6.81823,3.50466 2.92316,0 8.75276,-4.97754 8.75276,-7.47345 0,-0.91906 -1.16805,-6.70102 -2.59567,-12.84879 -3.83133,-16.4989 -2.70395,-24.21035 4.63739,-31.72044 4.62032,-4.72652 10.39443,-6.91 18.34025,-6.93536 7.81719,-0.0249 10.92586,1.41555 16.83306,7.8001 5.29737,5.72543 8.7769,13.27271 9.44109,20.47821 0.81305,8.82055 -0.78591,13.64408 -6.33711,19.11686 -4.88019,4.81126 -7.92825,5.76504 -9.05316,2.83287 -0.36925,-0.9625 -1.93013,-3.61526 -3.46861,-5.89502 -3.18308,-4.71677 -3.3599,-5.64312 -1.38935,-7.27853 0.77433,-0.64264 2.17353,-2.78193 3.10933,-4.75398 1.63983,-3.45569 1.62267,-3.75371 -0.47384,-8.22986 -2.16967,-4.63232 -7.21593,-9.09261 -10.28717,-9.09261 -1.76263,0 -5.76346,4.98282 -5.7444,7.15437 0.006,0.7401 0.93298,4.94563 2.05887,9.34563 5.62083,21.96636 3.56549,31.14243 -8.74792,39.05513 -4.66222,2.99598 -6.72413,3.66282 -15.32276,4.9555 -1.375,0.20671 -4.63778,-0.20412 -7.25061,-0.91296 z M 220.75416,525.54077 c -4.99088,-1.36904 -11.35473,-7.85555 -12.21714,-12.45261 -0.35748,-1.90552 -0.43698,-5.68117 -0.17666,-8.39032 1.54486,-16.07764 20.41662,-22.36692 32.89326,-10.96215 4.34122,3.96827 4.36329,4.02332 4.7087,11.7436 0.33928,7.5832 0.26714,7.86105 -3.22594,12.42526 -1.96513,2.56773 -4.95015,5.35563 -6.63337,6.19533 -4.21231,2.10137 -10.71549,2.71187 -15.34885,1.44089 z m 593.85873,-11.49921 c -2.1902,-1.48191 -4.4863,-3.19141 -5.1025,-3.79889 -4.6367,-4.57132 -5.9252,-16.4596 -2.409,-22.22649 2.5361,-4.15947 9.3259,-9.05764 13.6905,-9.87646 2.2278,-0.41792 5.0705,-0.0306 8.132,1.10799 17.4482,6.48918 18.9217,27.71635 2.5226,36.33966 -1.2014,0.63171 -4.5844,1.14857 -7.5179,1.14857 -4.1398,0 -6.2249,-0.60306 -9.3157,-2.69438 z m -29.0787,-81.32269 c -12.9041,-4.00298 -22.4929,-26.90378 -16.4723,-39.34068 1.2126,-2.50489 3.7616,-5.92137 5.6646,-7.59216 4.374,-3.84041 10.7093,-7.10641 12.0749,-6.22486 1.1726,0.75693 5.3293,9.79398 5.3293,11.58628 0,0.6365 -1.3169,1.93522 -2.9265,2.88605 -3.6257,2.14175 -7.0735,7.55713 -7.0735,11.11031 0,4.4374 3.7211,10.49147 7.5794,12.33134 3.3045,1.57583 3.6954,1.56763 6.8744,-0.14436 4.1875,-2.25512 4.5104,-3.46724 4.5545,-17.09485 0.041,-12.73125 1.4791,-17.08666 7.3392,-22.23194 2.0138,-1.76813 6.1344,-3.9337 9.157,-4.81238 5.0558,-1.46976 5.9473,-1.46626 11.1416,0.0438 10.1252,2.94348 17.0926,13.36114 18.1132,27.08298 0.3603,4.84463 0.029,6.87963 -1.6309,10 -2.845,5.34995 -4.0207,6.6324 -8.4355,9.20183 -5.9468,3.46101 -7.2518,3.01043 -9.621,-3.32175 -2.3067,-6.16521 -2.5847,-8.46254 -1.0241,-8.46254 2.2364,0 5.9522,-5.32124 5.9522,-8.5239 0,-4.75371 -2.4387,-9.7451 -5.6919,-11.6499 -2.6957,-1.57839 -2.997,-1.56945 -5.2856,0.15688 -2.2827,1.72185 -2.4693,2.6238 -3.1382,15.1738 -0.4359,8.17608 -1.2954,14.69847 -2.2196,16.84312 -1.7535,4.06882 -6.7583,9.06728 -11.4429,11.4283 -3.9705,2.00116 -14.559,2.8759 -18.8183,1.55463 z m -527.40347,-4.12355 c -16.02302,-4.5969 -21.57177,-6.23399 -40,-11.80154 -7.425,-2.24324 -15.91601,-4.73826 -18.86892,-5.54448 -6.06869,-1.65692 -8.13398,-3.02599 -8.12464,-5.3858 0.007,-1.889 8.05081,-26.95565 10.30902,-32.12756 2.44986,-5.61084 7.47195,-9.7143 13.95144,-11.39949 5.07134,-1.31897 6.27746,-1.32418 10,-0.0432 6.90341,2.37555 8.64007,3.58678 11.643,8.12038 2.36514,3.57071 3.05749,4.06653 4.03454,2.88925 1.70045,-2.04892 9.73637,-4.57058 14.4837,-4.54498 7.86042,0.0424 17.43098,6.25713 20.6922,13.43667 2.2068,4.85827 2.34008,8.69981 0.50699,14.61323 -0.75498,2.43548 -2.06762,6.90314 -2.91699,9.92814 -4.12677,14.69738 -6.94531,22.87522 -8.02335,23.27929 -0.65284,0.24469 -4.11199,-0.39426 -7.68699,-1.41991 z m -0.14577,-21.10938 c 5.2047,-17.45285 4.92273,-20.60143 -2.03161,-22.685 -7.40398,-2.21829 -11.01484,1.03505 -14.91138,13.435 -2.49335,7.93454 -2.43862,9.48183 0.33876,9.5775 1.2375,0.0426 4.5,0.90775 7.25,1.9225 7.3206,2.70129 7.92073,2.55694 9.35423,-2.25 z m -31.39774,-12.80162 c 1.39893,-4.42839 2.54351,-9.10354 2.54351,-10.38922 0,-3.30662 -2.94552,-6.44601 -6.73485,-7.17812 -2.72863,-0.52718 -3.66757,-0.15835 -6,2.35686 -2.92936,3.15892 -7.86957,17.05883 -6.53595,18.38973 0.42394,0.42308 3.42642,1.46055 6.67217,2.3055 3.24575,0.84495 6.13325,1.76816 6.41667,2.05157 0.91823,0.91824 1.06121,0.62209 3.63845,-7.53632 z m 56.53704,-46.88272 c -1.37857,-0.41934 -4.07857,-1.55657 -6,-2.52717 -4.65775,-2.35284 -46.43997,-30.16657 -47.82663,-31.83739 -0.82289,-0.99152 -0.10265,-2.70135 2.95136,-7.00635 2.22194,-3.13211 4.56681,-5.69281 5.21082,-5.69045 0.644,0.002 3.44405,1.68987 6.22232,3.75 7.66107,5.68082 11.3316,8.26429 17.92535,12.61663 3.31279,2.18668 6.17325,4.34776 6.35658,4.80242 0.18334,0.45466 0.71062,0.82665 1.17174,0.82665 0.46113,0 3.85822,2.025 7.54909,4.5 5.32025,3.56762 7.58768,4.5 10.9434,4.5 6.58839,0 12.50244,-5.91193 12.50244,-12.49796 0,-3.49483 -7.05229,-10.35311 -18.51129,-18.00204 -4.94379,-3.3 -9.13871,-6.3375 -9.32204,-6.75 -0.18334,-0.4125 -0.70996,-0.75 -1.17027,-0.75 -1.19282,0 -16.4093,-10.58766 -18.03948,-12.55191 -1.15006,-1.38573 -1.13593,-1.98362 0.0914,-3.87015 0.79839,-1.22718 2.35163,-3.65639 3.45163,-5.39826 2.1172,-3.35263 6.11246,-4.35318 7.10056,-1.77822 0.29578,0.7708 1.29416,1.65406 2.21861,1.96279 2.86362,0.95635 32.92854,22.05179 39.51899,27.72901 3.43441,2.95851 7.23831,7.29278 8.45311,9.63172 2.8636,5.51347 2.95123,13.39577 0.20873,18.77502 -1.1,2.15759 -2,4.52399 -2,5.25867 0,2.39199 -8.62946,10.16137 -14.1306,12.72225 -5.37585,2.50254 -10.17714,3.01403 -14.87587,1.58474 z m 510.03364,-6.01244 c -2.5358,-4.97052 -1.9675,-6.29297 4.6678,-10.86196 14.9052,-10.26364 15.5239,-10.3436 20.055,-2.59177 1.7875,3.05804 3.25,5.955 3.25,6.4377 0,1.34837 -17.043,9.15444 -22.6992,10.39676 -2.984,0.65538 -3.3266,0.43572 -5.2736,-3.38073 z m -63.8675,-10.7831 c -4.646,-4.92832 -5.1336,-5.81602 -3.75,-6.82772 0.8747,-0.63959 1.5903,-1.44756 1.5903,-1.7955 0,-0.79415 10.5873,-27.74016 13.0372,-33.18159 0.9992,-2.21908 2.1415,-5.329 2.5385,-6.91093 0.6826,-2.71939 0.6137,-2.79929 -1.2621,-1.46531 -4.8805,3.47078 -14.3065,11.48125 -14.3098,12.16093 0,0.4125 -0.4104,0.75 -0.9074,0.75 -0.497,0 -2.4095,1.31902 -4.25,2.93116 -1.8405,1.61214 -4.9214,4.30495 -6.8464,5.98403 -1.925,1.67907 -4.092,3.06005 -4.8157,3.06884 -2.1376,0.026 -5.1843,-1.95109 -5.1843,-3.36423 0,-0.7204 -0.9,-2.12431 -2,-3.1198 -2.5647,-2.32109 -2.5172,-3.29266 0.2882,-5.88533 2.5448,-2.35189 29.6755,-25.0504 36.7836,-30.77449 2.4996,-2.01291 5.6435,-4.81763 6.9865,-6.23273 1.3429,-1.41509 2.8963,-2.58067 3.452,-2.59017 0.5556,-0.01 2.2234,-1.14228 3.7063,-2.51728 1.4829,-1.375 3.3365,-2.5 4.1192,-2.5 1.9805,0 9.6642,7.64336 9.6642,9.61339 0,0.88858 -4.058,11.75605 -9.0178,24.14992 -4.9598,12.39387 -8.87,22.68223 -8.6892,22.86303 0.388,0.38794 4.4939,-2.72016 10.1518,-7.68463 2.2304,-1.95705 6.2868,-5.33205 9.0143,-7.5 2.7275,-2.16794 5.6878,-4.61671 6.5786,-5.44171 4.6359,-4.29374 7.1622,-6 8.8834,-6 1.9344,0 8.0789,7.32427 8.0789,9.63005 0,0.67983 -2.1375,2.93066 -4.75,5.00184 -2.6125,2.07119 -5.2,4.23882 -5.75,4.81695 -0.55,0.57814 -3.25,2.8359 -6,5.01725 -2.75,2.18135 -5.225,4.21359 -5.5,4.51609 -0.275,0.3025 -2.075,1.82727 -4,3.38838 -5.2868,4.28741 -12.7833,10.60681 -18.5408,15.62944 -9.7714,8.52414 -11.6683,9.9999 -12.812,9.96747 -0.6309,-0.0179 -3.5503,-2.5817 -6.4875,-5.69735 z M 340.92771,282.74185 c -2.58665,-0.45467 -5.72428,-1.542 -6.9725,-2.41629 -1.24823,-0.87429 -2.89786,-1.58962 -3.66586,-1.58962 -0.768,0 -5.06578,-3.7125 -9.55064,-8.25 -6.01732,-6.08795 -9.19648,-10.32243 -12.13114,-16.15803 -3.71896,-7.39521 -3.97607,-8.4652 -3.96485,-16.5 0.01,-6.85083 0.44566,-9.40256 2.15201,-12.59197 3.00812,-5.6226 8.41942,-10.70922 14.85878,-13.96724 4.9973,-2.5284 6.22972,-2.74171 13.24363,-2.29226 5.97489,0.38288 8.81377,1.11355 12.48358,3.21303 2.6125,1.4946 4.75,3.39566 4.75,4.22458 0,1.82047 -7.08899,11.2219 -8.5,11.27271 -0.55,0.0198 -2.35,-0.85807 -4,-1.95082 -1.77075,-1.17272 -4.69203,-1.98952 -7.12942,-1.99341 -3.45889,-0.006 -4.78947,0.63397 -8.19434,3.93829 -5.34999,5.19199 -6.08303,9.03912 -3.08105,16.16997 2.95078,7.00921 10.93764,17.12364 16.59567,21.01647 7.58765,5.22044 15.81426,4.85586 20.34303,-0.90154 2.39933,-3.05025 2.65702,-10.99303 0.49245,-15.17885 -1.82762,-3.53422 -1.17776,-4.13364 6.9006,-6.36502 3.73985,-1.033 6.34125,-1.29326 7.04973,-0.70527 1.22909,1.02005 3.54505,9.22032 4.04089,14.30786 0.84995,8.72075 -5.26201,18.60687 -14.94993,24.18158 -4.67749,2.69156 -13.65157,3.78719 -20.77064,2.53583 z m 339.51268,-3.48334 c -2.8401,-1.91258 -5.4191,-3.89058 -5.7312,-4.39554 -0.312,-0.50496 0.3191,-4.45262 1.4026,-8.77257 l 1.97,-7.85446 -2.2255,-1.73301 c -1.2241,-0.95315 -5.9514,-4.03369 -10.5051,-6.84563 -9.2472,-5.71012 -8.5593,-5.75377 -16.2205,1.02911 -4.5822,4.05697 -7.1539,4.63798 -10.6558,2.4074 -1.5643,-0.99642 -3.0692,-2.04707 -3.3442,-2.33477 -0.275,-0.28771 -1.3732,-1.00525 -2.4404,-1.59454 -1.0673,-0.5893 -2.0951,-1.53528 -2.2841,-2.10219 -0.189,-0.56691 3.8342,-4.33122 8.9405,-8.36514 5.1062,-4.03391 13.5542,-10.73793 18.7733,-14.89781 5.2191,-4.15988 9.9441,-7.91507 10.5,-8.34486 0.5559,-0.4298 5.0607,-3.97399 10.0107,-7.87599 13.234,-10.4321 12.9848,-10.29863 16.5059,-8.84013 1.6468,0.68211 2.9941,1.63561 2.9941,2.11888 0,0.48327 0.6252,0.87868 1.3893,0.87868 0.764,0 2.4151,0.83072 3.6689,1.84604 2.1981,1.77988 2.2341,2.0576 1.0057,7.75 -0.7007,3.24718 -1.8824,8.82896 -2.626,12.40396 -1.4796,7.11323 -4.6586,21.63017 -6.4603,29.5 -4.0569,17.72141 -4.8633,21.44184 -5.473,25.25 -0.8499,5.30913 -2.2801,5.4293 -9.1949,0.77257 z m 3.4456,-45.60277 c 4.2534,-15.74826 4.6238,-15.03978 -4.1981,-8.02932 -11.4252,9.07918 -11.2901,8.90433 -8.4408,10.92175 1.311,0.92827 3.7336,2.65931 5.3836,3.84674 1.65,1.18743 3.4458,2.05134 3.9906,1.9198 0.5449,-0.13154 2.014,-4.02808 3.2647,-8.65897 z M 406.1879,248.30483 c -0.62766,-0.75628 -1.53151,-2.65617 -2.00856,-4.22197 -0.47705,-1.56581 -2.06563,-5.99692 -3.53018,-9.84692 -1.46454,-3.85 -3.9525,-10.6 -5.5288,-15 -4.26664,-11.90972 -7.37047,-20.09656 -10.94059,-28.85754 -4.50866,-11.06412 -4.46588,-12.42379 0.45095,-14.33033 5.30238,-2.05604 9.56551,-2.18265 10.50954,-0.31213 0.41637,0.825 1.74332,4.2 2.94879,7.5 1.20546,3.3 2.77183,7.125 3.48082,8.5 0.70899,1.375 1.59021,3.76307 1.95827,5.30681 0.7705,3.2317 0.34544,3.28061 13.85258,-1.59389 9.51457,-3.43364 10.00524,-4.10631 7.33954,-10.06179 -3.34053,-7.46315 -7.60747,-19.8131 -7.11871,-20.60393 0.72601,-1.17471 9.35675,-4.0472 12.1603,-4.0472 1.69762,0 2.52502,0.82469 3.26072,3.25 1.65523,5.45666 3.95447,11.52843 11.07631,29.25 3.75753,9.35 7.29119,18.575 7.85258,20.5 0.89213,3.05909 3.39868,9.80695 5.66144,15.24113 0.57549,1.38211 -0.17275,2.12287 -3.62859,3.59231 -6.5596,2.78919 -9.49412,3.31858 -10.57029,1.90689 -0.52005,-0.68218 -2.19238,-4.84033 -3.7163,-9.24033 -2.55327,-7.37206 -6.71226,-18.54565 -7.19639,-19.3339 -0.2057,-0.33491 -11.12059,3.27376 -14.87061,4.9165 -1.1,0.48187 -3.24788,1.32822 -4.77306,1.88078 -2.39251,0.86678 -2.68236,1.38424 -2.11212,3.77064 0.36353,1.52129 0.97253,3.21598 1.35335,3.76598 0.38082,0.55 2.14447,5.275 3.91923,10.5 1.77475,5.225 3.63097,10.24912 4.12493,11.16472 0.98869,1.83264 -0.17845,3.18912 -3.51233,4.08214 -1.1,0.29464 -3.64287,1.24703 -5.65081,2.1164 -3.08526,1.33583 -3.8276,1.36768 -4.79201,0.20563 z m 202.72759,-8.11745 c -0.3017,-0.30171 -2.7273,-1.08921 -5.3902,-1.75 -5.6175,-1.39395 -4.8146,0.60911 -12.42,-30.98373 -2.6059,-10.82457 -4.708,-17.63991 -5.3724,-17.41842 -0.6004,0.20012 -1.6127,2.57715 -2.2495,5.28229 -0.6369,2.70513 -2.1305,8.51842 -3.3193,12.91842 -1.1887,4.4 -2.9596,11.03964 -3.9354,14.75476 -0.9758,3.71512 -1.9775,6.95815 -2.2261,7.20674 -0.7801,0.78006 -12.269,-3.15299 -12.663,-4.33498 -0.4111,-1.23333 0.7374,-6.61907 3.8654,-18.12652 2.419,-8.8992 5.6175,-21.05672 9.8656,-37.5 4.293,-16.61724 4.22,-16.47953 8.2472,-15.56742 8.5608,1.93894 10.7687,3.29811 11.3962,7.01535 0.3298,1.95364 1.0302,5.12707 1.5564,7.05207 2.2436,8.20662 8.1915,30.88532 9.2707,35.3479 l 1.1723,4.84789 2.8167,-10.84789 c 1.5492,-5.96635 3.1906,-12.6479 3.6476,-14.8479 0.457,-2.2 1.5334,-5.96908 2.392,-8.37573 0.8586,-2.40665 1.561,-5.45827 1.561,-6.78138 0,-3.21214 1.973,-3.78874 8.0093,-2.34067 5.2353,1.25593 7.9775,4.05013 6.1943,6.3117 -0.5143,0.65235 -1.1946,2.31108 -1.5116,3.68608 -0.317,1.375 -1.2609,5.2 -2.0976,8.5 -0.8366,3.3 -2.3982,9.6 -3.4701,14 -2.1384,8.77762 -4.2555,16.66438 -8.6573,32.25 -2.1432,7.58863 -3.3153,10.25 -4.5142,10.25 -0.8907,0 -1.8663,-0.24685 -2.168,-0.54856 z M 475.33576,225.483 c -0.73103,-0.88084 -0.62942,-1.99454 0.34212,-3.75 0.76008,-1.37338 1.39792,-3.28277 1.4174,-4.24308 0.0195,-0.96031 0.89366,-4.33531 1.9426,-7.5 1.70218,-5.13553 4.024,-13.04171 11.2341,-38.25398 1.17965,-4.125 3.14696,-10.65 4.3718,-14.5 l 2.22697,-7 h 7.771 c 8.35416,0 8.05377,-0.17964 10.8692,6.5 0.81137,1.925 2.40775,5.61281 3.5475,8.19514 1.13975,2.58232 2.07227,5.21289 2.07227,5.8457 0,0.63282 0.65386,2.34501 1.45303,3.80487 1.88477,3.44296 7.37932,16.22953 14.24681,33.15429 3.01283,7.425 5.71103,14.0625 5.99603,14.75 0.3909,0.94319 -1.5898,1.25 -8.06983,1.25 -8.54273,0 -8.59139,-0.0145 -9.24488,-2.75 -0.36131,-1.5125 -0.98624,-3.2 -1.38872,-3.75 -0.40249,-0.55 -1.25968,-2.64005 -1.90487,-4.64455 -0.64519,-2.0045 -1.94133,-3.82999 -2.88032,-4.05664 -0.93899,-0.22665 -6.68934,-0.22707 -12.77855,-9.4e-4 l -11.07131,0.41115 -1.22497,4.14549 c -0.67374,2.28002 -1.67921,5.93442 -2.23438,8.12089 -0.55517,2.18646 -1.54685,4.31707 -2.20372,4.73468 -2.00296,1.27339 -13.3491,0.91081 -14.48928,-0.46302 z m 38.79496,-32.25374 c 0,-0.82867 -1.575,-5.48959 -3.5,-10.3576 -1.925,-4.868 -3.5,-9.42009 -3.5,-10.11576 0,-3.01318 -2.88106,1.33195 -3.50598,5.28761 -0.36428,2.30584 -1.29945,6.41161 -2.07817,9.12393 -2.20199,7.66968 -2.27664,7.5685 5.58415,7.5685 5.56935,0 7,-0.30793 7,-1.50668 z"
     id="path452"
     inkscape:connector-curvature="0" />
  <rect
     style="fill:none;fill-opacity:1;stroke:#000000;stroke-width:2;stroke-miterlimit:4;stroke-dasharray:none;stroke-opacity:1"
     id="rect458"
     width="861.08105"
     height="861.08105"
     x="91.216217"
     y="60.202702" />
  <text
     xml:space="preserve"
     style="font-style:normal;font-weight:normal;font-size:13.33333302px;line-height:1.25;font-family:sans-serif;letter-spacing:0px;word-spacing:0px;fill:#000000;fill-opacity:1;stroke:none"
     x="394.05405"
     y="985.13513"
     id="text462"><tspan
       sodipodi:role="line"
       id="tspan460"
       x="394.05405"
       y="985.13513"
       style="font-size:53.33333206px">50.00mm</tspan></text>
</svg>
