<?xml version="1.0" encoding="UTF-8" standalone="no"?>
<!-- Created with Inkscape (http://www.inkscape.org/) -->

<svg
   xmlns:dc="http://purl.org/dc/elements/1.1/"
   xmlns:cc="http://creativecommons.org/ns#"
   xmlns:rdf="http://www.w3.org/1999/02/22-rdf-syntax-ns#"
   xmlns:svg="http://www.w3.org/2000/svg"
   xmlns="http://www.w3.org/2000/svg"
   xmlns:sodipodi="http://sodipodi.sourceforge.net/DTD/sodipodi-0.dtd"
   xmlns:inkscape="http://www.inkscape.org/namespaces/inkscape"
   width="60mm"
   height="60mm"
   viewBox="0 0 60 60"
   version="1.1"
   id="svg102"
   inkscape:version="0.92.2 5c3e80d, 2017-08-06"
   sodipodi:docname="50mm_sq.svg">
  <defs
     id="defs96" />
  <sodipodi:namedview
     id="base"
     pagecolor="#ffffff"
     bordercolor="#666666"
     borderopacity="1.0"
     inkscape:pageopacity="0.0"
     inkscape:pageshadow="2"
     inkscape:zoom="1.979899"
     inkscape:cx="207.11523"
     inkscape:cy="134.14214"
     inkscape:document-units="mm"
     inkscape:current-layer="layer1"
     showgrid="false"
     inkscape:window-width="1440"
     inkscape:window-height="805"
     inkscape:window-x="0"
     inkscape:window-y="1"
     inkscape:window-maximized="1" />
  <metadata
     id="metadata99">
    <rdf:RDF>
      <cc:Work
         rdf:about="">
        <dc:format>image/svg+xml</dc:format>
        <dc:type
           rdf:resource="http://purl.org/dc/dcmitype/StillImage" />
        <dc:title></dc:title>
      </cc:Work>
    </rdf:RDF>
  </metadata>
  <g
     inkscape:label="Layer 1"
     inkscape:groupmode="layer"
     id="layer1"
     transform="translate(0,-237)">
    <path
       style="fill:#000000;stroke-width:0.05120297"
       d="m 28.548274,282.68476 c -0.08448,-0.01 -0.372499,-0.0424 -0.640035,-0.0722 -2.791212,-0.31243 -5.818723,-1.56644 -8.115673,-3.36156 -2.851661,-2.22861 -4.931526,-5.39469 -5.813691,-8.84988 -0.383451,-1.50186 -0.509909,-2.53444 -0.509819,-4.16294 1.08e-4,-1.65929 0.19949,-3.09376 0.64158,-4.61565 0.33969,-1.16936 0.999495,-2.68807 1.634451,-3.76204 0.128074,-0.21662 0.232858,-0.40348 0.232858,-0.41523 0,-0.0115 -1.802982,-0.0218 -4.006633,-0.0225 l -4.0066336,-10e-4 -1.1520665,-1.39126 c -0.6336366,-0.76519 -1.159747,-1.40986 -1.1691337,-1.4326 -0.00938,-0.0227 3.7909603,-0.0413 8.4452228,-0.0413 h 8.462282 l -0.355149,0.23802 c -3.268745,2.19079 -5.378457,5.55966 -5.997647,9.57732 -0.123263,0.7998 -0.123072,2.93959 3.16e-4,3.77904 0.58694,3.99229 2.765473,7.43186 6.13024,9.67867 1.235279,0.82486 3.1112,1.62323 4.55541,1.93873 1.196655,0.2614 1.680532,0.31047 3.046576,0.30896 1.448687,-10e-4 2.204818,-0.0906 3.423535,-0.40295 1.41534,-0.36276 2.968087,-1.05276 4.159649,-1.84848 4.626286,-3.08938 6.959755,-8.42451 6.05677,-13.84796 -0.608438,-3.6544 -2.5914,-6.8043 -5.669618,-9.00612 l -0.580536,-0.41523 h 8.457263 8.457253 l -0.09388,0.12483 c -0.05163,0.0686 -0.577733,0.7127 -1.169128,1.43119 l -1.07526,1.30636 -4.006641,0.002 c -2.868582,0.002 -4.006633,0.0184 -4.006633,0.0586 0,0.0308 0.04266,0.11723 0.0948,0.19202 0.177805,0.25491 0.71544,1.26129 0.92932,1.73956 0.940928,2.10406 1.402959,4.11261 1.469586,6.3887 0.115245,3.9367 -1.131634,7.65492 -3.61283,10.77354 -0.524808,0.65962 -1.910717,2.04284 -2.562251,2.55727 -2.525379,1.99393 -5.392929,3.17081 -8.556134,3.51154 -0.61806,0.0666 -2.651401,0.0944 -3.097781,0.0422 z m -6.187848,-9.07408 c 0.38057,-1.51705 0.42338,-2.35245 0.425774,-8.30865 l 0.002,-4.33363 -0.840165,-0.976 c -0.462089,-0.53679 -0.855152,-1.00024 -0.873469,-1.02988 -0.02309,-0.0374 0.585591,-0.0539 1.985717,-0.0539 h 2.019026 l 0.0239,0.24876 c 0.05018,0.52223 0.226621,0.7733 2.64985,3.77066 1.274975,1.57707 2.364185,2.91783 2.420473,2.97948 l 0.102333,0.11215 2.159512,-2.74907 c 1.187731,-1.51197 2.23034,-2.85275 2.316913,-2.97947 0.26536,-0.38845 0.482582,-0.86644 0.513893,-1.1308 l 0.02981,-0.25168 H 37.1352 c 1.457243,0 1.831402,0.0134 1.801659,0.064 -0.02064,0.0352 -0.128277,0.19902 -0.239178,0.36406 -0.280531,0.41747 -0.729949,1.3751 -0.832381,1.77365 -0.236767,0.92127 -0.239366,0.97037 -0.264121,4.9923 -0.03115,5.06357 0.0249,6.03933 0.437721,7.61705 l 0.143862,0.54983 h -1.891218 c -1.558406,0 -1.886582,-0.0127 -1.864919,-0.0685 0.06217,-0.16199 0.296107,-1.17039 0.364228,-1.56997 0.157875,-0.92605 0.189185,-1.89477 0.173567,-5.37015 l -0.01547,-3.45001 -2.379593,3.10319 c -1.30877,1.70675 -2.394187,3.08646 -2.412035,3.06601 -0.01782,-0.0204 -1.075993,-1.32751 -2.351441,-2.90457 -1.275448,-1.57706 -2.340068,-2.8904 -2.365824,-2.91856 -0.06988,-0.0764 -0.01567,7.59655 0.05657,8.00928 0.04833,0.27605 0.316493,1.4676 0.441682,1.9625 l 0.03562,0.1408 H 24.084672 22.19543 Z"
       id="path74"
       inkscape:connector-curvature="0" />
    <rect
       style="fill:none;fill-opacity:1;stroke:#000000;stroke-width:0.16202052;stroke-miterlimit:4;stroke-dasharray:none;stroke-opacity:1"
       id="rect78"
       width="49.837978"
       height="49.837978"
       x="5.1073503"
       y="240.83308" />
    <text
       xml:space="preserve"
       style="font-style:normal;font-weight:normal;font-size:3.52777767px;line-height:1.25;font-family:sans-serif;letter-spacing:0px;word-spacing:0px;fill:#000000;fill-opacity:1;stroke:none;stroke-width:0.26458332"
       x="23.152109"
       y="295.13553"
       id="text82"><tspan
         sodipodi:role="line"
         id="tspan80"
         x="23.152109"
         y="295.13553"
         style="stroke-width:0.26458332">50.00mm</tspan></text>
  </g>
</svg>
