<?xml version="1.0" encoding="UTF-8" standalone="no"?>
<!-- Created with Inkscape (http://www.inkscape.org/) -->

<svg
   xmlns:dc="http://purl.org/dc/elements/1.1/"
   xmlns:cc="http://creativecommons.org/ns#"
   xmlns:rdf="http://www.w3.org/1999/02/22-rdf-syntax-ns#"
   xmlns:svg="http://www.w3.org/2000/svg"
   xmlns="http://www.w3.org/2000/svg"
   xmlns:sodipodi="http://sodipodi.sourceforge.net/DTD/sodipodi-0.dtd"
   xmlns:inkscape="http://www.inkscape.org/namespaces/inkscape"
   width="100mm"
   height="100mm"
   viewBox="0 0 100 100"
   version="1.1"
   id="svg122"
   inkscape:version="0.92.2 5c3e80d, 2017-08-06"
   sodipodi:docname="40mm_ci.svg">
  <defs
     id="defs116" />
  <sodipodi:namedview
     id="base"
     pagecolor="#ffffff"
     bordercolor="#666666"
     borderopacity="1.0"
     inkscape:pageopacity="0.0"
     inkscape:pageshadow="2"
     inkscape:zoom="1.979899"
     inkscape:cx="200.83895"
     inkscape:cy="156.02309"
     inkscape:document-units="mm"
     inkscape:current-layer="layer1"
     showgrid="false"
     inkscape:window-width="1440"
     inkscape:window-height="805"
     inkscape:window-x="0"
     inkscape:window-y="1"
     inkscape:window-maximized="1" />
  <metadata
     id="metadata119">
    <rdf:RDF>
      <cc:Work
         rdf:about="">
        <dc:format>image/svg+xml</dc:format>
        <dc:type
           rdf:resource="http://purl.org/dc/dcmitype/StillImage" />
        <dc:title></dc:title>
      </cc:Work>
    </rdf:RDF>
  </metadata>
  <g
     inkscape:label="Layer 1"
     inkscape:groupmode="layer"
     id="layer1"
     transform="translate(0,-197)">
    <path
       style="fill:#000000;stroke-width:0.02687633"
       d="m 48.814732,266.25076 c -0.125663,-0.012 -0.434055,-0.0415 -0.685342,-0.0654 -3.182027,-0.30324 -5.789571,-0.94141 -7.30546,-1.78793 -0.604457,-0.33754 -0.834234,-0.51339 -1.872815,-1.43325 -0.508707,-0.45054 -1.739601,-1.68886 -2.047992,-2.06032 -0.678088,-0.81681 -2.327238,-3.31147 -3.080626,-4.65996 -0.780058,-1.39627 -1.28562,-2.72193 -1.55941,-4.08887 -0.231488,-1.15584 -0.335573,-2.35621 -0.336575,-3.8815 0,-1.65241 0.15301,-2.93653 0.535318,-4.46147 0.476267,-1.8996 1.262096,-3.51491 2.739243,-5.63072 1.456061,-2.08558 3.030402,-3.77096 4.690534,-5.02137 1.010898,-0.76142 2.166912,-1.45416 3.682222,-2.20661 2.746203,-1.36364 4.927636,-2.00116 7.229746,-2.11287 0.607278,-0.0294 0.874137,-0.0213 1.491657,0.0453 1.88471,0.20356 4.267961,1.16859 6.82657,2.76423 2.342514,1.46089 4.089498,2.74687 5.09376,3.74957 0.388953,0.38835 0.587735,0.63602 0.960506,1.19657 0.860974,1.29473 1.578677,2.81898 2.505475,5.32109 0.378946,1.02309 0.457815,1.30697 0.910705,3.27892 0.478597,2.08396 0.646856,3.27931 0.650316,4.62076 0.0029,0.75971 -0.0696,1.28592 -0.298827,2.1978 -0.536469,2.13385 -2.122262,6.04434 -2.845706,7.01737 -0.05278,0.071 -0.186613,0.20501 -0.297471,0.29793 -0.286284,0.23998 -0.931113,0.84393 -1.663888,1.55847 -1.088617,1.06153 -1.588498,1.48532 -2.537776,2.15153 -0.624324,0.43815 -1.722684,1.01652 -2.571182,1.35388 -2.468236,0.98145 -5.332337,1.58594 -8.546657,1.80385 -0.993537,0.0673 -1.385792,0.0799 -1.666325,0.053 z m 2.584697,-1.26165 c 1.168235,-0.0804 3.161513,-0.4153 4.631592,-0.77809 1.616426,-0.39891 2.777404,-0.85469 3.9357,-1.54509 1.649446,-0.98311 3.799578,-2.70155 5.067868,-4.05033 0.547577,-0.58234 0.901543,-1.22302 1.514444,-2.74131 1.346254,-3.33482 1.816475,-5.70383 1.549175,-7.80495 -0.206805,-1.62579 -0.84028,-4.09407 -1.720294,-6.70303 -0.516277,-1.53061 -0.822516,-2.21147 -1.359988,-3.02359 -0.668738,-1.01053 -1.305488,-1.80072 -2.119826,-2.63067 -0.876317,-0.89315 -1.57203,-1.47817 -2.585886,-2.17452 -1.410094,-0.9685 -3.349086,-1.88036 -6.068463,-2.85382 -0.852853,-0.30532 -0.902704,-0.31658 -1.97166,-0.44576 l -0.963819,-0.11648 -0.635333,0.0723 c -0.695969,0.0791 -2.169421,0.26699 -2.4547,0.31301 -0.678255,0.10939 -1.879008,0.58067 -3.778935,1.48314 -2.387911,1.13427 -3.475142,1.77738 -4.372832,2.58658 -2.26161,2.03873 -4.175083,4.21211 -5.232498,5.9433 -0.529854,0.86746 -0.983451,1.84194 -1.282347,2.75482 -0.318281,0.97207 -0.589917,2.37902 -0.705651,3.6552 -0.04463,0.49161 -0.04493,2.03178 0,2.53979 0.147418,1.68744 0.432757,2.97383 0.89593,4.03906 0.564683,1.2988 2.029828,3.79666 3.045255,5.19168 1.035583,1.42274 2.301109,2.75 3.637483,3.81494 0.951042,0.7579 1.898069,1.33079 2.64555,1.60042 0.84897,0.30622 2.333755,0.56409 4.441803,0.77143 0.772518,0.076 0.988023,0.0863 2.12298,0.10217 0.694749,0.01 1.283408,0.0199 1.308093,0.0229 0.02467,0.003 0.230298,-0.008 0.456902,-0.023 z m 2.817426,-5.96689 c -0.594469,-0.0552 -1.143303,-0.24814 -1.640874,-0.57673 -0.297027,-0.19614 -0.75448,-0.66783 -0.986449,-1.01715 -0.537236,-0.80899 -1.05192,-2.11587 -1.311267,-3.32936 l -0.04444,-0.20829 -3.565131,-5.2e-4 c -2.326539,0 -3.599223,-0.01 -3.663258,-0.0274 -0.119402,-0.0331 -0.545807,-0.46625 -0.665661,-0.6761 -0.127276,-0.22284 -0.127276,-0.27872 0,-0.58557 0.124729,-0.30059 0.09844,-0.28485 0.405645,-0.24244 0.57582,0.0795 1.360312,0.0881 8.99881,0.0986 5.01891,0.007 7.814069,7.8e-4 7.874772,-0.0155 0.05172,-0.0145 0.199059,-0.0588 0.327424,-0.0985 0.412831,-0.12773 0.648389,-0.0681 0.778899,0.19676 0.05368,0.10906 0.06281,0.16826 0.06281,0.40968 0,0.23757 -0.0098,0.30345 -0.06174,0.41658 -0.123609,0.26875 -0.365202,0.44469 -0.681047,0.49595 -0.09398,0.0152 -0.559904,0.0278 -1.035286,0.0279 l -0.864355,5.2e-4 0.03725,0.1411 c 0.142611,0.54017 0.153426,1.21166 0.02733,1.69237 -0.08985,0.34239 -0.22442,0.68149 -0.437732,1.10317 -0.694199,1.37231 -1.583267,2.06885 -2.803022,2.19605 -0.286088,0.0298 -0.421217,0.0296 -0.752553,-7.8e-4 z m 0.617875,-1.35696 c 0.552267,-0.10477 0.970071,-0.34382 1.261841,-0.72198 0.165427,-0.21442 0.600082,-0.9452 0.768625,-1.2922 0.204877,-0.42188 0.267213,-0.66655 0.239578,-0.94064 -0.0286,-0.28327 -0.03018,-0.47653 -0.0049,-0.66521 l 0.02055,-0.15454 h -1.223098 c -0.740736,0 -1.223128,0.01 -1.223128,0.0251 0,0.0138 0.01249,0.0581 0.02791,0.0987 0.01543,0.0405 0.03332,0.21361 0.03981,0.38473 0.0069,0.17114 0.02566,0.45743 0.04237,0.6362 0.0234,0.24805 0.0231,0.33906 0,0.38428 -0.106335,0.19872 -0.539712,0.0846 -0.850641,-0.22423 -0.192362,-0.19099 -0.299691,-0.39951 -0.466141,-0.90554 -0.107564,-0.32701 -0.115006,-0.34056 -0.197849,-0.36026 -0.04738,-0.0113 -0.444356,-0.025 -0.882323,-0.0304 l -0.79624,-0.01 0.02182,0.11673 c 0.108528,0.58102 0.529802,1.91874 0.766097,2.43289 0.320141,0.6965 0.8949,1.15756 1.5571,1.24914 0.204877,0.0283 0.696508,0.016 0.900068,-0.0226 z m -0.659212,-12.02234 c -0.254147,-0.11545 -0.47841,-0.53285 -0.413313,-0.76925 0.01898,-0.0681 0.307419,-0.49611 0.788523,-1.16912 0.417431,-0.58388 0.768409,-1.07776 0.77997,-1.09751 0.01484,-0.0251 -0.21458,-0.2734 -0.756504,-0.81972 -0.488261,-0.49223 -0.795532,-0.82283 -0.825928,-0.88864 -0.200896,-0.4351 0.218964,-1.03745 0.723188,-1.03745 0.06498,0 0.152236,0.0128 0.193829,0.0285 0.04158,0.0157 0.405172,0.35696 0.807888,0.75845 0.631322,0.62937 0.737246,0.72452 0.768634,0.69044 0.01985,-0.0217 0.263487,-0.35397 0.5411,-0.73828 0.277603,-0.38433 0.541059,-0.73729 0.585483,-0.78434 0.192678,-0.20421 0.541228,-0.26415 0.789555,-0.13579 0.361447,0.18682 0.502259,0.59585 0.335131,0.97362 -0.02919,0.0663 -0.309572,0.48051 -0.622722,0.92022 -0.31311,0.43972 -0.575632,0.81595 -0.58333,0.83607 -0.0089,0.0226 0.337372,0.3885 0.902546,0.95443 0.68139,0.68233 0.930493,0.94888 0.970837,1.03878 0.144509,0.32203 0,0.70627 -0.344655,0.90811 -0.10091,0.0593 -0.156472,0.0728 -0.298671,0.0724 -0.150789,-5.2e-4 -0.201602,-0.0148 -0.371326,-0.10506 -0.174354,-0.0927 -0.282331,-0.19243 -0.952583,-0.88017 -0.41576,-0.42662 -0.764909,-0.77241 -0.77592,-0.76843 -0.01091,0.004 -0.318016,0.41239 -0.682254,0.90758 -0.718146,0.97633 -0.789181,1.06276 -0.919268,1.11857 -0.129487,0.0555 -0.505788,0.0477 -0.64021,-0.0133 z m -10.843735,-0.10774 c -0.209172,-0.0676 -0.369016,-0.21343 -0.455131,-0.41528 -0.0871,-0.20421 -0.09575,-0.31564 -0.035,-0.4509 0.02919,-0.0647 0.392777,-0.58952 0.808145,-1.16603 0.415337,-0.57649 0.755629,-1.06158 0.756179,-1.07799 0,-0.0164 -0.347036,-0.37318 -0.772421,-0.79285 -0.493145,-0.48652 -0.792188,-0.80198 -0.825188,-0.87053 -0.105727,-0.21967 -0.03991,-0.55112 0.155065,-0.78165 0.08287,-0.098 0.340549,-0.23924 0.482352,-0.26443 0.235726,-0.0419 0.269493,-0.0172 1.074649,0.78484 0.409754,0.40816 0.749956,0.73672 0.756023,0.73013 0.0059,-0.007 0.261334,-0.35668 0.567287,-0.77798 0.305914,-0.42128 0.58856,-0.79286 0.62808,-0.82574 0.09378,-0.0781 0.332554,-0.16868 0.444346,-0.16868 0.272767,0 0.594577,0.24599 0.674686,0.51573 0.05229,0.17619 0.05181,0.23613 -0.0039,0.434 -0.03824,0.13649 -0.138531,0.28692 -0.672405,1.00898 l -0.627401,0.84857 0.940059,0.94131 c 0.700107,0.70105 0.95393,0.97221 0.994343,1.06227 0.07185,0.16025 0.07167,0.36916 0,0.52277 -0.06527,0.13885 -0.281112,0.35051 -0.414089,0.40607 -0.132083,0.0552 -0.336212,0.0479 -0.516661,-0.0186 -0.143132,-0.0527 -0.222572,-0.1239 -0.995247,-0.89248 -0.619792,-0.61655 -0.847565,-0.82738 -0.869801,-0.80515 -0.0167,0.0166 -0.329223,0.45143 -0.694838,0.96639 -0.777079,1.09453 -0.777109,1.09456 -1.112043,1.10325 -0.120688,0.003 -0.249753,-0.004 -0.286784,-0.0161 z"
       id="path74"
       inkscape:connector-curvature="0" />
    <text
       xml:space="preserve"
       style="font-style:normal;font-weight:normal;font-size:3.52777767px;line-height:1.25;font-family:sans-serif;letter-spacing:0px;word-spacing:0px;fill:#000000;fill-opacity:1;stroke:none;stroke-width:0.26458332"
       x="43.585297"
       y="277.36325"
       id="text80"><tspan
         sodipodi:role="line"
         id="tspan78"
         x="43.585297"
         y="277.36325"
         style="stroke-width:0.26458332">40.00mm</tspan><tspan
         sodipodi:role="line"
         x="43.585297"
         y="281.77298"
         id="tspan82"
         style="stroke-width:0.26458332" /></text>
    <circle
       style="fill:none;fill-opacity:1;stroke:#000000;stroke-width:0.39503193;stroke-miterlimit:4;stroke-dasharray:none;stroke-opacity:1"
       id="path199"
       cx="50.492241"
       cy="248.14833"
       r="19.802485" />
  </g>
</svg>
